<?xml version="1.0" encoding="UTF-8" standalone="no"?>
<svg
   xmlns:dc="http://purl.org/dc/elements/1.1/"
   xmlns:cc="http://creativecommons.org/ns#"
   xmlns:rdf="http://www.w3.org/1999/02/22-rdf-syntax-ns#"
   xmlns:svg="http://www.w3.org/2000/svg"
   xmlns="http://www.w3.org/2000/svg"
   viewBox="0 0 133.33333 133.33333"
   height="133.33333"
   width="133.33333"
   xml:space="preserve"
   id="svg2"
   version="1.1"><metadata
     id="metadata8"><rdf:RDF><cc:Work
         rdf:about=""><dc:format>image/svg+xml</dc:format><dc:type
           rdf:resource="http://purl.org/dc/dcmitype/StillImage" /></cc:Work></rdf:RDF></metadata><defs
     id="defs6" /><g
     transform="matrix(1.3333333,0,0,-1.3333333,0,133.33333)"
     id="g10"><g
       transform="scale(0.1)"
       id="g12"><path
         id="path14"
         style="fill:#f03f4e;fill-opacity:1;fill-rule:nonzero;stroke:none"
         d="m 543.824,465.152 c -29.734,22.399 -143.523,90.536 -143.523,90.536 0,0 114.414,-63.977 144.207,-85.676 54.719,-39.852 208.379,-153 208.379,-153 0,0 -154.981,107.406 -209.063,148.14 z M 324.441,612.777 C 347.176,595 369.547,577.504 392.887,559.254 375.289,559.18 324,599.672 324.441,612.777 Z m 27.235,22.696 c 11.992,-10.121 38.164,-42.856 40.293,-50.391 -36.895,19.09 -47.149,31.91 -40.293,50.391 z m 12.812,19.461 c 4.563,-6.418 11.125,-11.071 12.375,-19.762 -4.972,5.848 -9.933,11.703 -14.902,17.555 0.848,0.734 1.687,1.468 2.527,2.207 z m 43.957,0.867 c -11.398,7.804 -16.3,20.129 -26.718,27.183 12.058,-1.418 24.257,-14.714 26.718,-27.183 z m 31.102,-39.262 c 20.058,-26.594 66.824,-112.476 66.824,-112.476 0,0 -47.723,75.445 -64.488,103.664 -5.539,9.324 -29.336,44.8 -29.336,44.8 0,0 20.644,-27.562 27,-35.988 z m 339.121,-287.66 c -14.57,21.394 -32.09,40.476 -50.078,59.113 -53.953,55.899 -113.445,105.977 -173.66,155.246 -20.782,16.996 -44.016,31.758 -62.082,51.117 -25.215,27.012 -49.539,54.825 -75.918,80.817 -7.567,7.457 -7.059,16.004 -1.27,23.105 5.137,6.297 7.637,10.524 3.535,18.868 -2.343,4.773 -5.175,11.546 -8.437,11.886 -5.457,0.563 -7.461,-7.035 -11.141,-10.941 -1.347,-1.434 -0.801,-5.375 0.039,-7.797 2.047,-5.934 1.473,-11.723 1.102,-20.238 -8.738,9.461 -7.723,17.929 -4.981,26.465 2.844,8.812 -1.015,16.324 -8.027,19.5 -9.629,4.363 -20.652,6.32 -31.629,4.972 -1.777,-0.222 -4.023,-2.34 -4.894,0.063 -3.973,11.039 -6.954,1.761 -10.039,-0.41 -2.411,-1.704 -4.883,-5.899 -7.04,-0.528 -6.269,15.602 -19.972,14.645 -33.574,16.414 -8.293,1.086 -7.988,-1.172 -8.246,-7.234 -0.203,-4.742 -1.949,-12.652 -8.082,-10.785 -10.773,3.269 -18.332,-6.364 -28.273,-4.313 -2.332,0.485 -2.371,-1.855 -2.137,-4.105 1.191,-11.504 1.152,-23.074 9.5,-32.867 2.785,-3.266 3.781,-8.731 1.437,-13.332 -4.945,-9.723 -5.031,-19.454 -0.714,-29.332 0.859,-1.055 2.277,-2.129 0.761,-3.508 -1.531,-1.391 -2.507,0.179 -3.562,0.988 -4.16,-6.289 -10.012,-8.137 -17.5,-7.102 -3.477,0.481 -9.453,1.489 -6.047,-5.57 4.953,-10.254 4.609,-21.68 10.461,-32.297 7.703,-13.992 16.004,-21.14 32.344,-17.586 15.078,3.282 23.328,2.192 33.203,-4.371 -47.434,-9.375 -47.434,-9.375 -53.313,-18.09 10.254,0.707 16.321,-7.711 26.309,-9.355 6.543,-1.074 11.25,-2.727 16.199,1.492 18.109,15.406 23.871,15.731 43.195,1.758 2.891,-2.082 5.86,-4.067 8.731,-6.16 34.68,-25.274 71.797,-46.918 101.055,-79.543 55.117,-61.457 113.585,-119.965 175.793,-174.848 18.75,-16.543 40.078,-29.633 59.285,-45.531 17.98,-14.875 36.355,-15.016 56.828,-3.106 10.371,6.032 19.5,13.516 27.32,22.465 17.094,19.551 18.051,33.375 3.547,54.68" /><path
         id="path16"
         style="fill:#f03f4e;fill-opacity:1;fill-rule:nonzero;stroke:none"
         d="M 499.996,907.996 C 274.664,907.996 92,725.332 92,500 92,274.668 274.664,92.0039 499.996,92.0039 c 225.332,0 408.008,182.6641 408.008,407.9961 0,225.332 -182.676,407.996 -408.008,407.996 z m 0,-38.246 c 203.887,0 369.758,-165.867 369.758,-369.75 0,-203.883 -165.871,-369.75 -369.758,-369.75 -203.875,0 -369.746,165.867 -369.746,369.75 0,203.883 165.871,369.75 369.746,369.75" /></g></g></svg>