<?xml version="1.0" encoding="UTF-8" standalone="no"?>
<svg
   xmlns:dc="http://purl.org/dc/elements/1.1/"
   xmlns:cc="http://creativecommons.org/ns#"
   xmlns:rdf="http://www.w3.org/1999/02/22-rdf-syntax-ns#"
   xmlns:svg="http://www.w3.org/2000/svg"
   xmlns="http://www.w3.org/2000/svg"
   viewBox="0 0 133.34666 133.33333"
   height="133.33333"
   width="133.34666"
   xml:space="preserve"
   id="svg2"
   version="1.1"><metadata
     id="metadata8"><rdf:RDF><cc:Work
         rdf:about=""><dc:format>image/svg+xml</dc:format><dc:type
           rdf:resource="http://purl.org/dc/dcmitype/StillImage" /></cc:Work></rdf:RDF></metadata><defs
     id="defs6" /><g
     transform="matrix(1.3333333,0,0,-1.3333333,0,133.33333)"
     id="g10"><g
       transform="scale(0.1)"
       id="g12"><path
         id="path14"
         style="fill:#f03f4e;fill-opacity:1;fill-rule:nonzero;stroke:none"
         d="m 752.215,458.246 c -12.207,-3.445 -23.879,-8.555 -34.766,-14.922 -1.25,14.547 -5.207,26.953 -11.601,37.453 0.664,0.739 1.433,1.387 2.039,2.161 0.722,0.925 1.426,1.882 2.336,2.625 0.898,0.73 1.961,1.23 3.027,1.722 4.238,1.969 8.496,3.938 12.734,5.903 3.25,1.507 6.864,3.429 7.715,6.828 0.516,2.097 -0.168,4.285 -0.879,6.328 -2.558,7.261 -5.734,14.297 -9.277,21.152 -0.051,0.535 -0.109,1.102 -0.266,1.754 -7.039,28.371 -14.566,57.754 -33.328,80.563 -3.066,3.734 -6.484,7.359 -8.183,11.835 -1.192,3.125 -1.473,6.5 -1.711,9.829 -0.703,10.093 -1.004,20.339 -3.946,30.046 -3.222,10.629 -9.48,20.157 -16.406,28.969 -7.762,9.891 -16.699,19.274 -28.035,25.051 -16.895,8.605 -38.41,7.973 -54.738,-1.617 1.418,-8.324 11.875,-11.199 19.218,-15.727 4.797,-2.961 8.645,-7.136 12.415,-11.261 4.128,-4.512 8.273,-9.028 12.402,-13.54 -11.445,2.715 -24.992,7.442 -27.277,18.665 -5.477,-0.254 -9.747,-5.243 -10.801,-10.461 -1.043,-5.219 0.39,-10.582 2.011,-15.664 5.481,-17.204 13.204,-33.727 22.93,-49.063 2.285,-3.598 4.688,-7.145 7.551,-10.32 10.84,-12.004 27.129,-17.649 42.684,-22.825 -3.047,-7.339 0.578,-15.554 4.375,-22.558 10.148,-18.668 22.082,-36.399 35.429,-53.051 -1.363,-3.18 -4.09,-6.183 -7.234,-9.078 -37.481,32.953 -109.512,39.187 -192.297,39.187 -80.801,0 -151.231,-3.109 -189.422,-34.019 -3.273,2.984 -6.152,6.086 -7.57,9.379 13.359,16.652 25.293,34.379 35.429,53.051 3.801,6.996 7.434,15.218 4.387,22.558 15.555,5.176 31.844,10.821 42.676,22.821 2.871,3.179 5.273,6.726 7.559,10.324 9.726,15.336 17.449,31.859 22.929,49.062 1.621,5.082 3.055,10.446 2,15.664 -1.054,5.219 -5.312,10.203 -10.789,10.457 -2.297,-11.218 -15.832,-15.945 -27.277,-18.66 4.133,4.512 8.262,9.028 12.402,13.539 3.77,4.125 7.617,8.301 12.414,11.262 7.344,4.523 17.793,7.402 19.207,15.727 -16.316,9.589 -37.832,10.222 -54.726,1.617 -11.336,-5.778 -20.282,-15.16 -28.047,-25.051 -6.914,-8.813 -13.172,-18.34 -16.395,-28.969 -2.941,-9.707 -3.242,-19.949 -3.945,-30.051 -0.234,-3.324 -0.52,-6.699 -1.707,-9.824 -1.711,-4.476 -5.121,-8.101 -8.188,-11.836 -18.757,-22.808 -26.289,-52.191 -33.328,-80.562 -0.168,-0.653 -0.226,-1.219 -0.273,-1.75 -3.535,-6.86 -6.719,-13.899 -9.27,-21.156 -0.722,-2.043 -1.406,-4.231 -0.879,-6.329 0.852,-3.398 4.465,-5.316 7.715,-6.828 4.239,-1.968 8.489,-3.933 12.735,-5.906 1.054,-0.488 2.121,-0.988 3.019,-1.719 0.918,-0.742 1.61,-1.699 2.332,-2.625 0.489,-0.613 1.106,-1.117 1.614,-1.707 -7.434,-11.207 -12.129,-24.859 -13.641,-41.445 -9.926,5.465 -20.453,9.898 -31.418,12.992 -32.981,-19.383 -63.606,-42.543 -91.035,-68.844 4.844,-2.98 11.203,-2.73 16.57,-0.789 5.371,1.946 10.012,5.375 14.649,8.645 19.757,13.887 41.21,25.492 63.773,34.484 6.297,-10.879 16.453,-19.07 26.383,-27 2.422,-1.933 4.836,-3.867 7.258,-5.801 0.144,-0.371 0.293,-0.738 0.441,-1.109 -6.926,1.445 -13.918,2.551 -20.988,2.856 -23.684,-22.86 -44.59,-48.426 -62.141,-76.004 4.699,-1.547 10,-0.082 14.113,2.617 4.121,2.703 7.293,6.512 10.52,10.179 13.699,15.61 29.324,29.633 46.422,41.68 7.59,-7.91 17.863,-12.793 27.89,-17.504 3.75,-1.758 7.5,-3.519 11.25,-5.277 1.243,-1.324 2.364,-2.688 3.664,-3.984 -6.015,-0.415 -12.003,-1.11 -17.871,-2.438 -14.785,-25.387 -26.476,-52.469 -34.757,-80.492 4.464,-0.235 8.683,2.289 11.566,5.598 2.887,3.312 4.684,7.359 6.551,11.3 7.949,16.75 17.968,32.582 29.754,47.055 8.554,-5.059 18.683,-6.859 28.547,-8.574 4.617,-0.797 9.238,-1.598 13.859,-2.399 0.066,0.188 0.125,0.41 0.191,0.602 38.567,-23.551 88.782,-38.723 143.848,-38.723 62.609,0 118.965,19.571 158.996,48.852 0.848,0.144 1.688,0.293 2.539,0.437 9.863,1.707 19.988,3.512 28.555,8.571 11.785,-14.469 21.797,-30.305 29.746,-47.055 1.863,-3.938 3.664,-7.988 6.551,-11.301 2.882,-3.308 7.113,-5.832 11.574,-5.601 -8.293,28.027 -19.981,55.109 -34.754,80.5 -4.535,1.019 -9.121,1.765 -13.75,2.246 0.555,0.648 1.168,1.269 1.715,1.922 1.75,0.656 3.496,1.316 5.234,1.968 10.391,3.91 21.047,7.973 29.27,15.266 16.043,-13.348 30.449,-28.547 42.812,-45.18 2.899,-3.91 5.75,-7.953 9.617,-10.969 3.879,-3.011 9.043,-4.894 13.86,-3.714 -15.207,28.859 -33.906,55.984 -55.617,80.625 -6.239,0.214 -12.481,-0.168 -18.68,-0.852 1.953,1.566 3.918,3.137 5.879,4.703 9.922,7.93 20.086,16.121 26.375,27 22.57,-8.992 44.023,-20.597 63.781,-34.484 4.637,-3.27 9.277,-6.699 14.649,-8.645 5.371,-1.941 11.73,-2.191 16.57,0.789 -27.43,26.301 -58.055,49.461 -91.043,68.844" /><path
         id="path16"
         style="fill:#f03f4e;fill-opacity:1;fill-rule:nonzero;stroke:none"
         d="M 500.047,904.504 C 275.68,904.504 93.7969,722.617 93.7969,498.254 93.7969,273.887 275.68,92.0039 500.047,92.0039 c 224.363,0 406.25,181.8831 406.25,406.2501 0,224.363 -181.887,406.25 -406.25,406.25 z m 0,-38.086 c 203.008,0 368.164,-165.164 368.164,-368.164 0,-203.012 -165.156,-368.164 -368.164,-368.164 -203.008,0 -368.164,165.152 -368.164,368.164 0,203 165.156,368.164 368.164,368.164" /></g></g></svg>