<?xml version="1.0" encoding="UTF-8" standalone="no"?>
<svg
   xmlns:dc="http://purl.org/dc/elements/1.1/"
   xmlns:cc="http://creativecommons.org/ns#"
   xmlns:rdf="http://www.w3.org/1999/02/22-rdf-syntax-ns#"
   xmlns:svg="http://www.w3.org/2000/svg"
   xmlns="http://www.w3.org/2000/svg"
   viewBox="0 0 133.34666 133.33333"
   height="133.33333"
   width="133.34666"
   xml:space="preserve"
   id="svg2"
   version="1.1"><metadata
     id="metadata8"><rdf:RDF><cc:Work
         rdf:about=""><dc:format>image/svg+xml</dc:format><dc:type
           rdf:resource="http://purl.org/dc/dcmitype/StillImage" /></cc:Work></rdf:RDF></metadata><defs
     id="defs6" /><g
     transform="matrix(1.3333333,0,0,-1.3333333,0,133.33333)"
     id="g10"><g
       transform="scale(0.1)"
       id="g12"><path
         id="path14"
         style="fill:#f03f4e;fill-opacity:1;fill-rule:nonzero;stroke:none"
         d="m 722.77,453.461 c 0,-150.801 -101.211,-273.047 -226.055,-273.047 -124.844,0 -226.043,122.246 -226.043,273.047 0,150.797 101.199,366.125 226.043,366.125 46.816,0 90.312,-30.285 126.387,-76.086 0.793,-0.996 -16.289,-21.078 -16.289,-21.078 l 3.722,-15.512 -15.305,2.86 -2.714,-5.997 -13.407,1.094 4.161,-15.351 -5.293,-4.852 3.406,-11.734 -10.438,1.836 -13.332,-21.371 c 0,0 5.832,2.097 13.012,7.668 2.301,1.789 7.516,6.011 7.516,6.011 l 14.093,-4.961 -4.609,12.66 4.504,3.622 1.043,13.414 11.668,-3.286 3.625,2.879 15.301,-3.265 -1.239,15.101 c 0,0 18.758,14.965 19.539,13.758 49.336,-75.664 80.704,-179.594 80.704,-263.535" /><path
         id="path16"
         style="fill:#f03f4e;fill-opacity:1;fill-rule:nonzero;stroke:none"
         d="M 496.715,907.996 C 271.383,907.996 88.7188,725.332 88.7188,500 88.7188,274.668 271.383,92.0039 496.715,92.0039 c 225.332,0 408,182.6641 408,407.9961 0,225.332 -182.668,407.996 -408,407.996 z m 0,-38.246 c 203.887,0 369.758,-165.867 369.758,-369.75 0,-203.883 -165.871,-369.75 -369.758,-369.75 -203.875,0 -369.746,165.867 -369.746,369.75 0,203.883 165.871,369.75 369.746,369.75" /></g></g></svg>