<?xml version="1.0" encoding="UTF-8" standalone="no"?>
<svg
   xmlns:dc="http://purl.org/dc/elements/1.1/"
   xmlns:cc="http://creativecommons.org/ns#"
   xmlns:rdf="http://www.w3.org/1999/02/22-rdf-syntax-ns#"
   xmlns:svg="http://www.w3.org/2000/svg"
   xmlns="http://www.w3.org/2000/svg"
   viewBox="0 0 133.34666 133.33333"
   height="133.33333"
   width="133.34666"
   xml:space="preserve"
   id="svg2"
   version="1.1"><metadata
     id="metadata8"><rdf:RDF><cc:Work
         rdf:about=""><dc:format>image/svg+xml</dc:format><dc:type
           rdf:resource="http://purl.org/dc/dcmitype/StillImage" /></cc:Work></rdf:RDF></metadata><defs
     id="defs6" /><g
     transform="matrix(1.3333333,0,0,-1.3333333,0,133.33333)"
     id="g10"><g
       transform="scale(0.1)"
       id="g12"><path
         id="path14"
         style="fill:#f03f4e;fill-opacity:1;fill-rule:nonzero;stroke:none"
         d="m 282.879,483.668 c -15.996,0 -29.024,12.355 -29.024,27.57 0,15.227 13.028,27.555 29.024,27.555 16.023,0 29.043,-12.328 29.043,-27.555 0,-15.215 -13.02,-27.57 -29.043,-27.57 z m 70.535,161.699 C 237.926,596.816 162.176,493.617 162.176,493.617 c 0.613,-0.656 51.094,-59.648 104.402,-46.137 2.832,0.719 2.793,-6.984 1.281,-9.359 -3.261,-5.117 -11.144,-5.238 -17.273,-5.238 -32.473,0 -66.906,26.176 -84.438,41.707 24.805,-29.473 91.875,-101.957 179.055,-141.32 65.067,105.363 18.379,277.976 8.211,312.097" /><path
         id="path16"
         style="fill:#f03f4e;fill-opacity:1;fill-rule:nonzero;stroke:none"
         d="m 728.055,527.598 c -22.578,23.64 -55.117,54.011 -94.532,80.476 -8.039,5.399 -11.835,20.371 -46.25,46.051 -54.113,40.379 -57.011,36.598 -107.14,38.945 -3.66,0.172 -17.156,-24.886 -20.848,-24.886 -32.59,0 -63.984,-6.883 -93.418,-17.895 9.969,-32.16 60.156,-209.664 -8.371,-322.246 26.152,-10.598 53.938,-18.031 82.824,-20.348 6.27,-0.504 12.598,-0.765 18.965,-0.765 9.695,0 19.297,0.605 28.762,1.742 15.719,1.891 31.09,5.25 46.012,9.766 90.656,27.421 165.039,97.347 202.589,138.164 0,0 67.063,-94.903 91.356,-83.766 26.348,12.086 -7.793,69.453 -10.781,127.535 -2.86,55.535 26.386,111.887 8.82,122.883 -23.242,14.551 -97.988,-95.656 -97.988,-95.656" /><path
         id="path18"
         style="fill:#f03f4e;fill-opacity:1;fill-rule:nonzero;stroke:none"
         d="M 500.047,907.996 C 274.715,907.996 92.0469,725.332 92.0469,500 92.0469,274.668 274.715,92.0039 500.047,92.0039 c 225.332,0 408,182.6641 408,407.9961 0,225.332 -182.668,407.996 -408,407.996 z m 0,-38.246 c 203.887,0 369.754,-165.867 369.754,-369.75 0,-203.883 -165.867,-369.75 -369.754,-369.75 -203.875,0 -369.746,165.867 -369.746,369.75 0,203.883 165.871,369.75 369.746,369.75" /></g></g></svg>