<?xml version="1.0" encoding="UTF-8" standalone="no"?>
<svg
   xmlns:dc="http://purl.org/dc/elements/1.1/"
   xmlns:cc="http://creativecommons.org/ns#"
   xmlns:rdf="http://www.w3.org/1999/02/22-rdf-syntax-ns#"
   xmlns:svg="http://www.w3.org/2000/svg"
   xmlns="http://www.w3.org/2000/svg"
   viewBox="0 0 133.34666 133.33333"
   height="133.33333"
   width="133.34666"
   xml:space="preserve"
   id="svg2"
   version="1.1"><metadata
     id="metadata8"><rdf:RDF><cc:Work
         rdf:about=""><dc:format>image/svg+xml</dc:format><dc:type
           rdf:resource="http://purl.org/dc/dcmitype/StillImage" /></cc:Work></rdf:RDF></metadata><defs
     id="defs6" /><g
     transform="matrix(1.3333333,0,0,-1.3333333,0,133.33333)"
     id="g10"><g
       transform="scale(0.1)"
       id="g12"><path
         id="path14"
         style="fill:#f03f4e;fill-opacity:1;fill-rule:nonzero;stroke:none"
         d="m 502.301,439.59 c -5,-5.07 -28.289,0 -28.289,0 H 296.305 c 0,0 -21.969,-4.781 -26.688,0 -4.394,4.465 0,25.234 0,25.234 v 51.336 c 0,0 -7.98,37.672 0,45.766 3.836,3.89 21.719,0 21.719,0 H 478.98 c 0,0 19.2,4.179 23.321,0 3.246,-3.289 0,-18.586 0,-18.586 v -76.5 c 0,0 4.758,-22.43 0,-27.25 z m 52.207,-4.207 c 0,37.793 -3.36,121.094 -4.793,158.539 -0.735,19.004 -3.809,67.191 -3.809,67.191 0,0 10.157,19.985 6.785,23.403 -3.796,3.851 -28.289,-4.071 -28.289,-4.071 0,0 -132.726,9.227 -175.73,9.227 -29.035,0 -112.434,-9.227 -112.434,-9.227 0,0 -21.152,12.075 -24.57,8.602 -2.852,-2.887 5.203,-24.914 5.203,-24.914 0,0 6.711,-45.348 6.711,-61.945 0,-40.024 -12.676,-136.875 -13.359,-182.661 -0.391,-26.285 6.648,-104.937 6.648,-104.937 0,0 -9.461,-21.211 -5.808,-24.91 3.417,-3.473 25.175,3.968 25.175,3.968 0,0 175.907,-8.277 233.809,-8.277 12.285,0 46.902,8.277 46.902,8.277 0,0 31.309,-12.183 36.438,-6.992 4.824,4.903 -7.481,34.727 -7.481,34.727 0,0 8.602,85.879 8.602,114" /><path
         id="path16"
         style="fill:#f03f4e;fill-opacity:1;fill-rule:nonzero;stroke:none"
         d="m 741.676,372.945 c 2.804,4.418 3.578,8.95 3.73,13.582 0.071,2.164 2.324,6.34 -2.734,5.305 -3.77,-0.773 -10.391,2.305 -10.039,-5.902 0.273,-6.18 5.43,-8.746 9.043,-12.985 z m -30.059,-81.66 c 3.938,2.832 3.828,5.711 4.555,8.207 7.879,27.063 6.512,54.278 1.316,81.555 -0.343,1.797 0.399,4.422 -2.129,4.926 -2.285,0.453 -4.171,-1.145 -5.714,-2.754 -1.825,-1.895 -1.766,-4.434 -2.207,-6.852 -3.133,-17.133 -0.887,-34.234 0.41,-51.308 0.824,-10.899 2.394,-21.739 3.769,-33.774 z m -24.98,87.399 c 3.617,5.027 4.699,11.593 11.008,13.621 2.46,0.793 2.421,2.441 0.898,4.574 -10.734,15.086 -22.551,28.797 -39.355,37.695 -7.168,3.793 -13.118,4.035 -19.719,-0.195 -1.746,-1.117 -3.321,-2.957 -6.211,-2.578 -0.379,3.527 1.594,6.105 3.808,8.164 4.961,4.625 1.914,5.894 -2.41,7.801 -10.578,4.64 -21.164,1.504 -31.769,0.742 -2.129,-0.156 -4.227,-1.403 -6.446,-0.156 -0.703,3.406 3.899,3.523 3.957,7.336 -6.914,0.871 -13.964,1.75 -21.015,2.632 12.734,5.371 25.945,1.707 39.012,2.84 -11.883,6.176 -24.872,9.113 -36.493,15.903 11.453,3.41 22.664,0.054 34.356,-1.731 -1.563,4.32 -5.285,6.965 -6.258,12.074 10.535,-2.859 17.762,-10.027 27.184,-15.468 -1.825,8.082 3.722,11.988 7.336,16.925 2.734,3.735 6.082,3.641 9.707,1.813 3.273,-1.656 4.5,-3.442 0.632,-6.207 -1.062,-0.758 0.86,-2.496 1.692,-3.633 2.461,-3.359 5.554,-6.406 7.312,-10.098 4.621,-9.648 12.481,-12.894 22.973,-12.843 -3.254,5.085 -8.734,7.335 -12.207,11.617 -1.184,1.457 -3.488,2.746 -2.414,4.89 1.082,2.168 3.437,1.168 5.285,0.836 1.668,-0.304 3.316,-0.808 4.961,-1.289 11.668,-3.414 18.328,2.137 17.418,14.489 -0.234,3.3 -2.324,6.503 3.184,8.792 3.058,1.278 -8.934,33.997 -6.493,40.813 2.039,5.691 -1.797,10.949 -4.66,15.672 -2.558,4.215 -4.441,8.176 -2.625,13.07 0.535,1.453 0.715,2.75 -0.117,4.195 -4.629,8.008 -20.441,9.426 -25.781,2.067 -4.309,-5.938 -10.821,-5.551 -16.59,-5.609 -11.059,-0.102 -21.418,14.96 -18.481,25.542 1.047,3.743 3.321,3.817 6.153,2.672 2.863,-1.148 5.617,-2.55 9.023,-4.121 0.586,4.602 -1.894,7.278 -3.172,10.266 -2.48,5.824 -1.808,10.746 4.18,13.625 2.598,1.242 3.699,2.437 2.117,4.867 -2.304,3.52 -4.285,6.852 -3.953,11.488 0.195,2.809 -2.16,2.215 -4.172,1.043 -15.027,-8.738 -30.418,-1.929 -34.883,15.239 -0.468,1.816 -1.796,3.429 -2.839,5.062 -1.926,3.004 -2.004,5.274 1.699,7.082 4.707,2.297 5.312,4.957 -0.02,7.453 -1.347,0.637 -2.988,1.684 -2.527,3.219 2.391,7.965 -3.391,7.488 -8.125,8.402 -2.856,0.551 -6.156,0.891 -8.274,2.571 -3.359,2.664 -7.257,6.062 -7.011,10.668 0.293,5.507 6.894,3.32 9.91,6.402 -5.125,2.855 -10.543,5.129 -15.059,8.602 -4.16,3.203 -12.351,5.808 -5.215,13.753 0.754,0.84 0.461,2.012 -0.351,2.625 -5.047,3.805 -5.313,9.637 -6.484,15.094 -0.379,1.801 -1.368,3.625 -3.028,3.86 -7.117,1.003 -10.711,7.972 -17.363,9.914 -4.266,1.25 -7.547,4.386 -9.09,8.957 -1.367,4.062 -4.141,7.066 -7.258,9.961 -10.75,9.992 -21.629,19.964 -35.215,25.789 -6.296,2.695 -11.64,6.711 -17.605,9.675 -4.941,2.461 -7.414,6.305 -9.063,10.899 -2.734,7.555 -0.168,11.758 7.782,12.812 14.718,1.954 29.074,1.465 42.675,-5.843 3.918,-2.106 9.172,-1.453 13.457,-1.496 14.055,-0.153 26.993,-5.79 41.047,-6.629 13.125,-0.786 26.641,-4.84 38.602,-11.536 4.043,-2.265 6.816,-6.289 7.922,-11.105 0.41,-1.809 0.273,-3.977 2.558,-4.742 0.52,0.379 0.977,0.586 1.239,0.937 1.875,2.438 -2.996,7.243 1.953,7.989 4.867,0.73 10.469,1.097 14.203,-3.692 2.906,-3.746 4.668,-7.316 11.266,-7.144 5.851,0.152 8.574,-7.164 10.664,-12.743 1.425,-3.816 1.75,-8.003 7.382,-3.105 4.219,3.66 9.961,-0.988 11.829,-9.078 3.132,0.859 4.421,6.941 8.183,4.363 4.531,-3.109 9.57,-7.754 8.289,-13.715 -1.746,-8.203 1.176,-14.457 4.824,-21.023 1.231,-2.219 1.719,-4.059 4.641,-1.789 2.207,1.715 4.07,7.094 7.234,3.633 3.137,-3.426 7.786,-7.075 6.446,-13.196 -0.672,-3.039 -1.778,-6.07 -1.211,-9.226 1.836,-0.821 2.863,0.617 4.172,1.051 3.64,1.207 7.644,5.835 10.988,0.816 2.977,-4.484 4.637,-10.301 0.426,-15.094 -4.297,-4.894 -4.508,-6.418 1.867,-10.703 9.453,-6.363 15.039,-16.273 12.246,-29.215 -1.68,-7.769 6.824,-19.211 6.895,-19.527 1.57,-7.293 8.671,-9.207 12.722,-13.895 2.492,-2.886 -0.125,-8.086 -2.754,-11.48 -2.343,-3.024 -3.554,-6.176 -3.863,-10.043 -0.512,-6.32 -3.109,-11.633 -8.234,-15.813 -4.532,-3.699 -6.907,-8.07 0.07,-12.031 3.738,-2.133 2.008,-8.18 7.059,-9.613 3.691,-1.051 7.148,-2.926 11.277,-4.672 -2.539,-3.973 -5.789,-3.363 -8.418,-0.957 -5.027,4.609 -9.805,4.785 -14.578,0.102 -6.477,-6.348 -13.684,-4.586 -20.938,-2.207 -8.879,2.91 -6.34,-5.825 -8.847,-9.09 -2.59,-3.387 1.504,-22.278 3.914,-24.219 6.797,-5.457 1.781,-29.266 7.297,-33.992 5.906,-5.051 7.117,-13.321 8.234,-20.805 1.617,-10.875 5.672,-20.574 11.668,-29.609 2.957,0.605 2.312,3.015 2.5,4.742 1.992,18.515 7.832,35.863 15.476,52.699 0.793,1.742 1.875,3.883 1.504,5.535 -1.269,5.547 -0.156,8.215 6.192,8.367 3.711,0.086 4.453,4.063 4.746,7.332 0.324,3.715 1.543,6.047 5.91,5.446 4.199,-0.574 6.445,1.992 7.098,5.797 1.328,7.773 6.281,11.093 13.566,12.211 3.074,0.472 6.047,1.734 9.695,2.828 -0.253,-2.825 0.332,-5.383 2.766,-7.317 1.621,-1.297 -8.262,-6.238 -9.66,-8.89 -2.52,-4.782 -3.297,-10.075 -5.106,-15.043 -1.046,-2.867 -6.777,-10.946 -8.359,-14.778 -1.926,-4.648 -5.762,-7.757 -9.348,-11.144 -7.586,-7.192 -13.601,-15.254 -12.246,-26.738 0.391,-3.297 -1.093,-6.266 -3.027,-8.875 -1.895,-2.551 -3.984,-4.961 -5.945,-7.465 -1.778,-2.262 -5.059,-4.821 -3.164,-7.504 1.843,-2.613 4.882,0.449 7.168,1.344 15.488,6.019 30.925,12.058 47.683,13.66 4.102,0.39 8,2.043 11.758,3.925 16.379,8.219 34.25,9.02 52.004,10.231 1.828,0.121 3.957,0.285 5.496,-1.898 -22.625,-11.958 -45,-23.649 -71.356,-25.497 -15.468,-1.078 -31.242,-1.886 -46.125,-7.371 -2.175,-0.8 -4.863,-0.804 -6.503,-4.078 15.078,0.297 30.031,2.477 45.175,-4.332 -2.812,-2.008 -4.605,-1.101 -6.316,-0.762 -10.82,2.168 -21.359,0.422 -31.828,-2.332 -1.445,-0.382 -3.113,-0.945 -2.723,-2.765 0.418,-1.938 2.293,-1.68 3.633,-1.227 17.312,5.871 34.363,1.004 51.379,-1.511 6.422,-0.95 11.875,0.285 17.625,2.656 9.148,3.765 18.555,4.961 28.203,-0.176 -7.219,-1.586 -14.387,-3.469 -21.66,-4.672 -5.379,-0.891 -1.367,-3.098 -0.891,-4.984 -5.828,-0.77 -11.844,0.238 -17.254,-2.918 1.289,-3.442 6.055,-1.867 7.371,-5.629 -13.582,-1.25 -27.019,-2.488 -41.875,-3.86 6.477,-3.695 11.739,-7.097 16.25,-14.464 -11.082,5.019 -20.586,8.515 -30.574,10.359 -2.394,0.445 -4.758,1.168 -7.168,1.402 -12.121,1.168 -12.929,0.426 -14.941,-11.742 -0.645,-3.859 -1.258,-7.84 -2.707,-11.426 -9.254,-23.019 -9.149,-48.019 -15.215,-71.671 -4.707,-18.368 -10.301,-36.512 -15.762,-54.676 -3.594,-11.969 -7.566,-23.824 -11.531,-35.676 -1.719,-5.141 -13.508,-8.973 -17.969,-6.051 -2.461,1.617 -0.722,3.606 -0.234,5.246 3.387,11.532 6.465,23.184 10.527,34.473 8.328,23.121 7.098,46.703 4.863,70.516 -1.972,21 -3.847,42.046 -1.035,63.14 0.547,4.059 -0.371,6.285 -5.058,5.168 -3.047,-0.723 -6.164,-1.109 -9.25,-1.644" /><path
         id="path18"
         style="fill:#f03f4e;fill-opacity:1;fill-rule:nonzero;stroke:none"
         d="M 500.047,910.023 C 273.602,910.023 90.0273,726.449 90.0273,500 90.0273,273.551 273.602,89.9766 500.047,89.9766 c 226.457,0 410.027,183.5744 410.027,410.0234 0,226.449 -183.57,410.023 -410.027,410.023 z m 0,-38.437 c 204.891,0 371.59,-166.691 371.59,-371.586 0,-204.895 -166.699,-371.586 -371.59,-371.586 -204.895,0 -371.582,166.691 -371.582,371.586 0,204.895 166.687,371.586 371.582,371.586" /></g></g></svg>