<?xml version="1.0" encoding="UTF-8" standalone="no"?>
<svg
   xmlns:dc="http://purl.org/dc/elements/1.1/"
   xmlns:cc="http://creativecommons.org/ns#"
   xmlns:rdf="http://www.w3.org/1999/02/22-rdf-syntax-ns#"
   xmlns:svg="http://www.w3.org/2000/svg"
   xmlns="http://www.w3.org/2000/svg"
   viewBox="0 0 133.34666 133.33333"
   height="133.33333"
   width="133.34666"
   xml:space="preserve"
   id="svg2"
   version="1.1"><metadata
     id="metadata8"><rdf:RDF><cc:Work
         rdf:about=""><dc:format>image/svg+xml</dc:format><dc:type
           rdf:resource="http://purl.org/dc/dcmitype/StillImage" /></cc:Work></rdf:RDF></metadata><defs
     id="defs6" /><g
     transform="matrix(1.3333333,0,0,-1.3333333,0,133.33333)"
     id="g10"><g
       transform="scale(0.1)"
       id="g12"><path
         id="path14"
         style="fill:#f03f4e;fill-opacity:1;fill-rule:nonzero;stroke:none"
         d="m 409.43,627.383 c -47.657,-34.61 -115.133,0 -115.133,0 0,0 35.055,74.898 64.781,108.93 h 104.719 c 29.676,-34.032 64.785,-108.93 64.785,-108.93 0,0 -71.535,34.582 -119.152,0 z m 137.238,7.949 c -1.445,3.07 -30.703,65.211 -59.641,103.383 6.446,3.926 10.871,12.34 10.871,22.129 0,13.527 -8.488,24.504 -18.964,24.504 h -135.02 c -10.48,0 -18.937,-10.977 -18.937,-24.504 0,-9.789 4.406,-18.203 10.859,-22.129 -28.953,-38.172 -58.191,-100.313 -59.648,-103.383 l -1.766,-3.809 v -4.14 -347.344 c 0,-36.016 30.293,-65.387 67.48,-65.387 h 139.032 c 37.238,0 67.55,29.371 67.55,65.387 v 347.344 4.172 l -1.816,3.777" /><path
         id="path16"
         style="fill:#f03f4e;fill-opacity:1;fill-rule:nonzero;stroke:none"
         d="m 642.438,373.992 c -19.852,-13.015 -69.168,0.309 -69.168,0.309 l -3.848,48.613 h 143.387 l -3.817,-49.18 c 0,0 -46.691,13.336 -66.554,0.258 z m -85.84,60.481 16.781,-214.059 h 135.543 l 16.75,214.059 H 556.598" /><path
         id="path18"
         style="fill:#f03f4e;fill-opacity:1;fill-rule:nonzero;stroke:none"
         d="M 500.047,907.996 C 274.715,907.996 92.0469,725.332 92.0469,500 92.0469,274.668 274.715,92.0039 500.047,92.0039 c 225.332,0 408.008,182.6641 408.008,407.9961 0,225.332 -182.676,407.996 -408.008,407.996 z m 0,-38.246 c 203.887,0 369.754,-165.867 369.754,-369.75 0,-203.883 -165.867,-369.75 -369.754,-369.75 -203.875,0 -369.746,165.867 -369.746,369.75 0,203.883 165.871,369.75 369.746,369.75" /></g></g></svg>