<?xml version="1.0" encoding="UTF-8" standalone="no"?>
<svg
   xmlns:dc="http://purl.org/dc/elements/1.1/"
   xmlns:cc="http://creativecommons.org/ns#"
   xmlns:rdf="http://www.w3.org/1999/02/22-rdf-syntax-ns#"
   xmlns:svg="http://www.w3.org/2000/svg"
   xmlns="http://www.w3.org/2000/svg"
   viewBox="0 0 133.34666 133.33333"
   height="133.33333"
   width="133.34666"
   xml:space="preserve"
   id="svg2"
   version="1.1"><metadata
     id="metadata8"><rdf:RDF><cc:Work
         rdf:about=""><dc:format>image/svg+xml</dc:format><dc:type
           rdf:resource="http://purl.org/dc/dcmitype/StillImage" /></cc:Work></rdf:RDF></metadata><defs
     id="defs6" /><g
     transform="matrix(1.3333333,0,0,-1.3333333,0,133.33333)"
     id="g10"><g
       transform="scale(0.1)"
       id="g12"><path
         id="path14"
         style="fill:#f03f4e;fill-opacity:1;fill-rule:nonzero;stroke:none"
         d="M 448.23,292.578 C 560.945,323.727 666.492,368.684 763.172,430.703 674.109,354.023 568.805,308.594 448.23,292.578 Z m -51.25,13.695 C 515.016,377.328 640.164,439.27 737.887,536.34 650.348,426.223 525.574,363.809 396.98,306.273 Z m -30.578,21.399 C 465.699,436.582 570.711,541.125 661.875,656.684 584.852,530.715 478.387,427.066 366.402,327.672 Z M 561.121,717.441 C 487.535,600.973 415.418,483.773 351.707,362.289 398.258,492.262 472.379,608.512 561.121,717.441 Z M 334.449,401.016 C 327.086,542.652 397.195,658.328 475.586,771.23 415.113,652.313 342.984,537.266 334.449,401.016 Z m -32.754,-2.399 c -11.629,119.414 0.207,236.317 46.164,349.352 C 320.328,632.867 310.211,515.895 301.695,398.617 Z m 492.18,146.68 C 766.91,691.785 628.699,797.305 462.301,797.758 392.027,800.289 326.109,777.75 269.539,731 237.262,704.336 217.008,671.316 211.004,629.68 c -7.551,-52.254 3.66,-101.575 19.668,-150.594 5.332,-16.336 7.812,-30.641 -6.777,-45.277 -30.762,-30.883 -29.219,-42.739 6.492,-67.996 11.269,-7.969 23.625,-14.922 36.359,-20.5 28.731,-12.586 55.625,-26.692 73.594,-53.168 9.14,-13.469 24.883,-16.133 40.379,-15.231 21.047,1.231 36.621,-6.633 49.941,-21.715 10.383,-11.754 22.024,-22.566 33.781,-33.113 33.758,-30.285 55.907,-26.688 71.914,14.422 8.985,23.101 23.223,34.308 47.942,36.91 12.898,1.363 25.387,6.035 38.172,8.73 146.64,30.895 190.144,161.321 171.406,263.149" /><path
         id="path16"
         style="fill:#f03f4e;fill-opacity:1;fill-rule:nonzero;stroke:none"
         d="M 500.047,910.051 C 273.602,910.051 90.0273,726.477 90.0273,500.023 90.0273,273.574 273.602,90 500.047,90 c 226.457,0 410.027,183.574 410.027,410.023 0,226.454 -183.57,410.028 -410.027,410.028 z m 0,-38.442 c 204.891,0 371.59,-166.691 371.59,-371.586 0,-204.89 -166.699,-371.585 -371.59,-371.585 -204.895,0 -371.582,166.695 -371.582,371.585 0,204.895 166.687,371.586 371.582,371.586" /></g></g></svg>