<?xml version="1.0" encoding="UTF-8" standalone="no"?>
<svg
   xmlns:dc="http://purl.org/dc/elements/1.1/"
   xmlns:cc="http://creativecommons.org/ns#"
   xmlns:rdf="http://www.w3.org/1999/02/22-rdf-syntax-ns#"
   xmlns:svg="http://www.w3.org/2000/svg"
   xmlns="http://www.w3.org/2000/svg"
   viewBox="0 0 133.34666 133.33333"
   height="133.33333"
   width="133.34666"
   xml:space="preserve"
   id="svg2"
   version="1.1"><metadata
     id="metadata8"><rdf:RDF><cc:Work
         rdf:about=""><dc:format>image/svg+xml</dc:format><dc:type
           rdf:resource="http://purl.org/dc/dcmitype/StillImage" /></cc:Work></rdf:RDF></metadata><defs
     id="defs6" /><g
     transform="matrix(1.3333333,0,0,-1.3333333,0,133.33333)"
     id="g10"><g
       transform="scale(0.1)"
       id="g12"><path
         id="path14"
         style="fill:#f03f4e;fill-opacity:1;fill-rule:nonzero;stroke:none"
         d="m 589.051,313.676 c 0,0 -75.274,-6.086 -101.789,-5.985 -23.301,0.086 -88.926,5.985 -88.926,5.985 v 197.34 c 0,0 65.375,-8.157 88.926,-8.157 26.164,0 101.789,8.157 101.789,8.157 z m 48.078,178.703 c -0.051,10.254 -1.211,20.512 -1.781,30.762 -0.196,3.589 -0.907,7.175 -1.172,10.761 -0.34,4.629 -1.082,9.246 -1.531,13.868 -0.516,5.304 -1.75,10.5 -3.372,15.593 -3.035,9.547 -7.476,18.508 -12.265,27.274 -7.246,13.254 -15.633,25.816 -24.434,38.101 -6.426,8.977 -13.125,17.77 -20.058,26.367 -0.332,0.415 -0.672,0.817 -0.973,1.25 -0.383,0.547 -0.305,0.895 0.281,1.321 0.235,0.179 0.496,0.332 0.762,0.484 0.898,0.512 1.172,1.317 1.086,2.285 -0.336,3.438 -0.129,6.883 -0.238,10.325 -0.028,0.675 0.019,1.375 -0.157,2.007 -0.222,0.828 -0.261,1.61 -0.097,2.434 0.109,0.586 0.129,1.191 0.136,1.793 0.176,8.457 -0.027,16.914 0.434,25.371 0.211,3.809 0.094,7.637 0.125,11.453 0.02,2.543 0.066,5.094 0.008,7.637 -0.028,1.207 -0.078,2.363 0.461,3.5 0.437,0.937 0.234,1.91 -0.227,2.824 -0.437,0.887 -1.082,1.609 -1.844,2.246 -0.929,0.778 -1.964,1.391 -3.039,1.938 -2.5,1.269 -5.105,2.246 -7.793,3.031 -4.937,1.445 -9.961,2.492 -15.039,3.266 -2.617,0.398 -5.23,0.738 -7.851,1.093 -1.348,0.184 -2.254,0.797 -2.41,2.239 -0.039,0.371 -0.168,0.734 -0.235,1.097 -5.929,29.219 -11.847,58.438 -17.765,87.653 -0.743,3.671 -1.512,7.339 -2.223,11.011 -0.227,1.164 -0.695,2.114 -1.73,2.77 -5.793,3.644 -11.27,3.66 -17.032,0.082 -0.871,-0.543 -1.437,-1.305 -1.652,-2.317 -0.156,-0.73 -0.32,-1.46 -0.469,-2.195 -1.719,-8.515 -3.426,-17.035 -5.144,-25.555 -4.805,-23.789 -9.602,-47.578 -14.407,-71.359 -0.117,-0.586 -0.254,-1.172 -0.398,-1.754 -0.215,-0.801 -0.715,-1.305 -1.563,-1.43 -0.968,-0.14 -1.933,-0.308 -2.91,-0.429 -6.672,-0.836 -13.3,-1.926 -19.797,-3.692 -3.503,-0.949 -6.921,-2.129 -10.125,-3.875 -1.203,-0.656 -2.296,-1.437 -3.23,-2.425 -1.117,-1.164 -1.664,-2.508 -1.289,-4.106 0.242,-1.109 0.242,-2.226 0.242,-3.355 0.02,-6.739 0.027,-13.477 0.047,-20.215 0.019,-7.938 0.031,-15.871 0.051,-23.813 0.008,-0.898 -0.078,-1.843 0.176,-2.675 0.351,-1.18 0.261,-2.309 0.242,-3.5 -0.059,-3.668 -0.145,-7.34 0.215,-10.997 0.128,-1.328 -0.067,-2.511 -0.829,-3.628 -1.601,-2.364 -3.117,-4.786 -4.726,-7.133 -6.184,-8.965 -12.414,-17.891 -18.586,-26.867 -5.352,-7.797 -10.606,-15.665 -15.625,-23.684 -6.168,-9.863 -12.137,-19.848 -16.953,-30.461 -2.899,-6.387 -5.242,-12.934 -5.996,-19.937 -0.535,-5.063 -1.051,-10.129 -1.375,-15.204 -0.41,-6.347 -0.664,-12.711 -0.891,-19.066 -0.254,-6.809 -0.035,-13.621 -0.437,-20.434 -0.215,-3.504 -0.11,-7.035 -0.079,-10.554 0.106,-15.645 -0.214,-31.289 0.313,-46.938 0.352,-10.472 -0.031,-20.957 0.449,-31.437 0.344,-7.403 0.051,-14.821 0.449,-22.227 0.34,-6.199 0.098,-12.422 0.438,-18.633 0.344,-6.05 0.117,-12.125 0.48,-18.183 0.301,-4.926 0.137,-9.871 0.43,-14.813 0.313,-5.301 0.156,-10.621 0.488,-15.933 0.266,-4.258 0.184,-8.528 0.399,-12.793 0.265,-5.301 0.304,-10.621 0.558,-15.934 0.157,-3.437 0.157,-6.879 0.36,-10.32 0.293,-4.926 0.207,-9.875 0.527,-14.813 0.207,-3.133 0.188,-6.277 0.383,-9.418 0.32,-5.379 0.476,-10.769 0.566,-16.156 0.059,-3.383 0.36,-6.727 0.938,-10.055 1.738,-10.066 5.652,-19.218 11.804,-27.422 0.918,-1.234 2.032,-2.171 3.418,-2.855 3.118,-1.539 6.282,-2.953 9.512,-4.238 15.5,-6.157 31.594,-10.121 48.059,-12.703 5.75,-0.907 11.523,-1.61 17.304,-2.106 3.008,-0.265 6.016,-0.594 9.043,-0.637 2.332,-0.035 4.668,-6.886 7,-7.078 0.45,-0.035 0.879,5.789 1.321,-6.925 6.336,0 12.683,0 19.035,0 0.855,12.714 1.766,6.957 2.672,6.988 5.207,0.179 10.422,3.547 15.617,3.887 5.644,0.371 11.297,2.289 16.941,2.792 8.352,0.747 16.672,2.571 24.922,4.036 7.375,1.3 14.649,3.41 21.789,5.664 7.793,2.453 15.332,5.711 22.473,9.711 2.832,1.589 5.484,3.539 8.191,5.32 0.828,0.547 1.493,1.305 2.071,2.105 6.035,8.387 9.871,17.696 11.211,27.914 0.449,3.407 0.476,6.879 0.574,10.325 0.234,7.703 0.254,15.429 0.625,23.129 0.254,5.168 0.121,10.336 0.43,15.488 0.363,6.062 0.136,12.133 0.48,18.187 0.332,5.836 0.105,11.688 0.43,17.512 0.379,7.035 0.105,14.082 0.476,21.102 0.371,7.187 0.117,14.375 0.41,21.558 0.637,15.719 2.707,31.446 2.895,47.164 0.008,0.907 2.769,1.785 2.769,2.66 0,27.415 0,54.825 0,82.239 0,0.871 -2.769,1.758 -2.769,2.66" /><path
         id="path16"
         style="fill:#f03f4e;fill-opacity:1;fill-rule:nonzero;stroke:none"
         d="M 500.047,912.047 C 275.359,912.047 93.2109,729.898 93.2109,505.211 93.2109,280.52 275.359,98.3672 500.047,98.3672 c 224.695,0 406.844,182.1528 406.844,406.8438 0,224.687 -182.149,406.836 -406.844,406.836 z m 0,-38.141 c 203.301,0 368.703,-165.398 368.703,-368.695 0,-203.301 -165.402,-368.703 -368.703,-368.703 -203.301,0 -368.692,165.402 -368.692,368.703 0,203.297 165.391,368.695 368.692,368.695" /></g></g></svg>