<?xml version="1.0" encoding="UTF-8" standalone="no"?>
<svg
   xmlns:dc="http://purl.org/dc/elements/1.1/"
   xmlns:cc="http://creativecommons.org/ns#"
   xmlns:rdf="http://www.w3.org/1999/02/22-rdf-syntax-ns#"
   xmlns:svg="http://www.w3.org/2000/svg"
   xmlns="http://www.w3.org/2000/svg"
   viewBox="0 0 133.34666 133.33333"
   height="133.33333"
   width="133.34666"
   xml:space="preserve"
   id="svg2"
   version="1.1"><metadata
     id="metadata8"><rdf:RDF><cc:Work
         rdf:about=""><dc:format>image/svg+xml</dc:format><dc:type
           rdf:resource="http://purl.org/dc/dcmitype/StillImage" /></cc:Work></rdf:RDF></metadata><defs
     id="defs6" /><g
     transform="matrix(1.3333333,0,0,-1.3333333,0,133.33333)"
     id="g10"><g
       transform="scale(0.1)"
       id="g12"><path
         id="path14"
         style="fill:#f03f4e;fill-opacity:1;fill-rule:nonzero;stroke:none"
         d="m 593.125,264.633 c -8.957,-8.719 -19.309,-13.465 -29.281,-13.465 -0.438,0 -0.867,0.008 -1.297,0.023 -12.539,0.528 -27.871,6.219 -29.707,30.407 l -0.012,0.394 c -0.262,16.996 7.695,35.856 20.723,49.223 8.879,9.098 18.898,14.152 28.246,14.254 0.164,0 0.332,0 0.504,0 19.777,0 29.98,-11.918 30.351,-35.446 0.235,-16.035 -7.246,-33.429 -19.527,-45.39 z M 472.223,190.844 c -0.496,-0.024 -0.996,-0.039 -1.504,-0.039 -7.254,0 -13.836,2.586 -19.082,7.508 -6.973,6.542 -10.899,16.675 -11.074,28.527 v 0.015 c -0.235,15.958 7.726,34.458 20.273,47.133 8.879,8.957 18.984,13.895 28.477,13.895 0.039,0 0.058,0 0.097,0 13.899,-0.051 30.664,-6.238 31.641,-35.383 0.91,-27.117 -25.555,-60.551 -48.828,-61.656 z m -71.211,17.269 c -0.254,0 -0.516,-0.011 -0.77,-0.011 -9.179,0 -18.906,4.593 -27.48,12.984 -13.106,12.84 -21.164,31.656 -21.035,49.129 l 0.007,0.308 c 1.496,27.457 18.196,32.586 32.602,32.227 23.023,-0.758 47.34,-30.824 47.273,-58.512 -0.078,-29.16 -16.679,-35.742 -30.597,-36.125 z m -59.707,96.754 c -0.899,-0.054 -1.766,-0.078 -2.625,-0.078 -24.844,0 -29.16,21.973 -32.032,36.691 -0.558,2.758 -1.074,5.489 -1.71,8.067 l -0.34,1.41 1.406,7.434 c 3.398,18.597 8.055,44.074 37.332,45.55 9.785,0.489 17.707,-2.128 23.633,-7.773 10.527,-10.02 11.75,-26.891 11.75,-38.707 -0.031,-41.641 -20.364,-51.598 -37.414,-52.594 z m 43.254,194.567 c 9.539,8.707 19.968,13.101 29.246,12.308 25.781,-2.14 27.812,-24.89 28.476,-32.371 l 0.032,-0.539 c 0.109,-17.742 -8.36,-37.422 -21.583,-50.133 -8.359,-8.047 -17.792,-12.429 -26.699,-12.429 -0.41,0 -0.82,0.007 -1.211,0.039 -11.593,0.523 -30.984,5.976 -30.8,36.39 0.097,15.949 8.933,34.293 22.539,46.735 z M 462.965,368.75 c 0.019,-15.699 -8.668,-34.238 -22.149,-47.23 -8.914,-8.598 -18.632,-13.293 -27.5,-13.293 -0.32,0 -0.632,0 -0.937,0.015 -12.852,0.485 -28.496,6.719 -29.988,33.672 -0.852,15.395 6.132,33.137 18.211,46.324 9.121,9.953 19.64,15.625 29.628,15.946 8.36,0.254 16.426,-2.68 22.266,-8.34 6.731,-6.504 10.449,-16.121 10.469,-27.094 z m 1.621,129.57 c 8.574,8.141 18.234,12.356 26.848,12.086 13.379,-0.523 29.5,-6.847 30.273,-34.023 v -0.332 c -0.41,-17.629 -9.277,-37.113 -22.598,-49.633 -8.097,-7.609 -16.711,-11.598 -25,-11.598 -0.332,0 -0.664,0 -0.996,0.008 -13.898,0.555 -30.39,7.402 -30.011,37.004 0.195,16.02 8.632,34.262 21.484,46.488 z m 87.355,-129.222 c 0.789,-14.856 -6.367,-32.379 -18.683,-45.719 -9.207,-10.012 -19.637,-15.664 -29.363,-15.934 -0.43,-0.011 -0.86,-0.011 -1.282,-0.011 -27.293,0 -30.117,24.476 -31.054,32.593 l -0.039,0.664 c -0.235,16.286 7.414,34.207 19.96,46.766 9.122,9.145 19.59,14.16 29.512,14.16 0.137,0 0.246,0 0.363,0 13.192,-0.168 29.2,-5.937 30.586,-32.519 z M 593.777,827.98 C 501.648,833.676 432.176,782.48 420.914,691.824 412.164,621.348 390.613,558.02 345.133,501.672 318.121,468.203 301.375,428.832 292.996,386.5 271.109,275.953 360.055,171.293 479.969,171.785 c 26.394,-1.531 54.59,5.988 81.035,20.805 77.059,43.152 122.351,133.598 108.965,221.086 -8,52.215 -3.758,102.613 15.379,152.117 13.039,33.727 23.41,68.312 34.113,102.852 20.43,65.925 -46.414,154.429 -125.684,159.335" /><path
         id="path16"
         style="fill:#f03f4e;fill-opacity:1;fill-rule:nonzero;stroke:none"
         d="M 500.047,907.996 C 274.715,907.996 92.0469,725.332 92.0469,500 92.0469,274.668 274.715,92.0039 500.047,92.0039 c 225.332,0 408.008,182.6641 408.008,407.9961 0,225.332 -182.676,407.996 -408.008,407.996 z m 0,-38.246 c 203.887,0 369.754,-165.867 369.754,-369.75 0,-203.883 -165.867,-369.75 -369.754,-369.75 -203.875,0 -369.746,165.867 -369.746,369.75 0,203.883 165.871,369.75 369.746,369.75" /></g></g></svg>