<?xml version="1.0" encoding="UTF-8" standalone="no"?>
<svg
   xmlns:dc="http://purl.org/dc/elements/1.1/"
   xmlns:cc="http://creativecommons.org/ns#"
   xmlns:rdf="http://www.w3.org/1999/02/22-rdf-syntax-ns#"
   xmlns:svg="http://www.w3.org/2000/svg"
   xmlns="http://www.w3.org/2000/svg"
   viewBox="0 0 133.34666 133.33333"
   height="133.33333"
   width="133.34666"
   xml:space="preserve"
   id="svg2"
   version="1.1"><metadata
     id="metadata8"><rdf:RDF><cc:Work
         rdf:about=""><dc:format>image/svg+xml</dc:format><dc:type
           rdf:resource="http://purl.org/dc/dcmitype/StillImage" /></cc:Work></rdf:RDF></metadata><defs
     id="defs6" /><g
     transform="matrix(1.3333333,0,0,-1.3333333,0,133.33333)"
     id="g10"><g
       transform="scale(0.1)"
       id="g12"><path
         id="path14"
         style="fill:#f03f4e;fill-opacity:1;fill-rule:nonzero;stroke:none"
         d="m 674.148,357.617 c -35.996,26.809 -53.164,88.012 -30.714,115 21.113,25.367 45.761,18.09 68.554,1.77 34.446,-24.668 51.172,-89.035 31.098,-115.973 -14.77,-19.805 -42.981,-20.133 -68.938,-0.797" /><path
         id="path16"
         style="fill:#f03f4e;fill-opacity:1;fill-rule:nonzero;stroke:none"
         d="m 349.742,312.285 c -24.453,27.496 -57.41,56.215 -30.066,93.086 25.672,34.617 61.961,14.149 87.644,-5.562 29.309,-22.481 57.532,-54.86 30.996,-91.336 -25.625,-35.219 -59.277,-9.43 -88.574,3.812" /><path
         id="path18"
         style="fill:#f03f4e;fill-opacity:1;fill-rule:nonzero;stroke:none"
         d="m 305.203,615.758 c 39.551,-29.938 55.969,-91.399 32.5,-117.195 -22.148,-24.352 -46.867,-17.387 -69.023,-0.196 -35.52,27.551 -49.278,91.926 -25.442,116.227 21.379,21.797 43.457,12.98 61.965,1.164" /><path
         id="path20"
         style="fill:#f03f4e;fill-opacity:1;fill-rule:nonzero;stroke:none"
         d="m 483.582,523.727 c 34.434,-26.317 50.906,-91.391 28.426,-116.547 -20.242,-22.66 -43.504,-16.16 -64.813,-1.559 -37.082,25.399 -54.191,87.383 -32.898,115.039 15.926,20.672 44.578,21.942 69.285,3.067" /><path
         id="path22"
         style="fill:#f03f4e;fill-opacity:1;fill-rule:nonzero;stroke:none"
         d="m 546.875,522.152 c -37.844,28.215 -52.602,88.899 -29.523,116.129 19.628,23.16 42.285,18.145 63.613,3.442 35.254,-24.301 52.754,-87.793 31.855,-114.633 -20.675,-26.559 -44.465,-17.914 -65.945,-4.938" /><path
         id="path24"
         style="fill:#f03f4e;fill-opacity:1;fill-rule:nonzero;stroke:none"
         d="m 697.059,539.75 c -38.43,28.602 -55.469,91.27 -33.934,117.922 21.512,26.609 45.184,17.305 67.535,0.68 37.426,-27.829 50.996,-86.719 26.485,-113.95 -20.309,-22.547 -42.051,-16.507 -60.086,-4.652" /><path
         id="path26"
         style="fill:#f03f4e;fill-opacity:1;fill-rule:nonzero;stroke:none"
         d="m 515.738,286.738 c -19.539,16.66 -30.769,37.317 -8.554,62.457 22.043,24.953 84.277,24.071 118.273,-2.093 22.078,-17 35.848,-37.84 15.371,-64.172 -21.445,-27.586 -86.769,-26.02 -125.09,3.808" /><path
         id="path28"
         style="fill:#f03f4e;fill-opacity:1;fill-rule:nonzero;stroke:none"
         d="m 395.758,718.18 c 37.375,-29.961 53.625,-90.52 31.855,-114.828 -22.324,-24.934 -46.531,-16.051 -68.875,1.507 -34.328,26.957 -50.254,87.059 -28.32,111.551 22.371,24.981 46.289,15.57 65.34,1.77" /><path
         id="path30"
         style="fill:#f03f4e;fill-opacity:1;fill-rule:nonzero;stroke:none"
         d="m 503.23,905.461 c -223.574,0 -404.8237,-181.242 -404.8237,-404.82 0,-223.575 181.2497,-404.8207 404.8237,-404.8207 223.575,0 404.825,181.2457 404.825,404.8207 0,223.578 -181.25,404.82 -404.825,404.82 z m 0,-37.949 c 202.293,0 366.864,-164.578 366.864,-366.871 0,-202.289 -164.571,-366.871 -366.864,-366.871 -202.296,0 -366.867,164.582 -366.867,366.871 0,202.293 164.571,366.871 366.867,366.871" /></g></g></svg>