<?xml version="1.0" encoding="UTF-8" standalone="no"?>
<svg
   xmlns:dc="http://purl.org/dc/elements/1.1/"
   xmlns:cc="http://creativecommons.org/ns#"
   xmlns:rdf="http://www.w3.org/1999/02/22-rdf-syntax-ns#"
   xmlns:svg="http://www.w3.org/2000/svg"
   xmlns="http://www.w3.org/2000/svg"
   viewBox="0 0 133.34666 133.33333"
   height="133.33333"
   width="133.34666"
   xml:space="preserve"
   id="svg2"
   version="1.1"><metadata
     id="metadata8"><rdf:RDF><cc:Work
         rdf:about=""><dc:format>image/svg+xml</dc:format><dc:type
           rdf:resource="http://purl.org/dc/dcmitype/StillImage" /></cc:Work></rdf:RDF></metadata><defs
     id="defs6" /><g
     transform="matrix(1.3333333,0,0,-1.3333333,0,133.33333)"
     id="g10"><g
       transform="scale(0.1)"
       id="g12"><path
         id="path14"
         style="fill:#f03f4e;fill-opacity:1;fill-rule:nonzero;stroke:none"
         d="m 670.699,243.441 c 10.86,0 24.395,-0.851 37.785,0.153 50.039,3.746 57.618,17.281 36.914,61.328 -27.285,58.047 -71.132,96.918 -135.011,112.418 -32.051,7.773 -51.727,25.402 -61.289,56.898 -11.543,38.051 -34.469,68.727 -75.118,81.297 -33.164,10.262 -52.167,31.16 -62.05,63.125 -22.215,71.867 -83.301,103.512 -146.836,132.039 -10.723,4.809 -22.703,6.645 -20.977,-10.125 7.688,-74.629 -0.183,-154.523 70.442,-208.98 18.562,-14.313 28.3,-33.301 32.949,-55.614 13.703,-65.804 55.644,-104.835 121.726,-119.902 30.637,-6.98 58.496,-20.105 70.852,-48.75 24.836,-57.566 70.887,-70.586 130.613,-63.887" /><path
         id="path16"
         style="fill:#f03f4e;fill-opacity:1;fill-rule:nonzero;stroke:none"
         d="m 500.047,903.883 c -224.192,0 -405.9376,-181.742 -405.9376,-405.945 0,-224.192 181.7456,-405.9341 405.9376,-405.9341 224.199,0 405.945,181.7421 405.945,405.9341 0,224.203 -181.746,405.945 -405.945,405.945 z m 0,-38.059 c 202.851,0 367.891,-165.031 367.891,-367.886 0,-202.848 -165.04,-367.879 -367.891,-367.879 -202.852,0 -367.883,165.031 -367.883,367.879 0,202.855 165.031,367.886 367.883,367.886" /></g></g></svg>