<?xml version="1.0" encoding="UTF-8" standalone="no"?>
<svg
   xmlns:dc="http://purl.org/dc/elements/1.1/"
   xmlns:cc="http://creativecommons.org/ns#"
   xmlns:rdf="http://www.w3.org/1999/02/22-rdf-syntax-ns#"
   xmlns:svg="http://www.w3.org/2000/svg"
   xmlns="http://www.w3.org/2000/svg"
   viewBox="0 0 133.34666 133.33333"
   height="133.33333"
   width="133.34666"
   xml:space="preserve"
   id="svg2"
   version="1.1"><metadata
     id="metadata8"><rdf:RDF><cc:Work
         rdf:about=""><dc:format>image/svg+xml</dc:format><dc:type
           rdf:resource="http://purl.org/dc/dcmitype/StillImage" /></cc:Work></rdf:RDF></metadata><defs
     id="defs6" /><g
     transform="matrix(1.3333333,0,0,-1.3333333,0,133.33333)"
     id="g10"><g
       transform="scale(0.1)"
       id="g12"><path
         id="path14"
         style="fill:#f03f4e;fill-opacity:1;fill-rule:nonzero;stroke:none"
         d="m 530.223,332.488 c -4.063,2.446 -8.743,3.645 -14.012,3.645 -3.762,0 -7.238,-0.66 -10.422,-2.016 -3.184,-1.344 -5.93,-3.301 -8.223,-5.887 -2.296,-2.566 -4.113,-5.843 -5.449,-9.847 -1.328,-3.985 -1.992,-8.485 -1.992,-13.461 0,-5.02 0.664,-9.57 1.992,-13.621 1.336,-4.059 3.211,-7.43 5.637,-10.094 2.43,-2.676 5.211,-4.68 8.355,-6.012 3.145,-1.316 6.594,-1.976 10.352,-1.976 4.805,0 9.23,1.14 13.254,3.441 4.035,2.285 7.234,5.82 9.629,10.606 2.383,4.777 3.574,10.656 3.574,17.656 0,6.461 -1.094,12.07 -3.289,16.808 -2.191,4.735 -5.324,8.333 -9.406,10.758" /><path
         id="path16"
         style="fill:#f03f4e;fill-opacity:1;fill-rule:nonzero;stroke:none"
         d="m 613.738,243.707 c -0.82,-0.816 -2.07,-1.227 -3.75,-1.227 h -27.941 c -1.914,0 -3.375,0.493 -4.453,1.508 -1.063,0.989 -1.59,2.168 -1.59,3.512 0,0.875 0.34,2.027 1.023,3.469 0.684,1.426 1.438,2.551 2.239,3.367 3.367,3.324 6.414,6.176 9.121,8.555 2.715,2.382 4.648,3.941 5.808,4.691 2.082,1.395 3.801,2.793 5.188,4.195 1.375,1.414 2.43,2.868 3.152,4.352 0.715,1.473 1.086,2.934 1.086,4.351 0,1.551 -0.391,2.918 -1.16,4.145 -0.773,1.215 -1.828,2.172 -3.156,2.84 -1.34,0.676 -2.785,1.004 -4.356,1.004 -3.312,0 -5.929,-1.379 -7.82,-4.149 -0.246,-0.367 -0.676,-1.347 -1.274,-2.972 -0.593,-1.614 -1.257,-2.852 -2,-3.719 -0.761,-0.875 -1.855,-1.301 -3.292,-1.301 -1.266,0 -2.325,0.402 -3.165,1.192 -0.828,0.793 -1.25,1.875 -1.25,3.25 0,1.664 0.395,3.41 1.184,5.21 0.781,1.801 1.965,3.454 3.516,4.918 1.55,1.469 3.535,2.661 5.925,3.559 2.395,0.902 5.196,1.367 8.418,1.367 3.86,0 7.18,-0.59 9.914,-1.746 1.77,-0.765 3.321,-1.828 4.668,-3.18 1.336,-1.347 2.372,-2.902 3.133,-4.683 0.742,-1.777 1.114,-3.617 1.114,-5.512 0,-2.984 -0.77,-5.719 -2.332,-8.16 -1.555,-2.438 -3.145,-4.359 -4.778,-5.734 -1.609,-1.395 -4.336,-3.579 -8.133,-6.536 -3.808,-2.968 -6.425,-5.277 -7.843,-6.906 -0.614,-0.656 -1.239,-1.433 -1.864,-2.355 h 19.825 c 1.972,0 3.476,-0.375 4.511,-1.153 1.043,-0.781 1.563,-1.816 1.563,-3.148 0,-1.191 -0.403,-2.18 -1.231,-3.004 z m -54.679,42.477 c -1.942,-5.586 -4.852,-10.446 -8.739,-14.536 -3.879,-4.089 -8.652,-7.222 -14.297,-9.39 -5.656,-2.184 -12.14,-3.27 -19.433,-3.27 -7.266,0 -13.77,1.125 -19.492,3.352 -5.743,2.226 -10.539,5.375 -14.387,9.43 -3.828,4.066 -6.738,8.945 -8.699,14.648 -1.965,5.707 -2.942,11.867 -2.942,18.504 0,6.789 1.028,13.012 3.078,18.683 2.04,5.668 5.008,10.477 8.887,14.461 3.887,3.981 8.613,7.024 14.18,9.129 5.574,2.114 11.902,3.176 18.996,3.176 9.617,0 17.879,-1.863 24.773,-5.59 6.903,-3.711 12.129,-9.004 15.672,-15.84 3.535,-6.863 5.324,-14.898 5.324,-24.136 0,-6.836 -0.988,-13.047 -2.921,-18.621 z M 455.086,272.617 c -2.902,-4.258 -7.129,-7.601 -12.695,-10.012 -5.567,-2.402 -12.168,-3.617 -19.805,-3.617 -9.16,0 -16.719,1.653 -22.664,4.942 -4.223,2.379 -7.66,5.539 -10.293,9.5 -2.641,3.957 -3.957,7.8 -3.957,11.535 0,2.176 0.801,4.035 2.375,5.578 1.582,1.559 3.59,2.324 6.043,2.324 1.98,0 3.664,-0.601 5.039,-1.808 1.367,-1.2 2.527,-2.993 3.504,-5.371 1.183,-2.805 2.461,-5.165 3.84,-7.051 1.367,-1.883 3.3,-3.442 5.781,-4.668 2.488,-1.227 5.769,-1.836 9.824,-1.836 5.555,0 10.086,1.226 13.574,3.703 3.477,2.477 5.227,5.559 5.227,9.262 0,2.925 -0.949,5.3 -2.824,7.144 -1.883,1.813 -4.297,3.219 -7.285,4.168 -2.969,0.969 -6.954,2.008 -11.926,3.094 -6.668,1.48 -12.246,3.215 -16.746,5.207 -4.493,1.977 -8.067,4.687 -10.703,8.133 -2.629,3.441 -3.946,7.707 -3.946,12.808 0,4.856 1.387,9.184 4.168,12.957 2.793,3.77 6.817,6.68 12.094,8.704 5.281,2.035 11.48,3.058 18.609,3.058 5.703,0 10.637,-0.683 14.778,-2.031 4.168,-1.344 7.617,-3.137 10.351,-5.36 2.742,-2.226 4.754,-4.574 6.024,-7.023 1.261,-2.457 1.894,-4.848 1.894,-7.18 0,-2.121 -0.789,-4.043 -2.383,-5.75 -1.57,-1.699 -3.543,-2.558 -5.906,-2.558 -2.148,0 -3.789,0.508 -4.914,1.543 -1.113,1.015 -2.332,2.683 -3.633,5.019 -1.687,3.352 -3.718,5.942 -6.07,7.805 -2.375,1.875 -6.164,2.805 -11.398,2.805 -4.852,0 -8.77,-1.016 -11.75,-3.039 -2.977,-2.028 -4.461,-4.469 -4.461,-7.321 0,-1.769 0.507,-3.289 1.523,-4.586 1.016,-1.285 2.402,-2.382 4.172,-3.308 1.785,-0.934 3.57,-1.653 5.387,-2.168 1.82,-0.535 4.804,-1.289 8.988,-2.301 5.223,-1.156 9.969,-2.453 14.207,-3.844 4.25,-1.418 7.851,-3.125 10.832,-5.136 2.965,-2.008 5.293,-4.551 6.949,-7.618 1.68,-3.078 2.512,-6.836 2.512,-11.304 0,-5.336 -1.445,-10.145 -4.336,-14.399 z m 259.629,29.899 c -30.031,65.164 -58.32,131.047 -87.598,196.531 -16.57,37.086 -32.922,74.297 -50.801,110.82 -20.343,41.555 -38.722,83.039 -31.98,130.645 1.836,12.968 -0.617,26.152 8.043,38.261 2.98,4.176 8.008,11.602 0.656,18.977 -9.531,-4.336 -16.504,-12.492 -17.629,-21.23 -4.941,-38.688 -9.297,-78.157 1.985,-116.012 7.929,-26.637 22.988,-51.336 34.668,-76.988 24.589,-53.969 48.914,-108.051 73.66,-161.954 7.89,-17.203 2.551,-25.457 -17.02,-25.461 -91.582,-0.015 -183.152,-0.031 -274.738,0.04 -17.402,0.011 -21.973,7.339 -14.824,22.71 31.457,67.633 59.023,136.887 90.519,204.407 19.082,40.922 30.106,81.031 26.766,125.367 -0.867,11.437 -3.426,21.664 -9.402,31.398 -2.813,4.598 -6.055,10.36 -12.043,7.871 -7.313,-3.031 -2.059,-8.878 -0.34,-13.269 14.636,-37.484 14.109,-74.945 -1.817,-111.695 C 386.871,556.891 340.438,451.035 294.012,345.176 281.543,316.734 267.41,289.117 271.051,256.547 c 3.351,-29.938 20.441,-53.895 43.762,-53.984 116.414,-0.422 232.82,-0.415 349.238,0.042 17.226,0.071 36.902,3.696 44.629,19.118 12.675,25.289 19.238,52.125 6.035,80.793" /><path
         id="path18"
         style="fill:#f03f4e;fill-opacity:1;fill-rule:nonzero;stroke:none"
         d="M 496.211,907.996 C 270.879,907.996 88.2109,725.332 88.2109,500 88.2109,274.668 270.879,92.0039 496.211,92.0039 c 225.332,0 408.004,182.6641 408.004,407.9961 0,225.332 -182.672,407.996 -408.004,407.996 z m 0,-38.246 c 203.883,0 369.754,-165.867 369.754,-369.75 0,-203.883 -165.871,-369.75 -369.754,-369.75 -203.879,0 -369.746,165.867 -369.746,369.75 0,203.883 165.867,369.75 369.746,369.75" /></g></g></svg>