<?xml version="1.0" encoding="UTF-8" standalone="no"?>
<svg
   xmlns:dc="http://purl.org/dc/elements/1.1/"
   xmlns:cc="http://creativecommons.org/ns#"
   xmlns:rdf="http://www.w3.org/1999/02/22-rdf-syntax-ns#"
   xmlns:svg="http://www.w3.org/2000/svg"
   xmlns="http://www.w3.org/2000/svg"
   viewBox="0 0 133.34666 133.33333"
   height="133.33333"
   width="133.34666"
   xml:space="preserve"
   id="svg2"
   version="1.1"><metadata
     id="metadata8"><rdf:RDF><cc:Work
         rdf:about=""><dc:format>image/svg+xml</dc:format><dc:type
           rdf:resource="http://purl.org/dc/dcmitype/StillImage" /></cc:Work></rdf:RDF></metadata><defs
     id="defs6" /><g
     transform="matrix(1.3333333,0,0,-1.3333333,0,133.33333)"
     id="g10"><g
       transform="scale(0.1)"
       id="g12"><path
         id="path14"
         style="fill:#f03f4e;fill-opacity:1;fill-rule:nonzero;stroke:none"
         d="m 614.762,405.914 c -0.985,-11.711 -2.098,-24.891 -8.133,-34.476 C 561.285,299.277 488.086,266.051 406.93,234.309 c 4.308,22.101 18.254,27.191 27.961,35.359 45.097,37.895 86.218,78.578 109.812,133.184 3.723,8.609 9.992,16.523 16.438,23.597 9.363,10.293 20.839,17.289 35.964,11.688 15.372,-5.696 18.813,-18.625 17.657,-32.223 z m 39.961,34.981 c -54.375,22.988 -107.996,47.652 -161.934,71.621 -55.047,24.48 -110.398,48.367 -165,73.75 -21.246,9.879 -32.242,5.613 -44.043,-14.504 -70.613,-120.371 -54.578,-232.797 25.598,-343.199 21.668,-29.833 36.902,-38.614 79.59,-37.454 148.73,4.024 229.101,84.907 283.945,205.329 10.457,22.972 4.851,34.73 -18.156,44.457" /><path
         id="path16"
         style="fill:#f03f4e;fill-opacity:1;fill-rule:nonzero;stroke:none"
         d="m 731.109,535.504 c -0.789,-0.656 -4.031,-5.645 -7.832,-6.074 -7.058,-0.805 -10.906,5.468 -12.398,11.168 -10.246,39.105 -40.109,61.332 -72.832,81.621 -18.91,11.711 -28.52,28.449 -14.164,48.293 13.762,19 32.551,12.07 49.512,3.035 47.882,-25.504 78.593,-95.516 57.714,-138.043 z m 18.196,99.039 c -17.168,32.25 -45.899,52.699 -74.375,73.547 -22.715,16.633 -34.953,36.457 -28.047,64.769 2.793,11.457 7.859,23.594 -8.516,30.524 -14.883,6.297 -23.137,-1.668 -30.773,-12.02 -16.485,-22.343 -39.727,-26.527 -65.77,-22.617 -28.027,4.207 -55.929,9.379 -84.043,12.852 -42.101,5.195 -78.633,-6.61 -105.851,-38.86 -17.09,-20.254 -31.563,-41.738 -38.203,-68.629 -11.922,-48.328 -13.504,-48.019 33.886,-69.171 51.582,-23.02 103.215,-45.922 154.825,-68.86 54.984,-24.445 109.953,-48.898 164.921,-73.344 1.125,-0.504 2.336,-0.871 3.36,-1.504 24.894,-15.406 43.203,-6.468 60.793,13.243 41.191,46.187 47.531,104.199 17.793,160.07" /><path
         id="path18"
         style="fill:#f03f4e;fill-opacity:1;fill-rule:nonzero;stroke:none"
         d="m 503.355,901.621 c -222.742,0 -403.308,-180.566 -403.308,-403.308 0,-222.743 180.566,-403.3091 403.308,-403.3091 222.735,0 403.301,180.5661 403.301,403.3091 0,222.742 -180.566,403.308 -403.301,403.308 z m 0,-37.812 c 201.536,0 365.5,-163.961 365.5,-365.496 0,-201.536 -163.964,-365.5 -365.5,-365.5 -201.542,0 -365.496,163.964 -365.496,365.5 0,201.535 163.954,365.496 365.496,365.496" /></g></g></svg>