<?xml version="1.0" encoding="UTF-8" standalone="no"?>
<svg
   xmlns:dc="http://purl.org/dc/elements/1.1/"
   xmlns:cc="http://creativecommons.org/ns#"
   xmlns:rdf="http://www.w3.org/1999/02/22-rdf-syntax-ns#"
   xmlns:svg="http://www.w3.org/2000/svg"
   xmlns="http://www.w3.org/2000/svg"
   viewBox="0 0 133.34666 133.33333"
   height="133.33333"
   width="133.34666"
   xml:space="preserve"
   id="svg2"
   version="1.1"><metadata
     id="metadata8"><rdf:RDF><cc:Work
         rdf:about=""><dc:format>image/svg+xml</dc:format><dc:type
           rdf:resource="http://purl.org/dc/dcmitype/StillImage" /></cc:Work></rdf:RDF></metadata><defs
     id="defs6" /><g
     transform="matrix(1.3333333,0,0,-1.3333333,0,133.33333)"
     id="g10"><g
       transform="scale(0.1)"
       id="g12"><path
         id="path14"
         style="fill:#f03f4e;fill-opacity:1;fill-rule:nonzero;stroke:none"
         d="m 501.461,652.289 c 0.625,-10.34 1.016,-20.578 1.144,-30.711 -9.035,10.555 -18.937,20.402 -23.351,33.688 8.027,-2.067 15.449,-3.016 22.207,-2.977 z M 482.078,329.703 c 12.606,27.051 23.66,54.688 32.754,83.016 6.883,-6.965 17.52,-11.055 30.965,-10.785 14.133,0.277 26.465,5.234 38.379,12.457 52.941,32.097 75.176,81.793 79.465,143.523 -29.641,-35.426 -71.555,-47 -111.321,-62.742 -7.156,-2.832 -13.582,-6.641 -19.265,-11.254 3.488,18.234 6.101,36.773 7.761,55.645 17.852,-14.833 36.059,-14.411 54.2,1.515 45.234,39.727 46.457,161.383 -1.621,207.981 -3.633,-48.184 -31.59,-83.536 -54.032,-122.047 -1.593,12.367 -3.781,24.609 -6.554,36.726 11.367,11.43 14.582,30.856 7.004,55.895 -12.93,42.715 -45.899,76.269 -51.758,128.687 -38.692,-58.16 -40.782,-113.511 -12.688,-189.043 -23.457,8.969 -30.801,35.196 -53.222,52.008 -8.68,-51.351 -8.661,-97.555 12.648,-141.789 16.824,-34.918 40.391,-45.437 63.25,-31.254 -3.27,-26.371 -8.242,-51.851 -14.676,-76.371 -1.281,6.719 -3.515,13.711 -6.855,20.801 -1.789,3.777 -3.586,7.734 -6.231,10.902 -24.562,29.426 -51.191,57.114 -75.304,95.43 -12.696,-52.973 -16.825,-99.063 1.711,-144.223 12.773,-31.113 40.886,-44.152 65.378,-33.691 2.383,1.015 4.532,2.289 6.543,3.707 -8.242,-20.906 -22.168,-48.094 -37.695,-76.234 -3.496,15.035 -11.434,28.949 -23.953,41.726 -19.094,19.481 -36.809,39.883 -48.418,65.109 -4.836,10.52 -13.926,20.34 -20.176,1.2 -15.859,-48.578 -25,-97.539 1.231,-145.996 14.168,-26.164 29.902,-37.438 49.59,-34.524 -9.395,-15.89 -18.059,-30.387 -25,-42.16 -7.2,-12.238 -15.274,-29.094 2.097,-39.371 18.125,-10.731 32.453,0.226 42.442,15.469 7.949,12.117 15.675,24.332 23.164,36.64 10.175,-16.429 29.941,-18.566 63.859,-8.359 76.445,23.008 118.789,79.969 147.852,160.504 -40.547,-21.305 -73.809,-38.879 -111.329,-45.539 -17.355,-3.086 -34.289,-7.215 -50.195,-13.559" /><path
         id="path16"
         style="fill:#f03f4e;fill-opacity:1;fill-rule:nonzero;stroke:none"
         d="m 493.355,904.988 c -222.742,0 -403.3081,-180.562 -403.3081,-403.304 0,-222.743 180.5661,-403.309 403.3081,-403.309 222.735,0 403.301,180.566 403.301,403.309 0,222.742 -180.566,403.304 -403.301,403.304 z m 0,-37.804 c 201.536,0 365.5,-163.965 365.5,-365.5 0,-201.539 -163.964,-365.496 -365.5,-365.496 -201.542,0 -365.496,163.957 -365.496,365.496 0,201.535 163.954,365.5 365.496,365.5" /></g></g></svg>