<svg id="Layer_1" data-name="Layer 1" xmlns="http://www.w3.org/2000/svg" viewBox="0 0 64 64"><title>add alarm</title><path d="M31.91,11.93a24,24,0,1,0,24,24A24,24,0,0,0,31.91,11.93Zm8,24.34a1.66,1.66,0,0,1-1.66,1.66H33.91v4.34a1.66,1.66,0,0,1-1.66,1.66h-.68a1.66,1.66,0,0,1-1.66-1.66V37.93H25.57a1.66,1.66,0,0,1-1.66-1.66v-.68a1.66,1.66,0,0,1,1.66-1.66h4.34V29.59a1.66,1.66,0,0,1,1.66-1.66h.68a1.66,1.66,0,0,1,1.66,1.66v4.34h4.34a1.66,1.66,0,0,1,1.66,1.66Z"/><path d="M59,22.53a8.48,8.48,0,0,0-.43-8.45A30.22,30.22,0,0,0,50,5.42,8.59,8.59,0,0,0,39.2,6.64l0,0a1.43,1.43,0,0,0,.63,2.39A28.12,28.12,0,0,1,56.49,22.54,1.44,1.44,0,0,0,59,22.53Z"/><path d="M5.4,14.07a8.47,8.47,0,0,0-.53,8.26,1.44,1.44,0,0,0,2.55,0A28.12,28.12,0,0,1,24.15,9a1.44,1.44,0,0,0,.64-2.4A8.59,8.59,0,0,0,14,5.42,30.22,30.22,0,0,0,5.4,14.07Z"/></svg>