<svg id="Layer_1" data-name="Layer 1" xmlns="http://www.w3.org/2000/svg" viewBox="0 0 64 64"><title>alphabet blocks</title><path d="M23.36,30H40.64A4.36,4.36,0,0,0,45,25.64V10.36A4.36,4.36,0,0,0,40.64,6H23.36A4.36,4.36,0,0,0,19,10.36V25.64A4.36,4.36,0,0,0,23.36,30Zm.85-6.89,6-12a2,2,0,0,1,3.58,0l6,12a2,2,0,1,1-3.58,1.79L35.76,24H34a2,2,0,0,1-.22-4L32,16.47l-4.21,8.42a2,2,0,0,1-3.58-1.79Z"/><path d="M20,43a1,1,0,0,0-1-1H14v2h5A1,1,0,0,0,20,43Z"/><path d="M8.36,58H25.64A4.36,4.36,0,0,0,30,53.64V38.36A4.36,4.36,0,0,0,25.64,34H8.36A4.36,4.36,0,0,0,4,38.36V53.64A4.36,4.36,0,0,0,8.36,58ZM10,46V40a2,2,0,0,1,2-2h7a5,5,0,0,1,5,5,5,5,0,0,1-1,3,5,5,0,0,1,1,3,5,5,0,0,1-5,5H12a2,2,0,0,1-2-2Z"/><path d="M20,49a1,1,0,0,0-1-1H14v2h5A1,1,0,0,0,20,49Z"/><path d="M55.64,34H38.36A4.36,4.36,0,0,0,34,38.36V53.64A4.36,4.36,0,0,0,38.36,58H55.64A4.36,4.36,0,0,0,60,53.64V38.36A4.36,4.36,0,0,0,55.64,34ZM48,50h3.69a2,2,0,0,1,0,4H48a8,8,0,0,1,0-16h3.69a2,2,0,0,1,0,4H48a4,4,0,0,0,0,8Z"/></svg>