<svg id="Layer_1" data-name="Layer 1" xmlns="http://www.w3.org/2000/svg" viewBox="0 0 64 64"><title>announcement</title><path d="M57.53,21.42c-.72-.43-1.5.35-1.5,1.48v7.71c0,1.12.78,1.9,1.5,1.48C59,31.22,60,29.16,60,26.75S59,22.28,57.53,21.42Z"/><path d="M8.74,34.79a3.44,3.44,0,0,1,2.74,2.76l4.2,17.68a2.18,2.18,0,0,0,4.33-.4V18.37a1.08,1.08,0,0,0-1.34-1l-9.4,2.35A7,7,0,0,0,4,26.42v3A5.38,5.38,0,0,0,8.37,34.7Z"/><path d="M26.13,42.36a5.75,5.75,0,0,0,2.13-1.47,4.84,4.84,0,0,1,5-1.29l13.51,4.09A1.69,1.69,0,0,1,48,45.29,1.67,1.67,0,0,0,49.64,47h.7A1.69,1.69,0,0,0,52,45.32V8.67A1.69,1.69,0,0,0,50.34,7h-.7A1.67,1.67,0,0,0,48,8.71a1.69,1.69,0,0,1-1.28,1.6L25.29,16.67A1.69,1.69,0,0,0,24,18.31V40.86A1.58,1.58,0,0,0,26.13,42.36Z"/></svg>