<svg id="Layer_1" data-name="Layer 1" xmlns="http://www.w3.org/2000/svg" viewBox="0 0 64 64"><title>aroma therapy</title><path d="M12.68,43.85C16.19,46,23,48,32,48S47.81,46,51.32,43.85a1.22,1.22,0,0,0,.6-1.15,14.36,14.36,0,0,0-4.37-8.78A36.65,36.65,0,0,1,38,18.49l-1.23-4.1A3.41,3.41,0,0,0,33.47,12H30.53a3.41,3.41,0,0,0-3.26,2.43L26,18.49a36.65,36.65,0,0,1-9.59,15.43,14.36,14.36,0,0,0-4.37,8.78A1.22,1.22,0,0,0,12.68,43.85ZM28,39.38A4,4,0,0,1,31.3,36a3.94,3.94,0,0,1,2,.18.6.6,0,0,1,.2,1l-.7.7a.6.6,0,0,0,0,.85l.36.36a.6.6,0,0,0,.85,0l.71-.71a.6.6,0,0,1,1,.19,4,4,0,0,1,.19,2.06A4,4,0,0,1,28,39.38Z"/><path d="M50.69,49.68A.53.53,0,0,0,50,49a50.84,50.84,0,0,1-18,3,50.84,50.84,0,0,1-18-3,.53.53,0,0,0-.67.72C16.17,55.73,23.45,60,32,60S47.83,55.73,50.69,49.68Z"/><circle cx="18" cy="9.97" r="2"/><circle cx="24.16" cy="5.97" r="2"/><circle cx="24" cy="10.97" r="1"/><circle cx="21" cy="14.97" r="1"/><circle cx="29" cy="8.97" r="1"/><circle cx="30" cy="4.97" r="1"/><circle cx="46" cy="9.97" r="2"/><circle cx="39.84" cy="5.97" r="2"/><circle cx="40" cy="10.97" r="1"/><circle cx="43" cy="14.97" r="1"/><circle cx="35" cy="8.97" r="1"/><circle cx="34" cy="4.97" r="1"/></svg>