<svg id="Layer_1" data-name="Layer 1" xmlns="http://www.w3.org/2000/svg" viewBox="0 0 64 64"><title>automatic flash</title><path d="M32,4A28,28,0,1,0,60,32,28,28,0,0,0,32,4ZM29.4,48H25.8a2.9,2.9,0,0,1-2.32-4.64l3.82-5.1A1.41,1.41,0,0,0,26.18,36H22a2.5,2.5,0,0,1-2-4L30.44,18.08A5.21,5.21,0,0,1,34.6,16H38.2a2.9,2.9,0,0,1,2.32,4.64l-3.83,5.1A1.41,1.41,0,0,0,37.82,28H42a2.5,2.5,0,0,1,2,4h0L33.56,45.92A5.21,5.21,0,0,1,29.4,48Zm18-.3a2,2,0,0,1-2.77-.59l-.92-1.43-.92,1.43a2,2,0,1,1-3.36-2.17l2.6-4a2,2,0,0,1,3.36,0l2.6,4A2,2,0,0,1,47.37,47.7Z"/></svg>