<svg id="Layer_1" data-name="Layer 1" xmlns="http://www.w3.org/2000/svg" viewBox="0 0 64 64"><title>big ben</title><path d="M17,38H47a1,1,0,0,0,1-1V35a1,1,0,0,0-1-1,1,1,0,0,1-1-1V21a1,1,0,0,1,1-1,1,1,0,0,0,1-1V17a1,1,0,0,0-1-1H17a1,1,0,0,0-1,1v2a1,1,0,0,0,1,1,1,1,0,0,1,1,1V33a1,1,0,0,1-1,1,1,1,0,0,0-1,1v2A1,1,0,0,0,17,38ZM32,19.94a7,7,0,1,1-7,7A7,7,0,0,1,32,19.94Z"/><path d="M42.05,40.65A.65.65,0,0,0,41.4,40H22.6a.65.65,0,0,0-.65.65V59.23a.77.77,0,0,0,.77.77H41.28a.77.77,0,0,0,.77-.77ZM28,53a1,1,0,0,1-2,0v-.5a1,1,0,0,1,2,0Zm0-5.5a1,1,0,0,1-2,0V47a1,1,0,0,1,2,0ZM33,53a1,1,0,0,1-2,0v-.5a1,1,0,0,1,2,0Zm0-5.5a1,1,0,0,1-2,0V47a1,1,0,0,1,2,0ZM38,53a1,1,0,0,1-2,0v-.5a1,1,0,0,1,2,0Zm0-5.5a1,1,0,0,1-2,0V47a1,1,0,0,1,2,0Z"/><path d="M29.92,28.94H33V22.78a.78.78,0,0,0-.78-.78h-.42a.78.78,0,0,0-.78.78v3.85a.34.34,0,0,1-.34.34h-.75a.87.87,0,0,0-.87.87v.23A.87.87,0,0,0,29.92,28.94Z"/><path d="M20.37,14H43.63a1.32,1.32,0,0,0,.73-2.42L33.7,4.51a3.08,3.08,0,0,0-3.41,0L19.64,11.58A1.32,1.32,0,0,0,20.37,14Z"/></svg>