<svg id="Layer_1" data-name="Layer 1" xmlns="http://www.w3.org/2000/svg" viewBox="0 0 64 64"><title>bookcase</title><path d="M47.54,4H16.46A4.47,4.47,0,0,0,12,8.46V51.93A4.07,4.07,0,0,0,16,56v4h4V56H44v4h4V56a4.07,4.07,0,0,0,4-4.06V8.46A4.47,4.47,0,0,0,47.54,4ZM16,8.46A.46.46,0,0,1,16.46,8H47.54a.46.46,0,0,1,.46.46V20H38V12H34v8H16ZM30,46a2,2,0,1,1,2,2A2,2,0,0,1,30,46ZM48,36H34V28H30v8H28V28H24v8H22V28H18v8H16V24H48Z"/><rect x="38" y="26.53" width="4" height="8.94" transform="translate(-9.64 21.16) rotate(-26.57)"/><rect x="39.53" y="13.07" width="8.94" height="4" transform="translate(10.84 47.69) rotate(-63.43)"/></svg>