<svg id="Layer_1" data-name="Layer 1" xmlns="http://www.w3.org/2000/svg" viewBox="0 0 64 64"><title>browser settings</title><path d="M49.48,4h-35A10.52,10.52,0,0,0,4,14.52v35A10.52,10.52,0,0,0,14.52,60h35A10.52,10.52,0,0,0,60,49.48v-35A10.52,10.52,0,0,0,49.48,4ZM32,10a2,2,0,1,1-2,2A2,2,0,0,1,32,10Zm-8,0a2,2,0,1,1-2,2A2,2,0,0,1,24,10Zm-8,0a2,2,0,1,1-2,2A2,2,0,0,1,16,10ZM52,49.48A2.52,2.52,0,0,1,49.48,52h-35A2.52,2.52,0,0,1,12,49.48V22.86A2.86,2.86,0,0,1,14.86,20H49.14A2.86,2.86,0,0,1,52,22.86Z"/><path d="M41.08,33.77l-1.53-.38a8,8,0,0,0-.37-.88L40,31.15a1.21,1.21,0,0,0-.18-1.48l-1.49-1.49A1.21,1.21,0,0,0,36.85,28l-1.35.81a8,8,0,0,0-.88-.37l-.38-1.53A1.21,1.21,0,0,0,33.06,26H30.94a1.21,1.21,0,0,0-1.17.92l-.38,1.53a8,8,0,0,0-.88.37L27.15,28a1.21,1.21,0,0,0-1.48.18l-1.49,1.49A1.21,1.21,0,0,0,24,31.15l.81,1.35a8,8,0,0,0-.37.88l-1.53.38A1.21,1.21,0,0,0,22,34.94v2.11a1.21,1.21,0,0,0,.92,1.17l1.53.38a8,8,0,0,0,.37.88L24,40.85a1.21,1.21,0,0,0,.18,1.48l1.49,1.49a1.21,1.21,0,0,0,1.48.18l1.35-.81a8,8,0,0,0,.88.37l.38,1.53a1.21,1.21,0,0,0,1.17.92h2.11a1.21,1.21,0,0,0,1.17-.92l.38-1.53a8,8,0,0,0,.88-.37l1.35.81a1.21,1.21,0,0,0,1.48-.18l1.49-1.49A1.21,1.21,0,0,0,40,40.85l-.81-1.35a8,8,0,0,0,.37-.88l1.53-.38A1.21,1.21,0,0,0,42,37.06V34.94A1.21,1.21,0,0,0,41.08,33.77ZM32,39a3,3,0,1,1,3-3A3,3,0,0,1,32,39Z"/></svg>