<svg id="Layer_1" data-name="Layer 1" xmlns="http://www.w3.org/2000/svg" viewBox="0 0 64 64"><title>bunk beds</title><path d="M5.56,60h.88A1.56,1.56,0,0,0,8,58.44V52H40v6.5A1.5,1.5,0,0,0,41.5,60h1A1.5,1.5,0,0,0,44,58.5V22.41A2.41,2.41,0,0,0,41.59,20H13.93A5.93,5.93,0,0,1,8,14.07V5.56A1.56,1.56,0,0,0,6.44,4H5.56A1.56,1.56,0,0,0,4,5.56V58.44A1.56,1.56,0,0,0,5.56,60ZM8,28H40V44H13.93A5.93,5.93,0,0,1,8,38.07Z"/><path d="M58.44,4h-.88A1.56,1.56,0,0,0,56,5.56V20H49.51A1.51,1.51,0,0,0,48,21.51v1A1.51,1.51,0,0,0,49.51,24h5A1.51,1.51,0,0,1,56,25.51v1A1.51,1.51,0,0,1,54.49,28h-5A1.51,1.51,0,0,0,48,29.51v1A1.51,1.51,0,0,0,49.51,32h5A1.51,1.51,0,0,1,56,33.51v1A1.51,1.51,0,0,1,54.49,36h-5A1.51,1.51,0,0,0,48,37.51v1A1.51,1.51,0,0,0,49.51,40h5A1.51,1.51,0,0,1,56,41.51v1A1.51,1.51,0,0,1,54.49,44h-5A1.51,1.51,0,0,0,48,45.51v1A1.51,1.51,0,0,0,49.51,48h5A1.51,1.51,0,0,1,56,49.51v1A1.51,1.51,0,0,1,54.49,52h-5A1.51,1.51,0,0,0,48,53.51v1A1.51,1.51,0,0,0,49.51,56h5A1.51,1.51,0,0,1,56,57.51v.93A1.56,1.56,0,0,0,57.56,60h.88A1.56,1.56,0,0,0,60,58.44V5.56A1.56,1.56,0,0,0,58.44,4Z"/><circle cx="15" cy="15" r="3"/><circle cx="15" cy="39" r="3"/></svg>