<svg id="Layer_1" data-name="Layer 1" xmlns="http://www.w3.org/2000/svg" viewBox="0 0 64 64"><title>care for security</title><path d="M6,25.16H6A82.62,82.62,0,0,0,7.12,38.75l.26,1.57a17.4,17.4,0,0,0,2.69,6.79l4.71,7.07a5,5,0,0,1,.68,4A1.51,1.51,0,0,0,16.93,60h6.55A4.52,4.52,0,0,0,28,55.48V47.93a16.64,16.64,0,0,0-2.09-8.08,15.5,15.5,0,0,0-6.69-6.24L16.3,32.15a1.42,1.42,0,0,0-.63-.15h-.25a1.42,1.42,0,0,0-1,2.41l5.18,5.21a1.42,1.42,0,0,1,.08,1.9,1.4,1.4,0,0,1-2.1.06l-3.85-3.85a10.35,10.35,0,0,1-2.5-4l-3-8.89A1.16,1.16,0,0,0,6,25.16Z"/><path d="M56.61,40.32l.26-1.57A82.62,82.62,0,0,0,58,25.16h0a1.16,1.16,0,0,0-2.26-.37l-3,8.89a10.35,10.35,0,0,1-2.5,4l-3.85,3.85a1.4,1.4,0,0,1-2.1-.06,1.42,1.42,0,0,1,.08-1.9l5.18-5.21a1.42,1.42,0,0,0-1-2.41h-.25a1.42,1.42,0,0,0-.63.15l-2.92,1.46a15.5,15.5,0,0,0-6.69,6.24A16.64,16.64,0,0,0,36,47.93v8A4.11,4.11,0,0,0,40.11,60h7a1.51,1.51,0,0,0,1.46-1.87,5,5,0,0,1,.68-4l4.71-7.07A17.4,17.4,0,0,0,56.61,40.32Z"/><path d="M44,18.35V8.54h0a1,1,0,0,0-.72-1L32.85,4.13A2.74,2.74,0,0,0,32,4h0a2.74,2.74,0,0,0-.85.13L20.69,7.55a1,1,0,0,0-.72,1v9.81A13.95,13.95,0,0,0,31.06,32a4.62,4.62,0,0,0,.94.1h0a4.62,4.62,0,0,0,.94-.1A13.94,13.94,0,0,0,44,18.35Zm-4,0a10,10,0,0,1-7.9,9.72H32V18H24V10.68l8-2.62V18h8Z"/></svg>