<svg id="Layer_1" data-name="Layer 1" xmlns="http://www.w3.org/2000/svg" viewBox="0 0 64 64"><title>care for recycling</title><path d="M33.78,12.94h3.55a2,2,0,0,0,1.77-1l1.75-3.06a.58.58,0,0,0-.8-.79l-.29.17-2-3.53A1.16,1.16,0,0,0,36.42,4L28.54,4l.12,0h0l.18.06-.2-.06A3.51,3.51,0,0,0,25,5.54L25,5.66,22.91,9.22a1.67,1.67,0,0,0,.61,2.28l3.14,1.82a1.67,1.67,0,0,0,2.28-.61L31,9.11a.68.68,0,0,1,1.18,0l1.49,2.63-.2.12A.58.58,0,0,0,33.78,12.94Z"/><path d="M17.64,20.43l4,6.81,0-.13a3.52,3.52,0,0,0,3.1,2.41h4.26a1.67,1.67,0,0,0,1.67-1.67V24.23a1.67,1.67,0,0,0-1.67-1.67h-4.2a.68.68,0,0,1-.59-1l1.51-2.65.26.15a.58.58,0,0,0,.79-.8l-1.79-3.07a2,2,0,0,0-1.77-1H19.62a.58.58,0,0,0-.29,1.08l.24.14-2,3.52A1.17,1.17,0,0,0,17.64,20.43Z"/><path d="M42,28.79l4-7a3.5,3.5,0,0,0,.37-3.67L46.26,18,44.2,14.48a1.67,1.67,0,0,0-2.28-.61l-3.14,1.81A1.67,1.67,0,0,0,38.17,18l2.09,3.63a.68.68,0,0,1-.59,1h-3v-.27A.58.58,0,0,0,35.54,22l-1.76,3.08a2,2,0,0,0,0,2l1.77,3a.58.58,0,0,0,1.08-.29v-.3H40.7A1.16,1.16,0,0,0,42,28.79Z"/><path d="M11.3,20a1.06,1.06,0,0,0-1,.8L9.79,22A26,26,0,0,0,8.2,27.94v0l-.55,3.87A22.72,22.72,0,0,0,10.81,47l4.77,7.71a2.89,2.89,0,0,1,.13,2.8l-.43.87a1.12,1.12,0,0,0,1,1.61h7.89A4.88,4.88,0,0,0,29,55.74l.87-6.93a16,16,0,0,0-1.56-9.12A14.44,14.44,0,0,0,23,33.85l-6.13-3.78a1.56,1.56,0,0,0-.82-.23h0a1.56,1.56,0,0,0-1.56,1.56h0a6.3,6.3,0,0,0,1.84,4.45l3.74,3.74a1.41,1.41,0,0,1-2,2l-3.26-3.26a8.59,8.59,0,0,1-2.5-5.62l-.17-3.2a53.08,53.08,0,0,1,.22-8.37A1.06,1.06,0,0,0,11.3,20Z"/><path d="M53.2,47a22.72,22.72,0,0,0,3.16-15.16L55.81,28v0A26,26,0,0,0,54.21,22l-.49-1.22a1.06,1.06,0,0,0-2.08.37,53.08,53.08,0,0,1,.22,8.37l-.17,3.2a8.59,8.59,0,0,1-2.5,5.62l-3.26,3.26a1.41,1.41,0,0,1-2-2l3.74-3.74a6.3,6.3,0,0,0,1.84-4.45h0A1.56,1.56,0,0,0,48,29.84h0a1.56,1.56,0,0,0-.82.23L41,33.85a14.44,14.44,0,0,0-5.34,5.83,16,16,0,0,0-1.56,9.12L35,55.74A4.88,4.88,0,0,0,39.83,60h7.89a1.12,1.12,0,0,0,1-1.61l-.43-.87a2.89,2.89,0,0,1,.13-2.8Z"/></svg>