<svg id="Layer_1" data-name="Layer 1" xmlns="http://www.w3.org/2000/svg" viewBox="0 0 64 64"><title>cassette</title><path d="M60,17.19A7.19,7.19,0,0,0,52.81,10H11.19A7.19,7.19,0,0,0,4,17.19V46.81A7.19,7.19,0,0,0,11.19,54H52.81A7.19,7.19,0,0,0,60,46.81ZM16,50a2,2,0,1,1,2-2A2,2,0,0,1,16,50Zm24,0H24a2,2,0,0,1,0-4H40a2,2,0,0,1,0,4Zm8,0a2,2,0,1,1,2-2A2,2,0,0,1,48,50Zm4-11.51A3.51,3.51,0,0,1,48.53,42h-3.1a3.51,3.51,0,0,1-2.49-1L41,39a3.51,3.51,0,0,0-2.49-1H25.45A3.51,3.51,0,0,0,23,39L21,41a3.51,3.51,0,0,1-2.48,1h-3A3.51,3.51,0,0,1,12,38.49v-17A3.51,3.51,0,0,1,15.51,18h33A3.51,3.51,0,0,1,52,21.51Z"/><circle cx="20" cy="30" r="4"/><circle cx="44" cy="30" r="4"/></svg>