<svg id="Layer_1" data-name="Layer 1" xmlns="http://www.w3.org/2000/svg" viewBox="0 0 64 64"><title>ceiling lamp</title><path d="M31.39,26h1.21a.39.39,0,0,0,.39-.39v-16A1.57,1.57,0,0,1,34.57,8,1.43,1.43,0,0,0,36,6.57V6.52A.52.52,0,0,0,35.48,6h-7a.52.52,0,0,0-.52.52v.05A1.43,1.43,0,0,0,29.43,8,1.57,1.57,0,0,1,31,9.57v16A.39.39,0,0,0,31.39,26Z"/><path d="M41.24,40.22,36.33,28.77A1.28,1.28,0,0,0,35.16,28H28.84a1.28,1.28,0,0,0-1.17.77L22.76,40.22A1.28,1.28,0,0,0,23.94,42H40.06A1.28,1.28,0,0,0,41.24,40.22Z"/><path d="M31,55v2a1,1,0,0,0,2,0V55a1,1,0,0,0-2,0Z"/><path d="M19.27,52.14l1.41-1.41a1,1,0,1,0-1.41-1.41l-1.41,1.41a1,1,0,0,0,0,1.41h0A1,1,0,0,0,19.27,52.14Z"/><path d="M44.73,52.14a1,1,0,0,0,1.41,0h0a1,1,0,0,0,0-1.41l-1.41-1.41a1,1,0,1,0-1.41,1.41Z"/><path d="M40.63,55a1,1,0,0,0,1.73-1l-1-1.73a1,1,0,1,0-1.73,1Z"/><path d="M26.63,54.16l-.52,1.93a1,1,0,1,0,1.93.52l.52-1.93a1,1,0,1,0-1.93-.52Z"/><path d="M18.14,46a1,1,0,0,0-1.37-.37l-1.73,1a1,1,0,0,0,1,1.73l1.73-1A1,1,0,0,0,18.14,46Z"/><path d="M49.32,48A1,1,0,0,0,49,46.63l-1.73-1a1,1,0,0,0-1,1.73l1.73,1A1,1,0,0,0,49.32,48Z"/><path d="M36.14,53.45a1,1,0,0,0-.71,1.22L36,56.61a1,1,0,1,0,1.93-.52l-.52-1.93A1,1,0,0,0,36.14,53.45Z"/><path d="M22,55.32A1,1,0,0,0,23.37,55l1-1.73a1,1,0,0,0-1.73-1l-1,1.73A1,1,0,0,0,22,55.32Z"/></svg>