<svg id="Layer_1" data-name="Layer 1" xmlns="http://www.w3.org/2000/svg" viewBox="0 0 64 64"><title>charging battery</title><path d="M57.94,24.13H56.27A2.27,2.27,0,0,1,54,21.86v-.12A5.73,5.73,0,0,0,48.27,16H9.73A5.73,5.73,0,0,0,4,21.73V42.27A5.73,5.73,0,0,0,9.73,48H48.27A5.73,5.73,0,0,0,54,42.27,2.27,2.27,0,0,1,56.27,40h1.67A2.06,2.06,0,0,0,60,37.94V26.19A2.06,2.06,0,0,0,57.94,24.13ZM32,39.29a.71.71,0,0,1-.71.71H28.71a.71.71,0,0,1-.71-.71v-.58a.71.71,0,0,0-.71-.71H26a6,6,0,0,1-5.15-2.92A2.11,2.11,0,0,0,19.06,34H13.42A1.42,1.42,0,0,1,12,32.58V31.42A1.42,1.42,0,0,1,13.42,30h5.64a2.11,2.11,0,0,0,1.8-1.08A6,6,0,0,1,26,26h1.29a.71.71,0,0,0,.71-.71v-.58a.71.71,0,0,1,.71-.71h2.58a.71.71,0,0,1,.71.71ZM38,38H35.41A1.41,1.41,0,0,1,34,36.59V35.41A1.41,1.41,0,0,1,35.41,34H38a2,2,0,0,1,0,4Zm0-8H35.41A1.41,1.41,0,0,1,34,28.59V27.41A1.41,1.41,0,0,1,35.41,26H38a2,2,0,0,1,0,4Z"/></svg>