<svg id="Layer_1" data-name="Layer 1" xmlns="http://www.w3.org/2000/svg" viewBox="0 0 64 64"><title>cheese</title><path d="M6.52,27.27H58A.72.72,0,0,0,58.47,26l-19-15.79a6.32,6.32,0,0,0-7.4-.5L20.47,17a1.42,1.42,0,0,0-.56,1.67,2,2,0,0,1-3.34,2,1.37,1.37,0,0,0-1.7-.18L6.13,25.93A.72.72,0,0,0,6.52,27.27Zm40.48-6a1,1,0,1,1-1,1A1,1,0,0,1,47,21.27Zm-11-4a2,2,0,1,1-2,2A2,2,0,0,1,36,17.27Zm-8.42,4a1,1,0,1,1-1,1A1,1,0,0,1,27.58,21.27Z"/><path d="M57.76,31.27H6.24A2.24,2.24,0,0,0,4,33.51V47.8a1.48,1.48,0,0,0,1.65,1.45,3.94,3.94,0,0,1,1.47.15,4.08,4.08,0,0,1,2.75,2.75A3.94,3.94,0,0,1,10,53.62a1.48,1.48,0,0,0,1.45,1.65H57.76A2.24,2.24,0,0,0,60,53V33.51A2.24,2.24,0,0,0,57.76,31.27ZM20,39.94a4,4,0,1,1-4.62-4.62A4.05,4.05,0,0,1,20,39.94Zm2,10.33a1,1,0,1,1,1-1A1,1,0,0,1,22,50.27Zm8-5.37a2,2,0,1,1,2-2A2,2,0,0,1,30,44.89Zm12,6.37a2,2,0,1,1,2-2A2,2,0,0,1,42,51.27Zm1-12a1,1,0,1,1,1-1A1,1,0,0,1,43,39.27Zm11,0a2,2,0,1,1,2-2A2,2,0,0,1,54,39.27Z"/></svg>