<svg id="Layer_1" data-name="Layer 1" xmlns="http://www.w3.org/2000/svg" viewBox="0 0 64 64"><title>cocktail</title><path d="M56.35,24H7.65a3.15,3.15,0,0,0-3.1,2.49,28,28,0,1,0,54.9,0A3.14,3.14,0,0,0,56.35,24ZM12,40a1,1,0,1,1,1-1A1,1,0,0,1,12,40Zm2.11-4a1,1,0,1,1,1-1A1,1,0,0,1,14.11,36ZM16,40a1,1,0,1,1,1-1A1,1,0,0,1,16,40Z"/><path d="M11.41,15.41,16.85,10a.61.61,0,0,1,1,.16l4.29,8.58A2.33,2.33,0,0,0,24.2,20h2a.66.66,0,0,0,.59-1l-7-13.94a2,2,0,0,0-3.2-.52L8.66,12.51a2.07,2.07,0,0,0-.29,2.65A2,2,0,0,0,11.41,15.41Z"/><path d="M56.78,10.22a1.32,1.32,0,0,0,0-1.86l-1-1a1.32,1.32,0,0,0-1.86,0l-.55.55a2.3,2.3,0,0,1-2.08.63L46,7.49a1.62,1.62,0,0,0-1.46,2.73l9.44,9.44a1.62,1.62,0,0,0,2.73-1.46L55.6,12.85a2.3,2.3,0,0,1,.63-2.08Z"/><path d="M43.36,20h1.3a2.19,2.19,0,0,0,1.55-.64L48.53,17a.72.72,0,0,0,0-1l-.39-.39a.72.72,0,0,0-1,0l-3.94,3.94A.26.26,0,0,0,43.36,20Z"/></svg>