<svg id="Layer_1" data-name="Layer 1" xmlns="http://www.w3.org/2000/svg" viewBox="0 0 64 64"><title>confirm internet</title><path d="M42.6,9.53c-.41-.26-.82-.5-1.24-.73l-.45-.24q-.59-.31-1.19-.58l-.43-.19q-.73-.31-1.48-.58l-.42-.14c-.53-.18-1.06-.34-1.6-.48l-.2,0Q34.8,6.35,34,6.21l-.3-.05h0L31.85,7.75v6.18a1.63,1.63,0,0,0,1.88,1.61A23.86,23.86,0,0,0,42.91,12a.44.44,0,0,0,.2-.37V9.86h0Z"/><path d="M11.17,14.8A23.9,23.9,0,0,0,6.17,26a1.63,1.63,0,0,0,1.61,1.88H26.23a1.62,1.62,0,0,0,1.62-1.62v-5a1.6,1.6,0,0,0-1.43-1.57,27.83,27.83,0,0,1-13-5.16A1.62,1.62,0,0,0,11.17,14.8Z"/><path d="M26,44.16a23.86,23.86,0,0,0-9.18,3.55.44.44,0,0,0-.2.37v1.75h0l.5.32c.41.26.82.5,1.24.73l.45.24q.59.31,1.19.58l.43.19q.73.31,1.48.58l.42.14c.53.18,1.06.34,1.6.48l.2,0q.78.19,1.58.33l.3.05h0l1.83-1.59V45.77A1.63,1.63,0,0,0,26,44.16Z"/><path d="M42.7,26.75a5.94,5.94,0,0,1,6.3,0,20.58,20.58,0,0,0,2,1.1h.88A1.63,1.63,0,0,0,53.53,26a23.9,23.9,0,0,0-5-11.17,1.62,1.62,0,0,0-2.2-.33,27.83,27.83,0,0,1-13,5.16,1.6,1.6,0,0,0-1.43,1.57v5a1.62,1.62,0,0,0,1.62,1.62h7.19A20.57,20.57,0,0,0,42.7,26.75Z"/><path d="M26,15.53a1.63,1.63,0,0,0,1.88-1.61V7.75L26,6.15h0l-.3.05q-.8.14-1.58.33l-.2,0c-.54.14-1.07.3-1.6.48l-.42.14q-.75.26-1.48.58L20,8q-.6.27-1.19.58l-.45.24c-.42.23-.83.48-1.24.73l-.5.32h0v1.75a.44.44,0,0,0,.2.37A23.86,23.86,0,0,0,26,15.53Z"/><path d="M6.17,33.72a23.9,23.9,0,0,0,5,11.17,1.62,1.62,0,0,0,2.2.33,27.83,27.83,0,0,1,13-5.16,1.6,1.6,0,0,0,1.43-1.57v-5a1.62,1.62,0,0,0-1.62-1.62H7.78A1.63,1.63,0,0,0,6.17,33.72Z"/><path d="M56.77,33.73A20.76,20.76,0,0,1,53.49,33a26.71,26.71,0,0,1-2.72-.93l-.61-.27a25.26,25.26,0,0,1-3.27-1.7,1.94,1.94,0,0,0-2.06,0,25.25,25.25,0,0,1-3.27,1.7l-.61.27a23.51,23.51,0,0,1-6,1.62,1.22,1.22,0,0,0-1.08,1.22V47.21a6.49,6.49,0,0,0,2.89,5.4l.22.15,6.59,4.4a4.14,4.14,0,0,0,4.6,0L55,52.61a6.49,6.49,0,0,0,2.89-5.4V34.95A1.22,1.22,0,0,0,56.77,33.73Zm-5.51,8.78-4.75,4.75a2,2,0,0,1-2.61.19l-2.08-1.56a2,2,0,0,1,2.4-3.2l.7.52,3.52-3.52a2,2,0,0,1,2.83,2.83Z"/></svg>