<svg id="Layer_1" data-name="Layer 1" xmlns="http://www.w3.org/2000/svg" viewBox="0 0 64 64"><title>cookie</title><path d="M6.75,41a6,6,0,0,1,1,2.31A16.06,16.06,0,0,0,20.64,56.27a6,6,0,0,1,2.31,1,16.06,16.06,0,0,0,18.09,0,6,6,0,0,1,2.31-1A16.06,16.06,0,0,0,56.27,43.36a6,6,0,0,1,1-2.31,16.06,16.06,0,0,0,0-18.09,6,6,0,0,1-1-2.31A16.06,16.06,0,0,0,43.36,7.73a6,6,0,0,1-2.31-1A16.06,16.06,0,0,0,23,6.75a6,6,0,0,1-2.31,1A16.06,16.06,0,0,0,7.73,20.64a6,6,0,0,1-1,2.31A16.06,16.06,0,0,0,6.75,41ZM25,46a1,1,0,1,1-1,1A1,1,0,0,1,25,46ZM23,36a1,1,0,1,1-1,1A1,1,0,0,1,23,36Zm-4,7a1,1,0,1,1-1,1A1,1,0,0,1,19,43ZM16,32a1,1,0,1,1-1,1A1,1,0,0,1,16,32Zm-3,6a1,1,0,1,1-1,1A1,1,0,0,1,13,38Z"/></svg>