<svg id="Layer_1" data-name="Layer 1" xmlns="http://www.w3.org/2000/svg" viewBox="0 0 64 64"><title>crane</title><path d="M39.62,51h-.29a2.85,2.85,0,0,0-2.63,1.84A5,5,0,0,1,32.05,56c-3.84,0-6.69-4.36-3.85-8.4A4.25,4.25,0,0,1,32.13,46a1.78,1.78,0,0,0,1.93-1.77V40.87a.92.92,0,0,0-1-.92c-.34,0-.69.05-1,.05s-.63,0-.94,0a.92.92,0,0,0-1,.92v.64a1,1,0,0,1-.68.89A9,9,0,1,0,40.93,52.48,1.3,1.3,0,0,0,39.62,51Z"/><path d="M32,16a9,9,0,1,0,9,9A9,9,0,0,0,32,16Zm0,12a3,3,0,1,1,3-3A3,3,0,0,1,32,28Z"/><path d="M58.43,4H45.5A1.5,1.5,0,0,0,44,5.5V23.65a12.23,12.23,0,0,1-10.84,12.3A12,12,0,0,1,20,24V12.11A2.11,2.11,0,0,1,22.11,10H40.76A1.24,1.24,0,0,0,42,8.76V5.24A1.24,1.24,0,0,0,40.76,4H19.44A1.44,1.44,0,0,0,18,5.44V23.6A14.26,14.26,0,0,0,31.32,38,14,14,0,0,0,46,24V12.11A2.11,2.11,0,0,1,48.11,10H58.43A1.57,1.57,0,0,0,60,8.43V5.57A1.57,1.57,0,0,0,58.43,4Z"/><rect x="4" y="4" width="12" height="6" rx="1.27" ry="1.27"/></svg>