<svg id="Layer_1" data-name="Layer 1" xmlns="http://www.w3.org/2000/svg" viewBox="0 0 64 64"><title>crib decor</title><path d="M50.69,9.41c-3-.46-6.59-.8-10.49-1A2.07,2.07,0,0,0,38,10a2,2,0,0,0,1.86,2.41c4,.19,7.22.52,9.77.9a.92.92,0,0,1,0,1.83A124.37,124.37,0,0,1,32,16.22a124.39,124.39,0,0,1-17.67-1.09.92.92,0,0,1,0-1.83,105.73,105.73,0,0,1,10.86-.95,9,9,0,0,1,5.64,1.49A2,2,0,0,0,34,12.23h0V6.32a2.07,2.07,0,0,0-1.66-2.08,2,2,0,0,0-2.34,2v.39a1.65,1.65,0,0,1-1.63,1.65A119.68,119.68,0,0,0,13.31,9.41C6.7,10.43,4,11.82,4,14.22S6.7,18,13.31,19A129.42,129.42,0,0,0,32,20.22,129.42,129.42,0,0,0,50.69,19C57.3,18,60,16.61,60,14.22S57.3,10.43,50.69,9.41Z"/><path d="M13,37.22v-14a1,1,0,0,0-2,0v14a1,1,0,0,0,2,0Z"/><path d="M53,37.22v-14a1,1,0,0,0-2,0v14a1,1,0,0,0,2,0Z"/><path d="M29.83,41.57l-1.26,2.56a2.42,2.42,0,0,1-1.83,1.33l-2.82.41A2.43,2.43,0,0,0,22.57,50l2,2a2.43,2.43,0,0,1,.7,2.15l-.48,2.81a2.43,2.43,0,0,0,3.52,2.56l2.52-1.33a2.42,2.42,0,0,1,2.26,0l2.52,1.33a2.43,2.43,0,0,0,3.52-2.56l-.48-2.81a2.43,2.43,0,0,1,.7-2.15l2-2a2.43,2.43,0,0,0-1.34-4.14l-2.82-.41a2.43,2.43,0,0,1-1.83-1.33l-1.26-2.56A2.43,2.43,0,0,0,29.83,41.57Z"/><path d="M33,38.34V25.18a1,1,0,0,0-2,0V38.34a4.14,4.14,0,0,1,2,0Z"/><path d="M6,45.52A6,6,0,0,0,17.28,49a.76.76,0,0,0-.83-1.11,3.56,3.56,0,0,1-3.08-6.26.76.76,0,0,0-.31-1.36,6,6,0,0,0-7,5.2Z"/><path d="M46,46.22a6,6,0,1,0,6-6A6,6,0,0,0,46,46.22Zm8.48-1.94a1,1,0,1,1-1,1A1,1,0,0,1,54.48,44.28Zm-5,0a1,1,0,1,1-1,1A1,1,0,0,1,49.52,44.28Z"/></svg>