<svg id="Layer_1" data-name="Layer 1" xmlns="http://www.w3.org/2000/svg" viewBox="0 0 64 64"><title>delete user</title><path d="M46,60A14,14,0,1,0,32,46,14,14,0,0,0,46,60ZM40,45.47A1.46,1.46,0,0,1,41.47,44h9.08A1.46,1.46,0,0,1,52,45.47v1.07A1.46,1.46,0,0,1,50.55,48H41.47A1.46,1.46,0,0,1,40,46.53Z"/><path d="M11.18,44H24.26a4.7,4.7,0,0,0,4.53-3.25,18.06,18.06,0,0,1,6.84-9.45,1,1,0,0,0-.26-1.75,37.6,37.6,0,0,0-5.71-1.17A1.91,1.91,0,0,1,28,26.48h0a1.9,1.9,0,0,1,1-1.69,11,11,0,1,0-10.06,0,1.92,1.92,0,0,1-.63,3.6A33.75,33.75,0,0,0,7.68,31.45,6.56,6.56,0,0,0,4,37.3,7,7,0,0,0,11.18,44Z"/></svg>