<svg id="Layer_1" data-name="Layer 1" xmlns="http://www.w3.org/2000/svg" viewBox="0 0 64 64"><title>dollar scale</title><path d="M25.73,7.68,25.79,7A1.65,1.65,0,0,0,24.3,5.22L12.2,4A2,2,0,0,0,10,6.14,2.06,2.06,0,0,0,11.9,8l12,1.2A1.65,1.65,0,0,0,25.73,7.68Z"/><path d="M39.69,10.78l2.65.26A1.66,1.66,0,0,0,44.07,10l.23-.65a1.66,1.66,0,0,0-1.4-2.22l-3-.3a1.43,1.43,0,0,0-1.57,1.53l.08,1.15A1.43,1.43,0,0,0,39.69,10.78Z"/><path d="M46,60a2,2,0,0,0,2-2.34A2.07,2.07,0,0,0,45.89,56h-3a5.54,5.54,0,0,1-5.52-5.14l-3-42.56-.15-2.09,0-.21a2.14,2.14,0,0,0-4.25-.22,2.1,2.1,0,0,0,0,.22l-.27,3.77L26.65,50.86A5.54,5.54,0,0,1,21.13,56h-3A2.07,2.07,0,0,0,16,57.66,2,2,0,0,0,18,60H46Z"/><path d="M8.36,38h9.28A4.37,4.37,0,0,0,22,33.64V33a1,1,0,0,0-1-1H5a1,1,0,0,0-1,1v.64A4.37,4.37,0,0,0,8.36,38Z"/><path d="M60,45.64V45a1,1,0,0,0-1-1H43a1,1,0,0,0-1,1v.64A4.37,4.37,0,0,0,46.36,50h9.28A4.37,4.37,0,0,0,60,45.64Z"/><path d="M16,24H10a2,2,0,0,0,0,4h6a2,2,0,0,0,0-4Z"/><path d="M16,16H10a2,2,0,0,0,0,4h6a2,2,0,0,0,0-4Z"/><path d="M60,34.63V25a9,9,0,0,0-18,0V35.64A4.37,4.37,0,0,0,46.36,40h9.28A4.37,4.37,0,0,0,60,35.64Zm-3.4-3.29a4.66,4.66,0,0,1-3.8,4.57,2,2,0,0,1-3.55.09h-1a2,2,0,0,1-2-2.29A2.11,2.11,0,0,1,48.44,32h3.5a.66.66,0,0,0,.66-.66v-.68a.67.67,0,0,0-.66-.66H50.06a2,2,0,0,1-.4,0,4.65,4.65,0,0,1-4.25-4.62v-.68a4.66,4.66,0,0,1,3.8-4.57A2,2,0,0,1,52.75,20h1a2,2,0,0,1,2,2.29A2.11,2.11,0,0,1,53.56,24h-3.5a.66.66,0,0,0-.66.66v.68a.67.67,0,0,0,.66.66h1.88a2,2,0,0,1,.4,0,4.65,4.65,0,0,1,4.25,4.62Z"/><path d="M48,12.07a4,4,0,0,0,5.94,0,1.6,1.6,0,0,0-.26-2.37l-.12-.07a1.56,1.56,0,0,0-.26-.13l-.13,0a1.62,1.62,0,0,0-.44-.07H49.23a1.63,1.63,0,0,0-.46.07l-.14.06a1.57,1.57,0,0,0-.25.12l-.14.1-.17.16-.13.15-.1.16a1.65,1.65,0,0,0-.1.21s0,.09,0,.13a1.56,1.56,0,0,0,0,1h0A1.59,1.59,0,0,0,48,12.07Z"/></svg>