<svg id="Layer_1" data-name="Layer 1" xmlns="http://www.w3.org/2000/svg" viewBox="0 0 64 64"><title>eagle</title><path d="M33,40.48l4.22-4.22a23.52,23.52,0,0,0,6.5-16.88,6.38,6.38,0,0,1,.77-3l2.85-5.24A4.39,4.39,0,0,1,49,9.41a2.86,2.86,0,0,1,2.24-.19.41.41,0,0,0,.52-.39V8.24a3,3,0,0,0-2.43-3L45,4.42a9.22,9.22,0,0,0-6.22.95l-5.43,3A33.23,33.23,0,0,0,16.67,31L12.42,52.24a6.7,6.7,0,0,0,1.83,6.05,5,5,0,0,0,3.53,1.46h7.65a3.69,3.69,0,0,0,3.3-2,3,3,0,0,0-.57-3.51l-1.88-1.88A1.94,1.94,0,0,1,25.71,51v-2.2a1,1,0,1,1,2,0V49a1.83,1.83,0,0,0,.53,1.29l4.35,4.35a3.82,3.82,0,0,0,2.7,1.12h1.93a2.43,2.43,0,0,1,1.29.37l.64.4a.37.37,0,0,0,.56-.31v-.64a1.82,1.82,0,0,0-1.82-1.82h-.42a3.52,3.52,0,0,1-2.37-.92l-1.93-1.75a4.48,4.48,0,0,1-1.47-3.32v-4.2A4.38,4.38,0,0,1,33,40.48Z"/></svg>