<svg id="Layer_1" data-name="Layer 1" xmlns="http://www.w3.org/2000/svg" viewBox="0 0 64 64"><title>elepant</title><circle cx="57.68" cy="13.32" r="2.32"/><path d="M20,56.67v-1.5a.78.78,0,0,0-1.05-.73,7.93,7.93,0,0,1-2.33.54.66.66,0,0,0-.62.66v1.7A1.67,1.67,0,0,0,17.67,59,2.33,2.33,0,0,0,20,56.67Z"/><path d="M41.67,59A2.33,2.33,0,0,0,44,56.67V53a2,2,0,0,0-2.2-2A2,2,0,0,0,40,53.06v4.27A1.67,1.67,0,0,0,41.67,59Z"/><path d="M49.23,13.68A2.18,2.18,0,0,0,46,15.58V16a9,9,0,0,1-8.85,9A2.06,2.06,0,0,1,35,23a2,2,0,0,1,2-2,5,5,0,0,0,5-5V12.19A7.19,7.19,0,0,0,34.81,5,4.81,4.81,0,0,0,30,9.81v3.13A2,2,0,0,1,28,15a2,2,0,0,1-2-2V9.81A8.75,8.75,0,0,1,26.45,7,1.55,1.55,0,0,0,25,5a5,5,0,0,0-5,5,1.77,1.77,0,0,1-1.17,1.65A10.49,10.49,0,0,0,12,21.46V34.31h0V45h0a2,2,0,0,1-1.34,1.89A2,2,0,0,1,8,45v-.13A1.87,1.87,0,0,0,6.13,43H5.87A1.86,1.86,0,0,0,4,44.83,8,8,0,1,0,20,45V39.84a1.9,1.9,0,0,0-1-1.65,6.25,6.25,0,0,1-3.17-5.34,2,2,0,0,1,2-2.09,2,2,0,0,1,2,1.52A3.61,3.61,0,0,0,23.32,35a5.15,5.15,0,0,0,5.15-5.15v-.78a2,2,0,0,1,2-2.07,2,2,0,0,1,2,2v.85A9.11,9.11,0,0,1,30,36.09,21.88,21.88,0,0,0,24,51v6.34A1.67,1.67,0,0,0,25.67,59h5.78A4.56,4.56,0,0,0,36,54.44V53.14A6,6,0,1,1,48.05,53v4.31A1.67,1.67,0,0,0,49.72,59h5.72A4.56,4.56,0,0,0,60,54.44V32A21,21,0,0,0,49.23,13.68Zm-26,12.57A1.79,1.79,0,0,1,20,24.81,2.21,2.21,0,0,1,21.8,23a1.79,1.79,0,0,1,1.44,3.2Zm26.86,8.68-2,3a2.5,2.5,0,0,1-4.12,0l-2-3A2.5,2.5,0,0,1,46,32.08a2.5,2.5,0,0,1,4.11,2.85Z"/></svg>