<svg id="Layer_1" data-name="Layer 1" xmlns="http://www.w3.org/2000/svg" viewBox="0 0 64 64"><title>favourite message</title><path d="M51.59,4.72H12.41A8.41,8.41,0,0,0,4,13.13V44.31a8.4,8.4,0,0,0,6.24,8.12A2.37,2.37,0,0,1,12,54.71v3A1.53,1.53,0,0,0,14.41,59l6.65-4.75a8.19,8.19,0,0,1,4.76-1.52H51.59A8.41,8.41,0,0,0,60,44.31V13.13A8.41,8.41,0,0,0,51.59,4.72Zm-7.81,27L33.34,42.2a2,2,0,0,1-2.77,0L20.28,31.91A7.93,7.93,0,0,1,20,21a7.66,7.66,0,0,1,9.72-1.14.58.58,0,0,1,.1.9l-1.41,1.41A1.15,1.15,0,1,0,30,23.83L32,21.9l.82-.82a7.82,7.82,0,0,1,10.76-.41A7.67,7.67,0,0,1,43.78,31.75Z"/></svg>