<svg id="Layer_1" data-name="Layer 1" xmlns="http://www.w3.org/2000/svg" viewBox="0 0 64 64"><title>grandfather clock</title><path d="M11.76,60H52.24A1.76,1.76,0,0,0,54,58.24v-.49A1.76,1.76,0,0,0,52.24,56H50.61a.61.61,0,0,1-.61-.61V53.76A1.76,1.76,0,0,0,48.24,52h-.49A1.76,1.76,0,0,1,46,50.24V21.63a1.83,1.83,0,0,1,1.33-1.68A1,1,0,0,0,48,19V17a1,1,0,0,0-1-1h-.32a1,1,0,0,1-1-.83A14,14,0,0,0,19,13a.76.76,0,0,0,.7,1h1.59a.76.76,0,0,1,.76.76v.49a.76.76,0,0,1-.76.76H17a1,1,0,0,0-1,1v1.37a1.83,1.83,0,0,0,1.33,1.68A1,1,0,0,1,18,21V49.24a.76.76,0,0,0,.76.76h2.49a.76.76,0,0,1,.76.76v.49a.76.76,0,0,1-.76.76H15.76A1.76,1.76,0,0,0,14,53.76v1.63a.61.61,0,0,1-.61.61H11.76A1.76,1.76,0,0,0,10,57.76v.49A1.76,1.76,0,0,0,11.76,60ZM31.57,50a2,2,0,0,1-1.08-3.25A2.37,2.37,0,0,0,31,45.13V28.68a.68.68,0,0,1,.68-.68h.63a.68.68,0,0,1,.68.68V45.25a2.26,2.26,0,0,0,.53,1.47A2,2,0,0,1,34,48,2,2,0,0,1,31.57,50ZM32,10a8,8,0,1,1-8,8A8,8,0,0,1,32,10Z"/><path d="M32,19h4a1,1,0,0,0,0-2H33.48a.48.48,0,0,1-.48-.48V13a1,1,0,0,0-2,0v5A1,1,0,0,0,32,19Z"/></svg>