<svg id="Layer_1" data-name="Layer 1" xmlns="http://www.w3.org/2000/svg" viewBox="0 0 64 64"><title>hairdryer</title><path d="M5.35,26l8.42,23a1.45,1.45,0,0,0,1.36,1H21a1.45,1.45,0,0,0,1.37-1l3.6-10.8a1,1,0,0,0-1.17-1.29l-2.63.6a2,2,0,1,1-.88-3.9l8.79-2h0l14.6-3.31A1.71,1.71,0,0,0,46,26.63V13.37a1.71,1.71,0,0,0-1.33-1.67L21.18,6.38l-.51-.12-.17,0h0A14,14,0,0,0,5.37,26ZM18,17a3,3,0,1,1-3,3A3,3,0,0,1,18,17Z"/><path d="M58.28,8H55.42A5.42,5.42,0,0,0,50,13.42V26.58A5.42,5.42,0,0,0,55.42,32h2.86A1.72,1.72,0,0,0,60,30.28V9.72A1.72,1.72,0,0,0,58.28,8Z"/><rect x="10" y="54" width="16" height="4" rx="1.54" ry="1.54"/></svg>