<svg id="Layer_1" data-name="Layer 1" xmlns="http://www.w3.org/2000/svg" viewBox="0 0 64 64"><title>hanshake</title><path d="M25.19,36.42a1.68,1.68,0,0,0,2.07.24L33.12,33a4.28,4.28,0,0,1,5.28.61,5.46,5.46,0,0,0,3.86,1.6,4.19,4.19,0,0,1,3,1.23L48,39.28A2.77,2.77,0,0,0,52,35.39l-6.35-6.46a12.33,12.33,0,0,0-8.79-3.69,6.83,6.83,0,0,0-4.83,2l-6.81,6.81A1.68,1.68,0,0,0,25.19,36.42Z"/><path d="M25.13,55.24a1.19,1.19,0,0,0,.84-2l-7.56-7.56a1.41,1.41,0,0,0-2,2l6.79,6.79A2.73,2.73,0,0,0,25.13,55.24Z"/><path d="M10.83,32.41l8.08-8.08a1.54,1.54,0,0,0,0-2.18L5.65,8.93A1,1,0,0,0,4,9.62v20a4,4,0,0,0,6.83,2.83Z"/><path d="M58.35,8.93,45.24,22a1.76,1.76,0,0,0,0,2.49l7.93,7.93A4,4,0,0,0,60,29.58v-20A1,1,0,0,0,58.35,8.93Z"/><path d="M15.44,32h0l-2.81,2.81a3.45,3.45,0,0,0-.06,4.82l2.62,2.76a1.19,1.19,0,0,0,1.71,0,1.64,1.64,0,0,1,2.32,0L29.36,52.6a9.39,9.39,0,0,0,13.27,0l3-3a6.18,6.18,0,0,0,0-8.73h0a6,6,0,0,0-4.12-1.64,4,4,0,0,1-2.68-1.16l-2-2a2.69,2.69,0,0,0-3.38-.35l-3.65,2.4a7.1,7.1,0,0,1-3.85,1.17h-.76a3.05,3.05,0,0,1-3.07-3.05v-.54a6,6,0,0,1,1.76-4.24l3.79-3.79a1.33,1.33,0,0,0-.94-2.27,11,11,0,0,0-7.76,3.22Z"/></svg>