<svg id="Layer_1" data-name="Layer 1" xmlns="http://www.w3.org/2000/svg" viewBox="0 0 64 64"><title>hiking</title><circle cx="37.99" cy="11" r="7"/><path d="M11.53,60a2.52,2.52,0,0,0,1.78-.74l8.46-8.46A1.85,1.85,0,0,0,21.53,48l-4.82-3.39a.61.61,0,0,0-.88.2L9.34,56.21A2.52,2.52,0,0,0,11.53,60Z"/><path d="M23.38,20l-3,.56A8,8,0,0,0,14.6,31.72l.44.94a1.4,1.4,0,0,0,2.49.09L24,20.92A.62.62,0,0,0,23.38,20Z"/><path d="M48.83,60l.28,0a2,2,0,0,0,2-1.73l3.89-28A2,2,0,0,0,53.06,28,2.08,2.08,0,0,0,51,29.84v0l-3.35-.22a6.44,6.44,0,0,1-4.33-2.34l-3-3.66A9.91,9.91,0,0,0,32.65,20h-.29a5.51,5.51,0,0,0-4.9,3L19.82,37.9A2.49,2.49,0,0,0,20.53,41L34.19,51.39a4.35,4.35,0,0,1,1.26,1.52l2.86,5.73A2.47,2.47,0,0,0,40.52,60h0A2.47,2.47,0,0,0,43,57.53V52.27A10.31,10.31,0,0,0,40,45l-3-3a5,5,0,0,1-1.32-4.76l.69-2.76a2.33,2.33,0,0,1,3-1.69A23.19,23.19,0,0,0,46.76,34h2.47a1,1,0,0,1,1,1.18L47.13,57.73A2,2,0,0,0,48.83,60Z"/></svg>