<svg id="Layer_1" data-name="Layer 1" xmlns="http://www.w3.org/2000/svg" viewBox="0 0 64 64"><title>image</title><path d="M51.34,4H12.66A8.66,8.66,0,0,0,4,12.66V51.34A8.66,8.66,0,0,0,12.66,60H51.34A8.66,8.66,0,0,0,60,51.34V12.66A8.66,8.66,0,0,0,51.34,4ZM22,16a6,6,0,1,1-6,6A6,6,0,0,1,22,16ZM48,44a4,4,0,0,1-4,4H20a4,4,0,0,1-4-4h0l0-3a2.71,2.71,0,0,1,.79-1.89L22,33.92a2.71,2.71,0,0,1,3.84,0l.2.2a2.71,2.71,0,0,0,3.84,0l6.19-6.19a2.71,2.71,0,0,1,3.85,0l7.25,7.32A2.71,2.71,0,0,1,48,37.17V42h0Z"/></svg>