<svg id="Layer_1" data-name="Layer 1" xmlns="http://www.w3.org/2000/svg" viewBox="0 0 64 64"><title>laptop bug</title><path d="M51.18,10H12.82A4.82,4.82,0,0,0,8,14.82v28.1a2.8,2.8,0,0,1-.3,1.27L5.28,49a3.46,3.46,0,0,0,.33,3.65A3.65,3.65,0,0,0,8.56,54H26.13a1.22,1.22,0,0,0,1-.61A2.88,2.88,0,0,1,29.64,52h4.93a2.7,2.7,0,0,1,2.27,1.42,1.2,1.2,0,0,0,1,.58H55.44a3.66,3.66,0,0,0,2.94-1.38A3.46,3.46,0,0,0,58.72,49L56.3,44.18a2.8,2.8,0,0,1-.3-1.27V14.82A4.82,4.82,0,0,0,51.18,10ZM52,40.47A1.53,1.53,0,0,1,50.47,42H13.53A1.53,1.53,0,0,1,12,40.47V14.82a.82.82,0,0,1,.82-.82H51.18a.82.82,0,0,1,.82.82Z"/><path d="M42.53,28.3H41.38A1.42,1.42,0,0,1,40,26.89V24.94a1.42,1.42,0,0,1,.59-1.16l1.1-.79a.89.89,0,0,0,.2-1.23l-.14-.19a.89.89,0,0,0-1.23-.2l-.94.68a1.29,1.29,0,0,1-1.19.14,2.39,2.39,0,0,0-.8-.14H36.41a4.47,4.47,0,0,0-8.89,0H26.4a2.41,2.41,0,0,0-.77.13A1.29,1.29,0,0,1,24.45,22l-.92-.66a.89.89,0,0,0-1.23.2l-.14.19a.89.89,0,0,0,.2,1.23l1,.75A1.42,1.42,0,0,1,24,24.9l0,2a1.42,1.42,0,0,1-1.42,1.41H21.47a.88.88,0,0,0,0,1.75H23a1,1,0,0,1,1,1v1a7.82,7.82,0,0,0,.16,1.55,1,1,0,0,1-.78,1.15l-.64.1a.89.89,0,0,0-.73,1l0,.23a.89.89,0,0,0,1,.73l.9-.15a2.42,2.42,0,0,1,2.17.79,8,8,0,0,0,11.74,0A2.42,2.42,0,0,1,40,36.62l1,.16a.89.89,0,0,0,1-.73l0-.23a.89.89,0,0,0-.73-1l-.69-.11a1,1,0,0,1-.78-1.15A7.81,7.81,0,0,0,40,32V31a1,1,0,0,1,1-1h1.59a.88.88,0,0,0,0-1.75Z"/><circle cx="28.87" cy="16.15" r="1.1"/><circle cx="35.07" cy="16.15" r="1.1"/></svg>