<svg id="Layer_1" data-name="Layer 1" xmlns="http://www.w3.org/2000/svg" viewBox="0 0 64 64"><title>lion</title><path d="M8.79,26.67h3.48a6.75,6.75,0,0,0-.72,1.14l-.33.68a9.13,9.13,0,0,0-.35,7.17l1.34,3.62a1.63,1.63,0,0,1-.45,1.79l-.94.83a3.44,3.44,0,0,0-.48,4.65l3,4A3.54,3.54,0,0,0,16.19,52h1.4a.83.83,0,0,0,.83-.83v-.05A1.12,1.12,0,0,0,17.3,50a1,1,0,0,1-.84-.55L15,46.68a1.21,1.21,0,0,1,.43-1.61l3.14-1.92a2.41,2.41,0,0,0,.9-3.13l-.67-1.33a1.07,1.07,0,1,1,2-.89,4.9,4.9,0,0,0,3.73,2.73l5.23,1A34.32,34.32,0,0,0,35,42a3.76,3.76,0,0,1,2.49,1.1L42.42,48l1.94,1.94a7,7,0,0,0,5,2.06h.53a.56.56,0,0,0,.56-.56,1.23,1.23,0,0,0-1-1.2l-.44-.1a1.77,1.77,0,0,1-1-.62l-1.76-2.2a3.27,3.27,0,0,1-.59-2.93l1-3.52A1.22,1.22,0,0,1,47.87,40a4.59,4.59,0,0,0,3.9-2.23l3.42-5.7A4.57,4.57,0,0,1,59,30a1.89,1.89,0,0,0,1.75-1.5l.82-3.93a.82.82,0,0,0-.37-.86l-2-1.23a2.63,2.63,0,0,1-1.08-1.31l-.22-.58a2.85,2.85,0,0,0-.66-1l-.38-.38a11.46,11.46,0,0,1-2-2.67l-.76-1.41A5.93,5.93,0,0,0,48.89,12a10.78,10.78,0,0,0-7.62,3.16l-.84.84L37.2,19.67A30,30,0,0,0,34,24.43,3.18,3.18,0,0,1,31.25,26H26.11a7.12,7.12,0,0,1-3.19-.75A11.82,11.82,0,0,0,17.69,24H8.79a1.69,1.69,0,0,1-1.69-1.69V20.36a1.71,1.71,0,0,1,1.75-1.69,1,1,0,0,1,.91,1v.53a1.93,1.93,0,0,0,1.88,1.93.76.76,0,0,0,.79-.76V19.6a3.67,3.67,0,0,0-5.37-3.21,4.64,4.64,0,0,0-2.63,4.26v1.66A4.36,4.36,0,0,0,8.79,26.67Z"/><path d="M33.23,47.2a2.75,2.75,0,0,1-1.94.8.86.86,0,0,0-.86.86h0A1.12,1.12,0,0,0,31.55,50H32a1.81,1.81,0,0,0,.85-.21l4.09-2.16a1.46,1.46,0,0,0,.49-2.17l-.09-.12a3.63,3.63,0,0,0-2.55-1.44l-1.59-.16a.3.3,0,0,0-.26.5l.86,1a1.08,1.08,0,0,1-.06,1.47Z"/><path d="M5.92,52a.51.51,0,0,0,.51-.51v-.79A1.82,1.82,0,0,0,6,49.48l0,0a.81.81,0,0,1-.16-.82L7,45.16A1.78,1.78,0,0,0,7,44a1.66,1.66,0,0,1,.59-1.89,4.79,4.79,0,0,0,1.73-5.4L8.85,35.3a.4.4,0,0,0-.73-.06L5.06,41.18a11.81,11.81,0,0,0-1,2.6L2.56,50a4.56,4.56,0,0,0-.13,1.12.86.86,0,0,0,.87.84Z"/></svg>