<svg id="Layer_1" data-name="Layer 1" xmlns="http://www.w3.org/2000/svg" viewBox="0 0 64 64"><title>london eye</title><path d="M5,61H59a1,1,0,0,0,0-2H42.57a6,6,0,0,1-5.82-4.68L35.8,50a1.47,1.47,0,0,0-1.55-1.15l-1.29.1a12.47,12.47,0,0,1-1.93,0l-1.29-.1A1.47,1.47,0,0,0,28.2,50l-1,4.35A6,6,0,0,1,21.43,59H5a1,1,0,0,0,0,2Z"/><path d="M54,25a4,4,0,0,0-2.33-3.63,19.8,19.8,0,0,0-3.21-7.69,4,4,0,0,0-5.14-5.14,19.8,19.8,0,0,0-7.69-3.21,4,4,0,0,0-7.25,0,19.89,19.89,0,0,0-7.71,3.21,4,4,0,0,0-5.13,5.13,19.89,19.89,0,0,0-3.21,7.71,4,4,0,0,0,0,7.25,19.8,19.8,0,0,0,3.21,7.69,4,4,0,0,0,5.14,5.14,19.8,19.8,0,0,0,7.69,3.21,4,4,0,0,0,7.25,0,19.89,19.89,0,0,0,7.71-3.21,4,4,0,0,0,5.13-5.13,19.89,19.89,0,0,0,3.21-7.71A4,4,0,0,0,54,25Zm-7.27-6.19h0A3.74,3.74,0,0,1,43.28,24h-7.1a.73.73,0,0,1-.52-1.25l5.12-5.12A3.65,3.65,0,0,1,46.73,18.81ZM36.18,26h7.19a3.68,3.68,0,0,1,3.4,5.1l0,.1a3.65,3.65,0,0,1-6,1.17l-5.12-5.12A.73.73,0,0,1,36.18,26Zm13.67-1h-2A2.15,2.15,0,0,1,50,22.85v2A.15.15,0,0,0,49.85,25ZM44.73,10.13v2a.15.15,0,0,0-.15.15h-2A2.15,2.15,0,0,1,44.73,10.13Zm-6.54.14h0a3.66,3.66,0,0,1,1.18,6l-5.11,5.11A.73.73,0,0,1,33,20.81v-7.1A3.74,3.74,0,0,1,38.18,10.26ZM32,40.85v2a.15.15,0,0,0-.15.15h-2A2.15,2.15,0,0,1,32,40.85Zm0-36v2a.15.15,0,0,0-.15.15h-2A2.15,2.15,0,0,1,32,4.85Zm-6.19,5.41.1,0a3.68,3.68,0,0,1,5.1,3.4v7.19a.73.73,0,0,1-1.25.52l-5.12-5.12A3.65,3.65,0,0,1,25.81,10.27Zm2.53,12.48A.73.73,0,0,1,27.82,24H20.59a3.66,3.66,0,0,1-3.38-5.07,3.74,3.74,0,0,1,6.09-1.2ZM19.27,35.58v2a.15.15,0,0,0-.15.15h-2A2.15,2.15,0,0,1,19.27,35.58Zm-2-4.39h0A3.74,3.74,0,0,1,20.72,26h7.1a.73.73,0,0,1,.52,1.25l-5.12,5.12A3.65,3.65,0,0,1,17.27,31.19Zm1.21-20.91a2.13,2.13,0,0,1,.79-.16v2a.15.15,0,0,0-.15.15h-2a2.13,2.13,0,0,1,.16-.79A2.15,2.15,0,0,1,18.48,10.28ZM12,25h-.15A2.15,2.15,0,0,1,14,22.85v2a.15.15,0,0,0-.15.15ZM25.82,39.74h0a3.65,3.65,0,0,1-1.18-6l5.12-5.12a.73.73,0,0,1,1.25.52v7.1A3.74,3.74,0,0,1,25.82,39.74Zm12.38,0-.1,0a3.68,3.68,0,0,1-5.1-3.4V29.19a.73.73,0,0,1,1.25-.52l5.12,5.12A3.65,3.65,0,0,1,38.19,39.73Zm4.39-2a2.15,2.15,0,0,1,2.15-2.15v2a.15.15,0,0,0-.15.15Z"/></svg>