<svg id="Layer_1" data-name="Layer 1" xmlns="http://www.w3.org/2000/svg" viewBox="0 0 64 64"><title>macro</title><path d="M6,16a2,2,0,0,0,2-2V12.78A4.79,4.79,0,0,1,12.78,8H14a2,2,0,0,0,0-4H12.78A8.79,8.79,0,0,0,4,12.78V14A2,2,0,0,0,6,16Z"/><path d="M12.78,60H14a2,2,0,0,0,0-4H12.78A4.79,4.79,0,0,1,8,51.22V50a2,2,0,0,0-4,0v1.22A8.79,8.79,0,0,0,12.78,60Z"/><path d="M51.22,4H50a2,2,0,0,0,0,4h1.22A4.79,4.79,0,0,1,56,12.78V14a2,2,0,0,0,4,0V12.78A8.79,8.79,0,0,0,51.22,4Z"/><path d="M58,48a2,2,0,0,0-2,2v1.22A4.79,4.79,0,0,1,51.22,56H50a2,2,0,0,0,0,4h1.22A8.79,8.79,0,0,0,60,51.22V50A2,2,0,0,0,58,48Z"/><path d="M44,14.64a.71.71,0,0,0-1.21-.5l-3.92,3.92-1.65,1.64a1,1,0,1,1-1.41-1.41l.78-.78L33.11,14a1.56,1.56,0,0,0-2.21,0l-5.68,5.67a1,1,0,1,1-1.41-1.41l.78-.78-3.37-3.37a.71.71,0,0,0-1.21.5V25.58A12.28,12.28,0,0,0,30.85,37.95,12,12,0,0,0,44,26Z"/><path d="M32,40a2,2,0,0,0-2,2v7a7,7,0,0,0,14,0V46a2,2,0,0,0-2-2h-.07a5.87,5.87,0,0,0-5.86,5.86v2A3,3,0,0,1,34,49V42A2,2,0,0,0,32,40Z"/><path d="M20.66,44.67A2,2,0,0,0,20,46.14v4A5.87,5.87,0,0,0,25.86,56H26a2,2,0,0,0,2-2V49.86A5.87,5.87,0,0,0,22.14,44,2,2,0,0,0,20.66,44.67Z"/></svg>