<svg id="Layer_1" data-name="Layer 1" xmlns="http://www.w3.org/2000/svg" viewBox="0 0 64 64"><title>mixer</title><path d="M8,26.54A1.46,1.46,0,0,0,9.46,28H11a1,1,0,0,1,0,2H9.46A1.46,1.46,0,0,0,8,31.46v1.08A1.46,1.46,0,0,0,9.46,34H11a1,1,0,0,1,0,2H9.46A1.46,1.46,0,0,0,8,37.46v1.08A1.46,1.46,0,0,0,9.46,40H11a1,1,0,0,1,0,2H9.46A1.46,1.46,0,0,0,8,43.46V54.11A1.88,1.88,0,0,1,6.12,56,2.08,2.08,0,0,0,4,57.66,2,2,0,0,0,6,60H58a2,2,0,0,0,2-2.34A2.07,2.07,0,0,0,57.89,56H40.12A18.35,18.35,0,0,1,22.26,42.57,18,18,0,0,1,39.67,20h17.5A2.85,2.85,0,0,0,60,17.11,13.17,13.17,0,0,0,46.83,4H9.89A5.89,5.89,0,0,0,4,9.89v5.46A4.59,4.59,0,0,0,5.15,18.4,12.24,12.24,0,0,1,8,26.54ZM17,10a3,3,0,1,1-3,3A3,3,0,0,1,17,10Z"/><path d="M42,32a1.22,1.22,0,0,0,1.2-1l1.46-7.29A1.44,1.44,0,0,0,43.24,22H40.76a1.44,1.44,0,0,0-1.41,1.73L40.8,31A1.22,1.22,0,0,0,42,32Z"/><path d="M26,36.87V37a1,1,0,0,0,1,1h0a1,1,0,0,1,1,1A14,14,0,0,0,56,39a1,1,0,0,1,1-1h0a1,1,0,0,0,1-1v-.14A2.87,2.87,0,0,0,55.13,34H28.87A2.87,2.87,0,0,0,26,36.87Z"/></svg>