<svg id="Layer_1" data-name="Layer 1" xmlns="http://www.w3.org/2000/svg" viewBox="0 0 64 64"><title>mount fiji</title><path d="M59,54a12.66,12.66,0,0,1-5.8-1.24,32.28,32.28,0,0,1-10.43-7.9q-.41-.47-.79-.95t-.89-1.15l-.38-.55c-.37-.52-.72-1.06-1-1.61a27.08,27.08,0,0,1-1.74-3.44,24.54,24.54,0,0,1-1.21-3.67A2,2,0,0,0,34.76,32H29.84c-1.44,0-2.23.62-2.44,1.5a25.74,25.74,0,0,1-3,7.15h0c-.32.54-.67,1.05-1,1.57l-.4.57q-.42.56-.86,1.11c-.27.33-.55.66-.83,1a32.29,32.29,0,0,1-10.15,7.75A14,14,0,0,1,5.06,54H5a1,1,0,0,0,0,2H59a1,1,0,1,0,0-2ZM28.41,37q.42-1.12.73-2.26a1,1,0,0,1,.94-.73H34a1,1,0,0,1,.81.43,1,1,0,0,1,.13.29q.31,1.12.72,2.22a1,1,0,0,1-.22,1l-.72.72a1,1,0,0,1-1.39,0l-.61-.61a1,1,0,0,0-1.39,0l-.61.61a1,1,0,0,1-1.39,0L28.63,38A1,1,0,0,1,28.41,37Z"/><path d="M19.73,40.48c.45-.61.87-1.24,1.26-1.88a21.75,21.75,0,0,0,2.52-6c.67-2.77,3.16-4.55,6.33-4.55h4.92a5.91,5.91,0,0,1,5.78,4.48,21.71,21.71,0,0,0,2.51,6.08q.58,1,1.25,1.87a2.06,2.06,0,0,0,3.27.1A19.89,19.89,0,0,0,52,27.25,20,20,0,0,0,12,28a19.88,19.88,0,0,0,4.45,12.56A2.06,2.06,0,0,0,19.73,40.48Z"/></svg>