<svg id="Layer_1" data-name="Layer 1" xmlns="http://www.w3.org/2000/svg" viewBox="0 0 64 64"><title>nuclear container</title><path d="M10,8.91v2.17a.91.91,0,0,0,.91.91h2.17a.91.91,0,0,1,.91.91V23.18a.82.82,0,0,0,.82.82h7.39a14,14,0,0,1,19.56,0h7.41a.82.82,0,0,0,.82-.82V12.91a.91.91,0,0,1,.91-.91h2.17a.91.91,0,0,0,.91-.91V8.91A.91.91,0,0,0,53.09,8H10.91A.91.91,0,0,0,10,8.91Z"/><path d="M50,41.18V30.91a.91.91,0,0,1,.91-.91h2.17a.91.91,0,0,0,.91-.91V26.91a.91.91,0,0,0-.91-.91H43.46a13.93,13.93,0,0,1,0,16h5.72A.82.82,0,0,0,50,41.18Z"/><path d="M10,29.09a.91.91,0,0,0,.91.91h2.17a.91.91,0,0,1,.91.91V41.18a.82.82,0,0,0,.82.82h5.69a13.93,13.93,0,0,1,0-16h-9.6a.91.91,0,0,0-.91.91Z"/><path d="M10,47.09a.91.91,0,0,0,.91.91h2.17a.91.91,0,0,1,.91.91V59.18a.82.82,0,0,0,.82.82H49.18a.82.82,0,0,0,.82-.82V48.91a.91.91,0,0,1,.91-.91h2.17a.91.91,0,0,0,.91-.91V44.91a.91.91,0,0,0-.91-.91H41.77a14,14,0,0,1-19.56,0H10.91a.91.91,0,0,0-.91.91Z"/><path d="M25.52,6A.48.48,0,0,0,26,5.52v-.4A1.12,1.12,0,0,0,24.88,4H17.12A1.12,1.12,0,0,0,16,5.12v.4a.48.48,0,0,0,.48.48Z"/><path d="M38.61,24a12.11,12.11,0,1,0,2.3,2A11.94,11.94,0,0,0,38.61,24ZM30.18,37.78l-1.63,2.86a1.37,1.37,0,0,1-2,.39,8.89,8.89,0,0,1-3.32-5.63,1.36,1.36,0,0,1,1.36-1.57l3.31,0a1.35,1.35,0,0,1,1.3,1,2.93,2.93,0,0,0,.77,1.29A1.38,1.38,0,0,1,30.18,37.78Zm1.75-2.56A1.11,1.11,0,1,1,33,34.11,1.11,1.11,0,0,1,31.93,35.21Zm.79-3.95a2.93,2.93,0,0,0-1.5,0,1.35,1.35,0,0,1-1.49-.64l-1.67-2.85A1.36,1.36,0,0,1,28.39,26a1.33,1.33,0,0,1,.35-.21,8.89,8.89,0,0,1,6.54.06,1.4,1.4,0,0,1,.27.15,1.37,1.37,0,0,1,.4,1.81l-1.66,2.84A1.38,1.38,0,0,1,32.72,31.27Zm8.08,4.13A8.89,8.89,0,0,1,37.48,41a1.37,1.37,0,0,1-2-.39l-1.63-2.86a1.38,1.38,0,0,1,.25-1.67,2.93,2.93,0,0,0,.77-1.29,1.35,1.35,0,0,1,1.3-1l3.31,0A1.36,1.36,0,0,1,40.81,35.39Z"/></svg>