<svg id="Layer_1" data-name="Layer 1" xmlns="http://www.w3.org/2000/svg" viewBox="0 0 64 64"><title>open book</title><path d="M8.74,49h7.41c5.28,0,9.24,3,11.52,7.32a1.25,1.25,0,0,0,1.1.68h0A1.24,1.24,0,0,0,30,55.76V20.85A13.85,13.85,0,0,0,16.15,7H8.74A4.74,4.74,0,0,0,4,11.74V44.26A4.74,4.74,0,0,0,8.74,49ZM12,18.92A1.92,1.92,0,0,1,13.92,17h2.23a15.7,15.7,0,0,1,6.73,1.52A1.94,1.94,0,0,1,24,20.27v.18a1.93,1.93,0,0,1-2.8,1.7A11.72,11.72,0,0,0,16.15,21H13.92A1.92,1.92,0,0,1,12,19.08Zm0,8A1.92,1.92,0,0,1,13.92,25h2.23a15.7,15.7,0,0,1,6.73,1.52A1.94,1.94,0,0,1,24,28.27v.18a1.93,1.93,0,0,1-2.8,1.7A11.72,11.72,0,0,0,16.15,29H13.92A1.92,1.92,0,0,1,12,27.08Zm0,8A1.92,1.92,0,0,1,13.92,33h2.23a15.7,15.7,0,0,1,6.73,1.52A1.94,1.94,0,0,1,24,36.27v.18a1.93,1.93,0,0,1-2.8,1.7A11.72,11.72,0,0,0,16.15,37H13.92A1.92,1.92,0,0,1,12,35.08Z"/><path d="M55.26,7H47.85A13.85,13.85,0,0,0,34,20.85V55.76A1.24,1.24,0,0,0,35.24,57h0a1.25,1.25,0,0,0,1.1-.68C38.61,52,42.57,49,47.85,49h7.41A4.74,4.74,0,0,0,60,44.26V11.74A4.74,4.74,0,0,0,55.26,7ZM52,35.08A1.92,1.92,0,0,1,50.08,37H47.85a11.72,11.72,0,0,0-5.05,1.14,1.93,1.93,0,0,1-2.8-1.7v-.18a1.94,1.94,0,0,1,1.12-1.75A15.7,15.7,0,0,1,47.85,33h2.23A1.92,1.92,0,0,1,52,34.92Zm0-8A1.92,1.92,0,0,1,50.08,29H47.85a11.72,11.72,0,0,0-5.05,1.14,1.93,1.93,0,0,1-2.8-1.7v-.18a1.94,1.94,0,0,1,1.12-1.75A15.7,15.7,0,0,1,47.85,25h2.23A1.92,1.92,0,0,1,52,26.92Zm0-8A1.92,1.92,0,0,1,50.08,21H47.85a11.72,11.72,0,0,0-5.05,1.14,1.93,1.93,0,0,1-2.8-1.7v-.18a1.94,1.94,0,0,1,1.12-1.75A15.7,15.7,0,0,1,47.85,17h2.23A1.92,1.92,0,0,1,52,18.92Z"/></svg>