<svg id="Layer_1" data-name="Layer 1" xmlns="http://www.w3.org/2000/svg" viewBox="0 0 64 64"><title>plant</title><path d="M15,32a1,1,0,0,0-1,1v2a1,1,0,0,0,1,1h8a1,1,0,0,1,0,2H20.77A4.77,4.77,0,0,0,16,42.77v.78c0,8.62,6.62,16,15.23,16.43A16,16,0,0,0,48,44V37a1,1,0,0,1,1-1,1,1,0,0,0,1-1V33a1,1,0,0,0-1-1H15Zm12,4a1,1,0,1,1-1,1A1,1,0,0,1,27,36Z"/><path d="M25.07,16c.6,1,2.07,1.44,3.91,1.23.73,1.69,1.81,2.77,3,2.77s2.29-1.08,3-2.77c1.83.21,3.3-.19,3.91-1.23s.21-2.52-.89-4c1.1-1.48,1.49-3,.89-4S36.85,6.56,35,6.77C34.29,5.08,33.21,4,32,4s-2.29,1.08-3,2.77C27.15,6.56,25.68,7,25.07,8s-.21,2.52.89,4C24.86,13.48,24.47,15,25.07,16ZM32,10a2,2,0,1,1-2,2A2,2,0,0,1,32,10Z"/><path d="M20.58,20a.58.58,0,0,0-.58.58A7.42,7.42,0,0,0,27.42,28h2a.58.58,0,0,0,.58-.58A7.42,7.42,0,0,0,22.58,20Z"/><path d="M34.58,28h2A7.42,7.42,0,0,0,44,20.58a.58.58,0,0,0-.58-.58h-2A7.42,7.42,0,0,0,34,27.42.58.58,0,0,0,34.58,28Z"/></svg>