<svg id="Layer_1" data-name="Layer 1" xmlns="http://www.w3.org/2000/svg" viewBox="0 0 64 64"><title>rabbit</title><path d="M33,17.86a2.82,2.82,0,0,0-2.18,1,2.9,2.9,0,0,0-.66,1.84,1.13,1.13,0,0,0,1.13,1.13h7.06a.27.27,0,0,0,.15-.5l-.94-.6A15.32,15.32,0,0,1,35,18.68h0A2.82,2.82,0,0,0,33,17.86Z"/><path d="M11.49,31.42a7.84,7.84,0,0,1,1.92-2.12.64.64,0,0,0,.11-1,3,3,0,0,0-5,1.45,3.12,3.12,0,0,0,0,1.09A1.64,1.64,0,0,0,11.49,31.42Z"/><path d="M43.87,41.12a21.84,21.84,0,0,0,3.51-6.68h0A5.35,5.35,0,0,1,50.79,31l1.77-.59a5,5,0,0,0,2.61-2,2.53,2.53,0,0,0-.21-3l-1.67-1.92a25.61,25.61,0,0,0-3-2.9l-6.91-5.75a25.37,25.37,0,0,0-7.81-4.43l-.18-.06a2.35,2.35,0,0,0-2.21.36h0a2.54,2.54,0,0,0,.06,4.06c1,.71,2.48,1.82,3.84,2.83a24.37,24.37,0,0,0,6.83,3.57l2.34.78-3.47,0A2.41,2.41,0,0,0,40.41,24a3.68,3.68,0,0,1-1.77,2.78l-2,1.21a15,15,0,0,1-13.33,1.07h0a8.77,8.77,0,0,0-10.69,3.49l-1.35,2.16a6.69,6.69,0,0,0-1,3.53h0a6.69,6.69,0,0,0,.71,3l2.63,5.26a3,3,0,0,1,0,2.64l-1.17,2.34a1.62,1.62,0,0,0,1.45,2.34H31.06a1.15,1.15,0,0,0,1.15-1.15,1.17,1.17,0,0,0-.8-1.11l-6.2-2.52a1.17,1.17,0,0,1,.08-2.2l.8-.26A4.29,4.29,0,0,0,29,43.45l.2-.89a.91.91,0,0,1,.91-.71.78.78,0,0,1,.75.9l-.41,2.67a4.14,4.14,0,0,1-1.13,2.26c-.13.13-.34.43.17.59l2.79.93a8.8,8.8,0,0,1,3.43,2.12,8.65,8.65,0,0,0,6.12,2.53H45a1.2,1.2,0,0,0,1.2-1.2,1.78,1.78,0,0,0-1.3-1.72l-1-.29a4.06,4.06,0,0,1-2.65-2.36,4.54,4.54,0,0,1,.61-4.5Z"/></svg>