<svg id="Layer_1" data-name="Layer 1" xmlns="http://www.w3.org/2000/svg" viewBox="0 0 64 64"><title>remove camera</title><path d="M53,16H50.31a7,7,0,0,1-6.24-3.86l-.14-.29A7,7,0,0,0,37.69,8H26.31a7,7,0,0,0-6.24,3.86L20,12l-.07.14h0l-3.34,6.68A2.12,2.12,0,0,1,14.69,20h-.46a1.84,1.84,0,0,1-1.65-2.66A.92.92,0,0,0,11.76,16H11a7,7,0,0,0-7,7V49a7,7,0,0,0,7,7H53a7,7,0,0,0,7-7V23A7,7,0,0,0,53,16ZM30.17,49.95A14.08,14.08,0,1,1,46,34.15,14.12,14.12,0,0,1,30.17,49.95ZM52,26a2,2,0,1,1,2-2A2,2,0,0,1,52,26Z"/><rect x="24" y="34" width="16" height="4" rx="1.66" ry="1.66"/></svg>