<svg id="Layer_1" data-name="Layer 1" xmlns="http://www.w3.org/2000/svg" viewBox="0 0 64 64"><title>sandwich</title><path d="M32,24c15.46,0,28-.9,28-2A10,10,0,0,0,50,12h0a10.1,10.1,0,0,0-2.27-2.19l-.31-.21c-.25-.16-.51-.32-.78-.46l-.33-.16-.61-.27-.35-.14c-.3-.11-.61-.21-.92-.28l-.21,0q-.42-.09-.84-.15l-.3,0A10,10,0,0,0,42,8c-.31,0-.62,0-.93,0H41c-.27,0-.53.07-.79.12A10,10,0,0,0,36.4,9.68a1.5,1.5,0,1,1-1.69-2.47,13,13,0,0,1,2-1.14.51.51,0,0,0,0-.9,10,10,0,0,0-12,1.9,2.71,2.71,0,0,1-2.12.9L22,8a9.89,9.89,0,0,0-5,1.36,13,13,0,0,1,6.81,4.14A1.5,1.5,0,0,1,22.7,16h0a1.54,1.54,0,0,1-1.16-.55A9.91,9.91,0,0,0,12.87,12l-.33.05c-.26,0-.52.08-.77.14l-.34.09c-.25.07-.5.14-.75.23l-.29.11q-.42.16-.82.36l-.15.07A10.08,10.08,0,0,0,6,16a9.94,9.94,0,0,0-2,6C4,23.06,16.54,24,32,24Zm20-7a1,1,0,1,1-1,1A1,1,0,0,1,52,17Zm-7.5-1a1,1,0,1,1-1,1A1,1,0,0,1,44.5,16ZM40,19.51a1,1,0,1,1-1-1A1,1,0,0,1,40,19.51ZM37.5,13a1,1,0,1,1-1,1A1,1,0,0,1,37.5,13ZM31,17a1,1,0,1,1-1,1A1,1,0,0,1,31,17Z"/><path d="M32,60c15.46,0,28,1.78,28-10,0,1.1-12.54,2-28,2s-28-.9-28-2C4,61.73,16.54,60,32,60Z"/><path d="M17.58,47.67a10,10,0,0,1-4-2.08,7.16,7.16,0,0,0-2.51-1.41,10.07,10.07,0,0,1-6.16-5.46.32.32,0,0,0-.22-.2L4,38.35V46C4,46.68,9.44,47.32,17.58,47.67Z"/><path d="M48.3,41.77a1.08,1.08,0,0,0-1.44-1.61l-6,5.09a1.31,1.31,0,0,1-1.67,0l-4-3.18a1.36,1.36,0,0,0-1.85.15,10,10,0,0,1-6.5,3.17A10.05,10.05,0,0,1,22,47.82c3.1.08,6.46.13,10,.13,7,0,13.36-.18,18.26-.48l-3.32-2.74a1.08,1.08,0,0,1-.06-1.62Z"/><path d="M58.63,39.8l-7.89,7.63C56.42,47.07,60,46.54,60,46V40.39A.81.81,0,0,0,58.63,39.8Z"/><path d="M5.51,34.6a4.31,4.31,0,0,1,3.05,2.47,6.06,6.06,0,0,0,1.62,2.13h0a6.14,6.14,0,0,0,.78.56l.17.09a6,6,0,0,0,.7.34l.25.1a6,6,0,0,0,.71.2l.27.06a6,6,0,0,0,1,.09,6.16,6.16,0,0,0,.62,0,6,6,0,0,0,10.42.77,6.06,6.06,0,0,0,.89.07,6,6,0,0,0,1-.09l.25-.05a6,6,0,0,0,.8-.23l.15-.05a6.06,6.06,0,0,0,3.09-2.71s1.5-5.62,6.32-7.41a1.08,1.08,0,0,1,.38-.07,1,1,0,0,1,.55,1.84,9.29,9.29,0,0,0-3.28,3.28h0C49.19,35.82,60,35,60,34V28.61a1.9,1.9,0,0,0-2.2-1.88C53.55,27.45,43.6,28,32,28s-21.55-.5-25.8-1.22A1.9,1.9,0,0,0,4,28.61V34C4,34.18,4.53,34.4,5.51,34.6Z"/></svg>