<svg id="Layer_1" data-name="Layer 1" xmlns="http://www.w3.org/2000/svg" viewBox="0 0 64 64"><title>science</title><path d="M20,26.83l-7.72,4.46L8.55,29.13a2,2,0,0,0-2,3.46l3.47,2v5.83a6.37,6.37,0,0,1,4,0V34.9l8-4.61,8,4.61v9.23l-8,4.61-3.56-2.06a6.4,6.4,0,0,1-1.37,3.83L20,52.21v5.54a2,2,0,1,0,4,0V52.21l8-4.61,8,4.61v5.54a2,2,0,1,0,4,0V52.21l2.87-1.66a6.4,6.4,0,0,1-1.4-3.81l-3.47,2-8-4.61V34.9l8-4.61,8,4.61V40.4a6.38,6.38,0,0,1,4,.07V34.6l3.47-2a2,2,0,0,0-2-3.46l-3.73,2.16L44,26.83V17.3a3.48,3.48,0,0,0,0-.43l3.49-2a2,2,0,0,0-2-3.46l-4.11,2.37-3.65-2.1a6.47,6.47,0,0,1-3,2.87L40,17.59v9.23l-8,4.61-8-4.61V17.59l5.31-3.07a6.47,6.47,0,0,1-3-2.87l-3.65,2.1-4.11-2.37a2,2,0,0,0-2,3.46l3.49,2a3.48,3.48,0,0,0,0,.43Z"/><path d="M32.89,4.34a4.44,4.44,0,0,0-5.33,4.35,4.47,4.47,0,0,0,4.23,4.41l.21,0,.21,0a4.43,4.43,0,0,0,.69-8.76Z"/><path d="M54,42.66a4.28,4.28,0,0,0-4-.1,4.5,4.5,0,0,0-2.53,4h0A4.44,4.44,0,1,0,54,42.66Z"/><path d="M14.5,42.87a4.46,4.46,0,0,0-.48-.26,4.39,4.39,0,0,0-2-.5h0a4.14,4.14,0,0,0-.53,0A4.5,4.5,0,0,0,10,42.6a4.44,4.44,0,1,0,6.28,5,4.4,4.4,0,0,0,.15-1.09h0a4.8,4.8,0,0,0-.76-2.48A4.46,4.46,0,0,0,14.5,42.87Z"/></svg>