<svg id="Layer_1" data-name="Layer 1" xmlns="http://www.w3.org/2000/svg" viewBox="0 0 64 64"><title>screwdriver</title><path d="M7,32a1,1,0,0,0-1,1,3,3,0,0,0,3,3h6a3,3,0,0,0,3-3,1,1,0,0,0-1-1,1,1,0,0,1-1-1V29a1,1,0,0,1,1-1,1,1,0,0,0,1-1V10A6,6,0,0,0,6,10V27a1,1,0,0,0,1,1,1,1,0,0,1,1,1v2A1,1,0,0,1,7,32Z"/><path d="M13.47,60a.53.53,0,0,0,.53-.53v-21a.5.5,0,0,0-.5-.5h-3a.5.5,0,0,0-.5.5V55.06a4,4,0,0,0,.42,1.79l1.43,2.86a.53.53,0,0,0,.47.29Z"/><path d="M27,28a1,1,0,0,0-1,1,3,3,0,0,0,3,3h6a3,3,0,0,0,3-3,1,1,0,0,0-1-1,1,1,0,0,1-1-1V25a1,1,0,0,1,1-1,1,1,0,0,0,1-1V10a6,6,0,0,0-12,0V23a1,1,0,0,0,1,1,1,1,0,0,1,1,1v2A1,1,0,0,1,27,28Z"/><path d="M30.5,34a.5.5,0,0,0-.5.5V51.06a4,4,0,0,0,.42,1.79l1.43,2.86a.53.53,0,0,0,.47.29h1.15a.53.53,0,0,0,.53-.53v-21a.5.5,0,0,0-.5-.5Z"/><path d="M47,24a1,1,0,0,0-1,1,3,3,0,0,0,3,3h6a3,3,0,0,0,3-3,1,1,0,0,0-1-1,1,1,0,0,1-1-1V21a1,1,0,0,1,1-1,1,1,0,0,0,1-1V10a6,6,0,0,0-12,0v9a1,1,0,0,0,1,1,1,1,0,0,1,1,1v2A1,1,0,0,1,47,24Z"/><path d="M52.33,52h1.15a.53.53,0,0,0,.53-.53v-21a.5.5,0,0,0-.5-.5h-3a.5.5,0,0,0-.5.5V47.06a4,4,0,0,0,.42,1.79l1.43,2.86A.53.53,0,0,0,52.33,52Z"/></svg>