<svg id="Layer_1" data-name="Layer 1" xmlns="http://www.w3.org/2000/svg" viewBox="0 0 64 64"><title>search euro</title><path d="M26,12A14,14,0,1,0,40,26,14,14,0,0,0,26,12Zm0,12a2,2,0,0,1,0,4H24.56A4,4,0,0,0,28,30a2,2,0,0,1,0,4,8,8,0,0,1-7.74-6H20a2,2,0,0,1,0-4h.26A8,8,0,0,1,28,18a2,2,0,0,1,0,4,4,4,0,0,0-3.44,2Z"/><path d="M51.88,46.23a2.33,2.33,0,0,0-2.39-.56,1.2,1.2,0,0,1-1.24-.24L46.85,44a6.66,6.66,0,0,1-1.11-7.82,22.12,22.12,0,1,0-9.53,9.53A6.67,6.67,0,0,1,44,46.85l1.4,1.4a1.2,1.2,0,0,1,.24,1.24,2.33,2.33,0,0,0,.56,2.39l7.43,7.43a2.34,2.34,0,0,0,3.32,0L59.31,57a2.34,2.34,0,0,0,0-3.32ZM44.1,27.95A18.1,18.1,0,1,1,24.24,8.09,18.16,18.16,0,0,1,44.1,27.95Z"/></svg>