<svg id="Layer_1" data-name="Layer 1" xmlns="http://www.w3.org/2000/svg" viewBox="0 0 64 64"><title>ssl screen</title><path d="M51.52,4h-39A8.48,8.48,0,0,0,4,12.48V40.93a3.06,3.06,0,0,0,.06.57H4A6.5,6.5,0,0,0,10.5,48h43A6.5,6.5,0,0,0,60,41.5h-.06a3.06,3.06,0,0,0,.06-.57V12.48A8.48,8.48,0,0,0,51.52,4ZM56,34.42A5.58,5.58,0,0,1,50.42,40H13.58A5.58,5.58,0,0,1,8,34.42V12.48A4.48,4.48,0,0,1,12.48,8h39A4.48,4.48,0,0,1,56,12.48Z"/><path d="M42,60a2,2,0,0,0,0-4H39.39A1.39,1.39,0,0,1,38,54.61,2.61,2.61,0,0,0,35.39,52H28.61A2.61,2.61,0,0,0,26,54.61,1.39,1.39,0,0,1,24.61,56H22a2,2,0,0,0,0,4Z"/><path d="M20,18h4a2,2,0,0,0,0-4H20a6,6,0,0,0,0,12,2,2,0,0,1,0,4H16a2,2,0,0,0,0,4h4a6,6,0,0,0,0-12,2,2,0,0,1,0-4Z"/><path d="M34,22a2,2,0,0,1,0-4h3a2,2,0,0,0,0-4H34a6,6,0,0,0,0,12,2,2,0,0,1,0,4H30a2,2,0,0,0,0,4h4a6,6,0,0,0,0-12Z"/><path d="M48,30H46V16a2,2,0,0,0-4,0V32a2,2,0,0,0,2,2h4a2,2,0,0,0,0-4Z"/></svg>