<svg id="Layer_1" data-name="Layer 1" xmlns="http://www.w3.org/2000/svg" viewBox="0 0 64 64"><title>brazil</title><path d="M15.5,16.55a2.42,2.42,0,0,0,2,1.64l4.93.62A1.78,1.78,0,0,1,24,20.58V41.45a1.58,1.58,0,0,0,2.28,1.41l12.84-6.42A1.58,1.58,0,0,0,40,35V20.57a1.78,1.78,0,0,1,1.56-1.77l4.92-.61a2.42,2.42,0,0,0,2-1.64l1.08-3.25A1,1,0,0,0,48.61,12H15.36a1,1,0,0,0-.94,1.31Z"/><path d="M42.16,56A4.18,4.18,0,0,1,38,51.82V41.42a.88.88,0,0,0-1.27-.78L27.39,45.3A2.54,2.54,0,0,0,26,47.57v4.25A4.18,4.18,0,0,1,21.81,56H19.88a11.7,11.7,0,0,0-6.23,1.56l-2.52,1.68c-.47.31,0,.76.76.76h40.2c.78,0,1.23-.45.76-.76l-2.52-1.68A11.7,11.7,0,0,0,44.09,56Z"/><path d="M30.26,10h3.46a1.64,1.64,0,0,0,1.55-2.15L34.62,5.9a2.77,2.77,0,0,0-5.26,0L28.7,7.85A1.64,1.64,0,0,0,30.26,10Z"/><path d="M12.37,16H13a.63.63,0,0,0,.62-.79l-.36-1.44A2.34,2.34,0,0,0,11,12h-.56a.74.74,0,0,0-.74.74v.61A2.65,2.65,0,0,0,12.37,16Z"/><path d="M51,16h.67a2.65,2.65,0,0,0,2.65-2.65v-.61a.74.74,0,0,0-.74-.74H53a2.34,2.34,0,0,0-2.27,1.77l-.36,1.44A.63.63,0,0,0,51,16Z"/></svg>