<svg id="Layer_1" data-name="Layer 1" xmlns="http://www.w3.org/2000/svg" viewBox="0 0 64 64"><title>suitcase</title><path d="M18,14.21a2,2,0,0,0,2-2A2.48,2.48,0,0,1,22.68,10H41.32A2.48,2.48,0,0,1,44,12.21a2,2,0,1,0,4,0A6.47,6.47,0,0,0,41.32,6H22.68A6.47,6.47,0,0,0,16,12.21,2,2,0,0,0,18,14.21Z"/><path d="M20,32v-.85a1.12,1.12,0,0,0-1.12-1.12H17.18a1.12,1.12,0,0,0-1.12,1.12V32A2,2,0,0,0,20,32Z"/><path d="M58,30H53.75A1.75,1.75,0,0,0,52,31.75h0A6.17,6.17,0,0,1,46.73,38,6,6,0,0,1,40,32v-.25A1.75,1.75,0,0,0,38.25,30H25.75A1.75,1.75,0,0,0,24,31.75,6.17,6.17,0,0,1,18.73,38,6,6,0,0,1,12,32a2,2,0,0,0-2-2H6a2,2,0,0,0-2,2V53.74A4.26,4.26,0,0,0,8.26,58H55.74A4.26,4.26,0,0,0,60,53.74V32A2,2,0,0,0,58,30Z"/><path d="M55.74,18H8.26A4.26,4.26,0,0,0,4,22.26v1.4A2.33,2.33,0,0,0,6.33,26H57.67A2.33,2.33,0,0,0,60,23.67v-1.4A4.26,4.26,0,0,0,55.74,18Z"/><path d="M48,32v-.85a1.12,1.12,0,0,0-1.12-1.12H45.18a1.12,1.12,0,0,0-1.12,1.12V32A2,2,0,0,0,48,32Z"/></svg>