<svg id="Layer_1" data-name="Layer 1" xmlns="http://www.w3.org/2000/svg" viewBox="0 0 64 64"><title>taco</title><path d="M32,25A28,28,0,0,0,4,53v1.52A2.48,2.48,0,0,0,6.48,57h51A2.48,2.48,0,0,0,60,54.52V53A28,28,0,0,0,32,25ZM16,43a1,1,0,1,1,1-1A1,1,0,0,1,16,43Zm3-5a1,1,0,1,1,1,1A1,1,0,0,1,19,38Zm2,7a1,1,0,1,1,1-1A1,1,0,0,1,21,45Z"/><path d="M59.82,25.66A4,4,0,0,0,56.05,23a4,4,0,0,0-5.73-5.26l.32-.56a4.15,4.15,0,0,0-1.17-5.55A4,4,0,0,0,43.82,13L43,14.39a4,4,0,0,0-7-3v-.24A4.12,4.12,0,0,0,32.39,7,4,4,0,0,0,28,11v.41a4,4,0,0,0-7,3l-.72-1.24a4.12,4.12,0,0,0-5.2-1.79A4,4,0,0,0,13.25,17l.43.75A4,4,0,0,0,8,23,4,4,0,0,0,6.2,30.58,4,4,0,0,0,4,33.85v0a1.07,1.07,0,0,0,1.94.63,32,32,0,0,1,52.2,0A1.07,1.07,0,0,0,60,33.87v0a4,4,0,0,0-2.24-3.27A4,4,0,0,0,59.82,25.66Z"/></svg>