<svg id="Layer_1" data-name="Layer 1" xmlns="http://www.w3.org/2000/svg" viewBox="0 0 64 64"><title>telephone</title><path d="M37.46,39.46a2,2,0,0,1-2.83-2.83L36,35.27a7,7,0,1,0,2.49,3.17Z"/><path d="M32,22A24.93,24.93,0,0,0,7.66,41.52L4.89,54a3.29,3.29,0,0,0,3.22,4H55.89a3.29,3.29,0,0,0,3.22-4L56.34,41.52A24.93,24.93,0,0,0,32,22Zm0,29.92A11,11,0,1,1,43,41,11,11,0,0,1,32,51.92Z"/><path d="M55.87,6H8.13A2.13,2.13,0,0,0,6,8.13v.55a2.13,2.13,0,0,0,1.18,1.91l2.35,1.18A21.15,21.15,0,0,0,19,14h7.63A3.38,3.38,0,0,1,30,17.38v1A1.65,1.65,0,0,0,31.65,20h.7A1.65,1.65,0,0,0,34,18.35v-1A3.38,3.38,0,0,1,37.38,14H45a21.15,21.15,0,0,0,9.46-2.23l2.35-1.18A2.13,2.13,0,0,0,58,8.68V8.13A2.13,2.13,0,0,0,55.87,6Z"/></svg>