<svg id="Layer_1" data-name="Layer 1" xmlns="http://www.w3.org/2000/svg" viewBox="0 0 64 64"><title>turbine factory</title><path d="M5,60H59a1,1,0,0,0,0-2H55A41.81,41.81,0,0,1,41.91,30.4,2.57,2.57,0,0,0,39.35,28H24.65a2.57,2.57,0,0,0-2.56,2.4A41.81,41.81,0,0,1,9,58H5a1,1,0,0,0,0,2ZM22.37,46h4a2.47,2.47,0,0,1,1.75.71,6.89,6.89,0,0,0,.93.78.39.39,0,0,0,.54-.12.39.39,0,0,0-.12-.53,6.19,6.19,0,0,1-1-.89,6.59,6.59,0,0,1,3-9.89.33.33,0,0,1,.45.3v4a2.47,2.47,0,0,1-.71,1.75,6.91,6.91,0,0,0-.78.93.39.39,0,0,0,.12.54.39.39,0,0,0,.53-.12,6.19,6.19,0,0,1,.84-1h0a6.59,6.59,0,0,1,9.93,3,.33.33,0,0,1-.3.45H37.46a2.47,2.47,0,0,1-1.75-.71,6.91,6.91,0,0,0-.93-.78.39.39,0,0,0-.54.12.39.39,0,0,0,.12.53,6.19,6.19,0,0,1,1.57,1.59,6.59,6.59,0,0,1-3.46,9.18.33.33,0,0,1-.45-.3V51.38a2.47,2.47,0,0,1,.71-1.75,6.91,6.91,0,0,0,.78-.93.39.39,0,0,0-.12-.54.39.39,0,0,0-.53.12,6.18,6.18,0,0,1-1.65,1.6,2.31,2.31,0,0,1-.35.19,6.59,6.59,0,0,1-8.77-3.66A.33.33,0,0,1,22.37,46Z"/><path d="M33,20h4.94a6,6,0,0,0,4.38-1.88,1.19,1.19,0,0,1,1.23-.3,4.81,4.81,0,0,0,3.06,0A5,5,0,0,0,45,8h-.1a5,5,0,0,0-9.61-.79,2.15,2.15,0,0,1-1.13,1.2,5.55,5.55,0,0,0-2.51,2.34,2.45,2.45,0,0,1-.38.5,5,5,0,0,0-4.24-1.18,5.06,5.06,0,0,0-4,4.06,5,5,0,0,0,1.28,4.29.82.82,0,0,1,.1,1,2.19,2.19,0,0,0-.43,1.3A2.22,2.22,0,0,0,26.15,23,2.22,2.22,0,0,0,28,26.44h5.79a2.22,2.22,0,1,0,0-4.44H33a1,1,0,0,1,0-2Z"/></svg>