<svg id="Layer_1" data-name="Layer 1" xmlns="http://www.w3.org/2000/svg" viewBox="0 0 64 64"><title>umbrella</title><path d="M38.65,8.46a5.49,5.49,0,0,1-3.87-2.9l-.12-.23A2.4,2.4,0,0,0,32.52,4H31.36a2.4,2.4,0,0,0-2.18,1.4,5.5,5.5,0,0,1-4,3.08C13.49,10.85,4.68,19.22,4,29.35A2.49,2.49,0,0,0,6.51,32a2.44,2.44,0,0,0,2.15-1.25A5.25,5.25,0,0,1,13.26,28h3.48a5.25,5.25,0,0,1,4.59,2.74,2.49,2.49,0,0,0,4.33,0A5.25,5.25,0,0,1,30.26,28h3.48a5.25,5.25,0,0,1,4.59,2.74,2.49,2.49,0,0,0,4.33,0A5.25,5.25,0,0,1,47.26,28h3.48a5.25,5.25,0,0,1,4.6,2.75A2.44,2.44,0,0,0,57.49,32,2.49,2.49,0,0,0,60,29.35C59.32,19.19,50.44,10.79,38.65,8.46Z"/><path d="M34.86,46h3.42A5.7,5.7,0,0,0,44,40.3v-3.2A1.09,1.09,0,0,0,42.9,36h-3A7.9,7.9,0,0,0,32,43.11a0,0,0,0,1-.08,0A7.89,7.89,0,0,0,24.11,36h-3A1.09,1.09,0,0,0,20,37.09v3.2a5.7,5.7,0,0,0,5.7,5.7h3.42a.87.87,0,0,1,.87.87v1.68h0V54a6,6,0,0,0,6,6H36a6,6,0,0,0,6-6,2,2,0,0,0-2-2h0a1.94,1.94,0,0,0-2,1.92,2,2,0,0,1-2.16,2A2.08,2.08,0,0,1,34,53.88V47.67h0v-.8A.87.87,0,0,1,34.86,46Z"/></svg>