<svg id="Layer_1" data-name="Layer 1" xmlns="http://www.w3.org/2000/svg" viewBox="0 0 64 64"><title>unlock</title><path d="M8,31.14V54.86A5.14,5.14,0,0,0,13.14,60H50.86A5.14,5.14,0,0,0,56,54.86V31.14A5.14,5.14,0,0,0,50.86,26H13.14A5.14,5.14,0,0,0,8,31.14Zm19.6,7.45A4.5,4.5,0,1,1,35,42.86a1.67,1.67,0,0,0-.59,1.49l.92,6.45A1.92,1.92,0,0,1,33.38,53H30.62a1.92,1.92,0,0,1-1.9-2.2l.92-6.46A1.66,1.66,0,0,0,29,42.86,4.46,4.46,0,0,1,27.6,38.59Z"/><path d="M17,12.1A2.54,2.54,0,0,0,19.14,16h1.39a7.62,7.62,0,0,0,5-1.65A10,10,0,0,1,41.8,20a2.52,2.52,0,0,0,2.46,2H46.9c1.91,0,3.12-1.37,2.87-2.89a18,18,0,0,0-32.8-7Z"/></svg>