<svg id="Layer_1" data-name="Layer 1" xmlns="http://www.w3.org/2000/svg" viewBox="0 0 64 64"><title>user mobile</title><path d="M16,60H48a8,8,0,0,0,8-8V12a8,8,0,0,0-8-8H16a8,8,0,0,0-8,8V52A8,8,0,0,0,16,60Zm0-43.88A4.12,4.12,0,0,1,20.12,12H43.88A4.12,4.12,0,0,1,48,16.12V39.88A4.12,4.12,0,0,1,43.88,44H20.12A4.12,4.12,0,0,1,16,39.88Z"/><path d="M25.52,38h13a1.38,1.38,0,0,0,1.38-1.53c-.5-4.09-2.95-7.48-6.11-8.42a.2.2,0,0,1,0-.39,5,5,0,1,0-3.55,0,.2.2,0,0,1,0,.38c-3.16,1-5.6,4.33-6.09,8.42A1.38,1.38,0,0,0,25.52,38Z"/></svg>