<svg id="Layer_1" data-name="Layer 1" xmlns="http://www.w3.org/2000/svg" viewBox="0 0 64 64"><title>vacuum cleaner</title><path d="M14,60a10,10,0,0,0,7.59-3.51,2.48,2.48,0,0,1,1.62-.83,52.9,52.9,0,0,0,14.43-3.77c1.95-.82,4-2.32,4.12-4.43.24-3.71-5.53-9-8-10.56A32.08,32.08,0,0,0,17,32a11.58,11.58,0,0,0-8.53,3.54A16.28,16.28,0,0,0,4,46.77V50A10,10,0,0,0,14,60ZM8.15,48.63a6,6,0,1,1,7.22,7.22A6,6,0,0,1,8.15,48.63Z"/><circle cx="14" cy="50.04" r="2.04"/><path d="M42.49,12h7.41a2.19,2.19,0,0,0,.44,0A6,6,0,0,0,56,16h1a1,1,0,0,0,1-1V5a1,1,0,0,0-1-1H56a6,6,0,0,0-5.66,4A2,2,0,0,0,50,8H42.83A10.71,10.71,0,0,0,32,18.1a10.43,10.43,0,0,0,3.06,7.8l6,6A13.62,13.62,0,0,0,50.89,36,5,5,0,0,1,56,41.08,5.15,5.15,0,0,1,50.78,46H46.89a.89.89,0,0,1-.89-.89v-.22a.89.89,0,0,0-.89-.89h-.22a.89.89,0,0,0-.89.89v6a.89.89,0,0,0,.89.89h.22a.89.89,0,0,0,.89-.89.89.89,0,0,1,.89-.89h3.78A9.22,9.22,0,0,0,60,41.47,9,9,0,0,0,51,32a10.19,10.19,0,0,1-7.17-2.95l-5.81-5.81a6.82,6.82,0,0,1-2-4.06A6.49,6.49,0,0,1,42.49,12Z"/></svg>