<svg id="Layer_1" data-name="Layer 1" xmlns="http://www.w3.org/2000/svg" viewBox="0 0 64 64"><title>video camera settings</title><circle cx="24.05" cy="32" r="4"/><path d="M11.92,52H36.23a7.86,7.86,0,0,0,7.86-7.86V19.89A7.86,7.86,0,0,0,36.23,12H11.92A7.92,7.92,0,0,0,4,19.95V44.05A7.92,7.92,0,0,0,11.92,52Zm2.41-17.63a9.86,9.86,0,0,1,0-4.64,1.22,1.22,0,0,0-.59-1.33h0a1.24,1.24,0,0,1-.45-1.69L14,25.37a1.24,1.24,0,0,1,1.69-.45h0a1.22,1.22,0,0,0,1.45-.16,10,10,0,0,1,4-2.31A1.22,1.22,0,0,0,22,21.26,1.24,1.24,0,0,1,23.29,20h1.52A1.24,1.24,0,0,1,26,21.26a1.22,1.22,0,0,0,.86,1.18,10,10,0,0,1,4,2.31,1.22,1.22,0,0,0,1.45.16h0a1.24,1.24,0,0,1,1.69.45l.76,1.32a1.24,1.24,0,0,1-.45,1.69h0a1.22,1.22,0,0,0-.59,1.33,9.85,9.85,0,0,1,0,4.64,1.22,1.22,0,0,0,.59,1.33h0a1.24,1.24,0,0,1,.45,1.69l-.76,1.32a1.24,1.24,0,0,1-1.69.45h0a1.22,1.22,0,0,0-1.45.16,10,10,0,0,1-4,2.31A1.22,1.22,0,0,0,26,42.78,1.24,1.24,0,0,1,24.81,44H23.29A1.24,1.24,0,0,1,22,42.78a1.22,1.22,0,0,0-.86-1.18,10,10,0,0,1-4-2.31,1.22,1.22,0,0,0-1.45-.16h0A1.24,1.24,0,0,1,14,38.68l-.76-1.32a1.24,1.24,0,0,1,.45-1.69h0A1.22,1.22,0,0,0,14.32,34.34Z"/><path d="M56.15,17.89l-6.32,3.24A3.27,3.27,0,0,0,48.06,24V40a3.27,3.27,0,0,0,1.77,2.9l6.32,3.25A2.64,2.64,0,0,0,60,43.76V20.24A2.64,2.64,0,0,0,56.15,17.89Z"/></svg>