<svg id="Layer_1" data-name="Layer 1" xmlns="http://www.w3.org/2000/svg" viewBox="0 0 64 64"><title>water kettle</title><path d="M60,57.66A2.07,2.07,0,0,0,57.89,56,1.89,1.89,0,0,1,56,54.11V44c0-.54,0-1.42-.08-2a19.6,19.6,0,0,1,2-9.85l1.73-3.46a1.63,1.63,0,0,0,0-1.46l-.08-.15a3.77,3.77,0,0,0-4.79-1.81l-3.89,1.57a2.41,2.41,0,0,1-2.54-.46,23.91,23.91,0,0,0-12.73-6.15A1.91,1.91,0,0,1,34,18.39v-.28A2.07,2.07,0,0,0,32.34,16,2,2,0,0,0,30,18v.4a1.91,1.91,0,0,1-1.61,1.89A23.26,23.26,0,0,0,22.53,22,1.79,1.79,0,0,1,20,20.38,12.26,12.26,0,0,1,31.16,8,12,12,0,0,1,44,20a2,2,0,0,0,1.64,2A2,2,0,0,0,48,20,16,16,0,0,0,31.19,4C22.6,4.44,16,11.86,16,20.46V39a1,1,0,0,1-2,0V31.58A1.07,1.07,0,0,0,12,31,24.82,24.82,0,0,0,8,44.57v9.54A1.89,1.89,0,0,1,6.11,56,2.07,2.07,0,0,0,4,57.66,2,2,0,0,0,6,60H58A2,2,0,0,0,60,57.66Z"/></svg>