<svg id="Layer_1" data-name="Layer 1" xmlns="http://www.w3.org/2000/svg" viewBox="0 0 64 64"><title>wheelbarrow</title><path d="M25.79,26H53.23a2.7,2.7,0,0,0,2.51-3.73,10.34,10.34,0,0,0-4.9-5.19,10.33,10.33,0,0,0-20.38-.77,10.34,10.34,0,0,0-7.11,6.15A2.6,2.6,0,0,0,25.79,26Z"/><path d="M38.59,44a6,6,0,1,0,6,6A6,6,0,0,0,38.59,44Zm0,8a2,2,0,1,1,2-2A2,2,0,0,1,38.59,52Z"/><path d="M47.19,45.48a19.28,19.28,0,0,0,7-6.85l5-8.3A1.53,1.53,0,0,0,57.88,28H23.3a3.68,3.68,0,0,1-3.41-2.29l-3.58-8.77A1.52,1.52,0,0,0,14.9,16H7.34A2.87,2.87,0,0,0,5,17.08,1.74,1.74,0,0,0,6.28,20h6.41a1,1,0,0,1,1,.65l5.23,13.07h0l.68,1.71A20.16,20.16,0,0,0,29.62,46.23a1.82,1.82,0,0,0,2.28-.63,8,8,0,0,1,13-.53A1.82,1.82,0,0,0,47.19,45.48Z"/></svg>