<svg id="Layer_1" data-name="Layer 1" xmlns="http://www.w3.org/2000/svg" viewBox="0 0 64 64"><title>woman</title><path d="M32,48a6.74,6.74,0,0,0,4.78-2A2,2,0,0,0,34,43.19a2.77,2.77,0,0,1-3.91,0A2,2,0,0,0,27.22,46,6.74,6.74,0,0,0,32,48Z"/><path d="M42,34a2,2,0,0,0,2-2V30.83a.83.83,0,0,0-.83-.83H41.95A2,2,0,0,0,42,34Z"/><path d="M24,32a2,2,0,0,0-1.95-2H20.83a.83.83,0,0,0-.83.83V32a2,2,0,0,0,4,0Z"/><path d="M12,36V53.51a6,6,0,0,1-1.76,4.24A1.31,1.31,0,0,0,11.17,60h7.56a5.57,5.57,0,0,0,2-.49L40,54.33v.05A5.62,5.62,0,0,0,45.44,60h7.39a1.31,1.31,0,0,0,.93-2.24A6,6,0,0,1,52,53.51V36a4,4,0,0,0,0-8h0V23A19,19,0,0,0,33,4H31A19,19,0,0,0,12,23v5h0a4,4,0,0,0,0,8Zm4-3.05h0v-.82A8,8,0,1,1,32,32v2a2,2,0,0,1-2,2,2,2,0,0,0-2,2,2,2,0,0,0,2.07,2h2.11A3.82,3.82,0,0,0,36,36.18V27.86c0-.28,0-.56,0-.84a6.62,6.62,0,0,0-1.95-4.53l-.33-.33a2,2,0,0,1-.07-2.85,2,2,0,0,1,2.85,0l.38.38.17.17a18.47,18.47,0,0,0,7.11,4.5A5.79,5.79,0,0,1,48,29.79V36a16,16,0,1,1-32-.18Z"/></svg>