<svg id="Layer_1" data-name="Layer 1" xmlns="http://www.w3.org/2000/svg" viewBox="0 0 64 64"><title>world monument</title><path d="M16,60H48a2,2,0,0,0,0-4,2.42,2.42,0,0,1-2.36-1.85C44.81,50.56,42.6,48,40,48h-.16a4,4,0,0,0-1.16.22h0a4.41,4.41,0,0,0-.54.23,5,5,0,0,0-.53.32h0a1.07,1.07,0,0,1-.34.15l-.11,0h-.22a1,1,0,0,1-.29-.07l-.13,0a1,1,0,0,1-.34-.3q-.2-.3-.42-.57a6.53,6.53,0,0,0-.94-.94,5.36,5.36,0,0,0-.51-.37,4.53,4.53,0,0,0-1.09-.51A3.94,3.94,0,0,0,31.41,46a4.16,4.16,0,0,0-1.13.35,5.38,5.38,0,0,0-1.53,1.1,7.44,7.44,0,0,0-.87,1.07h0a1,1,0,0,1-.34.3l-.13,0a1,1,0,0,1-.29.07H26.9l-.11,0a1.07,1.07,0,0,1-.34-.15,5,5,0,0,0-.55-.33,4.42,4.42,0,0,0-.54-.23h0A4,4,0,0,0,24.16,48H24c-2.6,0-4.81,2.56-5.64,6.15A2.42,2.42,0,0,1,16,56a2,2,0,0,0,0,4Zm14-6.29A2,2,0,0,1,31.65,52a2,2,0,0,1,1,.09.3.3,0,0,1,.1.49l-.35.35a.3.3,0,0,0,0,.43l.18.18a.3.3,0,0,0,.43,0l.36-.36a.3.3,0,0,1,.49.1,2,2,0,1,1-3.85.4Z"/><path d="M20,36a1,1,0,0,0,1,1h.14a1,1,0,0,1,1,.93A33,33,0,0,0,23.42,45c.19,0,.39,0,.58,0a5.9,5.9,0,0,1,1.2.12,3.22,3.22,0,0,0,2.73-.59,6.19,6.19,0,0,1,8.15,0,3.22,3.22,0,0,0,2.73.59A5.9,5.9,0,0,1,40,45c.2,0,.39,0,.58,0a33,33,0,0,0,1.29-7.1,1,1,0,0,1,1-.93H43a1,1,0,0,0,0-2H21A1,1,0,0,0,20,36Z"/><path d="M39.91,32A2.09,2.09,0,0,0,42,29.91V14a10,10,0,0,0-20,0V29.91A2.09,2.09,0,0,0,24.09,32ZM26.84,8.27A7,7,0,0,1,32,6a1,1,0,0,1,0,2,5,5,0,0,0-3.68,1.62,1,1,0,1,1-1.47-1.35ZM25,12.33a1,1,0,1,1,2,.18c0,.16,0,.32,0,.49a1,1,0,0,1-2,0C25,12.77,25,12.55,25,12.33Z"/></svg>