<svg id="Layer_1" data-name="Layer 1" xmlns="http://www.w3.org/2000/svg" viewBox="0 0 64 64"><title>yen currency exchange</title><circle cx="14" cy="14" r="1.21"/><path d="M14,24A10,10,0,1,0,4,14,10,10,0,0,0,14,24ZM10,14a4,4,0,0,1,.15-1l-.62-.62a2,2,0,0,1,2.83-2.83l.63.63a3.6,3.6,0,0,1,2,0l.63-.63a2,2,0,0,1,2.83,2.83l-.62.62a3.6,3.6,0,0,1,0,2l.62.62a2,2,0,0,1-2.83,2.83L15,17.85a3.6,3.6,0,0,1-2,0l-.63.63a2,2,0,0,1-2.83-2.83l.62-.62A4,4,0,0,1,10,14Z"/><path d="M59.88,46a14,14,0,1,0-14,14A14,14,0,0,0,59.88,46Zm-7.25-3.86L48,45.1V46h.25a2,2,0,0,1,2,2.34A2.07,2.07,0,0,1,48.14,50H48v2a2,2,0,0,1-2.34,2A2.07,2.07,0,0,1,44,51.89V50h-.08A2,2,0,0,1,42,47.32,2,2,0,0,1,43.92,46H44V45.1l-4.62-3a2,2,0,0,1-.4-3,2.07,2.07,0,0,1,2.65-.28l1.45.92a5.44,5.44,0,0,0,5.86,0l1.45-.92a2.07,2.07,0,0,1,2.65.28A2,2,0,0,1,52.62,42.14Z"/><path d="M59.58,27.15A28,28,0,0,0,27.42,4.38a1.88,1.88,0,0,0-1.3,2.85l.69,1.09A1.92,1.92,0,0,0,28.5,9.37,1.45,1.45,0,0,1,30,10.82v9.93A1.28,1.28,0,0,1,28.72,22h-2a2.64,2.64,0,0,0-2,.93,14,14,0,0,1-1.56,1.58A.84.84,0,0,0,23.72,26h5A1.28,1.28,0,0,1,30,27.3v7.27a.93.93,0,0,0,1.68.55,18.18,18.18,0,0,1,1.52-1.74A2.6,2.6,0,0,0,34,31.55V27.3A1.28,1.28,0,0,1,35.28,26h7.08a1.35,1.35,0,0,1,1.35,1.24v0a.86.86,0,0,0,.92.78c.45,0,.91-.06,1.37-.06l.82,0a.85.85,0,0,0,.88-.93v0a1,1,0,0,1,1-1.05H54a1.63,1.63,0,0,1,1.53,1.22,23.93,23.93,0,0,1,.36,2.45,3.1,3.1,0,0,0,1.19,2.14q.69.54,1.32,1.14a1,1,0,0,0,1.6-.68A28.29,28.29,0,0,0,59.58,27.15ZM41.1,22H35.28A1.28,1.28,0,0,1,34,20.75V10.82a1.44,1.44,0,0,1,2.36-1.11,15.89,15.89,0,0,1,3.76,4.84,29.26,29.26,0,0,1,2.29,5.74A1.36,1.36,0,0,1,41.1,22Zm11.16,0H48.57a2,2,0,0,1-2-1.53,34.53,34.53,0,0,0-2.69-7.32A.93.93,0,0,1,45.22,12a24.19,24.19,0,0,1,7.9,8.62A1,1,0,0,1,52.26,22Z"/><path d="M7.75,26.52a13.89,13.89,0,0,1-1.36-.78,1.22,1.22,0,0,0-1.84.79,28,28,0,0,0,22.6,33q.81.14,1.61.23A2.46,2.46,0,0,0,31,56l-.2-.31a2.35,2.35,0,0,0-2.2-1,1.37,1.37,0,0,1-1-.31,15.85,15.85,0,0,1-3.79-4.86A30.72,30.72,0,0,1,21.15,42h6.51a1.06,1.06,0,0,0,1-.79,17.74,17.74,0,0,1,.59-1.76,1,1,0,0,0-1-1.44H20.42A46,46,0,0,1,20,32c0-1.33.06-2.64.17-3.93a1,1,0,0,0-1.32-1,13.92,13.92,0,0,1-1.92.56,1,1,0,0,0-.78.87c-.08,1.13-.14,2.29-.14,3.46a50.48,50.48,0,0,0,.35,6H8.74a23.86,23.86,0,0,1-.38-10.16A1.2,1.2,0,0,0,7.75,26.52ZM17.06,42a35.69,35.69,0,0,0,3,8.85A.93.93,0,0,1,18.78,52,24.17,24.17,0,0,1,10.15,42Z"/></svg>