<svg xmlns="http://www.w3.org/2000/svg" width="64" height="64" viewBox="0 0 64 64"><g transform="translate(-384)"><rect width="14" height="8" x="409" y="5" fill="#ff435b" fill-rule="evenodd"/><circle cx="416.027" cy="35" r="24" fill="#d8ecfe" fill-rule="evenodd"/><circle cx="415.987" cy="35" r="4" fill="#abd6fd" fill-rule="evenodd"/><path style="-inkscape-stroke:none" fill="#abd6fd" fill-rule="evenodd" d="M423.98633 42a1.0001 1.0001 0 00-1 1v3a1 1 0 001 1 1 1 0 001-1v-2h2a1 1 0 001-1 1 1 0 00-1-1zM404.98633 42a1 1 0 00-1 1 1 1 0 001 1h2v2a1 1 0 001 1 1 1 0 001-1v-3a1.0001 1.0001 0 00-1-1zM415.98633 38a1 1 0 00-1 1v2.058594l-2.71485 2.777344a1 1 0 00.0156 1.414062 1 1 0 001.41406-.01758l1.28516-1.314453v2.140625l-2.71485 2.777344a1 1 0 00.0156 1.414062 1 1 0 001.41406-.01758l1.28516-1.314453V51a1 1 0 001 1 1 1 0 001-1v-2.082031l1.28515 1.314453a1 1 0 001.41407.01758 1 1 0 00.0156-1.414062l-2.71484-2.777344v-2.140625l1.28515 1.314453a1 1 0 001.41407.01758 1 1 0 00.0156-1.414062l-2.71484-2.777344V39a1 1 0 00-1-1zM425.5332 31a1 1 0 00-.71093.285156L422.04492 34h-2.05859a1 1 0 00-1 1 1 1 0 001 1h2.05859l2.77735 2.714844a1 1 0 001.41406-.01563 1 1 0 00-.0156-1.414063L424.90625 36h2.13867l2.77735 2.714844a1 1 0 001.41406-.01563 1 1 0 00-.0156-1.414063L429.90625 36h2.08008a1 1 0 001-1 1 1 0 00-1-1h-2.08008l1.31445-1.285156A1 1 0 00431.2363 31.300781 1 1 0 00430.5332 31 1 1 0 00429.82227 31.285156L427.04492 34h-2.13867l1.31445-1.285156A1 1 0 00426.2363 31.300781 1 1 0 00425.5332 31zM401.44141 31a1 1 0 00-.70313.300781 1 1 0 00.0156 1.414063L402.06836 34h-2.00195a1 1 0 00-1 1 1 1 0 001 1h2.00195l-1.31445 1.285156a1 1 0 00-.0156 1.414063 1 1 0 001.41406.01563L404.92969 36h2.13867l-1.31445 1.285156a1 1 0 00-.0156 1.414063 1 1 0 001.41406.01563L409.92969 36h2.05664a1 1 0 001-1 1 1 0 00-1-1h-2.05664l-2.77735-2.714844A1 1 0 00406.44141 31a1 1 0 00-.70313.300781 1 1 0 00.0156 1.414063L407.06836 34h-2.13867l-2.77735-2.714844A1 1 0 00401.44141 31zM423.98633 23a1 1 0 00-1 1v3a1.0001 1.0001 0 001 1h3a1 1 0 001-1 1 1 0 00-1-1h-2v-2a1 1 0 00-1-1zM407.98633 23a1 1 0 00-1 1v2h-2a1 1 0 00-1 1 1 1 0 001 1h3a1.0001 1.0001 0 001-1v-3a1 1 0 00-1-1zM415.98633 18a1 1 0 00-1 1v2.082031l-1.28516-1.314453a1 1 0 00-.70312-.302734 1 1 0 00-.71094.285156 1 1 0 00-.0156 1.414062l2.71485 2.777344v2.140625l-1.28516-1.314453a1 1 0 00-.70312-.302734 1 1 0 00-.71094.285156 1 1 0 00-.0156 1.414062l2.71485 2.777344V31a1 1 0 001 1 1 1 0 001-1v-2.058594l2.71484-2.777344a1 1 0 00-.0156-1.414062 1 1 0 00-1.41407.01758l-1.28515 1.314453v-2.140625l2.71484-2.777344a1 1 0 00-.0156-1.414062 1 1 0 00-1.41407.01758l-1.28515 1.314453V19a1 1 0 00-1-1z" color="#000"/></g></svg>