<svg xmlns="http://www.w3.org/2000/svg" width="64" height="64" viewBox="0 0 64 64"><g transform="translate(-384 -96)"><rect width="14" height="8" x="409" y="101" fill="#ff435b" fill-rule="evenodd"/><circle cx="416.027" cy="131" r="24" fill="#d8ecfe" fill-rule="evenodd"/><path style="-inkscape-stroke:none" fill="#ff435b" fill-rule="evenodd" d="m 405.7834,135.92703 1.21665,2.93893 -3.17105,-0.24894 -2.41911,2.06529 -0.74316,-3.09278 -2.71176,-1.6625 2.71176,-1.66251 0.74315,-3.09277 2.41912,2.06528 3.17105,-0.24893 z" color="#000"/><path fill="#ff435b" fill-rule="evenodd" d="m 413,32 -1.21783,2.938442 -2.06625,-2.418295 -3.17095,-0.250195 1.66143,-2.712415 -0.74193,-3.093071 3.09307,0.74193 2.71241,-1.661429 0.2502,3.170954 2.41829,2.066251 z" transform="matrix(1.80655 -.2913 .29652 1.80507 -336.221 186.277)"/><path style="-inkscape-stroke:none" fill="#ff435b" fill-rule="evenodd" d="M422.76201 146.03807l-.41581 3.15352-2.62174-1.80111-3.12766.57903.90279-3.05-1.51719-2.79565 3.1797-.0839 2.18998-2.30684 1.06237 2.99815 2.87068 1.36995zM434.06459 132.55314l-.41581 3.15352-2.62174-1.80111-3.12766.57903.90279-3.05-1.51719-2.79565 3.1797-.0839 2.18998-2.30684 1.06237 2.99815 2.87068 1.36994z" color="#000"/></g></svg>