<svg xmlns="http://www.w3.org/2000/svg" width="64" height="64" viewBox="0 0 64 64"><g transform="translate(-192 -96)"><path style="-inkscape-stroke:none" fill="#5b7fa0" fill-rule="evenodd" d="m 239,100 a 1,1 0 0 0 -1,1 v 4 h -3 v 9.42578 h 8 V 105 h -3 v -4 a 1,1 0 0 0 -1,-1 z" color="#000" transform="translate(-27 16.262)"/><path style="-inkscape-stroke:none" fill="#5b7fa0" fill-rule="evenodd" d="m 239,100 a 1,1 0 0 0 -1,1 v 4 h -3 v 9.42578 h 8 V 105 h -3 v -4 a 1,1 0 0 0 -1,-1 z" color="#000"/><circle cx="212.153" cy="139.847" r="15.153" fill="#ff435b" fill-rule="evenodd"/><circle cx="238.792" cy="120.921" r="12.208" fill="#ff435b" fill-rule="evenodd"/><path fill="#d8ecfe" fill-rule="evenodd" d="M220 133c-1.64501 0-3 1.35499-3 3 0 1.64501 1.35499 3 3 3a1 1 0 001-1 1 1 0 00-1-1c-.56413 0-1-.43587-1-1 0-.56413.43587-1 1-1 .56413 0 1 .43587 1 1a1 1 0 001 1 1 1 0 001-1c0-1.64501-1.35499-3-3-3zM210.625 128a1 1 0 00-.70703.29297 1 1 0 000 1.41406l.98047.98047-.98047.98047a1 1 0 000 1.41406 1 1 0 001.41406 0l.98047-.98047.98047.98047a1 1 0 001.41406 0 1 1 0 000-1.41406l-.98047-.98047.98047-.98047a1 1 0 000-1.41406A1 1 0 00214 128a1 1 0 00-.70703.29297l-.98047.98047-.98047-.98047A1 1 0 00210.625 128zM204.57617 135.00977c-.57112.0155-1.11175.15211-1.60351.35546-.42319.17499-.8224.4046-1.18555.6836a1 1 0 00-.18359 1.40234 1 1 0 001.40234.1836c.22331-.17157.47023-.31427.73047-.42188.30069-.12434.60843-.19536.89453-.20312.28329-.008.55783.0481.77734.15625.21538.10615.39581.27639.49414.45312.0951.17086.126.38616.0918.54102-.0234.10604-.085.24137-.18555.375-.10214.13575-.2472.27619-.42578.41992-.35821.2883-.86729.57779-1.39258 1.03906-.85152.74776-1.44005 1.75905-1.66796 2.86914-.22793 1.11007-.0857 2.27212.40234 3.29492.48799 1.0228 1.30234 1.8655 2.30859 2.38672 1.00627.52123 2.16236.69926 3.2793.50781 1.11694-.19145 2.14859-.74567 2.92383-1.57226.77524-.82658 1.26329-1.89065 1.38281-3.01758.11954-1.12693-.13415-2.26943-.71875-3.24023-.58459-.97082-1.47736-1.72889-2.5293-2.15039a1 1 0 00-1.29882.55664 1 1 0 00.55664 1.29882c.6377.25552 1.2042.73766 1.55859 1.32618.35438.58851.51387 1.31491.44141 1.99804-.0725.68315-.38161 1.36025-.85157 1.86133-.46995.50109-1.12562.85269-1.80273.96875-.67712.11606-1.41147.002-2.02149-.31445-.61-.31598-1.128-.85068-1.42382-1.47071-.29584-.61999-.38427-1.3583-.2461-2.03125.13817-.67294.51115-1.31623 1.02735-1.76953.32415-.28464.80567-.56192 1.32812-.98242.26175-.21067.52987-.46143.76758-.77734.2393-.31803.44262-.69863.54102-1.14453.15073-.6825.025-1.36681-.29688-1.94532-.31862-.57261-.80555-1.00047-1.35937-1.27343-.5497-.2709-1.1409-.37882-1.71485-.36328z" color="#000"/><path style="-inkscape-stroke:none" fill="#d8ecfe" fill-rule="evenodd" d="M220 144v0M220 143a1 1 0 00-1 1 1 1 0 001 1 1 1 0 001-1 1 1 0 00-1-1zM214 137v0M214 136a1 1 0 00-1 1 1 1 0 001 1 1 1 0 001-1 1 1 0 00-1-1zM215 150v0M215 149a1 1 0 00-1 1 1 1 0 001 1 1 1 0 001-1 1 1 0 00-1-1z" color="#000"/><path fill="#d8ecfe" fill-rule="evenodd" d="m 244,115 c -2.19729,0 -4,1.80271 -4,4 a 1,1 0 0 0 1,1 1,1 0 0 0 1,-1 c 0,-1.11641 0.88359,-2 2,-2 1.11641,0 2,0.88359 2,2 0,1.11641 -0.88359,2 -2,2 a 1,1 0 0 0 -1,1 1,1 0 0 0 1,1 c 2.19729,0 4,-1.80271 4,-4 0,-2.19729 -1.80271,-4 -4,-4 z" color="#000"/><path style="-inkscape-stroke:none" fill="#a46868" fill-rule="evenodd" d="m 236,128 v 0" color="#000"/><path style="-inkscape-stroke:none" fill="#d8ecfe" fill-rule="evenodd" d="m 236,127 a 1,1 0 0 0 -1,1 1,1 0 0 0 1,1 1,1 0 0 0 1,-1 1,1 0 0 0 -1,-1 z" color="#000"/><path style="-inkscape-stroke:none" fill="#a46868" fill-rule="evenodd" d="m 238,113 v 0" color="#000"/><path style="-inkscape-stroke:none" fill="#d8ecfe" fill-rule="evenodd" d="m 238,112 a 1,1 0 0 0 -1,1 1,1 0 0 0 1,1 1,1 0 0 0 1,-1 1,1 0 0 0 -1,-1 z" color="#000"/><path style="-inkscape-stroke:none" fill="#a46868" fill-rule="evenodd" d="m 244,125 v 0" color="#000"/><path style="-inkscape-stroke:none" fill="#d8ecfe" fill-rule="evenodd" d="m 244,124 a 1,1 0 0 0 -1,1 1,1 0 0 0 1,1 1,1 0 0 0 1,-1 1,1 0 0 0 -1,-1 z" color="#000"/><path fill="#d8ecfe" fill-rule="evenodd" d="m 233.32031,116.71289 c -0.57386,-0.15121 -1.17695,-0.15005 -1.75,0.004 -0.57303,0.15394 -1.09285,0.45473 -1.51367,0.87304 a 1,1 0 0 0 -0.006,1.41407 1,1 0 0 0 1.41406,0.004 c 0.16959,-0.16857 0.39408,-0.29734 0.625,-0.35937 0.23091,-0.062 0.48955,-0.0629 0.72071,-0.002 0.23121,0.0609 0.45652,0.18968 0.62695,0.35743 0.17042,0.16774 0.30068,0.39086 0.36523,0.62109 0.11455,0.40855 0.038,1.02581 -0.004,1.82422 -0.021,0.40132 -0.0219,0.85455 0.084,1.33984 0.10724,0.49157 0.32513,1.00622 0.73828,1.4336 0.34669,0.35861 0.78682,0.60531 1.27344,0.71484 0.48639,0.10939 0.98808,0.0739 1.45508,-0.10156 0.46688,-0.17552 0.86813,-0.47986 1.16211,-0.88281 0.29397,-0.40297 0.46173,-0.87876 0.48633,-1.37696 a 1,1 0 0 0 -0.94922,-1.04687 1,1 0 0 0 -1.04688,0.94922 c -0.005,0.10086 -0.0459,0.21527 -0.10547,0.29687 -0.0595,0.0816 -0.15546,0.15391 -0.25,0.18945 -0.0944,0.0355 -0.21568,0.0437 -0.31445,0.0215 -0.0985,-0.0222 -0.20324,-0.0817 -0.27344,-0.1543 -0.087,-0.09 -0.17649,-0.25717 -0.22265,-0.46875 -0.0475,-0.21784 -0.0557,-0.49123 -0.0391,-0.80859 0.0335,-0.63896 0.20568,-1.49335 -0.0684,-2.47071 -0.16019,-0.57133 -0.46581,-1.08964 -0.88868,-1.50585 -0.42287,-0.41622 -0.94572,-0.71413 -1.51953,-0.86524 z" color="#000"/></g></svg>