<svg xmlns="http://www.w3.org/2000/svg" width="64" height="64" viewBox="0 0 64 64"><g transform="translate(-96)"><path fill="#5b7fa0" fill-rule="evenodd" d="m 128.90193,16.90192 c -1.43933,0.831003 -1.92906,2.658739 -1.09808,4.098076 l 2.00001,3.464101 c 0.831,1.439332 2.65874,1.92908 4.09808,1.098075 1.43934,-0.830998 1.92907,-2.658741 1.09808,-4.098078 L 133,18 c -0.83099,-1.439339 -2.65872,-1.92908 -4.09807,-1.09808 z" color="#000"/><path fill="#ff435b" fill-rule="evenodd" d="m 132.18853,20.454686 c 4.78293,-2.761422 10.90605,-1.110148 13.67639,3.688222 l 4.53713,7.858544 -17.3205,9.999995 -4.53713,-7.858544 c -2.77034,-4.79837 -1.13882,-10.926791 3.64411,-13.688217 z"/><path fill="#5b7fa0" fill-rule="evenodd" d="m 147.2059,38.465554 c 1.10457,1.913171 0.44907,4.359532 -1.4641,5.4641 -1.91317,1.104571 -4.35954,0.44907 -5.4641,-1.464103 z" color="#000"/><path fill="#ff435b" fill-rule="evenodd" d="m 133.08154,42.001451 17.32051,-9.999999 4.59808,1.964104 -22.51666,13.000002 z"/><path fill="#5b7fa0" fill-rule="evenodd" d="m 126.90193,18.085037 c 1.43933,0.831003 1.92907,2.658739 1.09808,4.098076 L 126,25.647214 c -0.831,1.439332 -2.65874,1.92908 -4.09808,1.098075 -1.43933,-0.830998 -1.92907,-2.658741 -1.09808,-4.098078 l 2.00002,-3.464094 c 0.83099,-1.439339 2.65873,-1.92908 4.09807,-1.09808 z" color="#000"/><path style="-inkscape-stroke:none" fill="#5b7fa0" fill-rule="evenodd" d="m 115.72231,43.105703 c -1.10456,1.913173 -3.55093,2.568673 -5.4641,1.464101 -1.91317,-1.104568 -2.56867,-3.550929 -1.4641,-5.4641 z" color="#000"/><path fill="#ff435b" fill-rule="evenodd" d="m 105.59796,32.641601 17.32051,10.000003 0.59808,4.964105 -22.51667,-13.000003 z"/><path fill="#d8ecfe" fill-rule="evenodd" d="m 148.13281,28.072266 c -5.77349,3.333328 -11.54682,6.666671 -17.32031,10 l 2.26953,3.929687 17.32031,-10 z"/><path fill="#ff435b" fill-rule="evenodd" d="m 123.8115,21.094847 c 4.78293,2.761429 6.41444,8.889842 3.6441,13.688213 l -4.53713,7.858544 -17.3205,-9.999997 4.53713,-7.858543 c 2.77033,-4.79837 8.89347,-6.449643 13.6764,-3.688217 z"/><path fill="#d8ecfe" fill-rule="evenodd" d="m 108.87891,27.017578 -0.0488,0.02734 -3.23242,5.597656 17.32031,10 3.25586,-5.640625 -6.55469,-3.783203 -6.41016,-3.701172 z"/></g></svg>