<svg xmlns="http://www.w3.org/2000/svg" width="64" height="64" viewBox="0 0 64 64"><g transform="translate(-288 -96)"><path fill="#5b7fa0" fill-rule="evenodd" d="M297 147h45.99999c2.216 0 4 1.784 4 4 0 2.216-1.784 4.00001-4 4.00001H297c-2.216 0-4-1.78401-4-4.00001 0-2.216 1.784-4 4-4zM320.00001 109C332.70256 109.00001 343 119.29746 343 132.00001V147H297V132.00001C297 119.29746 307.29746 109 320.00001 109z"/><path fill="#d8ecfe" fill-rule="evenodd" d="M297 132.63038c.27626-1.19631 1.09596-2.25589 2.18453-2.8238 1.08856-.56791 2.42655-.63403 3.5658-.1762 1.02463.41177 1.84334 1.19774 2.7231 1.86514.43988.3337.90345.64258 1.4119.85783.50845.21525 1.066.33419 1.61523.27759.5486-.0565 1.0678-.28524 1.53299-.58147.46519-.29623.88297-.65985 1.30459-1.01535.42163-.35551.85202-.7064 1.33518-.97233.48315-.26594 1.02605-.44486 1.57738-.43104.5523.0138 1.08594.22021 1.55847.50645.47254.28624.89167.65112 1.30932 1.01277.41766.36165.83932.72407 1.3154 1.00437.47609.28029 1.01439.4768 1.56686.47679.55247-.00001 1.09075-.19653 1.56682-.47684.47608-.2803.89772-.64272 1.31537-1.00437.41764-.36165.83677-.72653 1.3093-1.01276.47253-.28624 1.00617-.49258 1.55846-.50641.55131-.0138 1.09419.16514 1.57731.43108.48312.26594.91349.61683 1.33509.97233.4216.35551.83936.71912 1.30453 1.01534.46517.29623.98435.52492 1.53293.58144.54919.0566 1.10671-.0624 1.61512-.27762.50841-.21526.97193-.52414 1.41178-.85784.87968-.6674 1.69831-1.45335 2.72287-1.8651 1.13916-.4578 2.47707-.39167 3.56552.17625 1.08846.56793 1.90803 1.6275 2.18415 2.82375v5.36925c-.27612-1.19625-1.09569-2.25582-2.18415-2.82375-1.08845-.56792-2.42636-.63405-3.56552-.17625-1.02456.41175-1.84319 1.1977-2.72287 1.8651-.43985.3337-.90337.64258-1.41178.85784-.50841.21525-1.06593.33421-1.61512.27762-.54858-.0565-1.06776-.28521-1.53293-.58144-.46517-.29622-.88293-.65983-1.30453-1.01534-.4216-.3555-.85197-.70639-1.33509-.97233-.48312-.26594-1.026-.44488-1.57731-.43108-.55229.0138-1.08593.22017-1.55846.50641-.47253.28623-.89166.65111-1.3093 1.01276-.41765.36165-.83929.72407-1.31537 1.00437-.47607.28031-1.01435.47683-1.56682.47684-.55247.00001-1.09077-.1965-1.56686-.47679-.47608-.2803-.89774-.64272-1.3154-1.00437-.41765-.36165-.83678-.72653-1.30932-1.01277-.47253-.28624-1.00617-.49261-1.55847-.50645-.55133-.0138-1.09423.1651-1.57738.43104-.48316.26593-.91355.61682-1.33518.97233-.42162.3555-.8394.71912-1.30459 1.01535-.46519.29623-.98439.52493-1.53299.58147-.54923.0566-1.10678-.0623-1.61523-.27759-.50845-.21525-.97202-.52413-1.4119-.85783-.87976-.6674-1.69847-1.45337-2.7231-1.86514-1.13925-.45783-2.47724-.39171-3.5658.1762-1.08857.56791-1.90827 1.62749-2.18453 2.8238zM297 141v6h46v-6z"/><path style="-inkscape-stroke:none" fill="#d8ecfe" fill-rule="evenodd" d="m 323.07853,115.52938 c -0.20203,0.11665 -2.32914,-0.47152 -2.55733,-0.42302 -0.22819,0.0485 -1.93217,1.451 -2.16419,1.42661 -0.232,-0.0244 -1.60715,-1.75051 -1.82028,-1.84539 -0.21311,-0.0949 -2.41603,0.0382 -2.5894,-0.11793 -0.17337,-0.1561 -0.2713,-2.36086 -0.38793,-2.56289 -0.11665,-0.20203 -1.97706,-1.38922 -2.02557,-1.61741 -0.0485,-0.22819 1.1682,-2.06944 1.19258,-2.30145 0.0244,-0.23201 -0.78291,-2.28599 -0.68802,-2.4991 0.0949,-0.21313 2.16147,-0.98757 2.31757,-1.16094 0.1561,-0.17337 0.71027,-2.30959 0.91232,-2.42623 0.20204,-0.11664 2.32915,0.47153 2.55733,0.42303 0.22819,-0.0485 1.93218,-1.451 2.16419,-1.42662 0.23201,0.0244 1.60716,1.75052 1.82028,1.8454 0.21312,0.0949 2.41604,-0.0382 2.58941,0.11792 0.17336,0.1561 0.27129,2.36086 0.38793,2.56289 0.11664,0.20204 1.97706,1.38923 2.02556,1.61741 0.0485,0.22819 -1.1682,2.06945 -1.19257,2.30145 -0.0244,0.23202 0.7829,2.286 0.68801,2.49911 -0.0949,0.21312 -2.16147,0.98757 -2.31757,1.16094 -0.1561,0.17336 -0.71027,2.30958 -0.91232,2.42622 z" color="#000"/></g></svg>