<svg xmlns="http://www.w3.org/2000/svg" width="64" height="64" viewBox="0 0 64 64"><g transform="translate(-384 -288)"><path fill="#f8d542" fill-rule="evenodd" d="m 389,309 v 20 h 54 c 0,-11.04569 -8.95431,-20 -20,-20 h -9 v 6 h -18 v -6 z"/><path fill="#f8d542" fill-rule="evenodd" d="m 409,308.5 a 5,5 0 0 1 -5,5 5,5 0 0 1 -5,-5 5,5 0 0 1 5,-5 5,5 0 0 1 5,5 z" color="#000"/><path style="-inkscape-stroke:none" fill="#374951" fill-rule="evenodd" d="m 400,329 h 3 v 5 h -3 z" color="#000"/><path fill="#374951" fill-rule="evenodd" d="m 429,329 h 3 v 5 h -3 z" color="#000"/><path fill="#374951" fill-rule="evenodd" d="M392.5 334h18c.831 0 1.5.669 1.5 1.5 0 .831-.669 1.5-1.5 1.5h-18c-.831 0-1.5-.669-1.5-1.5 0-.831.669-1.5 1.5-1.5zM421.5 334h18c.831 0 1.5.669 1.5 1.5 0 .831-.669 1.5-1.5 1.5h-18c-.831 0-1.5-.669-1.5-1.5 0-.831.669-1.5 1.5-1.5zM433 311.67969V312 322h8.73828C440.10519 317.63052 436.9883 313.98724 433 311.67969z"/><path fill="#374951" fill-rule="evenodd" d="M427 313a1 1 0 00-1 1v2a1 1 0 001 1 1 1 0 001-1v-2a1 1 0 00-1-1zM427 319a1 1 0 00-1 1v3a1 1 0 001 1 1 1 0 001-1v-3a1 1 0 00-1-1z" color="#000"/><path fill="#374951" fill-rule="evenodd" d="m 389,309 v 14 h 26.06641 C 418.34298,323 421,320.34298 421,317.06641 V 309 h -7 v 6 h -18 v -6 z"/><path style="-inkscape-stroke:none" fill="#f8d542" fill-rule="evenodd" d="m 400,318 a 1,1 0 0 0 -1,1 1,1 0 0 0 1,1 h 3 a 1,1 0 0 0 1,-1 1,1 0 0 0 -1,-1 z" color="#000"/><path fill="#f8d542" fill-rule="evenodd" d="m 409,318 a 1,1 0 0 0 -1,1 1,1 0 0 0 1,1 h 3 a 1,1 0 0 0 1,-1 1,1 0 0 0 -1,-1 z" color="#000"/><path fill="#374951" fill-rule="evenodd" d="M 406.98438,304.48828 404,308.5 l 4.32031,2.49414 A 5,5 0 0 0 409,308.5 a 5,5 0 0 0 -2.01562,-4.01172 z"/></g></svg>