<svg xmlns="http://www.w3.org/2000/svg" width="64" height="64" viewBox="0 0 64 64"><g transform="translate(-96 -672)"><path style="-inkscape-stroke:none" fill="#2d3c42" fill-rule="evenodd" d="M147 688a1 1 0 00-1 1 1 1 0 001 1h3v4a1 1 0 001 1 1 1 0 001-1v-5a1.0001 1.0001 0 00-1-1zM105 688a1.0001 1.0001 0 00-1 1v5a1 1 0 001 1 1 1 0 001-1v-4h3a1 1 0 001-1 1 1 0 00-1-1z" color="#000"/><path fill="#f8d542" fill-rule="evenodd" d="m 112.00001,679 h 32 a 3,3 45 0 1 3,3 v 41 a 3,3 135 0 1 -3,3 h -32 a 3,3 45 0 1 -3,-3 v -41 a 3,3 135 0 1 3,-3 z"/><path style="-inkscape-stroke:none" fill="#374951" fill-rule="evenodd" d="m 109.00001,687 h 38 v 28 h -38 z" color="#000"/><path style="-inkscape-stroke:none" fill="#2d3c42" fill-rule="evenodd" d="m 124,683 h 8 a 2,2 0 0 1 2,2 v 2 h -12 v -2 a 2,2 0 0 1 2,-2 z" color="#000"/><path style="-inkscape-stroke:none" fill="#2d3c42" fill-rule="evenodd" d="m 128,686 c -0.55228,0 -1,0.44772 -1,1 v 25.92607 c 0,0.55229 0.44772,1 1,1 0.55228,0 1,-0.44771 1,-1 V 687 c 0,-0.55228 -0.44772,-1 -1,-1 z" color="#000"/><path fill="#374951" fill-rule="evenodd" d="M123.99999 719h8v3h-8zM113.00001 719H117v3h-3.99999zM139 719h3.99999v3H139z"/><path style="-inkscape-stroke:none" fill="#374951" fill-rule="evenodd" d="m 119.00001,726 v 4 a 1,1 0 0 1 -1,1 H 114 a 1,1 0 0 1 -1,-1 v -4 z" color="#000"/><path fill="#374951" fill-rule="evenodd" d="M143.00001 726v4a1 1 135 01-1 1H138a1 1 45 01-1-1v-4zM146.99999 704V694H152a2 2 0 012 2v6a2 2 0 01-2 2z"/><path style="-inkscape-stroke:none" fill="#374951" fill-rule="evenodd" d="m 109,704 v -10 h -5 a 2.00001,2.00001 0 0 0 -2.00001,2.00001 v 5.99998 A 2.00001,2.00001 0 0 0 104,704 Z" color="#000"/><path style="-inkscape-stroke:none" fill="#d8ecfe" fill-rule="evenodd" d="M114 679v13.5c0 .831.669 1.5 1.5 1.5.831 0 1.5-.669 1.5-1.5v-4c0-.831.669-1.5 1.5-1.5.831 0 1.5.669 1.5 1.5v1c0 .831.669 1.5 1.5 1.5.831 0 1.5-.669 1.5-1.5V679zM128.5 708c-.831 0-1.5.669-1.5 1.5v5c0 .831.669 1.5 1.5 1.5h6.5c.831 0 1.5-.669 1.5-1.5 0-.831-.669-1.5-1.5-1.5h-5v-3.5c0-.831-.669-1.5-1.5-1.5zM100.98622 730.96281v0M100.98622 729.96281a1 1 0 00-1 1 1 1 0 001 1 1 1 0 001-1 1 1 0 00-1-1zM102.75067 714.44556v0M102.75067 713.44556a1 1 0 00-1 1 1 1 0 001 1 1 1 0 001-1 1 1 0 00-1-1zM152.46362 710.7207v0M152.46362 709.7207a1 1 0 00-1 1 1 1 0 001 1 1 1 0 001-1 1 1 0 00-1-1zM154.92505 730.96198v0M154.92505 729.96198a1 1 0 00-1 1 1 1 0 001 1 1 1 0 001-1 1 1 0 00-1-1zM154.90828 678.83586v0M154.90828 677.83586a1 1 0 00-1 1 1 1 0 001 1 1 1 0 001-1 1 1 0 00-1-1zM101.02916 677.04872v0M101.02916 676.04872a1 1 0 00-1 1 1 1 0 001 1 1 1 0 001-1 1 1 0 00-1-1zM119.07227 697.05469a1 1 0 00-.70704.29297l-3.83789 3.83593a1 1 0 000 1.41407 1 1 0 001.41407 0l3.83789-3.83594a1 1 0 000-1.41406 1 1 0 00-.70703-.29297zM119.91797 700.8457a1 1 0 00-.70703.29297l-3.83594 3.83789a1 1 0 000 1.41406 1 1 0 001.41406 0l3.83594-3.83789a1 1 0 000-1.41406 1 1 0 00-.70703-.29297zM137.91797 697.05469a1 1 0 00-.70703.29297l-3.83594 3.83593a1 1 0 000 1.41407 1 1 0 001.41406 0l3.83594-3.83594a1 1 0 000-1.41406 1 1 0 00-.70703-.29297zM138.76562 700.8457a1 1 0 00-.70703.29297l-3.83789 3.83789a1 1 0 000 1.41406 1 1 0 001.41407 0l3.83789-3.83789a1 1 0 000-1.41406 1 1 0 00-.70704-.29297zM141.88672 677a2 2 0 00-2 2 2 2 0 002 2H144c.57596 0 1 .42404 1 1v.97656a2 2 0 002 2 2 2 0 002-2V682c0-2.73773-2.26227-5-5-5z" color="#000"/></g></svg>