<svg xmlns="http://www.w3.org/2000/svg" width="64" height="64" viewBox="0 0 64 64"><g transform="translate(-384 -576)"><path style="-inkscape-stroke:none" fill="#85533f" fill-rule="evenodd" d="m 428,584 h 8 v 20 h -8 z" color="#000"/><path style="-inkscape-stroke:none" fill="#aa6a51" fill-rule="evenodd" d="m 416,585.60156 -20,16.66797 V 635 h 40 v -32.73047 z" color="#000"/><path fill="#d8ecfe" fill-rule="evenodd" d="m 415.54102,581.05078 c -0.30221,0.0711 -0.58372,0.21148 -0.82227,0.41016 l -24,20 c -0.84949,0.70732 -0.96409,1.96963 -0.25586,2.81836 0.70732,0.84949 1.96963,0.96409 2.81836,0.25586 L 399,599.76953 V 600.5 c 0,0.831 0.669,1.5 1.5,1.5 0.831,0 1.5,-0.669 1.5,-1.5 v -3 c 0,-0.0738 -0.005,-0.14592 -0.0156,-0.2168 L 416,585.60156 l 2,1.66602 V 590.5 c 0,0.831 0.669,1.5 1.5,1.5 0.831,0 1.5,-0.669 1.5,-1.5 v -0.73242 l 17.71875,14.76758 c 0.84873,0.70823 2.11104,0.59363 2.81836,-0.25586 0.70823,-0.84873 0.59363,-2.11104 -0.25586,-2.81836 l -24,-20 c -0.48329,-0.40279 -1.12793,-0.55473 -1.74023,-0.41016 z"/><path style="-inkscape-stroke:none" fill="#d8ecfe" fill-rule="evenodd" d="M393.55735 581.96818v0M393.55735 580.96818a1 1 0 00-1 1 1 1 0 001 1 1 1 0 001-1 1 1 0 00-1-1z" color="#000"/><path style="-inkscape-stroke:none" fill="#85533f" fill-rule="evenodd" d="m 421,600 a 5,5 0 0 1 -5,5 5,5 0 0 1 -5,-5 5,5 0 0 1 5,-5 5,5 0 0 1 5,5 z" color="#000"/><path fill="#85533f" fill-rule="evenodd" d="M396.5 610h39c1.939 0 3.5 1.561 3.5 3.5 0 1.939-1.561 3.5-3.5 3.5h-39c-1.939 0-3.5-1.561-3.5-3.5 0-1.939 1.561-3.5 3.5-3.5zM396.5 622h39c1.939 0 3.5 1.561 3.5 3.5 0 1.939-1.561 3.5-3.5 3.5h-39c-1.939 0-3.5-1.561-3.5-3.5 0-1.939 1.561-3.5 3.5-3.5zM427.5 581h9c.831 0 1.5.669 1.5 1.5 0 .831-.669 1.5-1.5 1.5h-9c-.831 0-1.5-.669-1.5-1.5 0-.831.669-1.5 1.5-1.5z"/><path fill="#d8ecfe" fill-rule="evenodd" d="M442.97933 585.23892v0M442.97933 584.23892a1 1 0 00-1 1 1 1 0 001 1 1 1 0 001-1 1 1 0 00-1-1zM389.03688 613.80926v0M389.03688 612.80926a1 1 0 00-1 1 1 1 0 001 1 1 1 0 001-1 1 1 0 00-1-1z" color="#000"/><path style="-inkscape-stroke:none" fill="#d8ecfe" fill-rule="evenodd" d="M391.44806 590.80331v0M391.44806 589.80331a1 1 0 00-1 1 1 1 0 001 1 1 1 0 001-1 1 1 0 00-1-1zM440.42844 595.58093v0M440.42844 594.58093a1 1 0 00-1 1 1 1 0 001 1 1 1 0 001-1 1 1 0 00-1-1zM442.00006 618.81902v0M442.00006 617.81902a1 1 0 00-1 1 1 1 0 001 1 1 1 0 001-1 1 1 0 00-1-1zM403.57632 581.6623v0M403.57632 580.6623a1 1 0 00-1 1 1 1 0 001 1 1 1 0 001-1 1 1 0 00-1-1z" color="#000"/><path fill="none" d="m 396.5,622 h 39 c 1.939,0 3.5,1.561 3.5,3.5 0,1.939 -1.561,3.5 -3.5,3.5 h -39 c -1.939,0 -3.5,-1.561 -3.5,-3.5 0,-1.939 1.561,-3.5 3.5,-3.5 z"/><path style="-inkscape-stroke:none" fill="#85533f" fill-rule="evenodd" d="m 408.99997,610 h 13 v 25 h -13 z" color="#000"/><path style="-inkscape-stroke:none" fill="#aa6a51" fill-rule="evenodd" d="m 418,620.5 a 1,1 0 0 0 -1,1 v 3 a 1,1 0 0 0 1,1 1,1 0 0 0 1,-1 v -3 a 1,1 0 0 0 -1,-1 z" color="#000"/><path style="-inkscape-stroke:none" fill="#d8ecfe" fill-rule="evenodd" d="M425.01568 610.5c0 .831.669 1.5 1.5 1.5h3.14924v6c0 .831.669 1.5 1.5 1.5.831 0 1.5-.669 1.5-1.5v-7.5c0-.831-.669-1.5-1.5-1.5h-4.64924c-.831 0-1.5.669-1.5 1.5zM410.25 581.50391c-.4605.003-.90871.16747-1.26562.46484l-7.88282 6.57031c-.84949.70732-.96409 1.96963-.25586 2.81836.70716.84822 1.96797.96276 2.81641.25586 1.1128-.92687 2.22525-1.85418 3.33789-2.78125v6.71491c0 .831.669 1.5 1.5 1.5.831 0 1.5-.669 1.5-1.5v-9.21491c.51557-.42975 1.03135-.85925 1.54688-1.28906.84822-.70716.96276-1.96797.25585-2.81641-.33934-.40806-.82695-.66452-1.35546-.71289-.0661-.006-.13148-.0103-.19727-.01z" color="#000"/></g></svg>