<svg xmlns="http://www.w3.org/2000/svg" width="64" height="64" viewBox="0 0 64 64"><g transform="translate(-191.99 -287.947)"><path fill="#374951" fill-rule="evenodd" d="m 268.78745,231.36819 h 51 c 0.831,0 1.5,0.669 1.5,1.5 0,0.831 -0.669,1.5 -1.5,1.5 h -51 c -0.831,0 -1.5,-0.669 -1.5,-1.5 0,-0.831 0.669,-1.5 1.5,-1.5 z" transform="rotate(15)"/><path style="-inkscape-stroke:none" fill="#374951" fill-rule="evenodd" d="m 220,303 c -0.55228,0 -1,0.44772 -1,1 v 4 c 6e-5,0.55226 0.44774,0.99994 1,1 h 3 v 6.77733 h 2 V 308 c -6e-5,-0.55226 -0.44774,-0.99994 -1,-1 h -3 v -3 c 0,-0.55228 -0.44772,-1 -1,-1 z" color="#000"/><path fill="#f8d542" fill-rule="evenodd" d="M225 299a5 5 0 01-5 5 5 5 0 01-5-5 5 5 0 015-5 5 5 0 015 5zM209 314h30c1.10457 0 2 .89543 2 2 0 7.66667 0 15.33333 0 23 0 4.41828-3.58172 8-8 8h-18c-4.41828 0-8-3.58172-8-8 0-7.66667 0-15.33333 0-23 0-1.10457.89543-2 2-2z"/><path fill="#374951" fill-rule="evenodd" d="m 207,318 v 16 h 11 v 5 c 0,1.65685 1.34315,3 3,3 h 6 c 1.65685,0 3,-1.34315 3,-3 v -5 h 11 v -16 c -11.33333,0 -22.66667,0 -34,0 z"/><path style="-inkscape-stroke:none" fill="#374951" fill-rule="evenodd" d="m 210,337 a 1,1 0 0 0 -1,1 1,1 0 0 0 1,1 h 4 a 1,1 0 0 0 1,-1 1,1 0 0 0 -1,-1 z" color="#000"/><path fill="#374951" fill-rule="evenodd" d="m 234,337 a 1,1 0 0 0 -1,1 1,1 0 0 0 1,1 h 4 a 1,1 0 0 0 1,-1 1,1 0 0 0 -1,-1 z" color="#000"/><rect width="5" height="16" x="218" y="318" fill="#d8ecfe" fill-rule="evenodd"/><rect width="5" height="16" x="225" y="318" fill="#d8ecfe" fill-rule="evenodd"/></g></svg>