<svg xmlns="http://www.w3.org/2000/svg" width="64" height="64" viewBox="0 0 64 64"><rect width="54" height="49" x="5" y="10" fill="#5b7fa0" fill-rule="evenodd"/><rect width="54" height="9" x="5" y="10" fill="#ff435b" fill-rule="evenodd"/><path style="-inkscape-stroke:none" fill="#5b7fa0" fill-rule="evenodd" d="M9 6A1 1 0 008 7v6a1 1 0 001 1 1 1 0 001-1V7A1 1 0 009 6zM18 6a1 1 0 00-1 1v6a1 1 0 001 1 1 1 0 001-1V7A1 1 0 0018 6zM28 6a1 1 0 00-1 1v6a1 1 0 001 1 1 1 0 001-1V7A1 1 0 0028 6zM37 6a1 1 0 00-1 1v6a1 1 0 001 1 1 1 0 001-1V7A1 1 0 0037 6zM46 6a1 1 0 00-1 1v6a1 1 0 001 1 1 1 0 001-1V7A1 1 0 0046 6zM55 6a1 1 0 00-1 1v6a1 1 0 001 1 1 1 0 001-1V7A1 1 0 0055 6z" color="#000"/><path style="-inkscape-stroke:none" fill="#abd6fd" fill-rule="evenodd" d="m 35.999994,39.465668 a 4,4 0 0 1 -4,4 4,4 0 0 1 -4,-4 4,4 0 0 1 4,-4 4,4 0 0 1 4,4 z" color="#000"/><path style="-inkscape-stroke:none" fill="#d8ecfe" fill-rule="evenodd" d="m 32,34.464844 c -2.749576,0 -5,2.250423 -5,5 0,2.749576 2.250424,5 5,5 2.749576,0 5,-2.250424 5,-5 0,-2.749577 -2.250424,-5 -5,-5 z m 0,2 c 1.668697,0 3,1.331303 3,3 0,1.668697 -1.331303,3 -3,3 -1.668697,0 -3,-1.331303 -3,-3 0,-1.668697 1.331303,-3 3,-3 z" color="#000"/><path style="-inkscape-stroke:none" fill="#d8ecfe" fill-rule="evenodd" d="m 32,22.464844 a 1,1 0 0 0 -1,1 v 12 a 1,1 0 0 0 1,1 1,1 0 0 0 1,-1 v -12 a 1,1 0 0 0 -1,-1 z" color="#000"/><path style="-inkscape-stroke:none" fill="#d8ecfe" fill-rule="evenodd" d="m 29.011719,23.931641 a 1,1 0 0 0 -0.710938,0.285156 1,1 0 0 0 -0.01563,1.414062 l 3,3.06836 a 1.0001,1.0001 0 0 0 1.429688,0 l 3,-3.06836 a 1,1 0 0 0 -0.01563,-1.414062 1,1 0 0 0 -1.414063,0.01563 L 32,26.570312 29.714844,24.232422 a 1,1 0 0 0 -0.703125,-0.300781 z" color="#000"/><path style="-inkscape-stroke:none" fill="#d8ecfe" fill-rule="evenodd" d="M29.011719 28.931641a1 1 0 00-.710938.285156 1 1 0 00-.01563 1.414062l3 3.06836a1.0001 1.0001 0 001.429688 0l3-3.06836a1 1 0 00-.01563-1.414062 1 1 0 00-1.414063.01563L32 31.570312 29.714844 29.232422a1 1 0 00-.703125-.300781zM36 38.464844a1 1 0 00-1 1 1 1 0 001 1h12a1 1 0 001-1 1 1 0 00-1-1z" color="#000"/><path style="-inkscape-stroke:none" fill="#d8ecfe" fill-rule="evenodd" d="M 46.544922,35.464844 A 1,1 0 0 0 45.835937,35.75 l -3.068359,3 a 1.0001,1.0001 0 0 0 0,1.431641 l 3.068359,3 A 1,1 0 0 0 47.25,43.164062 1,1 0 0 0 47.232422,41.75 l -2.335938,-2.285156 2.335938,-2.283203 A 1,1 0 0 0 47.25,35.767578 1,1 0 0 0 46.544922,35.464844 Z" color="#000"/><path style="-inkscape-stroke:none" fill="#d8ecfe" fill-rule="evenodd" d="M41.544922 35.464844A1 1 0 0040.835937 35.75l-3.068359 3a1.0001 1.0001 0 000 1.431641l3.068359 3A1 1 0 0042.25 43.164062 1 1 0 0042.232422 41.75l-2.335938-2.285156 2.335938-2.283203A1 1 0 0042.25 35.767578 1 1 0 0041.544922 35.464844zM32 42.464844a1 1 0 00-1 1v12a1 1 0 001 1 1 1 0 001-1v-12a1 1 0 00-1-1z" color="#000"/><path style="-inkscape-stroke:none" fill="#d8ecfe" fill-rule="evenodd" d="m 32,49.931641 a 1.0001,1.0001 0 0 0 -0.714844,0.300781 l -3,3.068359 a 1,1 0 0 0 0.01563,1.414063 1,1 0 0 0 1.414063,-0.01563 L 32,52.361328 l 2.285156,2.337891 a 1,1 0 0 0 1.414063,0.01563 1,1 0 0 0 0.01563,-1.414063 l -3,-3.068359 A 1.0001,1.0001 0 0 0 32,49.931641 Z" color="#000"/><path style="-inkscape-stroke:none" fill="#d8ecfe" fill-rule="evenodd" d="M32 44.931641a1.0001 1.0001 0 00-.714844.300781l-3 3.068359a1 1 0 00.01563 1.414063 1 1 0 001.414063-.01563L32 47.361328l2.285156 2.337891a1 1 0 001.414063.01563 1 1 0 00.01563-1.414063l-3-3.068359A1.0001 1.0001 0 0032 44.931641zM16.080078 38.464844a1 1 0 00-1 1 1 1 0 001 1H28a1 1 0 001-1 1 1 0 00-1-1z" color="#000"/><path style="-inkscape-stroke:none" fill="#d8ecfe" fill-rule="evenodd" d="M 17.455078,35.464844 A 1,1 0 0 0 16.75,35.767578 1,1 0 0 0 16.76758,37.181641 L 19.103516,39.464844 16.767578,41.75 a 1,1 0 0 0 -0.01758,1.414062 1,1 0 0 0 1.414062,0.01758 l 3.06836,-3 a 1.0001,1.0001 0 0 0 0,-1.431641 l -3.06836,-3 a 1,1 0 0 0 -0.708984,-0.285156 z" color="#000"/><path style="-inkscape-stroke:none" fill="#d8ecfe" fill-rule="evenodd" d="M23.164062 35.75A1 1 0 0021.75 35.76758 1 1 0 0021.76758 37.181643L24.103516 39.464844 21.767578 41.75a1 1 0 00-.01758 1.414062 1 1 0 001.414062.01758l3.06836-3a1.0001 1.0001 0 000-1.431641zM40 27.464844a1 1 0 00-1 1v3a1.0001 1.0001 0 001 1h3a1 1 0 001-1 1 1 0 00-1-1h-2v-2a1 1 0 00-1-1zM24 27.464844a1 1 0 00-1 1v2h-2a1 1 0 00-1 1 1 1 0 001 1h3a1.0001 1.0001 0 001-1v-3a1 1 0 00-1-1zM40 46.464844a1.0001 1.0001 0 00-1 1v3a1 1 0 001 1 1 1 0 001-1v-2h2a1 1 0 001-1 1 1 0 00-1-1zM21 46.464844a1 1 0 00-1 1 1 1 0 001 1h2v2a1 1 0 001 1 1 1 0 001-1v-3a1.0001 1.0001 0 00-1-1zM51.8895 27.99996v0M51.8895 26.99996a1 1 0 00-1 1 1 1 0 001 1 1 1 0 001-1 1 1 0 00-1-1zM13.14313 26.46565v0M13.14313 25.46565a1 1 0 00-1 1 1 1 0 001 1 1 1 0 001-1 1 1 0 00-1-1zM10 47.96567v0M10 46.96567a1 1 0 00-1 1 1 1 0 001 1 1 1 0 001-1 1 1 0 00-1-1zM46.53433 53.72052v0M46.53433 52.72052a1 1 0 00-1 1 1 1 0 001 1 1 1 0 001-1 1 1 0 00-1-1z" color="#000"/></svg>