<svg xmlns="http://www.w3.org/2000/svg" width="64" height="64" viewBox="0 0 64 64"><g transform="translate(0 -672)"><path fill="#f8d542" fill-rule="evenodd" d="m 12,702.75 h 40 a 5,5 45 0 1 5,5 v 10 H 7.0000001 v -10 A 5,5 135 0 1 12,702.75 Z"/><path style="-inkscape-stroke:none" fill="#5b7fa0" fill-rule="evenodd" d="M53 707.74998h4v4h-4a2 2 0 01-2-2 2 2 0 012-2zM9 711.74998H7v-4h2c1.104569 0 2 .89543 2 2 0 1.10457-.895431 2-2 2z" color="#000"/><path style="-inkscape-stroke:none" fill="#a46868" fill-rule="evenodd" d="M7.999992 717.75H5M59 717.75H56.000008" color="#000"/><path fill="#374951" fill-rule="evenodd" d="m 19.11127,688.75 h 20.77746 c 1.785233,0 3.2988,1.31271 3.55127,3.08 L 45,702.75 H 14 l 1.56,-10.92 c 0.25247,-1.76729 1.766037,-3.08 3.55127,-3.08 z"/><path fill="#d8ecfe" fill-rule="evenodd" d="M58 677.68681v0M58 676.68681a1 1 0 00-1 1 1 1 0 001 1 1 1 0 001-1 1 1 0 00-1-1z" color="#000"/><path style="-inkscape-stroke:none" fill="#d8ecfe" fill-rule="evenodd" d="M53.962891 688.59766a1 1 0 000 1.41406l1.414062 1.41406a1 1 0 001.414063 0 1 1 0 000-1.41406l-1.414063-1.41406a1 1 0 00-1.414062 0zM49.720703 684.35547a1 1 0 000 1.41406l1.414063 1.41406a1 1 0 001.414062 0 1 1 0 000-1.41406l-1.414062-1.41406a1 1 0 00-1.414063 0zM51.134766 688.59766l-1.414063 1.41406a1 1 0 000 1.41406 1 1 0 001.414063 0l1.414062-1.41406a1 1 0 000-1.41406 1 1 0 00-1.414062 0zM55.376953 684.35547l-1.414062 1.41406a1 1 0 000 1.41406 1 1 0 001.414062 0l1.414063-1.41406a1 1 0 000-1.41406 1 1 0 00-1.414063 0zM28.7761 680.77924v0M28.7761 679.77924a1 1 0 00-1 1 1 1 0 001 1 1 1 0 001-1 1 1 0 00-1-1zM35.466797 726.01953l-1.931641.51758a1 1 0 00-.707031 1.22461 1 1 0 001.224609.70703l1.931641-.51758a1 1 0 00.707031-1.22461 1 1 0 00-1.224609-.70703zM29.671875 727.57227l-1.931641.51757a1 1 0 00-.708984 1.22461 1 1 0 001.226562.70703l1.931641-.51757a1 1 0 00.707031-1.22461 1 1 0 00-1.224609-.70703zM32.121094 728.98633a1 1 0 00-.707032 1.22461l.517579 1.93164a1 1 0 001.224609.70703 1 1 0 00.707031-1.22461l-.517578-1.93164a1 1 0 00-1.224609-.70703zM30.568359 723.19141a1 1 0 00-.707031 1.22461l.517578 1.93164a1 1 0 001.22461.70703 1 1 0 00.707031-1.22461l-.517578-1.93164a1 1 0 00-1.22461-.70703zM8.25723 679.63448v0M8.25723 678.63448a1 1 0 00-1 1 1 1 0 001 1 1 1 0 001-1 1 1 0 00-1-1zM5.94161 692.28129v0M5.94161 691.28129a1 1 0 00-1 1 1 1 0 001 1 1 1 0 001-1 1 1 0 00-1-1zM8.96231 728.92503v0M8.96231 727.92503a1 1 0 00-1 1 1 1 0 001 1 1 1 0 001-1 1 1 0 00-1-1zM54.83921 726.76973v0M54.83921 725.76973a1 1 0 00-1 1 1 1 0 001 1 1 1 0 001-1 1 1 0 00-1-1z" color="#000"/><path style="-inkscape-stroke:none" fill="#374951" fill-rule="evenodd" d="M23 716.75a4 4 0 01-4 4 4 4 0 01-4-4 4 4 0 014-4 4 4 0 014 4zM49 716.75a4 4 0 01-4 4 4 4 0 01-4-4 4 4 0 014-4 4 4 0 014 4z" color="#000"/><path style="-inkscape-stroke:none" fill="#5b7fa0" fill-rule="evenodd" d="m 30,707.75 h 4 c 0.831,0 1.5,0.669 1.5,1.5 0,0.831 -0.669,1.5 -1.5,1.5 h -4 c -0.831,0 -1.5,-0.669 -1.5,-1.5 0,-0.831 0.669,-1.5 1.5,-1.5 z" color="#000"/><path style="-inkscape-stroke:none" fill="#d8ecfe" fill-rule="evenodd" d="M21 688.75v9c0 .831.669 1.5 1.5 1.5.831 0 1.5-.669 1.5-1.5v-4c0-.831.669-1.5 1.5-1.5.831 0 1.5.669 1.5 1.5v1c0 .831.669 1.5 1.5 1.5.831 0 1.5-.669 1.5-1.5v-6zM35.974609 686.75a2 2 0 00-2 2 2 2 0 002 2h3.914063c.804811 0 1.458448.56656 1.572265 1.36328l.296875 2.08789a2 2 0 002.263672 1.69531 2 2 0 001.697266-2.26171l-.298828-2.0879C45.0288 688.80902 42.654323 686.75 39.888672 686.75zM38.5 700.75c-.830999 0-1.5.669-1.5 1.5v3.5c0 .831.669001 1.5 1.5 1.5.830999 0 1.5-.669 1.5-1.5v-2h5.5c.830999 0 1.5-.669 1.5-1.5 0-.831-.669001-1.5-1.5-1.5z" color="#000"/></g></svg>