<svg xmlns="http://www.w3.org/2000/svg" width="64" height="64" viewBox="0 0 64 64"><g transform="translate(-288)"><path fill="#374951" fill-rule="evenodd" d="M345.01758 45.775391c-1.64501 0-3 1.354993-3 3 0 1.645006 1.35499 3 3 3 1.64501 0 3-1.354994 3-3 0-1.645007-1.35499-3-3-3zm0 2c.56413 0 1 .435871 1 1 0 .564127-.43587 1-1 1-.56413 0-1-.435873-1-1 0-.564129.43587-1 1-1zM327.80664 45.162109c-.2283 0-.4566.0149-.68359.04492a1 1 0 00-.86133 1.123047 1 1 0 001.12305.859375c.27918-.03692.56457-.03692.84375 0 .3226.04267.62337.135168.875.271485.24912.134962.4597.319997.5957.523437.13344.199604.20437.438385.20117.640625-.003.196172-.0845.396844-.19141.513672-.0735.08031-.19388.167022-.34765.232422-.15633.06649-.35162.115209-.57813.15039-.45436.07057-1.041.06628-1.72656.203125-1.11132.221822-2.12648.804949-2.87891 1.652344-.7524.847401-1.21004 1.924938-1.29882 3.054688-.0888 1.12977.19581 2.264239.80664 3.21875.61083.954514 1.52291 1.689358 2.58593 2.082031 1.06304.39267 2.2337.427835 3.31836.09961 1.08467-.328221 2.03811-1.005697 2.70508-1.921875.66698-.916178 1.01891-2.032981.99805-3.166015-.0209-1.132988-.41301-2.23594-1.11328-3.126953a1 1 0 00-1.4043-.167969 1 1 0 00-.16797 1.404297c.42449.540112.67287 1.240813.68555 1.927734.0126.686875-.21091 1.39578-.61524 1.951172-.40432.555391-1.01044.986575-1.66796 1.185547-.65754.198973-1.4005.175542-2.04493-.0625-.64442-.238042-1.2254-.704557-1.5957-1.283203-.3703-.578649-.54991-1.299523-.49609-1.984375.0538-.684876.34466-1.369108.80078-1.882813.45613-.513707 1.10169-.883108 1.77539-1.017578.42304-.08444.97793-.08652 1.64062-.189453.33204-.05157.69088-.132381 1.05469-.287109.36637-.155817.73295-.38398 1.04102-.720704.47197-.51588.70404-1.172716.71484-1.833984.0104-.6552-.1959-1.269889-.53906-1.783203-.34058-.509479-.7998-.898356-1.30469-1.171875-.50238-.272164-1.03887-.424368-1.56641-.494141-.22699-.03002-.45529-.04492-.68359-.04492zM336.42383 36.179688a1 1 0 00-1 1v1.386718h-1.38672a1 1 0 00-1 1 1 1 0 001 1h1.38672v1.386719a1 1 0 001 1 1 1 0 001-1v-1.386719h1.38672a1 1 0 001-1 1 1 0 00-1-1h-1.38672v-1.386718a1 1 0 00-1-1zM339.62695 26.074219c-4.56744.0872-8.40516 1.831957-11.30468 3.898437-4.41833 3.148923-6.82227 7.06836-6.82227 7.06836a1 1 0 00.32812 1.376953 1 1 0 001.375-.328125c0 0 2.21943-3.594819 6.2793-6.488282 4.05988-2.893461 9.79515-5.06148 17.17774-2.240234a1 1 0 001.29101-.576172 1 1 0 00-.57617-1.291015c-2.0092-.767816-3.92837-1.194026-5.74609-1.351563-.68165-.05908-1.34946-.08082-2.00196-.06836zM335.43555 17.988281a1 1 0 00-.70703.292969 1 1 0 000 1.414062l.98046.980469-.98046.980469a1 1 0 000 1.414062 1 1 0 001.41406 0l.98047-.980468.98047.980468a1 1 0 001.41406 0 1 1 0 000-1.414062l-.98047-.980469.98047-.980469a1 1 0 000-1.414062 1 1 0 00-.70703-.292969 1 1 0 00-.70703.292969l-.98047.980469-.98047-.980469a1 1 0 00-.70703-.292969zM310.21289 15.603516c-1.64501 0-3 1.354993-3 3 0 1.645006 1.35499 3 3 3 1.64501 0 3-1.354994 3-3 0-1.645007-1.35499-3-3-3zm0 2c.56413 0 1 .435871 1 1 0 .564127-.43587 1-1 1-.56413 0-1-.435873-1-1 0-.564129.43587-1 1-1zM332.38672 8.0546875a1 1 0 00-1.08789.9023437c0 0-.40207 4.2050908-2.76367 8.5957028-2.36162 4.390614-6.54695 8.87279-14.41602 9.607422a1 1 0 00-.90234 1.087891 1 1 0 001.08789.902344c8.5664-.799735 13.42207-5.872135 15.99219-10.650391 2.57012-4.778256 2.99218-9.3574219 2.99218-9.3574219a1 1 0 00-.90234-1.0878906zM323.25391 7.8359375a1 1 0 00-1 1v1.3867185h-1.38672a1 1 0 00-1 1 1 1 0 001 1h1.38672v1.386719a1 1 0 001 1 1 1 0 001-1v-1.386719h1.38671a1 1 0 001-1 1 1 0 00-1-1h-1.38671V8.8359375a1 1 0 00-1-1zM343.42773 7.7519531c-1.98554 0-3.61718 1.6316328-3.61718 3.6171879 0 1.985554 1.63164 3.617187 3.61718 3.617187 1.98556 0 3.61719-1.631633 3.61719-3.617187 0-1.9855551-1.63163-3.6171879-3.61719-3.6171879zm0 2c.90468 0 1.61719.7125109 1.61719 1.6171879 0 .904676-.71251 1.617187-1.61719 1.617187-.90466 0-1.61718-.712511-1.61718-1.617187 0-.904677.71252-1.6171879 1.61718-1.6171879zM300.14648 4c-.29365.00111-.58653.040215-.87304.1171875-.57304.1539435-1.09481.4527819-1.51563.8710937a1 1 0 00-.004 1.4160157 1 1 0 001.41406.00391c.16958-.1685702.39407-.2973377.625-.359375.23092-.062037.48947-.062852.7207-.00195.23123.060896.45458.1877276.625.3554688.17042.1677397.30264.3908671.36719.6210937.11455.4085372.0381 1.0258148-.004 1.8242187-.021.4013199-.0238.8545482.082 1.3398439.10725.491566.32514 1.00622.73829 1.433594.34668.358619.7868.605319 1.27343.714844.48664.109523.99012.07591 1.45703-.09961.46691-.175517.86814-.481811 1.16211-.884766.29399-.402969.46173-.876806.48633-1.3749996A1 1 0 00305.75173 8.9277413 1 1 0 00304.7029 9.87696c-.005.1008624-.046.215301-.10546.296875-.0595.08159-.15549.153923-.25.189453-.0945.03554-.21398.04365-.3125.02149-.0985-.02217-.20325-.08169-.27344-.154297-.0871-.09005-.1765-.2571771-.22266-.4687503-.0475-.217842-.0576-.491234-.041-.8085938.0335-.6389553.20761-1.4933521-.0664-2.4707031C303.27145 5.911091 302.96388 5.3927834 302.54102 4.9765625 302.11814 4.5603432 301.59528 4.2624414 301.02148 4.1113281 300.73459 4.0357738 300.44014 3.9988895 300.14648 4z" color="#000"/><path fill="#ff435b" fill-rule="evenodd" d="M 292.98258,57.795906 320.9645,45.317622 305.46086,29.813979 Z"/><path fill="#d8ecfe" fill-rule="evenodd" d="M300.0625 41.917969l-7.08007 15.878903 16.3457-7.289062c-1.83865-1.010682-3.92474-2.637077-5.85157-4.562493-1.30045-1.301869-2.47438-2.687027-3.41406-4.027348zM320.96444 45.317611a10.962679 3.50108 45 01-10.22743-5.276148 10.962679 3.50108 45 01-5.27614-10.227423 10.962679 3.50108 45 0110.22742 5.276148 10.962679 3.50108 45 015.27615 10.227423z"/></g></svg>