<svg xmlns="http://www.w3.org/2000/svg" width="64" height="64" viewBox="0 0 64 64"><g transform="translate(0 -192)"><path fill="#d8ecfe" fill-rule="evenodd" d="M 28.800781,197.06055 A 13.199402,13.199402 0 0 0 15.935547,207.4668 9.8006029,9.8006029 0 0 0 14.800781,207.39844 9.8006029,9.8006029 0 0 0 4.9999998,217.19922 9.8006029,9.8006029 0 0 0 14.800781,227 9.8006029,9.8006029 0 0 0 16.646484,226.80273 9.8006029,9.8006029 0 0 0 22.800781,229 9.8006029,9.8006029 0 0 0 30.373047,225.39648 9.8006029,9.8006029 0 0 0 37,228 9.8006029,9.8006029 0 0 0 43.517578,225.50586 10.199409,10.199409 0 0 0 48.800781,227 10.199409,10.199409 0 0 0 59,216.80078 10.199409,10.199409 0 0 0 48.855469,206.60352 9.8006029,9.8006029 0 0 0 40,201 a 9.8006029,9.8006029 0 0 0 -1.648438,0.1543 13.199402,13.199402 0 0 0 -9.550781,-4.09375 z"/><path fill="#374951" fill-rule="evenodd" d="M10.478912 231.00742c-.449908-.12056-.8994419.14291-1.0554362.30853-.1559908.16563-.203991.28363-.2517446.38916-.095499.21107-.144089.39197-.1972178.60331-.1062704.42268-.199823.93255-.2930069 1.44109-.024365.13296-.046263.22639-.070387.35629-.00294.009-.0054.0176-.00859.0267-.00714-.006-.013502-.0124-.020677-.0189-.085821-.10047-.1515287-.1704-.2391013-.27337-.3349702-.39381-.6709285-.78861-.9742992-1.10152-.1516629-.1565-.2842223-.28883-.4724532-.42388-.094125-.0675-.1947105-.14567-.4125745-.21118-.217914-.0654-.7389507-.0688-1.0683077.26052-.3293569.32936-.3265034.85146-.2610697 1.06937.065438.21791.1431055.31842.2106239.41254.1350386.18823.2675694.3209.4240252.47259.3129166.30338.7072793.63679 1.1010979.97175.1014658.0863.1702807.15201.2693125.23667.00772.009.016052.0162.023752.0253-.012188.005-.023566.007-.035638.0109-.1272842.0236-.2187565.0453-.3489193.0692-.5085397.0932-1.0159353.18627-1.4386193.29255-.2113375.0531-.3939991.10094-.6050631.19643-.105524.0477-.2214212.0964-.3870404.25241-.1656277.15599-.4297667.6052-.3092161 1.05511.1205516.44991.5739139.70686.7953411.75915.2214121.0523.3461241.0365.4613918.0251.2305363-.0228.4126291-.0728.622223-.13241.419187-.11931.9051473-.29239 1.3921498-.46596.1246394-.0444.2147152-.0713.3367647-.11454.012401-.002.023818-.006.036377-.008-.00222.0117-.00598.022-.00811.0336-.043451.12282-.070164.21415-.1148898.33962-.1735737.48699-.3483894.97292-.4676986 1.3921-.059658.20959-.1080887.39076-.1309226.6213-.011412.11527-.028421.24115.023863.46257.052286.22143.3108686.67502.7607829.79557.4499085.12056.8994424-.14291 1.0554358-.30854.1559908-.16562.203991-.28362.2517447-.38915.095499-.21107.144089-.39197.1972178-.60331.1062703-.42268.1998229-.93256.2930069-1.4411.024365-.13296.046263-.22639.070387-.35629.00294-.009.0054-.0175.00859-.0267.00714.006.013502.0124.020677.0189.085821.10047.1515287.17039.2391012.27336.3349701.39382.6709281.78861.9742991 1.10153.151663.1565.284222.28883.472458.42387.09413.0675.19471.14567.412574.21118.217914.0654.738951.0688 1.068308-.26052.329357-.32936.326504-.85146.26107-1.06938-.06544-.2179-.143106-.31841-.210625-.41253-.135038-.18824-.267569-.32091-.424024-.4726-.312917-.30337-.70728-.63678-1.101098-.97174-.101466-.0863-.170281-.15201-.269313-.23667-.0077-.009-.01605-.0162-.02375-.0253.01219-.005.02357-.007.03564-.011.127284-.0236.218751-.0453.348914-.0692.50854-.0932 1.015935-.18626 1.438619-.29254.211338-.0531.393999-.10094.605062-.19644.105525-.0477.221423-.0964.387042-.2524.165627-.156.429766-.6052.309216-1.05511-.120552-.44991-.573914-.70686-.795341-.75915-.221412-.0523-.346124-.0365-.461393-.0251-.230535.0228-.412628.0727-.622222.13241-.419187.11931-.905147.29238-1.39215.46596-.124639.0444-.214715.0713-.336765.11454-.0124.002-.02382.006-.03638.008.0022-.0117.006-.022.0081-.0336.04345-.12282.07016-.21415.11489-.33962.173574-.487.348389-.97292.467698-1.39211.05966-.20959.108089-.39075.130923-.62129.01141-.11527.02842-.24115-.02386-.46258-.05229-.22143-.310869-.67502-.760783-.79557zM25.643867 235.07745c-.44991.12055-.707482.57349-.759766.79492-.05228.22143-.03485.34762-.02344.46289.02283.23054.0712.4115.130859.62109.119309.41919.293227.90753.466797 1.39453.04538.12733.07313.21919.117188.34375.0018.009.0041.0179.0059.0274-.0094-.002-.0179-.004-.02734-.006-.124559-.0441-.216424-.0718-.34375-.11719-.487001-.17357-.975345-.34749-1.394531-.4668-.209593-.0597-.390557-.10802-.621094-.13086-.115268-.0114-.24146-.0288-.46289.0234-.22143.0523-.674369.30986-.794922.75977-.120553.44991.142971.90064.308594 1.05664.165622.15599.283139.2042.388671.25195.211066.0955.392176.14413.603516.19727.42268.10627.930913.19783 1.439453.29101.131019.024.22347.0465.351563.0703.01122.004.022.006.0332.01-.0083.01-.01705.0176-.02539.0273-.09842.0841-.166781.14864-.267578.23438-.393816.33497-.786692.66928-1.099609.97266-.156459.15168-.290741.28442-.425782.47265-.06752.0941-.143548.19421-.208984.41211-.06544.21791-.06959.739.259766 1.06836.329357.32936.850453.3252 1.068359.25977.217906-.0654.317992-.14147.412109-.20899.188235-.13504.320971-.26932.472657-.42578.303371-.31292.637686-.70579.972656-1.09961.08573-.10079.150273-.16915.234375-.26758.0097-.008.01763-.0171.02734-.0254.0039.0112.0058.022.0098.0332.02378.12809.04631.22054.07031.35156.09318.50854.184747 1.01677.291015 1.43945.05313.21134.101771.39245.197266.60352.04775.10553.09596.22305.251953.38867.155995.16562.60673.42915 1.056641.30859.44991-.12055.707482-.57349.759765-.79492.05228-.22143.03485-.34762.02344-.46289-.02283-.23054-.0712-.4115-.130859-.62109-.119309-.41919-.293227-.90753-.466797-1.39453-.04538-.12733-.07313-.21919-.117188-.34375-.0018-.009-.0041-.0179-.0059-.0274.0094.002.0179.004.02734.006.124559.0441.216424.0718.34375.11719.487001.17357.975345.34749 1.394531.4668.209593.0597.390557.10802.621094.13085.115268.0114.24146.0288.46289-.0234.22143-.0523.674369-.30986.794922-.75977.120553-.44991-.142971-.90064-.308594-1.05664-.165622-.15599-.283139-.2042-.388672-.25195-.211065-.0955-.392175-.14413-.603515-.19727-.42268-.10627-.930913-.19783-1.439453-.29101-.131019-.024-.22347-.0465-.351563-.0703-.01122-.004-.022-.006-.0332-.01.0083-.01.01705-.0176.02539-.0273.09842-.0841.166781-.14863.267578-.23437.393816-.33497.786692-.66928 1.099609-.97266.156459-.15168.290741-.28442.425781-.47265.06752-.0941.143549-.19421.208985-.41211.06544-.21791.06959-.739-.259766-1.06836-.329357-.32936-.850453-.3252-1.068359-.25977-.217906.0654-.317992.14147-.41211.20899-.188234.13504-.32097.26932-.472656.42578-.303371.31292-.637686.70579-.972656 1.09961-.08573.10079-.150273.16915-.234375.26758-.0097.008-.01763.0171-.02734.0254-.0039-.0112-.0058-.022-.0098-.0332-.02378-.12809-.04631-.22054-.07031-.35156-.09318-.50854-.184747-1.01677-.291016-1.43945-.05313-.21134-.10177-.39245-.197265-.60352-.04775-.10553-.09596-.22305-.251953-.38867-.155995-.16562-.60673-.42915-1.056641-.30859zM52.863038 231.45873c-.44991.12055-.707482.57349-.759766.79492-.05228.22143-.03485.34762-.02344.46289.02283.23054.0712.4115.130859.62109.119309.41919.293227.90753.466797 1.39453.04538.12733.07313.21919.117188.34375.0018.009.0041.0179.0059.0274-.0094-.002-.0179-.004-.02734-.006-.124559-.0441-.216424-.0718-.34375-.11719-.487001-.17357-.975345-.34749-1.394531-.4668-.209593-.0597-.390557-.10802-.621094-.13086-.115268-.0114-.24146-.0288-.46289.0234-.22143.0523-.674369.30986-.794922.75977-.120553.44991.142971.90064.308594 1.05664.165622.15599.283139.2042.388671.25195.211066.0955.392176.14413.603516.19727.42268.10627.930913.19783 1.439453.29101.131019.024.22347.0465.351563.0703.01122.004.022.006.0332.01-.0083.01-.01705.0176-.02539.0273-.09842.0841-.166781.14864-.267578.23438-.393816.33497-.786692.66928-1.099609.97266-.156459.15168-.290741.28442-.425782.47265-.06752.0941-.143548.19421-.208984.41211-.06544.21791-.06959.739.259766 1.06836.329357.32936.850453.3252 1.068359.25977.217906-.0654.317992-.14147.412109-.20899.188235-.13504.320971-.26932.472657-.42578.303371-.31292.637686-.70579.972656-1.09961.08573-.10079.150273-.16915.234375-.26758.0097-.008.01763-.0171.02734-.0254.0039.0112.0058.022.0098.0332.02378.12809.04631.22054.07031.35156.09318.50854.184747 1.01677.291015 1.43945.05313.21134.101771.39245.197266.60352.04775.10553.09596.22305.251953.38867.155995.16562.60673.42915 1.056641.30859.44991-.12055.707482-.57349.759765-.79492.05228-.22143.03485-.34762.02344-.46289-.02283-.23054-.0712-.4115-.130859-.62109-.119309-.41919-.293227-.90753-.466797-1.39453-.04538-.12733-.07313-.21919-.117188-.34375-.0018-.009-.0041-.0179-.0059-.0274.0094.002.0179.004.02734.006.124559.0441.216424.0718.34375.11719.487001.17357.975345.34749 1.394531.4668.209593.0597.390557.10802.621094.13085.115268.0114.24146.0288.46289-.0234.22143-.0523.674369-.30986.794922-.75977.120553-.44991-.142971-.90064-.308594-1.05664-.165622-.15599-.283139-.2042-.388672-.25195-.211065-.0955-.392175-.14413-.603515-.19727-.42268-.10627-.930913-.19783-1.439453-.29101-.131019-.024-.22347-.0465-.351563-.0703-.01122-.004-.022-.006-.0332-.01.0083-.01.01705-.0176.02539-.0273.09842-.0841.166781-.14863.267578-.23437.393816-.33497.786692-.66928 1.099609-.97266.156459-.15168.290741-.28442.425781-.47265.06752-.0941.143549-.19421.208985-.41211.06544-.21791.06959-.739-.259766-1.06836-.329357-.32936-.850453-.3252-1.068359-.25977-.217906.0654-.317992.14147-.41211.20899-.188234.13504-.32097.26932-.472656.42578-.303371.31292-.637686.70579-.972656 1.09961-.08573.10079-.150273.16915-.234375.26758-.0097.008-.01763.0171-.02734.0254-.0039-.0112-.0058-.022-.0098-.0332-.02378-.12809-.04631-.22054-.07031-.35156-.09318-.50854-.184747-1.01677-.291016-1.43945-.05313-.21134-.10177-.39245-.197265-.60352-.04775-.10553-.09596-.22305-.251953-.38867-.155995-.16562-.60673-.42915-1.05664-.30859z" color="#000"/><path style="-inkscape-stroke:none" fill="#374951" fill-rule="evenodd" d="m 46.053958,241.63264 c -0.449909,-0.12056 -0.899443,0.14292 -1.055437,0.30854 -0.155991,0.16562 -0.203991,0.28362 -0.251745,0.38915 -0.0955,0.21107 -0.144089,0.39197 -0.197218,0.60331 -0.10627,0.42268 -0.199822,0.93256 -0.293006,1.4411 -0.02436,0.13296 -0.04626,0.22639 -0.07039,0.35629 -0.0029,0.009 -0.0054,0.0175 -0.0086,0.0267 -0.0071,-0.006 -0.0135,-0.0124 -0.02068,-0.0189 -0.08582,-0.10047 -0.151529,-0.17039 -0.239101,-0.27336 -0.334971,-0.39382 -0.670929,-0.78861 -0.9743,-1.10153 -0.151663,-0.1565 -0.284222,-0.28883 -0.472453,-0.42387 -0.09412,-0.0675 -0.19471,-0.14568 -0.412574,-0.21118 -0.217914,-0.0654 -0.738951,-0.0688 -1.068308,0.26051 -0.329357,0.32936 -0.326504,0.85147 -0.26107,1.06938 0.06544,0.2179 0.143106,0.31841 0.210624,0.41253 0.135039,0.18824 0.267569,0.32091 0.424025,0.4726 0.312917,0.30337 0.70728,0.63678 1.101098,0.97175 0.101466,0.0863 0.170281,0.152 0.269313,0.23666 0.0077,0.009 0.01605,0.0162 0.02375,0.0253 -0.01219,0.005 -0.02357,0.007 -0.03564,0.0109 -0.127284,0.0236 -0.218756,0.0453 -0.348919,0.0692 -0.50854,0.0932 -1.015935,0.18627 -1.438619,0.29254 -0.211338,0.0531 -0.393999,0.10095 -0.605063,0.19644 -0.105524,0.0477 -0.221422,0.0964 -0.387041,0.2524 -0.165628,0.156 -0.429767,0.6052 -0.309216,1.05511 0.120552,0.44992 0.573914,0.70686 0.795341,0.75915 0.221412,0.0523 0.346124,0.0365 0.461392,0.0251 0.230536,-0.0228 0.412629,-0.0727 0.622223,-0.1324 0.419187,-0.11932 0.905147,-0.29239 1.39215,-0.46597 0.124639,-0.0444 0.214715,-0.0713 0.336764,-0.11454 0.0124,-0.002 0.02382,-0.006 0.03638,-0.008 -0.0022,0.0117 -0.006,0.022 -0.0081,0.0337 -0.04345,0.12281 -0.07016,0.21414 -0.11489,0.33961 -0.173574,0.487 -0.348389,0.97292 -0.467699,1.39211 -0.05966,0.20959 -0.108088,0.39075 -0.130922,0.62129 -0.01141,0.11527 -0.02842,0.24115 0.02386,0.46258 0.05229,0.22143 0.310869,0.67502 0.760783,0.79557 0.449909,0.12055 0.899443,-0.14292 1.055436,-0.30854 0.155991,-0.16563 0.203991,-0.28362 0.251745,-0.38916 0.0955,-0.21107 0.144089,-0.39197 0.197218,-0.60331 0.10627,-0.42268 0.199822,-0.93255 0.293006,-1.44109 0.02436,-0.13296 0.04626,-0.22639 0.07039,-0.35629 0.0029,-0.009 0.0054,-0.0175 0.0086,-0.0267 0.0071,0.006 0.0135,0.0124 0.02068,0.0189 0.08582,0.10048 0.151529,0.1704 0.239101,0.27337 0.334971,0.39382 0.670929,0.78861 0.9743,1.10152 0.151663,0.1565 0.284222,0.28883 0.472458,0.42387 0.09412,0.0675 0.19471,0.14567 0.412574,0.21118 0.217914,0.0654 0.738951,0.0688 1.068308,-0.26052 0.329357,-0.32935 0.326504,-0.85146 0.26107,-1.06937 -0.06544,-0.2179 -0.143106,-0.31841 -0.210625,-0.41253 -0.135038,-0.18824 -0.267568,-0.32091 -0.424024,-0.4726 -0.312917,-0.30337 -0.70728,-0.63678 -1.101098,-0.97175 -0.101466,-0.0863 -0.170281,-0.15201 -0.269313,-0.23666 -0.0077,-0.009 -0.01605,-0.0162 -0.02375,-0.0253 0.01219,-0.005 0.02357,-0.007 0.03564,-0.011 0.127284,-0.0236 0.218751,-0.0453 0.348914,-0.0692 0.50854,-0.0932 1.015935,-0.18627 1.438619,-0.29255 0.211338,-0.0531 0.393999,-0.10094 0.605063,-0.19643 0.105524,-0.0477 0.221422,-0.0964 0.387041,-0.25241 0.165628,-0.15599 0.429767,-0.6052 0.309216,-1.05511 -0.120552,-0.44991 -0.573914,-0.70686 -0.795341,-0.75914 -0.221412,-0.0523 -0.346124,-0.0365 -0.461393,-0.0251 -0.230535,0.0228 -0.412628,0.0728 -0.622222,0.13241 -0.419187,0.11931 -0.905147,0.29239 -1.39215,0.46596 -0.124639,0.0444 -0.214715,0.0713 -0.336764,0.11455 -0.0124,0.002 -0.02382,0.006 -0.03638,0.008 0.0022,-0.0116 0.006,-0.0219 0.0081,-0.0336 0.04345,-0.12282 0.07017,-0.21415 0.11489,-0.33961 0.173574,-0.487 0.348389,-0.97293 0.467698,-1.39211 0.05966,-0.20959 0.108089,-0.39076 0.130923,-0.6213 0.01141,-0.11527 0.02842,-0.24115 -0.02386,-0.46257 -0.05229,-0.22143 -0.310869,-0.67502 -0.760783,-0.79557 z" color="#000"/></g></svg>