<svg xmlns="http://www.w3.org/2000/svg" width="64" height="64" viewBox="0 0 64 64"><g transform="translate(-192)"><path style="-inkscape-stroke:none" fill="#d8ecfe" fill-rule="evenodd" d="m 248,34.00095 a 6,6 0 0 1 -6,6 6,6 0 0 1 -6,-6 6,6 0 0 1 6,-6 6,6 0 0 1 6,6 z" color="#000"/><path fill="#ff435b" fill-rule="evenodd" d="m 221,51.000951 v 0 c 8.83655,0 16,-7.163444 16,-16 v -9 h -32 v 9 c 0,8.836556 7.16344,16 16,16 z"/><path style="-inkscape-stroke:none" fill="#374951" fill-rule="evenodd" d="M216.89056 8.0517326a1 1 0 00-1.26563.6328125l-.47266 1.4218749c-.42935 1.288091-.23948 2.704257.51368 3.833984l-.0176-.02539c.55334.885503.70878 1.961704.42578 2.966796a1.0001 1.0001 0 00-.008.0293l-.46289 1.847656a1 1 0 00.72851 1.212891 1 1 0 001.21289-.728516l.45313-1.818359c.43544-1.5465.19906-3.205867-.65235-4.568359a1.0001 1.0001 0 00-.0156-.02539c-.41169-.617531-.51595-1.387701-.28125-2.091797l.47461-1.4218744a1 1 0 00-.63281-1.265625zM221.5722 8.0517326a1 1 0 00-1.26563.6328125l-.47461 1.4218749c-.42936 1.288091-.23948 2.704257.51367 3.833984l-.0156-.02539c.55334.885503.70683 1.961704.42383 2.966796a1.0001 1.0001 0 00-.008.0293l-.46093 1.847656a1 1 0 00.72851 1.212891 1 1 0 001.21094-.728516l.45508-1.818359c.43544-1.5465.19906-3.205867-.65235-4.568359a1.0001 1.0001 0 00-.0176-.02539c-.41169-.617531-.514-1.387701-.2793-2.091797l.47266-1.4218744a1 1 0 00-.63086-1.265625zM226.25188 8.0517326a1 1 0 00-1.26367.6328125L224.5136 10.10642c-.42936 1.288091-.23948 2.704257.51367 3.833984l-.0156-.02539c.55334.885503.70683 1.961704.42383 2.966796a1.0001 1.0001 0 00-.008.0293l-.46094 1.847656a1 1 0 00.72656 1.212891 1 1 0 001.21289-.728516l.45508-1.818359c.43545-1.5465.19711-3.205867-.6543-4.568359a1.0001 1.0001 0 00-.0156-.02539c-.41169-.617531-.514-1.387701-.2793-2.091797l.47266-1.4218744a1 1 0 00-.63282-1.265625z" color="#000"/><path fill="#5b7fa0" fill-rule="evenodd" d="m 199.75002,50.999037 h 43 v 4e-6 c 0,2.209142 -1.79087,4.000005 -4,4.000005 h -35 c -2.20914,0 -4,-1.790863 -4,-4.000005 z"/><path fill="#d8ecfe" fill-rule="evenodd" d="m 205,26 v 7 h 12.77734 12.75 H 237 v -7 z"/></g></svg>