<svg xmlns="http://www.w3.org/2000/svg" width="64" height="64" viewBox="0 0 64 64"><g transform="translate(0 -384)"><path fill="#5b7fa0" fill-rule="evenodd" d="m 14,394.00982 a 3,3 0 0 0 -2.822266,2.00586 3,3 0 0 0 -0.177734,-0.006 3,3 0 0 0 -3,3 3,3 0 0 0 0.7675781,2 3,3 0 0 0 -0.7675781,2 3,3 0 0 0 3,3 3,3 0 0 0 3,-3 3,3 0 0 0 -0.765625,-2.00195 3,3 0 0 0 0.591797,-1.01172 3,3 0 0 0 0.173828,0.0137 3,3 0 0 0 2,-0.76758 3,3 0 0 0 2,0.76758 3,3 0 0 0 3,-3 3,3 0 0 0 -3,-3 3,3 0 0 0 -1.998047,0.76562 A 3,3 0 0 0 14,394.00982 Z"/><path fill="#5b7fa0" fill-rule="evenodd" d="m 50.000005,394.00982 a 3,3 0 0 1 2.822266,2.00586 3,3 0 0 1 0.177734,-0.006 3,3 0 0 1 3,3 3,3 0 0 1 -0.767578,2.00014 3,3 0 0 1 0.767578,2 3,3 0 0 1 -3,3 3,3 0 0 1 -3,-3 3,3 0 0 1 0.765625,-2.00195 3,3 0 0 1 -0.591797,-1.01172 3,3 0 0 1 -0.173828,0.0137 3,3 0 0 1 -2,-0.76758 3,3 0 0 1 -2,0.76758 3,3 0 0 1 -3,-3 3,3 0 0 1 3,-3 3,3 0 0 1 1.998047,0.76562 3,3 0 0 1 2.001953,-0.76565 z" color="#000"/><path fill="#d8ecfe" fill-rule="evenodd" d="m 30,392.78482 c -12.678847,0 -23,10.32115 -23,23 v 13.225 c 0,1.10457 0.8954305,2 2,2 1.104569,0 2,-0.89543 2,-2 v -13.225 c 0,-10.51709 8.482911,-19 19,-19 h 4 c 10.517089,0 19,8.48291 19,19 v 14.225 c 0,1.10457 0.895431,2 2,2 1.104569,0 2,-0.89543 2,-2 v -14.225 c 0,-12.67885 -10.321153,-23 -23,-23 z" color="#000"/><path fill="#374951" fill-rule="evenodd" d="M32 422.00977a1 1 0 00-1 1v1.46484l-2.554688 1.70312a1 1 0 00-.277343 1.38672 1 1 0 001.386719.27735L31 426.87695v2.13282a1 1 0 001 1 1 1 0 001-1v-2.13282l1.445312.96485a1 1 0 001.386719-.27735 1 1 0 00-.277343-1.38672L33 424.47461v-1.46484a1 1 0 00-1-1zM38.064453 417.01172a1 1 0 00-.896484.44336l-1.703125 2.55469H34a1 1 0 00-1 1 1 1 0 001 1h1.464844l1.703125 2.55468a1 1 0 001.386719.27735 1 1 0 00.277343-1.38672l-.964843-1.44531H40a1 1 0 001-1 1 1 0 00-1-1h-2.132812l.964843-1.44532a1 1 0 00-.277343-1.38672 1 1 0 00-.490235-.16601zM25.935547 417.01172a1 1 0 00-.490235.16601 1 1 0 00-.277343 1.38672l.964843 1.44532H24a1 1 0 00-1 1 1 1 0 001 1h2.132812l-.964843 1.44531a1 1 0 00.277343 1.38672 1 1 0 001.386719-.27735l1.703125-2.55468H30a1 1 0 001-1 1 1 0 00-1-1h-1.464844l-1.703125-2.55469a1 1 0 00-.896484-.44336zM32 412.00977a1 1 0 00-1 1v2.13281l-1.445312-.96485a1 1 0 00-1.386719.27735 1 1 0 00.277343 1.38672L31 417.54492v1.46485a1 1 0 001 1 1 1 0 001-1v-1.46485l2.554688-1.70312a1 1 0 00.277343-1.38672 1 1 0 00-1.386719-.27735L33 415.14258v-2.13281a1 1 0 00-1-1z" color="#000"/><path fill="#5b7fa0" fill-rule="evenodd" d="m 51.5,424.50977 c -0.830999,0 -1.5,0.669 -1.5,1.5 v 12 c 0,0.83099 0.669001,1.5 1.5,1.5 0.830999,0 1.5,-0.66901 1.5,-1.5 h 1.574219 c 1.380708,0 2.425781,-1.00797 2.425781,-2.38868 1e-4,-0.2041 -0.02482,-0.40744 -0.07422,-0.60547 0.0078,10e-4 0.01544,10e-4 0.02344,0.002 1.108789,-2.4e-4 2.007582,-0.89903 2.007812,-2.00781 -5.9e-4,-0.57553 -0.248088,-1.12317 -0.679687,-1.50391 0.432109,-0.3812 0.679657,-0.92964 0.679687,-1.50586 -2.3e-4,-1.10879 -0.899023,-2.00758 -2.007812,-2.00781 -0.14936,0.002 -0.29807,0.02 -0.44336,0.0547 C 56.46165,426.971 55.576779,426.01013 54.5,426.00977 H 53 c 0,-0.831 -0.669001,-1.5 -1.5,-1.5 z" color="#000"/><path style="-inkscape-stroke:none" fill="#5b7fa0" fill-rule="evenodd" d="m 12.5,424.50977 c -0.830999,0 -1.5,0.669 -1.5,1.5 H 9.4257812 c -1.0767789,3.6e-4 -1.9616494,0.92412 -2.0058593,2 -0.1452899,-0.0347 -0.2939995,-0.053 -0.4433594,-0.0547 -1.1087889,2.3e-4 -2.0075825,0.89902 -2.0078125,2.00781 3e-5,0.57622 0.2475779,1.12466 0.6796875,1.50586 -0.4315996,0.38074 -0.6790975,0.92838 -0.6796875,1.50391 2.3e-4,1.10879 0.8990236,2.00757 2.0078125,2.00781 0.008,-6.1e-4 0.015638,-9.5e-4 0.023437,-0.002 -0.0494,0.19803 -0.074319,0.40136 -0.074219,0.60546 0,1.38071 1.1192914,2.42579 2.5,2.42579 H 11 c 0,0.83099 0.669001,1.5 1.5,1.5 0.830999,0 1.5,-0.66901 1.5,-1.5 v -12 c 0,-0.831 -0.669001,-1.5 -1.5,-1.5 z" color="#000"/></g></svg>