<svg xmlns="http://www.w3.org/2000/svg" width="64" height="64" viewBox="0 0 64 64"><g transform="translate(-192 -576)"><path fill="#85533f" fill-rule="evenodd" d="M197 620h54v10h-54zM197 600h54v10h-54z"/><path style="-inkscape-stroke:none" fill="#aa6a51" fill-rule="evenodd" d="M211 594.05863V635H201V594.07827L206 585zM247 594.05863V635H237V594.07827L242 585z" color="#000"/><path style="-inkscape-stroke:none" fill="#85533f" fill-rule="evenodd" d="m 240.3125,602.3125 a 1,1 0 0 0 -0.70703,0.29297 1,1 0 0 0 0,1.41406 l 0.98047,0.98047 -0.98047,0.98047 a 1,1 0 0 0 0,1.41406 1,1 0 0 0 1.41406,0 L 242,606.41406 l 0.98047,0.98047 a 1,1 0 0 0 1.41406,0 1,1 0 0 0 0,-1.41406 L 243.41406,605 l 0.98047,-0.98047 a 1,1 0 0 0 0,-1.41406 1,1 0 0 0 -0.70703,-0.29297 1,1 0 0 0 -0.70703,0.29297 L 242,603.58594 l -0.98047,-0.98047 a 1,1 0 0 0 -0.70703,-0.29297 z m 0,20 a 1,1 0 0 0 -0.70703,0.29297 1,1 0 0 0 0,1.41406 l 0.98047,0.98047 -0.98047,0.98047 a 1,1 0 0 0 0,1.41406 1,1 0 0 0 1.41406,0 L 242,626.41406 l 0.98047,0.98047 a 1,1 0 0 0 1.41406,0 1,1 0 0 0 0,-1.41406 L 243.41406,625 l 0.98047,-0.98047 a 1,1 0 0 0 0,-1.41406 1,1 0 0 0 -0.70703,-0.29297 1,1 0 0 0 -0.70703,0.29297 L 242,623.58594 l -0.98047,-0.98047 a 1,1 0 0 0 -0.70703,-0.29297 z" color="#000"/><path fill="#aa6a51" fill-rule="evenodd" d="M 229,594.05863 V 635 H 219 V 594.07827 L 224,585 Z"/><path style="-inkscape-stroke:none" fill="#d8ecfe" fill-rule="evenodd" d="M197.9999 581.66826v0M197.9999 580.66826a1 1 0 00-1 1 1 1 0 001 1 1 1 0 001-1 1 1 0 00-1-1zM249.4983 582.57319v0M249.4983 581.57319a1 1 0 00-1 1 1 1 0 001 1 1 1 0 001-1 1 1 0 00-1-1zM232.77235 584.94606v0M232.77235 583.94606a1 1 0 00-1 1 1 1 0 001 1 1 1 0 001-1 1 1 0 00-1-1zM197.01155 615.43428v0M197.01155 614.43428a1 1 0 00-1 1 1 1 0 001 1 1 1 0 001-1 1 1 0 00-1-1zM215.48876 581.66345v0M215.48876 580.66345a1 1 0 00-1 1 1 1 0 001 1 1 1 0 001-1 1 1 0 00-1-1z" color="#000"/><path style="-inkscape-stroke:none" fill="#85533f" fill-rule="evenodd" d="M222.3125 622.3125a1 1 0 00-.70703.29296 1 1 0 000 1.41408l.98047.98046-.98047.98046a1 1 0 000 1.41408 1 1 0 001.41406 0L224 626.41407l.98047.98047a1 1 0 001.41406 0 1 1 0 000-1.41408L225.41406 625l.98047-.98046a1 1 0 000-1.41408 1 1 0 00-.70703-.29296 1 1 0 00-.70703.29296L224 623.58593l-.98047-.98047a1 1 0 00-.70703-.29296zM204.3125 602.3125a1 1 0 00-.70703.29297 1 1 0 000 1.41406l.98047.98047-.98047.98047a1 1 0 000 1.41406 1 1 0 001.41406 0L206 606.41406l.98047.98047a1 1 0 001.41406 0 1 1 0 000-1.41406L207.41406 605l.98047-.98047a1 1 0 000-1.41406 1 1 0 00-.70703-.29297 1 1 0 00-.70703.29297L206 603.58594l-.98047-.98047a1 1 0 00-.70703-.29297zM204.3125 622.3125a1 1 0 00-.70703.29296 1 1 0 000 1.41408l.98047.98046-.98047.98046a1 1 0 000 1.41408 1 1 0 001.41406 0L206 626.41407l.98047.98047a1 1 0 001.41406 0 1 1 0 000-1.41408L207.41406 625l.98047-.98046a1 1 0 000-1.41408 1 1 0 00-.70703-.29296 1 1 0 00-.70703.29296L206 623.58593l-.98047-.98047a1 1 0 00-.70703-.29296z" color="#000"/><path style="-inkscape-stroke:none" fill="#d8ecfe" fill-rule="evenodd" d="M251 616v0M251 615a1 1 0 00-1 1 1 1 0 001 1 1 1 0 001-1 1 1 0 00-1-1zM205.32596 584.63638c.71967-.4155 1.63354-.17063 2.04904.54904l3.25 5.62916c.4155.71967.17063 1.63354-.54904 2.04904-.71967.4155-1.63354.17063-2.04904-.54904l-3.25-5.62916c-.4155-.71967-.17063-1.63354.54904-2.04904zM223.32596 584.63638c.71967-.4155 1.63354-.17063 2.04904.54904l3.25 5.62916c.4155.71967.17063 1.63354-.54904 2.04904-.71967.4155-1.63354.17063-2.04904-.54904l-3.25-5.62916c-.4155-.71967-.17063-1.63354.54904-2.04904zM244.05859 586.5332c-.38226-.10996-.79254-.0636-1.14062.12891-.72524.39979-.98928 1.31167-.58985 2.03711l3.17188 5.74609v1.68176c0 .82843.67157 1.5 1.5 1.5.82843 0 1.5-.67157 1.5-1.5v-2.06848c-.00027-.2535-.0648-.5028-.1875-.72461L244.95508 587.25c-.19198-.34834-.51445-.60617-.89649-.7168zM219.5 614.5c-.831 0-1.5-.669-1.5-1.5v-9.375c0-.831.669-1.5 1.5-1.5.831 0 1.5.669 1.5 1.5V613c0 .831-.669 1.5-1.5 1.5zM228.5 612.65625c-.831 0-1.5.669-1.5 1.5V620c0 .831.669 1.5 1.5 1.5h4c.831 0 1.5-.669 1.5-1.5 0-.831-.669-1.5-1.5-1.5H230v-4.34375c0-.831-.669-1.5-1.5-1.5z" color="#000"/></g></svg>