<svg xmlns="http://www.w3.org/2000/svg" width="64" height="64" viewBox="0 0 64 64"><g transform="translate(-192 -192)"><path fill="#5b7fa0" fill-rule="evenodd" d="m 201,197 v 2 a 2,2 0 0 0 2,2 h 2 v 2 a 2,2 0 0 0 2,2 h -1 v 41 a 5,5 0 0 0 -5,5 h 46 a 5,5 0 0 0 -5,-5 v -41 h -1 a 2,2 0 0 0 2,-2 v -2 h 2 a 2,2 0 0 0 2,-2 v -2 z" color="#000"/><path fill="#d8ecfe" fill-rule="evenodd" d="m 224,213.19999 a 13,13.32501 0 0 1 13,13.32501 v 19.47501 H 211 V 226.525 a 13,13.32501 0 0 1 13,-13.32501 z" color="#000"/><path fill="#ff435b" fill-rule="evenodd" d="m 224,223.21562 5.08048,9.99495 a 5.7725863,5.6782733 0 0 1 -5.16317,8.21768 5.7220813,5.6285935 0 0 1 -4.99778,-8.21768 z"/><path style="-inkscape-stroke:none" fill="#d8ecfe" fill-rule="evenodd" d="M223.99386 231.33847l2.66811 5.46962c1.00785 2.0661-.45791 4.49704-2.71154 4.49704-2.23367-.0331-3.65248-2.46402-2.62468-4.49704.95574-1.71321 2.36448-2.6757 2.66811-5.46962zM215.98447 242.925h16c.831 0 1.5.669 1.5 1.5v.075c0 .831-.669 1.5-1.5 1.5h-16c-.831 0-1.5-.669-1.5-1.5v-.075c0-.831.669-1.5 1.5-1.5z" color="#000"/></g></svg>