<svg xmlns="http://www.w3.org/2000/svg" width="64" height="64" viewBox="0 0 64 64"><g transform="translate(0 -96)"><path fill="#5b7fa0" fill-rule="evenodd" d="M 10,134.76758 V 151 h 16 v -6 l 4.232422,-4.23242 c 0.979341,-0.97934 0.979342,-2.55582 0,-3.53516 -0.979342,-0.97934 -2.55582,-0.97934 -3.535156,0 L 26,137.92969 v -3.16211 c 0,-4.41828 -3.581722,-8 -8,-8 -4.418278,0 -8,3.58172 -8,8 z"/><path fill="#d8ecfe" fill-rule="evenodd" d="m 10,147 v 4 h 16 v -4 z"/><path fill="#d8ecfe" fill-rule="evenodd" d="m 19.619141,132.89453 a 1,1 0 0 0 -0.261719,0.002 1,1 0 0 0 -0.66211,0.38477 1,1 0 0 0 0.191407,1.40234 c 0.190349,0.1447 0.350056,0.3482 0.443359,0.56836 0.0933,0.22016 0.128023,0.47547 0.09961,0.71289 -0.02841,0.23741 -0.123007,0.478 -0.265626,0.66993 -0.142619,0.19192 -0.34532,0.35351 -0.564453,0.44921 -0.388826,0.16982 -1.012016,0.17935 -1.808593,0.24805 -0.400633,0.0345 -0.848578,0.0939 -1.314454,0.26563 -0.472166,0.17402 -0.952086,0.46155 -1.318359,0.92968 -0.307372,0.39286 -0.491861,0.86229 -0.533203,1.35938 -0.04135,0.49712 0.06255,0.99148 0.300781,1.42969 0.238251,0.43822 0.597451,0.79176 1.03711,1.02734 0.439662,0.23557 0.932868,0.33733 1.429687,0.29297 a 1,1 0 0 0 0.90625,-1.08399 1,1 0 0 0 -1.083984,-0.9082 c -0.100588,0.009 -0.21958,-0.0148 -0.308594,-0.0625 -0.08902,-0.0477 -0.174423,-0.13394 -0.222656,-0.22265 -0.04824,-0.0887 -0.07282,-0.20604 -0.06445,-0.30665 0.0084,-0.10063 0.05301,-0.21344 0.115234,-0.29296 0.07719,-0.0987 0.230499,-0.21031 0.433594,-0.28516 0.209382,-0.0772 0.478549,-0.12312 0.794922,-0.15039 0.637433,-0.055 1.507295,-0.002 2.4375,-0.4082 0.543756,-0.23748 1.015234,-0.61164 1.36914,-1.0879 0.353909,-0.47624 0.575977,-1.03585 0.646485,-1.625 0.07051,-0.58914 -0.01456,-1.18414 -0.246094,-1.73046 -0.231528,-0.54632 -0.59989,-1.02178 -1.072266,-1.38086 a 1,1 0 0 0 -0.478515,-0.19727 z" color="#000"/><path style="-inkscape-stroke:none" fill="#d8ecfe" fill-rule="evenodd" d="M15 132v0M17 130a1 1 0 00-1 1 1 1 0 001 1 1 1 0 001-1 1 1 0 00-1-1zM24 141v0M24 140a1 1 0 00-1 1 1 1 0 001 1 1 1 0 001-1 1 1 0 00-1-1zM20 143v0M20 142a1 1 0 00-1 1 1 1 0 001 1 1 1 0 001-1 1 1 0 00-1-1zM14 135v0M14 134a1 1 0 00-1 1 1 1 0 001 1 1 1 0 001-1 1 1 0 00-1-1z" color="#000"/><path fill="#5b7fa0" fill-rule="evenodd" d="M10 151h16c1.108 0 2 .892 2 2 0 1.108-.892 2-2 2H10c-1.108 0-2-.892-2-2 0-1.108.892-2 2-2zM54 109v16.23242H38v-6L33.767578 115c-.979341-.97934-.979342-2.55582 0-3.53516.979342-.97934 2.55582-.97934 3.535156 0L38 112.16211V109c0-4.41828 3.581722-8 8-8 4.418278 0 8 3.58172 8 8z"/><path fill="#d8ecfe" fill-rule="evenodd" d="m 38,121.23242 v 4 h 16 v -4 z"/><path fill="#d8ecfe" fill-rule="evenodd" d="m 44.380859,107.12695 a 1,1 0 0 0 -0.478515,0.19727 c -0.472376,0.35908 -0.840738,0.83454 -1.072266,1.38086 -0.23153,0.54632 -0.316601,1.14131 -0.246094,1.73047 0.07051,0.58915 0.292576,1.14874 0.646485,1.625 0.353906,0.47625 0.825384,0.85041 1.36914,1.08789 0.930205,0.40624 1.800067,0.35322 2.4375,0.4082 0.316373,0.0273 0.58554,0.0732 0.794922,0.15039 0.203095,0.0749 0.356399,0.18649 0.433594,0.28516 0.06222,0.0795 0.106865,0.19233 0.115234,0.29297 0.0084,0.1006 -0.01622,0.21791 -0.06445,0.30664 -0.04823,0.0887 -0.133635,0.17495 -0.222656,0.22265 -0.08901,0.0477 -0.208006,0.0715 -0.308594,0.0625 a 1,1 0 0 0 -1.083984,0.90821 1,1 0 0 0 0.90625,1.08398 c 0.496819,0.0444 0.990025,-0.0574 1.429687,-0.29297 0.439659,-0.23558 0.798859,-0.58912 1.03711,-1.02734 0.238235,-0.43821 0.342133,-0.93257 0.300781,-1.42969 -0.04134,-0.49709 -0.225831,-0.96652 -0.533203,-1.35937 -0.366273,-0.46814 -0.846193,-0.75567 -1.318359,-0.92969 -0.465876,-0.17171 -0.913821,-0.2311 -1.314454,-0.26563 -0.796577,-0.0687 -1.419767,-0.0782 -1.808593,-0.24804 -0.219133,-0.0957 -0.421833,-0.2573 -0.564453,-0.44922 -0.142618,-0.19193 -0.237213,-0.43251 -0.265626,-0.66992 -0.02841,-0.23743 0.0063,-0.49275 0.09961,-0.71289 0.0933,-0.22017 0.25301,-0.42367 0.443359,-0.56836 a 1,1 0 0 0 0.191407,-1.40235 1,1 0 0 0 -0.66211,-0.38476 1,1 0 0 0 -0.261719,-0.002 z" color="#000"/><path style="-inkscape-stroke:none" fill="#d8ecfe" fill-rule="evenodd" d="M49 106.23242v0M47 104.23242a1 1 0 011 1 1 1 0 01-1 1 1 1 0 01-1-1 1 1 0 011-1zM40 115.23242v0M40 114.23242a1 1 0 011 1 1 1 0 01-1 1 1 1 0 01-1-1 1 1 0 011-1zM44 117.23242v0M44 116.23242a1 1 0 011 1 1 1 0 01-1 1 1 1 0 01-1-1 1 1 0 011-1zM50 109.23242v0M50 108.23242a1 1 0 011 1 1 1 0 01-1 1 1 1 0 01-1-1 1 1 0 011-1z" color="#000"/><path fill="#5b7fa0" fill-rule="evenodd" d="m -54,125.23242 h 16 c 1.108,0 2,0.892 2,2 0,1.108 -0.892,2 -2,2 h -16 c -1.108,0 -2,-0.892 -2,-2 0,-1.108 0.892,-2 2,-2 z" transform="scale(-1 1)"/></g></svg>