<svg xmlns="http://www.w3.org/2000/svg" width="64" height="64" viewBox="0 0 64 64"><g transform="translate(-288 -288)"><path fill="#5b7fa0" fill-rule="evenodd" d="m 340.91674,293.19108 c -1.64262,-0.59037 -3.44067,0.25579 -4.03148,1.89722 l -15.28563,42.46787 -11.21743,-5.80457 c -1.53387,-0.79371 -3.41627,-0.0557 -4.00087,1.56844 l -1.3843,3.84596 c -0.58897,1.63634 0.26107,3.43999 1.89861,4.02854 l 15.81355,5.68351 c 1.09169,0.39237 2.29499,-0.17391 2.68765,-1.26481 l 17.41851,-48.39362 c 0.5908,-1.64143 -0.25598,-3.43817 -1.89861,-4.02854 z"/><path fill="#d8ecfe" fill-rule="evenodd" d="M334.04142 302.98931l2.25409 3.0409 3.67599-.90958-1.57681 4.38085-3.67601.90959-2.25409-3.04091zM331.55059 309.90955l2.25409 3.0409 3.67599-.90958-1.57681 4.38085-3.67601.90959-2.25409-3.04091z"/><path fill="#5b7fa0" fill-rule="evenodd" d="M 309.31276,340.58247 V 345 c 0,1.10457 -2.7563,2 -6.15638,2 -3.40008,0 -6.15639,-0.89543 -6.15639,-2 v -4.41753 z"/><path style="-inkscape-stroke:none" fill="#d8ecfe" fill-rule="evenodd" d="m 309.31277,340.58247 c 0,1.10457 -2.7563,2 -6.15638,2 -3.40008,0 -6.15638,-0.89543 -6.15638,-2 0,-1.10457 2.7563,-2 6.15638,-2 3.40008,0 6.15638,0.89543 6.15638,2 z" color="#000"/></g></svg>