<svg xmlns="http://www.w3.org/2000/svg" width="64" height="64" viewBox="0 0 64 64"><g transform="translate(-96 -384)"><path fill="#5b7fa0" fill-rule="evenodd" d="M105 390.97166v34c0 4.41828 3.58172 8 8 8h38v-7c0-8.28427-6.71573-15-15-15h-9v-16c0-2.20914-1.79086-4-4-4zM108 440h40c.831 0 1.5.669 1.5 1.5 0 .831-.669 1.5-1.5 1.5h-40c-.831 0-1.5-.669-1.5-1.5 0-.831.669-1.5 1.5-1.5z"/><path style="-inkscape-stroke:none" fill="#d8ecfe" fill-rule="evenodd" d="m 114,433 h 4 v 7 h -4 z" color="#000"/><path fill="#d8ecfe" fill-rule="evenodd" d="m 138,433 h 4 v 7 h -4 z" color="#000"/><path style="-inkscape-stroke:none" fill="#d8ecfe" fill-rule="evenodd" d="m 129,428 a 1,1 0 0 0 -1,1 1,1 0 0 0 1,1 h 7 a 1,1 0 0 0 1,-1 1,1 0 0 0 -1,-1 z" color="#000"/><path fill="#d8ecfe" fill-rule="evenodd" d="m 141.5,428 a 1,1 0 0 0 -1,1 1,1 0 0 0 1,1 h 3.5 a 1,1 0 0 0 1,-1 1,1 0 0 0 -1,-1 z" color="#000"/><path fill="#d8ecfe" fill-rule="evenodd" d="M110.5 395c.831 0 1.5.669 1.5 1.5v9c0 .831-.669 1.5-1.5 1.5-.831 0-1.5-.669-1.5-1.5v-9c0-.831.669-1.5 1.5-1.5zM104.96704 416.07788c.46997-.0515.94748-.0779 1.43115-.0779 7.1797 0 13 5.8203 13 13 0 1.42685-.22987 2.8-.6546 4.08446l4.96237-.11278c.29182-1.27693.44595-2.60631.44595-3.97169 0-9.80511-7.94861-17.75371-17.75372-17.75371-.47545 0-.94653.0187-1.41255.0554z"/><path fill="#d8ecfe" fill-rule="evenodd" d="M120.5 398h7c.831 0 1.5.669 1.5 1.5 0 .831-.669 1.5-1.5 1.5h-7c-.831 0-1.5-.669-1.5-1.5 0-.831.669-1.5 1.5-1.5zM123.92892 410.94974l4.94975-4.94975c.58761-.5876 1.53372-.5876 2.12133.00001.5876.5876.5876 1.53371 0 2.12132l-4.94975 4.94975c-.58761.5876-1.53372.5876-2.12133-.00001-.5876-.5876-.5876-1.53371 0-2.12132zM118 389h9c1.108 0 2 .892 2 2 0 1.108-.892 2-2 2h-9c-1.108 0-2-.892-2-2 0-1.108.892-2 2-2z" color="#000"/><path style="-inkscape-stroke:none" fill="#d8ecfe" fill-rule="evenodd" d="m 139.94813,410.00749 -1.81174,6.76148 c -0.21508,0.80268 -1.03443,1.27574 -1.83712,1.06066 -0.80268,-0.21508 -1.27573,-1.03443 -1.06066,-1.83712 l 1.81174,-6.76148 c 0.21508,-0.80268 1.03443,-1.27574 1.83712,-1.06066 0.80268,0.21508 1.27573,1.03443 1.06066,1.83712 z" color="#000"/></g></svg>