<svg xmlns="http://www.w3.org/2000/svg" width="64" height="64" viewBox="0 0 64 64"><g transform="translate(-384 -384)"><path fill="#d8ecfe" fill-rule="evenodd" d="m 391,392 c 1.33249,11.33342 2.66653,22.66669 4,34 L 399.07129,397 403,418 405.57129,397 411,436 417.85059,397 424,420 429.44531,397 435,428 c 2.04507,-11.99315 3.61366,-24.06834 6,-36 z"/><path fill="#5b7fa0" fill-rule="evenodd" d="m 390.5,389 h 51 c 0.831,0 1.5,0.669 1.5,1.5 0,0.831 -0.669,1.5 -1.5,1.5 h -51 c -0.831,0 -1.5,-0.669 -1.5,-1.5 0,-0.831 0.669,-1.5 1.5,-1.5 z"/><path fill="#d8ecfe" fill-rule="evenodd" d="m 433,435.99998 c 0,1.65685 -1.34315,3 -3,3 -1.65685,0 -3,-1.34315 -3,-3 0,-1.65685 3,-5 3,-5 0,0 3,3.34315 3,5 z" color="#000"/><path style="-inkscape-stroke:none" fill="#d8ecfe" fill-rule="evenodd" d="m 395,440 c 0,1.65685 -1.34315,3 -3,3 -1.65685,0 -3,-1.34315 -3,-3 0,-1.65685 3,-5 3,-5 0,0 3,3.34315 3,5 z" color="#000"/><path fill="#d8ecfe" fill-rule="evenodd" d="M420 441a2 2 0 01-2 2 2 2 0 01-2-2 2 2 0 012-2 2 2 0 012 2zM404 427a2 2 0 01-2 2 2 2 0 01-2-2 2 2 0 012-2 2 2 0 012 2z" color="#000"/><path style="-inkscape-stroke:none" fill="#d8ecfe" fill-rule="evenodd" d="M390 426v0M390 425a1 1 0 00-1 1 1 1 0 001 1 1 1 0 001-1 1 1 0 00-1-1zM429 423v0M429 422a1 1 0 00-1 1 1 1 0 001 1 1 1 0 001-1 1 1 0 00-1-1zM442.99999 413v0M442.99999 412a1 1 0 00-1 1 1 1 0 001 1 1 1 0 001-1 1 1 0 00-1-1zM418 429v0M418 428a1 1 0 00-1 1 1 1 0 001 1 1 1 0 001-1 1 1 0 00-1-1z" color="#000"/></g></svg>