<svg xmlns="http://www.w3.org/2000/svg" width="64" height="64" viewBox="0 0 64 64"><g transform="translate(0 -288)"><path style="-inkscape-stroke:none" fill="#374951" fill-rule="evenodd" d="m 29.154297,293.0293 c -0.45306,-0.0148 -0.859442,0.27691 -0.990235,0.71093 -0.412467,1.3666 -0.0716,2.91277 1.001954,3.98633 0.523523,0.52353 1.160639,0.8703 1.833984,1.04102 v 3.87907 h 2 v -3.88298 c 0.668938,-0.17178 1.301826,-0.51667 1.822266,-1.03711 0.742821,-0.74283 1.137239,-1.71648 1.169922,-2.69336 0.01864,-0.5524 -0.414379,-1.01516 -0.966797,-1.0332 -0.552402,-0.0186 -1.015169,0.41438 -1.033203,0.9668 -0.01642,0.49068 -0.206575,0.96829 -0.583985,1.3457 -0.78942,0.78942 -2.038712,0.78942 -2.828125,0 -0.545468,-0.54548 -0.705855,-1.3121 -0.5,-1.99414 0.159484,-0.52854 -0.139518,-1.08632 -0.667969,-1.24609 -0.08369,-0.0255 -0.170365,-0.04 -0.257812,-0.043 z" color="#000"/><path fill="#5b7fa0" fill-rule="evenodd" d="M 31.999992,301 H 32 c 12.702549,0 23,10.29745 23,23 v 22.00001 H 8.9999924 V 324 c 0,-12.70255 10.2974506,-23 22.9999996,-23 z"/><path style="-inkscape-stroke:none" fill="#d8ecfe" fill-rule="evenodd" d="m 21,346 v -10 c 0,-6.07514 4.924872,-11.00001 11.00001,-11.00001 C 38.075142,325 43,329.92487 43,336 v 10" color="#000"/></g></svg>