<svg xmlns="http://www.w3.org/2000/svg" width="64" height="64" viewBox="0 0 64 64"><g transform="translate(-288 -384)"><path fill="#d8ecfe" fill-rule="evenodd" d="M 311,396.49033 V 389 h 18 v 7.49033 z"/><path fill="#5b7fa0" fill-rule="evenodd" d="m 326,393.99997 c 1.0382,0 2.05466,0.0931 3.0415,0.27131 7.93753,1.43368 13.9585,8.37805 13.9585,16.72869 V 428 h -46 v -17.00003 c 0,-9.38884 7.61116,-17 17,-17"/><rect width="6" height="6" x="325" y="402" fill="#d8ecfe" fill-rule="evenodd" rx="0" ry="0"/><path fill="#d8ecfe" fill-rule="evenodd" d="M 333.99999,428.00006 344,428.00003 v 5 h -10.00001 z" color="#000"/><path style="-inkscape-stroke:none" fill="#d8ecfe" fill-rule="evenodd" d="m 306,428.00006 -10.00001,-3e-5 v 5 H 306 Z" color="#000"/><path style="-inkscape-stroke:none" fill="#5b7fa0" fill-rule="evenodd" d="m 334,412 v 28 c -9.33333,0 -18.66667,0 -28,0 v -28" color="#000"/><rect width="14" height="8" x="320" y="424" fill="#d8ecfe" fill-rule="evenodd"/><rect width="14" height="8" x="306" y="416" fill="#d8ecfe" fill-rule="evenodd"/><path fill="#d8ecfe" fill-rule="evenodd" d="m 306,440 h 29 c 0.831,0 1.5,0.669 1.5,1.5 0,0.831 -0.669,1.5 -1.5,1.5 h -29 c -0.831,0 -1.5,-0.669 -1.5,-1.5 0,-0.831 0.669,-1.5 1.5,-1.5 z"/></g></svg>