<svg xmlns="http://www.w3.org/2000/svg" width="64" height="64" viewBox="0 0 64 64"><g transform="translate(-288 -576)"><path style="-inkscape-stroke:none" fill="#374951" fill-rule="evenodd" d="m 304,590 v 21 h 18 v 22.5 c 0,0.831 0.669,1.5 1.5,1.5 0.831,0 1.5,-0.669 1.5,-1.5 V 611 h 13 v -15 c 0,-3.31371 -2.68629,-6 -6,-6 z" color="#000"/><path style="-inkscape-stroke:none" fill="#d8ecfe" fill-rule="evenodd" d="M318 590v11c0 .831.669 1.5 1.5 1.5.831 0 1.5-.669 1.5-1.5v-6c0-.831.669-1.5 1.5-1.5.831 0 1.5.669 1.5 1.5v2c0 .831.669 1.5 1.5 1.5.831 0 1.5-.669 1.5-1.5v-7zM294.84231 582.1461v0M294.84231 581.1461a1 1 0 00-1 1 1 1 0 001 1 1 1 0 001-1 1 1 0 00-1-1zM346.19729 591.56592v0M346.19729 590.56592a1 1 0 00-1 1 1 1 0 001 1 1 1 0 001-1 1 1 0 00-1-1zM341.59539 618.93005v0M341.59539 617.93005a1 1 0 00-1 1 1 1 0 001 1 1 1 0 001-1 1 1 0 00-1-1zM314.46619 619.38263v0M314.46619 618.38263a1 1 0 00-1 1 1 1 0 001 1 1 1 0 001-1 1 1 0 00-1-1zM336.62695 630.71094a1 1 0 00-1.22461.70703l-.51757 1.93359a1 1 0 00.70703 1.22461 1 1 0 001.22461-.70703l.51757-1.93359a1 1 0 00-.70703-1.22461zM338.17969 624.91602a1 1 0 00-1.22461.70703l-.51758 1.93164a1 1 0 00.70703 1.22461 1 1 0 001.22461-.70703l.51758-1.93165a1 1 0 00-.70703-1.2246zM333.28125 627.74414a1 1 0 00-1.22461.70703 1 1 0 00.70703 1.22461l1.93164.51758a1 1 0 001.22461-.70703 1 1 0 00-.70703-1.22461zM339.07617 629.29687a1 1 0 00-1.22461.70704 1 1 0 00.70703 1.22461l1.93164.51757a1 1 0 001.22657-.70703 1 1 0 00-.70899-1.22461zM300.69922 629.28906a1 1 0 00-.75977.0996l-1.73047 1a1 1 0 00-.36718 1.36524 1 1 0 001.36718.36523l1.73047-1a1 1 0 00.36719-1.36523 1 1 0 00-.60742-.46485zM305.89453 626.28906a1 1 0 00-.75781.0996l-1.73242 1a1 1 0 00-.36524 1.36524 1 1 0 001.36524.36523l1.73242-1a1 1 0 00.36523-1.36523 1 1 0 00-.60742-.46485zM300.43164 624.82422a1 1 0 00-.75977.0996 1 1 0 00-.36523 1.36523l1 1.73242a1 1 0 001.36523.36719 1 1 0 00.36719-1.36719l-1-1.73242a1 1 0 00-.60742-.46484zM303.43164 630.01953a1 1 0 00-.75977.0996 1 1 0 00-.36523 1.36719l1 1.73242a1 1 0 001.36523.36523 1 1 0 00.36719-1.36523l-1-1.73242a1 1 0 00-.60742-.4668zM317.54822 583.993v0M317.54822 582.993a1 1 0 00-1 1 1 1 0 001 1 1 1 0 001-1 1 1 0 00-1-1zM337.5 605c-.831 0-1.5.669-1.5 1.5v3h-6c-.831 0-1.5.669-1.5 1.5 0 .831.669 1.5 1.5 1.5h7.5c.831 0 1.5-.669 1.5-1.5v-4.5c0-.831-.669-1.5-1.5-1.5zM307.5 617.75c.831 0 1.5.669 1.5 1.5v1.5c0 .831-.669 1.5-1.5 1.5-.831 0-1.5-.669-1.5-1.5v-1.5c0-.831.669-1.5 1.5-1.5z" color="#000"/><path fill="#5b7fa0" fill-rule="evenodd" d="m 304,590 c 3.31371,0 6,2.68629 6,6 v 15 h -12 v -15 c 0,-3.31371 2.68629,-6 6,-6 z"/><path style="-inkscape-stroke:none" fill="#374951" fill-rule="evenodd" d="M302 604a1 1 0 00-1 1 1 1 0 001 1h4a1 1 0 001-1 1 1 0 00-1-1zM304 593c-.76966 0-1.45248.38837-1.92773.91406-.47526.5257-.78877 1.19496-.95118 1.94141a1 1 0 00.76368 1.18945 1 1 0 001.1914-.76367c.0989-.45436.29213-.81901.48047-1.02734C303.74498 595.04557 303.88189 595 304 595c.11556 0 .24793.0446.43164.24219.18371.1976.37645.54339.48047.98047a1 1 0 001.20312.74218 1 1 0 00.74219-1.20507c-.17219-.72351-.4888-1.37301-.96094-1.88086C305.42434 593.37106 304.75306 593 304 593z" color="#000"/><path style="-inkscape-stroke:none" fill="#d8ecfe" fill-rule="evenodd" d="m 306.5,610.5 c 0,-0.831 -0.669,-1.5 -1.5,-1.5 h -2.5 c -0.831,0 -1.5,0.669 -1.5,1.5 v 4 c 0,0.831 0.669,1.5 1.5,1.5 0.831,0 1.5,-0.669 1.5,-1.5 V 612 h 1 c 0.831,0 1.5,-0.669 1.5,-1.5 z" color="#000"/><path style="-inkscape-stroke:none" fill="#374951" fill-rule="evenodd" d="m 334,582 a 1,1 0 0 0 -1,1 v 12 a 1,1 0 0 0 1,1 1,1 0 0 0 1,-1 v -12 a 1,1 0 0 0 -1,-1 z" color="#000"/><path style="-inkscape-stroke:none" fill="#d8ecfe" fill-rule="evenodd" d="m 333,581 h 9 v 4 h -9 z" color="#000"/></g></svg>