<svg xmlns="http://www.w3.org/2000/svg" width="64" height="64" viewBox="0 0 64 64"><g transform="translate(-384 -672)"><path fill="#5b7fa0" fill-rule="evenodd" d="m 392.90909,731 v -43 h 10 v 43 z"/><path style="-inkscape-stroke:none" fill="#ff435b" fill-rule="evenodd" d="m 402.81818,683.11112 c 0,2.70006 -2.19787,4.88889 -4.90909,4.88889 -2.71121,0 -4.90909,-2.18883 -4.90909,-4.88889 0,-2.70006 4.90909,-6.11112 4.90909,-6.11112 0,0 4.90909,3.41106 4.90909,6.11112 z" color="#000"/><path style="-inkscape-stroke:none" fill="#5b7fa0" fill-rule="evenodd" d="M429 731v-43h10v43zM415.4043 676c-.14997.002-.29749.0384-.43164.10547-.73774.37012-1.32351 1.05078-1.55274 1.90625-.37487 1.39905.32332 2.85264 1.58008 3.4707v3.93187c0 .55228.44772 1 1 1 .55228 0 1-.44772 1-1v-3.70726c.51011-.12002.98153-.37068 1.36328-.72656.40351-.37613.42623-1.00797.0508-1.41211-.37633-.4048-1.00967-.42754-1.41406-.0508-.24395.2274-.58828.33094-.94141.23633-.54492-.14602-.85304-.67968-.70703-1.22461.0786-.29338.26976-.51043.51758-.63477.49448-.24771.694-.84976.44531-1.34375-.17246-.34312-.52618-.55718-.91015-.55078z" color="#000"/><path style="-inkscape-stroke:none" fill="#ff435b" fill-rule="evenodd" d="m 401.00003,699 c 0,-8.28428 6.71574,-15.00002 15.00002,-15.00002 8.28427,10e-6 14.99999,6.71575 14.99998,15.00002 z" color="#000"/><path style="-inkscape-stroke:none" fill="#5b7fa0" fill-rule="evenodd" d="m 399,699 h 34 v 4 h -34 z" color="#000"/><path fill="#ff435b" fill-rule="evenodd" d="m 438.90909,683.11112 c 0,2.70006 -2.19787,4.88889 -4.90909,4.88889 -2.71121,0 -4.90909,-2.18883 -4.90909,-4.88889 C 429.09091,680.41106 434,677 434,677 c 0,0 4.90909,3.41106 4.90909,6.11112 z"/><path fill="#5b7fa0" fill-rule="evenodd" d="m 389,703 h 54 v 28 h -54 z"/><path fill="#d8ecfe" fill-rule="evenodd" d="m 416,712 c 4.32346,1.93652 7.07685,6.26328 7,11 v 8 h -14 v -8 c -0.0768,-4.73672 2.67654,-9.06348 7,-11 z"/><rect width="4" height="8" x="393" y="717" fill="#d8ecfe" fill-rule="evenodd"/><rect width="4" height="8" x="401" y="717" fill="#d8ecfe" fill-rule="evenodd"/><rect width="4" height="8" x="427" y="717" fill="#d8ecfe" fill-rule="evenodd"/><rect width="4" height="8" x="435" y="717" fill="#d8ecfe" fill-rule="evenodd"/><path style="-inkscape-stroke:none" fill="#d8ecfe" fill-rule="evenodd" d="M420.91797 683.04883c-.5062.0109-.99295.27772-1.26563.75-.4155.71966-.17083 1.63333.54883 2.04883l.81055.46875C421.00444 686.37657 421 686.43781 421 686.5v3c0 .831.669 1.5 1.5 1.5.831 0 1.5-.669 1.5-1.5v-2.01953c.34485-.10878.65177-.34236.84766-.68164.4155-.71967.17083-1.63333-.54883-2.04883l-2.59766-1.5c-.24738-.14283-.51805-.20687-.7832-.20117zM397.39625 676.42179l.0255-.0255c.58053-.58052 1.52094-.57483 2.10855.0128l1.06066 1.06066c.58761.58761.5933 1.52803.0128 2.10855l-.0255.0255c-.58052.58053-1.52094.57484-2.10855-.0128l-1.06066-1.06066c-.5876-.58761-.5933-1.52802-.0128-2.10855z" color="#000"/><path fill="#d8ecfe" fill-rule="evenodd" d="M408 678v0M408 677a1 1 0 00-1 1 1 1 0 001 1 1 1 0 001-1 1 1 0 00-1-1zM388.99999 678v0M388.99999 677a1 1 0 00-1 1 1 1 0 001 1 1 1 0 001-1 1 1 0 00-1-1zM425 678v0M425 677a1 1 0 00-1 1 1 1 0 001 1 1 1 0 001-1 1 1 0 00-1-1zM443 677v0M443 676a1 1 0 00-1 1 1 1 0 001 1 1 1 0 001-1 1 1 0 00-1-1z" color="#000"/><path style="-inkscape-stroke:none" fill="#d8ecfe" fill-rule="evenodd" d="M395 707a1 1 0 00-1 1 1 1 0 001 1h10a1 1 0 001-1 1 1 0 00-1-1zM398 710a1 1 0 00-1 1 1 1 0 001 1h10a1 1 0 001-1 1 1 0 00-1-1zM425 710a1 1 0 00-1 1 1 1 0 001 1h10a1 1 0 001-1 1 1 0 00-1-1zM428 707a1 1 0 00-1 1 1 1 0 001 1h10a1 1 0 001-1 1 1 0 00-1-1zM438.5 691.5c.831 0 1.5.669 1.5 1.5v2.5c0 .831-.669 1.5-1.5 1.5-.831 0-1.5-.669-1.5-1.5V693c0-.831.669-1.5 1.5-1.5zM412.00903 684.01565l-.0181-.0313c-.41049-.711-1.32034-.9489-2.04-.5334l-3.02472 1.74632c-.71966.4155-.96856 1.3224-.55807 2.0334l.018.0313c.4105.711 1.32035.9489 2.04001.5334l3.02472-1.74632c.71966-.4155.96856-1.3224.55806-2.0334zM415 697c-.831 0-1.5.669-1.5 1.5 0 .831.669 1.5 1.5 1.5h3v6c0 .831.669 1.5 1.5 1.5.831 0 1.5-.669 1.5-1.5v-7.5c0-.831-.669-1.5-1.5-1.5zM432.74458 676.89144l.0255-.0255c.58054-.58054 1.52095-.57485 2.10856.0128l1.06066 1.06066c.5876.58761.5933 1.52802.0128 2.10856l-.0255.0255c-.58053.58054-1.52094.57484-2.10855-.0128L432.75739 679c-.5876-.5876-.5933-1.52801-.0128-2.10855z" color="#000"/><path fill="#d8ecfe" fill-rule="evenodd" d="M389 690a1 1 0 00-1 1 1 1 0 001 1 1 1 0 001-1 1 1 0 00-1-1zM444.07123 698a1 1 0 00-1 1 1 1 0 001 1 1 1 0 001-1 1 1 0 00-1-1z" color="#000"/></g></svg>