<svg xmlns="http://www.w3.org/2000/svg" width="64" height="64" viewBox="0 0 64 64"><g transform="translate(-288 -96)"><path fill="#5b7fa0" fill-rule="evenodd" d="m 293,154.97742 17,-41 17,41 z"/><path style="-inkscape-stroke:none" fill="#d8ecfe" fill-rule="evenodd" d="m 310,113.97742 -7.06836,17.04882 1.06836,6.95118 3,-6 3,7 2,-4 2,6 3.11133,-9.85157 z" color="#000"/><path style="-inkscape-stroke:none" fill="#abd6fd" fill-rule="evenodd" d="M293.83246 122.08661v0M293.83246 121.08661a1 1 0 00-1 1 1 1 0 001 1 1 1 0 001-1 1 1 0 00-1-1zM301.41743 114.54041v0M301.41743 113.54041a1 1 0 00-1 1 1 1 0 001 1 1 1 0 001-1 1 1 0 00-1-1z" color="#000"/><path fill="#5b7fa0" fill-rule="evenodd" d="m 303,154.97742 22,-50 22,50 z"/><path style="-inkscape-stroke:none" fill="#d8ecfe" fill-rule="evenodd" d="m 325,104.97742 -11,25 3,9.5 3,-10 3,7 2,-6 4,11 3,-10 2,4 2.11,-5.25 z" color="#000"/><path style="-inkscape-stroke:none" fill="#abd6fd" fill-rule="evenodd" d="m 302.49779,104.64397 c 0,-0.46578 -0.37084,-0.8318 -0.57119,-0.93961 -0.20036,-0.10781 -0.32676,-0.12364 -0.44106,-0.14245 -0.22859,-0.0376 -0.4159,-0.0377 -0.63379,-0.0344 -0.43579,0.007 -0.9525,0.0483 -1.46783,0.09 -0.13474,0.0109 -0.23065,0.0139 -0.36237,0.0242 -0.009,-5.9e-4 -0.0183,-6.8e-4 -0.028,-0.001 0.004,-0.009 0.008,-0.0162 0.0129,-0.0249 0.0748,-0.1089 0.12537,-0.19047 0.20217,-0.30171 0.2937,-0.42548 0.58808,-0.85217 0.81182,-1.22619 0.11191,-0.187 0.20543,-0.3493 0.28715,-0.56607 0.0408,-0.10839 0.0903,-0.22577 0.0972,-0.45317 0.007,-0.22742 -0.12477,-0.73159 -0.52814,-0.96448 -0.40338,-0.232889 -0.90696,-0.095 -1.10051,0.0246 -0.19354,0.11961 -0.27052,0.22064 -0.34396,0.31022 -0.14687,0.17916 -0.24072,0.34151 -0.34675,0.53189 -0.21205,0.38078 -0.43203,0.848 -0.65365,1.31509 -0.0571,0.12034 -0.10276,0.20382 -0.1589,0.32139 -0.007,0.01 -0.0115,0.0197 -0.0183,0.0295 -0.008,-0.0106 -0.0126,-0.021 -0.0198,-0.0316 -0.0558,-0.11683 -0.10041,-0.19957 -0.15714,-0.31912 -0.22163,-0.4671 -0.44286,-0.93311 -0.65492,-1.31389 -0.10601,-0.19038 -0.19947,-0.35444 -0.34634,-0.5336 -0.0734,-0.0896 -0.15044,-0.18892 -0.34398,-0.30853 -0.19355,-0.11961 -0.69581,-0.258483 -1.09919,-0.0256 -0.40338,0.23289 -0.53423,0.7373 -0.52743,0.96472 0.007,0.22741 0.0543,0.34377 0.0952,0.45216 0.0817,0.21677 0.17707,0.37973 0.28894,0.56675 0.22374,0.37402 0.51669,0.79863 0.8104,1.22411 0.0752,0.1089 0.12449,0.18893 0.1978,0.29564 0.005,0.0114 0.0119,0.0215 0.0175,0.033 -0.0118,8.7e-4 -0.0227,-9e-5 -0.0346,8.7e-4 -0.12988,-0.0102 -0.22501,-0.0123 -0.35777,-0.0231 -0.51533,-0.0416 -1.02995,-0.0847 -1.46573,-0.0915 -0.21789,-0.003 -0.40541,-0.003 -0.63401,0.0343 -0.11429,0.0188 -0.24028,0.035 -0.44064,0.14277 -0.20035,0.10781 -0.57156,0.47498 -0.57155,0.94077 0,0.46578 0.37084,0.8318 0.57119,0.93962 0.20036,0.1078 0.32676,0.12363 0.44105,0.14244 0.2286,0.0376 0.41591,0.0377 0.6338,0.0344 0.43579,-0.007 0.9525,-0.0483 1.46783,-0.09 0.13473,-0.0109 0.23065,-0.0139 0.36237,-0.0242 0.009,6e-4 0.0183,6.8e-4 0.028,0.001 -0.004,0.009 -0.009,0.0162 -0.0129,0.0249 -0.0748,0.1089 -0.12537,0.19047 -0.20217,0.30171 -0.2937,0.42548 -0.58809,0.85217 -0.81182,1.2262 -0.11192,0.187 -0.20543,0.34929 -0.28715,0.56606 -0.0408,0.10839 -0.0903,0.22578 -0.0972,0.45317 -0.007,0.22743 0.12476,0.73159 0.52814,0.96448 0.40338,0.23289 0.90696,0.095 1.10051,-0.0246 0.19354,-0.1196 0.27052,-0.22064 0.34396,-0.31022 0.14687,-0.17915 0.24072,-0.34151 0.34675,-0.53189 0.21204,-0.38077 0.43202,-0.84799 0.65365,-1.31509 0.0571,-0.12034 0.10275,-0.20382 0.1589,-0.32138 0.007,-0.01 0.0115,-0.0197 0.0183,-0.0295 0.008,0.0106 0.0126,0.021 0.0198,0.0316 0.0558,0.11683 0.1004,0.19956 0.15713,0.31912 0.22162,0.46709 0.44286,0.9331 0.65491,1.31388 0.10602,0.19038 0.19948,0.35445 0.34635,0.5336 0.0734,0.0896 0.15044,0.18893 0.34398,0.30853 0.19354,0.11961 0.6958,0.25848 1.09919,0.0256 0.40338,-0.23289 0.53423,-0.73731 0.52743,-0.96473 -0.007,-0.2274 -0.0543,-0.34377 -0.0952,-0.45215 -0.0817,-0.21678 -0.17707,-0.37974 -0.28894,-0.56676 -0.22374,-0.37402 -0.5167,-0.79862 -0.8104,-1.22411 -0.0752,-0.10889 -0.12449,-0.18893 -0.1978,-0.29564 -0.005,-0.0114 -0.012,-0.0215 -0.0175,-0.033 0.0118,-8.6e-4 0.0228,10e-5 0.0346,-8.7e-4 0.12988,0.0102 0.22502,0.0124 0.35778,0.0231 0.51533,0.0416 1.02994,0.0847 1.46573,0.0915 0.21788,0.003 0.40541,0.003 0.63401,-0.0344 0.11429,-0.0188 0.24028,-0.035 0.44063,-0.14277 0.20035,-0.10781 0.57156,-0.47498 0.57156,-0.94077 z" color="#000"/><path fill="#abd6fd" fill-rule="evenodd" d="m 346.6036,115.10883 c 0.32936,-0.32936 0.32595,-0.8504 0.26051,-1.06831 -0.0654,-0.2179 -0.14362,-0.31847 -0.21114,-0.41259 -0.13504,-0.18824 -0.26741,-0.32077 -0.42387,-0.47245 -0.31292,-0.30337 -0.70771,-0.63933 -1.10153,-0.9743 -0.10296,-0.0876 -0.17292,-0.15326 -0.27336,-0.2391 -0.006,-0.007 -0.0125,-0.0135 -0.0188,-0.0208 0.009,-0.003 0.0175,-0.005 0.0267,-0.008 0.12992,-0.0241 0.22333,-0.046 0.35629,-0.0704 0.50854,-0.0932 1.01842,-0.18674 1.4411,-0.29301 0.21136,-0.0531 0.39224,-0.10173 0.60331,-0.19721 0.10553,-0.0478 0.22351,-0.0958 0.38918,-0.25171 0.16561,-0.15601 0.42909,-0.60554 0.30853,-1.05545 -0.12055,-0.44991 -0.57413,-0.70849 -0.79557,-0.76078 -0.22142,-0.0523 -0.3473,-0.0353 -0.46257,-0.0239 -0.23054,0.0228 -0.4117,0.0713 -0.62129,0.13092 -0.41919,0.11931 -0.90511,0.29413 -1.39211,0.46771 -0.12547,0.0447 -0.21678,0.0715 -0.33962,0.1149 -0.0117,0.002 -0.0221,0.006 -0.0337,0.008 0.002,-0.0128 0.006,-0.0238 0.008,-0.0363 0.0432,-0.12204 0.0701,-0.21212 0.11454,-0.33677 0.17357,-0.487 0.34666,-0.97296 0.46596,-1.39215 0.0597,-0.20959 0.10958,-0.39169 0.13241,-0.62222 0.0114,-0.11525 0.0272,-0.23996 -0.0251,-0.46139 -0.0523,-0.22144 -0.30923,-0.67479 -0.75914,-0.79534 -0.44991,-0.12056 -0.89911,0.14359 -1.05511,0.30921 -0.15601,0.16559 -0.20466,0.28151 -0.2524,0.38704 -0.0955,0.21107 -0.14331,0.39373 -0.19645,0.60507 -0.10626,0.42268 -0.19935,0.93007 -0.29254,1.43862 -0.0238,0.13015 -0.0456,0.22162 -0.0692,0.34892 -0.004,0.0118 -0.007,0.0236 -0.011,0.0357 -0.009,-0.008 -0.016,-0.0161 -0.0251,-0.0238 -0.0846,-0.099 -0.15037,-0.16784 -0.23667,-0.2693 -0.33496,-0.39382 -0.66838,-0.78818 -0.97175,-1.1011 -0.15168,-0.15646 -0.28436,-0.28898 -0.47259,-0.42403 -0.0941,-0.0675 -0.19463,-0.14519 -0.41254,-0.21062 -0.2179,-0.0654 -0.74002,-0.0683 -1.06937,0.26107 -0.32936,0.32936 -0.32595,0.8504 -0.26052,1.06831 0.0654,0.2179 0.14363,0.31847 0.21115,0.41259 0.13504,0.18824 0.26741,0.32077 0.42387,0.47245 0.31292,0.30338 0.70771,0.63933 1.10153,0.9743 0.10296,0.0876 0.17292,0.15326 0.27336,0.2391 0.006,0.007 0.0125,0.0135 0.0188,0.0208 -0.009,0.003 -0.0175,0.005 -0.0267,0.008 -0.12992,0.0241 -0.22333,0.046 -0.35629,0.0704 -0.50854,0.0932 -1.01842,0.18674 -1.4411,0.29301 -0.21136,0.0531 -0.39224,0.10173 -0.60331,0.19723 -0.10552,0.0478 -0.22351,0.0958 -0.38917,0.25171 -0.16562,0.156 -0.42909,0.60553 -0.30854,1.05544 0.12055,0.44991 0.57414,0.70849 0.79557,0.76078 0.22143,0.0523 0.34731,0.0353 0.46257,0.0239 0.23054,-0.0228 0.4117,-0.0713 0.6213,-0.13092 0.41919,-0.11931 0.90511,-0.29413 1.39211,-0.46771 0.12546,-0.0447 0.21678,-0.0715 0.33961,-0.1149 0.0117,-0.002 0.022,-0.006 0.0337,-0.008 -0.002,0.0128 -0.006,0.0238 -0.008,0.0363 -0.0432,0.12204 -0.0701,0.21211 -0.11454,0.33676 -0.17357,0.487 -0.34666,0.97296 -0.46596,1.39215 -0.0597,0.20959 -0.10958,0.39169 -0.13241,0.62222 -0.0114,0.11525 -0.0272,0.23997 0.0251,0.46139 0.0523,0.22144 0.30923,0.67479 0.75914,0.79535 0.44991,0.12055 0.89911,-0.1436 1.05511,-0.30922 0.15601,-0.16559 0.20465,-0.28151 0.2524,-0.38704 0.0955,-0.21107 0.14331,-0.39372 0.19645,-0.60507 0.10626,-0.42268 0.19935,-0.93007 0.29254,-1.43861 0.0238,-0.13016 0.0456,-0.22163 0.0692,-0.34892 0.004,-0.0118 0.007,-0.0236 0.011,-0.0357 0.009,0.008 0.016,0.0162 0.0251,0.0239 0.0846,0.099 0.15038,0.16784 0.23667,0.26931 0.33497,0.39382 0.66839,0.78817 0.97176,1.10109 0.15168,0.15646 0.28436,0.28899 0.47259,0.42403 0.0941,0.0675 0.19463,0.14519 0.41254,0.21062 0.2179,0.0654 0.74001,0.0683 1.06937,-0.26107 z" color="#000"/><path style="-inkscape-stroke:none" fill="#abd6fd" fill-rule="evenodd" d="M311.9488 104.64626v0M311.9488 103.64626a1 1 0 00-1 1 1 1 0 001 1 1 1 0 001-1 1 1 0 00-1-1zM337.05836 102.39277v0M337.05836 101.39277a1 1 0 00-1 1 1 1 0 001 1 1 1 0 001-1 1 1 0 00-1-1zM347.45057 133.20109v0M347.45057 132.20109a1 1 0 00-1 1 1 1 0 001 1 1 1 0 001-1 1 1 0 00-1-1zM339.81161 122.69061v0M339.81161 121.69061a1 1 0 00-1 1 1 1 0 001 1 1 1 0 001-1 1 1 0 00-1-1z" color="#000"/></g></svg>