<svg xmlns="http://www.w3.org/2000/svg" width="64" height="64" viewBox="0 0 64 64"><g transform="translate(-384)"><path fill="#aa6a51" fill-rule="evenodd" d="m 413,44 h 6 v 15 h -6 z" color="#000"/><path fill="#374951" fill-rule="evenodd" d="M442.00743 24.60677v0M442.00743 23.60677a1 1 0 00-1 1 1 1 0 001 1 1 1 0 001-1 1 1 0 00-1-1zM438.17879 39.45799v0M438.17879 38.45799a1 1 0 00-1 1 1 1 0 001 1 1 1 0 001-1 1 1 0 00-1-1zM389.31964 47.83376v0M389.31964 46.83376a1 1 0 00-1 1 1 1 0 001 1 1 1 0 001-1 1 1 0 00-1-1zM400.0393 58.95047v0M400.0393 57.95047a1 1 0 00-1 1 1 1 0 001 1 1 1 0 001-1 1 1 0 00-1-1zM427.51127 53.23215v0M427.51127 52.23215a1 1 0 00-1 1 1 1 0 001 1 1 1 0 001-1 1 1 0 00-1-1zM390.21289 5.1738281a1 1 0 00-.5957.2871094 1 1 0 000 1.4140625l.98047.9804688-.98047.9804687a1 1 0 000 1.4140625 1 1 0 001.41406 0L392.01172 9.2695312 392.99219 10.25a1 1 0 001.41406 0 1 1 0 000-1.4140625L393.42578 7.8554688 394.40625 6.875a1 1 0 000-1.4140625 1 1 0 00-1.41406 0l-.98047.9804687-.98047-.9804687a1 1 0 00-.81836-.2871094zM433.67578 9.9394531a1 1 0 00-.70703.2929689 1 1 0 000 1.414062l.98047.980469-.98047.980469a1 1 0 000 1.414062 1 1 0 001.41406 0l.98047-.980468.98047.980468a1 1 0 001.41406 0 1 1 0 000-1.414062l-.98047-.980469.98047-.980469a1 1 0 000-1.414062 1 1 0 00-1.41406 0l-.98047.980469-.98047-.980469a1 1 0 00-.70703-.2929689zM441.66347 5.55094v0M441.66347 4.55094a1 1 0 00-1 1 1 1 0 001 1 1 1 0 001-1 1 1 0 00-1-1zM390.86331 18.00687v0M390.86331 17.00687a1 1 0 00-1 1 1 1 0 001 1 1 1 0 001-1 1 1 0 00-1-1zM393.63314 32.18981v0M393.63314 31.18981a1 1 0 00-1 1 1 1 0 001 1 1 1 0 001-1 1 1 0 00-1-1z" color="#000"/><path fill="#22b27f" fill-rule="evenodd" d="M 415.99998,31 437.0002,47.949705 H 394.99977 Z"/><path fill="#d8ecfe" fill-rule="evenodd" d="M 401.13281,43 395,47.949219 h 42 L 430.86719,43 c -11.154,4.609812 -18.74493,-1.880986 -29.73438,0 z"/><path fill="#22b27f" fill-rule="evenodd" d="M 415.99999,18.050295 434,35 h -36.00002 z"/><path fill="#d8ecfe" fill-rule="evenodd" d="M 403.31055,30 398,35 h 36 l -5.31055,-5 c -11.29916,-1.670574 -18.98285,4.297705 -25.3789,0 z"/><path fill="#22b27f" fill-rule="evenodd" d="m 416,5 13,16.949705 h -26 z"/><path fill="#d8ecfe" fill-rule="evenodd" d="m 416,5 -9.9707,13 c 9.47874,-7.754688 12.17472,1.841248 19.9414,0 z"/></g></svg>