<svg xmlns="http://www.w3.org/2000/svg" width="64" height="64" viewBox="0 0 64 64"><g transform="translate(-384 -192)"><path fill="#d8ecfe" fill-rule="evenodd" d="m 401.7207,245.83008 a 1,1 0 0 0 -0.70703,0.29297 l -4.24219,4.24218 a 1,1 0 0 0 0,1.41407 1,1 0 0 0 1.41407,0 l 4.24218,-4.24219 a 1,1 0 0 0 0,-1.41406 1,1 0 0 0 -0.70703,-0.29297 z" color="#000"/><path style="-inkscape-stroke:none" fill="#d8ecfe" fill-rule="evenodd" d="m 392.52734,237.63867 -4.24218,4.24219 a 1,1 0 0 0 0,1.41406 1,1 0 0 0 1.41406,0 l 4.24219,-4.24219 a 1,1 0 0 0 0,-1.41406 1,1 0 0 0 -1.41407,0 z" color="#000"/><path fill="#d8ecfe" fill-rule="evenodd" d="M396.06445 240.17383a1 1 0 00-.70703.29297l-4.24414 4.24218a1 1 0 000 1.41407 1 1 0 001.41406 0l4.24414-4.24219a1 1 0 000-1.41406 1 1 0 00-.70703-.29297zM398.89258 243.00195a1 1 0 00-.70703.29297l-4.24414 4.24219a1 1 0 000 1.41406 1 1 0 001.41601 0l4.24219-4.24219a1 1 0 000-1.41406 1 1 0 00-.70703-.29297z" color="#000"/><path fill="#d8ecfe" fill-rule="evenodd" d="m 391.82097,236.93066 31.81979,-31.81979 a 3.0000153,3.0000153 0 0 1 4.24267,0 l 7.07103,7.07103 a 3.0000153,3.0000153 0 0 1 0,4.24267 l -31.81979,31.81979 z"/><path fill="#5b7fa0" fill-rule="evenodd" d="M398.55938 230.89934l.35355 3.18199 3.18199.35355.35355 3.18198 3.18198.35355.35355 3.18198 3.18198.35356 3.53554-3.53554-3.18198-.35355-.35356-3.18198-3.18198-.35355-.35355-3.18199-3.18198-.35355-.35355-3.18198zM391 200.00002h50a2 2 45 012 2v14a2 2 135 01-2 2h-50a2 2 45 01-2-2v-14a2 2 135 012-2z"/><path fill="#d8ecfe" fill-rule="evenodd" d="m 389,209.00003 h 54 v -4.00001 h -54 z"/><path fill="#5b7fa0" fill-rule="evenodd" d="M441 244a1 1 0 00-1 1v6a1 1 0 001 1 1 1 0 001-1v-6a1 1 0 00-1-1zM429 244a1 1 0 00-1 1v6a1 1 0 001 1 1 1 0 001-1v-6a1 1 0 00-1-1zM433 244a1 1 0 00-1 1v6a1 1 0 001 1 1 1 0 001-1v-6a1 1 0 00-1-1zM437 244a1 1 0 00-1 1v6a1 1 0 001 1 1 1 0 001-1v-6a1 1 0 00-1-1z" color="#000"/><path fill="#5b7fa0" fill-rule="evenodd" d="m -245,427 h 44.99998 A 3.0000153,3.0000153 45 0 1 -197,430.00002 v 9.99995 a 3.0000153,3.0000153 135 0 1 -3.00002,3.00002 H -245 Z" transform="rotate(-90)"/><path fill="#d8ecfe" fill-rule="evenodd" d="m 427.49999,230.97044 2.5,2 2.5,-2 2.5,2 2.5,-2 2.5,2 2.5,-2 v 5 l -2.5,2 -2.5,-2 -2.5,2 -2.5,-2 -2.5,2 -2.5,-2 z"/></g></svg>