<svg xmlns="http://www.w3.org/2000/svg" width="64" height="64" viewBox="0 0 64 64"><g transform="translate(0 -480)"><path fill="#5b7fa0" fill-rule="evenodd" d="M32 484c1.108 0 2 .892 2 2v51c0 1.108-.892 2-2 2-1.108 0-2-.892-2-2v-51c0-1.108.892-2 2-2zM10.935135 489.00003H13.665924 24.59521 30V497H10.995189L5 493.00001z"/><path fill="#5b7fa0" fill-rule="evenodd" d="M53.064865 497.00002H34v7.99997H53.004811L59 501zM53.064865 511.00003H34V519H53.004811L59 515.00001z" color="#000"/><path fill="#d8ecfe" fill-rule="evenodd" d="m 39.5,495 c -0.830999,0 -1.5,0.669 -1.5,1.5 0,0.831 0.669001,1.5 1.5,1.5 H 40 v 2 c 0,0.831 0.669001,1.5 1.5,1.5 0.830999,0 1.5,-0.669 1.5,-1.5 v -2 h 3.5 c 0.830999,0 1.5,-0.669 1.5,-1.5 0,-0.831 -0.669001,-1.5 -1.5,-1.5 z" color="#000"/><path style="-inkscape-stroke:none" fill="#d8ecfe" fill-rule="evenodd" d="M49 510c.830999 0 1.5.669 1.5 1.5 0 .831-.669001 1.5-1.5 1.5h-.5v1c0 .831-.669001 1.5-1.5 1.5-.830999 0-1.5-.669-1.5-1.5v-1H40c-.830999 0-1.5-.669-1.5-1.5 0-.831.669001-1.5 1.5-1.5zM19 503.625v2.75c0 .831-.669 1.5-1.5 1.5-.831 0-1.5-.669-1.5-1.5v-2.75c0-.831.669-1.5 1.5-1.5.831 0 1.5.669 1.5 1.5z" color="#000"/><path style="-inkscape-stroke:none" fill="#a46868" fill-rule="evenodd" d="m 54.99999,535 v 0" color="#000"/><path style="-inkscape-stroke:none" fill-rule="evenodd" d="m 54.99999,534 a 1,1 0 0 0 -1,1 1,1 0 0 0 1,1 1,1 0 0 0 1,-1 1,1 0 0 0 -1,-1 z" color="#000"/><path style="-inkscape-stroke:none" fill="#d8ecfe" fill-rule="evenodd" d="M42.61957 489.5v0M42.61957 488.5a1 1 0 00-1 1 1 1 0 001 1 1 1 0 001-1 1 1 0 00-1-1z" color="#000"/><path style="-inkscape-stroke:none" fill="#a46868" fill-rule="evenodd" d="m 39.07404,539 v 0" color="#000"/><path style="-inkscape-stroke:none" fill-rule="evenodd" d="m 39.07404,538 a 1,1 0 0 0 -1,1 1,1 0 0 0 1,1 1,1 0 0 0 1,-1 1,1 0 0 0 -1,-1 z" color="#000"/><path style="-inkscape-stroke:none" fill="#d8ecfe" fill-rule="evenodd" d="M5.00008 505.99999v0M5.00008 504.99999a1 1 0 00-1 1 1 1 0 001 1 1 1 0 001-1 1 1 0 00-1-1z" color="#000"/><path fill="#d8ecfe" fill-rule="evenodd" d="M57.095703 488.56836a1 1 0 00-1.224609.70898 1 1 0 00.707031 1.22461l1.931641.51758a1 1 0 001.224609-.70703 1 1 0 00-.707031-1.22461zM51.298828 487.01562a1 1 0 00-1.224609.70704 1 1 0 00.707031 1.22461l1.931641.51953a1 1 0 001.224609-.70899 1 1 0 00-.707031-1.22461zM54.644531 489.98437a1 1 0 00-1.224609.70704l-.517578 1.93164a1 1 0 00.707031 1.22461 1 1 0 001.226562-.70704l.517579-1.93164a1 1 0 00-.708985-1.22461zM56.199219 484.1875a1 1 0 00-1.22461.70703l-.519531 1.93164a1 1 0 00.708984 1.22461 1 1 0 001.22461-.70703l.517578-1.93164a1 1 0 00-.707031-1.22461zM9.9453125 536.23242a1 1 0 00-.7597656.0996 1 1 0 00-.3652344 1.36524l1 1.73242a1 1 0 001.3652345.36718 1 1 0 00.365234-1.36718l-1-1.73242a1 1 0 00-.6054685-.46485zM6.9453125 531.03516a1 1 0 00-.7597656.0996 1 1 0 00-.3652344 1.36718l1 1.73242a1 1 0 001.3652344.36524 1 1 0 00.3652344-1.36524l-1.0000001-1.73242a1 1 0 00-.6054687-.46679zM6.453125 535.59961l-1.7324219 1a1 1 0 00-.3652344 1.36523 1 1 0 001.3652344.36719l1.7324219-1a1 1 0 00.3671875-1.36719 1 1 0 00-1.3671875-.36523z" color="#000"/><path style="-inkscape-stroke:none" fill="#d8ecfe" fill-rule="evenodd" d="M11.650391 532.59961l-1.7324222 1a1 1 0 00-.3671875 1.36523 1 1 0 001.3671877.36719l1.732422-1a1 1 0 00.365234-1.36719 1 1 0 00-1.365234-.36523zM13.5842 526.06768v0M13.5842 525.06768a1 1 0 00-1 1 1 1 0 001 1 1 1 0 001-1 1 1 0 00-1-1zM21 488c.830999 0 1.5.669 1.5 1.5 0 .831-.669001 1.5-1.5 1.5h-.5v1.49997c0 .831-.669001 1.5-1.5 1.5-.830999 0-1.5-.669-1.5-1.5V491H14c-.830999 0-1.5-.669-1.5-1.5 0-.831.669001-1.5 1.5-1.5z" color="#000"/><path fill="#d8ecfe" fill-rule="evenodd" d="m 25,497.5 v 2.75 c 0,0.831 -0.669,1.5 -1.5,1.5 -0.831,0 -1.5,-0.669 -1.5,-1.5 v -2.75 c 0,-0.831 0.669,-1.5 1.5,-1.5 0.831,0 1.5,0.669 1.5,1.5 z" color="#000"/></g></svg>