<svg xmlns="http://www.w3.org/2000/svg" width="64" height="64" viewBox="0 0 64 64"><g transform="translate(-288 -480)"><path style="-inkscape-stroke:none" fill="#5b7fa0" fill-rule="evenodd" d="M320 491.5a1 1 0 00-1 1v10.36719a1 1 0 001 1 1 1 0 001-1V492.5a1 1 0 00-1-1zM335 491.5a1 1 0 00-1 1v10.36719a1 1 0 001 1 1 1 0 001-1V492.5a1 1 0 00-1-1z" color="#000"/><path fill="#5b7fa0" fill-rule="evenodd" d="m 492.5,-347 c 0.831,0 1.5,0.669 1.5,1.5 v 51 c 0,0.831 -0.669,1.5 -1.5,1.5 -0.831,0 -1.5,-0.669 -1.5,-1.5 v -51 c 0,-0.831 0.669,-1.5 1.5,-1.5 z" transform="rotate(90)"/><path fill="#5b7fa0" fill-rule="evenodd" d="m 312.88236,501 h 28.23529 A 5.882353,6.0526372 0 0 0 347,507.05264 v 10.89471 a 5.882353,6.0526372 0 0 0 -5.88235,6.05263 H 312.88236 A 5.882353,6.0526372 0 0 0 307,517.94735 V 507.05264 A 5.882353,6.0526372 0 0 0 312.88236,501 Z"/><path fill="#d8ecfe" fill-rule="evenodd" d="M328 501v6c0 1.108-.892 2-2 2-1.108 0-2-.892-2-2v-1c0-1.10801-.892-2-2-2-1.108 0-2 .89199-2 2v8c0 1.108-.892 2-2 2-1.108 0-2-.892-2-2v-13zM333.5 513c.831 0 1.5.669 1.5 1.5v3c0 .831-.669 1.5-1.5 1.5-.831 0-1.5-.669-1.5-1.5v-3c0-.831.669-1.5 1.5-1.5zM311.42047 536.4142a2 2 0 01-2.82843 0 2 2 0 010-2.82843 2 2 0 012.82843 0 2 2 0 010 2.82843zM293 531.58133v0M293.7071 530.87423a1 1 0 00-1.41421 0 1 1 0 000 1.41421 1 1 0 001.41421 0 1 1 0 000-1.41421zM310 485v0M310.7071 484.2929a1 1 0 00-1.41421 0 1 1 0 000 1.41421 1 1 0 001.41421 0 1 1 0 000-1.41421zM346.99999 499v0M347.70709 498.2929a1 1 0 00-1.41421 0 1 1 0 000 1.41421 1 1 0 001.41421 0 1 1 0 000-1.41421zM307 499v0M307.70711 498.29289a1 1 0 00-1.41422 0 1 1 0 000 1.41422 1 1 0 001.41422 0 1 1 0 000-1.41422zM330 534v0M330.70711 533.29289a1 1 0 00-1.41422 0 1 1 0 000 1.41422 1 1 0 001.41422 0 1 1 0 000-1.41422zM345 527v0M345.70711 526.29289a1 1 0 00-1.41422 0 1 1 0 000 1.41422 1 1 0 001.41422 0 1 1 0 000-1.41422zM346 538v0M346.70711 537.2929a1 1 0 00-1.41422 0 1 1 0 000 1.41421 1 1 0 001.41422 0 1 1 0 000-1.41421z" color="#000"/><path style="-inkscape-stroke:none" fill="#d8ecfe" fill-rule="evenodd" d="m 322,488 c -0.831,0 -1.5,0.669 -1.5,1.5 0,0.831 0.669,1.5 1.5,1.5 h 6 v 4.5 c 0,0.831 0.669,1.5 1.5,1.5 0.831,0 1.5,-0.669 1.5,-1.5 v -6 c 0,-0.831 -0.669,-1.5 -1.5,-1.5 z" color="#000"/><path fill="#5b7fa0" fill-rule="evenodd" d="m 300.5,485 c 0.831,0 1.5,0.669 1.5,1.5 v 51 c 0,0.831 -0.669,1.5 -1.5,1.5 -0.831,0 -1.5,-0.669 -1.5,-1.5 v -51 c 0,-0.831 0.669,-1.5 1.5,-1.5 z"/><path fill="#d8ecfe" fill-rule="evenodd" d="M294.99999 509.52609v0M295.7071 508.81898a1 1 0 00-1.41421 0 1 1 0 000 1.41422 1 1 0 001.41421 0 1 1 0 000-1.41422zM317.5 522c.831 0 1.5.669 1.5 1.5v3c0 .831-.669 1.5-1.5 1.5-.831 0-1.5-.669-1.5-1.5v-3c0-.831.669-1.5 1.5-1.5z" color="#000"/></g></svg>