<svg xmlns="http://www.w3.org/2000/svg" width="64" height="64" viewBox="0 0 64 64"><path fill="#374951" fill-rule="evenodd" d="m 9,12 a 1,1 0 0 0 -1,1 1,1 0 0 0 1,1 h 1 V 41.378906 H 8 A 1.0001,1.0001 0 0 0 7.2929688,43.085938 L 10,45.792969 V 52 a 1,1 0 0 0 1,1 1,1 0 0 0 1,-1 v -6.207031 l 2.707031,-2.707031 A 1.0001,1.0001 0 0 0 14,41.378906 H 12 V 14 h 1 a 1,1 0 0 0 1,-1 1,1 0 0 0 -1,-1 z" color="#000"/><path style="-inkscape-stroke:none" fill="#374951" fill-rule="evenodd" d="m 51,12 a 1,1 0 0 0 -1,1 1,1 0 0 0 1,1 h 1 v 27.378906 h -2 a 1.0001,1.0001 0 0 0 -0.707031,1.707032 L 52,45.792969 V 52 a 1,1 0 0 0 1,1 1,1 0 0 0 1,-1 v -6.207031 l 2.707031,-2.707031 A 1.0001,1.0001 0 0 0 56,41.378906 H 54 V 14 h 1 a 1,1 0 0 0 1,-1 1,1 0 0 0 -1,-1 z" color="#000"/><path fill="#ff435b" fill-rule="evenodd" d="m 20.766929,11.215389 c 1.919112,-1.107999 4.3561,-0.45501 5.4641,1.464103 l 20.000002,34.641016 c 1.108,1.919112 0.45501,4.3561 -1.464102,5.4641 -1.919113,1.108 -4.3561,0.455011 -5.4641,-1.464102 L 19.302828,16.679489 c -1.107999,-1.919111 -0.455012,-4.356099 1.464101,-5.4641 z"/><path fill="#ff435b" fill-rule="evenodd" d="m 19.002041,53.108609 c 1.919112,1.107999 4.3561,0.45501 5.4641,-1.464103 L 44.466143,17.003489 c 1.108,-1.919112 0.45501,-4.3561 -1.464102,-5.4641 -1.919113,-1.108 -4.3561,-0.455011 -5.4641,1.464102 L 17.53794,47.644508 c -1.107999,1.919112 -0.455012,4.3561 1.464101,5.464101 z"/><path fill="#d8ecfe" fill-rule="evenodd" d="m 14.712208,40.45583 -4.9999657,5.00133 2.829e-4,11.220285 C 9.9065728,56.542503 10.093266,56.390516 10.266523,56.21726 l 4.446734,-4.445904 z" transform="rotate(-15)"/><path fill="#d8ecfe" fill-rule="evenodd" d="m 47.235216,-24.075446 3.32e-4,-11.313134 4.010653,-4.010739 c 0.299003,-0.299004 0.633782,-0.540865 0.989121,-0.725757 l -6.46e-4,11.050187 z" transform="scale(1 -1) rotate(-15)"/><path fill="#d8ecfe" fill-rule="evenodd" d="M41.107422 11.001953c-1.417917-.0383-2.808563.682564-3.570313 2.001953L35.910156 15.822266 36 16l6 5 .115234.07813 2.351563-4.074219c1.107999-1.91911.454266-4.356845-1.464844-5.464844-.599722-.346249-1.250023-.5197-1.894531-.537109zM22.662109 10.677734c-.644507.01741-1.294809.19086-1.894531.53711-1.919111 1.108-2.572842 3.545734-1.464844 5.464844L21.820312 21.041016 22 21 28 16 28.09766 15.91211 26.230473 12.679689C25.468724 11.3603 24.08003 10.639436 22.662113 10.677735z"/></svg>