<svg xmlns="http://www.w3.org/2000/svg" width="64" height="64" viewBox="0 0 64 64"><g transform="translate(-192 -384)"><path fill="#d8ecfe" fill-rule="evenodd" d="m 223.98047,402 c -7.1369,-0.003 -12.3128,1.01108 -21.41797,3.04883 -0.91315,0.20479 -1.56224,1.01534 -1.5625,1.95117 v 20 c 1.1e-4,1.10452 0.89548,1.99989 2,2 h 16.15039 l 4.42481,-4.42481 c 0.23461,-0.23461 0.61499,-0.23461 0.8496,0 L 228.84961,429 H 245 c 1.10452,-1.1e-4 1.99989,-0.89548 2,-2 v -20 c -1.6e-4,-0.9389 -0.65335,-1.75133 -1.57031,-1.95312 -9.04947,-1.99543 -14.20521,-3.0438 -21.44922,-3.04688 z" color="#000"/><path fill="#5b7fa0" fill-rule="evenodd" d="M223.97852 406C217.65657 405.998 213.11991 406.91811 205 408.66406V425h12.09961l6.4502-6.4502c.24863-.24863.65175-.24863.90038 0L230.90039 425H243V408.66602C234.91969 406.94923 230.39236 406.003 223.97852 406zM247 410h2a2 2 0 012 2v8a2 2 0 01-2 2h-2z" color="#000"/><path style="-inkscape-stroke:none" fill="#5b7fa0" fill-rule="evenodd" d="m 201,410 h -2 a 2,2 0 0 0 -2,2 v 8 a 2,2 0 0 0 2,2 h 2 z" color="#000"/><path style="-inkscape-stroke:none" fill="#d8ecfe" fill-rule="evenodd" d="m 213.3457,412.24414 -4.61914,4 a 1,1 0 0 0 -0.10156,1.41016 1,1 0 0 0 1.41016,0.10156 l 4.61914,-4 a 1,1 0 0 0 0.10156,-1.41016 1,1 0 0 0 -1.41016,-0.10156 z" color="#000"/><path fill="#d8ecfe" fill-rule="evenodd" d="M218.6543 412.24414l-4.61914 4a1 1 0 00-.0996 1.41016 1 1 0 001.41015.10156l4.61914-4a1 1 0 00.0996-1.41016 1 1 0 00-1.41015-.10156zM233.03516 412.24414l-4.61719 4a1 1 0 00-.10156 1.41016 1 1 0 001.41015.10156l4.61914-4a1 1 0 00.10157-1.41016 1 1 0 00-1.41211-.10156zM238.3457 412.24414l-4.61914 4a1 1 0 00-.10156 1.41016 1 1 0 001.41016.10156l4.61914-4a1 1 0 00.10156-1.41016 1 1 0 00-1.41016-.10156z" color="#000"/></g></svg>