<svg xmlns="http://www.w3.org/2000/svg" width="64" height="64" viewBox="0 0 64 64"><g transform="translate(-96)"><path style="-inkscape-stroke:none" fill="#ff435b" fill-rule="evenodd" d="M101.00001 14H104V7h-2.99999a1 1 0 00-1 1v5a1 1 0 001 1zM155 7h-2.99999v7H155a1 1 0 001-1V8a1 1 0 00-1-1z" color="#000"/><rect width="7" height="47" x="116" y="9" fill="#d8ecfe" fill-rule="evenodd" rx="3.5" ry="3.5"/><path fill="#ff435b" fill-rule="evenodd" d="m 116,17.5 7,3 V 27 l -7,-3 z"/><path style="-inkscape-stroke:none" fill="#d8ecfe" fill-rule="evenodd" d="m 139.835,15.945424 c 1.87293,0.50185 2.97673,2.413677 2.47488,4.286607 l -8.67045,32.358563 c -0.50185,1.87293 -2.41368,2.976723 -4.28661,2.474873 -1.87293,-0.50185 -2.97673,-2.413677 -2.47487,-4.286607 l 8.67045,-32.358562 c 0.50185,-1.87293 2.41367,-2.976724 4.2866,-2.474874 z" color="#000"/><path style="-inkscape-stroke:none" fill="#374951" fill-rule="evenodd" d="m 104,4 a 1,1 0 0 0 -1,1 v 37 h -2 a 1,1 0 0 0 -1,1 1,1 0 0 0 1,1 h 2 v 10 a 1,1 0 0 0 1,1 1,1 0 0 0 1,-1 V 44 h 2 a 1,1 0 0 0 1,-1 1,1 0 0 0 -1,-1 h -2 V 5 a 1,1 0 0 0 -1,-1 z m 48,0 a 1,1 0 0 0 -1,1 v 37 h -2 a 1,1 0 0 0 -1,1 1,1 0 0 0 1,1 h 2 v 10 a 1,1 0 0 0 1,1 1,1 0 0 0 1,-1 V 44 h 2 a 1,1 0 0 0 1,-1 1,1 0 0 0 -1,-1 h -2 V 5 a 1,1 0 0 0 -1,-1 z" color="#000"/><path fill="#ff435b" fill-rule="evenodd" d="m 134.25431,23.249928 5.98502,4.70951 -1.68232,6.278517 -5.98503,-4.70951 z"/><path fill="#d8ecfe" fill-rule="evenodd" d="m 135.35156,40.599609 a 12.466865,9.2006035 0 0 0 -11.36718,5.455079 7.8795094,7.1555076 0 0 0 -4.62891,-1.365235 7.8795094,7.1555076 0 0 0 -6.19922,2.765625 7.8795094,7.1555076 0 0 0 -0.002,0 9.9424667,5.8456206 0 0 0 -2.21094,-0.146484 A 9.9424667,5.8456206 0 0 0 101,53.154297 9.9424667,5.8456206 0 0 0 110.94336,59 9.9424667,5.8456206 0 0 0 115.8457,58.236328 7.8795094,7.1555076 0 0 0 119.35547,59 7.8795094,7.1555076 0 0 0 125.92188,55.787109 12.466865,9.2006035 0 0 0 135.35156,59 12.466865,9.2006035 0 0 0 142.04102,57.542969 7.8795094,6.1181645 0 0 0 147.12109,59 7.8795094,6.1181645 0 0 0 155,52.882812 a 7.8795094,6.1181645 0 0 0 -7.87891,-6.11914 7.8795094,6.1181645 0 0 0 -0.004,0 12.466865,9.2006035 0 0 0 -11.76563,-6.164063 z"/><path style="-inkscape-stroke:none" fill="#abd6fd" fill-rule="evenodd" d="M119.5 48.800781c-3.48929 0-5.30469 2.351563-5.30469 2.351563a1 1 0 00.21094 1.398437 1 1 0 001.39844-.21289c0 0 1.0518-1.53711 3.69531-1.53711a1 1 0 001-1 1 1 0 00-1-1zM136.13477 45.652344c-1.08295 0-2.09707.343288-2.92383.923828a1 1 0 00-.24414 1.392578 1 1 0 001.39257.244141c.50272-.352998 1.11046-.560547 1.7754-.560547 1.71934 0 3.08984 1.372449 3.08984 3.091797a1 1 0 001 1 1 1 0 001-1c0-2.800226-2.28962-5.091797-5.08984-5.091797z" color="#000"/></g></svg>