<svg xmlns="http://www.w3.org/2000/svg" width="64" height="64" viewBox="0 0 64 64"><g transform="translate(-288)"><path style="-inkscape-stroke:none" fill="#abd6fd" fill-rule="evenodd" d="m 320,4 a 1,1 0 0 0 -1,1 V 7.5859375 L 317.70703,6.2929688 A 1,1 0 0 0 317,6 a 1,1 0 0 0 -0.70703,0.2929688 1,1 0 0 0 0,1.4140624 L 319,10.414062 v 2.671876 L 315.70703,9.7929688 A 1,1 0 0 0 315,9.5 a 1,1 0 0 0 -0.70703,0.2929688 1,1 0 0 0 0,1.4140622 L 319,15.914062 V 20 a 1,1 0 0 0 1,1 1,1 0 0 0 1,-1 v -4.085938 l 4.70703,-4.707031 a 1,1 0 0 0 0,-1.4140622 1,1 0 0 0 -1.41406,0 L 321,13.085938 v -2.671876 l 2.70703,-2.7070308 a 1,1 0 0 0 0,-1.4140624 1,1 0 0 0 -1.41406,0 L 321,7.5859375 V 5 a 1,1 0 0 0 -1,-1 z m -15.55664,7.201172 a 1,1 0 0 0 -1,1 v 1.828125 l -1.82813,-1.828125 a 1,1 0 0 0 -1.41406,0 1,1 0 0 0 0,1.414062 l 1.82813,1.828125 h -1.82813 a 1,1 0 0 0 -1,1 1,1 0 0 0 1,1 h 3.82813 l 1.88867,1.888672 h -4.65625 a 1,1 0 0 0 -1,1 1,1 0 0 0 1,1 h 6.6543 l 2.89062,2.890625 a 1,1 0 0 0 1.41602,0 1,1 0 0 0 0,-1.416015 l -2.89063,-2.890625 v -6.654297 a 1,1 0 0 0 -1,-1 1,1 0 0 0 -1,1 v 4.65625 l -1.88867,-1.888672 v -3.828125 a 1,1 0 0 0 -1,-1 z m 31.11328,0 a 1,1 0 0 0 -1,1 v 3.828125 l -1.88867,1.888672 v -4.65625 a 1,1 0 0 0 -1,-1 1,1 0 0 0 -1,1 v 6.654297 l -2.89063,2.890625 a 1,1 0 0 0 0,1.416015 1,1 0 0 0 1.41602,0 l 2.89062,-2.890625 h 6.6543 a 1,1 0 0 0 1,-1 1,1 0 0 0 -1,-1 h -4.65625 l 1.88867,-1.888672 h 3.82813 a 1,1 0 0 0 1,-1 1,1 0 0 0 -1,-1 h -1.82813 l 1.82813,-1.828125 a 1,1 0 0 0 0,-1.414062 1,1 0 0 0 -0.70703,-0.292969 1,1 0 0 0 -0.70703,0.292969 l -1.82813,1.828125 v -1.828125 a 1,1 0 0 0 -1,-1 z M 298.5,26 a 1,1 0 0 0 -0.70703,0.292969 1,1 0 0 0 0,1.414062 L 301.08594,31 h -2.67188 l -2.70703,-2.707031 a 1,1 0 0 0 -1.41406,0 1,1 0 0 0 0,1.414062 L 295.58594,31 H 293 a 1,1 0 0 0 -1,1 1,1 0 0 0 1,1 h 2.58594 l -1.29297,1.292969 a 1,1 0 0 0 0,1.414062 1,1 0 0 0 1.41406,0 L 298.41406,33 h 2.67188 l -3.29297,3.292969 a 1,1 0 0 0 0,1.414062 1,1 0 0 0 1.41406,0 L 303.91406,33 H 308 a 1,1 0 0 0 1,-1 1,1 0 0 0 -1,-1 h -4.08594 l -4.70703,-4.707031 A 1,1 0 0 0 298.5,26 Z m 43,0 a 1,1 0 0 0 -0.70703,0.292969 L 336.08594,31 H 332 a 1,1 0 0 0 -1,1 1,1 0 0 0 1,1 h 4.08594 l 4.70703,4.707031 a 1,1 0 0 0 1.41406,0 1,1 0 0 0 0,-1.414062 L 338.91406,33 h 2.67188 l 2.70703,2.707031 a 1,1 0 0 0 1.41406,0 1,1 0 0 0 0,-1.414062 L 344.41406,33 H 347 a 1,1 0 0 0 1,-1 1,1 0 0 0 -1,-1 h -2.58594 l 1.29297,-1.292969 a 1,1 0 0 0 0,-1.414062 A 1,1 0 0 0 345,28 1,1 0 0 0 344.29297,28.292969 L 341.58594,31 h -2.67188 l 3.29297,-3.292969 a 1,1 0 0 0 0,-1.414062 A 1,1 0 0 0 341.5,26 Z m -30.14258,13.496094 a 1,1 0 0 0 -0.55078,0.28125 l -2.89062,2.890625 h -6.6543 a 1,1 0 0 0 -1,1 1,1 0 0 0 1,1 h 4.65625 l -1.88867,1.888672 h -3.82813 a 1,1 0 0 0 -1,1 1,1 0 0 0 1,1 h 1.82813 l -1.82813,1.828125 a 1,1 0 0 0 0,1.414062 1,1 0 0 0 1.41406,0 l 1.82813,-1.828125 v 1.828125 a 1,1 0 0 0 1,1 1,1 0 0 0 1,-1 v -3.828125 l 1.88867,-1.888672 v 4.65625 a 1,1 0 0 0 1,1 1,1 0 0 0 1,-1 v -6.654297 l 2.89063,-2.890625 a 1,1 0 0 0 0,-1.416015 1,1 0 0 0 -0.86524,-0.28125 z m 16.9707,0 a 1,1 0 0 0 -0.55078,0.28125 1,1 0 0 0 0,1.416015 l 2.89063,2.890625 v 6.654297 a 1,1 0 0 0 1,1 1,1 0 0 0 1,-1 v -4.65625 l 1.88867,1.888672 v 3.828125 a 1,1 0 0 0 1,1 1,1 0 0 0 1,-1 v -1.828125 l 1.82813,1.828125 a 1,1 0 0 0 1.41406,0 1,1 0 0 0 0,-1.414062 l -1.82813,-1.828125 h 1.82813 a 1,1 0 0 0 1,-1 1,1 0 0 0 -1,-1 h -3.82813 l -1.88867,-1.888672 h 4.65625 a 1,1 0 0 0 1,-1 1,1 0 0 0 -1,-1 h -6.6543 l -2.89062,-2.890625 a 1,1 0 0 0 -0.86524,-0.28125 z M 320,43 a 1,1 0 0 0 -1,1 v 4.085938 l -4.70703,4.707031 a 1,1 0 0 0 0,1.414062 1,1 0 0 0 1.41406,0 L 319,50.914062 v 2.671876 l -2.70703,2.707031 a 1,1 0 0 0 0,1.414062 1,1 0 0 0 1.41406,0 L 319,56.414062 V 59 a 1,1 0 0 0 1,1 1,1 0 0 0 1,-1 v -2.585938 l 1.29297,1.292969 a 1,1 0 0 0 1.41406,0 1,1 0 0 0 0,-1.414062 L 321,53.585938 v -2.671876 l 3.29297,3.292969 a 1,1 0 0 0 1.41406,0 1,1 0 0 0 0,-1.414062 L 321,48.085938 V 44 a 1,1 0 0 0 -1,-1 z" color="#000"/><path fill="#d8ecfe" fill-rule="evenodd" d="m 332,32 2,-6 -6,-2 -2,-6 -6,2 -6,-2 -2,6 -6,2 2,6 -2,6 6,2 2,6 6,-2 6,2 2,-6 6,-2 -2,-6"/><circle cx="320" cy="32" r="5.5" fill="#abd6fd" fill-rule="evenodd"/></g></svg>