<svg xmlns="http://www.w3.org/2000/svg" width="64" height="64" viewBox="0 0 64 64"><g transform="translate(0 -576)"><path style="-inkscape-stroke:none" fill="#374951" fill-rule="evenodd" d="m 25.152344,586.375 a 1,1 0 0 0 -0.707032,1.22461 l 5.177735,19.31836 a 1,1 0 0 0 1.224609,0.70703 1,1 0 0 0 0.707031,-1.22461 L 26.376953,587.08203 A 1,1 0 0 0 25.152344,586.375 Z" color="#000"/><path style="-inkscape-stroke:none" fill="#5b7fa0" fill-rule="evenodd" d="m 25.5691,611.10995 11.591111,-3.10583 2.32937,8.69333 a 5.995,5.995 0 0 1 -4.239104,7.34235 l -0.0097,0.003 a 5.995,5.995 0 0 1 -7.342346,-4.2391 z" color="#000"/><path style="-inkscape-stroke:none" fill="#5b7fa0" fill-rule="evenodd" d="m 28.656346,607.17689 3.863703,-1.03527 1.035277,3.8637 a 2,2 0 0 1 -1.414214,2.44949 2,2 0 0 1 -2.44949,-1.41421 z" color="#000"/><path fill="#5b7fa0" fill-rule="evenodd" d="m 21.029896,583.44422 5.795555,-1.55292 0.517639,1.93185 a 3,3 0 0 1 -2.12132,3.67424 3,3 0 0 1 -3.674235,-2.12132 z"/><path fill="#d8ecfe" fill-rule="evenodd" d="M 16,612 A 6,6 0 0 0 10.003906,617.94922 9,9 0 0 0 5,626 a 9,9 0 0 0 9,9 9,9 0 0 0 2.939453,-0.51562 A 7,5 0 0 0 20,635 7,5 0 0 0 23.564453,634.29883 9,9 0 0 0 27,635 9,9 0 0 0 31.919922,633.5293 10,5 0 0 0 39,635 10,5 0 0 0 45.515625,633.7793 8.9999952,8.9999952 0 0 0 50,635 a 8.9999952,8.9999952 0 0 0 9,-9 8.9999952,8.9999952 0 0 0 -9,-9 8.9999952,8.9999952 0 0 0 -3.539062,0.73828 A 8.9999952,8.9999952 0 0 0 40,615 8.9999952,8.9999952 0 0 0 32.576172,618.93945 9,9 0 0 0 27,617 9,9 0 0 0 21.958984,618.57227 6,6 0 0 0 22,618 6,6 0 0 0 16,612 Z"/><path style="-inkscape-stroke:none" fill="#d8ecfe" fill-rule="evenodd" d="M49 610v0M49 609a1 1 0 00-1 1 1 1 0 001 1 1 1 0 001-1 1 1 0 00-1-1zM58 582v0M58 581a1 1 0 00-1 1 1 1 0 001 1 1 1 0 001-1 1 1 0 00-1-1zM52.017578 595.65039a1 1 0 000 1.41406l1.414063 1.41407a1 1 0 001.416015 0 1 1 0 000-1.41407l-1.416015-1.41406a1 1 0 00-1.414063 0zM47.775391 591.4082a1 1 0 000 1.41407l1.414062 1.41406a1 1 0 001.414063 0 1 1 0 000-1.41406l-1.414063-1.41407a1 1 0 00-1.414062 0zM49.189453 595.65039l-1.414062 1.41406a1 1 0 000 1.41407 1 1 0 001.414062 0l1.414063-1.41407a1 1 0 000-1.41406 1 1 0 00-1.414063 0zM53.431641 591.4082l-1.414063 1.41407a1 1 0 000 1.41406 1 1 0 001.414063 0l1.416015-1.41406a1 1 0 000-1.41407 1 1 0 00-1.416015 0zM41 585v0M41 584a1 1 0 00-1 1 1 1 0 001 1 1 1 0 001-1 1 1 0 00-1-1zM21 600v0M21 599a1 1 0 00-1 1 1 1 0 001 1 1 1 0 001-1 1 1 0 00-1-1zM6 610v0M6 609a1 1 0 00-1 1 1 1 0 001 1 1 1 0 001-1 1 1 0 00-1-1z" color="#000"/><path style="-inkscape-stroke:none" fill="#b1d9fd" fill-rule="evenodd" d="M42.712891 620.85742c-1.374254 0-2.748281.52172-3.791016 1.56445-.811196.81121-1.313385 1.82642-1.494141 2.88086a1 1 0 00.816407 1.15625 1 1 0 001.154296-.81836c.113485-.66201.423592-1.29077.9375-1.80468 1.321172-1.32117 3.432735-1.32117 4.753907 0a1 1 0 001.414062 0 1 1 0 000-1.41407c-1.042735-1.04273-2.416762-1.56445-3.791015-1.56445zM16.296875 620.10937c-1.065269-.0983-2.1764.1217-3.169922.69532-2.554174 1.47464-3.435579 4.77005-1.960937 7.32422a1 1 0 001.365234.36523 1 1 0 00.365234-1.36523c-.934202-1.6181-.387624-3.6576 1.230469-4.5918.629393-.36338 1.317473-.49921 1.986328-.4375a1 1 0 001.087891-.9043 1 1 0 00-.904297-1.08594zM32.451172 625.05859A1 1 0 0031.107422 625.5c-1.748335 3.45776-5.8125 2.94336-5.8125 2.94336a1 1 0 00-1.109375.875 1 1 0 00.875 1.11133c0 0 5.48507.61434 7.832031-4.02735a1 1 0 00-.441406-1.34375z" color="#000"/><path style="-inkscape-stroke:none" fill="#a46868" fill-rule="evenodd" d="m 20.47045,627.24556 v 0" color="#000"/><path style="-inkscape-stroke:none" fill="#b1d9fd" fill-rule="evenodd" d="m 20.47045,626.24556 a 1,1 0 0 0 -1,1 1,1 0 0 0 1,1 1,1 0 0 0 1,-1 1,1 0 0 0 -1,-1 z" color="#000"/><path style="-inkscape-stroke:none" fill="#a46868" fill-rule="evenodd" d="m 53.06066,626.79188 v 0" color="#000"/><path style="-inkscape-stroke:none" fill="#b1d9fd" fill-rule="evenodd" d="m 53.06066,625.79188 a 1,1 0 0 0 -1,1 1,1 0 0 0 1,1 1,1 0 0 0 1,-1 1,1 0 0 0 -1,-1 z" color="#000"/><path style="-inkscape-stroke:none" fill="#d8ecfe" fill-rule="evenodd" d="M13.734375 584.80859a1 1 0 00-.757812.10157l-1.732422 1a1 1 0 00-.365235 1.36523 1 1 0 001.365235.36523l1.732422-1a1 1 0 00.365234-1.36523 1 1 0 00-.607422-.4668zM7.78125 587.91016l-1.7324219 1a1 1 0 00-.3671875 1.36523 1 1 0 001.3671875.36523l1.7324219-1A1 1 0 009.1464844 588.27539 1 1 0 007.78125 587.91016zM10.511719 588.64062a1 1 0 00-.365235 1.36719l1 1.73242a1 1 0 001.365235.36524 1 1 0 00.367187-1.36524l-1-1.73242a1 1 0 00-1.367187-.36719zM8.2714844 583.3457a1 1 0 00-.7597657.0996 1 1 0 00-.3652343 1.36524l1 1.73242a1 1 0 001.3652344.36719 1 1 0 00.3671875-1.36719l-1-1.73242A1 1 0 008.2714844 583.3457z" color="#000"/></g></svg>