<svg xmlns="http://www.w3.org/2000/svg" width="64" height="64" viewBox="0 0 64 64"><g transform="translate(-96 -288)"><path fill="#374951" fill-rule="evenodd" d="M146.39258 303a1 1 0 00-.3125.0332 1 1 0 00-.70703 1.22657l1.72265 6.43164-4.79101 8.29882a1 1 0 00.36523 1.36524 1 1 0 001.36524-.36524l4.79296-8.30078 6.43165-1.72265a1 1 0 00.70703-1.22657 1 1 0 00-1.22657-.70703l-4.49804 1.20508 2.29297-3.9707a1 1 0 00-.36524-1.36524 1 1 0 00-1.36523.36524l-2.29297 3.97265-1.20508-4.5A1 1 0 00146.39258 303zM109.60742 303a1 1 0 00-.91406.74023l-1.20508 4.5-2.29297-3.97265a1 1 0 00-.60547-.46485 1 1 0 00-.75976.0996 1 1 0 00-.36524 1.36524l2.29297 3.9707-4.49804-1.20508a1 1 0 00-1.22657.70703 1 1 0 00.70703 1.22657l6.43165 1.72265 4.79296 8.30078a1 1 0 001.36524.36524 1 1 0 00.36523-1.36524l-4.79101-8.29882 1.72265-6.43164A1 1 0 00109.91992 303.0332 1 1 0 00109.60742 303z" color="#000"/><path style="-inkscape-stroke:none" fill="#d8ecfe" fill-rule="evenodd" d="M152.195 332.47487v0M152.195 331.47487a1 1 0 00-1 1 1 1 0 001 1 1 1 0 001-1 1 1 0 00-1-1zM153.66987 294.33506v0M153.66987 293.33506a1 1 0 00-1 1 1 1 0 001 1 1 1 0 001-1 1 1 0 00-1-1zM101.62346 330.66531v0M101.62346 329.66531a1 1 0 00-1 1 1 1 0 001 1 1 1 0 001-1 1 1 0 00-1-1zM102.84743 345.94223v0M102.84743 344.94223a1 1 0 00-1 1 1 1 0 001 1 1 1 0 001-1 1 1 0 00-1-1zM153.7133 346.77573v0M153.7133 345.77573a1 1 0 00-1 1 1 1 0 001 1 1 1 0 001-1 1 1 0 00-1-1zM144.04468 298.99117v0M144.04468 297.99117a1 1 0 00-1 1 1 1 0 001 1 1 1 0 001-1 1 1 0 00-1-1zM114.32823 297.82017v0M114.32823 296.82017a1 1 0 00-1 1 1 1 0 001 1 1 1 0 001-1 1 1 0 00-1-1zM102.44713 294.92002v0M102.44713 293.92002a1 1 0 00-1 1 1 1 0 001 1 1 1 0 001-1 1 1 0 00-1-1z" color="#000"/><path fill="#d8ecfe" fill-rule="evenodd" d="m 138,303 a 10,10 0 0 1 -10,10 10,10 0 0 1 -10,-10 10,10 0 0 1 10,-10 10,10 0 0 1 10,10 z"/><path fill="#d8ecfe" fill-rule="evenodd" d="m 146,329 a 18,18 0 0 1 -18,18 18,18 0 0 1 -18,-18 18,18 0 0 1 18,-18 18,18 0 0 1 18,18 z"/><path fill="#374951" fill-rule="evenodd" d="m 124.99956,297.99987 v 0" color="#000"/><path fill="#5b7fa0" fill-rule="evenodd" d="m 125,297 a 1,1 0 0 0 -1,1 1,1 0 0 0 1,1 1,1 0 0 0 1,-1 1,1 0 0 0 -1,-1 z" color="#000"/><path fill="#374951" fill-rule="evenodd" d="m 131,297.99987 v 0" color="#000"/><path fill="#5b7fa0" fill-rule="evenodd" d="m 131.00044,297 a 1,1 0 0 0 -1,1 1,1 0 0 0 1,1 1,1 0 0 0 1,-1 1,1 0 0 0 -1,-1 z" color="#000"/><path fill="#374951" fill-rule="evenodd" d="m 127.99956,300.99987 v 0" color="#000"/><path fill="#5b7fa0" fill-rule="evenodd" d="M128 300a1 1 0 00-1 1 1 1 0 001 1 1 1 0 001-1 1 1 0 00-1-1zM125.76563 303.125a1 1 0 00-.36915 1.36523C125.91395 305.39288 126.89337 306 128 306c1.1055 0 2.0837-.60473 2.60156-1.50586a1 1 0 00-.36719-1.36523 1 1 0 00-1.36523.36718C128.6968 303.79599 128.37912 304 128 304c-.37951 0-.69693-.20351-.86914-.50391a1 1 0 00-1.36523-.37109z" color="#000"/><path fill="#5b7fa0" fill-rule="evenodd" d="m 132.5,314 h 4 l 2.5,9 h -6 z"/><path style="-inkscape-stroke:none" fill="#5b7fa0" fill-rule="evenodd" d="m 130,337 a 2,2 0 0 1 -2,2 2,2 0 0 1 -2,-2 2,2 0 0 1 2,-2 2,2 0 0 1 2,2 z" color="#000"/><path fill="#5b7fa0" fill-rule="evenodd" d="M128 328c-1.09272 0-2 .90728-2 2 0 1.09272.90728 2 2 2 1.09272 0 2-.90728 2-2 0-1.09272-.90728-2-2-2zM128 321c-1.09272 0-2 .90728-2 2 0 1.09272.90728 2 2 2 1.09272 0 2-.90728 2-2 0-1.09272-.90728-2-2-2z" color="#000"/><path fill="#add7fd" fill-rule="evenodd" d="M 118.49999,309 H 137.5 c 1.385,0 2.5,1.115 2.5,2.5 0,1.385 -1.115,2.5 -2.5,2.5 h -19.00001 c -1.385,0 -2.5,-1.115 -2.5,-2.5 0,-1.385 1.115,-2.5 2.5,-2.5 z" color="#000"/></g></svg>