<svg xmlns="http://www.w3.org/2000/svg" width="64" height="64" viewBox="0 0 64 64"><g transform="translate(-96 -192)"><path fill="#d8ecfe" fill-rule="evenodd" d="M 91.449832,209.30116 84,213.60233 76.550168,209.30116 v -8.60232 L 84,196.39767 l 7.449832,4.30117 z" transform="matrix(1.47625 0 0 1.4687 3.995 -77.084)"/><path fill="#abd6fd" fill-rule="evenodd" d="m 121.70508,196 c -0.2652,4e-5 -0.51953,0.10542 -0.70703,0.29297 -0.39042,0.39051 -0.39042,1.02355 0,1.41406 L 127,203.70898 v 2.20118 l -3.30664,-3.18946 c -0.19069,-0.1835 -0.44634,-0.28393 -0.71094,-0.27929 -0.26553,0.004 -0.5185,0.11379 -0.70312,0.30468 -0.38298,0.39802 -0.3707,1.03116 0.0273,1.41407 L 127,208.68945 v 2.09766 l -6.85742,3.94141 -1.85547,-1.85547 0.11719,-6.52149 c 0.01,-0.55157 -0.42892,-1.00689 -0.98047,-1.01758 -0.55308,-0.0109 -1.00992,0.42933 -1.01953,0.98243 l -0.082,4.59179 -2.26563,-2.26562 c -0.1875,-0.18755 -0.44183,-0.29293 -0.70703,-0.29297 -0.2652,4e-5 -0.51953,0.10542 -0.70703,0.29297 -0.39042,0.39051 -0.39042,1.02355 0,1.41406 l 2.26562,2.26563 -4.59179,0.082 c -0.5531,0.01 -0.99332,0.46645 -0.98243,1.01953 0.0107,0.55155 0.46601,0.99027 1.01758,0.98047 l 6.52149,-0.11719 1.47265,1.47266 -1.84375,1.06054 c -0.31027,0.17793 -0.5016,0.50699 -0.50195,0.86328 V 223 h -2.76367 l -4.79688,-4.97266 c -0.3827,-0.39678 -1.01433,-0.40905 -1.41211,-0.0273 -0.39807,0.38291 -0.41036,1.01605 -0.0273,1.41406 L 110.45898,223 h -2.75 l -6.00195,-6.00195 c -0.1875,-0.18755 -0.44183,-0.29293 -0.70703,-0.29297 -0.2652,4e-5 -0.51953,0.10542 -0.70703,0.29297 -0.390423,0.39051 -0.390423,1.02355 0,1.41406 l 5.58789,5.58789 -5.58789,5.58789 c -0.390423,0.39051 -0.390423,1.02355 0,1.41406 0.39051,0.39042 1.02355,0.39042 1.41406,0 L 107.70898,225 h 2.21094 L 107,228.02734 c -0.38167,0.39778 -0.3694,1.02941 0.0273,1.41211 0.39724,0.3822 1.02886,0.37085 1.41211,-0.0254 L 112.69922,225 h 3.30273 v 5.31641 c 0,0.082 0.0107,0.14551 0.0293,0.19726 0.0554,0.2698 0.21225,0.51742 0.4707,0.66602 l 1.84375,1.06054 -1.47265,1.47266 -6.52149,-0.11719 c -0.55157,-0.01 -1.00689,0.42892 -1.01758,0.98047 -0.0109,0.55308 0.42933,1.00992 0.98243,1.01953 l 4.59179,0.082 -2.26562,2.26563 c -0.39042,0.39051 -0.39042,1.02355 0,1.41406 0.39051,0.39042 1.02355,0.39042 1.41406,0 l 2.26563,-2.26562 0.082,4.59179 c 0.01,0.5531 0.46645,0.99332 1.01953,0.98243 0.55155,-0.0107 0.99027,-0.46601 0.98047,-1.01758 l -0.11719,-6.52149 1.85547,-1.85547 6.85742,3.94141 v 1.53906 l -4.69336,4.52735 c -0.39807,0.38291 -0.41036,1.01605 -0.0273,1.41406 0.38291,0.39807 1.01605,0.41036 1.41406,0.0273 L 127,241.53125 v 2.76563 l -6.00195,6.00195 c -0.39042,0.39051 -0.39042,1.02355 0,1.41406 0.39051,0.39042 1.02355,0.39042 1.41406,0 L 128,246.125 l 5.58789,5.58789 c 0.39051,0.39042 1.02355,0.39042 1.41406,0 0.39042,-0.39051 0.39042,-1.02355 0,-1.41406 L 129,244.29688 v -2.76563 l 3.30664,3.18945 c 0.39801,0.38298 1.03115,0.37069 1.41406,-0.0273 0.38298,-0.39801 0.37069,-1.03115 -0.0273,-1.41406 L 129,238.75195 v -1.53906 l 6.85742,-3.94141 2.27344,2.27344 -0.11719,6.52149 c -0.01,0.55157 0.42892,1.00688 0.98047,1.01757 0.55307,0.0109 1.00991,-0.42932 1.01953,-0.98242 l 0.082,-4.59179 1.84766,1.84765 c 0.39051,0.39042 1.02355,0.39042 1.41406,0 0.39042,-0.39051 0.39042,-1.02355 0,-1.41406 l -1.84765,-1.84766 4.59179,-0.082 c 0.5531,-0.01 0.99331,-0.46646 0.98242,-1.01953 -0.0107,-0.55155 -0.466,-0.99027 -1.01757,-0.98047 l -6.52149,0.11719 -1.89062,-1.89063 1.84375,-1.06054 c 0.31027,-0.17793 0.5016,-0.50699 0.50195,-0.86328 V 225 h 3.30078 l 4.25977,4.41406 c 0.38325,0.39623 1.01487,0.40758 1.41211,0.0254 0.39678,-0.3827 0.40905,-1.01433 0.0273,-1.41211 L 146.08008,225 h 2.21094 l 6.00195,6.00195 c 0.39051,0.39042 1.02355,0.39042 1.41406,0 0.39042,-0.39051 0.39042,-1.02355 0,-1.41406 L 150.11914,224 l 5.58789,-5.58789 c 0.39042,-0.39051 0.39042,-1.02355 0,-1.41406 -0.1875,-0.18755 -0.44183,-0.29293 -0.70703,-0.29297 -0.2652,4e-5 -0.51953,0.10542 -0.70703,0.29297 L 148.29102,223 h -2.75 L 149,219.41406 c 0.38298,-0.39801 0.37069,-1.03115 -0.0273,-1.41406 -0.19069,-0.1835 -0.44634,-0.28394 -0.71094,-0.2793 -0.26514,0.005 -0.51735,0.1155 -0.70117,0.30664 L 142.76367,223 H 140 v -5.31641 c -3.5e-4,-0.35629 -0.19168,-0.68535 -0.50195,-0.86328 l -1.84375,-1.06054 1.89062,-1.89063 6.52149,0.11719 c 0.55157,0.01 1.00688,-0.42892 1.01757,-0.98047 0.0109,-0.55307 -0.42932,-1.00991 -0.98242,-1.01953 l -4.59179,-0.082 1.84765,-1.84766 c 0.39042,-0.39051 0.39042,-1.02355 0,-1.41406 -0.1875,-0.18755 -0.44183,-0.29293 -0.70703,-0.29297 -0.2652,4e-5 -0.51953,0.10542 -0.70703,0.29297 l -1.84766,1.84765 -0.082,-4.59179 c -0.01,-0.5531 -0.46646,-0.99331 -1.01953,-0.98242 -0.55155,0.0107 -0.99027,0.466 -0.98047,1.01757 l 0.11719,6.52149 -2.27344,2.27344 C 133.29268,213.2461 131.33423,212.12946 129,210.78711 v -2.09766 l 4.69336,-4.52929 c 0.39808,-0.38291 0.41036,-1.01605 0.0273,-1.41407 -0.38346,-0.39752 -1.01658,-0.40888 -1.41406,-0.0254 L 129,205.91016 v -2.20118 l 6.00195,-6.00195 c 0.39042,-0.39051 0.39042,-1.02355 0,-1.41406 -0.39051,-0.39042 -1.02355,-0.39042 -1.41406,0 L 128,201.88086 l -5.58789,-5.58789 c -0.1875,-0.18755 -0.44183,-0.29293 -0.70703,-0.29297 z M 128,212.51758 c 3.60079,2.06886 6.34601,3.64466 9.99609,5.74219 v 11.48046 L 128,235.48242 l -7.60352,-4.36719 c -0.0128,-0.008 -0.0259,-0.0159 -0.0391,-0.0234 l -2.35547,-1.35352 v -5.72461 c 1.2e-4,-0.005 0.002,-0.009 0.002,-0.0137 v -5.74023 z" color="#000"/></g></svg>