<svg xmlns="http://www.w3.org/2000/svg" width="64" height="64" viewBox="0 0 64 64"><g transform="translate(-288 -192)"><path fill="#d8ecfe" fill-rule="evenodd" d="m 320,199 c -14.91169,0 -27,12.08831 -27,27 0.0106,6.64649 2.47243,13.05552 6.91406,18 h 40.17188 c 4.44163,-4.94448 6.90343,-11.35351 6.91406,-18 0,-14.91169 -12.08831,-27 -27,-27 z"/><path fill="#5b7fa0" fill-rule="evenodd" d="m 299.5,244 h 40.99998 c 1.385,0 2.5,1.115 2.5,2.5 0,1.385 -1.115,2.5 -2.5,2.5 H 299.5 c -1.385,0 -2.5,-1.115 -2.5,-2.5 0,-1.385 1.115,-2.5 2.5,-2.5 z"/><path style="-inkscape-stroke:none" fill="#394c54" fill-rule="evenodd" d="M329.76872 208.70502v0M329.76872 207.70502a1 1 0 00-1 1 1 1 0 001 1 1 1 0 001-1 1 1 0 00-1-1z" color="#000"/><path style="-inkscape-stroke:none" fill="#5b7fa0" fill-rule="evenodd" d="m 326,220 a 6,6 0 0 1 -6,6 6,6 0 0 1 -6,-6 6,6 0 0 1 6,-6 6,6 0 0 1 6,6 z" color="#000"/><path style="-inkscape-stroke:none" fill="#394c54" fill-rule="evenodd" d="M318 219v0M318 218a1 1 0 00-1 1 1 1 0 001 1 1 1 0 001-1 1 1 0 00-1-1zM322 219v0M322 218a1 1 0 00-1 1 1 1 0 001 1 1 1 0 001-1 1 1 0 00-1-1zM320 222v0M320 221a1 1 0 00-1 1 1 1 0 001 1 1 1 0 001-1 1 1 0 00-1-1z" color="#000"/><path fill="#ff435b" fill-rule="evenodd" d="m 316.96581,211 h 6.06838 A 0.96581173,0.96581173 45 0 1 324,211.96581 V 215 h -8 v -3.03419 A 0.96581173,0.96581173 135 0 1 316.96581,211 Z" color="#000"/><path fill="#374951" fill-opacity=".984" fill-rule="evenodd" d="M309 220.75781a1 1 0 00-1 1v1.82813l-1.12109-1.1211a1 1 0 00-.70703-.29296 1 1 0 00-.70704.29296 1 1 0 000 1.41407L306.58594 225h-1.82813a1 1 0 00-1 1 1 1 0 001 1h3.82813l3.24218 3.24219a1 1 0 001.41407 0 1 1 0 000-1.41407L310 225.58594v-3.82813a1 1 0 00-1-1zM331 220.75781a1 1 0 00-1 1v3.82813l-3.24219 3.24218a1 1 0 000 1.41407 1 1 0 001.41407 0L331.41406 227h3.82813a1 1 0 001-1 1 1 0 00-1-1h-1.82813l1.1211-1.12109a1 1 0 000-1.41407 1 1 0 00-.70704-.29296 1 1 0 00-.70703.29296L332 223.58594v-1.82813a1 1 0 00-1-1z" color="#000"/><path style="-inkscape-stroke:none" fill="#394c54" fill-rule="evenodd" d="M305.49857 238.85035v0M305.49857 237.85035a1 1 0 00-1 1 1 1 0 001 1 1 1 0 001-1 1 1 0 00-1-1zM302.07335 219.67151v0M302.07335 218.67151a1 1 0 00-1 1 1 1 0 001 1 1 1 0 001-1 1 1 0 00-1-1zM339.896 218.62485v0M339.896 217.62485a1 1 0 00-1 1 1 1 0 001 1 1 1 0 001-1 1 1 0 00-1-1zM306.09961 207.74805c-1.64501 0-3 1.35499-3 3 0 1.645 1.35499 3 3 3 1.64501 0 3-1.355 3-3 0-1.64501-1.35499-3-3-3zm0 2c.56413 0 1 .43587 1 1 0 .56413-.43587 1-1 1-.56413 0-1-.43587-1-1 0-.56413.43587-1 1-1z" color="#000"/><path fill="#394c54" fill-rule="evenodd" d="m 335.63672,233.72266 c -1.64501,0 -3,1.35499 -3,3 0,1.645 1.35499,3 3,3 1.64501,0 3,-1.355 3,-3 0,-1.64501 -1.35499,-3 -3,-3 z m 0,2 c 0.56413,0 1,0.43587 1,1 0,0.56413 -0.43587,1 -1,1 -0.56413,0 -1,-0.43587 -1,-1 0,-0.56413 0.43587,-1 1,-1 z" color="#000"/><path style="-inkscape-stroke:none" fill="#394c54" fill-rule="evenodd" d="M323.60255 203.21384v0M323.60255 202.21384a1 1 0 00-1 1 1 1 0 001 1 1 1 0 001-1 1 1 0 00-1-1zM300.12146 234.65215v0M300.12146 233.65215a1 1 0 00-1 1 1 1 0 001 1 1 1 0 001-1 1 1 0 00-1-1zM311.79132 206.85447v0M311.79132 205.85447a1 1 0 00-1 1 1 1 0 001 1 1 1 0 001-1 1 1 0 00-1-1zM297.7505 225.7531v0M297.7505 224.7531a1 1 0 00-1 1 1 1 0 001 1 1 1 0 001-1 1 1 0 00-1-1zM333.99182 215.16636v0M333.99182 214.16636a1 1 0 00-1 1 1 1 0 001 1 1 1 0 001-1 1 1 0 00-1-1z" color="#000"/><path style="-inkscape-stroke:none" fill="#5b7fa0" fill-rule="evenodd" d="m 329,235 a 9,9 0 0 1 -9,9 9,9 0 0 1 -9,-9 9,9 0 0 1 9,-9 9,9 0 0 1 9,9 z" color="#000"/><path style="-inkscape-stroke:none" fill="#394c54" fill-rule="evenodd" d="M320 235v0M320 234a1 1 0 00-1 1 1 1 0 001 1 1 1 0 001-1 1 1 0 00-1-1zM320 238.88318v0M320 237.88318a1 1 0 00-1 1 1 1 0 001 1 1 1 0 001-1 1 1 0 00-1-1zM320 231.11681v0M320 230.11681a1 1 0 00-1 1 1 1 0 001 1 1 1 0 001-1 1 1 0 00-1-1zM314.00586 213.959A1 1 0 00313 214.95314a1 1 0 00.99414 1.00586l12 .082A1 1 0 00327 215.04689a1 1 0 00-.99414-1.00586z" color="#000"/></g></svg>