<svg xmlns="http://www.w3.org/2000/svg" width="64" height="64" viewBox="0 0 64 64"><g transform="translate(-192)"><path style="-inkscape-stroke:none" fill="#abd6fd" fill-rule="evenodd" d="M224 3a1 1 0 00-1 1v3.5859375l-1.29297-1.2929687a1 1 0 00-1.41406 0 1 1 0 000 1.4140624L223 10.414062v4.171876l-3.29297-3.292969A1 1 0 00219 11a1 1 0 00-.70703.292969 1 1 0 000 1.414062L223 17.414062V20a1 1 0 001 1 1 1 0 001-1v-2.585938l4.70703-4.707031a1 1 0 000-1.414062 1 1 0 00-1.41406 0L225 14.585938v-4.171876l2.70703-2.7070308a1 1 0 000-1.4140624 1 1 0 00-1.41406 0L225 7.5859375V4a1 1 0 00-1-1zM224 43a1 1 0 00-1 1v2.585938l-4.70703 4.707031a1 1 0 000 1.414062 1 1 0 001.41406 0L223 49.414062v4.171876l-2.70703 2.707031a1 1 0 000 1.414062 1 1 0 001.41406 0L223 56.414062V60a1 1 0 001 1 1 1 0 001-1v-3.585938l1.29297 1.292969a1 1 0 001.41406 0 1 1 0 000-1.414062L225 53.585938v-4.171876l3.29297 3.292969a1 1 0 001.41406 0 1 1 0 000-1.414062L225 46.585938V44a1 1 0 00-1-1zM232.48438 39.484375a1 1 0 00-.70704.292969 1 1 0 000 1.416015l1.83008 1.830079v6.654296a1 1 0 001 1 1 1 0 001-1v-4.654296l2.94922 2.947265v3.828125a1 1 0 001 1 1 1 0 001-1v-1.828125l2.53516 2.535156a1 1 0 001.41406 0 1 1 0 000-1.414062l-2.53516-2.535156h1.82813a1 1 0 001-1 1 1 0 00-1-1h-3.82813l-2.94726-2.949219h4.65429a1 1 0 001-1 1 1 0 00-1-1h-6.65429l-1.83008-1.830078a1 1 0 00-.70898-.292969zM215.51562 39.484375a1 1 0 00-.70898.292969l-1.83008 1.830078h-6.65429a1 1 0 00-1 1 1 1 0 001 1h4.65429l-2.94726 2.949219h-3.82813a1 1 0 00-1 1 1 1 0 001 1h1.82813l-2.53516 2.535156a1 1 0 000 1.414062 1 1 0 001.41406 0l2.53516-2.535156v1.828125a1 1 0 001 1 1 1 0 001-1v-3.828125l2.94922-2.947265v4.654296a1 1 0 001 1 1 1 0 001-1v-6.654296l1.83008-1.830079a1 1 0 000-1.416015 1 1 0 00-.70704-.292969zM244 26a1 1 0 00-.70703.292969L238.58594 31H236a1 1 0 00-1 1 1 1 0 001 1h2.58594l4.70703 4.707031a1 1 0 001.41406 0 1 1 0 000-1.414062L241.41406 33h4.17188l2.70703 2.707031a1 1 0 001.41406 0 1 1 0 000-1.414062L248.41406 33H252a1 1 0 001-1 1 1 0 00-1-1h-3.58594l1.29297-1.292969a1 1 0 000-1.414062A1 1 0 00249 28 1 1 0 00248.29297 28.292969L245.58594 31h-4.17188l3.29297-3.292969a1 1 0 000-1.414062A1 1 0 00244 26zM204 26a1 1 0 00-.70703.292969 1 1 0 000 1.414062L206.58594 31h-4.17188l-2.70703-2.707031A1 1 0 00199 28a1 1 0 00-.70703.292969 1 1 0 000 1.414062L199.58594 31H196a1 1 0 00-1 1 1 1 0 001 1h3.58594l-1.29297 1.292969a1 1 0 000 1.414062 1 1 0 001.41406 0L202.41406 33h4.17188l-3.29297 3.292969a1 1 0 000 1.414062 1 1 0 001.41406 0L209.41406 33H212a1 1 0 001-1 1 1 0 00-1-1h-2.58594l-4.70703-4.707031A1 1 0 00204 26zM239.55664 11.201172a1 1 0 00-1 1v3.828125l-2.94922 2.947265v-4.654296a1 1 0 00-1-1 1 1 0 00-1 1v6.654296l-1.83008 1.830079a1 1 0 000 1.416015 1 1 0 001.41602 0l1.83008-1.830078h6.65429a1 1 0 001-1 1 1 0 00-1-1h-4.65429l2.94726-2.949219h3.82813a1 1 0 001-1 1 1 0 00-1-1h-1.82813l2.53516-2.535156a1 1 0 000-1.414062 1 1 0 00-1.41406 0l-2.53516 2.535156v-1.828125a1 1 0 00-1-1zM208.44336 11.201172a1 1 0 00-1 1v1.828125l-2.53516-2.535156a1 1 0 00-1.41406 0 1 1 0 000 1.414062l2.53516 2.535156h-1.82813a1 1 0 00-1 1 1 1 0 001 1h3.82813l2.94726 2.949219h-4.65429a1 1 0 00-1 1 1 1 0 001 1h6.65429l1.83008 1.830078a1 1 0 001.41602 0 1 1 0 000-1.416015l-1.83008-1.830079v-6.654296a1 1 0 00-1-1 1 1 0 00-1 1v4.654296l-2.94922-2.947265v-3.828125a1 1 0 00-1-1z" color="#000"/><circle cx="224" cy="32" r="12" fill="#d8ecfe" fill-rule="evenodd"/><circle cx="224" cy="32" r="5.5" fill="#abd6fd" fill-rule="evenodd"/></g></svg>