<svg xmlns="http://www.w3.org/2000/svg" width="64" height="64" viewBox="0 0 64 64"><g transform="translate(-384 -96)"><path fill="#5b7fa0" fill-rule="evenodd" d="m 406,109.99992 v 19.93748 l -6.32031,10.57333 c -2.76144,4.61954 -1.12277,10.52649 3.66015,13.19356 4.78291,2.66713 10.89873,1.08442 13.66016,-3.53514 l 9,-15.05733 v -25.1119 z"/><path fill="#5b7fa0" fill-rule="evenodd" d="m 403,101 h 26 c 0.554,0 1,0.446 1,1 v 7 c 0,0.554 -0.446,1 -1,1 h -26 c -0.554,0 -1,-0.446 -1,-1 v -7 c 0,-0.554 0.446,-1 1,-1 z"/><path fill="#d8ecfe" fill-rule="evenodd" d="M406 121l2.5-2 2.5 2 2.5-2 2.5 2 2.5-2 2.5 2 2.5-2 2.5 2v-5l-2.5-2-2.5 2-2.5-2-2.5 2-2.5-2-2.5 2-2.5-2-2.5 2zM403 101c-.554 0-1 .446-1 1v3h28v-3c0-.554-.446-1-1-1z"/></g></svg>