<svg xmlns="http://www.w3.org/2000/svg" width="64" height="64" viewBox="0 0 64 64"><g transform="translate(-192 -672)"><path fill="#374951" fill-rule="evenodd" d="m 222,711 h 4 v 20 h -4 z"/><path fill="#5b7fa0" fill-rule="evenodd" d="m 217.94489,711 -0.25594,-2.04753 c -0.49359,-3.94873 -1.53951,-7.80853 -3.1071,-11.46623 L 213.94489,696 H 234 l -0.63696,1.48624 c -1.56759,3.6577 -2.61351,7.5175 -3.1071,11.46623 L 230,711 Z"/><path fill="#374951" fill-rule="evenodd" d="m 222,711 v -15 h 4 v 15 z"/><path fill="#5b7fa0" fill-rule="evenodd" d="m 214,692 c 0,0 9.99999,-13 10,-13 1e-5,0 10,13 10,13 h -20"/><path style="-inkscape-stroke:none" fill="#d8ecfe" fill-rule="evenodd" d="M238.54776 726.6423v0M238.54776 725.6423a1 1 0 00-1 1 1 1 0 001 1 1 1 0 001-1 1 1 0 00-1-1zM246.89696 696.87976v0M246.89696 695.87976a1 1 0 00-1 1 1 1 0 001 1 1 1 0 001-1 1 1 0 00-1-1zM242.27344 712a1 1 0 00-.70703.29297 1 1 0 000 1.41406l1.41406 1.41406a1 1 0 001.41406 0 1 1 0 000-1.41406l-1.41406-1.41406A1 1 0 00242.27344 712zM238.03125 707.75781a1 1 0 00-.70703.29297 1 1 0 000 1.41406l1.41406 1.41407a1 1 0 001.41406 0 1 1 0 000-1.41407l-1.41406-1.41406a1 1 0 00-.70703-.29297zM239.44531 712a1 1 0 00-.70703.29297l-1.41406 1.41406a1 1 0 000 1.41406 1 1 0 001.41406 0l1.41406-1.41406a1 1 0 000-1.41406A1 1 0 00239.44531 712zM243.6875 707.75781a1 1 0 00-.70703.29297l-1.41406 1.41406a1 1 0 000 1.41407 1 1 0 001.41406 0l1.41406-1.41407a1 1 0 000-1.41406 1 1 0 00-.70703-.29297zM236.07107 677.01176v0M236.07107 676.01176a1 1 0 00-1 1 1 1 0 001 1 1 1 0 001-1 1 1 0 00-1-1zM201.10883 677.7338v0M201.10883 676.7338a1 1 0 00-1 1 1 1 0 001 1 1 1 0 001-1 1 1 0 00-1-1zM203.38281 704.57617a1 1 0 00-.60742.4668l-1 1.73242a1 1 0 00.36719 1.36523 1 1 0 001.36523-.36523l1-1.73242a1 1 0 00-.36523-1.36719 1 1 0 00-.75977-.0996zM206.38281 699.38086a1 1 0 00-.60742.46484l-1 1.73242a1 1 0 00.36719 1.36524 1 1 0 001.36523-.36524l1-1.73242a1 1 0 00-.36523-1.36523 1 1 0 00-.75977-.0996zM200.91992 700.84375a1 1 0 00-.60742.4668 1 1 0 00.36523 1.36523l1.73243 1a1 1 0 001.36523-.36523 1 1 0 00-.36523-1.36719l-1.73243-1a1 1 0 00-.75781-.0996zM206.11523 703.84375a1 1 0 00-.60742.4668 1 1 0 00.36719 1.36523l1.73047 1a1 1 0 001.36719-.36523 1 1 0 00-.36719-1.36719l-1.73047-1a1 1 0 00-.75977-.0996zM208.36453 721.28075v0M208.36453 720.28075a1 1 0 00-1 1 1 1 0 001 1 1 1 0 001-1 1 1 0 00-1-1zM246.24898 683.41791v0M246.24898 682.41791a1 1 0 00-1 1 1 1 0 001 1 1 1 0 001-1 1 1 0 00-1-1zM201.55198 730.50853v0M201.55198 729.50853a1 1 0 00-1 1 1 1 0 001 1 1 1 0 001-1 1 1 0 00-1-1z" color="#000"/><path fill="#d8ecfe" fill-rule="evenodd" d="m 214,692 c -1.108,0 -2,0.892 -2,2 0,1.108 0.892,2 2,2 h 11 v 3 c 0,0.831 0.669,1.5 1.5,1.5 0.831,0 1.5,-0.669 1.5,-1.5 v -3 h 6 c 1.108,0 2,-0.892 2,-2 0,-1.108 -0.892,-2 -2,-2 z"/><path style="-inkscape-stroke:none" fill="#d8ecfe" fill-rule="evenodd" d="m 223.04313,677.2877 c -0.90394,1.21422 -2.3408,3.13867 -3.8355,5.11816 C 218.54204,683.28732 218.89543,684 220,684 h 4 v 2.5 c 0,0.831 0.669,1.5 1.5,1.5 0.831,0 1.5,-0.669 1.5,-1.5 V 684 h 1 c 1.10457,0 1.45797,-0.71274 0.79253,-1.59437 -1.45747,-1.93099 -2.91666,-3.88504 -3.83526,-5.11834 -0.52924,-0.71054 -1.38504,-0.71029 -1.91414,4.1e-4 z" color="#000"/><path style="-inkscape-stroke:none" fill="#374951" fill-rule="evenodd" d="m 219.99998,711 h 8 v 6 h -8 z" color="#000"/></g></svg>