<svg xmlns="http://www.w3.org/2000/svg" width="64" height="64" viewBox="0 0 64 64"><g transform="translate(-96 -480)"><path fill="#aa6a51" fill-rule="evenodd" d="m 110.92383,495 v 17.84766 c 1.5e-4,5.96772 -1.76609,11.80198 -5.07617,16.76757 -1.24947,1.8742 0.0932,4.38477 2.3457,4.38477 h 38.46094 c 2.2525,0 3.59517,-2.51057 2.3457,-4.38477 -2.24535,-3.40048 -3.78,-7.21984 -4.51172,-11.22851 l 6.43555,-6.4375 c 1.37108,-1.37108 1.37108,-3.57814 0,-4.94922 -1.37108,-1.37108 -3.57814,-1.37108 -4.94922,0 l -2.05078,2.05078 V 495 Z"/><path fill="#8b5742" fill-rule="evenodd" d="M116.77148 508.01172a1 1 0 00-.83593 1.14062c0 0 .47881 3.14015.11718 6.87696-.36162 3.73681-1.58115 7.92069-4.71093 10.15625a1 1 0 00-.23242 1.39648 1 1 0 001.39648.23242c3.8702-2.76443 5.15069-7.58057 5.53906-11.59375.38838-4.01318-.13281-7.37304-.13281-7.37304a1 1 0 00-1.14063-.83594zM123.92383 519.88867a1 1 0 00-1 1v9.72266a1 1 0 001 1 1 1 0 001-1v-9.72266a1 1 0 00-1-1zM133 516a1 1 0 00-1 1v8a1 1 0 001 1 1 1 0 001-1v-8a1 1 0 00-1-1z" color="#000"/><path style="-inkscape-stroke:none" fill="#8b5742" fill-rule="evenodd" d="m 133,501.39258 a 1,1 0 0 0 -1,1 v 3.21484 a 1,1 0 0 0 1,1 1,1 0 0 0 1,-1 v -3.21484 a 1,1 0 0 0 -1,-1 z" color="#000"/><path fill="#8b5742" fill-rule="evenodd" d="m 137.41602,508.01172 a 1,1 0 0 0 -1.14063,0.83594 c 0,0 -0.51923,3.35986 -0.13086,7.37304 0.38837,4.01318 1.66886,8.82932 5.53906,11.59375 a 1,1 0 0 0 1.39453,-0.23242 1,1 0 0 0 -0.23242,-1.39648 c -3.12978,-2.23556 -4.34931,-6.41944 -4.71093,-10.15625 -0.36163,-3.73681 0.11718,-6.87696 0.11718,-6.87696 a 1,1 0 0 0 -0.83593,-1.14062 z" color="#000"/><path style="-inkscape-stroke:none" fill="#d8ecfe" fill-rule="evenodd" d="M127.5 507.5c.831 0 1.5.669 1.5 1.5v3c0 .831-.669 1.5-1.5 1.5-.831 0-1.5-.669-1.5-1.5v-3c0-.831.669-1.5 1.5-1.5zM140.38074 486.77398v0M140.38074 485.77398a1 1 0 00-1 1 1 1 0 001 1 1 1 0 001-1 1 1 0 00-1-1zM123.52636 484.84253v0M123.52636 483.84253a1 1 0 00-1 1 1 1 0 001 1 1 1 0 001-1 1 1 0 00-1-1zM153 520v0M153 519a1 1 0 00-1 1 1 1 0 001 1 1 1 0 001-1 1 1 0 00-1-1zM101.00001 520v0M101.00001 519a1 1 0 00-1 1 1 1 0 001 1 1 1 0 001-1 1 1 0 00-1-1zM101 503v0M101 502a1 1 0 00-1 1 1 1 0 001 1 1 1 0 001-1 1 1 0 00-1-1z" color="#000"/><path fill="#d8ecfe" fill-rule="evenodd" d="M153.57617 494.52734a1 1 0 00-.70703.29297 1 1 0 000 1.41406l1.41406 1.41407a1 1 0 001.41407 0 1 1 0 000-1.41407l-1.41407-1.41406a1 1 0 00-.70703-.29297zM149.33203 490.2832a1 1 0 00-.70703.29297 1 1 0 000 1.41406l1.41406 1.41407a1 1 0 001.41602 0 1 1 0 000-1.41407l-1.41602-1.41406a1 1 0 00-.70703-.29297zM150.74805 494.52734a1 1 0 00-.70899.29297l-1.41406 1.41406a1 1 0 000 1.41407 1 1 0 001.41406 0l1.41602-1.41407a1 1 0 000-1.41406 1 1 0 00-.70703-.29297zM154.99023 490.2832a1 1 0 00-.70703.29297l-1.41406 1.41406a1 1 0 000 1.41407 1 1 0 001.41406 0l1.41407-1.41407a1 1 0 000-1.41406 1 1 0 00-.70704-.29297zM107.04492 488.48047a1 1 0 00-1.22461.70703 1 1 0 00.70703 1.22461l1.93164.51953a1 1 0 001.22657-.70898 1 1 0 00-.70899-1.22461zM101.25 486.92773a1 1 0 00-1.22461.70704 1 1 0 00.70703 1.2246l1.93164.51758a1 1 0 001.22461-.70703 1 1 0 00-.70703-1.22461zM104.5957 489.89453a1 1 0 00-1.22461.70703l-.51757 1.9336a1 1 0 00.70703 1.22461 1 1 0 001.22461-.70704l.51757-1.93164a1 1 0 00-.70703-1.22656z" color="#000"/><path style="-inkscape-stroke:none" fill="#d8ecfe" fill-rule="evenodd" d="m 106.14844,484.09961 a 1,1 0 0 0 -1.22461,0.70703 l -0.51758,1.93164 a 1,1 0 0 0 0.70703,1.22461 1,1 0 0 0 1.22461,-0.70703 l 0.51758,-1.93164 a 1,1 0 0 0 -0.70703,-1.22461 z" color="#000"/><path fill="#c68d7a" fill-rule="evenodd" d="m 104,531 h 47 c 2.216,0 4,1.784 4,4 0,2.216 -1.784,4 -4,4 h -47 c -2.216,0 -4,-1.784 -4,-4 0,-2.216 1.784,-4 4,-4 z"/><path style="-inkscape-stroke:none" fill="#d8ecfe" fill-rule="evenodd" d="m 115.5,493 c -0.831,0 -1.5,0.669 -1.5,1.5 0,0.831 0.669,1.5 1.5,1.5 h 4.5 v 8.75 c 0,0.831 0.669,1.5 1.5,1.5 0.831,0 1.5,-0.669 1.5,-1.5 V 496 h 3 c 0.831,0 1.5,-0.669 1.5,-1.5 0,-0.831 -0.669,-1.5 -1.5,-1.5 z" color="#000"/><path fill="#d8ecfe" fill-rule="evenodd" d="m 146,494.5 c 0,0.831 -0.669,1.5 -1.5,1.5 H 138 c -0.831,0 -1.5,-0.669 -1.5,-1.5 0,-0.831 0.669,-1.5 1.5,-1.5 h 6.5 c 0.831,0 1.5,0.669 1.5,1.5 z" color="#000"/></g></svg>