<svg xmlns="http://www.w3.org/2000/svg" width="64" height="64" viewBox="0 0 64 64"><g transform="translate(0 -96)"><path fill="#d8ecfe" fill-rule="evenodd" d="M 57.000005,131.97742 A 10.000009,10.000009 0 0 1 46.999996,141.97743 10.000009,10.000009 0 0 1 36.999988,131.97742 10.000009,10.000009 0 0 1 46.999996,121.97741 10.000009,10.000009 0 0 1 57.000005,131.97742 Z"/><path fill="#ff435b" fill-rule="evenodd" d="M 7.0000001,115.97742 H 47 v 34 a 5,5 0 0 1 -5,5 H 12 a 5,5 0 0 1 -4.9999999,-5 z"/><path style="-inkscape-stroke:none" fill="#d8ecfe" fill-rule="evenodd" d="M32.867188 100.04188a1 1 0 00-.769532.48242 1 1 0 00.34375 1.37109c0 0 1.073888.70878 1.515625 1.50391.220869.39756.293338.71959.160157 1.11914-.133182.39954-.551886.98777-1.675782 1.66211-1.346674.808-2.139534 1.51358-2.404297 2.48437-.13238.4854-.05635 1.02345.152344 1.42188.2087.39842.507492.67415.810547.89062 1.212221.86588 2.791016 1.04688 2.791016 1.04688a1 1 0 001.15039-.82227 1 1 0 00-.822265-1.15039c0 0-1.419255-.319-1.957032-.70312-.119736-.0855-.163385-.14613-.179687-.16993.02292-.0698.347019-.59844 1.488281-1.2832 1.3761-.82566 2.207401-1.73744 2.542969-2.74414.335568-1.0067.09554-1.99717-.308594-2.72461-.808259-1.45487-2.234375-2.24609-2.234375-2.24609a1 1 0 00-.603515-.13867zM25.650391 100.04188a1 1 0 00-.769532.48242 1 1 0 00.34375 1.37109c0 0 1.073888.70878 1.515626 1.50391.220869.39756.291384.71959.158203 1.11914-.133182.39954-.549933.98777-1.673829 1.66211-1.346674.808-2.139535 1.51358-2.404296 2.48437-.132381.4854-.05636 1.02345.152343 1.42188.2087.39842.507493.67415.810547.89062 1.212221.86588 2.791016 1.04688 2.791016 1.04688a1 1 0 001.15039-.82227 1 1 0 00-.822265-1.15039c0 0-1.419256-.319-1.957031-.70312-.119738-.0855-.163386-.14613-.179688-.16993.02292-.0698.34702-.59844 1.488281-1.2832 1.3761-.82566 2.207402-1.73744 2.542969-2.74414.335568-1.0067.09554-1.99717-.308594-2.72461-.808259-1.45487-2.234375-2.24609-2.234375-2.24609a1 1 0 00-.603515-.13867zM18.867188 100.04188a1 1 0 00-.769532.48242 1 1 0 00.34375 1.37109c0 0 1.073888.70878 1.515625 1.50391.220869.39756.293338.71959.160157 1.11914-.133182.39954-.551886.98777-1.675782 1.66211-1.346674.808-2.139534 1.51358-2.404297 2.48437-.13238.4854-.05635 1.02345.152344 1.42188.2087.39842.507492.67415.810547.89062 1.212221.86588 2.791016 1.04688 2.791016 1.04688a1 1 0 001.15039-.82227 1 1 0 00-.822265-1.15039c0 0-1.419255-.319-1.957032-.70312-.119736-.0855-.163385-.14613-.179687-.16993.02292-.0698.347019-.59844 1.488281-1.2832 1.3761-.82566 2.207401-1.73744 2.542969-2.74414.335568-1.0067.09554-1.99717-.308594-2.72461-.808259-1.45487-2.234375-2.24609-2.234375-2.24609a1 1 0 00-.603515-.13867zM19 114.97656a1 1 0 00-1 1v10a1 1 0 001 1 1 1 0 001-1v-10a1 1 0 00-1-1z" color="#000"/><path style="-inkscape-stroke:none" fill="#d8ecfe" fill-rule="evenodd" d="m 14.999999,125.97742 h 8 v 8 h -8 z" color="#000"/></g></svg>