<svg xmlns="http://www.w3.org/2000/svg" width="64" height="64" viewBox="0 0 64 64"><g transform="translate(-192 -96)"><path fill="#d8ecfe" fill-rule="evenodd" d="m 205,111.97742 c -2.216,0 -4,1.784 -4,4 v 24.09179 c -2.46903,1.42549 -3.99287,4.05723 -4,6.90821 0,4.41827 3.58172,8 8,8 4.41828,0 8,-3.58173 8,-8 -8.7e-4,-2.85726 -1.52554,-5.49715 -4,-6.92578 v -24.07422 c 0,-2.216 -1.784,-4 -4,-4 z"/><path style="-inkscape-stroke:none" fill="#abd6fd" fill-rule="evenodd" d="m 230.91992,109.97656 a 1,1 0 0 0 -1,1 v 12 a 1,1 0 0 0 1,1 1,1 0 0 0 1,-1 v -12 a 1,1 0 0 0 -1,-1 z" color="#000"/><path style="-inkscape-stroke:none" fill="#abd6fd" fill-rule="evenodd" d="m 227.2207,111.72852 a 1,1 0 0 0 -0.0156,1.41406 l 3,3.06836 a 1.0001,1.0001 0 0 0 1.42969,0 l 3,-3.06836 a 1,1 0 0 0 -0.0156,-1.41406 1,1 0 0 0 -1.41406,0.0156 l -2.28516,2.33789 -2.28515,-2.33789 a 1,1 0 0 0 -1.41407,-0.0156 z" color="#000"/><path style="-inkscape-stroke:none" fill="#abd6fd" fill-rule="evenodd" d="M227.2207 116.72852a1 1 0 00-.0156 1.41406l3 3.06836a1.0001 1.0001 0 001.42969 0l3-3.06836a1 1 0 00-.0156-1.41406 1 1 0 00-1.41406.0156l-2.28516 2.33789-2.28515-2.33789a1 1 0 00-1.41407-.0156zM234.91992 125.97656a1 1 0 00-1 1 1 1 0 001 1h12a1 1 0 001-1 1 1 0 00-1-1z" color="#000"/><path style="-inkscape-stroke:none" fill="#abd6fd" fill-rule="evenodd" d="m 244.75586,123.26172 -3.06836,3 a 1.0001,1.0001 0 0 0 0,1.43164 l 3.06836,3 a 1,1 0 0 0 1.41406,-0.0176 1,1 0 0 0 -0.0156,-1.41406 l -2.33594,-2.28516 2.33594,-2.2832 a 1,1 0 0 0 0.0156,-1.41406 1,1 0 0 0 -1.41406,-0.0176 z" color="#000"/><path style="-inkscape-stroke:none" fill="#abd6fd" fill-rule="evenodd" d="M239.75586 123.26172l-3.06836 3a1.0001 1.0001 0 000 1.43164l3.06836 3a1 1 0 001.41406-.0176 1 1 0 00-.0156-1.41406l-2.33594-2.28516 2.33594-2.2832a1 1 0 00.0156-1.41406 1 1 0 00-1.41406-.0176zM230.91992 129.97656a1 1 0 00-1 1v12a1 1 0 001 1 1 1 0 001-1v-12a1 1 0 00-1-1z" color="#000"/><path style="-inkscape-stroke:none" fill="#abd6fd" fill-rule="evenodd" d="m 230.91992,137.44336 a 1.0001,1.0001 0 0 0 -0.71484,0.30078 l -3,3.06836 a 1,1 0 0 0 0.0156,1.41406 1,1 0 0 0 1.41407,-0.0156 l 2.28515,-2.33789 2.28516,2.33789 a 1,1 0 0 0 1.41406,0.0156 1,1 0 0 0 0.0156,-1.41406 l -3,-3.06836 a 1.0001,1.0001 0 0 0 -0.71485,-0.30078 z" color="#000"/><path style="-inkscape-stroke:none" fill="#abd6fd" fill-rule="evenodd" d="M230.91992 132.44336a1.0001 1.0001 0 00-.71484.30078l-3 3.06836a1 1 0 00.0156 1.41406 1 1 0 001.41407-.0156l2.28515-2.33789 2.28516 2.33789a1 1 0 001.41406.0156 1 1 0 00.0156-1.41406l-3-3.06836a1.0001 1.0001 0 00-.71485-.30078zM215 125.97656a1 1 0 00-1 1 1 1 0 001 1h11.91992a1 1 0 001-1 1 1 0 00-1-1z" color="#000"/><path style="-inkscape-stroke:none" fill="#abd6fd" fill-rule="evenodd" d="m 217.08594,123.26172 a 1,1 0 0 0 -1.41407,0.0176 1,1 0 0 0 0.0156,1.41406 l 2.33594,2.2832 -2.33594,2.28516 a 1,1 0 0 0 -0.0156,1.41406 1,1 0 0 0 1.41407,0.0176 l 3.06836,-3 a 1.0001,1.0001 0 0 0 0,-1.43164 z" color="#000"/><path style="-inkscape-stroke:none" fill="#abd6fd" fill-rule="evenodd" d="M222.08594 123.26172a1 1 0 00-1.41407.0176 1 1 0 00.0156 1.41406l2.33594 2.2832-2.33594 2.28516a1 1 0 00-.0156 1.41406 1 1 0 001.41407.0176l3.06836-3a1.0001 1.0001 0 000-1.43164zM238.91992 114.97656a1 1 0 00-1 1v3a1.0001 1.0001 0 001 1h3a1 1 0 001-1 1 1 0 00-1-1h-2v-2a1 1 0 00-1-1zM222.91992 114.97656a1 1 0 00-1 1v2h-2a1 1 0 00-1 1 1 1 0 001 1h3a1.0001 1.0001 0 001-1v-3a1 1 0 00-1-1zM238.91992 133.97656a1.0001 1.0001 0 00-1 1v3a1 1 0 001 1 1 1 0 001-1v-2h2a1 1 0 001-1 1 1 0 00-1-1zM219.91992 133.97656a1 1 0 00-1 1 1 1 0 001 1h2v2a1 1 0 001 1 1 1 0 001-1v-3a1.0001 1.0001 0 00-1-1z" color="#000"/><path fill="#abd6fd" fill-rule="evenodd" d="M217.60282 100.09799c-.44991-.120558-.89944.14291-1.05544.30854-.15599.16562-.20399.28362-.25174.38915-.0955.21107-.14409.39197-.19722.60331-.10627.42268-.19982.93256-.29301 1.4411-.0244.13296-.0463.22639-.0704.35629-.003.009-.005.0175-.009.0267-.007-.006-.0135-.0124-.0207-.0189-.0858-.10047-.15153-.17039-.2391-.27336-.33497-.39382-.67093-.78861-.9743-1.10153-.15166-.1565-.28422-.28883-.47245-.42388-.0941-.0675-.19471-.14567-.41258-.21118-.21791-.0654-.73895-.0688-1.06831.26052-.32935.32936-.3265.85147-.26107 1.06938.0654.2179.14311.31841.21063.41253.13504.18824.26757.32091.42402.4726.31292.30337.70728.63678 1.1011.97175.10147.0863.17028.152.26931.23666.008.009.0161.0162.0238.0253-.0122.005-.0236.007-.0356.011-.12729.0236-.21876.0453-.34892.0692-.50854.0932-1.01594.18626-1.43862.29254-.21134.0531-.394.10094-.60506.19644-.10553.0477-.22143.0964-.38705.2524-.16562.156-.42976.6052-.30921 1.05511.12055.44991.57391.70686.79534.75915.22141.0523.34612.0365.46139.0251.23054-.0228.41263-.0727.62222-.13241.41919-.11931.90515-.29238 1.39215-.46596.12464-.0444.21472-.0713.33677-.11454.0124-.002.0238-.006.0364-.008-.002.0117-.006.022-.008.0337-.0435.12282-.0702.21415-.11489.33962-.17357.487-.34839.97292-.46769 1.39211-.0597.20959-.10809.39075-.13093.62129-.0114.11527-.0284.24115.0239.46258.0523.22143.31086.67502.76078.79556.44991.12056.89944-.14291 1.05543-.30853.15599-.16563.20399-.28363.25175-.38916.0955-.21107.14409-.39197.19722-.60331.10627-.42268.19982-.93256.293-1.44109.0244-.13297.0463-.22639.0704-.35629.003-.009.005-.0176.009-.0267.007.006.0135.0124.0207.0189.0858.10047.15153.1704.2391.27337.33497.39381.67093.7886.9743 1.10152.15166.1565.28422.28883.47246.42387.0941.0675.19471.14567.41257.21118.21792.0654.73895.0688 1.06831-.26052.32936-.32936.3265-.85146.26107-1.06937-.0654-.21791-.14311-.31842-.21063-.41253-.13503-.18824-.26756-.32091-.42402-.4726-.31292-.30338-.70728-.63679-1.1011-.97175-.10146-.0863-.17028-.15201-.26931-.23666-.008-.009-.0161-.0162-.0238-.0253.0122-.005.0236-.007.0356-.0109.12728-.0236.21875-.0453.34891-.0692.50854-.0932 1.01594-.18627 1.43862-.29255.21134-.0531.394-.10094.60506-.19643.10553-.0477.22142-.0964.38704-.25241.16563-.15599.42977-.6052.30922-1.05511-.12055-.44991-.57392-.70686-.79534-.75915-.22141-.0523-.34613-.0365-.4614-.0251-.23053.0228-.41262.0727-.62222.13241-.41918.11931-.90514.29239-1.39215.46596-.12464.0444-.21471.0714-.33676.11454-.0124.002-.0238.006-.0364.008.002-.0117.006-.022.008-.0337.0435-.12282.0702-.21415.11489-.33962.17358-.48699.34839-.97292.4677-1.3921.0597-.2096.10809-.39076.13093-.6213.0114-.11527.0284-.24115-.0239-.46258-.0523-.22142-.31087-.67502-.76078-.79556zM249.54608 146.07747c-.39461-.24745-.90173-.12772-1.0995-.0153-.19778.11247-.27834.21115-.355.29799-.15331.17368-.25292.33232-.36581.51871-.22579.37279-.46506.83265-.70358 1.29135-.0624.11993-.11075.2028-.17198.31987-.005.007-.0103.0152-.0161.023-.005-.008-.009-.0158-.0142-.0241-.0525-.12126-.0948-.2074-.14821-.33156-.20444-.47487-.40955-.95096-.60756-1.33921-.099-.19416-.18679-.3596-.32702-.54401-.0701-.0922-.1433-.19646-.3323-.3231-.18906-.12657-.68609-.28296-1.09769-.0649-.4116.21802-.56231.71791-.56381.94543-.001.22751.0432.34641.0801.45621.0737.21961.16144.38537.26641.57635.20995.38193.48891.81652.7669 1.25243.0716.1123.11809.19533.18787.30535.005.0109.0106.0202.0153.0311-.013.00073-.0245-.00051-.0373-.00001-.12861-.0148-.22242-.0209-.35385-.0364-.51347-.0604-1.02581-.12052-1.46107-.14315-.21761-.0113-.40626-.0193-.63607.01-.11489.0146-.23998.0271-.44413.12752-.20415.10043-.58864.45217-.60563.91764-.017.46548.34084.84431.53712.95936.19626.11508.32012.13659.43365.15956.22707.0459.41579.0517.63366.0563.43574.009.9511-.0135 1.46761-.0363.13219-.006.2262-.005.35556-.0105.0125.002.0245.001.0372.003-.006.0105-.0122.0192-.0177.0298-.0776.10463-.13.18407-.20962.29085-.30903.41449-.61893.82758-.85616 1.19319-.11862.18281-.21815.34174-.30773.55539-.0448.10682-.098.22214-.11313.44916-.0151.22702.0988.73657.49338.98401.39462.24746.90173.12773 1.09951.0153.19777-.11246.27833-.21115.35499-.29798.15331-.17369.25292-.33232.36581-.51871.2258-.37279.46506-.83266.70358-1.29136.0624-.11992.11075-.20279.17199-.31987.005-.007.0103-.0152.0161-.023.005.008.009.0158.0142.0241.0525.12125.0948.2074.1482.33156.20445.47486.40955.95095.60756 1.33921.099.19416.18679.3596.32703.544.0701.0922.1433.19646.3323.3231.18906.12657.68609.28296 1.09769.0649.41161-.21802.56231-.71791.56381-.94543.001-.22751-.0432-.34641-.0801-.45621-.0737-.21962-.16144-.38538-.26641-.57635-.20994-.38193-.48891-.81652-.7669-1.25243-.0716-.1123-.11809-.19533-.18787-.30535-.005-.011-.0106-.0202-.0153-.0311.013-.00073.0245.00051.0373.00001.12861.0148.22242.021.35384.0364.51347.0604 1.02582.12052 1.46107.14316.21762.0113.40626.0193.63607-.01.11489-.0146.23998-.0271.44413-.12751.20416-.10043.58864-.45218.60564-.91765.017-.46547-.34084-.8443-.53713-.95936-.19626-.11507-.32011-.13659-.43365-.15955-.22706-.0459-.41579-.0517-.63366-.0563-.43574-.009-.9511.0135-1.46761.0363-.13219.006-.2262.005-.35555.0105-.0125-.002-.0245-.001-.0372-.003.006-.0105.0122-.0192.0176-.0298.0776-.10463.13-.18408.20962-.29086.30903-.41448.61893-.82757.85616-1.19319.11862-.1828.21816-.34173.30773-.55538.0448-.10682.098-.22215.11314-.44916.0151-.22702-.0988-.73657-.49339-.98402zM251.90919 102.59869c-.23289-.40338-.73706-.53495-.96448-.52814-.22741.007-.34479.0563-.45318.0972-.21678.0817-.37905.17528-.56606.28715-.37402.22374-.80071.51813-1.22619.81183-.11125.0768-.1928.12736-.30171.20216-.008.004-.0162.009-.0249.0128-.0005-.01-.00077-.0183-.001-.028.0104-.13173.0133-.22763.0242-.36237.0416-.51533.0832-1.03205.09-1.46783.003-.2179.003-.40521-.0343-.6338-.0188-.11429-.0347-.24069-.14241-.44106-.10783-.20035-.47384-.571193-.93962-.571193-.46578 0-.83295.371203-.94077.571553-.1078.20036-.12396.32635-.14276.44064-.0376.22859-.0377.41612-.0343.63401.007.43578.0498.9504.0915 1.46572.0107.13277.0129.22789.0231.35778-.00096.0119-.0001.0228-.001.0347-.0118-.005-.0214-.0119-.0329-.0175-.10671-.0733-.18674-.12263-.29565-.1978-.42548-.2937-.85008-.58666-1.22411-.8104-.18701-.11187-.34998-.20722-.56675-.28894-.10837-.0409-.22474-.0884-.45216-.0952-.22742-.007-.73183.12405-.96472.52743-.23289.40338-.094.90564.0256 1.09919.11957.19355.21895.27054.30853.34397.17916.14687.34322.24033.53361.34635.38077.21205.84678.43329 1.31388.65492.11955.0567.20228.10137.31912.15713.0102.007.0211.0126.0316.0198-.01.007-.0198.0113-.0295.0181-.11757.0561-.20104.10182-.32138.15891-.4671.22162-.93431.44161-1.31508.65366-.19039.10601-.35274.19987-.5319.34674-.0896.0734-.19061.15042-.31022.34397-.1196.19354-.25749.69712-.0246 1.1005.23288.40338.73705.53495.96447.52814.22742-.007.3448-.0563.45319-.0972.21677-.0817.37905-.17527.56605-.28715.37403-.22373.80072-.51812 1.2262-.81182.11125-.0768.19279-.12737.30171-.20216.008-.004.0162-.009.0249-.0128.0005.01.00077.0183.001.028-.0104.13173-.0133.22763-.0242.36237-.0416.51533-.0832 1.03204-.09 1.46783-.003.2179-.003.4052.0344.63379.0188.11429.0347.24069.1424.44106.10783.20035.47384.5712.93963.5712.46578 0 .83294-.3712.94076-.57156.10781-.20035.12396-.32634.14277-.44064.0376-.22859.0377-.41611.0343-.63401-.007-.43578-.0498-.95039-.0915-1.46572-.0107-.13277-.0129-.22789-.0231-.35778.00096-.0119.0001-.0228.001-.0347.0118.005.0214.0119.0329.0175.10671.0733.18674.12263.29564.19781.42549.2937.85009.58666 1.22412.81039.18701.11187.34998.20722.56675.28894.10836.0409.22474.0884.45215.0952.22742.007.73183-.12405.96473-.52743.23289-.40338.094-.90564-.0256-1.09919-.11957-.19355-.21895-.27054-.30853-.34398-.17915-.14686-.34321-.24032-.5336-.34635-.38078-.21204-.84679-.43328-1.31389-.65491-.11954-.0567-.20228-.10137-.31912-.15713-.0102-.007-.0211-.0126-.0316-.0198.01-.007.0198-.0113.0295-.0181.11757-.0561.20104-.10181.32139-.1589.46709-.22163.93431-.44161 1.31508-.65366.19039-.10602.35274-.19987.5319-.34674.0896-.0734.19061-.15042.31021-.34397.11961-.19354.2575-.69713.0246-1.1005zM226.85962 147.29646c-.31712-.34116-.83794-.35676-1.05809-.29932-.22015.0574-.3235.13192-.42002.19596-.19304.12808-.33031.25553-.4876.40636-.31459.30164-.66472.68391-1.01383 1.06525-.0913.0997-.15947.16722-.24892.26445-.007.006-.0139.012-.0214.018-.003-.009-.005-.0177-.007-.027-.0193-.13072-.0379-.22486-.0573-.35863-.0746-.5116-.14946-1.02455-.24024-1.45082-.0454-.21316-.0874-.3957-.17508-.61011-.0439-.1072-.0876-.22686-.23735-.3981-.14986-.17119-.58947-.45089-1.04348-.34683-.45401.10406-.72896.54791-.78929.76729-.0603.21937-.0479.34579-.0407.4614.0144.23121.0562.41402.10817.62565.10393.42326.26092.91524.41661 1.40825.0401.12701.0635.21924.10244.34357.002.0118.005.0223.007.034-.0127-.003-.0235-.007-.036-.01-.12039-.0476-.20942-.0778-.33237-.12674-.48034-.19122-.95966-.38192-1.37423-.51643-.20727-.0673-.38742-.1238-.61697-.15503-.11476-.0156-.23881-.0359-.462.008-.22319.0442-.68562.28441-.8225.72962-.13689.44522.1107.90376.27052 1.06569.15979.16195.27386.21479.37758.26635.20744.10314.38823.15758.59749.21839.41853.12161.92219.23315 1.42699.34482.1292.0286.21982.0536.34617.0819.0116.005.0234.008.0352.0123-.008.009-.0167.0154-.0248.0242-.10206.081-.17321.14415-.27776.22669-.40578.32037-.81203.63918-1.13581.93094-.16189.14587-.29916.27363-.44098.45681-.0709.0916-.15219.1892-.22553.40458-.0733.21537-.0952.73703.22189 1.07818.31712.34115.83794.35676 1.05809.29931.22014-.0574.3235-.13191.42002-.19595.19304-.12809.33031-.25553.4876-.40636.31458-.30164.66472-.68391 1.01383-1.06525.0913-.0997.15946-.16722.24891-.26446.007-.006.0139-.012.0214-.018.003.009.005.0177.008.027.0193.13071.0378.22486.0573.35862.0746.5116.14947 1.02455.24024 1.45083.0454.21316.0874.39569.17509.6101.0439.1072.0876.22686.23735.3981.14986.17119.58948.45089 1.04349.34683.454-.10406.72896-.54791.78929-.76729.0603-.21937.0479-.34579.0407-.4614-.0144-.23121-.0562-.41402-.10817-.62565-.10394-.42326-.26092-.91524-.41661-1.40824-.0401-.12702-.0635-.21925-.10244-.34358-.002-.0118-.005-.0223-.007-.034.0127.003.0235.007.036.01.12038.0476.2094.0778.33235.12675.48035.19122.95967.38191 1.37423.51643.20728.0673.38743.12379.61698.15502.11476.0156.23881.0359.46199-.008.2232-.0442.68562-.28441.82251-.72963.13689-.44521-.1107-.90375-.27052-1.06569-.15979-.16194-.27386-.21478-.37758-.26635-.20744-.10313-.38823-.15757-.5975-.21838-.41852-.12162-.92218-.23315-1.42699-.34482-.12919-.0286-.21981-.0536-.34616-.0819-.0116-.005-.0234-.008-.0352-.0123.008-.009.0167-.0154.0248-.0242.10206-.081.17321-.14415.27776-.22669.40577-.32038.81203-.63919 1.1358-.93094.16189-.14587.29917-.27363.44099-.45682.0709-.0916.15219-.1892.22553-.40457.0733-.21537.0952-.73704-.22189-1.07819z" color="#000"/><path style="-inkscape-stroke:none" fill="#abd6fd" fill-rule="evenodd" d="m 205,115.01758 a 1,1 0 0 0 -1,1 v 26.95898 a 1,1 0 0 0 1,1 1,1 0 0 0 1,-1 v -26.95898 a 1,1 0 0 0 -1,-1 z" color="#000"/><path style="-inkscape-stroke:none" fill="#ff435b" fill-rule="evenodd" d="m 205,136 c -0.55228,0 -1,0.44772 -1,1 v 5.97656 c 0,0.55228 0.44772,1 1,1 0.55228,0 1,-0.44772 1,-1 V 137 c 0,-0.55228 -0.44772,-1 -1,-1 z" color="#000"/><path fill="#ff435b" fill-rule="evenodd" d="m 209,146.97742 a 4,4 0 0 1 -4,4 4,4 0 0 1 -4,-4 4,4 0 0 1 4,-4 4,4 0 0 1 4,4 z"/><path style="-inkscape-stroke:none" fill="#abd6fd" fill-rule="evenodd" d="m 234.92064,126.97742 a 4,4 0 0 1 -4,4 4,4 0 0 1 -4,-4 4,4 0 0 1 4,-4 4,4 0 0 1 4,4 z" color="#000"/></g></svg>