<svg xmlns="http://www.w3.org/2000/svg" width="64" height="64" viewBox="0 0 64 64"><g transform="translate(-288 -672)"><path fill="#aa6a51" fill-rule="evenodd" d="m 318,696 c 0,0 -1.67943,9.95899 -4.13867,19.85742 C 313.14505,715.12875 306.94267,708.71337 306,704 h -4 c 0.74136,3.70681 6.96369,13.4356 10.14062,18.23242 C 311.15374,725.5911 310.09614,728.67732 309,731 h 18 c -3.87622,-10.63778 -4.02734,-35 -4.02734,-35 z"/><path style="-inkscape-stroke:none" fill="#aa6a51" fill-rule="evenodd" d="m 322,716 10,-11 -2,-3 -9,8" color="#000"/><path style="-inkscape-stroke:none" fill="#22b27f" fill-rule="evenodd" d="m 305.97152,691.82194 c -1.63165,0.003 -3.09382,0.84627 -3.68379,2.12281 -0.35151,-0.0843 -0.71522,-0.1273 -1.08079,-0.1279 -2.18875,-1.7e-4 -3.96311,1.48877 -3.96291,3.32542 0.003,0.0627 0.009,0.12527 0.0158,0.18769 -0.0988,-0.007 -0.19781,-0.0109 -0.29692,-0.0117 -2.18874,-1.7e-4 -3.96311,1.48876 -3.96291,3.32541 -2e-4,1.83664 1.77418,3.32558 3.96291,3.32541 0.0324,-0.002 0.0647,-0.003 0.097,-0.005 0.46775,1.44778 2.03279,2.45348 3.82038,2.45503 0.52227,-0.002 1.03892,-0.0906 1.52023,-0.26079 0.62192,1.22274 2.052,2.01709 3.63629,2.01983 1.57954,-0.002 3.00676,-0.79113 3.63233,-2.0082 0.41471,0.12278 0.85088,0.18678 1.29063,0.18936 2.18873,1.7e-4 3.96309,-1.48877 3.96289,-3.32541 3.8e-4,-1.29861 -0.90022,-2.47858 -2.30608,-3.02143 0.45164,-0.5515 0.69448,-1.20451 0.69677,-1.87367 -1.6e-4,-1.65227 -1.44609,-3.05379 -3.39479,-3.29052 -0.18421,-1.71388 -1.89634,-3.02666 -3.94707,-3.02642 z" color="#000"/><path fill="#22b27f" fill-rule="evenodd" d="m 335.81978,683.42187 c -2.42063,-1.9e-4 -4.38298,2.28166 -4.38281,5.09641 6.4e-4,0.007 0.001,0.0136 0.002,0.0205 -0.59862,-0.33943 -1.25589,-0.51573 -1.92188,-0.51555 -2.42063,-2e-4 -4.38298,2.28166 -4.38281,5.09641 0.002,0.0409 0.005,0.0818 0.008,0.12264 -2.03417,0.48515 -3.49632,2.56371 -3.50195,4.97832 0.005,2.72307 1.84993,4.96057 4.18945,5.08051 0.17792,2.64714 2.074,4.69183 4.35742,4.69896 1.20006,-0.005 2.34584,-0.58217 3.16992,-1.5966 0.73795,0.61201 1.62095,0.94289 2.52735,0.94706 2.14903,-0.002 3.97954,-1.81639 4.32226,-4.28334 0.69875,0.51251 1.50785,0.78491 2.33399,0.78581 2.41987,1.9e-4 4.3819,-2.28028 4.38281,-5.09415 7e-5,-1.48925 -0.5601,-2.90403 -1.5332,-3.87227 0.40766,-0.78813 0.6243,-1.68983 0.62695,-2.60953 1.7e-4,-2.81475 -1.96218,-5.09661 -4.38281,-5.09641 -0.51941,0.005 -1.03392,0.11721 -1.51953,0.33158 -0.41178,-2.37844 -2.20848,-4.08953 -4.29493,-4.09029 z"/><path style="-inkscape-stroke:none" fill="#1c9469" fill-rule="evenodd" d="m 341.21875,694.02344 a 1,1 0 0 0 -1.19531,0.75781 c 0,0 -0.20148,0.86953 -0.72657,1.72266 -0.52508,0.85312 -1.22053,1.55477 -2.38671,1.55664 a 1,1 0 0 0 -0.99805,1.00195 1,1 0 0 0 1.00195,0.99805 c 2.01554,-0.003 3.36232,-1.33213 4.08594,-2.50782 0.72362,-1.17568 0.97656,-2.33398 0.97656,-2.33398 a 1,1 0 0 0 -0.75781,-1.19531 z" color="#000"/><path style="-inkscape-stroke:none" fill="#d8ecfe" fill-rule="evenodd" d="M301.58594 691.41406A2 2 0 00300.17188 692 2 2 0 00300 692.19531a2 2 0 00-1.94922.51172 2 2 0 00-.50781 1.94727 2 2 0 00-.19922.17382 2 2 0 000 2.82813A2 2 0 00298 698.0918V699.5c0 .831.669 1.5 1.5 1.5.831 0 1.5-.669 1.5-1.5v-3c0-.3136-.0965-.60354-.25977-.84375a2 2 0 00.13868-.12109 2 2 0 00.17382-.19922A2 2 0 00303 694.82812 2 2 0 00303 692a2 2 0 00-1.41406-.58594zM339.58594 720.96094a1 1 0 00-.70703.29297 1 1 0 000 1.41406l1.41406 1.41406a1 1 0 001.41406 0 1 1 0 000-1.41406l-1.41406-1.41406a1 1 0 00-.70703-.29297zM335.34375 716.71875a1 1 0 00-.70703.29297 1 1 0 000 1.41406l1.41406 1.41406a1 1 0 001.41406 0 1 1 0 000-1.41406l-1.41406-1.41406a1 1 0 00-.70703-.29297zM336.75781 720.96094a1 1 0 00-.70703.29297l-1.41406 1.41406a1 1 0 000 1.41406 1 1 0 001.41406 0l1.41406-1.41406a1 1 0 000-1.41406 1 1 0 00-.70703-.29297zM341 716.71875a1 1 0 00-.70703.29297l-1.41406 1.41406a1 1 0 000 1.41406 1 1 0 001.41406 0l1.41406-1.41406a1 1 0 000-1.41406A1 1 0 00341 716.71875zM343.10423 679.18108v0M343.10423 678.18108a1 1 0 00-1 1 1 1 0 001 1 1 1 0 001-1 1 1 0 00-1-1zM301.74903 722.652v0M301.74903 721.652a1 1 0 00-1 1 1 1 0 001 1 1 1 0 001-1 1 1 0 00-1-1zM296.42134 713.21177v0M296.42134 712.21177a1 1 0 00-1 1 1 1 0 001 1 1 1 0 001-1 1 1 0 00-1-1z" color="#000"/><path fill="#d8ecfe" fill-rule="evenodd" d="M346.39472 710.75473v0M346.39472 709.75473a1 1 0 00-1 1 1 1 0 001 1 1 1 0 001-1 1 1 0 00-1-1zM336.17696 729.9103v0M336.17696 728.9103a1 1 0 00-1 1 1 1 0 001 1 1 1 0 001-1 1 1 0 00-1-1z" color="#000"/><path style="-inkscape-stroke:none" fill="#d8ecfe" fill-rule="evenodd" d="M296.99414 682.07227a1 1 0 00-1 1v2a1 1 0 001 1 1 1 0 001-1v-2a1 1 0 00-1-1zM296.99414 676.07227a1 1 0 00-1 1v2a1 1 0 001 1 1 1 0 001-1v-2a1 1 0 00-1-1zM292.99414 680.07227a1 1 0 00-1 1 1 1 0 001 1h2a1 1 0 001-1 1 1 0 00-1-1zM298.99414 680.07227a1 1 0 00-1 1 1 1 0 001 1h2a1 1 0 001-1 1 1 0 00-1-1z" color="#000"/><path fill="#22b27f" fill-rule="evenodd" d="m 319.54673,677.06895 c -2.85398,3.2e-4 -5.16716,2.22405 -5.16625,4.96646 0.005,0.12451 0.0132,0.24884 0.027,0.37271 -0.42762,-0.15064 -0.87953,-0.22767 -1.33498,-0.22753 -2.13947,3.4e-4 -3.87378,1.66684 -3.87412,3.72268 0.002,0.66351 0.18922,1.31435 0.5412,1.88518 -1.7203,0.41487 -2.92781,1.89919 -2.93152,3.6035 0.002,1.4897 0.92828,2.83474 2.35424,3.41932 -0.0856,0.30533 -0.13024,0.61989 -0.13305,0.93608 3.5e-4,2.05584 1.73465,3.72235 3.87413,3.72268 0.30263,-0.003 0.60385,-0.0402 0.8975,-0.1105 0.49192,1.5738 1.99939,2.65163 3.70951,2.65225 1.08206,-0.002 2.11391,-0.43897 2.84584,-1.20478 0.70473,0.58921 1.60725,0.91396 2.54141,0.91442 2.13947,-3.3e-4 3.87378,-1.66684 3.87412,-3.72268 -2e-5,-0.24372 -0.0249,-0.48687 -0.0745,-0.7259 0.24914,0.0514 0.50292,0.0789 0.75769,0.0823 2.14036,8.6e-4 3.87603,-1.66599 3.87639,-3.72267 -2.2e-4,-0.5769 -0.13994,-1.14586 -0.40816,-1.662 1.42847,-0.58356 2.35667,-1.92996 2.35875,-3.42149 -3.6e-4,-2.05584 -1.73465,-3.72233 -3.87413,-3.72267 -0.0293,0.002 -0.0587,0.004 -0.088,0.007 0.66451,-0.68663 1.03495,-1.58891 1.03731,-2.52656 8.9e-4,-2.05669 -1.73378,-3.72452 -3.87413,-3.72485 -0.92119,10e-4 -1.81179,0.31769 -2.51209,0.89275 -0.93399,-1.49161 -2.61274,-2.40425 -4.42436,-2.40522 z"/><path style="-inkscape-stroke:none" fill="#d8ecfe" fill-rule="evenodd" d="m 317.68164,675.30664 c -2.44109,0.63788 -4.32754,2.54986 -4.99023,4.95313 -1.55472,0.10341 -2.98636,0.73473 -3.98438,1.81445 a 2,2 0 0 0 0.11133,2.82617 2,2 0 0 0 2.82617,-0.11133 c 0.33597,-0.36347 0.83453,-0.60928 1.42774,-0.60937 0.22953,-7e-5 0.45726,0.0403 0.66992,0.11523 a 2.0002,2.0002 0 0 0 2.65234,-2.10742 c -0.005,-0.0442 -0.008,-0.10356 -0.0117,-0.16016 0.004,-1.34727 0.94782,-2.49351 2.31055,-2.84961 a 2,2 0 0 0 1.42969,-2.4414 2,2 0 0 0 -2.44141,-1.42969 z" color="#000"/></g></svg>