<svg xmlns="http://www.w3.org/2000/svg" width="64" height="64" viewBox="0 0 64 64"><g transform="translate(-96 -576)"><path fill="#5b7fa0" fill-rule="evenodd" d="M105 629h46.00002v6H105zM128 583c9.38884 0 17 7.61116 17 17v29h-34v-29c0-9.38884 7.61116-17 17-17z"/><path fill="#d8ecfe" fill-rule="evenodd" d="M116 605h9v18h-9zM131 605h9v18h-9zM125 589v10h-9a9.5131488 9.5131488 0 019-10z"/><path style="-inkscape-stroke:none" fill="#d8ecfe" fill-rule="evenodd" d="M103.49829 608.24264v0M103.49829 607.24264a1 1 0 00-1 1 1 1 0 001 1 1 1 0 001-1 1 1 0 00-1-1zM101.07606 582.24264v0M101.07606 581.24264a1 1 0 00-1 1 1 1 0 001 1 1 1 0 001-1 1 1 0 00-1-1zM151.61561 599.15084v0M151.61561 598.15084a1 1 0 00-1 1 1 1 0 001 1 1 1 0 001-1 1 1 0 00-1-1zM149.31801 621.98275v0M149.31801 620.98275a1 1 0 00-1 1 1 1 0 001 1 1 1 0 001-1 1 1 0 00-1-1zM154.46026 584.47902a2 2 0 01-2.82843 0 2 2 0 010-2.82843 2 2 0 012.82843 0 2 2 0 010 2.82843z" color="#000"/><path style="-inkscape-stroke:none" fill="#d8ecfe" fill-rule="evenodd" d="M155.16851 580.94347c-1.1632-1.1632-3.07944-1.1632-4.24264 0-1.1632 1.16319-1.1632 3.07944 0 4.24264 1.16319 1.16319 3.07944 1.1632 4.24264 0 1.1632-1.1632 1.16319-3.07945 0-4.24264zm-1.41421 1.41421c.39889.39889.3989 1.01531 0 1.41421-.3989.3989-1.01532.3989-1.41422 0-.3989-.3989-.3989-1.01531 0-1.41421.3989-.3989 1.01532-.3989 1.41422 0zM104.435 623.04021a2 2 0 01-2.82843 0 2 2 0 010-2.82843 2 2 0 012.82843 0 2 2 0 010 2.82843z" color="#000"/><path style="-inkscape-stroke:none" fill="#d8ecfe" fill-rule="evenodd" d="m 105.14208,619.50426 c -1.16319,-1.1632 -3.07945,-1.1632 -4.24264,0 -1.163195,1.16319 -1.163188,3.07945 0,4.24264 1.1632,1.16319 3.07945,1.16319 4.24264,0 1.16319,-1.16319 1.1632,-3.07945 0,-4.24264 z m -1.41421,1.41421 c 0.3989,0.3989 0.39889,1.01532 0,1.41421 -0.3989,0.3989 -1.01531,0.3989 -1.41421,0 -0.3989,-0.3989 -0.3989,-1.01531 0,-1.41421 0.39889,-0.39889 1.01531,-0.3989 1.41421,0 z" color="#000"/><path fill="#d8ecfe" fill-rule="evenodd" d="m 131,589 v 10 h 9 a 9.5131488,9.5131488 0 0 0 -9,-10 z"/><path style="-inkscape-stroke:none" fill="#d8ecfe" fill-rule="evenodd" d="m 130.27344,581.19727 c -0.89934,0.10335 -1.61712,0.7979 -1.75,1.69335 -0.1618,1.09338 0.59397,2.1107 1.6875,2.27149 0.26562,0.0392 0.52816,0.0877 0.78906,0.14062 v 8.96326 c 0,0.831 0.669,1.5 1.5,1.5 0.831,0 1.5,-0.669 1.5,-1.5 V 586.25 c 3.89049,1.70064 6.92198,5.00372 8.25586,9.07031 0.34413,1.04953 1.47388,1.6214 2.52344,1.27735 1.04952,-0.34414 1.62139,-1.47389 1.27734,-2.52344 -2.21092,-6.74043 -8.08156,-11.80965 -15.26172,-12.86914 -0.17763,-0.0382 -0.36306,-0.005 -0.52148,-0.008 m 0,0 v 1.9e-4" color="#000"/></g></svg>