<svg xmlns="http://www.w3.org/2000/svg" width="64" height="64" viewBox="0 0 64 64"><g transform="translate(-192 -480)"><path fill="#5b7fa0" fill-rule="evenodd" d="M204.96619 494H243v41h-38.03381zM197 535h54v4h-54zM201 494h46v-7h-46z"/><path fill="#d8ecfe" fill-rule="evenodd" d="M225 516v15h14v-15zM208.9668 515.99023V531H223v-15h-14a1 1 0 01-.0332-.01zM225 498v16h14v-16zM208.9668 498v16.00977A1 1 0 01209 514h14v-16z"/><path fill="#d8ecfe" fill-rule="evenodd" d="M248.49225 500.50718v0M249.19935 499.80008a1 1 0 00-1.41421 0 1 1 0 000 1.41421 1 1 0 001.41421 0 1 1 0 000-1.41421z" color="#000"/><path style="-inkscape-stroke:none" fill="#d8ecfe" fill-rule="evenodd" d="m 201.11525,524.22508 c -1.16319,-1.16319 -3.07944,-1.16319 -4.24264,0 -1.16319,1.1632 -1.16319,3.07945 0,4.24264 1.1632,1.1632 3.07945,1.1632 4.24264,0 1.1632,-1.16319 1.1632,-3.07944 0,-4.24264 z m -1.41421,1.41422 c 0.3989,0.3989 0.3989,1.01531 0,1.41421 -0.3989,0.3989 -1.01531,0.3989 -1.41421,0 -0.3989,-0.3989 -0.3989,-1.01531 0,-1.41421 0.3989,-0.3989 1.01531,-0.3989 1.41421,0 z" color="#000"/><path fill="#d8ecfe" fill-rule="evenodd" d="M198.55921 508.20003v0M199.26631 507.49293a1 1 0 00-1.41421 0 1 1 0 000 1.41421 1 1 0 001.41421 0 1 1 0 000-1.41421zM247 527v0M247.70711 526.29289a1 1 0 00-1.41421 0 1 1 0 000 1.41422 1 1 0 001.41421 0 1 1 0 000-1.41422zM247.76407 513.57047v0M248.47118 512.86337a1 1 0 00-1.41421 0 1 1 0 000 1.41421 1 1 0 001.41421 0 1 1 0 000-1.41421zM197.15047 485.18099v0M197.85757 484.47389a1 1 0 00-1.41421 0 1 1 0 000 1.41421 1 1 0 001.41421 0 1 1 0 000-1.41421zM209 487.00001V493c0 1.108.892 2 2 2 1.108 0 2-.892 2-2v-1c0-1.10801.892-2 2-2 1.108 0 2 .89199 2 2v8c0 1.108.892 2 2 2 1.108 0 2-.892 2-2v-12.99999zM231 485.00001c-1.108 0-2 .892-2 2 0 1.108.892 2 2 2h1V494c0 1.108.892 2 2 2 1.108 0 2-.892 2-2v-4.99999h4c1.108 0 2-.892 2-2 0-1.108-.892-2-2-2z" color="#000"/></g></svg>