<?xml version="1.0" encoding="utf-8"?>
<!-- Generator: Adobe Illustrator 16.0.2, SVG Export Plug-In . SVG Version: 6.00 Build 0)  -->
<!DOCTYPE svg PUBLIC "-//W3C//DTD SVG 1.1//EN" "http://www.w3.org/Graphics/SVG/1.1/DTD/svg11.dtd">
<svg version="1.1" id="Layer_1" xmlns="http://www.w3.org/2000/svg" xmlns:xlink="http://www.w3.org/1999/xlink" x="0px" y="0px"
	 width="515px" height="515px" viewBox="0 0 515 515" enable-background="new 0 0 515 515" xml:space="preserve">
<path fill-rule="evenodd" clip-rule="evenodd" fill="#050606" d="M223.833,90.608c17.875,3.422,35.511,7.623,52.267,15.046
	c8.038,3.556,16.76,3.874,25.446,3.223c6.691-0.505,11.652-3.181,14.764-9.816c5.175-11.03,11.159-16.715,20.35-20.295
	c-2.383,3.45-4.002,5.74-5.565,8.065c-4.284,6.348-8.49,12.626-10.908,20.122c-4.641,14.381-11.594,17.499-29.081,13.575
	c3.795,5.264,6.542,10.42,5.606,16.729c-0.34,2.351,1.357,3.601,3.115,4.905c6.164,4.597,12.312,9.223,18.262,14.088
	c6.657,5.443,5.872,17.468-1.438,22.305c-9.459,6.263-19.047,12.337-29.755,19.24c23.155,8.801,45.134,17.127,67.092,25.505
	c14.328,5.469,28.704,10.845,42.9,16.622c5.664,2.305,11.455,1.811,17.225,2.218c18.694,1.316,37.055,4.366,54.406,11.678
	c10.829,4.566,20.499,10.755,26.518,21.669c2.985,5.406,6.691,10.582,13.543,12.404c2.917,0.775,5.426,3.658,4.273,7.079
	c-1.196,3.563-4.468,3.033-7.637,2.526c-10.044-1.622-16.974-7.069-21.217-16.216c-1.765-3.787-3.601-7.555-5.743-11.132
	c-5.406-9.018-12.757-14.393-24.021-13.697c-8.619,0.534-17.286-0.087-25.94-0.153c-2.553-0.017-5.735-0.125-6.589,2.622
	c-0.877,2.816,1.904,4.652,4.036,5.87c12.539,7.167,14.124,18.255,12.322,31.258c-1.813,12.971-1.929,26.089-0.137,39.139
	c1.574,11.485,6.879,19.503,19.34,21.326c7.569,1.108,12.129,5.229,14.057,13.253c4.971,20.714,14.981,39.463,24.26,58.449
	c1.823,3.727,3.499,7.364,0.34,11.013c-3.716,4.294-8.925,8.13-13.872,8.395c-3.566,0.201-7.171-5.937-6.967-10.754
	c0.833-20.856-10.248-37.297-19.31-54.563c-1.23-2.346-2.884-2.843-4.938-3.026c-5.813-0.513-11.621-1.003-17.449-1.248
	c-4.899-0.207-9.813-0.125-14.726-0.033c-13.591,0.262-23.703-4.934-29.745-17.671c-3.58-7.559-8.096-14.672-12.151-22.006
	c-0.993-1.815-1.415-3.57-4.516-2.856c-7.478,1.731-15.069,3.071-22.676,4.114c-4.022,0.551-4.366,2.799-3.692,5.78
	c1.551,6.828,3.145,13.58,9.874,17.701c2.506,1.544,4.583,3.972,6.484,6.301c5.701,6.987,4.801,14.161-3.044,18.766
	c-14.43,8.486-27.062,19.041-38.132,31.499c-1.721,1.944-3.251,2.265-5.427,1.877c-5.451-0.966-10.897-1.911-17.09-2.999
	c14.842-13.665,30.874-25.352,43.903-40.992c-17.671-5.828-36.46-8.993-40.836-31.221c-18.275,5.502-36.354,5.468-54.117-1.72
	c-2.52-1.027-3.692-0.238-5.175,1.604c-15.688,19.388-31.703,38.523-45.371,59.438c-6.192,9.47-7.64,20.863-12.118,31.061
	c-3.672,8.327-7.093,16.688-13.145,23.706c-1.962,2.274-4.172,3.522-7.001,4.169c-5.063,1.142-10.214,1.104-13.611-3.013
	c-3.638-4.407-0.582-9.045,1.924-12.825c9.395-14.135,19.462-27.827,27.443-42.869c14.202-26.767,24.988-54.549,26.664-85.27
	c0.272-5.019-0.901-6.419-6.134-7.208c-8.742-1.322-16.586-1.602-23.063,5.488c-1.744,1.917-3.397,2.087-4.774-0.544
	c-3.682-6.991-8.323-13.683-9.452-21.604c-0.877-6.141-4.958-8.854-9.599-10.799c-4.801-2.007-9.827-1.31-13.465,2.92
	c-15.627,18.181-31.2,36.29-36.742,60.758c-2.771,12.199-5.882,24.406-11.058,35.953c-2.781,6.229-6.953,10.241-13.726,11.614
	c-2.748,0.558-5.484,1.856-7.946-0.299c-3.019-2.655-1.152-5.784-0.044-8.405c11.091-26.1,20.826-52.777,34.039-77.965
	c11.526-21.992,17.443-45.439,17.535-70.417c0.078-21.927,4.729-42.93,14.032-62.926c6.338-13.636,18.456-22.028,28.272-32.518
	c4.981-5.325,10.17-10.46,15.253-15.685C197.532,119.297,214.938,109.793,223.833,90.608z"/>
<path fill-rule="evenodd" clip-rule="evenodd" fill="#B42A25" d="M223.833,90.608c-8.895,19.186-26.3,28.689-43.597,38.327
	c-4.899-0.308-8.857,2.631-13.155,4.146c-14.797,5.21-30.656,6.268-45.327,11.649c-20.119,7.381-40.023,15.367-60.053,23
	c-12.064,4.597-19.119,14.486-26.222,24.379c-4.094,5.718-9.041,9.362-16.62,7.404c-3.227-0.831-6.658-1.761-8.746-4.116
	c-2.689-3.022,1.506-5.18,2.35-7.805c2.268-7.108-0.959-11.615-6.328-15.419c-6.613-4.697-6.657-4.765-0.16-9.93
	c22.4-17.807,47.847-29.574,75.116-37.706c28.055-8.366,57.286-10.409,85.888-15.87c10.398-1.984,21.091-3.303,30.394-9.095
	c6.474-0.501,9.997-5.444,13.838-9.623c2.302-2.504,3.557-5.971,6.943-7.504C221.14,84.403,224.061,86.416,223.833,90.608z"/>
<path fill-rule="evenodd" clip-rule="evenodd" fill="#B42A25" d="M192.731,90.508c-16.222,3.32-32.56,5.44-49.169,4.577
	c-4.182-0.22-8.378-0.461-12.54-0.945c-10.979-1.272-10.979-1.326-12.859-12.062c-0.112-0.687,0.058-1.685-0.34-2.018
	c-9.864-8.213-3.638-18.322-3.353-27.725c0.034-0.923,0.01-1.846,0.01-3.471c5.95,4.444,8.609,11,13.92,15.458
	c18.377,15.456,39.431,19.993,62.644,17.666c2.016-0.202,4.627-2.244,5.824,1.357C195.489,85.73,194.112,88.119,192.731,90.508z"/>
<path fill-rule="evenodd" clip-rule="evenodd" fill="#050606" d="M192.731,90.508c1.38-2.389,2.757-4.777,4.138-7.164
	c8.256-9.677,17.191-17.865,30.428-20.801c8.32-1.846,15.025-8.077,22.971-12.699c-0.149,4.725-3.101,7.657-5.508,10.608
	c-5.777,7.084-12.254,13.344-21.122,16.717c-2.248,0.858-5.848,1.284-5.484,5.275c-3.387,1.533-4.641,5-6.943,7.504
	c-3.842,4.179-7.364,9.121-13.838,9.623C195.183,96.878,193.143,94.113,192.731,90.508z"/>
</svg>
