<?xml version="1.0" encoding="utf-8"?>
<!-- Generator: Adobe Illustrator 16.0.2, SVG Export Plug-In . SVG Version: 6.00 Build 0)  -->
<!DOCTYPE svg PUBLIC "-//W3C//DTD SVG 1.1//EN" "http://www.w3.org/Graphics/SVG/1.1/DTD/svg11.dtd">
<svg version="1.1" id="Layer_1" xmlns="http://www.w3.org/2000/svg" xmlns:xlink="http://www.w3.org/1999/xlink" x="0px" y="0px"
	 width="515px" height="515px" viewBox="0 0 515 515" enable-background="new 0 0 515 515" xml:space="preserve">
<g>
	<path fill-rule="evenodd" clip-rule="evenodd" fill="#B42A25" d="M111.921,64.72c0.007-0.441,0.015-0.878,0.022-1.316
		c0.051-0.118,0.11-0.239,0.169-0.36c-0.081,0.085-0.162,0.166-0.243,0.247c-3.506-7.126-5.682-14.734-8.247-22.225
		c-3.036-8.883-6.755-17.531-10.048-26.33c-1.75-4.683,0.448-8.284,5.461-8.623c2.742-0.184,4.712-1.97,7.365-2.495
		c3.867-0.769,7.645-0.515,11.423-0.614c3.381-0.088,6.542,1.683,9.806,2.532c5.226,1.36,10.306,3.965,13.907,7.938
		c4.734,5.219,10.585,9.56,13.731,16.138c2.073,4.337,4.036,8.732,6.233,13.003c5.586,10.857,6.939,22.434,6.476,34.452
		c-0.382,10-1.984,19.762-6.682,28.583c-3.83,7.192-7.446,14.889-15.51,18.714c-0.779-0.114-1.293-0.603-1.705-1.224
		c-8.049-12.11-14.966-24.952-23.625-36.676c-0.882-1.202-1.881-3.933-1.565-4.153c3.028-2.109,0.728-4.219,0.287-6.288
		c-0.647-3.021-4.08-4.789-3.624-8.505C115.663,66.682,114.126,64.407,111.921,64.72z"/>
	<g>
		<path fill-rule="evenodd" clip-rule="evenodd" d="M417.536,486.391c-1.5,0.015-4.175,0-4.131-2.411
			c0.044-2.624-1.294-2.433-3.103-2.72c-10.077-1.609-10.1-1.69-12.011-8.916c-1.896-7.188-2.352-7.601-9.901-7.38
			c-2.337,0.073-4.527-1.609-6.909-0.471c-2.043-4.183-5.108-2.808-8.181-1.536c-0.243,0.104-0.787-0.021-0.904-0.221
			c-1.478-2.308-3.528-2.241-5.933-1.866c-1.389,0.213-2.778-0.596-3.469-2.132c-1.331-2.97-3.595-3.653-6.557-2.58
			c-3.528,1.278-6.579,0.448-9.372-1.978c-0.875-0.765-1.89-2.109-3.036-1.757c-4.866,1.521-7.667-1.955-10.731-4.396
			c-2.323-1.845-5.396-4.051-5.043-7.174c0.309-2.69-0.544-3.396-2.499-4.19c-2.213-0.904-4.668-1.58-6.49-3.028
			c-3.896-3.087-9.505-4.793-9.328-11.533c0.037-1.389-0.802-2.653,0.265-4.197c0.984-1.418,0.411-3.072-0.684-4.337
			c-6.91-7.96-14.701-14.921-23.706-20.449c-0.955-0.588-1.955-1.124-2.352-2.124c-2.889-7.226-7.844-13.253-11.556-19.986
			c-4.704-8.534-7.343-18.009-11.121-26.984c-1.801-4.263-3.977-8.254-3.734-13.318c0.897-18.604,0.779-37.224-0.485-55.813
			c-0.066-0.934-0.331-1.918,0.397-2.778c2.065-2.447,1.323-4.888,0.441-7.674c-1.683-5.31-0.206-7.106,5.336-7.492
			c0.36-0.026,0.721-0.026,1.088-0.033c3.433-0.081,5.388-1.764,5.667-5.248c0.14-1.831,0.839-3.492,1.412-5.212
			c2.374-7.093,5.909-13.701,8.438-20.75c3.102-8.652,2.668-18.163,6.828-26.521c0.508-1.025,0.294-2.326-0.654-3.37
			c-1.933-2.139-3.572-4.583-5.682-6.516c-6.836-6.263-13.805-12.378-20.766-18.501c-3.874-3.403-7.02-7.608-11.349-10.493
			c-5.969-3.98-12.07-7.442-19.354-2.893c-0.382,0.243-0.934,0.379-1.382,0.334c-4.572-0.43-9.129,0.055-13.694,0.191
			c-3.249,0.095-5.432-2.103-5.351-5.704c0.066-2.815,1.911-4.245,4.697-4.447c0.963-0.07,1.926-0.169,2.881-0.305
			c3.859-0.551,4.999-2.411,4.33-6.266c-0.537-3.05-1.926-6.373-1.485-9.067c0.684-4.127-1.44-5.491-4.05-6.972
			c-2.242-1.275-3.308-3.021-3.97-5.524c-2.492-9.471-6.674-12.309-16.546-12.713c-10.622-0.434-22.287,10.056-21.831,20.222
			c0.242,5.406,1.602,10.949,0.051,16.403l-0.007,0.018c-2.83,1.044-5.292,2.375-4.778,6.053c0,0.743,0,1.481-0.007,2.22
			c-0.72,3.943,1.801,5.318,4.925,6.211c-0.037,0.213,0.051,0.331,0.272,0.349c-0.463,0.563,1.257,2.128-0.882,1.915
			c-2.132-1.878-4.264-3.76-6.388-5.638c-1.713-2.172-3.418-4.34-5.124-6.512c-4.66-5.961-7.645-12.989-12.114-19.104
			c-1.404-1.926-3.749-3.892-2.852-6.942c-0.787-0.114-1.301-0.603-1.712-1.224c-8.042-12.11-14.958-24.951-23.618-36.675
			c-0.882-1.202-1.882-3.933-1.573-4.153c3.028-2.109,0.728-4.223,0.287-6.292c-0.647-3.021-4.08-4.785-3.617-8.501
			c0.103-0.838-1.426-3.113-3.631-2.801c-2.771,0.805-3.55,2.396-3.168,5.407c0.397,3.102,0.529,6.369-0.867,9.5
			c-1.007,2.249-0.037,4.282,2.065,5.572c6.314,3.859,8.887,10.213,11.188,16.726c4.322,12.235,8.688,24.437,15.627,35.525
			c2.411,3.848,4.807,7.751,6.726,11.853c3.124,6.664,6.763,13.015,10.563,19.292c0.125,0.265,0.257,0.533,0.382,0.797
			c1.154,2.109,2.146,4.333,3.499,6.307c2.845,4.171,6.219,7.873,9.696,11.57c5.204,5.539,9.725,11.636,13.877,18.196
			c4.594,7.263,10.482,13.974,16.017,20.754c4.521,5.546,5.035,11.096,1.198,17.002c-1.698,2.613-3.602,5.182-4.778,8.034
			c-5.336,13.003-7.593,26.593-7.329,40.646c0.191,10.145,1.786,20.186,1.735,30.373c-0.088,18.854-1.934,37.708-0.066,56.563
			c0.11,1.103-0.162,2.124-0.537,3.176c-2.109,5.939-4.881,11.555-8.688,16.561c-5.255,6.895-10.401,13.849-14.804,21.331
			c-0.838,0.765-1.279,1.742-1.492,2.838c-2.058,3.109-0.772,4.8,4.337,5.696c0.265,0.279,0.521,0.566,0.786,0.846
			c-0.228,4.168-2.308,7.542-4.792,10.65c-1.712,2.161-3.411,4.301-4.689,6.741c-3.183,2.925-4.124,6.27-2.874,10.592
			c0.551,1.911,0.75,3.433,2.911,3.852c0.654,0.309,1.301,0.625,1.955,0.941c0.191,0.419,0.485,0.595,0.934,0.411
			c0.471,0.022,0.941,0.044,1.404,0.066c4.535-0.661,8.063,2.837,12.4,3.006c4.102,0.625,8.357,0.816,11.166,4.631
			c0.382,0.529,1.22,1.066,1.823,1.037c5.41-0.213,9.96,2.926,15.017,4.108c8.277,1.94,16.282,0.698,24.382,1.022
			c1.882,0.073,3.462-1.75,5.542-1.221c5.939,1.515,11.989-0.684,17.965,0.492c0.86,0.17,1.86-0.565,2.801-0.588
			c4.675-0.117,9.158,0.912,13.37,2.882c1.427,0.669,2.169,2.036,2.36,3.808c0.301,2.852,0.713,5.667,0.132,8.52
			c-0.448,2.212,0.404,3.418,2.69,3.785c2.007,0.323,4.006,0.617,5.998,1.221c5.498,1.683,11.173,2.639,16.943,2.014
			c1.69-0.184,3.358-0.471,5.027-0.235c3.683,0.515,4.249,2.073,1.97,4.998c-0.765,0.978-2.176,1.779-1.301,3.389
			c1.161,2.146,10.195,6.329,12.459,5.308c3.271-1.478,6.102-3.374,8.601,1.161c0.565,1.015,2.639,1.029,4.108,0.757
			c1.896-0.353,3.771-0.809,5.653-1.19c0.934-0.191,2.396-0.801,2.734-0.427c3.264,3.668,7.924,3.228,11.871,4.72
			c6.277,2.366,11.209,2.051,16.098-1.794c2.859-2.249,5.55-2.367,8.718-1.132c2.661,1.036,5.146,1.036,7.857-0.654
			c2.125-1.323,4.749-3.051,7.601-0.536c0.794,0.698,2.559,0.434,3.866,0.382c6.858-0.25,13.548-1.353,20.185-3.271
			c5.484-1.581,8.77-4.132,9.505-9.292c0.309-2.146,0.596-4.271,1.088-6.38C421.233,488.31,421.123,486.354,417.536,486.391z
			 M183.905,168.756c-0.404,0.162-1.139,0.353-1.286,0.173c-1.713-2.073-4.616-2.955-5.719-5.623
			c-0.044-0.007-0.096-0.019-0.14-0.026c-0.074-0.029-0.14-0.059-0.213-0.092c-0.169,0-0.338,0-0.507-0.004
			c0.059-0.048,0.132-0.15,0.162-0.14c0.118,0.041,0.235,0.092,0.345,0.144c0.103,0.003,0.206,0.003,0.301,0.003
			c0.015,0.041,0.037,0.074,0.052,0.114c0.382,0.066,0.764,0.14,1.139,0.217c1.963,1.58,3.572,0.735,5.087-0.75
			c1.83-0.452,3.844,0.209,5.689-1.113C189.198,165.617,187.007,167.518,183.905,168.756z M249.789,240.887
			c-1.021-3.826-0.779-7.887-1.573-11.57c-1.338-6.16-0.699-12.492-2.418-18.52c-1.015-3.546-1.264-7.097-0.735-10.746
			c0.86-5.936,0.926-11.791-2.153-17.249c-0.162-0.29-0.155-0.694-0.155-1.047c0-0.338,0.103-0.676,0.177-1.125
			c5.116,4.679,9.997,9.475,15.252,13.823c2.654,2.19,5.933,3.639,9.012,5.274c1.258,0.669,1.588,1.478,1.617,2.837
			c0.272,13.625-1.801,26.925-5.16,40.086c-0.874,3.407-2.609,4.451-6.108,4.318C251.362,246.738,251.42,246.977,249.789,240.887z
			 M384.414,474.505c1.081-0.029,2.176-0.257,3.257-0.279C386.59,474.248,385.495,474.476,384.414,474.505z M393,478.555
			L393,478.555l-0.073,0.074L393,478.555z M388.626,474.219c2.021,0.389,3.19,1.639,3.661,3.608c0.117,0.125,0.235,0.243,0.353,0.36
			c-0.117-0.117-0.235-0.235-0.36-0.36C391.816,475.857,390.647,474.607,388.626,474.219c-0.169-0.302-0.323-0.787-0.499-1.022
			C388.303,473.432,388.457,473.917,388.626,474.219z M396.778,483.406c-0.074,0.191-0.162,0.39-0.279,0.588
			C396.616,483.796,396.704,483.598,396.778,483.406z"/>
	</g>
</g>
</svg>
