<?xml version="1.0" encoding="utf-8"?>
<!-- Generator: Adobe Illustrator 16.0.2, SVG Export Plug-In . SVG Version: 6.00 Build 0)  -->
<!DOCTYPE svg PUBLIC "-//W3C//DTD SVG 1.1//EN" "http://www.w3.org/Graphics/SVG/1.1/DTD/svg11.dtd">
<svg version="1.1" id="Layer_1" xmlns="http://www.w3.org/2000/svg" xmlns:xlink="http://www.w3.org/1999/xlink" x="0px" y="0px"
	 width="515px" height="515px" viewBox="0 0 515 515" enable-background="new 0 0 515 515" xml:space="preserve">
<g>
	<path fill="#100A08" d="M144.025,418.693c3.733,1.917,5.739,5.132,7.072,8.938c1.629,4.669,1.914,9.561,2.543,14.394
		c0.873,6.773,1.906,13.627,7.343,18.376c4.596,4.019,9.25,8.059,14.514,11.248c5.21,3.156,7.595,2.846,11.986-1.461
		c1.987-1.951,4.23-3.391,7.08-3.076c5.18,0.573,9.607,2.955,13.575,6.225c1.618,1.334,0.811,2.306-0.673,2.904
		c-1.402,0.556-2.886,0.877-4.303,1.396c-1.783,0.636-2.002,1.647-0.49,2.864c0.69,0.556,1.418,1.074,2.178,1.513
		c4.866,2.791,10.071,4.818,15.271,6.854c3.726,1.465,6.246,0.76,8.772-2.415c0.718-0.898,1.319-1.896,1.999-2.831
		c0.42-0.581,0.915-1.082,1.717-1.097c3.605-0.08,6.868,4.442,5.658,7.858c-1.087,3.065-3.083,5.571-4.955,8.169
		c-1.095,1.516-2.354,2.407-4.272,2.787c-3.403,0.68-6.728,1.812-9.38,4.19c-1.454,1.304-4.391,2.349-3.851,4.124
		c0.468,1.534,3.544,1.352,5.554,1.647c2.447,0.358,4.909,0.614,7.377,0.841c0.285,0.018,0.57,0.032,0.855,0.055
		c4.122,0.227,8.272,0.606,12.392,0.909c1.56,0.121,3.165,0.296,4.754,0.34c0.537-0.065,1.078-0.132,1.604-0.204
		c2.749-1.513,4.278-3.938,5.693-6.438c1.449-2.546,2.822-5.144,4.089-7.781c0.634-1.315,1.152-1.293,2.125-0.372
		c2.239,2.126,2.827,4.804,2.911,7.74c0.053,1.903-1.429,4.497,0.077,5.487c1.417,0.932,3.958,0.161,6.004,0.136
		c0.087,0,0.179-0.022,0.265-0.008c1.357,0.19,1.478-0.372,1.454-1.666c-0.101-5.348,0.405-10.667,2.489-15.657
		c1.047-2.51,1.282-4.946,0.53-7.511c-0.507-1.731-1.069-3.449-1.683-5.414c5.88,1.849,10.806,4.932,15.652,8.212
		c1.775,1.198,3.694,3.296,5.933,2.01c2.091-1.202,1.682-3.916,1.815-6.094c0.374-6.01-1.945-11.489-3.416-17.141
		c-0.867-3.332,0.061-4.764,3.427-4.99c3.381-0.233,6.746,0.223,10.102,0.632c0.873,0.106,1.159,0.559,1.302,1.362
		c1.275,7.168,2.843,14.328,2.013,21.664c-0.506,4.482-1.53,8.913-2.188,13.385c-0.195,1.341-0.47,2.956,1.157,3.777
		c1.454,0.745,2.583-0.271,3.626-1.001c10.429-7.339,16.286-17.053,15.627-30.171c-0.17-3.372-0.086-6.759-0.104-10.146
		c-0.005-1.06,0.101-2.101,0.482-3.131c0.867-2.334,2.065-2.699,3.855-0.953c1.695,1.658,2.616,3.792,3.158,6.064
		c0.518,2.166,0.938,4.354,1.477,6.894c0.513-0.688,0.765-1.034,1.026-1.374c4.46-5.841,4.442-5.834,0.643-12.205
		c-2.183-3.653-4.898-7.361-4.813-11.661c0.086-4.216-1.907-6.543-4.879-8.676c-0.069-0.052-0.141-0.113-0.193-0.18
		c-0.934-1.117-2.763-1.95-2.129-3.66c0.537-1.45,2.306-1.498,3.712-1.637c3.98-0.387,7.964-0.942,11.955-0.993
		c8.012-0.11,13.157-3.807,15.764-11.388c1.226-3.568,2.283-7.229,4.174-10.546v-0.534c-5.789,1.345-11.561,2.759-17.369,4.008
		c-3.655,0.789-7.494,1.633-11.011-0.048c-8.022-3.832-13.9-10.188-18.01-17.846c-2.583-4.811-2.19-10.594-2.106-15.993
		c0.354-22.164,3.231-44.156,4.934-66.232c1.516-19.705,2.852-39.414,0.888-59.17c-0.978-9.827-2.336-19.577-6.556-28.655
		c-3.173-6.833-7.142-13.296-9.647-20.441c-1.705-4.857-3.582-9.69-0.904-14.848c0.772-1.483,1.274-3.113,1.862-4.688
		c6.964-18.609,14.122-37.156,19.184-56.397c2.904-11.051,6.304-22.149,1.262-33.6c-2.208-5.012-2.948-10.607-5.817-15.382
		c-2.027-3.377-4.059-4.145-7.836-3.176c-1.807,0.464-3.624,0.891-5.451,1.251c-1.256,0.249-2.613,0.28-3.412-0.911
		c-3.008-4.484-5.339-9.285-6.674-14.569c1.05-0.192,0.934,1.145,1.788,0.999c0.431-4.008,0.898-4.364,4.742-3.686
		c0.523,0.095,1.064,0.159,1.595,0.151c0.867-0.016,2.195,0.163,2.271-0.868c0.269-3.536,2.558-6.433,2.902-9.911l-0.005,0.003
		c0.004-0.003,0.004-0.005,0.004-0.009c-1.676-0.166-2.271,1.427-3.355,2.167c-4.157,2.838-4.362,2.862-6.478-1.635
		c-0.44,0.544-0.84,1.039-1.259,1.558c-0.988-1.306-0.523-2.714-0.741-4.004c-0.088-0.5-0.075-1.193-0.751-1.202
		c-0.356-0.007-0.781,0.369-1.063,0.676c-0.356,0.383-0.564,0.904-0.899,1.315c-1.677,2.077-3.339,4.197-5.91,5.229
		c-0.61,0.243-1.481,0.301-2.059,0.049c-0.768-0.34-0.197-1.065-0.019-1.62c0.42-1.302,1.578-3.229,1.114-3.768
		c-0.829-0.968-2.663-0.168-4.059-0.285c-1.149-0.095-2.73-0.754-1.421-2.104c1.558-1.611,2.668-3.761,5.014-4.636
		c1.078-0.402,2.898-0.563,2.91-1.894c0.013-1.341-1.84-0.998-2.817-1.5c-1.711-0.886-3.008-2.187-3.032-4.064
		c-0.025-1.729,1.664-2.347,3.044-2.968c1.618-0.729,3.242-1.448,4.896-2.091c0.554-0.214,1.233-0.338,1.803-0.228
		c1.334,0.257,1.058,1.717,1.681,2.497c1.142,1.425,1.277-1.604,2.407-0.639c0.066,0.057,0.103,0.145,0.148,0.223
		c1.05,1.789,1.679,0.413,2.292-0.349c1.226-1.521,2.354-3.118,3.577-4.642c0.809-1.01,2.007-2,3.161-1.238
		c1.129,0.742,0.72,2.254,0.203,3.421c-1.335,3.039-1.352,3.074,1.897,3.187c0.979,0.033,1.708,0.25,2.218,1.125
		c0.613,1.063-0.161,1.693-0.734,2.307c-1.733,1.867-2.91,4.257-5.397,5.428c-1.03,0.486-1.37,1.606-0.143,2.296
		c2.939,1.653,4.115,4.11,3.771,7.388c0.001,0.002,0.001,0,0.001,0.002c0,0,0,0.002,0,0.004c1.858-0.55,3.699-1.16,5.581-1.633
		c1.686-0.425,1.751-1.277,0.791-2.46c-1.409-1.75-2.313-3.768-3.239-5.788c-1.6-3.489-1.639-3.476,1.469-5.615
		c2.4-1.651,2.7-3.627,0.743-5.752c-2.779-3.014-5.899-5.659-9.308-7.942c-1.07-0.718-2.293-1.695-3.37,0.073
		c-0.187,0.307-0.506,0.712-0.654,0.084c-0.566-2.384-1.262-0.47-1.688-0.011c-1.068,1.166-2.013,2.446-3.087,3.777
		c-2.612-3.302-6.012-5.647-9.766-7.577c-8.727-4.493-17.072-4.608-25.208,1.56c-4.932,3.739-9.1,8.159-13.183,12.755
		c-3.043,3.421-3.717,7.323-3.551,11.594c0.063,1.6,0.088,3.214,0.319,4.794c0.642,4.384,1.042,8.872,4.505,12.244
		c0.645,0.632,0.791,1.562,0.829,2.468c0.124,2.921-0.161,5.796-0.736,8.925c-3.68-2.968-7.204-5.757-10.669-8.62
		c-5.485-4.53-11.126-8.914-15.477-14.631c-2.491-3.275-5.049-6.717-3.817-11.148c1.081-3.894,0.628-7.516-0.669-11.201
		c-0.738-2.084-1.213-4.267-1.973-6.345c-0.504-1.405-0.08-4.185-1.49-3.98c-1.958,0.285-1.666,2.994-1.926,4.795
		c-0.12,0.851-0.095,1.731,0.325,2.599c0.256,0.542,0.308,1.332-0.299,1.901c-0.973-0.423-1.023-1.26-1.221-1.998
		c-0.848-3.186-0.189-6.084,1.381-8.95c1.188-2.159,2.491-4.424,1.531-7.75c-2.795,4.59-5.886,8.316-7.479,12.975
		c0.004-2.678,0.248-5.211,2.134-7.345c1.585-1.799,2.827-3.867,3.828-6.057c0.497-1.08,1.06-2.192,0.358-3.56
		c-1.984,0.966-2.747,3-4.238,4.344c-0.317-0.734,0.212-1.542-0.628-2.119c-4.311,3.354-6.722,7.73-7.504,13.192
		c-0.764-0.608-0.321-1.706-1.176-1.763c-0.914-0.062-0.965,0.912-1.265,1.474c-2.13,4.048-3.536,8.426-3.931,12.907
		c-0.873,9.988-4.084,19.161-8.402,28.095c-2.97,6.146-5.874,12.357-8.008,18.854c-2.652,8.092-5.275,16.213-4.019,24.984
		c0.377,2.634,1.527,3.777,4.11,4.585c10.364,3.238,21.134,2.479,31.702,3.649c8.56,0.944,17.139,1.773,25.352,4.606
		c6.904,2.38,7.669,4.026,4.508,10.494c-2.742,5.615-2.562,10.943,0.986,16.105c1.054,1.536,2.046,3.144,3.297,4.51
		c1.543,1.684,2.018,3.605,2.281,5.785c0.776,6.455,0.944,12.947,1.284,19.426c0.646,12.463,0.72,24.8-4.291,36.702
		c-3.085,7.328-5.582,14.951-7.731,22.613c-5.334,18.962-9.327,38.254-13.444,57.507c-4.084,19.091-7.854,38.248-11.387,57.449
		c-1.158,6.306-2.51,12.49-5.578,18.223c-6.495,12.157-15.902,21.766-26.361,30.464c-2.111,1.757-4.128,3.938-6.591,4.902
		c-4.347,1.702-8.997,2.641-13.534,3.847c-0.669,0.179-1.597-0.015-1.802,0.811c-0.175,0.709,0.604,0.986,1.147,1.279
		c0.61,0.325,1.001,0.833,0.774,1.505c-0.227,0.694-0.734,1.205-1.549,1.293c-0.972,0.095-1.939,0.201-2.908,0.344
		c-0.479,0.065-1.421,0.197-0.942,0.796c1.041,1.294,0.022,1.25-0.727,1.469c-2.715,0.804-5.483,1.454-8.048,2.692
		c-1.353,0.654-2.956,1.202-3.135,2.948C141.157,417.254,142.703,418.014,144.025,418.693z M232.823,88.65
		c-9.006,0.869-17.978,2.343-27.074,1.975c-4.176,0-8.351-0.084-12.522,0.04c-1.739,0.055-2.102-0.356-1.651-2.057
		c2.974-11.303,5.786-22.653,9.217-33.827c0.752-2.455,1.753-4.855,3.558-6.756c1.213-1.275,2.759-2.123,3.905-0.037
		c4.106,7.439,10.01,13.542,14.938,20.368c3.941,5.459,8.356,10.598,11.531,16.58C236.447,88.183,236.35,88.311,232.823,88.65z
		 M261.681,82.495c-4.146-2.76-7.825-5.957-11.226-9.584c1.352,0.48,2.415-2.059,3.783-0.279
		C256.742,75.899,259.202,79.203,261.681,82.495z M275.141,83.234c-2.319,0.407-4.628,0.858-6.938,1.295
		c-0.033-0.193-0.068-0.38-0.099-0.57c1.933-0.966,3.863-1.941,5.805-2.895c1.014-0.502,1.708-0.077,2.063,0.884
		C276.231,82.645,275.938,83.096,275.141,83.234z M157.217,436.313c0.727-5.217-0.26-10.481,0.888-15.688
		c0.573-2.586,1.662-3.368,4.128-3.28c2.886,0.109,3.083-0.271,2.455-3.047c0.164-0.153,0.325-0.307,0.489-0.453
		c0.358-1.234-0.475-2.557,0.106-3.952c0.397,0.277,0.632,0.391,0.8,0.563c3.35,3.438,4.961,7.938,7.233,12.026
		c1.527,2.739,3.471,4.164,6.616,3.865c1.15-0.103,2.312-0.096,3.452-0.264c4.921-0.73,9.834-1.534,14.751-2.25
		c1.009-0.146,2.382-0.541,2.872,0.665c0.438,1.074-0.87,1.567-1.521,2.25c-1.797,1.885-4.044,3.135-6.188,4.563
		c-2.414,1.611-2.345,3.08,0.008,4.775c1.23,0.877,2.323,1.881,3.427,2.926c4.822,4.556,10.222,7.938,17.225,7.727
		c4.132-0.124,6.09-1.87,6.55-5.885c0.161-1.41,0.435-2.81,0.694-4.205c0.149-0.789,0.274-1.819,1.125-1.966
		c1.045-0.183,1.389,0.862,1.798,1.655c1.87,3.653,3.272,7.397,3.715,11.555c0.484,4.545,3.851,6.558,8.266,5.261
		c2.9-0.848,5.631-2.09,8.245-3.657c4.658-2.791,9.116-5.837,13.257-9.341c1.401-1.184,2.589-1.446,3.662,0.453
		c0.492,0.877,1.511,1.315,2.127,0.219c1.885-3.346,4.128-4.793,7.54-1.914c0.055,0.052,0.171,0.029,0.257,0.052
		c5.116,1.308,9.839,3.354,13.543,7.276c1.03,1.089,2.239,0.986,3.442,0.497c1.292-0.519,1.483-1.563,1.257-2.86
		c-0.332-1.896,0.19-2.955,2.408-3.569c3.812-1.06,7.236-2.813,7.895-7.551c0.221-1.574,1.658-2.751,3.651-1.827
		c1.079,0.508,2.727,1.107,3.15-0.011c1.178-3.127,3.643-2.214,5.779-2.294c5.231-0.187,7.523-1.783,9.277-6.722
		c0.592-1.674,1.087-3.383,1.777-5.546c0.372,4.841,0.122,9.118-2.097,13.027c-1.922,3.387-4.476,4.73-7.959,3.456
		c-3.465-1.271-5.58-0.388-8.069,2.13c-5.029,5.081-9.212,10.656-12.263,17.101c-0.617,1.314-1.62,1.998-2.946,1.23
		c-1.81-1.056-1.985,0.113-2.091,1.366c-0.075,0.881,0.009,1.779,0.071,2.664c0.153,2.206-0.34,3.642-3.069,3.327
		c-2.023-0.237-3.313,0.493-2.511,2.934c0.315,0.961,0.779,2.024-0.526,2.799c-1.188,0.701-2.34,0.869-3.504,0.091
		c-0.878-0.584-1.692-1.274-2.544-1.903c-2.749-2.038-5.24-4.668-8.862-4.961c-1.626-0.131-2.934-0.68-4.134-1.534
		c-2.594-1.849-3.611-1.91-5.445,0.629c-0.946,1.308-1.856,1.088-2.904,0.643c-3.089-1.322-4.66-0.563-5.708,2.831
		c-0.283,0.917-1.054,1.418-1.803,1.889c-1.735,1.081-3.444,2.229-5.259,3.156c-4.646,2.39-9.188,5.097-14.757,4.734
		c-3.746-0.24-5.58-1.607-6.106-5.333c-0.482-3.383-1.417-6.591-3.003-9.611c-0.617-1.17-1.074-2.934-2.557-2.715
		c-1.691,0.248-1.133,2.111-1.271,3.368c-0.734,6.642-3.672,9.243-9.732,8.549c-0.869-0.103-1.71-0.453-2.564-0.673
		c-6.422-1.61-10.879-6.159-15.504-10.433c-2.558-2.354-2.47-2.564,0.599-4.45c2.339-1.442,4.677-2.894,6.547-4.968
		c0.464-0.512,1.249-0.95,0.738-1.75c-0.453-0.713-1.265-0.486-1.955-0.307c-1.114,0.288-2.221,0.624-3.335,0.916
		c-5.805,1.527-11.515,3.708-17.51,0.311c-3.233-1.826-7.065-2.359-10.382-4.124C159.062,439.742,156.928,438.395,157.217,436.313z"
		/>
	<path fill-rule="evenodd" clip-rule="evenodd" fill="#DB211F" d="M164.688,414.298c0.628,2.776,0.431,3.156-2.455,3.047
		c-2.466-0.088-3.555,0.694-4.128,3.28c-1.147,5.206-0.161,10.471-0.888,15.688c-0.289,2.082,1.845,3.43,3.741,4.435
		c3.316,1.765,7.148,2.298,10.382,4.124c5.995,3.397,11.705,1.217,17.51-0.311c1.114-0.292,2.221-0.628,3.335-0.916
		c0.69-0.18,1.502-0.406,1.955,0.307c0.511,0.8-0.274,1.238-0.738,1.75c-1.87,2.074-4.208,3.525-6.547,4.968
		c-3.068,1.886-3.156,2.097-0.599,4.45c4.625,4.273,9.082,8.822,15.504,10.433c0.854,0.22,1.695,0.57,2.564,0.673
		c6.061,0.694,8.998-1.907,9.732-8.549c0.139-1.257-0.42-3.12,1.271-3.368c1.482-0.219,1.939,1.545,2.557,2.715
		c1.586,3.021,2.521,6.229,3.003,9.611c0.526,3.726,2.36,5.093,6.106,5.333c5.569,0.362,10.11-2.345,14.757-4.734
		c1.814-0.928,3.524-2.075,5.259-3.156c0.749-0.471,1.52-0.972,1.803-1.889c1.048-3.394,2.619-4.153,5.708-2.831
		c1.048,0.445,1.958,0.665,2.904-0.643c1.833-2.539,2.851-2.478,5.445-0.629c1.2,0.854,2.508,1.403,4.134,1.534
		c3.622,0.293,6.113,2.923,8.862,4.961c0.852,0.629,1.666,1.319,2.544,1.903c1.164,0.778,2.316,0.61,3.504-0.091
		c1.306-0.774,0.842-1.838,0.526-2.799c-0.803-2.44,0.487-3.171,2.511-2.934c2.729,0.314,3.223-1.121,3.069-3.327
		c-0.063-0.885-0.146-1.783-0.071-2.664c0.105-1.253,0.281-2.422,2.091-1.366c1.326,0.768,2.329,0.084,2.946-1.23
		c3.051-6.444,7.233-12.02,12.263-17.101c2.489-2.518,4.604-3.401,8.069-2.13c3.483,1.274,6.037-0.069,7.959-3.456
		c2.219-3.909,2.469-8.187,2.097-13.027c-0.69,2.163-1.186,3.872-1.777,5.546c-1.754,4.938-4.046,6.535-9.277,6.722
		c-2.137,0.08-4.602-0.833-5.779,2.294c-0.424,1.118-2.071,0.519-3.15,0.011c-1.993-0.924-3.431,0.253-3.651,1.827
		c-0.658,4.738-4.083,6.491-7.895,7.551c-2.218,0.614-2.74,1.673-2.408,3.569c0.227,1.297,0.035,2.342-1.257,2.86
		c-1.203,0.489-2.412,0.592-3.442-0.497c-3.704-3.923-8.427-5.969-13.543-7.276c-0.086-0.022-0.202,0-0.257-0.052
		c-3.412-2.879-5.655-1.432-7.54,1.914c-0.616,1.097-1.635,0.658-2.127-0.219c-1.072-1.899-2.261-1.637-3.662-0.453
		c-4.141,3.504-8.6,6.55-13.257,9.341c-2.614,1.567-5.345,2.81-8.245,3.657c-4.415,1.297-7.781-0.716-8.266-5.261
		c-0.442-4.157-1.845-7.901-3.715-11.555c-0.409-0.793-0.753-1.838-1.798-1.655c-0.851,0.146-0.976,1.177-1.125,1.966
		c-0.26,1.396-0.533,2.795-0.694,4.205c-0.46,4.015-2.418,5.761-6.55,5.885c-7.003,0.212-12.402-3.171-17.225-7.727
		c-1.104-1.045-2.196-2.049-3.427-2.926c-2.353-1.695-2.422-3.164-0.008-4.775c2.145-1.428,4.392-2.678,6.188-4.563
		c0.65-0.683,1.958-1.176,1.521-2.25c-0.49-1.206-1.863-0.812-2.872-0.665c-4.917,0.716-9.83,1.52-14.751,2.25
		c-1.141,0.168-2.302,0.161-3.452,0.264c-3.146,0.299-5.089-1.126-6.616-3.865c-2.272-4.088-3.884-8.589-7.233-12.026
		c-0.168-0.172-0.402-0.285-0.8-0.563c-0.581,1.396,0.252,2.718-0.106,3.952c0.022,0.227,0.161,0.556,0.059,0.661
		C165.02,414.744,164.805,414.562,164.688,414.298z"/>
	<path fill-rule="evenodd" clip-rule="evenodd" fill="#DB211F" d="M308.107,49.269c0.351-3.284-0.826-5.743-3.767-7.397
		c-1.228-0.69-0.888-1.811,0.143-2.296c2.487-1.171,3.664-3.562,5.397-5.428c0.573-0.614,1.348-1.244,0.734-2.307
		c-0.51-0.875-1.238-1.092-2.218-1.125c-3.249-0.113-3.232-0.148-1.897-3.187c0.517-1.167,0.926-2.68-0.203-3.421
		c-1.154-0.762-2.353,0.229-3.161,1.238c-1.223,1.523-2.352,3.12-3.577,4.642c-0.613,0.762-1.242,2.137-2.292,0.349
		c-0.046-0.078-0.082-0.166-0.148-0.223c-1.13-0.964-1.266,2.064-2.407,0.639c-0.623-0.78-0.347-2.239-1.681-2.497
		c-0.569-0.11-1.249,0.014-1.803,0.228c-1.654,0.643-3.278,1.363-4.896,2.091c-1.38,0.621-3.069,1.239-3.044,2.968
		c0.024,1.878,1.321,3.178,3.032,4.064c0.978,0.502,2.83,0.159,2.817,1.5c-0.012,1.332-1.832,1.492-2.91,1.894
		c-2.346,0.875-3.456,3.025-5.014,4.636c-1.31,1.35,0.271,2.009,1.421,2.104c1.396,0.117,3.229-0.683,4.059,0.285
		c0.464,0.539-0.694,2.466-1.114,3.768c-0.179,0.555-0.749,1.28,0.019,1.62c0.577,0.252,1.448,0.194,2.059-0.049
		c2.571-1.032,4.233-3.153,5.91-5.229c0.335-0.411,0.543-0.932,0.899-1.315c0.281-0.307,0.706-0.684,1.063-0.676
		c0.676,0.009,0.663,0.702,0.751,1.202c0.218,1.29-0.247,2.698,0.741,4.004c0.419-0.519,0.818-1.014,1.259-1.558
		c2.115,4.497,2.32,4.473,6.478,1.635c1.087-0.74,1.682-2.334,3.356-2.165L308.107,49.269z"/>
	<path fill-rule="evenodd" clip-rule="evenodd" fill="#100A08" d="M164.688,414.298c0.117,0.264,0.332,0.446,0.548,0.208
		c0.103-0.105-0.036-0.435-0.059-0.661C165.013,413.991,164.852,414.145,164.688,414.298z"/>
</g>
</svg>
