<?xml version="1.0" encoding="utf-8"?>
<!-- Generator: Adobe Illustrator 16.0.2, SVG Export Plug-In . SVG Version: 6.00 Build 0)  -->
<!DOCTYPE svg PUBLIC "-//W3C//DTD SVG 1.1//EN" "http://www.w3.org/Graphics/SVG/1.1/DTD/svg11.dtd">
<svg version="1.1" id="Layer_1" xmlns="http://www.w3.org/2000/svg" xmlns:xlink="http://www.w3.org/1999/xlink" x="0px" y="0px"
	 width="533.709px" height="538.994px" viewBox="0 0 533.709 538.994" enable-background="new 0 0 533.709 538.994"
	 xml:space="preserve">
<g>
	<polygon fill="#B42A25" points="151.652,356.369 173.771,365.006 151.652,356.369 	"/>
	<path fill="#B42A25" d="M294.873,389.699c0.11,0.252,0.238,0.498,0.344,0.752L383.232,354c-0.005-0.01-0.01-0.021-0.015-0.031
		L294.873,389.699z"/>
	<path fill="#B42A25" d="M267.908,125.873c-116.956,0-216.908,72.783-257.054,175.522l140.791,54.973l0.007,0.002l0,0l-3.363-1.313
		l3.608,0.721c18.314-46.16,63.329-78.822,116.011-78.822c51.759,0,96.13,31.518,115.042,76.398l3.922-0.861l-3.654,1.477
		c0.005,0.01,0.01,0.021,0.015,0.031l0.005-0.002l139.617-57.826C481.398,196.2,382.874,125.873,267.908,125.873z"/>
	<path fill="#B42A25" d="M281.604,375.586c-0.656-0.344-1.328-0.664-2.014-0.963l0.203,1.361L281.604,375.586z"/>
	<path fill="#B42A25" d="M253.351,376.059l0.173,0.037l0.017-0.139C253.478,375.992,253.413,376.023,253.351,376.059z"/>
	<polygon fill="#B42A25" points="173.771,365.006 255.886,397.07 255.886,397.07 240.394,391.02 	"/>
	<path fill="#B42A25" d="M148.289,355.057l3.363,1.313c0.079-0.199,0.166-0.395,0.245-0.592L148.289,355.057z"/>
	<path fill="#B42A25" d="M386.872,352.492l-3.922,0.861c0.087,0.207,0.184,0.408,0.268,0.615L386.872,352.492z"/>
	<path d="M383.218,353.969c-0.084-0.207-0.181-0.408-0.268-0.615l-92.929,20.385l44.763-77.359l-58.275,57.42l-11.177-76.817
		l-9.521,80.104l-59.688-57.399l42.486,73.427l-86.711-17.336c-0.079,0.197-0.166,0.393-0.245,0.592l22.119,8.637l66.623,26.014
		l15.492,6.051l12.022,4.693l27.309-11.313c-0.105-0.254-0.233-0.5-0.344-0.752L383.218,353.969z"/>
</g>
</svg>
