<?xml version="1.0" encoding="utf-8"?>
<!-- Generator: Adobe Illustrator 16.0.2, SVG Export Plug-In . SVG Version: 6.00 Build 0)  -->
<!DOCTYPE svg PUBLIC "-//W3C//DTD SVG 1.1//EN" "http://www.w3.org/Graphics/SVG/1.1/DTD/svg11.dtd">
<svg version="1.1" id="Layer_1" xmlns="http://www.w3.org/2000/svg" xmlns:xlink="http://www.w3.org/1999/xlink" x="0px" y="0px"
	 width="533.709px" height="538.994px" viewBox="0 0 533.709 538.994" enable-background="new 0 0 533.709 538.994"
	 xml:space="preserve">
<g>
	<path fill="none" d="M211.311,432.758c-3.85-24.683-5.358-49.608-3.036-74.614c0.141-1.496,0.016-3.013,0.016-4.521
		c-0.44-0.047-0.892-0.099-1.335-0.149c-0.456,1.732-1.084,3.44-1.348,5.2c-4.049,27.135-2.687,54.186,1.882,81.084
		c2.333,13.748,10.028,24.286,21.254,32.146h10.153C223.252,463.902,214.076,450.473,211.311,432.758z"/>
	<path fill="none" d="M278.498,130.357c0.133,0.374,0.263,0.747,0.396,1.116c-0.75,0.699-1.979,1.289-2.164,2.113
		c-0.409,1.783-0.951,4.085-0.153,5.401c0.593,0.978,4.175,1.54,4.701,0.892c1.107-1.371,2.07-4.246,1.344-5.452
		c-2.204-3.672-2.73-6.041,1.764-8.362c1.531-0.793,3.166-4.988,2.784-5.311c-2.533-2.148-4.273,0.334-6.084,1.866
		c-0.102,0.083-0.208,0.192-0.267,0.307c-1.478,2.808-3.323,4.238-6.8,2.898c-0.876-0.338-2.549,1.387-3.854,2.165
		c1.073,0.793,2.043,1.979,3.237,2.27C275.014,130.656,276.789,130.357,278.498,130.357z"/>
	<path fill="none" d="M145.708,91.931c0.306,1.634,2.537,2.911,3.947,4.34c1.343-1.45,3.516-2.773,3.767-4.396
		c0.192-1.261-2.007-2.895-3.861-5.291C147.714,89.005,145.476,90.702,145.708,91.931z"/>
	<path fill="none" d="M174.137,390.879c-0.243-4.497-0.777-9.019-1.712-13.414c-0.463-2.195-2.137-4.128-3.264-6.182
		c-0.432,0.196-0.868,0.4-1.3,0.597c-0.515,18.049-0.786,36.105-1.611,54.134c-0.703,15.508-2.961,30.822-6.807,45.89h2.812
		c2.746-7.451,5.491-14.906,8.233-22.342c1.795,9.647,3.417,16.922,5.059,22.342h4.753c-1.222-4.941-2.357-9.886-2.722-14.887
		C175.964,435.005,175.304,412.927,174.137,390.879z"/>
	<path fill="none" d="M359.389,159.192c-2.098-1.662-4.234-1.296-5.888,0.88c2.455,1.771,4.765,3.441,7.42,5.354
		C362.79,162.759,361.337,160.732,359.389,159.192z"/>
	<path fill="none" d="M324.01,140.244l-5.495,0.456c-0.012,0.369-0.027,0.738-0.039,1.104c1.524,1.202,3.048,2.404,5.534,4.368
		V140.244z"/>
	<path fill="none" d="M315.911,431.14c1.111,9.011,2.808,17.947,4.262,26.91c0.597,0.031,1.193,0.063,1.795,0.091
		c0.113-1.909,0.562-3.873,0.274-5.716c-0.589-3.774-1.366-7.549-2.435-11.214c-2.188-7.471-2.809-14.553,3.559-20.512
		c0.42-0.389,0.526-1.111,1.064-2.325c-1.34,0.437-2.125,0.542-2.754,0.915C317.152,421.957,315.313,426.266,315.911,431.14z"/>
	<path fill="none" d="M157.44,88.113c-0.22,1.111,2.102,3.704,3.531,3.904c1.512,0.212,3.311-1.626,4.988-2.573
		c0.031-0.601,0.067-1.202,0.098-1.807c-1.524-1.209-3.115-3.453-4.548-3.354C159.981,84.39,157.754,86.538,157.44,88.113z"/>
	<path fill="none" d="M320.954,213.409c4.891,0.377,7.404-1.854,9.125-4.498c5.962-9.156,11.622-18.508,17.719-28.301
		c-4.981,1.623-7.039,5.487-9.137,9.141C333.881,198.083,330.581,207.435,320.954,213.409z"/>
	<path fill="none" d="M334.926,174.955c-8.48-1.352-16.458,5.499-25.677,0.255C314.115,182.025,331.826,181.271,334.926,174.955z"/>
	<path fill="none" d="M371.121,463.494c-6.842-5.032-13.735-9.997-20.578-15.021c-12.758-9.372-17.424-21.804-9.561-37.39
		c2.09-4.151,4.289-8.315,5.742-12.703c0.994-2.996,0.786-6.391,1.112-9.607c-0.562-0.109-1.124-0.22-1.686-0.334
		c-0.483,1.183-0.978,2.357-1.441,3.547c-2.313,5.951-5.982,7.126-10.452,2.558c-3.877-3.968-6.874-8.807-10.232-13.276
		c-0.734-0.979-1.354-2.035-2.03-3.056c-0.483,0.216-0.962,0.432-1.441,0.651c0.608,2.039,0.82,4.321,1.897,6.077
		c4.646,7.601,10.314,14.069,20.33,15.401c-1.308,2.137-2.321,3.888-3.421,5.589c-7.562,11.709-7.789,23.493,0.255,34.942
		c3.072,4.372,4.446,8.614,2.915,13.76c-0.429,1.438-0.86,2.97-0.802,4.431c0.126,3.225,0.06,6.595,1.021,9.607
		c0.357,1.119,0.86,2.195,1.418,3.232h24.274c0.884-0.361,1.736-0.773,2.533-1.261C375.245,468.047,375.179,466.476,371.121,463.494
		z"/>
	<path fill="none" d="M173.776,140.782c-1.111,1.622-3.236,3.366-3.06,4.832c0.188,1.536,2.581,2.804,4.01,4.195
		c1.3-1.343,3.598-2.655,3.645-4.038c0.051-1.622-1.858-3.307-2.915-4.965C174.899,140.798,174.338,140.79,173.776,140.782z"/>
	<path fill="none" d="M167.719,346.568c0.016,1.418,1.202,2.824,1.846,4.238c1.512-0.927,3.559-1.524,4.399-2.867
		c0.931-1.493,1.057-3.677,1.025-5.55c-0.244-13.843-0.311-27.696-1.061-41.511c-0.417-7.753-1.74-15.499-3.213-23.143
		c-0.837-4.353-2.714-5.483-6.957-5.982c4.128,9.152,7.549,18.284,5.951,29.49c-2.624-6.873-4.344-13.351-11.642-15.279
		c6.081,8.685,9.128,18.32,9.596,28.563C168.147,325.185,167.609,335.889,167.719,346.568z"/>
	<path fill="none" d="M375.245,446.094c0.452-0.405,0.912-0.81,1.371-1.218c-5.864-4.737-7.035-11.481-8.512-18.159
		c-0.522-2.353-1.575-4.678-2.82-6.752c-0.68-1.119-2.286-1.681-3.959-2.828c3.06,8.269,5.546,15.7,8.605,22.888
		C370.933,442.378,373.431,444.09,375.245,446.094z"/>
	<path fill="none" d="M188.019,146.316c1.422,0.185,3.154-1.96,4.749-3.079c-0.016-0.585-0.032-1.167-0.043-1.752
		c-1.638-1.088-3.303-3.04-4.902-2.989c-1.343,0.04-3.794,2.604-3.625,3.731C184.44,143.838,186.499,146.116,188.019,146.316z"/>
	<path fill="none" d="M186.911,370.812c3.503-58.667,9.588-117.189,4.246-175.663C189.185,204.014,185.45,355.575,186.911,370.812z"
		/>
	<path fill="none" d="M197.858,138.429c1.269,0.255,3.009-1.838,5.629-3.633c-2.506-2.007-4.089-4.25-5.578-4.191
		c-1.458,0.059-3.92,2.467-3.92,3.842C193.989,135.86,196.263,138.107,197.858,138.429z"/>
	<path d="M342.75,468.671c-0.962-3.013-0.896-6.383-1.021-9.607c-0.059-1.461,0.373-2.993,0.802-4.431
		c1.531-5.146,0.157-9.388-2.915-13.76c-8.044-11.449-7.816-23.233-0.255-34.942c1.1-1.701,2.113-3.452,3.421-5.589
		c-10.016-1.332-15.684-7.801-20.33-15.401c-1.077-1.756-1.289-4.038-1.897-6.077c0.479-0.22,0.958-0.436,1.441-0.651
		c0.676,1.021,1.296,2.077,2.03,3.056c3.358,4.47,6.355,9.309,10.232,13.276c4.47,4.568,8.139,3.394,10.452-2.558
		c0.464-1.189,0.958-2.364,1.441-3.547c0.562,0.114,1.124,0.225,1.686,0.334c-0.326,3.217-0.118,6.611-1.112,9.607
		c-1.453,4.388-3.652,8.552-5.742,12.703c-7.863,15.586-3.197,28.018,9.561,37.39c6.843,5.023,13.736,9.988,20.578,15.021
		c4.058,2.981,4.124,4.553-0.146,7.148c-0.797,0.487-1.649,0.899-2.533,1.261h53.019c-0.507-3.378-3.056-5.981-6.061-8.539
		c-1.799-1.528-2.974-3.896-4.156-6.037c-4.081-7.408-7.883-14.98-12.133-22.291c-1.618-2.788-2.773-5.377-1.649-8.492
		c2.463-6.83,5.314-13.539,7.436-20.472c1.783-5.829,4.548-12.173,3.7-17.81c-1.395-9.297-1.862-18.473-1.886-27.793
		c-0.008-3.496-0.938-7.066-1.897-10.477c-3.586-12.797-11.305-23.339-18.7-34.09c-8.076-11.732-15.877-23.661-23.67-35.591
		c-1.265-1.933-1.865-4.301-2.962-6.901c-2.812,7.326-7.271,11.98-14.474,13.717c0.723-1.775,1.917-3.088,3.15-4.364
		c1.893-1.956,4.336-3.586,5.616-5.876c6.273-11.198,8.933-22.711,1.827-34.699c-1.116-1.881-1.874-3.971-2.816-5.951
		c-2.707-5.699-3.995-11.619-3.178-17.97c1.178-9.242,2.109-18.516,3.425-27.735c0.204-1.441,1.937-2.635,2.871-4.006
		c1.862-2.722,5.33-5.64,5.103-8.209c-0.385-4.356,1.064-6.862,3.778-9.639c2.699-2.761,2.691-7.981,0.357-11.544
		c-2.25-3.429-5.507-4.612-9.289-3.091c-2.577,1.037-3.382,0.098-4.058-2.165c-1.717-5.707-5.519-9.694-10.73-12.432
		c-6.934-3.645-14.228-4.823-21.93-3.213c-5.559,1.163-10.487,0.063-15.095-3.441c-2.055-1.563-4.537-2.565-6.654-3.555
		c-0.039-0.016-0.078-0.028-0.126-0.047c-5.138-2.376-7.459,2.636-8.087,7.176c0.173-0.067,0.404-0.157,0.723-0.291
		c-1.418,8.696,3.735,13.001,10.971,15.959c-3.696,1.854-3.857,1.925-14.078-7.443c-0.121,0.008-0.251-0.004-0.389-0.047
		c-2.09-0.644-4.081-0.99-6.21-0.864c-0.773,4.466,0.196,8.779,1.371,13.119c0.109,0.4-0.004,0.734-0.216,0.97
		c2.514,5.11,6.527,9.23,9.91,13.783c2.454,3.312,1.979,7.176-0.876,9.792c-8.15,7.479-9.679,16.67-8.387,27.024
		c0.413,3.311-0.251,6.756-0.424,10.287c9.238-1.658,17.302,0.994,24.502,6.473c-0.106,0.42-0.208,0.84-0.314,1.265
		c-0.828-0.106-1.685-0.118-2.482-0.342c-2.772-0.777-5.487-1.795-8.287-2.416c-7.483-1.666-15.288-4.207-22.174,1.08
		c-8.943,6.862-15.856,15.358-16.387,27.271c-0.09,1.96,1.976,4.187,3.413,6.002c2.039,2.577,4.423,4.882,6.658,7.31
		c-0.314,0.338-0.633,0.675-0.947,1.013c-0.703-0.416-1.531-0.711-2.085-1.276c-3.17-3.232-6.47-6.375-9.353-9.851
		c-3.896-4.694-8.794-7.353-14.71-8.252c-4.121-0.628-6.43-2.432-6.061-7.078c0.193-2.396-0.337-4.949-1.001-7.298
		c-1.021-3.61-3.668-5.083-7.604-4.914c0.758,2.561,1.406,4.745,2.055,6.929c-0.432,0.177-0.86,0.354-1.292,0.53
		c-0.648-1.312-1.045-2.875-2.019-3.88c-1.367-1.41-3.421-3.618-4.725-3.339c-3.312,0.707-0.664,3.276-0.609,5.04
		c0.035,0.994,0.499,1.972,0.872,3.331c-3.225-0.683-3.889-6.249-8.567-2.954c6.524,7.585,5.853,15.81,3.586,24.153
		c0,0.008,0,0.012,0,0.02c0.07,7.765,1.217,15.303,2.969,22.852c0.181,0.774,0.357,1.587,0.534,2.412
		c2.361,2.95,4.788,5.798,7.742,7.911c6.155,4.398,10.158,11.717,18.634,13.225c3.995,0.711,7.557,3.685,11.422,5.382
		c2.97,1.304,6.057,2.784,9.195,3.106c2.121,0.224,4.619-1.123,6.618-2.313c3.028-1.791,5.884-3.924,8.614-6.159
		c5.472-4.485,10.821-9.124,16.179-13.739c0.892-0.767,1.579-1.756,2.36-2.644c0.326,0.138,0.645,0.274,0.971,0.412
		c-0.389,1.1-0.598,2.317-1.198,3.284c-4.184,6.748-9.223,12.494-16.858,15.676c-3.213,1.34-5.951,3.795-8.983,5.613
		c-1.948,1.17-3.932,2.475-6.08,3.048c-2.313,0.612-3.174,1.438-2.023,3.649c3.037,5.824,5.955,11.721,9.188,17.436
		c3.374,5.982,8.85,8.614,15.578,9.234c9.49,0.876,18.556-0.958,27.511-3.782c0.605-0.192,1.233-0.295,1.854-0.44
		c0.231,0.342,0.468,0.684,0.703,1.021c-1.469,1.068-2.797,2.498-4.431,3.135c-6.713,2.628-13.649,3.998-20.92,2.891
		c-2.981-0.456-5.986-0.821-8.995-0.982c-2.203-0.121-3.469,1.045-2.671,3.367c0.927,2.71,1.874,5.447,3.158,7.997
		c4.769,9.415,9.557,18.826,14.572,28.115c3.272,6.064,3.386,11.686-0.086,17.829c-3.226,5.699-6.101,11.717-8.183,17.911
		c-3.099,9.23-1.638,18.418,2.192,27.26c1.146,2.644,2.176,5.342,3.44,7.926c3.257,6.701,0,11.199-5.212,13.799h52.335
		C343.61,470.866,343.107,469.79,342.75,468.671z M365.284,419.965c1.245,2.074,2.298,4.399,2.82,6.752
		c1.477,6.678,2.647,13.422,8.512,18.159c-0.459,0.408-0.919,0.813-1.371,1.218c-1.814-2.004-4.313-3.716-5.314-6.069
		c-3.06-7.188-5.546-14.619-8.605-22.888C362.998,418.284,364.604,418.846,365.284,419.965z M359.389,159.192
		c1.948,1.54,3.401,3.566,1.532,6.233c-2.655-1.913-4.965-3.582-7.42-5.354C355.154,157.896,357.291,157.531,359.389,159.192z
		 M347.798,180.611c-6.097,9.792-11.757,19.145-17.719,28.301c-1.721,2.644-4.234,4.875-9.125,4.498
		c9.627-5.975,12.927-15.327,17.707-23.658C340.759,186.098,342.816,182.233,347.798,180.611z M318.515,140.7l5.495-0.456v5.927
		c-2.486-1.964-4.01-3.166-5.534-4.368C318.487,141.438,318.503,141.069,318.515,140.7z M309.249,175.21
		c9.219,5.244,17.196-1.607,25.677-0.255C331.826,181.271,314.115,182.025,309.249,175.21z M323.366,420.699
		c-6.367,5.959-5.747,13.041-3.559,20.512c1.068,3.665,1.846,7.439,2.435,11.214c0.287,1.843-0.161,3.807-0.274,5.716
		c-0.602-0.027-1.198-0.06-1.795-0.091c-1.454-8.963-3.15-17.899-4.262-26.91c-0.598-4.874,1.241-9.183,5.766-11.851
		c0.629-0.373,1.414-0.479,2.754-0.915C323.893,419.588,323.786,420.311,323.366,420.699z"/>
	<path fill="#B42A25" d="M421.461,471.903h-53.019h-24.274h-52.335h-20.504c-2.317-1.292-4.489-3.052-6.489-5.299
		c-4.933-5.522-11.324-8.491-18.445-10.106c-6.587-1.488-10.586-5.676-13.029-11.909c-4.8-12.259-6.834-25.099-8.642-38.014
		c-2.887-20.63-6.292-41.208-8.523-61.912c-1.929-17.844-2.934-35.834,0.974-53.679c0.051-0.224,0.063-0.459,0.059-0.702
		c-0.338-1.057-0.637-2.129-0.903-3.206c-0.165-0.369-0.334-0.734-0.491-1.076c-1.304-2.875-2.875-5.636-4.333-8.44
		c0.42-0.229,0.845-0.452,1.265-0.68c0.574,0.648,1.131,1.315,1.685,1.991c-1.296-5.942-2.199-11.894-2.49-17.962
		c-0.016,0.004-0.027,0.004-0.043,0.004c-0.063-1.226-0.224-2.451-0.181-3.673c0.251-7.514,1.167-15.032-3.445-21.91
		c-1.87-2.789,0.55-5.326,2.903-6.273c5.396-2.176,5.102-5.994,5.027-10.868c-0.185-11.921,0.55-23.851,0.966-35.779
		c0.032-1.053,0.44-2.09,0.688-3.201c2.502,0,4.823,0.157,7.117-0.032c3.798-0.322,6.921-1.559,7.793-5.974
		c0.146-0.75,1.909-1.721,2.883-1.673c4.058,0.192,7.447-0.809,10.554-3.625c1.131-1.025,3.539-1.265,5.205-0.966
		c4.898,0.876,9.392,1.485,11.524-4.56c0.247-0.699,1.406-1.332,2.251-1.524c7.985-1.823,8.256-1.858,13.516-6.387
		c-0.919-3.991-1.387-7.961-0.499-12.086c0.106-0.511,0.581-0.742,1.049-0.797c2.329-0.283,4.478-0.02,6.682,0.57
		c0.329-0.672,0.655-1.332,0.974-1.976c-0.051-0.114-0.086-0.244-0.094-0.389c-0.342-6.088,2.635-14.545,9.348-13.206
		c0-2.538,0.114-5.205-0.727-7.53c-1.327-3.692-1.249-6.937,0.224-10.323c2.676-6.17,0.912-11.292-3.794-15.57
		c-2.215-2.023-4.941-3.492-7.137-5.535c-4.207-3.904-9.333-3.716-14.235-2.903c-2.058,0.342-3.719,3.052-5.569,4.674
		c-0.303,0.267-0.719,0.747-0.978,0.684c-5.197-1.257-7.97,2.404-11.658,4.938c-2.251,1.54-6.481,1.009-9.568,0.302
		c-4.207-0.955-6.587-0.004-8.594,3.857c-2.585,4.977-5.456,5.452-9.973,2.137c-1.783-1.308-3.189-1.414-5.491-1.088
		c-3.099,0.436-6.504-0.699-9.674-1.563c-2-0.55-3.747-1.98-5.715-2.746c-4.541-1.768-8.716-3.889-11.257-8.873
		c4.007,1.866,7.424,3.425,10.813,5.047c2.616,1.249,5.13,2.75,7.813,3.822c1.826,0.73,4.623,1.928,5.664,1.151
		c2.974-2.231,5.004-1.163,7.781,0.145c1.666,0.782,5.381,0.68,5.979-0.326c3.665-6.151,8.598-7.554,15.099-5.562
		c2.196,0.671,4.509,0.656,5.621-1.933c1.787-4.171,4.706-4.725,8.744-3.437c1.182,0.377,3.904-0.436,4.089-1.174
		c1.15-4.474,4.387-4.984,8.15-5.444c1.646-0.201,4.029-1.367,4.544-2.691c3.115-8.009-1.473-17.919-9.689-21.155
		c-3.422-1.348-7.078-2.121-10.676-2.974c-4.438-1.049-8.206-2.95-10.692-6.992c-4.14-6.74-9.985-11.073-17.77-12.985
		c-2.247-0.554-5.012-1.921-6.077-3.763c-2.168-3.751-5.401-5.098-9.117-5.401c-3.386-0.275-5.165-1.587-6.854-4.627
		c-3.751-6.736-12.129-7.51-14.761-1.359c-3.15,7.376-8.59,9.403-15.767,9.077c-5.361-0.244-9.835,1.516-13.736,5.311
		c-1.905,1.858-4.333,3.932-6.779,4.325c-5.585,0.896-11.155,1.308-15.531,5.479c-0.263,0.255-0.77,0.396-1.147,0.373
		c-4.344-0.307-6.469,2.75-9.046,5.479c-1.532,1.626-3.896,3.013-6.076,3.382c-5.358,0.899-5.699,0.97-5.955,6.583
		c-0.04,0.958,0.067,2.015-0.295,2.848c-1.768,4.085,0.558,6.155,3.72,7.781c1.477,0.762,3.068,1.289,5.154,2.148
		c-5.798,1.952-9.128,0.578-13.041-4.725c-3.755,0.22-7.439,0.42-11.12,0.66c-3.928,0.251-6.988,1.972-7.993,5.912
		c-0.621,2.439-2.042,2.899-4.113,3.731c-1.995,0.801-4.049,2.887-4.784,4.882c-0.475,1.289,0.892,4.207,2.267,5.055
		c4.992,3.083,9.105,7.094,13.536,10.802c3.551,2.966,9.375,3.123,14.101,4.792c4.316,1.532,8.508,3.429,12.758,5.162
		c-0.212,0.632-0.42,1.269-0.628,1.905c-2.133-0.409-4.274-0.774-6.387-1.233c-4.624-1.001-9.203-2.69-13.858-2.918
		c-5.73-0.279-9.745-2.306-12.129-7.482c-1.559-3.386-4.148-5.322-7.82-5.963c-1.705-0.298-3.362-0.872-5.805-1.528
		c-0.248,2.51-0.44,4.875-0.739,7.224c-0.185,1.441-0.141,3.123-0.88,4.254c-2.435,3.739-4.179,7.373-1.72,11.842
		c0.424,0.766-0.043,2.145-0.35,3.166c-1.823,6.112,4.03,9.455,5.201,14.482c0.063,0.271,0.66,0.558,1.033,0.601
		c7.078,0.817,9.399,6.222,11.776,11.792c0.73,1.713,2.361,3.139,3.837,4.399c2.33,2.003,5.146,3.496,7.251,5.688
		c2.145,2.235,4.219,3.936,7.447,3.315c3.74-0.719,6.355,0.805,8.355,3.861c2.117,3.249,4.996,4.772,9.05,4.49
		c1.724-0.122,4.207,0.452,5.177,1.653c3.249,4.03,6.552,3.767,10.409,1.257c3.468-2.263,6.402-2.157,9.262,1.422
		c3.099,3.873,6.964,4.136,11.297,1.63c1.284-0.746,2.808-1.854,4.077-1.693c4.489,0.578,8.92,1.638,13.414,2.521
		c-3.685,5.314-7.318,6.179-12.337,3.386c-1.061-0.589-2.848-0.452-4.05,0.008c-0.734,0.283-1.477,1.874-1.375,2.789
		c1.056,9.808,2.961,19.569,3.288,29.389c0.499,15.06,0.2,30.162-0.299,45.226c-0.216,6.587-8.531,11.596-14.973,10.307
		c-2.16-0.432-5.491-0.326-6.744,0.998c-4.485,4.733-6.662,10.751-5.743,17.33c0.287,2.022,1.886,4.419,3.602,5.593
		c7.455,5.11,11.732,12.342,13.763,20.759c3.842,15.939,2.384,32.205,1.937,48.364c-0.385,13.987-1.284,27.963-1.685,41.95
		c-0.279,9.726,0.106,19.475-0.188,29.2c-0.404,13.37-4.281,25.932-9.891,37.975c-1.48,3.182-3.413,5.774-6.061,7.502h-67.67v53.298
		h362.529v-45.194v-8.104H421.461z M274.02,125.825c3.477,1.339,5.322-0.09,6.8-2.898c0.059-0.114,0.165-0.224,0.267-0.307
		c1.811-1.532,3.551-4.014,6.084-1.866c0.382,0.322-1.253,4.517-2.784,5.311c-4.494,2.321-3.968,4.69-1.764,8.362
		c0.727,1.206-0.236,4.081-1.344,5.452c-0.526,0.648-4.108,0.086-4.701-0.892c-0.798-1.316-0.256-3.618,0.153-5.401
		c0.185-0.825,1.414-1.414,2.164-2.113c-0.134-0.369-0.264-0.742-0.396-1.116c-1.709,0-3.484,0.299-5.095-0.098
		c-1.194-0.291-2.164-1.477-3.237-2.27C271.471,127.211,273.144,125.487,274.02,125.825z M153.422,91.876
		c-0.251,1.622-2.424,2.946-3.767,4.396c-1.41-1.43-3.641-2.707-3.947-4.34c-0.232-1.229,2.007-2.926,3.853-5.346
		C151.415,88.981,153.614,90.615,153.422,91.876z M165.959,89.445c-1.677,0.946-3.476,2.785-4.988,2.573
		c-1.43-0.201-3.751-2.793-3.531-3.904c0.314-1.575,2.542-3.724,4.069-3.83c1.434-0.098,3.024,2.145,4.548,3.354
		C166.026,88.243,165.991,88.844,165.959,89.445z M174.727,149.809c-1.43-1.391-3.822-2.659-4.01-4.195
		c-0.177-1.465,1.948-3.209,3.06-4.832c0.562,0.008,1.124,0.016,1.681,0.023c1.057,1.658,2.966,3.343,2.915,4.965
		C178.325,147.153,176.027,148.465,174.727,149.809z M158.068,285.965c7.298,1.929,9.019,8.406,11.642,15.279
		c1.599-11.206-1.822-20.338-5.951-29.49c4.242,0.499,6.12,1.63,6.957,5.982c1.473,7.644,2.796,15.39,3.213,23.143
		c0.75,13.814,0.817,27.668,1.061,41.511c0.031,1.873-0.094,4.057-1.025,5.55c-0.84,1.343-2.887,1.94-4.399,2.867
		c-0.645-1.414-1.831-2.82-1.846-4.238c-0.11-10.68,0.428-21.384-0.055-32.04C167.197,304.285,164.149,294.649,158.068,285.965z
		 M175.547,471.903c-1.642-5.42-3.264-12.694-5.059-22.342c-2.742,7.436-5.487,14.891-8.233,22.342h-2.812
		c3.845-15.067,6.104-30.382,6.807-45.89c0.825-18.028,1.096-36.085,1.611-54.134c0.432-0.196,0.868-0.4,1.3-0.597
		c1.127,2.054,2.801,3.986,3.264,6.182c0.935,4.396,1.469,8.917,1.712,13.414c1.167,22.048,1.827,44.126,3.441,66.138
		c0.365,5.001,1.5,9.945,2.722,14.887H175.547z M184.197,142.228c-0.169-1.127,2.282-3.692,3.625-3.731
		c1.599-0.051,3.264,1.901,4.902,2.989c0.012,0.585,0.027,1.167,0.043,1.752c-1.595,1.119-3.327,3.264-4.749,3.079
		C186.499,146.116,184.44,143.838,184.197,142.228z M186.911,370.812c-1.461-15.236,2.274-166.798,4.246-175.663
		C196.499,253.623,190.415,312.145,186.911,370.812z M197.858,138.429c-1.595-0.322-3.869-2.569-3.869-3.982
		c0-1.375,2.463-3.783,3.92-3.842c1.488-0.059,3.071,2.184,5.578,4.191C200.867,136.591,199.126,138.685,197.858,138.429z
		 M228.743,471.903c-11.226-7.859-18.921-18.397-21.254-32.146c-4.568-26.898-5.931-53.949-1.882-81.084
		c0.263-1.76,0.892-3.468,1.348-5.2c0.444,0.051,0.896,0.103,1.335,0.149c0,1.508,0.125,3.024-0.016,4.521
		c-2.322,25.006-0.813,49.932,3.036,74.614c2.765,17.715,11.941,31.145,27.585,39.146H228.743z"/>
</g>
</svg>
