<?xml version="1.0" encoding="utf-8"?>
<!-- Generator: Adobe Illustrator 16.0.2, SVG Export Plug-In . SVG Version: 6.00 Build 0)  -->
<!DOCTYPE svg PUBLIC "-//W3C//DTD SVG 1.1//EN" "http://www.w3.org/Graphics/SVG/1.1/DTD/svg11.dtd">
<svg version="1.1" id="Layer_1" xmlns="http://www.w3.org/2000/svg" xmlns:xlink="http://www.w3.org/1999/xlink" x="0px" y="0px"
	 width="515px" height="515px" viewBox="0 0 515 515" enable-background="new 0 0 515 515" xml:space="preserve">
<path fill-rule="evenodd" clip-rule="evenodd" fill="#050606" d="M314.61,289.029c0.206,1.729,4.04,3.166,0.847,5.021
	c-2.053,1.192-4.486,0.244-6.334-1.496c-1.416-1.335-2.092-3.008-2.811-4.793c-3.266-8.103-13.547-14.385-21.625-13.977
	c-3.329,0.164-5.407,1.213-7.094,4.058c-1.332,2.256-2.804,4.808-6.07,4.856c-1.708-1.833-4.2-3.382-4.992-5.546
	c-3.978-10.846-11.668-19.399-17.356-29.171c-14.841-25.523-35.542-47.971-40.548-79.172c-9.28,7.039-17.912,13.617-26.586,20.142
	c-1.419,1.067-3.012,3.404-4.783,1.977c-5.624-4.534-5.081-0.125-6.223,3.499c-1.211,3.842-0.387,6.845,1.3,10.161
	c2.465,4.846,5.331,9.674,5.147,15.371c-0.528,16.467,1.004,32.921-6.113,48.905c-7.848,17.634-9.594,37.293-15.741,55.567
	c-1.919,5.703-3.528,11.076-1.098,17.093c1.074,2.657,1.03,5.944-0.16,8.691c-2.489,5.749-0.688,10.599,2.426,15.389
	c8.139,12.505,15.355,25.519,22.002,38.885c8.333,16.741,12.423,35.748,26.19,49.645c0.606,0.613,0.646,2.021,0.566,3.033
	c-0.288,3.66,0.737,7.094,1.707,10.507c1.565,5.536-1.009,7.998-6.132,8.472c-4.618,0.419-9.254,0.663-13.882,0.816
	c-14.534,0.474-28.871,3.653-43.472,3.151c-4.511-0.146-8.864-0.865-13.771-4.177c4.989-1.896,8.839-3.402,12.718-4.839
	c9.303-3.444,18.2-7.666,25.91-14.028c6.751-5.575,7.931-14.123,2.188-20.597c-8.897-10.03-18.289-19.617-27.834-29.772
	c-5.894,12.996-11.243,25.78-14.422,39.095c-4.508,18.874-12.328,38.487,4.026,56.065c0.275,0.296,0.493,0.718,0.577,1.115
	c0.727,3.528,0.754,7.182-3.23,8.531c-7.597,2.569-16.283,3.636-22.518-1.057c-5.183-3.894-8.7-10.469-8.461-18.581
	c0.284-9.888,1.592-19.077,6.349-27.862c1.954-3.612,2.672-7.903,3.118-12.14c1.161-11.009-0.505-21.852-1.604-32.729
	c-1.46-14.481,1.843-28.486,4.361-42.546c0.638-3.57,0.357-6.342-1.672-9.42c-7.863-11.943-14.098-24.731-19.516-37.976
	c-10.649-26.031-12.151-53.51-13.6-81.062c-1.848-35.145,1.651-69.73,9.92-103.902c0.427-1.771,2.099-4.541-0.159-5.792
	c-5.306-2.948-2.055-6.188-0.79-9.375c0.917-2.315,2.879-4.314,2.194-8.07c-1.476,1.767-2.358,2.892-3.303,3.96
	c-6.742,7.647-9.379,7.875-15.552-0.315c-7.71-10.235-14.827-20.919-22.028-31.524c-1.121-1.657-1.485-3.889-1.956-5.914
	C41.648,73.917,56.728,61.08,71.461,63.438c3.908,0.626,7.363-0.219,11.065-1.382c10.962-3.449,20.701-10.518,32.635-11.065
	c1.435-0.064,2.424-0.997,2.768-2.231c2.034-7.292,7.295-6.993,13.104-5.848c13.677,2.697,26.553,7.785,39.239,13.325
	c5.702,2.485,8.625,0.643,10.628-4.635c3.127-8.238,6.256-16.479,9.714-24.582c1.037-2.43,0.068-2.937-1.731-3.488
	c-1.801-0.547-3.594-1.128-5.417-1.599c-2.655-0.687-3.748-1.433-2.398-4.753c4.755-11.693,13.856-17.656,25.852-14.755
	c12.801,3.096,25.674,6.239,37.348,12.897c10.777,6.148,14.644,13.317,13.045,25.437c-0.526,3.997-1.839,6.415-6.28,4.116
	c-4.041-2.094-5.78-0.431-8.195,3.195c-8.167,12.268-11.025,28.162-25.986,35.992c-5.253,2.749-4.711,9.467-0.251,13.382
	c3.22,2.82,5.888,6.035,8.474,9.307c5.461,6.922,11.801,13.216,15.862,21.163c1.06,2.067,3.606,4.896,1.272,6.687
	c-3.711,2.836-2.965,6.272-2.618,9.652c1.209,11.771,3.786,23.29,9.193,33.856c3.718,7.257,4.722,15.678,10.032,22.206
	c5.731,7.046,10.515,14.759,13.673,23.257c9.044,24.351,26.618,42.935,42.044,62.984
	C314.555,287.377,314.516,288.214,314.61,289.029z M92.425,99.756c3.65-0.575,3.366-6.003,5.712-9.147
	c-5.27-1.245-9.575,1.703-15.156,0.913C85.807,96.305,88.538,100.37,92.425,99.756z"/>
<path fill-rule="evenodd" clip-rule="evenodd" fill="#B42A25" d="M314.533,286.555c0.021,0.822-0.018,1.659,0.077,2.475
	c0.206,1.729,4.04,3.166,0.847,5.021c-2.053,1.192-4.486,0.244-6.334-1.496c-1.416-1.335-2.092-3.008-2.811-4.793
	c-3.266-8.103-13.547-14.385-21.625-13.977c-3.329,0.164-5.407,1.213-7.094,4.058c-1.332,2.256-2.804,4.808-6.07,4.856
	c-5.128,9.699-4.215,20.903-7.84,31.035c-10.583,29.556-13.814,60.423-15.455,91.507c-0.753,14.251-5.828,27.492-8.852,41.217
	c-1.776,8.074-5.969,15.908-2.064,24.512c1.023,2.253-1.028,3.486-2.496,4.55c-2.721,1.977-5.685,3.615-8.395,5.599
	c-1.4,1.029-3.957,1.607-3.251,4.048c0.603,2.078,2.866,1.234,4.401,1.479c2.071,0.317,4.196,0.397,6.294,0.404
	c11.383,0.042,22.772-0.237,34.146,0.098c11.511,0.342,22.587-1.499,33.526-4.916c7.945-2.475,15.685-3.458,23.759,0.921
	c7.941,4.309,17.139,4.12,25.948,3.744c27.385-1.186,54.759-1.465,82.098,0.642c6.882,0.529,13.651,2.419,20.509,3.479
	c4.822,0.754,10.086,1.381,13.541-2.785c3.587-4.319,2.301-9.389,0.446-14.353c-3.458-9.253-6.767-18.561-9.8-27.953
	c-3.668-11.357-3.277-22.946-0.104-34.276c2.272-8.095-0.133-14.523-5.39-20.248c-13.754-14.977-30.236-26.739-46.43-38.791
	C375.919,330.14,345.609,307.813,314.533,286.555z"/>
</svg>
