<?xml version="1.0" encoding="utf-8"?>
<!-- Generator: Adobe Illustrator 16.0.2, SVG Export Plug-In . SVG Version: 6.00 Build 0)  -->
<!DOCTYPE svg PUBLIC "-//W3C//DTD SVG 1.1//EN" "http://www.w3.org/Graphics/SVG/1.1/DTD/svg11.dtd">
<svg version="1.1" id="Layer_1" xmlns="http://www.w3.org/2000/svg" xmlns:xlink="http://www.w3.org/1999/xlink" x="0px" y="0px"
	 width="533.709px" height="538.994px" viewBox="0 0 533.709 538.994" enable-background="new 0 0 533.709 538.994"
	 xml:space="preserve">
<g>
	<path fill-rule="evenodd" clip-rule="evenodd" fill="#B42A25" d="M94.335,102.157c56.533-0.693,107.326,5.761,156.967,20.488
		c11.645,3.456,22.848,3.471,34.62,0.015c71.227-20.906,143.897-24.951,217.38-17.042c7.428,0.796,17.533-1.347,20.729,9.629
		c2.871,9.851-2.93,29.842-10.632,35.038c-10.544,7.113-11.016,18.109-11.866,28.972c-1.583,20.203-5.299,39.85-16.713,57.03
		c-20.571,30.973-52.276,37.22-86.066,36.444c-49.676-1.141-83.205-26.671-103.108-71.442c-4.949-11.133-9.688-22.459-15.813-32.944
		c-7.059-12.077-14.271-12.274-21.383-0.417c-6.911,11.527-12.618,23.87-17.907,36.257c-29.223,68.453-99.009,80.442-153.203,60.067
		c-34.954-13.139-46.506-43.679-50.409-77.852c-1.726-15.14-2.021-29.168-17.141-39.904c-8.695-6.179-7.683-20.94-5.496-32.015
		c2.016-10.224,12.456-7.909,19.643-8.887C55.542,102.638,77.303,101.493,94.335,102.157z"/>
	<path fill-rule="evenodd" clip-rule="evenodd" d="M415.776,372.57c0.147-15.632,7.182-23.118,18.758-26.121
		c27.984-7.261,55.206,20.605,47.224,48.305c-5.516,19.146-18.561,32.099-37.653,36.38c-56.11,12.579-104.008-3.858-144.217-44.023
		c-7.373-7.368-13.866-15.661-20.395-23.821c-9.3-11.615-13.06-11.693-23.373-0.255c-9.915,10.996-19.367,22.537-30.226,32.535
		c-35.186,32.403-76.83,45.376-124.142,37.728c-29.464-4.764-48.546-27.522-46.796-53.742c1.534-22.95,33.878-41.595,54.213-31.056
		c8.676,4.497,14.309,11.128,12.476,21.869c-4.872,1.272-6.213-2.975-8.848-4.729c-6.483-4.32-13.188-4.969-19.603-0.762
		c-7.029,4.602-6.793,11.926-4.557,18.813c2.359,7.274,7.958,11.359,15.774,11.526c8.356,0.182,15.042-4.065,21.186-9.074
		c9.221-7.521,15.656-17.465,22.837-26.779c5.933-7.684,6.14-12.289-5.107-12.825c-1.642-0.073-3.249-0.791-6.065-1.528
		c4.011-6.341,9.732-6.444,14.982-6.208c8.784,0.402,14.875-3.181,19.731-10.264c8.528-12.441,21.034-21.428,33.047-29.209
		c8.956-5.8,22.975-5.328,34.35-2.521c19.037,4.699,37.722-1.052,56.642,0c16.206,0.899,33.131-4.787,46.245,9.993
		c2.521,2.842,33.17,18.213,31.047,18.566c-3.898,0.639-7.708,1.661-3.785,6.396c15.233,18.394,25.615,40.71,45.002,55.747
		c5.594,4.335,11.33,8.081,18.865,7.845c7.885-0.241,13.572-3.873,15.868-11.276c2.104-6.788,2.771-13.866-4.188-18.939
		c-6.887-5.019-13.67-4.965-20.365,0.369C422.408,367.335,420.103,369.144,415.776,372.57z"/>
</g>
</svg>
