<?xml version="1.0" encoding="utf-8"?>
<!-- Generator: Adobe Illustrator 16.0.2, SVG Export Plug-In . SVG Version: 6.00 Build 0)  -->
<!DOCTYPE svg PUBLIC "-//W3C//DTD SVG 1.1//EN" "http://www.w3.org/Graphics/SVG/1.1/DTD/svg11.dtd">
<svg version="1.1" id="Layer_1" xmlns="http://www.w3.org/2000/svg" xmlns:xlink="http://www.w3.org/1999/xlink" x="0px" y="0px"
	 width="533.709px" height="538.994px" viewBox="0 0 533.709 538.994" enable-background="new 0 0 533.709 538.994"
	 xml:space="preserve">
<g>
	<path fill-rule="evenodd" clip-rule="evenodd" fill="#B42A25" d="M384.625,244.152c27.308-10.679,46.203-94.573-2.761-110.327
		c-18.288-5.883-62.658-9.457-65.58-9.004c29.12,28.11,14.434,93.428-25.161,109.146c-5.828,2.313,7.429,5.051,13.608,6.474
		c7.506,1.731,15.125,3.166,22.786,3.984C354.035,247.244,370.787,249.563,384.625,244.152z"/>
	<path fill-rule="evenodd" clip-rule="evenodd" d="M480.653,166.339c-13.315-9.699-28.772-16.808-43.972-23.476
		c-15.313-6.719-31.669,1.501-23.736,16.479c14.016,26.463,6.284,83.295-43.577,95.885c4.641,2.732,28.142,10.158,42.863,13.252
		c28.645,2.93,61.805-22.152,76.25-41.474C505.011,204.89,502.764,182.45,480.653,166.339z"/>
	<path fill-rule="evenodd" clip-rule="evenodd" fill="#B42A25" d="M509.929,232.368c-4.667-9.616-13.145-13.336-17.772-3.804
		c-6.443,13.271-38.811,46.968-92.666,45.997c-9.048-0.162-10.659,6.979-4.815,13.746
		C447.576,349.545,546.014,306.718,509.929,232.368z"/>
	<path fill-rule="evenodd" clip-rule="evenodd" d="M501.686,313.018c-6.542,1.072-12.899,3.34-19.285,5.245
		c-16.691,4.979-33.758,8.672-50.823,3.78c-10.176-2.918-19.633-8.562-29.152-13.486c-7.849-4.056-11.266-2.678-10.978,6.177
		c0.23,7.103,0.039,14.825,3.092,21.173c33.198,69.045,119.006,35.285,120.695-11.326
		C515.594,314.683,511.522,311.402,501.686,313.018z"/>
	<path fill-rule="evenodd" clip-rule="evenodd" fill="#B42A25" d="M404.581,360.281c-4.439-6.075-9.83-11.877-15.718-16.68
		c-8.279-6.755-17.771-5.679-26.769-1.06c-1.418,0.73-34.053,21.05-46.494,29.739c-5.765,4.029-6.11,9.793-2.689,15.73
		c2.36,4.101,4.909,8.091,7.053,11.607c-6.696-4.577-12.975-10.829-20.54-13.711c-37.037-14.112-74.746-26.151-114.458-30.219
		c-6.165-0.633-14.704-2.505-16.967,4.945c-2.188,7.21,5.497,10.955,11.093,13.852c15.75,8.154,63.063,30.995,70.769,34.646
		c-1.673,0.901-50.369-16.274-73.631-22.733c-3.792-1.055-13.915-2.066-13.915,3.089c2.061,4.64,9.8,6.833,14.433,8.436
		c30.588,10.568,105.274,34.397,124.424,36.033c19.364,1.656,35.64-8.346,34.058-12.968c-0.005-0.015-0.006-0.03-0.011-0.045
		c-0.001,0-0.004,0-0.006,0c0-0.009,0-0.015,0-0.023c-0.096-0.351-0.003-0.701,0,0c0.002,0.009,0.003,0.018,0.006,0.023
		c7.48,2.307,15.123,5.323,22.947,6.86c59.518,11.691,117.371-41.672,117.026-42.543
		C466.628,384.884,425.673,389.149,404.581,360.281z"/>
	<path fill-rule="evenodd" clip-rule="evenodd" d="M324.531,185.4c7.101-21.802,0.25-47.671-20.873-56.823
		c-1.957-0.848-112.298-6.39-152.605-6.878c-1.124-0.012-2.273,1.917-3.411,3.073c-0.067,0.051-0.138,0.096-0.205,0.147
		c-6.499-4.323-20.735-4.479-26.154-0.275c-1.85-2.555-3.566-4.574-5.23-6.129c-1.962-2.804-5.178-4.754-9.655-4.754
		c-7.135,0-11.069,4.952-11.822,10.422c-0.747-0.021-1.495-0.057-2.24-0.099c-0.029-0.102-0.057-0.209-0.084-0.312H29.781
		c-0.115,0.743-0.229,1.489-0.343,2.229c12.458,3.469,24.916,6.938,37.371,10.403c-0.13,0.411-0.262,0.824-0.393,1.234
		c-20.241,3.28-40.48,6.563-60.721,9.846c0.039,0.869,0.078,1.741,0.118,2.612c35.655,4.472,71.308,8.945,106.961,13.417
		c-6.02,1.929-30.156,4.392-36.32,5.089c2.919,9.577,155.212,67.652,182.338,67.652C309.069,236.256,323.937,187.225,324.531,185.4z
		"/>
	<path fill-rule="evenodd" clip-rule="evenodd" d="M192.38,229.708c-3.186-3.049-7.71-3.496-10.104-0.994
		c0,0-53.563,61.122-50.376,64.17l61.918-53.123C196.21,237.263,195.567,232.76,192.38,229.708z"/>
	<path fill-rule="evenodd" clip-rule="evenodd" d="M217.502,234.267c-3.188-3.05-7.712-3.496-10.105-0.995
		c0,0-53.564,61.121-50.375,64.174l61.917-53.126C221.332,241.822,220.689,237.322,217.502,234.267z"/>
	<path fill-rule="evenodd" clip-rule="evenodd" d="M244.301,241.13c-3.186-3.05-7.711-3.496-10.104-0.998
		c0,0-53.564,61.122-50.376,64.17l61.918-53.12C248.132,248.682,247.488,244.179,244.301,241.13z"/>
	<path fill-rule="evenodd" clip-rule="evenodd" d="M277.488,255.305c2.394-2.501,1.75-7-1.438-10.053
		c-3.186-3.049-7.711-3.496-10.104-0.997c0,0-53.564,61.125-50.377,64.173L277.488,255.305z"/>
	<path fill-rule="evenodd" clip-rule="evenodd" d="M328.135,252.1c0,0-33.066,37.732-31.1,39.616l38.225-32.796
		c1.477-1.542,1.079-4.319-0.889-6.203C332.406,250.833,329.611,250.557,328.135,252.1z"/>
	<path fill-rule="evenodd" clip-rule="evenodd" d="M348.128,256.225c0,0-33.066,37.732-31.098,39.613l38.223-32.789
		c1.478-1.549,1.08-4.326-0.887-6.21C352.4,254.958,349.605,254.679,348.128,256.225z"/>
	<path fill-rule="evenodd" clip-rule="evenodd" d="M368.854,271.834c0,0-42.17,27.182-40.797,29.53l45.771-21.011
		c1.845-1.078,2.227-3.858,0.854-6.213C373.311,271.789,370.7,270.756,368.854,271.834z"/>
	<path fill-rule="evenodd" clip-rule="evenodd" d="M334.946,319.305l47.406-16.996c1.933-0.917,2.553-3.655,1.387-6.117
		c-1.165-2.46-3.677-3.718-5.607-2.798C378.132,293.394,333.779,316.849,334.946,319.305z"/>
</g>
<path fill-rule="evenodd" clip-rule="evenodd" fill="#B42A25" d="M118.461,124.576c0,6.662-5.402,12.063-12.066,12.063
	c-6.662,0-12.065-5.401-12.065-12.063c0-6.666,5.403-12.069,12.065-12.069C113.059,112.506,118.461,117.91,118.461,124.576z"/>
</svg>
