<?xml version="1.0" encoding="utf-8"?>
<!-- Generator: Adobe Illustrator 16.0.2, SVG Export Plug-In . SVG Version: 6.00 Build 0)  -->
<!DOCTYPE svg PUBLIC "-//W3C//DTD SVG 1.1//EN" "http://www.w3.org/Graphics/SVG/1.1/DTD/svg11.dtd">
<svg version="1.1" id="Layer_1" xmlns="http://www.w3.org/2000/svg" xmlns:xlink="http://www.w3.org/1999/xlink" x="0px" y="0px"
	 width="533.709px" height="538.994px" viewBox="0 0 533.709 538.994" enable-background="new 0 0 533.709 538.994"
	 xml:space="preserve">
<path fill-rule="evenodd" clip-rule="evenodd" d="M287.478,522.279c0.123-2.132,0.021-3.774,0.353-5.324
	c0.557-2.619,0.69-4.941-0.804-7.471c-0.761-1.287-0.219-3.433-0.014-5.159c0.211-1.763,1.061-3.489,1.057-5.229
	c-0.007-8.197,1.72-16.14,3.214-24.118c2.04-10.86,1.473-21.672-0.236-32.497c-0.352-2.234-0.631-4.515-0.609-6.77
	c0.074-9.593,0.374-19.185,0.363-28.776c-0.004-2.696-0.427-5.516-1.283-8.073c-13.549-40.487-27.254-80.924-40.798-121.414
	c-3.67-10.97-6.32-22.18-6.174-33.886c0.076-6.111,1.146-11.925,3.947-17.416c1.741-3.408,1.242-5.007-2.153-6.399
	c-3.104-1.275-4.553-3.513-4.842-6.678c-0.284-3.073-0.483-6.156-0.74-9.233c-0.118-1.396-0.289-2.784-1.275-4.345
	c-2.039,5.438-4.077,10.875-6.333,16.894c2.932,3.165,1.806,7.125-0.081,11.023c-0.751,1.55-1.056,2.946-0.416,4.624
	c0.895,2.347,0.53,4.384-1.704,5.998c-0.842,0.609-1.561,1.709-1.836,2.72c-0.885,3.256-1.766,6.541-2.206,9.874
	c-0.33,2.502-0.166,5.117,0.127,7.644c0.203,1.744,1.053,3.4,1.522,5.124c1.399,5.148,0.719,7.256-3.797,10.321
	c-3.323,2.256-5.284,5.025-5.469,9.184c-0.953,21.439-1.963,42.879-3.099,64.308c-0.226,4.243,0.43,8.123,2.925,11.534
	c4.761,6.505,6.096,13.817,5.594,21.68c-0.25,3.89-0.039,7.813-0.33,11.699c-0.226,3.027-1.117,6.005-1.344,9.028
	c-0.904,11.995-1.813,23.99-2.417,36c-0.367,7.298,0.188,14.652-0.321,21.937c-0.773,11.026-1.254,22.028-1.025,33.09
	c0.167,7.933-0.997,8.757-9.09,8.943c-14.785,0.342-29.573,0.617-44.356,1.019c-5.52,0.148-11.042,0.466-16.548,0.896
	c-3.245,0.254-5.752-0.828-8.554-2.499c-13.424-8.002-17.755-20.498-18.014-35.091c-0.072-4.042,0.527-8.095,0.724-12.147
	c0.236-4.87,0.208-9.754,0.585-14.609c0.632-8.088,1.249-16.189,2.352-24.217c0.719-5.219,1.76-6.033,6.503-8.503
	c0.998-4.395,1.158-8.884-0.551-13.247c-4.648-11.872-1.397-23.385,1.619-34.862c0.382-1.455,2.081-2.763,3.466-3.696
	c1.575-1.064,2.615-2.065,2.865-4.123c0.497-4.102,2.722-6.262,7.085-7.333c6.921-1.702,13.803-1.73,20.781-1.544
	c2.565,0.067,5.136,0.011,8.021,0.011c0.114-1.424,0.199-2.506,0.289-3.58c0.361-4.353,0.746-4.69,5.254-5.406
	c6.59-1.039,11.939,0.72,15.276,6.809c1.887,3.446,4.972,2.903,8.556,2.96c2.548-20.883,3.007-41.808,4.845-62.088
	c-2.307-2.749-4.551-4.905-6.158-7.46c-2.291-3.644-2.216-5.956,0.938-8.732c7.14-6.28,4.801-14.208,4.338-21.827
	c-0.056-0.923-1.327-1.727-1.896-2.671c-2.329-3.866-4.836-7.485-2.283-12.524c1.868-3.683,1.04-5.067-2.291-7.971
	c-0.839-0.733-1.616-1.529-2.645-2.509c3.117-4.328,2.71-9.173,2.691-14.061c-0.014-3.182,0.44-6.537,1.512-9.515
	c2.355-6.547,5.238-12.908,7.9-19.346c0.492-1.191,1.314-2.382,1.373-3.602c0.495-10.346,4.417-19.938,6.466-29.939
	c0.746-3.64,1.174-7.351,2.028-10.966c2.181-9.24,4.963-18.155,12.852-24.488c2.5-2.009,4.618-4.542,6.709-7.002
	c2.684-3.161,5.654-5.846,9.702-7.069c6.255-1.885,10.909-6.283,15.93-10.106c0.493-0.377,0.973-0.881,1.254-1.431
	c1.825-3.587,3.768-7.132,5.314-10.836c0.712-1.709,1.085-3.831,0.786-5.625c-0.723-4.306-1.772-8.581-2.985-12.781
	c-2.29-7.911-1.677-15.442,2.517-22.563c3.602-6.125,8.619-10.195,15.759-12.027c12.947-3.319,24.297,0.934,35.387,6.639
	c3.433,1.769,3.573,2.707,2.182,6.333c-1.356,3.527-1.356,6.946-0.226,10.47c0.955,2.981,1.378,5.941,0.515,9.099
	c-0.342,1.24,0.184,2.805,0.585,4.137c0.32,1.064,1.064,2.001,1.606,3.002c3.169,5.833,3.169,5.836-2.815,9.325
	c0.402,4.454-0.849,8.507-3.277,12.517c-3.115,5.152-2.22,8.405,2.587,12.25c3.295,2.636,6.766,5.06,10.23,7.474
	c4.027,2.809,6.987,6.48,8.126,11.206c2.082,8.658,6.466,15.978,12.802,21.986c6.129,5.818,8.172,12.524,6.534,20.657
	c-0.733,3.63,0.2,7.111,1.737,10.41c2.205,4.733,2.068,9.395-0.025,14.135c-0.849,1.92-1.451,3.964-1.983,6.001
	c-0.694,2.657-0.367,5.212,1.617,7.277c2.643,2.752,2.614,5.677,1.071,8.961c-0.74,1.572-1.473,3.425-1.332,5.075
	c0.43,4.951-1.459,9.204-3.154,13.616c-0.969,2.523-1.808,5.258-1.892,7.925c-0.247,7.263-1.143,14.212-5.625,20.309
	c-0.726,0.986-0.739,2.77-0.55,4.109c0.596,4.179,1.692,8.292,2.14,12.479c0.518,4.82,0.955,9.719,0.688,14.539
	c-0.367,6.682-0.772,13.311,0.57,19.917c1.847,9.085,0.458,18.096-0.307,27.17c-1.628,19.336-6.498,38.09-9.638,57.151
	c-0.655,3.981-1.05,8.087-0.905,12.111c0.274,7.63,0.817,15.266,1.681,22.85c0.338,2.963,1.311,6.139,2.914,8.63
	c5.282,8.207,6.773,17.454,8.285,26.764c0.274,1.706,0.634,3.641,1.635,4.944c4.546,5.917,9.335,11.644,14.039,17.437
	c1.79,2.202,3.849,2.633,6.456,1.314c1.72-0.867,3.623-1.452,5.504-1.906c4.103-0.987,6.552,0.377,8.063,4.268
	c1.896,4.877,1.251,8.26-2.883,11.646c-2.48,2.033-5.356,3.689-8.257,5.099c-4.514,2.188-8.319,5.015-10.829,9.444
	c-1.758,3.098-4.366,5.216-7.787,6.262c-2.764,0.843-4.666,2.556-6.344,4.955c-1.227,1.751-3.225,3.175-5.169,4.172
	c-6.756,3.461-14.258,4.212-21.605,5.438c-5.758,0.959-11.534,1.861-17.327,2.569c-6.629,0.811-13.289,1.148-19.851-0.519
	C291.502,523.981,289.736,523.129,287.478,522.279z M336.707,501.9c3.862,0.782,7.129,1.86,10.459,0.609
	c-1.547-3.263-2.918-6.159-4.43-9.349c-1.321,0.127-2.688,0.261-4.042,0.392C338.007,496.438,337.411,498.947,336.707,501.9z"/>
<path fill-rule="evenodd" clip-rule="evenodd" fill="#B42A25" d="M214.19,347.334c1.136-21.429,2.819-70.715,2.904-74.985
	c-1.942-2.707-5.099-3.672-9.032,0.458c0.059,3.563-1.98,48.391-4.528,69.273c-3.584-0.057-6.669,0.486-8.556-2.96
	c-3.337-6.09-8.687-7.849-15.276-6.809c-4.509,0.715-4.893,1.054-5.254,5.405c-0.09,1.075-0.174,2.157-0.289,3.581
	c-2.884,0-5.455,0.056-8.021-0.011c-6.978-0.187-13.86-0.159-20.781,1.543c-4.363,1.071-6.588,3.231-7.085,7.334
	c-0.25,2.058-1.29,3.059-2.865,4.123c-1.385,0.934-3.083,2.241-3.466,3.696c-3.017,11.478-6.267,22.99-1.619,34.862
	c1.709,4.362,1.549,8.852,0.551,13.246c-4.743,2.471-5.784,3.284-6.503,8.503c-1.103,8.028-1.72,16.13-2.352,24.217
	c-0.377,4.856-0.349,9.74-0.585,14.61c-0.197,4.053-0.796,8.105-0.724,12.146c0.259,14.593,4.59,27.089,18.014,35.092
	c2.802,1.67,5.309,2.752,8.554,2.498c5.506-0.43,11.028-0.747,16.548-0.895c14.783-0.402,29.571-0.677,44.356-1.019
	c8.093-0.187,9.257-1.012,9.09-8.943c-0.229-11.063,0.252-22.063,1.025-33.09c0.509-7.284-0.046-14.639,0.321-21.937
	c0.604-12.01,1.514-24.005,2.417-36.001c0.227-3.023,1.119-6.001,1.344-9.028c0.291-3.887,0.08-7.809,0.33-11.699
	c0.502-7.861-0.833-15.174-5.594-21.679C214.62,355.457,213.965,351.577,214.19,347.334z"/>
</svg>
