<?xml version="1.0" encoding="utf-8"?>
<!-- Generator: Adobe Illustrator 16.0.2, SVG Export Plug-In . SVG Version: 6.00 Build 0)  -->
<!DOCTYPE svg PUBLIC "-//W3C//DTD SVG 1.1//EN" "http://www.w3.org/Graphics/SVG/1.1/DTD/svg11.dtd">
<svg version="1.1" id="Layer_1" xmlns="http://www.w3.org/2000/svg" xmlns:xlink="http://www.w3.org/1999/xlink" x="0px" y="0px"
	 width="533.709px" height="538.994px" viewBox="0 0 533.709 538.994" enable-background="new 0 0 533.709 538.994"
	 xml:space="preserve">
<g>
	<path fill-rule="evenodd" clip-rule="evenodd" d="M313.401,490.516c-23.738,0-45.88,0-68.868,0c0-79.414,0-158.485,0-237.472
		c-7.711,0-14.569,0-22.126,0c0,12.942,0,25.502,0,38.672c-68.431,5.3-136.2,10.552-203.935,15.805c0-22.794,0-44.942,0-67.813
		c79.743,0,159.039,0,238.403,0c0-7.612,0-14.494,0-21.912c-11.252,0-22.226-0.133-33.194,0.075
		c-3.766,0.067-5.434-0.865-5.75-4.958c-1.942-24.795-4.084-49.58-6.243-74.354c-2.689-30.899-5.481-61.789-8.17-92.688
		c-0.931-10.665-1.674-21.352-2.523-32.301c22.804,0,44.968,0,68.057,0c0,79.824,0,159.256,0,239.382
		c7.779-0.475,14.584-0.887,22.048-1.336c0-13.529,0-26.097,0-38.896c68.463-5.399,136.226-10.745,203.985-16.09
		c0,22.689,0,44.795,0,67.449c-44.547,0-88.521,0-133.658,0c8.292,8.038,17.268,14.641,13.919,27.848c-5.924,0-11.724,0-17.423,0
		c0,4.048,0,7.361,0,11.233c5.438,0,10.24,0,15.09,0c0,6.608,0,12.636,0,19.419c-5.312,0-10.268,0-15.489,0
		c-0.185,31.296,2.795,61.495,9.975,91.154c7.186,29.649,15.475,58.978,34.063,85.701c-8.379,0-15.016,0-21.648,0
		c0,3.891,0,7.089,0,10.915c10.475,0,20.64,0.378,30.765-0.141c5.931-0.313,6.695,2.267,6.57,7.154
		c-0.125,4.794,0.338,8.238-6.749,8.204c-69.823-0.287-139.65-0.175-209.478-0.168c-2.377,0-4.756,0-7.236,0c0-5.391,0-9.81,0-15.05
		c12.427,0,24.563,0,36.802,0c0-4.147,0-7.437,0-11.39c-6.502,0-12.474,0-17.439,0c9.6-22.755,19.104-45.284,28.416-67.348
		c0,20.486,0,41.77,0,63.269c25.958,0,51.324,0,76.985,0c-0.225-3.535-0.328-6.596-0.628-9.631
		c-1.826-18.27-3.882-36.515-5.521-54.8c-4.275-47.75-8.41-95.514-12.504-143.286c-0.297-3.426-1.225-5.103-5.094-5.034
		c-11.024,0.219-22.052,0.01-33.079,0.138c-1.533,0.019-3.051,1.006-4.578,1.543c0.119,0.689,0.237,1.377,0.356,2.067
		c12.673,0,25.346,0,38.784,0C302.056,354.838,307.708,422.466,313.401,490.516z M274.811,485.395
		c1.189-0.007,2.386-0.131,3.217-0.182c0-14.859,0-29.381,0-44.29c-7.268,0-13.491,0-20.228,0c0,14.641,0,29.166,0,44.484
		C263.814,485.407,269.314,485.419,274.811,485.395z M23.622,252.925c0,7.076,0,13.891,0,20.468c10.24,0,20.356,0.088,30.468-0.019
		c14.219-0.149,14.219-0.212,14.116-14.416c-0.013-1.805-0.006-3.607-0.006-6.033C52.887,252.925,38.468,252.925,23.622,252.925z
		 M490.894,231.259c-14.685,0-29.044,0-43.834,0c0,7.44,0,14.027,0,20.982c14.5,0,28.888,0,43.834,0
		C490.894,244.898,490.894,238.041,490.894,231.259z M23.472,301.003c14.828-0.983,29.462-1.958,44.412-2.951
		c0-6.708,0-12.923,0-19.15c-14.74,0-29.241,0-44.412,0C23.472,286.925,23.472,293.555,23.472,301.003z M211.176,60.052
		c0.131,1.266,2.449,3.176,3.87,3.288c5.028,0.405,10.112,0.16,14.856,0.16c0-15.184,0-29.725,0-44.512c-7.917,0-14.744,0-22.258,0
		C208.787,32.95,209.802,46.518,211.176,60.052z M284.701,440.901c0,14.743,0,29.122,0,44.006c7.767,0,14.734,0,22.37,0
		c-1.262-14.609-2.515-29.075-3.808-44.006C296.484,440.901,290.469,440.901,284.701,440.901z M236.838,18.933
		c0,14.887,0,29.445,0,44.145c7.411,0,13.632,0,20.043,0c0-14.833,0-29.25,0-44.145C249.496,18.933,242.837,18.933,236.838,18.933z
		 M440.114,252.294c0-6.571,0-13.129,0-19.653c-14.578,0-29.101,0-44.028,0c0,6.868,0,12.882,0,19.653
		C410.802,252.294,425.186,252.294,440.114,252.294z M490.881,224.997c0-7.859,0-14.675,0-22.068
		c-13.872,1.116-27.404,2.128-40.904,3.431c-1.196,0.117-3.083,2.066-3.164,3.26c-0.344,5.245-0.149,10.524-0.149,15.377
		C461.862,224.997,476.222,224.997,490.881,224.997z M440.214,227.13c0-6.946,0-12.94,0-20c-14.563,0.79-29.063,1.577-44.037,2.394
		c0,6.265,0,12.009,0,17.606C411.039,227.13,425.423,227.13,440.214,227.13z M256.669,113.943c0-14.672,0-29.237,0-44.225
		c-6.208,0-12.42,0-18.238,0c0,14.778,0,29.178,0,44.225C245.236,113.943,250.707,113.943,256.669,113.943z M257.572,434.927
		c6.415,0,12.58,0,18.51,0c0-14.625,0-29.144,0-44.05c-6.571,0-12.187,0-18.51,0C257.572,405.727,257.572,420.093,257.572,434.927z
		 M74.658,252.978c0,6.318,0,12.364,0,18.501c14.438,0,28.95,0,43.975,0c0-6.652,0-12.42,0-18.501
		C103.814,252.978,89.433,252.978,74.658,252.978z M74.636,277.313c0,7.136,0,13.538,0,20.727
		c14.563-1.252,28.847-2.485,43.647-3.76c0-5.696,0-11.255,0-16.967C103.658,277.313,89.32,277.313,74.636,277.313z M231.694,69.672
		c-6.98,0-12.995,0-19.712,0c1.262,14.862,2.492,29.354,3.745,44.142c5.699,0,10.909,0,15.968,0
		C231.694,98.864,231.694,84.464,231.694,69.672z M345.547,234.412c0,6.446,0,11.852,0,17.717c14.496,0,29.009,0,43.777,0
		c0-6.177,0-12.183,0-17.717C374.334,234.412,360.131,234.412,345.547,234.412z M302.705,435.139
		c-1.243-14.815-2.455-29.3-3.694-44.171c-5.874,0-11.236,0-16.165,0c0,14.809,0,29.172,0,44.171
		C290.076,435.139,295.925,435.139,302.705,435.139z M125.019,252.815c0,5.893,0,11.474,0,16.755c14.853,0,29.519,0,44.437,0
		c0-6.209,0-11.193,0-16.755C154.31,252.815,139.913,252.815,125.019,252.815z M257.6,384.484c5.672,0,11.252,0,17.657,0
		c0-2.499,0.075-5.256-0.013-8.008c-0.337-10.193-0.899-20.387-1.012-30.58c-0.043-4.132-1.249-6.003-5.605-5.621
		c-3.417,0.29-6.88,0.053-11.027,0.053C257.6,355.524,257.6,369.74,257.6,384.484z M240.339,119.239c0,14.695,0,29.175,0,44.1
		c6.005,0,10.987,0,16.546,0c0-14.525,0-29.05,0-44.1C250.935,119.239,245.489,119.239,240.339,119.239z M389.188,228.737
		c0-6.316,0-11.891,0-18.277c-9.356,0.759-18.764,1.511-28.163,2.281c-1.215,0.097-2.418,0.329-3.629,0.446
		c-13.595,1.332-13.595,1.328-11.699,15.55C360.347,228.737,374.534,228.737,389.188,228.737z M125.175,276.241
		c0,6.09,0,11.442,0,17.332c13.957-1.105,27.501-2.079,41.014-3.403c1.296-0.125,3.183-2.312,3.404-3.754
		c0.506-3.326,0.156-6.783,0.156-10.175C154.557,276.241,140.047,276.241,125.175,276.241z M233.631,163.493
		c0-14.884,0-29.238,0-44.009c-6.131,0-11.268,0-17.32,0c1.202,14.597,2.401,29.055,3.638,44.009
		C225.295,163.493,229.687,163.493,233.631,163.493z M298.373,384.696c-1.171-14.007-2.235-27.707-3.609-41.38
		c-0.106-1.099-2.239-2.676-3.579-2.839c-3.37-0.409-6.821-0.134-10.138-0.134c0,14.918,0,29.259,0,44.353
		C287.475,384.696,292.661,384.696,298.373,384.696z M215.786,267.828c0-5.429,0-9.994,0-14.863c-13.525,0-26.686,0-40.292,0
		c0,5.082,0,9.872,0,14.863C189.034,267.828,202.201,267.828,215.786,267.828z M257.644,334.001c5.212,0,10.156,0,14.878,0
		c0-13.298,0-26.243,0-39.553c-5.412,0-9.972,0-14.878,0C257.644,307.715,257.644,320.644,257.644,334.001z M299.11,236.139
		c0,4.918,0,9.084,0,13.601c12.907,1.012,25.952,2.036,39.503,3.101c0-6.037,0-11.396,0-16.702
		C325.2,236.139,312.383,236.139,299.11,236.139z M241.894,169.928c0,13.26,0,26.179,0,39.58c5.431,0,9.969,0,15.1,0
		c0-13.006,0-25.941,0-39.58C251.535,169.928,246.731,169.928,241.894,169.928z M222.606,209.637c4.688,0,8.691,0,13.332,0
		c0-4.962,0.084-9.959-0.016-14.955c-0.141-6.914-0.162-13.855-0.824-20.724c-0.153-1.627-2.467-4-4.116-4.313
		c-3.095-0.592-6.424,0.075-10.706,0.262C221.07,183.451,221.826,196.372,222.606,209.637z M338.576,230.082
		c0-5.35,0-9.892,0-15.309c-13.089,1.117-26.127,2.233-39.531,3.373c0,4.221,0,8.16,0,11.936
		C312.262,230.082,325.188,230.082,338.576,230.082z M215.771,285.851c0-4.301,0-8.063,0-11.009
		c-12.833,0-25.212-0.081-37.589,0.156c-1.068,0.019-2.826,2.102-2.988,3.386c-0.431,3.36-0.147,6.813-0.147,11.005
		C189.322,288.146,202.457,287.009,215.771,285.851z M290.622,294.426c-4.229,0-7.976,0-11.052,0
		c0,12.477-0.094,24.594,0.144,36.699c0.021,1.117,1.995,2.985,3.241,3.147c3.354,0.443,6.802,0.153,11.158,0.153
		C292.898,320.513,291.774,307.621,290.622,294.426z"/>
	<path fill-rule="evenodd" clip-rule="evenodd" d="M238.827,274.739c-0.918,4.737-1.996,9.459-2.601,14.243
		c-0.1,0.775,1.78,2.171,2.982,2.57c0.478,0.163,2.261-1.57,2.314-2.501c0.247-4.601,0.112-9.22,0.112-13.835
		C240.698,275.061,239.764,274.898,238.827,274.739z"/>
	<path fill-rule="evenodd" clip-rule="evenodd" d="M239.415,303.292c0,6.209,0,12.421,0,18.626c0.456,0.021,0.912,0.037,1.368,0.057
		c0-6.234,0-12.461,0-18.694C240.326,303.286,239.871,303.289,239.415,303.292z"/>
</g>
<g>
	<path fill-rule="evenodd" clip-rule="evenodd" fill="#B42A25" d="M18.472,239.708c0,22.87,0,45.019,0,67.813
		c67.735-5.253,135.504-10.505,203.935-15.805c0-13.17,0-25.73,0-38.672c7.558,0,14.416,0,22.126,0c0,78.987,0,158.058,0,237.472
		c22.988,0,45.13,0,68.868,0c-5.693-68.05-11.346-135.678-17.117-204.637c-13.438,0-26.111,0-38.784,0
		c-0.119-0.69-0.238-1.378-0.356-2.067l-0.362-20.206h238.304c0-21.63,0-45.268,0-66.975c-67.76,5.345-135.522,10.69-203.985,16.09
		c0,12.798,0,25.367,0,38.896c-7.464,0.45-14.269,0.862-22.048,1.336c0-80.126,0-159.559,0-239.382c-23.088,0-45.252,0-68.057,0
		c0.85,10.949,1.593,21.636,2.523,32.301c2.689,30.899,5.481,61.789,8.17,92.688c2.158,24.774,4.3,49.559,6.243,74.354
		c0.315,4.092,1.983,5.025,5.75,4.958c10.968-0.208,21.942-0.075,33.194-0.075c0,7.418,0,14.3,0,21.912
		C177.51,239.708,98.214,239.708,18.472,239.708z M447.06,231.259c14.79,0,29.149,0,43.834,0c0,6.782,0,13.64,0,20.982
		c-14.946,0-29.334,0-43.834,0C447.06,245.286,447.06,238.699,447.06,231.259z M446.813,209.62c0.081-1.194,1.968-3.143,3.164-3.26
		c13.5-1.302,27.032-2.314,40.904-3.431c0,7.394,0,14.209,0,22.068c-14.659,0-29.019,0-44.218,0
		C446.663,220.144,446.469,214.865,446.813,209.62z M440.214,227.13c-14.791,0-29.175,0-44.037,0c0-5.597,0-11.341,0-17.606
		c14.975-0.817,29.475-1.604,44.037-2.394C440.214,214.19,440.214,220.185,440.214,227.13z M396.086,232.641
		c14.928,0,29.45,0,44.028,0c0,6.524,0,13.083,0,19.653c-14.929,0-29.313,0-44.028,0
		C396.086,245.523,396.086,239.508,396.086,232.641z M345.547,234.412c14.584,0,28.787,0,43.777,0c0,5.534,0,11.54,0,17.717
		c-14.769,0-29.281,0-43.777,0C345.547,246.263,345.547,240.857,345.547,234.412z M357.396,213.188
		c1.211-0.117,2.414-0.35,3.629-0.446c9.399-0.77,18.807-1.522,28.163-2.281c0,6.386,0,11.961,0,18.277c-14.653,0-28.841,0-43.491,0
		C343.801,214.515,343.801,214.52,357.396,213.188z M299.11,236.139c13.272,0,26.09,0,39.503,0c0,5.306,0,10.665,0,16.702
		c-13.551-1.065-26.596-2.089-39.503-3.101C299.11,245.223,299.11,241.057,299.11,236.139z M299.045,218.146
		c13.404-1.14,26.442-2.256,39.531-3.373c0,5.417,0,9.959,0,15.309c-13.389,0-26.314,0-39.531,0
		C299.045,226.306,299.045,222.366,299.045,218.146z M238.431,69.719c5.818,0,12.03,0,18.238,0c0,14.987,0,29.553,0,44.228
		c-5.962,0-11.433,0-18.238,0C238.431,98.901,238.431,84.497,238.431,69.719z M229.902,63.5c-4.744,0-9.828,0.245-14.856-0.16
		c-1.421-0.112-3.738-2.022-3.87-3.288c-1.374-13.534-2.389-27.102-3.532-41.064c7.514,0,14.341,0,22.258,0
		C229.902,33.774,229.902,48.315,229.902,63.5z M231.694,113.818c-5.059,0-10.269,0-15.968,0
		c-1.252-14.796-2.483-29.284-3.745-44.146c6.718,0,12.732,0,19.712,0C231.694,84.464,231.694,98.864,231.694,113.818z
		 M233.631,163.493c-3.944,0-8.335,0-13.682,0c-1.237-14.955-2.436-29.413-3.638-44.009c6.052,0,11.189,0,17.32,0
		C233.631,134.255,233.631,148.609,233.631,163.493z M235.938,209.637c-4.641,0-8.645,0-13.332,0
		c-0.781-13.265-1.537-26.186-2.33-39.729c4.282-0.188,7.611-0.854,10.706-0.262c1.649,0.312,3.963,2.686,4.116,4.313
		c0.662,6.869,0.684,13.81,0.824,20.724C236.023,199.678,235.938,204.674,235.938,209.637z M256.881,63.078
		c-6.412,0-12.632,0-20.043,0c0-14.7,0-29.258,0-44.145c6,0,12.658,0,20.043,0C256.881,33.828,256.881,48.245,256.881,63.078z
		 M256.885,163.338c-5.559,0-10.541,0-16.546,0c0-14.925,0-29.405,0-44.1c5.15,0,10.596,0,16.546,0
		C256.885,134.288,256.885,148.813,256.885,163.338z M256.994,209.507c-5.131,0-9.668,0-15.1,0c0-13.401,0-26.319,0-39.58
		c4.837,0,9.641,0,15.1,0C256.994,183.566,256.994,196.501,256.994,209.507z M272.521,334.001c-4.722,0-9.666,0-14.878,0
		c0-13.357,0-26.286,0-39.553c4.906,0,9.466,0,14.878,0C272.521,307.758,272.521,320.703,272.521,334.001z M275.257,384.484
		c-6.405,0-11.985,0-17.657,0c0-14.744,0-28.96,0-44.156c4.147,0,7.61,0.237,11.027-0.053c4.356-0.382,5.563,1.489,5.605,5.621
		c0.112,10.193,0.675,20.387,1.012,30.58C275.332,379.229,275.257,381.985,275.257,384.484z M284.701,440.901
		c5.768,0,11.783,0,18.563,0c1.293,14.931,2.546,29.396,3.808,44.006c-7.636,0-14.604,0-22.37,0
		C284.701,470.023,284.701,455.645,284.701,440.901z M282.846,390.968c4.929,0,10.291,0,16.165,0
		c1.239,14.871,2.451,29.355,3.694,44.171c-6.78,0-12.629,0-19.859,0C282.846,420.14,282.846,405.776,282.846,390.968z
		 M281.047,340.344c3.316,0,6.768-0.275,10.138,0.134c1.34,0.163,3.473,1.74,3.579,2.839c1.374,13.673,2.438,27.373,3.609,41.38
		c-5.712,0-10.898,0-17.326,0C281.047,369.603,281.047,355.262,281.047,340.344z M279.57,294.426c3.076,0,6.823,0,11.052,0
		c1.152,13.195,2.276,26.087,3.491,40c-4.356,0-7.804,0.29-11.158-0.153c-1.246-0.162-3.22-2.03-3.241-3.147
		C279.477,319.02,279.57,306.902,279.57,294.426z M257.8,440.923c6.736,0,12.96,0,20.228,0c0,14.909,0,29.431,0,44.29
		c-0.831,0.051-2.027,0.175-3.217,0.182c-5.496,0.024-10.996,0.013-17.011,0.013C257.8,470.089,257.8,455.563,257.8,440.923z
		 M257.572,390.877c6.324,0,11.939,0,18.51,0c0,14.906,0,29.425,0,44.05c-5.931,0-12.096,0-18.51,0
		C257.572,420.093,257.572,405.727,257.572,390.877z M215.786,267.828c-13.585,0-26.751,0-40.292,0c0-4.991,0-9.781,0-14.863
		c13.607,0,26.767,0,40.292,0C215.786,257.834,215.786,262.399,215.786,267.828z M175.193,278.384
		c0.162-1.284,1.92-3.367,2.988-3.386c12.376-0.237,24.756-0.156,37.589-0.156c0,2.945,0,6.708,0,11.009
		c-13.313,1.158-26.449,2.295-40.724,3.538C175.046,285.197,174.762,281.744,175.193,278.384z M125.175,276.241
		c14.872,0,29.381,0,44.575,0c0,3.392,0.35,6.849-0.156,10.175c-0.222,1.442-2.108,3.629-3.404,3.754
		c-13.513,1.324-27.058,2.298-41.014,3.403C125.175,287.684,125.175,282.331,125.175,276.241z M125.019,252.815
		c14.894,0,29.291,0,44.437,0c0,5.562,0,10.546,0,16.755c-14.918,0-29.584,0-44.437,0
		C125.019,264.289,125.019,258.708,125.019,252.815z M118.632,271.479c-15.024,0-29.537,0-43.975,0c0-6.137,0-12.183,0-18.501
		c14.775,0,29.156,0,43.975,0C118.632,259.059,118.632,264.826,118.632,271.479z M74.636,277.313c14.685,0,29.022,0,43.647,0
		c0,5.712,0,11.271,0,16.967c-14.8,1.274-29.084,2.508-43.647,3.76C74.636,290.851,74.636,284.448,74.636,277.313z M54.089,273.374
		c-10.112,0.106-20.228,0.019-30.468,0.019c0-6.577,0-13.392,0-20.468c14.847,0,29.266,0,44.578,0c0,2.426-0.006,4.229,0.006,6.033
		C68.309,273.162,68.309,273.225,54.089,273.374z M23.472,278.901c15.171,0,29.672,0,44.412,0c0,6.228,0,12.442,0,19.15
		c-14.95,0.993-29.584,1.968-44.412,2.951C23.472,293.555,23.472,286.925,23.472,278.901z"/>
</g>
</svg>
