<?xml version="1.0" encoding="utf-8"?>
<!-- Generator: Adobe Illustrator 16.0.2, SVG Export Plug-In . SVG Version: 6.00 Build 0)  -->
<!DOCTYPE svg PUBLIC "-//W3C//DTD SVG 1.1//EN" "http://www.w3.org/Graphics/SVG/1.1/DTD/svg11.dtd">
<svg version="1.1" id="Layer_1" xmlns="http://www.w3.org/2000/svg" xmlns:xlink="http://www.w3.org/1999/xlink" x="0px" y="0px"
	 width="533.709px" height="538.994px" viewBox="0 0 533.709 538.994" enable-background="new 0 0 533.709 538.994"
	 xml:space="preserve">
<g>
	<path fill-rule="evenodd" clip-rule="evenodd" fill="#B42A25" d="M279.906,233.364c1.204-2.856,5.91-5.99,9.036-6.028
		c35.676-0.421,71.351-0.095,107.034-0.438c6.123-0.059,9.06,2.278,10.623,7.542c4.179,14.024,9.822,27.816,12.125,42.143
		c3.287,20.494,0.298,40.771-18.157,53.66c-9.289,6.498-21.43,8.816-32.038,13.566c-4.011,1.801-9.113,4.355-10.691,7.91
		c-13.117,29.543-13.872,60.586-10.494,92.207c2.052,19.211,11.844,30.887,30.01,36.594c5.178,1.629,11.546,3.863,14.275,7.904
		c4.02,5.965,8.709,5.652,14.216,5.641c19.813-0.047,39.625-0.016,60.895-0.016c-2.967,6.123-5.636,10.59-7.359,15.395
		c-2.913,8.205-7.938,10.656-16.838,10.553c-47.794-0.545-95.579-0.258-143.365-0.258c-76.603,0-153.196,0.029-229.793-0.096
		c-3.279-0.004-8.229-0.34-9.533-2.367c-4.458-6.941-7.634-14.711-12.083-23.764c26.562,0,51.259,0,76.631,0c0-4.98,0-8.869,0-12.76
		c0.008-71.686-0.164-143.371,0.115-215.055c0.076-19.232,0.194-38.629,2.627-57.647c3.1-24.167,16.267-41.437,40.453-49.37
		c3.371-1.105,7.573-5.908,7.836-9.281c1.96-24.716,3.603-49.494,4.076-74.277c0.217-11.165-2.589-22.371-3.768-33.587
		c-0.255-2.469-0.034-6.953,1.015-7.289c9.277-2.99,5.292-11.083,7.561-16.745c1.689-4.214,7.279-9.55,11.066-9.5
		c3.878,0.055,9.731,5.418,11.02,9.6c1.842,5.973-1.354,13.424,7.378,16.819c1.163,0.458,0.748,5.981,0.404,9.077
		c-0.549,4.814-2.299,9.544-2.433,14.341c-0.526,17.661-1.144,35.348-0.644,52.998c0.362,13.026,1.975,26.07,3.981,38.962
		c0.519,3.306,4.057,7.83,7.146,8.791c25.578,7.944,38.716,26.175,41.79,51.513c2.356,19.38,2.334,39.05,3.333,57.986
		C271.266,256.969,275.04,244.941,279.906,233.364z M297.019,486.337c2.639-3.439,8.374-4.943,12.987-6.354
		c17.724-5.414,27.065-17.301,28.423-35.592c2.09-28.17,1.671-56.117-7.168-83.385c-3.31-10.219-8.138-16.525-20.256-18.852
		c-21.284-4.088-37.452-16.301-44.186-38.367c0,62.969,0,125.939,0,189.957C278.267,493.825,288.874,496.933,297.019,486.337z
		 M235.962,267.236c-26.84,0-53.688,0-81.093,0c0,16.36,0,32.556,0,49.604c26.848,0,53.673,0,81.093,0
		C235.962,300.44,235.962,284.247,235.962,267.236z"/>
</g>
<g>
	<path fill-rule="evenodd" clip-rule="evenodd" fill="#050606" d="M47.767,493.513c4.45,9.053,7.626,16.822,12.083,23.764
		c1.304,2.027,6.253,2.363,9.533,2.367c76.597,0.125,153.191,0.096,229.793,0.096c47.786,0,95.571-0.287,143.365,0.258
		c8.899,0.104,13.925-2.348,16.838-10.553c1.724-4.805,4.393-9.271,7.359-15.395c-19.622,0-190.86-0.24-199.92-0.305v-225.77
		c-0.062,26.49-0.442-38.493-2.799-57.873c-3.073-25.338-16.211-43.568-41.79-51.513c-3.088-0.961-6.627-5.485-7.146-8.791
		c-2.006-12.892-3.619-25.937-3.981-38.962c-0.5-17.65,0.118-35.337,0.644-52.998c0.134-4.797,1.884-9.527,2.433-14.341
		c0.343-3.096,0.759-8.62-0.404-9.077c-8.732-3.396-5.537-10.846-7.378-16.819c-1.289-4.181-7.142-9.544-11.02-9.6
		c-3.787-0.049-9.376,5.287-11.066,9.5c-2.269,5.662,1.716,13.755-7.561,16.745c-1.049,0.335-1.27,4.82-1.015,7.289
		c1.178,11.216,3.985,22.423,3.768,33.587c-0.473,24.783-2.116,49.561-4.076,74.277c-0.263,3.373-4.465,8.175-7.836,9.281
		c-24.187,7.933-37.353,25.203-40.453,49.37c-2.433,19.018-2.551,38.415-2.627,57.647c-0.279,71.684-0.107,143.369-0.115,215.055
		v12.76H47.767z M154.869,267.236h81.093v49.604h-81.093V267.236z"/>
</g>
<polygon fill-rule="evenodd" clip-rule="evenodd" fill="#B42A25" points="231.806,312.952 158.72,312.952 158.72,270.685 "/>
</svg>
