<?xml version="1.0" encoding="utf-8"?>
<!-- Generator: Adobe Illustrator 17.1.0, SVG Export Plug-In . SVG Version: 6.00 Build 0)  -->
<!DOCTYPE svg PUBLIC "-//W3C//DTD SVG 1.1//EN" "http://www.w3.org/Graphics/SVG/1.1/DTD/svg11.dtd">
<svg version="1.1" id="Layer_1" xmlns="http://www.w3.org/2000/svg" xmlns:xlink="http://www.w3.org/1999/xlink" x="0px" y="0px"
	 viewBox="0 0 256 256" enable-background="new 0 0 256 256" xml:space="preserve">
<path fill-rule="evenodd" clip-rule="evenodd" fill="#FDC336" d="M128,256c70.5,0,128-57.6,128-128C256,57.5,198.5,0,128,0
	C57.5,0,0,57.5,0,128C0,198.4,57.5,256,128,256z"/>
<path fill="#FDDD58" d="M185.3,79c0,41.4-33.6,74.9-75.1,74.9C68.6,153.9,35,120.4,35,79c0-41.4,33.6-74.9,75.1-74.9
	C151.6,4.1,185.3,37.7,185.3,79z"/>
<g>
	<path fill="#FFFFFF" d="M101.7,160.9c-18.7,13.1-47.6,13.8-64.4,4c-25.6-15-30-55.1-9.6-89.6C48,40.7,85.3,5.3,110.9,20.3
		C136.5,35.3,111.6,153.9,101.7,160.9z"/>
	<path fill="#FFFFFF" d="M154.2,160.9c18.7,13.1,47.6,13.8,64.4,4c25.6-15,30-55.1,9.6-89.6C208,40.7,170.7,5.3,145.1,20.3
		C119.5,35.3,144.3,153.9,154.2,160.9z"/>
	<path fill="#FF9800" d="M213.4,164c25.1-14.6,29.4-53.5,9.5-87C203,43.6,166.5,9.2,141.3,23.8c0,0,0,0-0.1,0
		c1.1-1.5,2.4-2.7,3.9-3.5c25.6-15,62.9,20.4,83.2,54.9c20.3,34.5,16,74.6-9.6,89.6c-11.8,6.9-29.5,8.6-45.6,4.5
		C187.6,172,203,170.1,213.4,164z"/>
	<path fill="#FF9800" d="M42.5,164c-25.1-14.6-29.4-53.5-9.5-87C53,43.6,89.5,9.2,114.7,23.8c0,0,0,0,0.1,0
		c-1.1-1.5-2.4-2.7-3.9-3.5C85.3,5.3,48,40.7,27.7,75.2c-20.3,34.5-16,74.6,9.6,89.6c11.8,6.9,29.5,8.6,45.6,4.5
		C68.4,172,53,170.1,42.5,164z"/>
	<path fill="#FF9800" d="M213.4,164c25.1-14.6,29.4-53.5,9.5-87C203,43.6,166.5,9.2,141.3,23.8c0,0,0,0-0.1,0
		c1.1-1.5,2.4-2.7,3.9-3.5c25.6-15,62.9,20.4,83.2,54.9c20.3,34.5,16,74.6-9.6,89.6c-11.8,6.9-29.5,8.6-45.6,4.5
		C187.6,172,203,170.1,213.4,164z"/>
</g>
<path fill="#CC1700" d="M110.6,104.5c-1.2-17.5-19.5-23-26.9-22.4c-4.2,0.3-7.9,2-10.9,4.6c-0.3,0.2-2.8,3.5-4.5,3.6
	c-1.8,0.1-4.7-2.8-5-3c-3.3-2.1-7.2-3.3-11.4-3c-7.8,0.5-24.9,5.9-23.6,25.9c0,0,0,0,0,0v0c0,0.4,0.1,0.7,0.1,1.1c0,0.1,0,0.2,0,0.4
	c0,0.2,0,0.3,0.1,0.5c0.6,3.8,2.1,7.3,4.2,10.3c2.9,4.4,7,8.4,11.4,11.5c4.2,3.5,8.8,6.2,13,8.1c1.6,0.9,5.3,2.9,6.6,3.9
	c1.6,1.3,6.2,6,6.2,6l0.1,0c0.6,0.5,1.4,0.8,2.3,0.8c0,0,0.1,0,0.1,0c0,0,0.1,0,0.1,0c0.9-0.1,1.7-0.5,2.2-1.1l0.1,0
	c0,0,3.9-5.2,5.3-6.8c1.1-1.2,4.5-3.7,6-4.8c3.9-2.4,8.1-5.8,11.8-9.8c3.9-3.7,7.4-8.2,9.7-13c1.7-3.2,2.7-6.9,2.8-10.8
	c0-0.2,0-0.3,0-0.5c0-0.1,0-0.2,0-0.4C110.6,105.2,110.6,104.9,110.6,104.5C110.6,104.5,110.6,104.5,110.6,104.5
	C110.6,104.5,110.6,104.5,110.6,104.5z"/>
<path fill="#CC1700" d="M226.6,104.5c-1.2-17.5-19.4-23-26.9-22.4c-4.2,0.3-7.9,2-10.9,4.6c-0.3,0.2-2.8,3.5-4.5,3.6
	c-1.8,0.1-4.7-2.8-5-3c-3.3-2.1-7.2-3.3-11.4-3c-7.8,0.5-24.9,5.9-23.6,25.9c0,0,0,0,0,0v0c0,0.4,0.1,0.7,0.1,1.1c0,0.1,0,0.2,0,0.4
	c0,0.2,0,0.3,0.1,0.5c0.6,3.8,2.1,7.3,4.2,10.3c2.9,4.4,7,8.4,11.4,11.5c4.2,3.5,8.8,6.2,13,8.1c1.6,0.9,5.3,2.9,6.6,3.9
	c1.6,1.3,6.2,6,6.2,6l0.1,0c0.6,0.5,1.4,0.8,2.3,0.8c0,0,0.1,0,0.1,0c0,0,0.1,0,0.1,0c0.9-0.1,1.7-0.5,2.2-1.1l0.1,0
	c0,0,3.9-5.2,5.3-6.8c1.1-1.2,4.5-3.7,6-4.8c3.9-2.4,8.1-5.8,11.8-9.8c3.9-3.7,7.4-8.2,9.7-13c1.7-3.2,2.7-6.9,2.8-10.8
	c0-0.2,0-0.3,0-0.5c0-0.1,0-0.2,0-0.4C226.6,105.2,226.6,104.9,226.6,104.5C226.6,104.5,226.6,104.5,226.6,104.5
	C226.6,104.5,226.6,104.5,226.6,104.5z"/>
<path fill="#FDDD58" d="M200.3,185.8c0,0-53.3,10.3-73.1,11.2c-40.5,1.7-80-5.9-80-5.9s45.4,26.6,73.4,37.4
	c3.4,1.8,7.4,2.9,11.8,3.1c12.3,0.5,26.1-6.2,26.5-15.5c0-0.9,0.1-5,0-5.9C169.2,203.4,163.1,208.8,200.3,185.8z"/>
<path fill="#CC1700" d="M197.7,186.9c3.2-1.6,6.1-4.3-0.7-3c-18.5,3.6-54.8,10.5-69.3,10.9c-31.4,0.8-65.2-4.8-78.7-6.4
	c-3.8-0.5-4,2.1-0.6,3.6c13.8,5.8,50.6,21.2,73,28.4c3.4,1.5,7.4,2.5,11.8,2.6c12.2,0.5,22.4-5.2,22.7-12.7c0-0.7,0-1.4-0.2-2.1
	C164.9,203.3,170.1,200.7,197.7,186.9z"/>
<path fill="#FFC1E7" d="M172.9,89.4c-3.2-1.9-10,0-13,1.3c-4.9,2.1-8.9,7.1-8.2,12.7c0.2,1.7,2.6,2,3.1,0.7c1.5-1,2.1-2,2.9-3.8
	c1.4-3.3,6-5.1,9.2-6.1c2.2-0.6,5-0.1,6.7-1.9C174.4,91.4,173.9,90.1,172.9,89.4z"/>
<g>
	<path fill="#FFC1E7" d="M57.7,89.4c-3.2-1.9-10,0-13,1.3c-4.9,2.1-8.9,7.1-8.2,12.7c0.2,1.7,2.6,2,3.1,0.7c1.5-1,2.1-2,2.9-3.8
		c1.4-3.3,6-5.1,9.2-6.1c2.2-0.6,5-0.1,6.7-1.9C59.2,91.4,58.7,90.1,57.7,89.4z"/>
	<path fill="#FFC1E7" d="M85.6,85.6c-1.3-0.7-2.8-0.6-4.1-0.1c-3,0.5-8.4,3-8,6.3c0.2,1.7,1.4,3.1,3.2,2.7c2.1-0.5,3.4-2.4,5.7-2.8
		c1.5-0.3,3.1-0.6,4-1.9C87.2,88.5,87,86.3,85.6,85.6z"/>
	<path fill="#FFC1E7" d="M200.8,85.6c-1.3-0.7-2.8-0.6-4.1-0.1c-3,0.5-8.4,3-8,6.3c0.2,1.7,1.4,3.1,3.2,2.7c2.1-0.5,3.4-2.4,5.7-2.8
		c1.5-0.3,3.1-0.6,4-1.9C202.4,88.5,202.2,86.3,200.8,85.6z"/>
</g>
</svg>
