<?xml version="1.0" encoding="utf-8"?>
<!-- Generator: Adobe Illustrator 17.1.0, SVG Export Plug-In . SVG Version: 6.00 Build 0)  -->
<!DOCTYPE svg PUBLIC "-//W3C//DTD SVG 1.1//EN" "http://www.w3.org/Graphics/SVG/1.1/DTD/svg11.dtd">
<svg version="1.1" id="Layer_1" xmlns="http://www.w3.org/2000/svg" xmlns:xlink="http://www.w3.org/1999/xlink" x="0px" y="0px"
	 viewBox="0 0 256 256" enable-background="new 0 0 256 256" xml:space="preserve">
<g>
	<g>
		<g>
			<path fill-rule="evenodd" clip-rule="evenodd" fill="#FDC336" d="M128,256c70.5,0,128-57.6,128-128C256,57.5,198.5,0,128,0
				C57.5,0,0,57.5,0,128C0,198.4,57.5,256,128,256z"/>
			<ellipse fill="#FDDD58" cx="110.1" cy="79" rx="75.1" ry="74.9"/>
		</g>
		<path fill="#FDDD58" d="M179.5,177.3c-2.4,0.5,1.5,29-27.1,31.8c-22.8,2.2-31.6,13.1-31.9,13.5c-0.9,1.5-0.9,6.3,3.3,7.4
			c2.3,0.6,6.6-1.7,7.5-3.2c0.2-0.2,2-5.1,18.3-5.1c14.5,0,22.2-1.7,26.6-3.9c31-15.8,13.6-36.5,13.1-37.2
			C188.1,179.2,185.6,176,179.5,177.3z"/>
		<path fill="#CC1700" d="M165.1,198.6c-7.7,7.2-17.7,4.3-27,6.7c-6.4,1.7-12.9,5.8-16.6,11.4c-4.8,7.2,0.3,16.1,5.2,8.3
			c10-15.7,26.5-9.6,42.6-12.9c15.9-3.3,34.8-40.4,6-34.9C169.5,178.3,171,193.1,165.1,198.6z"/>
		<path fill-rule="evenodd" clip-rule="evenodd" fill="#333333" d="M250.5,88.5c-2-15-111.2-5.4-116.3,1.4c-0.4,0.5-0.7,1-1,1.5
			l-5.2,0.1l-5.1-0.1c-0.3-0.5-0.7-1-1-1.5C116.7,83,7.5,73.5,5.5,88.5c-4.4,32.1,76.9,103,107.7,49.3c2.8-3.1,8.2-8.1,14.8-8.1
			c6.6,0,12.1,5.2,14.9,8.3C173.7,191.3,254.9,120.5,250.5,88.5z"/>
	</g>
</g>
</svg>
