<?xml version="1.0" encoding="utf-8"?>
<!-- Generator: Adobe Illustrator 17.1.0, SVG Export Plug-In . SVG Version: 6.00 Build 0)  -->
<!DOCTYPE svg PUBLIC "-//W3C//DTD SVG 1.1//EN" "http://www.w3.org/Graphics/SVG/1.1/DTD/svg11.dtd">
<svg version="1.1" id="Layer_1" xmlns="http://www.w3.org/2000/svg" xmlns:xlink="http://www.w3.org/1999/xlink" x="0px" y="0px"
	 viewBox="0 0 256 256" enable-background="new 0 0 256 256" xml:space="preserve">
<g>
	<path fill-rule="evenodd" clip-rule="evenodd" fill="#FDC336" d="M128,256c70.5,0,128-57.6,128-128C256,57.5,198.5,0,128,0
		C57.5,0,0,57.5,0,128C0,198.4,57.5,256,128,256z"/>
	<path fill="#FDDD58" d="M185.3,79c0,41.4-33.6,74.9-75.1,74.9C68.6,153.9,35,120.4,35,79c0-41.4,33.6-74.9,75.1-74.9
		C151.6,4.1,185.3,37.7,185.3,79z"/>
</g>
<path fill="#FDDD58" d="M111.5,207.7c0,0-5.5,16.5,11.2,14.7c6.3-0.7,12.3-5.8,18.5-7.1c11.1-2.3,19.6-1.6,21.7-1.6
	c3.2-1.2,3.5-4.1,3.5-4.1s-28.7-3.5-38.3-3.5C123.9,206.2,111.5,207.7,111.5,207.7z"/>
<path fill="#CC1700" d="M112.1,212.2c2,4,6.1,4.8,10.8,1.5c4.6-3.3,22.6-4,30.5-3.3c8,0.7,13.9,0,13.9,0s-11.1-7.5-26.5-7.9
	C117.8,201.8,108.8,205.6,112.1,212.2z"/>
<path fill="#FFFFFF" d="M101.7,160.9c-18.7,13.1-47.6,13.8-64.4,4c-25.6-15-30-55.1-9.6-89.6C48,40.7,85.3,5.3,110.9,20.3
	C136.5,35.3,111.6,153.9,101.7,160.9z"/>
<path fill="#FFFFFF" d="M154.2,160.9c18.7,13.1,47.6,13.8,64.4,4c25.6-15,30-55.1,9.6-89.6C208,40.7,170.7,5.3,145.1,20.3
	C119.5,35.3,144.3,153.9,154.2,160.9z"/>
<path fill="#FF9800" d="M42.5,164c-25.1-14.6-29.4-53.5-9.5-87C53,43.6,89.5,9.2,114.7,23.8c0,0,0,0,0.1,0c-1.1-1.5-2.4-2.7-3.9-3.5
	C85.3,5.3,48,40.7,27.7,75.2c-20.3,34.5-16,74.6,9.6,89.6c11.8,6.9,29.5,8.6,45.6,4.5C68.4,172,53,170.1,42.5,164z"/>
<g>
	<ellipse fill="#3E99DD" cx="75" cy="140.9" rx="14.8" ry="14.7"/>
	<ellipse fill-rule="evenodd" clip-rule="evenodd" fill="#333333" cx="75" cy="140.9" rx="6.9" ry="6.9"/>
	<path fill="#FFFFFF" d="M83.9,135.1c0,1.9-1.6,3.5-3.5,3.5c-1.9,0-3.5-1.6-3.5-3.5c0-1.9,1.6-3.5,3.5-3.5
		C82.3,131.6,83.9,133.2,83.9,135.1z"/>
</g>
<g>
	<ellipse fill="#3E99DD" cx="181" cy="140.9" rx="14.8" ry="14.7"/>
	<ellipse fill-rule="evenodd" clip-rule="evenodd" fill="#333333" cx="181" cy="140.9" rx="6.9" ry="6.9"/>
	<ellipse fill="#FFFFFF" cx="186.4" cy="135.1" rx="3.5" ry="3.5"/>
</g>
<path fill-rule="evenodd" clip-rule="evenodd" fill="#B3E1FF" d="M92.6,161.4c-4.1,0-11.4-4.4-16.3-2.6c-4.6,1.8-5.1,10.5,2.1,10.7
	c10.6,0.3,23.5-8.5,23.5-8.5S96.7,161.4,92.6,161.4z"/>
<path fill-rule="evenodd" clip-rule="evenodd" fill="#B3E1FF" d="M219,144.1c-4.7,0.5-7,7.3-8.5,11.9c-3.9,11.4-7.6,10.8-9.2,5.5
	c-0.7-2.3-5.3-5-10.6-3.4c-4.6,1.4-6.2,4.4-10.6,6.1c-4.4,1.7-18.5,1-18.5,1c18.3,8.9,40.8,7.4,55.6-1.3c0,0,7.9-5.4,7.9-5.4
	S232.4,142.7,219,144.1z"/>
<path fill-rule="evenodd" clip-rule="evenodd" fill="#B3E1FF" d="M60.8,165.8c-5.9-2.1-11.5-5.6-13.6-5.6
	c-15.3-1.8-20.7,15.9-21.4,21c-1.3,9.8,3.1,18.4,9.7,19.3c6.3,0.8,12.4-5.7,14-14.7c0,0,0.2-1.1,0.2-1.5c0.7-5.2-0.2-10-2.2-13.6
	c0.4-0.7,0.9-1.5,1.5-2.2c0,0,8.1,1.8,13.9,2.1c7,0.3,9.1,0,9.1,0C72,171.1,67.7,169.2,60.8,165.8z"/>
<path fill-rule="evenodd" clip-rule="evenodd" fill="#B3E1FF" d="M220.8,206.1c-2.9-0.5-6.3-3.9-7.2-5.6c-4.1-8.7-3.8-12.8-2.8-22.7
	c0,0-13,28.7-7.8,46.1c2.6,8.7,8.2,10,12.7,9.9c8.4-0.2,11.6-7.3,11.6-15.3C227.3,211.6,225.2,207.7,220.8,206.1z"/>
<path fill="#FF9800" d="M213.4,164c25.1-14.6,29.4-53.5,9.5-87C203,43.6,166.4,9.2,141.3,23.8c0,0,0,0-0.1,0
	c1.1-1.5,2.4-2.7,3.9-3.5c25.6-15,62.9,20.4,83.2,54.9c20.3,34.5,16,74.6-9.6,89.6c-11.8,6.9-29.5,8.6-45.6,4.5
	C187.6,172,202.9,170.1,213.4,164z"/>
</svg>
