<?xml version="1.0" encoding="utf-8"?>
<!-- Generator: Adobe Illustrator 17.1.0, SVG Export Plug-In . SVG Version: 6.00 Build 0)  -->
<!DOCTYPE svg PUBLIC "-//W3C//DTD SVG 1.1//EN" "http://www.w3.org/Graphics/SVG/1.1/DTD/svg11.dtd">
<svg version="1.1" id="Layer_1" xmlns="http://www.w3.org/2000/svg" xmlns:xlink="http://www.w3.org/1999/xlink" x="0px" y="0px"
	 viewBox="0 0 256 256" enable-background="new 0 0 256 256" xml:space="preserve">
<g>
	<path fill-rule="evenodd" clip-rule="evenodd" fill="#CC1700" d="M128,256c70.5,0,128-57.6,128-128C256,57.5,198.5,0,128,0
		C57.5,0,0,57.5,0,128C0,198.4,57.5,256,128,256z"/>
	<ellipse fill="#F7310E" cx="110.1" cy="79" rx="75.1" ry="74.9"/>
</g>
<path fill-rule="evenodd" clip-rule="evenodd" fill="#333333" d="M210.9,5c-2.2,8-7,19-21.9,23.8c-1.3,0.2-2.6,0.5-3.8,1
	c-0.3,0.1-0.5,0.1-0.8,0.2l0.1,0.2c-3.1,1.6-5.1,4.5-5.1,7.8c0,5.1,4.9,9.3,11,9.3c2.3,0,4.5-0.6,6.3-1.6l0,0
	c0,0,14.4-7.8,20.5-21.4C223.5,10.6,214.9-9.3,210.9,5z"/>
<path fill-rule="evenodd" clip-rule="evenodd" fill="#333333" d="M45.1,5c2.2,8,7,19,21.9,23.8c1.3,0.2,2.6,0.5,3.8,1
	c0.2,0.1,0.5,0.1,0.8,0.2l-0.1,0.2c3.1,1.6,5.1,4.5,5.1,7.8c0,5.1-4.9,9.3-11,9.3c-2.3,0-4.5-0.6-6.3-1.6l0,0
	c0,0-14.4-7.8-20.5-21.4C32.5,10.6,41.1-9.3,45.1,5z"/>
<g>
	<path fill-rule="evenodd" clip-rule="evenodd" fill="#FFFFFF" d="M17.2,101.8c3.8-12.7,10.5-26.3,19.2-37.3
		c5.6,0.2,26.1,1.9,37.4,17.7c4.8,6.8,26.6,32,50.3,39.3c-0.2,0.7-0.5,1.2-0.9,1.6c-13.8,13.8-45.8,35.3-65.2,35.8
		C27.4,159.6,2.3,151.6,17.2,101.8z"/>
	<path fill-rule="evenodd" clip-rule="evenodd" fill="#333333" d="M78.9,76.6c-9.9-16.8-30.2-20.2-35.7-20.9
		c-4.8,5.4-5.4,7.6-6.8,8.8c5.6,0.2,26.1,1.9,37.4,17.7c4.8,6.8,26.6,32,50.3,39.3c-0.1,0.2-0.2,0.5-0.3,0.7
		c0.3-0.2,0.6-0.5,0.9-0.7c0.4-0.3,0.7-0.8,1-1.5C102.7,110.7,83.2,83.8,78.9,76.6z"/>
	<path fill-rule="evenodd" clip-rule="evenodd" fill="#FFFFFF" d="M238.8,101.8c-3.8-12.7-10.5-26.3-19.2-37.3
		c-5.6,0.2-26.1,1.9-37.4,17.7c-4.8,6.8-26.6,32-50.3,39.3c0.2,0.7,0.5,1.2,0.9,1.6c13.8,13.8,45.8,35.3,65.2,35.8
		C228.6,159.6,253.7,151.6,238.8,101.8z"/>
	<path fill-rule="evenodd" clip-rule="evenodd" fill="#333333" d="M177.1,76.6c9.9-16.8,30.2-20.2,35.7-20.9c2.6,2.9,4.1,5,6.8,8.8
		c-5.6,0.2-26.1,1.9-37.4,17.7c-4.8,6.8-26.6,32-50.3,39.3c0.1,0.2,0.2,0.5,0.3,0.7c-0.3-0.2-0.6-0.5-0.9-0.7
		c-0.4-0.3-0.7-0.8-1-1.5C153.3,110.7,172.8,83.8,177.1,76.6z"/>
	<g>
		<ellipse fill-rule="evenodd" clip-rule="evenodd" fill="#FDC336" cx="80.3" cy="124.9" rx="21.4" ry="21.4"/>
		<ellipse fill-rule="evenodd" clip-rule="evenodd" fill="#333333" cx="80.3" cy="124.9" rx="9.3" ry="13.9"/>
		<ellipse fill="#FFFFFF" cx="88.1" cy="116.5" rx="5.1" ry="5.1"/>
	</g>
	<g>
		<ellipse fill-rule="evenodd" clip-rule="evenodd" fill="#FDC336" cx="174.2" cy="123.8" rx="21.4" ry="21.4"/>
		<path fill-rule="evenodd" clip-rule="evenodd" fill="#333333" d="M183.5,123.8c0,7.7-4.2,13.9-9.3,13.9c-5.1,0-9.3-6.2-9.3-13.9
			c0-7.7,4.2-13.9,9.3-13.9C179.4,109.9,183.5,116.1,183.5,123.8z"/>
		<ellipse fill="#FFFFFF" cx="182" cy="115.5" rx="5.1" ry="5.1"/>
	</g>
</g>
<path fill="#FDDD58" d="M174.7,191.2c-6.9,0-35.5,19.6-48.5,19.6c-15.9,0-39.7-19.6-44.8-19.6c-14.5,0-23.2,12.1-19.4,27.1
	c4,15.7,27.3-1.2,65.2-1.2c22.3,0,64.7,10.1,67,1.2C197.9,203.3,189.2,191.2,174.7,191.2z"/>
<path fill="#FF9800" d="M174.4,189.9c-6.9,0-35,19.9-48,19.9c-15.8,0-39.8-19.9-44.8-19.9c-14.5,0-23.1,10.2-19.3,22.7
	c4,13.2,27.2-1,64.9-1c22.2,0,64.4,8.5,66.7,1C197.5,200.1,188.9,189.9,174.4,189.9z"/>
</svg>
