<?xml version="1.0" encoding="utf-8"?>
<!-- Generator: Adobe Illustrator 17.1.0, SVG Export Plug-In . SVG Version: 6.00 Build 0)  -->
<!DOCTYPE svg PUBLIC "-//W3C//DTD SVG 1.1//EN" "http://www.w3.org/Graphics/SVG/1.1/DTD/svg11.dtd">
<svg version="1.1" id="Layer_1" xmlns="http://www.w3.org/2000/svg" xmlns:xlink="http://www.w3.org/1999/xlink" x="0px" y="0px"
	 viewBox="0 0 256 256" enable-background="new 0 0 256 256" xml:space="preserve">
<g>
	<g>
		<path fill-rule="evenodd" clip-rule="evenodd" fill="#FDC336" d="M128,256c70.5,0,128-57.6,128-128C256,57.5,198.5,0,128,0
			C57.5,0,0,57.5,0,128C0,198.4,57.5,256,128,256z"/>
		<path fill="#FDDD58" d="M185.3,79c0,41.4-33.6,74.9-75.1,74.9C68.6,153.9,35,120.4,35,79c0-41.4,33.6-74.9,75.1-74.9
			C151.6,4.1,185.3,37.7,185.3,79z"/>
	</g>
	<g>
		<path fill="#FFFFFF" d="M111.6,34.5c-25.6-9.8-62.9,13.4-83.2,36c-18.9,21.1-8.8,52.6,9.6,56.6c4,0.9,7.5,1.5,15.4-0.9
			c6.7-2,12.4-9.7,22.2-9.7c14.3,0,17.2,8.9,28,5.1C114.1,118.1,137.3,44.3,111.6,34.5z"/>
		<path fill="#FF9800" d="M28.5,70.5c20.3-22.6,57.6-45.9,83.2-36c2.7,1,4.9,2.8,6.6,5.1c-1.3-1.1-2.8-2-4.4-2.6
			c-25.9-9.9-61.5,12.9-80.5,34c-17,18.9-9,47.9,7.4,52.6c3.7,1,6.8,1.8,14.1,0.1c6.2-1.4,11.7-8.2,21.1-7.7
			c5.2,0.3,8.8,1.7,11.9,3.2c-3.2-1.3-6.9-2.6-12.1-2.6c-9.8,0-15.6,7.7-22.2,9.7c-7.9,2.4-11.3,1.8-15.4,0.9
			C19.6,123.1,9.5,91.6,28.5,70.5z"/>
		<g>
			<path fill="#3E99DD" d="M75.8,92.7c-8.2,0-14.8,6.6-14.8,14.7c0,4.6,2.2,8.8,5.5,11.5c2.7-1.3,5.6-2.3,9.1-2.3
				c4.1,0,7.3,0.8,10,1.7c3-2.7,4.9-6.6,4.9-10.9C90.5,99.3,83.9,92.7,75.8,92.7z"/>
			<ellipse fill-rule="evenodd" clip-rule="evenodd" fill="#333333" cx="75.8" cy="107.4" rx="6.9" ry="6.9"/>
			<path fill="#FFFFFF" d="M84.6,101.6c0,1.9-1.6,3.5-3.5,3.5c-2,0-3.5-1.6-3.5-3.5c0-1.9,1.6-3.5,3.5-3.5
				C83.1,98.1,84.6,99.7,84.6,101.6z"/>
		</g>
		<g>
			<path fill="#FFFFFF" d="M144.4,34.5c25.6-9.8,62.9,13.4,83.2,36c18.9,21.1,8.8,52.6-9.6,56.6c-4,0.9-7.5,1.5-15.4-0.9
				c-6.6-2-12.4-9.7-22.2-9.7c-14.3,0-17.2,8.9-28,5.1C142,118.1,118.7,44.3,144.4,34.5z"/>
			<path fill="#FF9800" d="M227.5,70.5c-20.3-22.6-57.6-45.9-83.2-36c-2.7,1-4.9,2.8-6.6,5.1c1.3-1.1,2.8-2,4.4-2.6
				c25.9-9.9,61.5,12.9,80.5,34c17,18.9,9,47.9-7.4,52.6c-3.7,1-6.8,1.8-14.1,0.1c-6.2-1.4-11.7-8.2-21.1-7.7
				c-5.2,0.3-8.8,1.7-11.9,3.2c3.1-1.3,6.9-2.6,12.1-2.6c9.8,0,15.6,7.7,22.2,9.7c7.9,2.4,11.3,1.8,15.4,0.9
				C236.3,123.1,246.5,91.6,227.5,70.5z"/>
			<g>
				<path fill="#3E99DD" d="M180.2,92.7c8.2,0,14.8,6.6,14.8,14.7c0,4.6-2.2,8.8-5.5,11.5c-2.7-1.3-5.6-2.3-9.1-2.3
					c-4.1,0-7.3,0.8-10,1.7c-3-2.7-4.9-6.6-4.9-10.9C165.5,99.3,172.1,92.7,180.2,92.7z"/>
				<ellipse fill-rule="evenodd" clip-rule="evenodd" fill="#333333" cx="180.2" cy="107.4" rx="6.9" ry="6.9"/>
				<ellipse fill="#FFFFFF" cx="174.9" cy="101.6" rx="3.5" ry="3.5"/>
			</g>
		</g>
	</g>
	<g>
		<path fill="#FDDD58" d="M196,138.2c-5,9.4-29.5,23.9-68.6,24.2c-39.1-0.3-65.5-14-70.5-23.3c-12.9,4.4-19.3,9.3-12.4,24.5
			c2.5,8.7,12.4-0.4,23.3,38.6c3,10.6,1,16.3,8.5,27.7c10.3,13.2,29.9,11.5,49.2,11.5c0.6,0,1.2,0,1.9,0c0.6,0,1.2,0,1.9,0
			c19.3,0,38.9,1.7,49.2-11.5c7.5-11.4,5.5-17.1,8.5-27.7c11-39,22.3-30.3,24.9-39C218.7,148,208.9,142.6,196,138.2z"/>
		<path fill="#FFFFFF" d="M194.8,138.2c-4.7,8.4-31,21.6-67.7,21.8c-36.8-0.2-63-13.4-67.7-21.8c-12.1,4-16.8,9.2-10.3,22.8
			c2.4,7.8,11.6-0.3,22,34.8c2.8,9.6,1,14.7,8,24.9c9.7,11.9,28.1,10.3,46.3,10.3c0.6,0,1.2,0,1.7,0c0.6,0,1.2,0,1.7,0
			c18.2,0,36.6,1.5,46.3-10.3c7-10.3,5.2-15.4,8-24.9c10.3-35.1,21-27.3,23.4-35.2C213,147,206.9,142.2,194.8,138.2z"/>
		<g>
			<path fill="#989898" d="M186.2,186.2c-3.8,1.8-14,6.2-27.8,9.6l-6.4-37.8l1.4,38.9c-8,1.7-17,2.9-26.5,3l-2-40c0,0,0,0,0,0
				l-3.7,40c-10.1-0.3-19-1.6-26.5-3.2l3.1-39.8l-8,38.6c-11.3-3-18.7-6.6-21.4-8c0.6,1.7,1.2,3.4,1.8,5.4c4.2,2,10.9,4.7,19.9,6.9
				l1.1,28.9c1.2,0.4,2.5,0.7,3.7,1l-1.1-29c7.9,1.7,17.2,3.1,27.9,3.3v27.1c1.2,0,2.4,0,3.6,0c0.3,0,0.5,0,0.8,0V204
				c10.3-0.1,20-1.4,28.5-3.2l-0.3,29.6c1.4-0.2,2.8-0.4,4.1-0.7l0.2-29.9c11.4-2.7,20.4-6.2,25.7-8.5c1.6-4.8,3.2-8.7,4.7-11.8
				l-9-30.4L186.2,186.2z"/>
			<path fill="#989898" d="M68.3,187.2l6.6-36.9l-9.8,29.2v0C66.1,181.7,67.2,184.2,68.3,187.2z"/>
		</g>
	</g>
</g>
</svg>
