<?xml version="1.0" encoding="utf-8"?>
<!-- Generator: Adobe Illustrator 17.1.0, SVG Export Plug-In . SVG Version: 6.00 Build 0)  -->
<!DOCTYPE svg PUBLIC "-//W3C//DTD SVG 1.1//EN" "http://www.w3.org/Graphics/SVG/1.1/DTD/svg11.dtd">
<svg version="1.1" id="Layer_1" xmlns="http://www.w3.org/2000/svg" xmlns:xlink="http://www.w3.org/1999/xlink" x="0px" y="0px"
	 viewBox="0 0 256 256" enable-background="new 0 0 256 256" xml:space="preserve">
<g>
	<g>
		<path fill-rule="evenodd" clip-rule="evenodd" fill="#FDC336" d="M128,256c70.5,0,128-57.6,128-128C256,57.5,198.5,0,128,0
			C57.5,0,0.1,57.5,0.1,128C0.1,198.4,57.5,256,128,256z"/>
	</g>
	<ellipse fill="#FDDD58" cx="110.1" cy="79" rx="75.1" ry="74.9"/>
	<path fill="#FDDD58" d="M126.3,191.2c-0.7,1.6,0.1,3.5,1.6,4.2c1.6,0.7,2.9-0.4,4.1-1.7c1.7-1.9,9.9-6.5,16.4-0.3
		c7.9,7.5,9.6,17.5,9.7,17.7c0.3,0.7,5.9,17,21.7,7.5c5.1-3.1,2.2-14,1.5-15.7c-0.5-1.2-11.6-27.3-30-27.3
		C132.8,175.7,126.5,190.5,126.3,191.2z"/>
	<path fill="#CC1700" d="M130.7,186.4c-0.6,1.3,0,2.8,1.3,3.3c1.3,0.6,2.4-0.3,3.4-1.3c1.4-1.5,5.5-4.4,13-4.6
		c9.1-0.3,15.3,15.8,15.4,16c0.2,0.5,2.8,7.8,9.8,5.2c4.6-1.7,3.5-7.9,2.9-9.2c-0.4-0.9-9.6-21.7-25-21.7S130.9,185.9,130.7,186.4z"
		/>
	<g>
		<path fill="#FFFFFF" d="M88.8,109.4C88.8,109.4,88.8,109.4,88.8,109.4c-0.1,0-0.1,0-0.1,0C88.7,109.4,88.8,109.4,88.8,109.4z
			 M88.7,109.4 M122.9,46.4c-1.1-0.2-2.2-0.4-3.3-0.6c-17.8-2.8-41.7-0.9-64.9,6.4c-0.5,0.2-1,0.3-1.5,0.5c-2.1,2-4,4-5.8,5.9
			c-16.6,18.4-13,39.9,7.9,47.9c8.7,3.3,21.5,4.4,33.5,2.9c5.7-1,21.9-4.3,26.5-6.5C120.5,100.5,121.4,67.9,122.9,46.4
			C123,46.4,122.9,46.4,122.9,46.4z"/>
		<path fill="#FFFFFF" d="M167.2,109.4C167.2,109.4,167.2,109.4,167.2,109.4c0.1,0,0.1,0,0.1,0C167.3,109.4,167.2,109.4,167.2,109.4
			z M167.3,109.4 M133.1,46.4c1.1-0.2,2.2-0.4,3.3-0.6c17.8-2.8,41.7-0.9,64.9,6.4c0.5,0.2,1,0.3,1.5,0.5c2.1,2,4,4,5.8,5.9
			c16.6,18.4,13,39.9-7.9,47.9c-8.7,3.3-21.5,4.4-33.5,2.9c-5.7-1-21.9-4.3-26.5-6.5C135.5,100.5,134.6,67.9,133.1,46.4
			C133,46.4,133.1,46.4,133.1,46.4z"/>
		<path fill="#FF9800" d="M49.3,62.5c1.7-2,3.6-4,5.7-5.9c0.5-0.2,1-0.3,1.5-0.5c22.7-7.2,46-9.2,63.4-6.4c1,0.2,1.9,0.4,2.9,0.5
			c0.1-1.3,0.2-2.7,0.3-3.9c0,0,0,0-0.1,0c-1.1-0.2-2.2-0.4-3.3-0.6c-17.8-2.8-41.7-0.9-64.9,6.4c-0.5,0.2-1,0.3-1.5,0.5
			c-2.1,2-4,4-5.8,5.9c-11.4,12.7-13.3,26.8-6.5,37C37,85.8,39.6,73.6,49.3,62.5z"/>
		<path fill="#FF9800" d="M136.1,49.8c17.4-2.8,40.7-0.9,63.4,6.4c0.5,0.2,1,0.3,1.5,0.5c2,2,3.9,4,5.7,5.9
			c9.7,11.1,12.3,23.3,8.5,33c6.7-10.2,4.8-24.3-6.5-37c-1.8-2-3.7-4-5.8-5.9c-0.5-0.2-1-0.3-1.5-0.5c-23.3-7.2-47.1-9.2-64.9-6.4
			c-1.1,0.2-2.2,0.4-3.3,0.6c0,0,0,0-0.1,0c0.1,1.3,0.2,2.6,0.3,3.9C134.2,50.1,135.2,49.9,136.1,49.8z"/>
		<g>
			<ellipse fill="#3E99DD" cx="71.4" cy="88.3" rx="7.6" ry="7.6"/>
			<ellipse fill-rule="evenodd" clip-rule="evenodd" fill="#333333" cx="71.4" cy="88.3" rx="3.6" ry="3.5"/>
			<circle fill="#FFFFFF" cx="74.2" cy="85.4" r="1.8"/>
		</g>
		<g>
			<ellipse fill="#3E99DD" cx="184.6" cy="88.3" rx="7.6" ry="7.6"/>
			<ellipse fill-rule="evenodd" clip-rule="evenodd" fill="#333333" cx="184.6" cy="88.3" rx="3.6" ry="3.5"/>
			<circle fill="#FFFFFF" cx="187.3" cy="85.4" r="1.8"/>
		</g>
	</g>
	<path fill-rule="evenodd" clip-rule="evenodd" fill="#333333" d="M239.3,49c-2.5-2.8-5.3-5.7-8.3-8.5l-0.4-0.4l-0.6-0.2
		c-0.7-0.2-1.4-0.5-2.1-0.7c-22.7-7.1-46.2-10.9-68-10.9c-8.6,0-16.8,0.6-24.2,1.8c-1.5,0.3-3.1,0.6-4.6,0.8l-2.3,0.5l0.2,2.2
		c0.4,5.3,0.7,11,1.1,17c0.3,5.2,0.6,10.1,0.9,14.8h-6c0.3-4.6,0.6-9.6,0.9-14.8c0.4-6,0.7-11.7,1.1-17l0.2-2.2l-2.1-0.5l-0.2,0
		c-1.5-0.3-3-0.5-4.6-0.8c-7.4-1.2-15.6-1.8-24.2-1.8c-21.8,0-45.3,3.8-68,10.9c-0.7,0.2-1.4,0.4-2.1,0.7L25.4,40l-0.4,0.4
		c-3,2.8-5.8,5.7-8.3,8.5C4.2,63-1,79.1,2.4,93.2c3,12.4,12.3,22.2,26.3,27.6c8.7,3.4,20.4,5.2,32.8,5.2h0c5.1,0,10.3-0.3,15.3-0.9
		l0,0c0,0,0,0,0,0c0.1,0,0.2,0,0.2,0v0c6.3-1.1,30.5-5.9,37.8-9.3c5.5-2.6,7.8-18.2,9.7-44.1h6.8c1.9,25.9,4.2,41.5,9.7,44.1
		c7.3,3.4,31.4,8.2,37.8,9.3v0l0.3,0l0,0c5,0.6,10.2,0.9,15.3,0.9c12.5,0,24.1-1.9,32.8-5.2c13.9-5.4,23.2-15.2,26.3-27.6
		C257,79.1,251.8,63,239.3,49z M120.9,50.4c-0.9,14.1-1.8,28.7-3.2,40.4c-2.2,17.8-4.6,20-5,20.3c-5.8,2.7-26.9,7.3-36.3,8.9l-0.1,0
		c-4.8,0.6-9.8,0.9-14.7,0.9l0,0c-11.8,0-22.8-1.7-31-4.9C18.2,111.3,10,102.7,7.4,92c-3-12.5,1.8-26.9,13.1-39.6
		c2.3-2.6,4.9-5.2,7.6-7.8c0.5-0.2,1-0.3,1.5-0.5c22.2-7,45.2-10.6,66.5-10.6c8.4,0,16.2,0.6,23.3,1.7c0.8,0.2,1.6,0.3,2.4,0.5
		C121.5,40.2,121.2,45.2,120.9,50.4z M248.6,92c-2.6,10.7-10.8,19.3-23.1,24c-8.1,3.1-19.1,4.9-31,4.9c-4.9,0-9.9-0.3-14.7-0.9
		c-9.4-1.6-30.7-6.2-36.5-8.9c-0.5-0.3-2.9-2.5-5-20.3c-1.4-11.7-2.3-26.3-3.2-40.4c-0.3-5.2-0.6-10.1-0.9-14.8
		c0.8-0.1,1.6-0.3,2.4-0.4c7.2-1.1,15-1.7,23.4-1.7c21.3,0,44.3,3.7,66.5,10.6c0.5,0.2,1,0.3,1.5,0.5c2.7,2.6,5.3,5.3,7.6,7.8
		C246.9,65.1,251.6,79.5,248.6,92z"/>
</g>
<path fill="#FFFFFF" stroke="#B2B2B2" stroke-width="4" d="M111.7,68"/>
</svg>
