<?xml version="1.0" encoding="utf-8"?>
<!-- Generator: Adobe Illustrator 17.1.0, SVG Export Plug-In . SVG Version: 6.00 Build 0)  -->
<!DOCTYPE svg PUBLIC "-//W3C//DTD SVG 1.1//EN" "http://www.w3.org/Graphics/SVG/1.1/DTD/svg11.dtd">
<svg version="1.1" id="Layer_1" xmlns="http://www.w3.org/2000/svg" xmlns:xlink="http://www.w3.org/1999/xlink" x="0px" y="0px"
	 viewBox="0 0 256 256" enable-background="new 0 0 256 256" xml:space="preserve">
<g>
	<path fill-rule="evenodd" clip-rule="evenodd" fill="#333333" d="M225.4,53l-22.5-22.5l26.7-26.6c4.6-4.6,11.5-5.2,15.4-1.3
		l8.5,8.5c1.9,1.9,2.8,4.5,2.5,7.4c-0.3,2.9-1.6,5.7-3.9,8L225.4,53z"/>
	<path fill="#FDDD58" d="M232.8,21.9l-4.1-17.1l-6.2,6.2l2.2,9.1l-9.2-2.1l-6.3,6.2l17.4,3.9l4.6,19.1l6.2-6.2L234.7,30l11.2,2.5
		l6.2-6.1c0,0,0.1-0.1,0.1-0.1L232.8,21.9z"/>
	<path fill-rule="evenodd" clip-rule="evenodd" fill="none" d="M225.4,53l-22.5-22.5l26.7-26.6c4.6-4.6,11.5-5.2,15.4-1.3l8.5,8.5
		c1.9,1.9,2.8,4.5,2.5,7.4c-0.3,2.9-1.6,5.7-3.9,8L225.4,53z"/>
</g>
<g>
	<path fill-rule="evenodd" clip-rule="evenodd" fill="#333333" d="M30.6,53l22.5-22.5L26.4,3.9C21.8-0.7,14.9-1.3,11,2.6L2.6,11
		c-1.9,1.9-2.8,4.5-2.5,7.4c0.3,2.9,1.6,5.7,3.9,8L30.6,53z"/>
	<path fill="#FDDD58" d="M23.2,21.9l4.1-17.1l6.2,6.2l-2.2,9.1l9.2-2.1l6.3,6.2l-17.4,3.9l-4.6,19.1l-6.2-6.2L21.3,30l-11.2,2.5
		l-6.2-6.1c0,0-0.1-0.1-0.1-0.1L23.2,21.9z"/>
	<path fill-rule="evenodd" clip-rule="evenodd" fill="none" d="M30.6,53l22.5-22.5L26.4,3.9C21.8-0.7,14.9-1.3,11,2.6L2.6,11
		c-1.9,1.9-2.8,4.5-2.5,7.4c0.3,2.9,1.6,5.7,3.9,8L30.6,53z"/>
</g>
<g>
	<path fill="#989898" d="M200.5,167.1c20.6,21.1,34.5,36.9,41.9,47C256.4,233.4,256,256,256,256l-36.7-31.9c0,0-16.9-14.8-42.6-37
		C184.3,180.1,192,173.1,200.5,167.1z"/>
	<path fill-rule="evenodd" clip-rule="evenodd" fill="#333333" d="M189.4,175.7c21.7,20,36.5,35,44.7,44.5
		c10.4,12,16.2,25.4,18.9,33.2l-33.8-29.3c0,0-16.9-14.8-42.6-37C180.9,183.3,185.1,179.4,189.4,175.7z"/>
</g>
<g>
	<path fill="#989898" d="M55.5,167.1c-20.6,21.1-34.5,36.9-41.8,47C-0.4,233.4,0,256,0,256l36.7-31.9c0,0,16.9-14.8,42.6-37
		C71.7,180.1,64,173.1,55.5,167.1z"/>
	<path fill-rule="evenodd" clip-rule="evenodd" fill="#333333" d="M66.6,175.7c-21.7,20-36.5,35-44.7,44.5
		c-10.4,12-16.2,25.4-18.9,33.2l33.8-29.3c0,0,16.9-14.8,42.6-37C75.1,183.3,70.9,179.4,66.6,175.7z"/>
</g>
<g>
	<g>
		<path fill="#666666" d="M128,255.8c70.3,0,127.7-57.5,127.7-127.8C255.7,57.6,198.3,0.2,128,0.2C57.7,0.2,0.3,57.6,0.3,128
			C0.3,198.3,57.7,255.8,128,255.8z"/>
		<ellipse fill="#666666" cx="109.5" cy="78.8" rx="74.9" ry="74.8"/>
	</g>
	<g>
		<path fill-rule="evenodd" clip-rule="evenodd" fill="#FDC336" d="M128,255.8c70.3,0,127.7-57.5,127.7-127.8
			C255.7,57.6,198.3,0.2,128,0.2C57.7,0.2,0.3,57.6,0.3,128C0.3,198.3,57.7,255.8,128,255.8z"/>
		<ellipse fill="#FDDD58" cx="109.5" cy="78.8" rx="74.9" ry="74.8"/>
	</g>
</g>
<g>
	<g>
		<path fill="#666666" d="M128,255.8c70.3,0,127.7-57.5,127.7-127.8C255.7,57.6,198.3,0.2,128,0.2C57.7,0.2,0.3,57.6,0.3,128
			C0.3,198.3,57.7,255.8,128,255.8z"/>
		<ellipse fill="#666666" cx="109.5" cy="78.8" rx="74.9" ry="74.8"/>
	</g>
	<g>
		<path fill-rule="evenodd" clip-rule="evenodd" fill="#FDC336" d="M128,255.8c70.3,0,127.7-57.5,127.7-127.8
			C255.7,57.6,198.3,0.2,128,0.2C57.7,0.2,0.3,57.6,0.3,128C0.3,198.3,57.7,255.8,128,255.8z"/>
		<ellipse fill="#FDDD58" cx="109.5" cy="78.8" rx="74.9" ry="74.8"/>
	</g>
</g>
<path fill-rule="evenodd" clip-rule="evenodd" fill="#FFFFFF" d="M160.3,112.1c21.8-5.6,34.8-32.4,53.3-42.5
	c1.9,3,9.5,13.9,11.3,17.2c7.8,14,15.5,38.1,0.1,50.3c-15.5,10.7-73.4,1.8-83.6-2.6c-3.9-1.7-7.1-13.3-8.2-28
	C141.6,105.2,151.8,114.3,160.3,112.1"/>
<g>
	<path fill="#3E99DD" d="M195.6,98.4c-1.2-3.2-3.4-5.8-6.2-7.4c-6.5,6.7-13.1,13.7-21.3,18c2.9,7.4,11.3,11.2,18.8,8.4
		C194.6,114.5,198.4,106,195.6,98.4z"/>
	<path fill-rule="evenodd" clip-rule="evenodd" fill="#333333" d="M175.3,105.9c1.3,3.6,5.3,5.4,8.9,4.1c3.6-1.3,5.4-5.3,4.1-8.9
		c-0.8-2.2-2.6-3.7-4.7-4.2c-2.8,2.7-5.6,5.3-8.7,7.6C175,105,175.2,105.5,175.3,105.9z"/>
	<path fill="#FFFFFF" d="M175.2,111.1c0.7,1.8,2.7,2.7,4.5,2.1c1.8-0.7,2.8-2.7,2.1-4.5c-0.7-1.8-2.7-2.7-4.5-2.1
		C175.4,107.3,174.5,109.3,175.2,111.1z"/>
</g>
<path fill="#FF9800" d="M224.9,86.8c-1.8-3.3-9.3-14.1-11.3-17.2c-1.4,0.8-2.8,1.7-4.2,2.7c3,4.5,8.1,11.9,9.5,14.5
	c8.1,14.6,14.5,36.1,0.9,49.6c-0.2,0.2-0.4,0.4-0.6,0.6c-0.1,0-0.1,0.1-0.2,0.1c-4.9,3.4-14.1,4.8-24.6,5c0.1,0,0.2,0,0.3,0
	c12.9,0.2,24.5-1,30.3-5C240.4,124.9,232.7,100.8,224.9,86.8z"/>
<path fill-rule="evenodd" clip-rule="evenodd" fill="#FFFFFF" d="M95.7,112.1c-21.8-5.6-34.8-32.4-53.3-42.5
	c-1.9,3-9.5,13.9-11.3,17.2c-7.8,14-15.5,38.1-0.1,50.3c15.5,10.7,73.4,1.8,83.6-2.6c3.9-1.7,7.1-13.3,8.2-28
	C114.4,105.2,104.2,114.3,95.7,112.1"/>
<g>
	<path fill="#3E99DD" d="M60.2,98.4c1.2-3.2,3.4-5.8,6.2-7.4c6.5,6.7,13.1,13.7,21.3,18c-2.9,7.4-11.3,11.2-18.8,8.4
		C61.3,114.5,57.4,106,60.2,98.4z"/>
	<path fill-rule="evenodd" clip-rule="evenodd" fill="#333333" d="M80.5,105.9c-1.3,3.6-5.3,5.4-8.9,4.1c-3.6-1.3-5.4-5.3-4.1-8.9
		c0.8-2.2,2.6-3.7,4.7-4.2c2.8,2.7,5.6,5.3,8.7,7.6C80.8,105,80.7,105.5,80.5,105.9z"/>
	<path fill="#FFFFFF" d="M80.6,111.1c-0.7,1.8-2.7,2.7-4.5,2.1c-1.8-0.7-2.8-2.7-2.1-4.5c0.7-1.8,2.7-2.7,4.5-2.1
		C80.4,107.3,81.3,109.3,80.6,111.1z"/>
</g>
<path fill="#FF9800" d="M37,137.1c-0.1,0-0.1-0.1-0.2-0.1c-0.2-0.2-0.4-0.4-0.6-0.6c-13.7-13.5-7.3-34.9,0.9-49.6
	c1.5-2.6,6.5-10,9.5-14.5c-1.4-1-2.8-1.9-4.2-2.7c-2,3.1-9.5,13.9-11.3,17.2c-7.8,14-15.5,38.1-0.1,50.3c5.7,4,17.2,5.2,29.9,5
	c0.2,0,0.5,0,0.7,0C51,141.9,41.9,140.5,37,137.1z"/>
<path fill-rule="evenodd" clip-rule="evenodd" fill="#333333" d="M128,0C57.5,0,0,57.5,0,128c0,70.4,57.5,128,128,128
	c70.5,0,128-57.6,128-128C256,57.5,198.5,0,128,0z M233.8,151.7c-24.7,6.9-78.9,10.8-105.8,10.8c-25.5,0-76.7-4.2-100.1-10.8
	c-4.5-1.3-16-5.7-14.7-12.5c0,0-0.6-34,10.3-54.7c1.4-2.7,5.4-7.5,9.9-9.1C57.7,80.1,93.1,83,130,83c37.5,0,71.2-2.9,95.5-7.7
	c4.8,1.4,6.7,6.6,8.3,9.3c11.9,20,10.3,54.7,10.3,54.7C245.5,146.1,238.3,150.5,233.8,151.7z"/>
</svg>
