<?xml version="1.0" encoding="utf-8"?>
<!-- Generator: Adobe Illustrator 17.1.0, SVG Export Plug-In . SVG Version: 6.00 Build 0)  -->
<!DOCTYPE svg PUBLIC "-//W3C//DTD SVG 1.1//EN" "http://www.w3.org/Graphics/SVG/1.1/DTD/svg11.dtd">
<svg version="1.1" id="Layer_1" xmlns="http://www.w3.org/2000/svg" xmlns:xlink="http://www.w3.org/1999/xlink" x="0px" y="0px"
	 viewBox="0 0 256 256" enable-background="new 0 0 256 256" xml:space="preserve">
<g>
	<path fill-rule="evenodd" clip-rule="evenodd" fill="#FFBEB7" d="M128,256c70.5,0,128-57.6,128-128C256,57.5,198.5,0,128,0
		C57.5,0,0,57.5,0,128C0,198.4,57.5,256,128,256z"/>
	<ellipse opacity="0.52" fill="#FBE3E2" cx="110.1" cy="79" rx="75.1" ry="74.9"/>
</g>
<g>
	<ellipse fill-rule="evenodd" clip-rule="evenodd" fill="#FF7D8F" cx="182" cy="187.8" rx="19.5" ry="13.2"/>
	<ellipse fill-rule="evenodd" clip-rule="evenodd" fill="#FF7D8F" cx="69.6" cy="188.9" rx="20.5" ry="13.9"/>
</g>
<path fill="#FFE1DE" d="M105,227c0,6.9-5.9,12.5-13.3,12.5c-7.3,0-11.5-5.8-13.3-12.5c-3.2-11.9-0.3-20.3,0.7-22
	c3.6-6.1,7.4,9.5,12.6,9.5C99.1,214.5,105,220.1,105,227z"/>
<path fill="#CC1700" d="M116.1,226.4c1.8-0.1,1.9-1.5,1.9-1.5s-27.3-12.3-35-20c-2.3-2.3-3.3-1.2-3.3,1.4c0,3.9,1.1,27.6,13.6,27.2
	c4.4-0.1,8.1-3.3,9-7.7C107.1,225.6,113.1,226.6,116.1,226.4z"/>
<g>
	<path fill="#FFFFFF" d="M79,165.2C79,165.2,79,165.2,79,165.2c-0.1,0-0.1,0-0.1,0C79,165.2,79,165.2,79,165.2z"/>
	<path fill="#FFFFFF" d="M80.9,165.4C80.8,165.4,80.8,165.4,80.9,165.4c-0.1,0-0.1,0-0.1,0C80.8,165.4,80.8,165.4,80.9,165.4z
		 M118.3,50c-9.2,38.4-45.4,67-90,67c-4.1,0-8.2-0.2-12.2-0.7c0.5,18.8,8.3,35.2,22.9,43.6c10.9,6.3,26.8,8.3,41.9,5.5
		c7.1-1.8,13.8-4.7,19.6-8.8c6.3-4.4,17-46.7,22.6-110.3C120.9,45.3,119.1,47.1,118.3,50z"/>
	<path fill="#FFFFFF" d="M175.1,165.4C175.2,165.4,175.2,165.4,175.1,165.4c0.1,0,0.1,0,0.1,0C175.2,165.4,175.2,165.4,175.1,165.4z
		 M137.7,50c9.2,38.4,45.4,67,90,67c4.1,0,8.2-0.2,12.2-0.7c-0.5,18.8-8.3,35.2-22.9,43.6c-10.9,6.3-26.8,8.3-41.9,5.5
		c-7.1-1.8-13.8-4.7-19.6-8.8c-6.3-4.4-17-46.7-22.6-110.3C135.1,45.3,136.9,47.1,137.7,50z"/>
	<g>
		<ellipse fill="#3E99DD" cx="69.5" cy="148.7" rx="14.8" ry="14.7"/>
		<ellipse fill-rule="evenodd" clip-rule="evenodd" fill="#333333" cx="69.5" cy="148.7" rx="6.9" ry="6.9"/>
		<ellipse fill="#FFFFFF" cx="74.8" cy="142.9" rx="3.5" ry="3.5"/>
	</g>
	<g>
		<ellipse fill="#3E99DD" cx="186.5" cy="148.7" rx="14.8" ry="14.7"/>
		<ellipse fill-rule="evenodd" clip-rule="evenodd" fill="#333333" cx="186.5" cy="148.7" rx="6.9" ry="6.9"/>
		<ellipse fill="#FFFFFF" cx="191.9" cy="142.9" rx="3.5" ry="3.5"/>
	</g>
	<path fill="#FF8E81" d="M44.5,158.7c-14.2-8.2-21.9-23.9-22.8-42c-1.9-0.1-3.8-0.3-5.6-0.5c0.5,18.8,8.3,35.2,22.9,43.6
		c10.9,6.3,26.8,8.3,41.9,5.5c0.7-0.2,1.3-0.4,2-0.5C68.8,166.7,54.5,164.5,44.5,158.7z"/>
	<path fill="#FF8E81" d="M234.3,116.7c-0.9,18.1-8.6,33.8-22.8,42c-10,5.8-24.4,8-38.3,6.1c0.7,0.2,1.3,0.4,2,0.5
		c15.1,2.8,31,0.8,41.9-5.5c14.6-8.4,22.4-24.8,22.9-43.6C238.1,116.4,236.2,116.6,234.3,116.7z"/>
</g>
</svg>
