<?xml version="1.0" encoding="utf-8"?>
<!-- Generator: Adobe Illustrator 17.1.0, SVG Export Plug-In . SVG Version: 6.00 Build 0)  -->
<!DOCTYPE svg PUBLIC "-//W3C//DTD SVG 1.1//EN" "http://www.w3.org/Graphics/SVG/1.1/DTD/svg11.dtd">
<svg version="1.1" id="Layer_1" xmlns="http://www.w3.org/2000/svg" xmlns:xlink="http://www.w3.org/1999/xlink" x="0px" y="0px"
	 viewBox="0 0 256 256" enable-background="new 0 0 256 256" xml:space="preserve">
<g>
	<g>
		<path fill-rule="evenodd" clip-rule="evenodd" fill="#75A71A" d="M128,256c70.5,0,128-57.6,128-128C256,57.5,198.5,0,128,0
			C57.5,0,0,57.5,0,128C0,198.4,57.5,256,128,256z"/>
		<ellipse fill="#9AC144" cx="110.1" cy="79" rx="75.1" ry="74.9"/>
		<path fill="#65771C" d="M89.1,181.9c0,0,6.5,15,16.1,13.3c9.6-1.7,12-20.1,18.5-25.9c6.5-5.8,20.5-13.3,15-20.8
			c-5.5-7.5,12.7-5.5-15-15.7c-27.7-10.2-37.6-19.1-52.3-7.8c-14.7,11.3-15.7,23.9-7.5,35.5C72,172,89.1,181.9,89.1,181.9z"/>
		
			<radialGradient id="SVGID_1_" cx="75.1356" cy="-16.1409" r="15.5401" gradientTransform="matrix(0.9617 0 0 0.9589 -20.4305 174.1365)" gradientUnits="userSpaceOnUse">
			<stop  offset="5.618000e-003" style="stop-color:#12C40E"/>
			<stop  offset="0.2938" style="stop-color:#0D9000"/>
			<stop  offset="0.933" style="stop-color:#005534"/>
		</radialGradient>
		<path opacity="0.74" fill="url(#SVGID_1_)" d="M47.4,161.4c2.1-3.4,12.7-5.5,3.8-13.6c-8.9-8.2-24.3-9.9-24.3-9.9l0.7,15
			L47.4,161.4z"/>
		<path fill="#0F8B00" d="M141.8,107.4c0,0-14.4,7.5-4.1,12.3c10.3,4.8,17.8,9.5,17.1,14.3c-0.7,4.8-6.2,9.5,0,10.9
			c6.2,1.4,9.6,8.9,19.1-1.4c9.6-10.2,15.7-13,17.8-13.6c2-0.7,25.3-2.7,25.3-2.7l23.3-27.6l-40.4-16.7L141.8,107.4z"/>
		<path fill="#65771C" d="M122.7,76.9c0,0,11.6,8.9,17.1,5.1c5.5-3.7,6.8-19.8,6.8-19.8l-29.4-4.1L122.7,76.9z"/>
		<path fill="#65771C" d="M195.4,210c2.3-5,0.9-17.8-0.9-19.2c-1.8-1.4-18.3-18.7-25.7-11.9c-7.3,6.8,0,11.9-9.6,13.7
			c-9.6,1.8-13.7-6.9-25.7-6.4c-11.9,0.5-4.1,30.6-4.1,30.6s8.2,9.1,20.2,12.3c11.9,3.2,6.9,7.3,6.4,15.1c-0.2,3.1,1.2,5.7,3.5,7.8
			c15.7-4,30.2-10.9,43-20.1c-3-2-7.6-3.4-12.1-4.6C179.4,224.7,193.1,215.1,195.4,210z"/>
		<path fill="#0F8B00" d="M86.8,236.1c5-4.1,7.8-9.6,7.8-19.2c0-9.6-23.8-16.9-23.8-16.9s-16.5,2.3-26.8,6.7
			c-7.3,3.1-7.3,4.9-8.7,9.3c12.5,13.2,27.9,23.7,45,30.7C81.3,242.5,84,238.4,86.8,236.1z"/>
		<path fill="#0F8B00" d="M255.8,121.6c-2.6,0-5.2,8.3-12.5,11.9c-10.6,5.1-17.4,4.4-31.5,7.2c-14,2.7-6.5,9.9-7.9,20.5
			c-1.4,10.6,0,8.2,6.8,20.8c4.7,8.6,17.4,12.9,25,14.8c12.7-19.9,20.1-43.4,20.1-68.7C256,125.8,255.9,123.7,255.8,121.6z"/>
		<path fill="#0F8B00" d="M170.5,27.4c-2.4,25.9-12,29,6.8,36.8c18.8,7.8,37.6,16.4,41.4,14.7c3.8-1.7-8.2-7.8,10.3-14.7
			c2.9-1.1,5.7-2,8.3-2.8c-6.4-10.4-14.2-19.9-23.2-28.1l-5.6-2.2L170.5,27.4z"/>
		<path fill="#65771C" d="M47.1,77.2l11.3-19.1l-8.5-11.6c0,0-7.5-1.6-14.9-6.2C25,50.7,16.9,62.8,11,76.1l3.9,6.2L47.1,77.2z"/>
		<path fill="#0F8B00" d="M25.9,157.3c5.1-5.8-2.7-3.8-2.7-7.5c0-3.8-7.9-8.2-8.2-17.4c-0.3-9.2,5.8-6.1,14.7-8.2
			c8.9-2,6.8-0.3,16.1-4.8c9.2-4.4,0.7-3.1-9.2-8.9c-9.9-5.8-1.4-4.1,2.1-8.2c3.4-4.1,0.3-4.8-1-12.3c-1.4-7.5-12.3-2.4-19.8-2.4
			c-4,0-7.9-0.7-10.7-1.3C2.4,99.5,0,113.5,0,128c0,15,2.6,29.5,7.4,42.9c3.4-0.4,7-1.2,8.9-2.7C20.8,164.8,20.8,163.1,25.9,157.3z"
			/>
	</g>
	<path fill-rule="evenodd" clip-rule="evenodd" fill="#333333" d="M94.9,169c-0.6,0-1.1-0.1-1.7-0.4l-66.1-34.5
		c-1.8-0.9-2.4-3.1-1.5-4.8c0.9-1.7,3.1-2.4,4.8-1.5l66.1,34.5c1.8,0.9,2.4,3.1,1.5,4.8C97.5,168.3,96.2,169,94.9,169L94.9,169z"/>
	<path fill-rule="evenodd" clip-rule="evenodd" fill="#333333" d="M88.9,179.9c-0.6,0-1.1-0.1-1.7-0.4L21.1,145
		c-1.8-0.9-2.4-3.1-1.5-4.8c0.9-1.7,3.1-2.4,4.8-1.5l66.1,34.5c1.8,0.9,2.4,3.1,1.5,4.8C91.5,179.2,90.2,179.9,88.9,179.9
		L88.9,179.9z"/>
	<path fill-rule="evenodd" clip-rule="evenodd" fill="#333333" d="M82.9,190.8c-0.6,0-1.1-0.1-1.7-0.4l-66.1-34.5
		c-1.8-0.9-2.4-3.1-1.5-4.8c0.9-1.7,3.1-2.4,4.8-1.5l66.1,34.5c1.8,0.9,2.4,3.1,1.5,4.8C85.5,190.1,84.2,190.8,82.9,190.8
		L82.9,190.8z"/>
	<path fill-rule="evenodd" clip-rule="evenodd" fill="#333333" d="M157.7,166.9c-1.3,0-2.5-0.7-3.2-1.9c-0.9-1.7-0.2-3.9,1.5-4.8
		l66.1-34.5c1.8-0.9,3.9-0.2,4.8,1.5c0.9,1.7,0.2,3.9-1.5,4.8l-66.1,34.5C158.9,166.7,158.3,166.9,157.7,166.9L157.7,166.9z"/>
	<path fill-rule="evenodd" clip-rule="evenodd" fill="#333333" d="M163.8,177.8c-1.3,0-2.5-0.7-3.2-1.9c-0.9-1.7-0.2-3.9,1.5-4.8
		l66.1-34.5c1.8-0.9,3.9-0.2,4.8,1.5c0.9,1.7,0.2,3.9-1.5,4.8l-66.1,34.5C164.9,177.7,164.3,177.8,163.8,177.8L163.8,177.8z"/>
	<path fill-rule="evenodd" clip-rule="evenodd" fill="#333333" d="M169.8,188.7c-1.3,0-2.5-0.7-3.2-1.9c-0.9-1.7-0.2-3.9,1.5-4.8
		l66.1-34.5c1.8-0.9,3.9-0.2,4.8,1.5c0.9,1.7,0.2,3.9-1.5,4.8l-66.1,34.5C170.9,188.6,170.3,188.7,169.8,188.7L169.8,188.7z"/>
	<g>
		<path fill-rule="evenodd" clip-rule="evenodd" fill="#333333" d="M232.6,31.8C233,20.5,200.4,2,131.2,0L43,0.5
			c-9.9,0.3-13.5,6-13.6,10.1c-0.3,8.1,16.5,35.7,16.5,43c0.1,13.9,39.6,24.5,88.3,23.8c48.7-0.7,88.1-12.6,88-26.5
			c0-3-1.9-5.8-5.3-8.4C226.6,39.9,232.4,36.3,232.6,31.8z"/>
		<path fill="#666666" d="M147.7,5.1C147.5,5.1,43.2,3.7,43,3.7C34.7,4,32.4,8.3,32.3,10.8c0,0,0,0.1,0,0.1c0,2.9,3.3,10.4,6.4,17.1
			c19,7.4,49.7,13.6,84.5,16.5c35.8,2.9,67.8,1.5,87.4-3l-0.7-0.5l6.3-1.7c9.8-2.6,13.4-5.8,13.5-7.7c0,0,0-0.1,0-0.1
			C229.7,24,205.9,8.8,147.7,5.1z"/>
	</g>
	<path fill="#9AC144" d="M108,206.3l53.7-4.8c0,0-0.9,16.8-7,17.4c-13.8,1.2-18.8-5.4-18.8-5.4L108,206.3z"/>
	<path fill="#CC1700" d="M108.8,204.7c-3.1-0.4-0.9-2.1-0.9-2.1l52.4-0.9c0,0-4.5,9.7-9.4,10.1c-4.9,0.4-12.3-3.4-12.3-3.4
		S120.5,206.3,108.8,204.7z"/>
	<g>
		<g>
			<path fill-rule="evenodd" clip-rule="evenodd" fill="#FFFFFF" d="M159.4,95.4c10,0,19.4-3.8,28.2-8.4c8.5-4.4,16.7-9.6,25.9-12.3
				c1.1-0.3,4.4-0.8,4.4-0.8s6.9,12.1,8.6,15.3c4.5,8.9,8.6,21.2,2.5,30.3c-2.3,3.4-6,6.5-10.2,7.3c-2.6,0.5-5.2,0.5-7.8,0.4
				c-7.1-0.2-14.1-1.5-21-2.9c-14.5-3-28.9-7.1-42.9-12.2c-1.9-0.7-8.4-3.2-9.5-4.1c-2.3-1.8-3.1-5.3-3.6-8.1
				c-0.9-4.6-0.9-9.3-0.7-14C142.7,86.7,149.8,95.4,159.4,95.4z"/>
			<g>
				<path fill-rule="evenodd" clip-rule="evenodd" fill="#3E99DD" d="M166.4,94.8c0.7,7.1,6.7,12.7,14.1,12.7
					c7.8,0,14.2-6.3,14.2-14.1c0-3.2-1.1-6.2-3-8.6c-1.4,0.7-2.8,1.5-4.1,2.2C180.9,90.5,173.8,93.5,166.4,94.8z"/>
				<path fill-rule="evenodd" clip-rule="evenodd" fill="#333333" d="M180.5,100c3.7,0,6.7-3,6.7-6.6c0-2-0.9-3.8-2.3-5
					c-3.6,1.7-7.2,3.3-11,4.5c0,0.2,0,0.3,0,0.5C173.8,97.1,176.8,100,180.5,100z"/>
				<ellipse fill="#FFFFFF" cx="175.4" cy="98" rx="3.4" ry="3.4"/>
			</g>
			<path fill="#0F8B00" d="M217.8,73.9c0,0-2.4,0.4-3.8,0.7c7.8,14.1,25.6,51.1-3.4,52.6c0.4,0,0.7,0,1.1,0c2.3,0.1,4.7,0,6.9-0.4
				c4.1-0.8,7.8-3.9,10.2-7.3c6.2-9.1,2-21.4-2.5-30.3C224.8,86,217.8,73.9,217.8,73.9z"/>
		</g>
		<g>
			<path fill-rule="evenodd" clip-rule="evenodd" fill="#FFFFFF" d="M96.6,95.4c-10,0-19.4-3.8-28.2-8.4
				c-8.5-4.4-16.7-9.6-25.9-12.3c-1.1-0.3-4.4-0.8-4.4-0.8S31.2,86,29.6,89.2c-4.5,8.9-8.6,21.2-2.5,30.3c2.3,3.4,6,6.5,10.2,7.3
				c2.6,0.5,5.2,0.5,7.8,0.4c7.1-0.2,14.1-1.5,21-2.9c14.5-3,28.9-7.1,42.9-12.2c1.9-0.7,8.4-3.2,9.5-4.1c2.3-1.8,3.1-5.3,3.6-8.1
				c0.9-4.6,0.9-9.3,0.7-14C113.3,86.7,106.2,95.4,96.6,95.4z"/>
			<g>
				<path fill-rule="evenodd" clip-rule="evenodd" fill="#3E99DD" d="M89.6,94.8c-0.7,7.1-6.7,12.7-14.1,12.7
					c-7.8,0-14.2-6.3-14.2-14.1c0-3.2,1.1-6.2,3-8.6c1.4,0.7,2.8,1.5,4.1,2.2C75.1,90.5,82.2,93.5,89.6,94.8z"/>
				<path fill-rule="evenodd" clip-rule="evenodd" fill="#333333" d="M75.5,100c-3.7,0-6.7-3-6.7-6.6c0-2,0.9-3.8,2.3-5
					c3.6,1.7,7.2,3.3,11,4.5c0,0.2,0,0.3,0,0.5C82.2,97.1,79.2,100,75.5,100z"/>
				<ellipse fill="#FFFFFF" cx="80.6" cy="98" rx="3.4" ry="3.4"/>
			</g>
			<path fill="#0F8B00" d="M38.2,73.9c0,0,2.4,0.4,3.8,0.7c-7.8,14.1-25.6,51.1,3.4,52.6c-0.4,0-0.7,0-1.1,0c-2.3,0.1-4.7,0-6.9-0.4
				c-4.1-0.8-7.8-3.9-10.2-7.3c-6.2-9.1-2-21.4,2.5-30.3C31.2,86,38.2,73.9,38.2,73.9z"/>
		</g>
	</g>
</g>
</svg>
