<?xml version="1.0" encoding="utf-8"?>
<!-- Generator: Adobe Illustrator 17.1.0, SVG Export Plug-In . SVG Version: 6.00 Build 0)  -->
<!DOCTYPE svg PUBLIC "-//W3C//DTD SVG 1.1//EN" "http://www.w3.org/Graphics/SVG/1.1/DTD/svg11.dtd">
<svg version="1.1" id="Layer_1" xmlns="http://www.w3.org/2000/svg" xmlns:xlink="http://www.w3.org/1999/xlink" x="0px" y="0px"
	 viewBox="0 0 256 256" enable-background="new 0 0 256 256" xml:space="preserve">
<path fill-rule="evenodd" clip-rule="evenodd" fill="#FDC336" d="M128,256c70.5,0,128-55.5,128-126.6C256,58.1,198.5,0,128,0
	C57.5,0,0,58.1,0,129.4C0,200.5,57.5,256,128,256z"/>
<path fill="#FDDD58" d="M185.3,79c0,41.4-33.6,74.9-75.1,74.9C68.6,153.9,35,120.4,35,79c0-41.4,33.6-74.9,75.1-74.9
	C151.6,4.1,185.3,37.7,185.3,79z"/>
<g>
	<path fill="#FFFFFF" d="M89.2,107.1C89.2,107.1,89.2,107.1,89.2,107.1c-0.1,0-0.1,0-0.1,0C89.1,107.1,89.2,107.1,89.2,107.1z
		 M89.1,107.1 M122.7,41.1c-1.1-0.2-2.1-0.4-3.2-0.6c-17.5-3-40.9-0.9-63.7,6.7c-0.5,0.2-1,0.3-1.5,0.5c-2,2.1-3.9,4.1-5.7,6.2
		C32.4,73.2,35.8,95.6,56.3,104c8.5,3.5,21.1,4.6,32.9,3.1c5.5-1,21.5-4.5,26-6.8C120.3,97.8,121.2,63.7,122.7,41.1
		C122.7,41.2,122.7,41.1,122.7,41.1z"/>
	<path fill="#FFFFFF" d="M166.1,107.1C166.1,107.1,166.1,107.1,166.1,107.1c0.1,0,0.1,0,0.1,0C166.2,107.1,166.1,107.1,166.1,107.1z
		 M166.2,107.1 M132.6,41.1c1.1-0.2,2.1-0.4,3.2-0.6c17.5-3,40.9-0.9,63.7,6.7c0.5,0.2,1,0.3,1.5,0.5c2,2.1,3.9,4.1,5.7,6.2
		C223,73.2,219.5,95.6,199,104c-8.5,3.5-21.1,4.6-32.9,3.1c-5.5-1-21.5-4.5-26-6.8C135,97.8,134.1,63.7,132.6,41.1
		C132.6,41.2,132.6,41.1,132.6,41.1z"/>
</g>
<path fill="#FF9800" d="M51.2,58.5c1.7-2.1,3.5-4.2,5.5-6.2c0.5-0.2,0.9-0.3,1.4-0.5c22.1-7.6,44.7-9.6,61.6-6.7
	c0.9,0.2,1.8,0.4,2.7,0.5c0.1-1.5,0.2-3.1,0.3-4.5c0,0,0,0-0.1,0c-1.1-0.2-2.1-0.4-3.2-0.6c-17.5-3-40.9-0.9-63.7,6.7
	c-0.5,0.2-1,0.3-1.5,0.5c-2,2.1-3.9,4.1-5.7,6.2c-12,14.2-13.2,30.2-4.9,40.9C38.9,84.4,41.2,70.8,51.2,58.5z"/>
<path fill="#FF9800" d="M135.6,45.1c16.9-3,39.5-0.9,61.6,6.7c0.5,0.2,0.9,0.3,1.4,0.5c2,2.1,3.8,4.1,5.5,6.2
	c10,12.3,12.3,25.9,7.5,36.3c8.4-10.8,7.1-26.7-4.9-40.9c-1.7-2.1-3.7-4.2-5.7-6.2c-0.5-0.2-1-0.3-1.5-0.5
	c-22.8-7.6-46.2-9.6-63.7-6.7c-1.1,0.2-2.1,0.4-3.2,0.6c0,0,0,0-0.1,0c0.1,1.5,0.2,3,0.3,4.5C133.8,45.5,134.7,45.3,135.6,45.1z"/>
<g>
	<path fill="#FFFFFF" d="M256,146.4l-11.5-21.6c0,0-16.8-3.8-47.6-2.4c-25.4,1.1-68.5,11.2-68.5,11.2s-43.1-10-68.5-11.2
		c-30.9-1.4-47.6,2.4-47.6,2.4L0,146.4l106.7,1.6l-0.1,11.4h42.7v-11.4L256,146.4z"/>
	<polygon fill="#B25CFF" points="0,151 26.3,250.7 109.4,252.7 106.7,151 	"/>
	<polygon fill="#B25CFF" points="256,151 229.7,250.7 146.6,252.6 149.3,151 	"/>
	<path fill="#6B3692" d="M149.3,146.4c0,0-10.1,4.1-21.4,4.1c-11.3,0-21.2-4.1-21.2-4.1H0v4.7h106.7v6.7v1.6h42.6v-1.6V151H256v-4.7
		H149.3z"/>
	<path fill-rule="evenodd" clip-rule="evenodd" fill="#B25CFF" d="M127.9,155.3c-11.1,0-21.3-4.2-21.3-4.2l2.7,103.2
		c0,0,8.7,1.7,18.5,1.7c0,0,0,0,0.1,0c0,0,0,0,0.1,0c9.9,0,18.5-1.7,18.5-1.7l2.8-103.2C149.4,151.1,139,155.3,127.9,155.3z"/>
	<path fill="#FDDD58" d="M107.2,172.2l0.2,7c3.6,1.1,11.6,3.2,20.7,3.2c9,0,16.9-2.1,20.5-3.2l0.2-6.8c-2.5,0.9-10.7,3.5-20.7,3.5
		C117.9,175.9,109.6,173.1,107.2,172.2z"/>
	<path fill="#FDDD58" d="M149,164.9l0.2-7c-2.5,0.9-10.9,3.6-21.1,3.6c-10.3,0-18.7-2.8-21.3-3.8l0.2,7.2c3.6,1.1,11.8,3.2,21.1,3.2
		C137.2,168.2,145.3,166.1,149,164.9z"/>
	<path fill="#FDDD58" d="M108.9,237.3l0.2,6.5c3.3,1,10.7,2.9,19,2.9c8.1,0,15.3-1.9,18.8-2.9l0.2-6.2c-2.5,0.9-9.9,3.2-18.9,3.2
		C118.9,240.7,111.3,238.2,108.9,237.3z"/>
	<path fill="#FDDD58" d="M108.5,224l0.2,6.6c3.4,1,10.9,3,19.3,3c8.3,0,15.6-1.9,19.1-3l0.2-6.4c-2.5,0.9-10.1,3.3-19.3,3.3
		C118.7,227.5,111,224.9,108.5,224z"/>
</g>
<g>
	<g>
		<ellipse fill="#3E99DD" cx="86.8" cy="89.8" rx="14.8" ry="14.7"/>
		<ellipse fill-rule="evenodd" clip-rule="evenodd" fill="#333333" cx="86.8" cy="89.8" rx="6.9" ry="6.9"/>
		<ellipse fill="#FFFFFF" cx="92.1" cy="84.1" rx="3.5" ry="3.5"/>
	</g>
	<g>
		<ellipse fill="#3E99DD" cx="173.9" cy="89.2" rx="14.8" ry="14.7"/>
		<ellipse fill-rule="evenodd" clip-rule="evenodd" fill="#333333" cx="173.9" cy="89.2" rx="6.9" ry="6.9"/>
		<ellipse fill="#FFFFFF" cx="168.5" cy="83.5" rx="3.5" ry="3.5"/>
	</g>
	<path fill-rule="evenodd" clip-rule="evenodd" fill="#333333" d="M252.7,81.7c-0.3-1.9-2.2-3.3-4.1-2.9l-31,5.1
		c0.3-1.9,0.4-3.8,0.4-5.8c0-23.1-18.9-41.9-42.2-41.9c-23.3,0-42.2,18.8-42.2,41.9c0,1.2,0.1,2.3,0.2,3.5c-1.8-0.5-3.7-0.8-5.6-0.8
		c-2,0-3.8,0.3-5.6,0.8c0.1-1.2,0.2-2.3,0.2-3.5c0-23.1-19-41.9-42.2-41.9C57,36.2,38.1,55,38.1,78.1c0,1.7,0.1,3.5,0.3,5.2l-31-4.5
		c-2-0.3-3.8,1.1-4.1,3c-0.3,1.9,1.1,3.8,3,4L40,90.7c5.4,17,21.4,29.3,40.3,29.3c19.7,0,36.3-13.5,40.9-31.6c1.9-1,4.2-1.6,6.8-1.6
		c2.5,0,4.8,0.6,6.8,1.6c4.6,18.1,21.2,31.6,40.9,31.6c18.8,0,34.7-12.2,40.2-29c0.3,0.1,0.6,0.1,1,0.1c0.2,0,0.4,0,0.6,0l32.3-5.3
		C251.7,85.5,253,83.6,252.7,81.7z M80.3,112.9c-15.6,0-28.9-10.2-33.4-24.3c0-0.2,0.1-0.3,0.1-0.5c0.2-1.2-0.3-2.3-1-3.1
		c-0.5-2.3-0.7-4.6-0.7-7c0-19.2,15.7-34.8,35.1-34.8c19.3,0,35.1,15.6,35.1,34.8c0,2.7-0.3,5.4-0.9,8c-2.7,2.6-4.3,6-4.3,9.7
		c0,0.2,0,0.3,0.1,0.5C104,106.3,92.9,112.9,80.3,112.9z M175.7,112.9c-12.6,0-23.7-6.6-29.9-16.6c0-0.2,0.1-0.3,0.1-0.5
		c0-3.7-1.6-7.1-4.3-9.7c-0.6-2.6-0.9-5.2-0.9-8c0-19.2,15.7-34.8,35.1-34.8c19.3,0,35.1,15.6,35.1,34.8
		C210.8,97.3,195,112.9,175.7,112.9z"/>
</g>
</svg>
