<?xml version="1.0" encoding="utf-8"?>
<!-- Generator: Adobe Illustrator 17.1.0, SVG Export Plug-In . SVG Version: 6.00 Build 0)  -->
<!DOCTYPE svg PUBLIC "-//W3C//DTD SVG 1.1//EN" "http://www.w3.org/Graphics/SVG/1.1/DTD/svg11.dtd">
<svg version="1.1" id="Layer_1" xmlns="http://www.w3.org/2000/svg" xmlns:xlink="http://www.w3.org/1999/xlink" x="0px" y="0px"
	 viewBox="0 0 256 256" enable-background="new 0 0 256 256" xml:space="preserve">
<g>
	<path fill-rule="evenodd" clip-rule="evenodd" fill="#FDC336" d="M128,256c70.5,0,128-57.6,128-128C256,57.5,198.5,0,128,0
		C57.5,0,0,57.5,0,128C0,198.4,57.5,256,128,256z"/>
	<path fill="#FDDD58" d="M185.3,79c0,41.4-33.6,74.9-75.1,74.9C68.6,153.9,35,120.4,35,79c0-41.4,33.6-74.9,75.1-74.9
		C151.6,4.1,185.3,37.7,185.3,79z"/>
</g>
<g>
	<path fill="#FFFFFF" d="M108.2,123.4c-14.1,8.6-35.9,9-48.5,2.6c-19.3-9.8-22.5-35.9-7.3-58.4C67.8,45.1,95.8,22,115.1,31.8
		C134.4,41.6,115.7,118.9,108.2,123.4z"/>
	<g>
		<ellipse fill="#3E99DD" cx="100.1" cy="60.6" rx="14.7" ry="14.8"/>
		<path fill-rule="evenodd" clip-rule="evenodd" fill="#333333" d="M107,60.6c0,3.8-3.1,6.9-6.9,6.9c-3.8,0-6.9-3.1-6.9-6.9
			s3.1-6.9,6.9-6.9C103.9,53.7,107,56.8,107,60.6z"/>
		<ellipse fill="#FFFFFF" cx="105.4" cy="54.8" rx="3.5" ry="3.5"/>
	</g>
	<path fill="#FFFFFF" d="M147.8,124.1c14.1,8.6,35.9,9,48.5,2.6c19.3-9.8,22.5-35.9,7.3-58.4c-15.3-22.5-43.3-45.6-62.6-35.8
		C121.6,42.3,140.3,119.6,147.8,124.1z"/>
	<g>
		<ellipse fill="#3E99DD" cx="157.1" cy="60.6" rx="14.7" ry="14.8"/>
		<path fill-rule="evenodd" clip-rule="evenodd" fill="#333333" d="M164.1,60.6c0,3.8-3.1,6.9-6.9,6.9c-3.8,0-6.9-3.1-6.9-6.9
			c0-3.8,3.1-6.9,6.9-6.9C161,53.7,164.1,56.8,164.1,60.6z"/>
		<circle fill="#FFFFFF" cx="162.5" cy="54.8" r="3.5"/>
	</g>
	<path fill="#FF9800" d="M65.3,128.1C46,118.3,42.7,92.1,58,69.6C72,49,96.8,27.9,115.6,32.1c-0.2-0.1-0.3-0.2-0.5-0.3
		C95.8,22,67.8,45.1,52.5,67.6c-15.3,22.5-12,48.6,7.3,58.4c1.9,1,4,1.7,6.2,2.4C65.7,128.3,65.5,128.2,65.3,128.1z"/>
	<path fill="#FF9800" d="M203.5,68.3c-15.3-22.5-43.3-45.6-62.6-35.8c-0.2,0.1-0.3,0.2-0.5,0.3c18.9-4.2,43.6,16.9,57.6,37.5
		c15.3,22.5,12,48.6-7.3,58.4c-0.2,0.1-0.5,0.2-0.7,0.3c2.2-0.6,4.3-1.4,6.2-2.4C215.5,116.9,218.8,90.8,203.5,68.3z"/>
</g>
<path fill="#FDDD58" d="M221.7,170.5c-17.8,11.7-57.3,26.1-94.1,26.9c-39.9,0.9-80.8-21.6-90-29c-0.6,0.9-2.8,3.6-3.7,4.4
	c15.5,14.8,54,71.1,95.1,70.1c44.6-1.1,76.9-52.4,94.2-68.3C222.1,174,222.6,171.4,221.7,170.5z"/>
<path fill="#CC1700" d="M217.7,166.3c-17.1,11-54.8,24.7-90,25.4c-38.2,0.8-77.3-20.4-86.1-27.4c-0.6,0.9-2.7,3.4-3.5,4.1
	c14.8,13.9,51.7,67.2,91,66.2c42.7-1,73.6-49.5,90.1-64.5C218.1,169.6,218.5,167.2,217.7,166.3z"/>
<g>
	<g>
		<path fill="#FF9800" d="M193.5,17.2c-0.9,13.5,2,22.3-3.3,30.8c-5.2,8.5-18,32.3-21.3,54.4c-3.2,22.1-2.8,40.6,3.6,53.4
			c5.7,11.4,9.2,15.2,39,18.4c9.8,0.4,13.5,0.1,17.1,0.3c11.7-0.7,17-95.7,11-96.1c-8-0.6-15.1-4.4-17-8.6
			c-6.5-14.4,5.8-28.1,6.9-42.3c1.4-18.1-6.6-29.6-22.3-27.1C199.6,1.5,194,9.3,193.5,17.2z"/>
	</g>
	<path fill="#FDDD58" d="M235.6,144c9,0,16.4,6.8,16.4,15.2c0,8.4-7.3,15.2-16.4,15.2h-30.5c-9,0-16.4-6.8-16.4-15.2
		c0-8.4,7.3-15.2,16.4-15.2H235.6z"/>
	<path fill="#FDDD58" d="M239,109.8c9,0,16.4,6.8,16.4,15.2c0,8.4-7.3,15.2-16.4,15.2h-35.7c-9,0-16.4-6.8-16.4-15.2
		c0-8.4,7.3-15.2,16.4-15.2H239z"/>
	<path fill="#FDDD58" d="M232.7,75.7c9,0,16.4,6.8,16.4,15.2c0,8.4-7.3,15.2-16.4,15.2H210c-9,0-16.4-6.8-16.4-15.2
		c0-8.4,7.3-15.2,16.4-15.2H232.7z"/>
</g>
</svg>
