<?xml version="1.0" encoding="utf-8"?>
<!-- Generator: Adobe Illustrator 18.0.0, SVG Export Plug-In . SVG Version: 6.00 Build 0)  -->
<!DOCTYPE svg PUBLIC "-//W3C//DTD SVG 1.1//EN" "http://www.w3.org/Graphics/SVG/1.1/DTD/svg11.dtd">
<svg version="1.1" id="icon" xmlns="http://www.w3.org/2000/svg" xmlns:xlink="http://www.w3.org/1999/xlink" x="0px" y="0px"
	 width="256px" height="256px" viewBox="0 0 256 256" enable-background="new 0 0 256 256" xml:space="preserve">
<g>
	<g>
		<path fill="#9E2F30" d="M160.4,153.4c12.1,28.4,19.2,64,19.2,102.6h27.1c0-44.2-13.3-84.3-34.6-114.3L160.4,153.4z"/>
		<path fill="#9E2F30" d="M184.2,129.6l-7.4,7.4c25.4,30.4,40.7,72.5,40.7,119h24.1C241.6,205.6,219.3,160.4,184.2,129.6z"/>
		<path fill="#9E2F30" d="M139.9,173.9c4.4,24.3,7,52.3,7,82.1h21.9c0-35.7-5.7-68.7-15-95.9L139.9,173.9z"/>
	</g>
</g>
<path fill="#F5B400" d="M194.1,106.9c0,0-26.8,8.6-46.1,5.1C159.3,85.9,19.2,6.1,19.2,6.1c0,0-14.7,86.1,18.8,119.6
	c19.8,19.8,48.4,25.5,73.3,17c0,0,3.7,0,5,1.3c0.4,0.4,0.6,0.8,0.9,1.3c0.1,0.9,0.5,3.2,0.5,3.2c2.3,16.7,2.5,32.5,2.5,32.5
	L194.1,106.9z"/>
<path fill="#FFDF74" d="M157,144l37.1-37.1c0,0-16,0.2-32.9-2.1c0,0-2.9-0.4-4.2-1.6c-1.3-1.3-1.2-4.9-1.2-4.9
	c8.5-24.9,2.9-53.6-17-73.4C105.3-8.7,19.2,6.1,19.2,6.1s0,0.1,0,0.2L157,144z"/>
<path fill="#9E2F30" d="M92.7,76.1c0-2.2-1.8-4.1-4.1-4.1c-2.2,0-4.1,1.8-4.1,4.1l0,30H50.4l0,29.4c2.6,1.7,5.4,3.1,8.1,4.4l0-25.7
	c0,0,29.9,0.1,30,0.1c1.1,0,2.2-0.5,2.9-1.2c0.8-0.7,1.2-1.8,1.2-2.9C92.7,110,92.7,76.1,92.7,76.1z"/>
<path fill="#BF4851" d="M93.1,80.1c0,0,29.4,0.1,29.6,0.1c1.1,0,2.2-0.5,2.9-1.2c0.8-0.7,1.2-1.8,1.2-2.9c0-0.2-0.1-30-0.1-30h26.7
	c-1.2-2.8-2.7-5.5-4.3-8.1h-30.5l0,34.1h-30c-1,0-1.9,0.4-2.6,1L93.1,80.1z"/>
<g>
	<path fill="#4D4D4D" d="M191.3,110c-1,0-2-0.4-2.8-1.2c-1.6-1.6-1.6-4.1,0-5.7c2.7-2.7,5.8-6.5,5.4-9.5c-0.5-4-7.6-7.9-14.4-11.8
		c-12-6.7-26.9-15.1-26.3-32.3c0.1-2.2,1.8-3.9,4-3.9c0,0,0.1,0,0.1,0c2.2,0.1,3.9,1.9,3.9,4.1c-0.4,12.3,11.1,18.8,22.3,25.1
		c8.9,5,17.3,9.7,18.4,17.7c0.7,5.1-1.8,10.4-7.7,16.2C193.3,109.7,192.3,110,191.3,110z"/>
</g>
<g>
	<path fill="#4D4D4D" d="M108.4,187.8c-0.6,0-1.1,0-1.6-0.1c-7.9-1.1-12.6-9.5-17.7-18.4C82.8,158.2,76.4,146.7,64,147
		c-2,0.1-4.1-1.7-4.1-3.9c-0.1-2.2,1.7-4.1,3.9-4.1c17.1-0.7,25.5,14.3,32.3,26.3c3.8,6.8,7.8,13.8,11.8,14.4c3,0.4,6.8-2.7,9.5-5.4
		c1.6-1.6,4.1-1.6,5.7,0s1.6,4.1,0,5.7C117.7,185.2,112.9,187.8,108.4,187.8z"/>
</g>
</svg>
