<?xml version="1.0" encoding="utf-8"?>
<!-- Generator: Adobe Illustrator 18.0.0, SVG Export Plug-In . SVG Version: 6.00 Build 0)  -->
<!DOCTYPE svg PUBLIC "-//W3C//DTD SVG 1.1//EN" "http://www.w3.org/Graphics/SVG/1.1/DTD/svg11.dtd">
<svg version="1.1" id="icon" xmlns="http://www.w3.org/2000/svg" xmlns:xlink="http://www.w3.org/1999/xlink" x="0px" y="0px"
	 width="256px" height="256px" viewBox="0 0 256 256" enable-background="new 0 0 256 256" xml:space="preserve">
<path fill="#9E2F30" d="M211.2,132.9c0-9.8-6.9-18-16.2-20c4-3.7,6.5-9,6.5-14.9c0-11.3-9.2-20.4-20.4-20.4c-1.9,0-3.6,0.3-5.3,0.8
	c0.2-1.3,0.3-2.6,0.3-3.9c0-13.3-10.8-24.1-24.1-24.1c-12.2,0-22.2,9-23.8,20.7c-1.6-11.7-11.7-20.7-23.8-20.7
	c-13.3,0-24.1,10.8-24.1,24.1c0,1.3,0.1,2.7,0.3,3.9c-1.7-0.5-3.5-0.8-5.3-0.8c-11.3,0-20.4,9.2-20.4,20.4c0,5.9,2.5,11.1,6.5,14.9
	c-9.2,2-16.2,10.2-16.2,20c0,5.2,2,10,5.3,13.6c-1.5,3.1-2.3,6.6-2.3,10.2c0,9.2,5.2,17.2,12.8,21.1c-0.4,1.7-0.5,3.5-0.5,5.3
	c0,12.2,8.3,22.4,19.6,25.5c3.3,9.5,12.3,16.4,23,16.4c1.5,0,3.1-0.2,4.5-0.4c5.3,5.4,12.6,8.7,20.8,8.7c8.1,0,15.5-3.3,20.8-8.7
	c1.5,0.3,3,0.4,4.5,0.4c10.7,0,19.7-6.9,23-16.4c11.3-3,19.6-13.3,19.6-25.5c0-1.8-0.2-3.6-0.5-5.3c7.6-4,12.8-11.9,12.8-21.1
	c0-3.7-0.9-7.1-2.3-10.2C209.1,142.9,211.2,138.1,211.2,132.9z"/>
<path fill="#BF4851" d="M198.1,122.3c0-7.7-4.8-14.2-11.5-16.9c4.2-3.3,6.9-8.4,6.9-14.2c0-10.1-8.2-18.2-18.2-18.2
	c-7.5,0-13.9,4.5-16.7,11c-0.3,0-0.6,0-0.9,0.1c3.2-3.8,5.2-8.6,5.2-13.9c0-11.9-9.6-21.5-21.5-21.5c-5,0-9.6,1.8-13.2,4.7
	c-3.7-2.9-8.2-4.7-13.3-4.7c-11.9,0-21.5,9.6-21.5,21.5c0,5.3,2,10.1,5.2,13.9C98.3,84,97.9,84,97.6,84c-2.8-6.5-9.2-11-16.7-11
	c-10.1,0-18.2,8.2-18.2,18.2c0,5.7,2.7,10.8,6.9,14.2c-6.7,2.7-11.5,9.2-11.5,16.9c0,4.8,1.9,9.2,5,12.5c-1.2,2.7-1.9,5.6-1.9,8.8
	c0,6.5,3,12.2,7.5,16.1c-0.4,1.7-0.6,3.4-0.6,5.2c0,10.3,6.7,19.1,16,22.2c1.4,10.7,10.5,18.9,21.5,18.9c1.4,0,2.7-0.1,4-0.4
	c4.7,4.8,11.3,7.8,18.5,7.8c7.2,0,13.8-3,18.5-7.8c1.3,0.2,2.7,0.4,4,0.4c11,0,20.1-8.3,21.5-18.9c9.3-3.1,16-11.9,16-22.2
	c0-1.8-0.2-3.5-0.6-5.2c4.6-3.9,7.5-9.6,7.5-16.1c0-3.1-0.7-6.1-1.9-8.8C196.2,131.5,198.1,127.1,198.1,122.3z"/>
<g>
	<g>
		<path fill="#FFDF74" d="M141.5,63c0,0,4.3,10.7,13,18.4c7.6,6.7,16.3,8.5,19.1,8.5c2.8,0,12.5-13.2,21.4-13.2
			c43.4,0,33.6,36.1,27,36.1c-3.8,0-6.9-1.9-6.9-1.9s-11,28.4,2.3,28.4c22,0,38.6-17.3,38.6-44.8c0-27.5-27.3-58.3-59.1-58.1
			C165.1,36.7,142.2,59.9,141.5,63z"/>
		<g>
			<path fill="#F5B400" d="M195,76.7c37.3,0,35.3,26.7,29.8,34.2c6.3-4.1,9-11.3,9-17.1c0-12.7-8-34.8-37.8-34.6
				c-20.1,0.1-36.4,10.8-45.1,18.6c1.1,1.2,2.3,2.5,3.6,3.6c7.6,6.7,16.3,8.5,19.1,8.5C176.4,90,186.1,76.7,195,76.7z"/>
		</g>
		<path fill="#FFDF74" d="M253.4,55.4c-0.3-2.3-29.1-12.3-51.7,18c-22.8,30.7-7.4,63,10,65.6c24.4,3.7,22.8-26.1,10.2-26.1
			c-12.3,0-7.3-29.4,2.8-40.7C236.5,59.2,243.1,57,253.4,55.4z"/>
	</g>
	<g>
		<path fill="#FFDF74" d="M114.7,63c0,0-4.3,10.7-13,18.4C94,88.1,85.3,90,82.5,90C79.8,90,70,76.7,61.2,76.7
			c-43.4,0-33.6,36.1-27,36.1c3.8,0,6.9-1.9,6.9-1.9s11,28.4-2.3,28.4c-22,0-38.6-17.3-38.6-44.8c0-27.5,27.3-58.3,59.1-58.1
			C91.1,36.7,114,59.9,114.7,63z"/>
		<g>
			<path fill="#F5B400" d="M61.2,76.7c-37.3,0-35.3,26.7-29.8,34.2c-6.3-4.1-9-11.3-9-17.1c0-12.7,8-34.8,37.8-34.6
				c20.1,0.1,36.4,10.8,45.1,18.6c-1.1,1.2-2.3,2.5-3.6,3.6C94,88.1,85.3,90,82.5,90C79.8,90,70,76.7,61.2,76.7z"/>
		</g>
		<path fill="#FFDF74" d="M2.7,55.4c0.3-2.3,29.1-12.3,51.7,18c22.8,30.7,7.4,63-10,65.6C20.1,142.8,21.6,113,34.2,113
			c12.3,0,7.3-29.4-2.8-40.7C19.7,59.2,13.1,57,2.7,55.4z"/>
	</g>
</g>
<g>
	<path fill="#FFDF74" d="M151.9,188.2c-1.8,1.3-10,4-15.1,2.8c-3.7-0.9-6.9-3.9-8.3-5.3c-0.2-0.3-0.6-0.4-1,0
		c-1.4,1.4-4.6,4.4-8.3,5.3c-5.1,1.2-13.2-1.5-15.1-2.8c-1.4-1,8.9,16,23.8,16.1c0,0,0,0,0.1,0c0,0,0,0,0,0c0,0,0,0,0,0
		c0,0,0,0,0.1,0C143,204.2,153.3,187.2,151.9,188.2z"/>
	<path fill="#4D4D4D" d="M153.7,172.5c0,11.4-11.6,20.7-25.8,20.7c-14.3,0-25.8-9.3-25.8-20.7s11.6-16.7,25.8-16.7
		C142.2,155.8,153.7,161.1,153.7,172.5z"/>
	<path fill="#4D4D4D" d="M171.9,117.5c0,11.4-19.9,16.7-44.4,16.7c-24.5,0-44.4-5.3-44.4-16.7s19.9-24.7,44.4-24.7
		C152,92.8,171.9,106.1,171.9,117.5z"/>
	<path fill="#FFDF74" d="M176.3,113.7c0-0.2-0.1-0.4-0.2-0.6c0.2-7-27.6-24.7-22.7-21.7c-10.7-6.7-19.6-23.3-22-23.5
		c0,0-0.1,0-0.2,0c-0.6-0.3-1.9-0.3-3.3-0.2c-1.4-0.1-2.7,0-3.3,0.2c-0.1,0-0.2,0-0.2,0c-2.4,0.2-11.3,16.8-22,23.5
		c4-2.5-14.4,9.2-20.7,17.3c-0.4,0.4-0.8,1-1.2,1.7c-0.6,1-1,2.9-1,3c-2.4,10.7,13.1,29.9,13.4,42c0.2,7.9-1.1,33.9,17.9,36.2
		c13.6,1.6,17.2-7.7,11.1-12c-6.9-4.8-14.7-13.8-14.8-13.5c0.3-2.7,13.7-3.9,20.5-3.9c0.1,0,0.1-0.1,0.2-0.1c0.1,0,0.1,0.1,0.2,0.1
		c6.8,0,20.2,1.2,20.5,3.9c0-0.3-7.9,8.7-14.8,13.5c-6.1,4.2-2.5,13.6,11.1,12c19-2.3,17.7-28.3,17.9-36.2
		C163.1,143.2,178.7,124.4,176.3,113.7z M105.6,121.5c-4,0-8.5-4.1-12.6-7.8c4.3-1.3,8.8-2.9,11.9-3.1c9.6-0.8,12.7,4.5,12.7,4.5
		S112.2,121.5,105.6,121.5z M150.5,121.5c-6.6,0-12-6.5-12-6.5s3.2-5.3,12.7-4.5c3.1,0.3,7.6,1.8,12,3.2
		C159.1,117.4,154.6,121.5,150.5,121.5z"/>
	<path fill="#FAEC94" d="M124.7,67.8c-0.1,0-0.2,0-0.2,0c-2.4,0.2-11.3,16.8-22,23.5c4-2.5-14.4,9.2-20.7,17.3
		c-0.4,0.4-0.8,1-1.2,1.7c-0.6,1-1,2.9-1,3c-2.4,10.7,13.1,29.9,13.4,42c0.2,7.9-1.1,33.9,17.9,36.2c13.6,1.6,17.2-7.7,11.1-12
		c-6.9-4.8-14.7-13.8-14.8-13.5c0.3-2.7,13.7-3.9,20.5-3.9c0,0,0,0,0,0V67.6C126.6,67.6,125.3,67.6,124.7,67.8z M117.6,115
		c0,0-5.3,6.5-12,6.5c-3.5,0-7.4-3.1-11.1-6.4c-0.5-0.5-1-0.9-1.6-1.4c2.2-0.7,4.4-1.4,6.4-2c2-0.6,3.9-1,5.5-1.2c0,0,0,0,0,0
		c2.4-0.2,4.4,0,6,0.4c0.8,0.2,1.6,0.4,2.2,0.7C116.3,113,117.6,115,117.6,115L117.6,115L117.6,115z"/>
</g>
</svg>
