<?xml version="1.0" encoding="utf-8"?>
<!-- Generator: Adobe Illustrator 18.0.0, SVG Export Plug-In . SVG Version: 6.00 Build 0)  -->
<!DOCTYPE svg PUBLIC "-//W3C//DTD SVG 1.1//EN" "http://www.w3.org/Graphics/SVG/1.1/DTD/svg11.dtd">
<svg version="1.1" id="icon" xmlns="http://www.w3.org/2000/svg" xmlns:xlink="http://www.w3.org/1999/xlink" x="0px" y="0px"
	 width="256px" height="256px" viewBox="0 0 256 256" enable-background="new 0 0 256 256" xml:space="preserve">
<g>
	<g>
		<path fill="#9E2F30" d="M162.4,204.9c0,0-5.7,0.2-7.1,5c-1.5,4.9,3.9,15.5,3.9,21.4s-7.4,18.6-12.5,24.7
			c5.9-1.5,20.3-18.3,21.4-25.6C169.2,223.2,164.7,204.5,162.4,204.9z"/>
		<path fill="#9E2F30" d="M177,187.9c0,0-5.2,2.3-4.7,7.3c0.5,5,9.5,12.8,11.7,18.3c2.2,5.5,0.2,20.1-2.2,27.6
			c4.9-3.6,11.8-24.6,10.1-31.8C190.1,202.2,178.9,186.6,177,187.9z"/>
		<path fill="#9E2F30" d="M189.4,169.1c0,0-4.2,3.8-2.2,8.4c2,4.6,13,9.2,16.8,13.7c3.8,4.5,6.4,19,6.5,26.9
			c3.5-5,3.6-27.1-0.3-33.3C206.3,178.6,190.8,167.3,189.4,169.1z"/>
		<path fill="#9E2F30" d="M239.4,107.9c-2,8.4-7.8,24.1-13.1,27.8s-12.3,7.3-21.8,10.1c-5.3,1.6,0.3,9.6,0.3,9.6
			c1.1,2.3,21-6,26.1-11.8c0,0-4.7,4.1,0.1,0C235.8,139.4,242,114,239.4,107.9z"/>
		<path fill="#9E2F30" d="M181,52c-3.6,3.2-14.8,2.9-25.5-18.6c-7.8,26.1,26.2,55.4,49.7,55.4C220.1,88.8,189.3,44.7,181,52z"/>
		<path fill="#BF4851" d="M224,44.2C212.9,13,180.4-4.6,142.8,16.8c33.1-0.5,43.3,26,38.2,35.2c-12.4,22.1,33.8,43.4-3.8,70.4
			c-7,5-9.6,10.8-9.6,10.8C224.4,124.7,232.9,69.3,224,44.2z"/>
		<path fill="#BF4851" d="M148.8,190.1c7.7,9.5,17.7,15.4,17.7,18.3s-9.7,9-12,7.7c-1.7-1-8.9-15.1-10.9-20.4
			C141.7,190.4,148.8,190.1,148.8,190.1z"/>
		<path fill="#BF4851" d="M158.7,179.3c10.7,5.9,22.2,7.5,23.3,10.2s-5.5,12-8.1,11.7c-2-0.3-14-10.5-17.8-14.7
			C152.3,182.3,158.7,179.3,158.7,179.3z"/>
		<path fill="#BF4851" d="M169.3,166.7c12,2.3,23.5,0.2,25.4,2.5s-1.5,13.1-4.1,13.6c-2,0.4-16.6-5.7-21.5-8.5
			C164.1,171.5,169.3,166.7,169.3,166.7z"/>
		<path fill="#BF4851" d="M172.9,159.5c13.1,2.8,35.1-0.9,37.7-2.8s1.6-14.5-1.1-15.6c-2-0.9-22.1,12.2-32.2,11.6
			C171.1,152.4,172.9,159.5,172.9,159.5z"/>
	</g>
	<g>
		<path fill="#9E2F30" d="M94.3,204.9c0,0,5.7,0.2,7.1,5c1.5,4.9-3.9,15.5-3.9,21.4S105,250,110,256c-5.9-1.5-20.3-18.3-21.4-25.6
			C87.5,223.2,92,204.5,94.3,204.9z"/>
		<path fill="#9E2F30" d="M79.7,187.9c0,0,5.2,2.3,4.7,7.3c-0.5,5-9.5,12.8-11.7,18.3c-2.2,5.5-0.2,20.1,2.2,27.6
			c-4.9-3.6-11.8-24.6-10.1-31.8C66.6,202.2,77.8,186.6,79.7,187.9z"/>
		<path fill="#9E2F30" d="M67.3,169.1c0,0,4.2,3.8,2.2,8.4c-2,4.6-13,9.2-16.8,13.7c-3.8,4.5-6.4,19-6.5,26.9
			c-3.5-5-3.6-27.1,0.3-33.3C50.4,178.6,65.9,167.3,67.3,169.1z"/>
		<path fill="#9E2F30" d="M17.3,107.9c2,8.4,7.8,24.1,13.1,27.8s12.3,7.3,21.8,10.1c5.3,1.6-0.3,9.6-0.3,9.6
			c-1.1,2.3-21-6-26.1-11.8c0,0,4.7,4.1-0.1,0S14.7,114,17.3,107.9z"/>
		<path fill="#9E2F30" d="M75.7,52c3.6,3.2,14.8,2.9,25.5-18.6c7.8,26.1-26.2,55.4-49.7,55.4C36.6,88.8,67.4,44.7,75.7,52z"/>
		<path fill="#BF4851" d="M32.7,44.2C43.8,13,76.3-4.6,113.9,16.8c-33.1-0.5-43.3,26-38.2,35.2c12.4,22.1-33.8,43.4,3.8,70.4
			c7,5,9.6,10.8,9.6,10.8C32.3,124.7,23.8,69.3,32.7,44.2z"/>
		<path fill="#BF4851" d="M107.9,190.1c-7.7,9.5-17.7,15.4-17.7,18.3s9.7,9,12,7.7c1.7-1,8.9-15.1,10.9-20.4
			C115,190.4,107.9,190.1,107.9,190.1z"/>
		<path fill="#BF4851" d="M98,179.3c-10.7,5.9-22.2,7.5-23.3,10.2s5.5,12,8.1,11.7c2-0.3,14-10.5,17.8-14.7
			C104.4,182.3,98,179.3,98,179.3z"/>
		<path fill="#BF4851" d="M87.4,166.7c-12,2.3-23.5,0.2-25.4,2.5c-1.9,2.2,1.5,13.1,4.1,13.6c2,0.4,16.6-5.7,21.5-8.5
			S87.4,166.7,87.4,166.7z"/>
		<path fill="#BF4851" d="M83.8,159.5c-13.1,2.8-35.1-0.9-37.7-2.8s-1.6-14.5,1.1-15.6c2-0.9,22.1,12.2,32.2,11.6
			C85.6,152.4,83.8,159.5,83.8,159.5z"/>
	</g>
</g>
<g>
	<path fill="#FFDF74" d="M128.5,91.2v117.6c0,0-57.9-37.7-57.9-64.1S128.5,91.2,128.5,91.2z"/>
	<path fill="#F5B400" d="M128.2,91.2v117.6c0,0,57.9-37.7,57.9-64.1S128.2,91.2,128.2,91.2z"/>
	<path fill="#4D4D4D" d="M166.9,103c0,6.1-4.9,11-11,11c-6.1,0-11-4.9-11-11c0-6.1,4.9-11,11-11C161.9,92.1,166.9,97,166.9,103z"/>
	<path fill="#4D4D4D" d="M89.8,103c0,6.1,4.9,11,11,11c6.1,0,11-4.9,11-11c0-6.1-4.9-11-11-11C94.8,92.1,89.8,97,89.8,103z"/>
</g>
</svg>
