<?xml version="1.0" encoding="utf-8"?>
<!-- Generator: Adobe Illustrator 18.0.0, SVG Export Plug-In . SVG Version: 6.00 Build 0)  -->
<!DOCTYPE svg PUBLIC "-//W3C//DTD SVG 1.1//EN" "http://www.w3.org/Graphics/SVG/1.1/DTD/svg11.dtd">
<svg version="1.1" id="icon" xmlns="http://www.w3.org/2000/svg" xmlns:xlink="http://www.w3.org/1999/xlink" x="0px" y="0px"
	 width="256px" height="256px" viewBox="0 0 256 256" enable-background="new 0 0 256 256" xml:space="preserve">
<g>
	<path fill="#4D4D4D" d="M110,186.9c9,6.3,26,5.7,35.7-0.8c-4.3,11.2-9.4,17.4-8.3,24.2c1.3,8.4,8.7,34.5-9.1,45.7
		c5.3-16,2.1-22.5-7.2-35.9C111.5,206.3,110.4,197.1,110,186.9z"/>
	<path fill="#5C5C5C" d="M111.8,186.8c8.1,5.6,25.7-0.8,34.4-6.6c-3.9,10-11.7,11.6-14,23.1c-2.2,10.9,11.9,30.4-1.3,47.3
		c4.8-14.4-0.7-22.1-9-34C113.2,204.3,112.2,196,111.8,186.8z"/>
</g>
<ellipse fill="#F5B400" cx="128.1" cy="178.9" rx="20.5" ry="16.4"/>
<ellipse fill="#4D4D4D" cx="128.1" cy="173" rx="20.5" ry="16.4"/>
<ellipse fill="#4D4D4D" cx="128.1" cy="171.6" rx="18.7" ry="15"/>
<g>
	<path fill="#F5B400" d="M168.9,92.7c-1.7-14-9.1-10.6-40.7-10.6c-3.9,0-27.6-3.5-37.2,11.5l-38.7-9.5c0,0,5.6,12,12.4,17.8
		c6.8,5.9,22.1,3.9,22.1,3.9l0.4-0.7c-0.1,1.3-0.3,2.6-0.3,4.1c0,15,18.4,27.2,41.2,27.2c22.8,0,41.2-12.2,41.2-27.2
		c0-1.2,0-2.3,0-3.4c1.8,0.2,15.5,1.5,21.9-3.9c6.8-5.9,12.4-17.8,12.4-17.8L168.9,92.7z"/>
	<path fill="#FFDF74" d="M203.8,84.1c-1.5-1.5-11.1,2.2-20,2.2c-15.1,0-9.7-25.4-55.7-25.5c0,0,0,0,0,0c0,0,0,0-0.1,0c0,0,0,0-0.1,0
		c0,0,0,0,0,0c-46,0-40.5,25.5-55.7,25.5c-8.9,0-18.5-3.7-20-2.2c-1.5,1.5,8.2,14.8,18.1,15.9c10.2,1.1,27.3-3.7,33.2,9.6
		c5.9,13.3,1.8,21.1,0,18.1c-1.8-3-17-21.9-17-21.9s-1.8,23,5.9,32.2c7.8,9.2,10.7,22.9,10.7,30.3c0,7.4,3.4,12.6,11.5,15.9
		c5.8,2.4,9.1,1.8,9.1,1.8s-8.7-11.8-8.7-16.6c0-4.8,2.2-1.8,10.3-1.8c0.9,0,4.2,0,5.1,0c8.1,0,10.3-3,10.3,1.8
		c0,4.8-8.7,16.6-8.7,16.6s3.3,0.6,9.1-1.8c8-3.3,11.5-8.5,11.5-15.9c0-7.4,3-21.1,10.7-30.3c7.8-9.2,5.9-32.2,5.9-32.2
		s-15.1,18.9-17,21.9c-1.8,3-5.9-4.8,0-18.1c5.9-13.3,23-8.5,33.3-9.6C195.6,98.9,205.3,85.6,203.8,84.1z"/>
	<path fill="#4D4D4D" d="M151.6,125c0,0,14.6-17.2,12.7-19.2C162.4,103.9,151.3,109.4,151.6,125z"/>
	<path fill="#4D4D4D" d="M104.9,125c0,0-14.6-17.2-12.7-19.2S105.3,109.4,104.9,125z"/>
	<path fill="#FAEC94" d="M125.6,167.6c0.5,0,1.7,0,2.8,0V60.8c-0.1,0-0.1,0-0.2,0c0,0,0,0,0,0c0,0,0,0-0.1,0c0,0,0,0-0.1,0
		c0,0,0,0,0,0c-46,0-40.5,25.5-55.7,25.5c-8.9,0-18.5-3.7-20-2.2c-1.5,1.5,8.2,14.8,18.1,15.9c10.2,1.1,27.3-3.7,33.2,9.6
		c5.9,13.3,1.8,21.1,0,18.1c-1.8-3-17-21.9-17-21.9s-1.8,23,5.9,32.2c7.8,9.2,10.7,22.9,10.7,30.3c0,7.4,3.4,12.6,11.5,15.9
		c5.8,2.4,9.1,1.8,9.1,1.8s-8.7-11.8-8.7-16.6C115.2,164.6,117.4,167.6,125.6,167.6z"/>
</g>
<g>
	<path fill="#BF4851" d="M132.9,61.6c0.9-9.1,21.9-40.6,55.2-44.9c33.3-4.2,52.5,12,67.9-16.7c-3.6,15.2-7.5,31.5-26,36.5
		c-14.3,3.8-32.8,0.1-41.7,10.6c-9.7,11.4-14.7,24.3-19,29.7c-0.7,0.9-5.8,0.6-12.1-0.4C145.3,74.6,132.7,63.6,132.9,61.6z"/>
	<path fill="#9E2F30" d="M256,0c-5.6,21.9-15.9,31.7-46.4,32.4c-24.3,0.6-37.4,11.6-52.4,44c6.3,0.9,11.4,1.3,12.1,0.4
		c4.3-5.4,9.2-18.3,19-29.7c8.9-10.5,27.5-6.8,41.7-10.6C248.5,31.5,252.2,14.9,256,0z"/>
	<path fill="#BF4851" d="M123.3,61.6c-0.9-9.1-17.6-41.2-50.9-45.5C39,11.9,15.6,28.8,0.2,0c1.7,15.3,7.5,31.5,26,36.5
		c14.3,3.8,37-0.5,46,10c9.7,11.4,10.4,24.9,14.7,30.3c0.7,0.9,5.8,0.6,12.1-0.4C110.9,74.6,123.5,63.6,123.3,61.6z"/>
	<path fill="#9E2F30" d="M0.2,0c1.7,15.3,13.4,32,47.5,30.1c17.2-0.9,29.1,2.9,37.7,17.6C92.8,60.6,96.5,74,99,76.4
		c-6.3,0.9-11.4,1.3-12.1,0.4c-4.3-5.4-5-18.9-14.7-30.3c-8.9-10.5-31.7-6.2-46-10C7.7,31.5,1.9,15.3,0.2,0z"/>
</g>
</svg>
