<?xml version="1.0" encoding="utf-8"?>
<!-- Generator: Adobe Illustrator 18.0.0, SVG Export Plug-In . SVG Version: 6.00 Build 0)  -->
<!DOCTYPE svg PUBLIC "-//W3C//DTD SVG 1.1//EN" "http://www.w3.org/Graphics/SVG/1.1/DTD/svg11.dtd">
<svg version="1.1" id="icon" xmlns="http://www.w3.org/2000/svg" xmlns:xlink="http://www.w3.org/1999/xlink" x="0px" y="0px"
	 width="256px" height="256px" viewBox="0 0 256 256" enable-background="new 0 0 256 256" xml:space="preserve">
<path fill="#9E2F30" d="M234.6,159.2l-0.1-5.8l-6-12.9c1.3-17.4-0.6-32.9-2.4-42.9c3,1.5,6,3.9,7.6,6.3l-0.7-5.8l-7.2-15.7l-2.7,0.5
	c-7.7-30.9-30.3-59.5-61.1-65.3c-0.5-2.6,1.2-7.5,1.2-7.5l-26-0.8c-3.5-0.4-7-0.6-10.6-0.6c-1.4,0-2.9,0-4.3,0.1L97,8.1
	c0,0,0.4,6,0,8.5c-31.7-5.3-62.2,37.2-68.3,73.5c-1.4,5.6-2.9,13.5-3.9,23c-2.6,1.2-4.7,2.7-5.3,4.9c-2,7.3-3.5,18-3.5,18
	s6.1-4.2,10.3-5.9c0,8.2-1.9,17.9-0.3,27c1,5.8,2.8,11,5.1,15.7c-0.8,1.5-1.3,2.8-1.2,3.7c1,6,3.7,15.6,8.1,18.7
	c-1.1-11.8,2.3-14.1,3.4-17.4c9.3,11.4,19.6,26.7,32.8,34.6l3.5,15.6c0,0,0.6-10.3,8.4-16.5c16,9.4,26.6,30.6,35.5,44.2
	c5.3-4.5,25.8-31.8,26.8-9.6c1.3-0.7,5.1-11.6,6.5-12.3c16.2-8.3,7.7,0.5,34-31c1.5,1.1,9,5.1,10.6,8.2l0.6-4.7l-1.4-4.5
	c26.9-12.3,24.2-46.6,24.4-48C226.6,154.8,232.5,156.7,234.6,159.2z"/>
<path fill="#BF4851" d="M34.5,180.7c0.1-12.5,16.7-18.6,19.2-34.3c5.3,16.4-4.2,27.4-1.7,42.3c3.5,20.8,17.9,34.7,25.7,39.2
	c0-0.1,0.1-0.2,0-0.3c-4-16.6,10.2-21.2,12.4-34.9c0.3,15-1.2,36,11.6,44.2c8,5.1,14.5,11.6,19.4,18.9c0.3-0.2,7.5-7,8.6-19.7
	c1.6-17.8,9.9-16,12.3-34.5c1.3,19.3,13.8,26.5,6.3,44.3c23.8-10.4,29.5-27.3,29.5-39.5c0-15.1,0.2-18.5,3.6-28.8
	c5.6,12.8,17.5,20.8,18,33.3c0,0,0,0.1,0,0.1c11.8-9.4,27.2-26.7,18.9-49.8c-5.1-14.2-12.5-10.5-15.2-27.5
	c9.4,12.8,27.4,12.6,31.4,25.5c4.9-25-11.1-64-17-72.3c5.5,2.9,11.7,7.6,16,16.9c-1.3-48-26.9-72.6-55.9-87.5
	c-0.7,0.1-1.4,0.2-2.2,0.2c-11.6,0-26.7,15.2-26.7,15.2s4.8-16.6,14.2-21.6C151.9,6.2,139.7,4,126.9,4C116.5,4,106.5,5.4,97,8.1
	c0.4,0.4,0.8,0.8,1.1,1.1c8.8,9.4,7.2,29.9,7.2,29.9S93.4,18.7,83.7,13.4C49.8,26.6,27,58.7,21.2,89.4c-3.9,20.4-5,35.4-5.2,46.6
	c7.3-17.9,14.7-10.5,24-26c1,1.5-0.7,23.1-12.4,33.4c-14.3,12.7,0.7,42.5,10.4,51.8C33.5,187.5,34.5,183.3,34.5,180.7z"/>
<ellipse fill="#FFDF74" cx="126.3" cy="160.8" rx="31" ry="28.7"/>
<path fill="#4D4D4D" d="M151.1,150.7c0,13.3-11.1,24.2-24.7,24.2c-13.7,0-24.8-10.8-24.8-24.2c0-13.3,11.1-24.2,24.8-24.2
	C140,126.5,151.1,137.3,151.1,150.7z"/>
<path fill="#FAEC94" d="M205.6,68c0-10.2-8.3-18.5-18.5-18.5c-6.5,0-12.1,3.3-15.4,8.4c-5.5-2.1-11.6-3.2-18.1-3.2
	c-10.5,0-19.5,5.1-27.3,5.1c-7.8,0-16.8-5.1-27.3-5.1c-6.5,0-12.7,1.1-18.1,3.2c-3.3-5-9-8.4-15.5-8.4C55.3,49.5,47,57.8,47,68
	c0,7.9,5,14.7,12.1,17.3c-0.4,2.4-0.6,4.9-0.6,7.5c0,22.9,13.6,22.4,13.6,41c0,18.8,14.6,34,32.5,34c8.4,0,16-3.4,21.8-8.8
	c5.8,5.5,13.4,8.8,21.8,8.8c18,0,32.5-15.2,32.5-34c0-17.3,13.6-19.4,13.6-41c0-2.7-0.2-5.1-0.6-7.5C200.6,82.7,205.6,76,205.6,68z"
	/>
<path fill="#FFDF74" d="M205.6,68c0-10.2-8.3-18.5-18.5-18.5c-6.5,0-12.1,3.3-15.4,8.4c-5.5-2.1-11.6-3.2-18.1-3.2
	c-10.5,0-19.5,5.1-27.3,5.1c-7.8,0-16.8-5.1-27.3-5.1c-6.5,0-12.7,1.1-18.1,3.2c-3.3-5-9-8.4-15.5-8.4C55.3,49.5,47,57.8,47,68
	c0,7.9,5,14.7,12.1,17.3c-0.4,2.4-0.6,4.9-0.6,7.5c0,22.9,13.6,22.4,13.6,41c0,18.8,14.6,34,32.5,34c8.4,0,16-3.4,21.8-8.8
	c5.8,5.5,13.4,8.8,21.8,8.8c18,0,32.5-15.2,32.5-34c0-17.3,13.6-19.4,13.6-41c0-2.7-0.2-5.1-0.6-7.5C200.6,82.7,205.6,76,205.6,68z"
	/>
<path fill="#FAEC94" d="M124.7,59.6c-7.4-0.6-15.8-4.9-25.6-4.9c-6.5,0-12.7,1.1-18.1,3.2c-3.3-5-9-8.4-15.5-8.4
	C55.3,49.5,47,57.8,47,68c0,7.9,5,14.7,12.1,17.3c-0.4,2.4-0.6,4.9-0.6,7.5c0,22.9,13.6,22.4,13.6,41c0,18.8,14.6,34,32.5,34
	c7.6,0,14.6-2.8,20.2-7.4V59.6z"/>
<g>
	<polygon fill="#F5B400" points="104.9,134.6 116.1,94.3 82.7,86.6 103.7,109.5 	"/>
	<polygon fill="#F5B400" points="147.7,134.6 136.5,94.3 169.9,86.6 148.9,109.5 	"/>
</g>
<g>
	<polygon fill="#4D4D4D" points="108.4,110.3 111.5,99.2 94.2,94.3 	"/>
	<polygon fill="#4D4D4D" points="144.7,110.5 141.7,99.4 159.6,94.3 	"/>
</g>
<path fill="#4D4D4D" d="M129.6,157.3c0-10.5,4.2-19,15.5-19.8c0-0.1,0.1-0.3,0.1-0.4c0-3.2-5.8-5.7-18.8-5.7
	c-13,0-18.8,2.6-18.8,5.7c0,0.1,0,0.3,0.1,0.4c11.3,0.8,15.5,9.3,15.5,19.8c0,2.1-0.4,4-1.1,5.9c1.4,0.6,2.9,0.9,4.4,0.9
	c1.5,0,3-0.3,4.4-0.9C130,161.3,129.6,159.4,129.6,157.3z"/>
<g>
	<g>
		<path fill="#F5B400" d="M192.5,82c2.6-2.5,4.3-5.9,4.3-9.8c0-7.4-6-13.5-13.5-13.5c-2.7,0-5.1,0.8-7.2,2.1
			C184.6,65,190.4,72.3,192.5,82z"/>
		<path fill="#F5B400" d="M61.2,82c2.1-9.7,7.8-17.1,16.4-21.2c-2.1-1.3-4.5-2.1-7.2-2.1c-7.5,0-13.5,6-13.5,13.5
			C56.9,76.1,58.6,79.6,61.2,82z"/>
	</g>
</g>
</svg>
