<?xml version="1.0" encoding="utf-8"?>
<!-- Generator: Adobe Illustrator 18.0.0, SVG Export Plug-In . SVG Version: 6.00 Build 0)  -->
<!DOCTYPE svg PUBLIC "-//W3C//DTD SVG 1.1//EN" "http://www.w3.org/Graphics/SVG/1.1/DTD/svg11.dtd">
<svg version="1.1" id="icon" xmlns="http://www.w3.org/2000/svg" xmlns:xlink="http://www.w3.org/1999/xlink" x="0px" y="0px"
	 width="256px" height="256px" viewBox="0 0 256 256" enable-background="new 0 0 256 256" xml:space="preserve">
<path fill="#9E2F30" d="M136,34.7V21.4h-16v13.3c0,4.2,0,33.2,0,49.5v107.3c0,25.1,16,25.3,16,0V84.2C136,67.9,136,38.9,136,34.7z"
	/>
<circle fill="#9E2F30" cx="127.8" cy="21.5" r="12.2"/>
<circle fill="#FFDF74" cx="127.8" cy="21.5" r="8.1"/>
<path fill="#F5B400" d="M139.6,197c0-31,0-70.3,0-77h-22.8c0,6.7,0,46.1,0,77c-9.7,4.4-16.4,14.1-16.4,25.4c0,15.4,55.6,15.4,55.6,0
	C156,211.1,149.2,201.4,139.6,197z"/>
<path fill="#9E2F30" d="M144.1,38.1h-32.4c-36.6,0-64.2,39.5-93.5,24.5l11.6,11.6c25.6,6.2,49-20.1,82-20.1l32.4,0
	c33,0,56.3,26.3,82,20.1l11.6-11.6C208.2,77.6,180.7,38.1,144.1,38.1z"/>
<g>
	<path fill="#58595B" d="M69.6,185.5c-0.9,0-1.6-0.5-1.9-1.4L38.6,91.2L9.5,184.1c-0.3,1.1-1.4,1.6-2.5,1.3
		c-1.1-0.3-1.6-1.5-1.3-2.5L38.6,77.8l32.9,105.1c0.3,1.1-0.3,2.2-1.3,2.5C70,185.5,69.8,185.5,69.6,185.5z"/>
	<circle fill="#9E2F30" cx="38.6" cy="76.3" r="5.7"/>
	<g>
		<path fill="#F5B400" d="M77.2,182.8C75.5,198.6,58.9,211,38.6,211C18.4,211,1.7,198.6,0,182.8H77.2z"/>
		<path fill="#FFDF74" d="M38.8,182.8H0C1.7,198.6,18.4,211,38.6,211c0.1,0,0.1,0,0.2,0V182.8z"/>
	</g>
	<path fill="#58595B" d="M186.1,185.5c-0.2,0-0.4,0-0.6-0.1c-1.1-0.3-1.6-1.5-1.3-2.5l32.9-105.1l32.9,105.1
		c0.3,1.1-0.3,2.2-1.3,2.5c-1.1,0.3-2.2-0.3-2.5-1.3l-29.1-92.9L188,184.1C187.7,185,186.9,185.5,186.1,185.5z"/>
	<g>
		<path fill="#F5B400" d="M255.7,182.8c-1.8,15.8-18.4,28.2-38.6,28.2c-20.3,0-36.9-12.4-38.6-28.2H255.7z"/>
		<path fill="#FFDF74" d="M217.2,182.8h-38.8c1.8,15.8,18.4,28.2,38.6,28.2c0.1,0,0.1,0,0.2,0V182.8z"/>
	</g>
	<circle fill="#9E2F30" cx="217.1" cy="76.3" r="5.7"/>
</g>
<path fill="#FFDF74" d="M127.6,120h-10.9c0,6.7,0,46.1,0,77c-9.7,4.4-16.4,14.1-16.4,25.4c0,7.6,13.6,11.4,27.3,11.5V120z"/>
<path fill="#9E2F30" d="M177.5,237.5c0,3-2.5,5.5-5.5,5.5H85.5c-3,0-5.5-2.5-5.5-5.5v-4.9c0-3,2.5-5.5,5.5-5.5H172
	c3,0,5.5,2.5,5.5,5.5V237.5z"/>
<path fill="#9E2F30" d="M169.4,226.2c0,2.9-2.4,5.3-5.3,5.3H93.4c-2.9,0-5.3-2.4-5.3-5.3v-5.9c0-2.9,2.4-5.3,5.3-5.3h70.7
	c2.9,0,5.3,2.4,5.3,5.3V226.2z"/>
<path fill="#BF4851" d="M128.2,215.1H93.4c-2.9,0-5.3,2.4-5.3,5.3v5.9c0,0.3,0.1,0.6,0.2,0.9h-2.8c-3,0-5.5,2.5-5.5,5.5v4.9
	c0,3,2.5,5.5,5.5,5.5h42.7V215.1z"/>
</svg>
