<?xml version="1.0" encoding="utf-8"?>
<!-- Generator: Adobe Illustrator 18.0.0, SVG Export Plug-In . SVG Version: 6.00 Build 0)  -->
<!DOCTYPE svg PUBLIC "-//W3C//DTD SVG 1.1//EN" "http://www.w3.org/Graphics/SVG/1.1/DTD/svg11.dtd">
<svg version="1.1" id="icon" xmlns="http://www.w3.org/2000/svg" xmlns:xlink="http://www.w3.org/1999/xlink" x="0px" y="0px"
	 width="256px" height="256px" viewBox="0 0 256 256" enable-background="new 0 0 256 256" xml:space="preserve">
<g>
	<path fill="#9E2F30" d="M109.2,24.6c-3.3-6.6-3.3-16.1-7.2-19.7c-3.9-3.6-11.1-8.2-20.6-0.3c-9.5,7.9-10.5,10.5-2.3,11.1
		c8.2,0.7,17.7,1.6,21.6,6.2S109.2,24.6,109.2,24.6z"/>
	<path fill="#9E2F30" d="M118.3,83c3.6,6.6,4.6,25.2-3.3,27.5c-7.9,2.3-22.9,1.3-23.9-1.6c-1-3,17.2-12.7,19.5-20.1
		C115.6,73,118.3,83,118.3,83z"/>
	<path fill="#F5B400" d="M98.3,22c-77.1,14.6-75.1,99.6-77.7,118.6c0,0.2-0.1,0.3-0.1,0.5c5.1-4.5,9.6-6.6,13.5-7.5
		c0-0.1,0-0.2,0.1-0.2c10.8-33.8,67.5-49.8,94.7-49.2C154.6,84.9,193,64,193,61.4C193,56.8,171.8,8.1,98.3,22z"/>
	<path fill="#FFDF74" d="M98.3,22c-77.1,14.6-75.1,99.6-77.7,118.6c0,0.2-0.1,0.3-0.1,0.5c2.3-2,4.4-3.5,6.5-4.6
		c4.9-25.7,19.3-70.6,60.2-83.8C145.5,34,193,61.4,193,61.4C193,56.8,171.8,8.1,98.3,22z"/>
	<path fill="#9E2F30" d="M0.6,191.1c2.6,1.3,19.3-21.3,23.6-22.6c4.3-1.3,14.4,11.1,16.1,10.8c1.6-0.3-9.8-33.7-6.3-45.7
		c-3.8,0.9-8.4,3-13.5,7.5C17.6,160.2-2,189.8,0.6,191.1z"/>
	<path fill="#BF4851" d="M131,46.7c0,0-8.7-8.5-30.7-5c-35.7,5.7-47.1,35.7-47.1,35.7s6.4-8.6,20-14.3c5.4-2.3,21.3-5.1,26.4-8.6
		C115.7,43.8,131,46.7,131,46.7z"/>
	<path fill="#4D4D4D" d="M157.5,21.8c-2.4,0-4.5,1.2-5.9,2.9c1.6,3.9,5.5,6.6,9.9,6.6c1.2,0,2.3-0.2,3.4-0.6
		c0.1-0.4,0.1-0.9,0.1-1.3C165,25.2,161.7,21.8,157.5,21.8z"/>
	<path fill="#4D4D4D" d="M161.4,79.4c1.7-1.7,2.4-4,2.1-6.3c-3.9-1.6-8.5-0.8-11.7,2.4c-0.8,0.9-1.5,1.8-2,2.9
		c0.3,0.4,0.5,0.7,0.9,1C153.7,82.4,158.5,82.4,161.4,79.4z"/>
</g>
<g>
	<path fill="#9E2F30" d="M147.2,231.7c3.3,6.6,3.3,16.1,7.2,19.7c3.9,3.6,11.1,8.2,20.6,0.3c9.5-7.9,10.5-10.5,2.3-11.1
		c-8.2-0.7-17.7-1.6-21.6-6.2C151.7,229.7,147.2,231.7,147.2,231.7z"/>
	<path fill="#9E2F30" d="M138.1,173.3c-3.6-6.6-4.6-25.2,3.3-27.5c7.9-2.3,22.9-1.3,23.9,1.6c1,3-17.2,12.7-19.5,20.1
		C140.7,183.3,138.1,173.3,138.1,173.3z"/>
	<path fill="#FFDF74" d="M158.1,234.2c77.1-14.6,75.1-99.6,77.7-118.6c0-0.2,0.1-0.3,0.1-0.5c-5.1,4.5-9.6,6.6-13.5,7.5
		c0,0.1,0,0.2-0.1,0.2c-10.8,33.8-67.5,49.8-94.7,49.2c-25.9-0.6-64.2,20.3-64.2,22.9C63.4,199.5,84.6,248.1,158.1,234.2z"/>
	<path fill="#F5B400" d="M158.1,234.2c77.1-14.6,75.1-99.6,77.7-118.6c0-0.2,0.1-0.3,0.1-0.5c-2.3,2-4.4,3.5-6.5,4.6
		c-4.9,25.7-19.3,70.6-60.2,83.8c-58.4,18.7-105.9-8.6-105.9-8.6C63.4,199.5,84.6,248.1,158.1,234.2z"/>
	<path fill="#9E2F30" d="M255.8,65.1c-2.6-1.3-19.3,21.3-23.6,22.6c-4.3,1.3-14.4-11.1-16.1-10.8c-1.6,0.3,9.8,33.7,6.3,45.7
		c3.8-0.9,8.4-3,13.5-7.5C238.7,96.1,258.4,66.4,255.8,65.1z"/>
	<path fill="#BF4851" d="M125.3,209.6c0,0,8.7,8.5,30.7,5c35.7-5.7,47.1-35.7,47.1-35.7s-6.4,8.6-20,14.3
		c-5.4,2.3-21.3,5.1-26.4,8.6C140.7,212.4,125.3,209.6,125.3,209.6z"/>
	<path fill="#4D4D4D" d="M98.9,234.4c2.4,0,4.5-1.2,5.9-2.9c-1.6-3.9-5.5-6.6-9.9-6.6c-1.2,0-2.3,0.2-3.4,0.6
		c-0.1,0.4-0.1,0.9-0.1,1.3C91.3,231,94.7,234.4,98.9,234.4z"/>
	<path fill="#4D4D4D" d="M94.9,176.8c-1.7,1.7-2.4,4-2.1,6.3c3.9,1.6,8.5,0.8,11.7-2.4c0.8-0.9,1.5-1.8,2-2.9
		c-0.3-0.4-0.5-0.7-0.9-1C102.7,173.9,97.9,173.9,94.9,176.8z"/>
</g>
</svg>
