<?xml version="1.0" encoding="utf-8"?>
<!-- Generator: Adobe Illustrator 18.0.0, SVG Export Plug-In . SVG Version: 6.00 Build 0)  -->
<!DOCTYPE svg PUBLIC "-//W3C//DTD SVG 1.1//EN" "http://www.w3.org/Graphics/SVG/1.1/DTD/svg11.dtd">
<svg version="1.1" id="icon" xmlns="http://www.w3.org/2000/svg" xmlns:xlink="http://www.w3.org/1999/xlink" x="0px" y="0px"
	 width="256px" height="256px" viewBox="0 0 256 256" enable-background="new 0 0 256 256" xml:space="preserve">
<polygon fill="#BF4851" points="47.8,208 39.8,208 39.8,22.9 47.8,26.9 "/>
<polygon fill="#9E2F30" points="48.4,216 48.4,208 227.8,208 231.8,216 "/>
<rect x="116" y="5.1" transform="matrix(-0.7072 -0.707 0.707 -0.7072 114.6104 314.0829)" fill="#4D4D4D" width="12.6" height="256.5"/>
<path fill="#9E2F30" d="M185.2,89l-18.5-18.5C124.9,28.6,48.2,50.8,31.8,0v18c22.2,36.4,79,33.1,116.7,70.8l18.5,18.4
	c37.8,37.8,34.4,94.5,70.8,116.7h18C205,207.6,227.1,130.9,185.2,89z"/>
<path fill="#BF4851" d="M175.5,79.3l-8.8-8.8C124.9,28.6,48.2,50.8,31.8,0v18c22.2,36.4,79,33.1,116.7,70.8l8.9,8.9L175.5,79.3z"/>
<polygon fill="#F5B400" points="47.8,208 19.8,208 0,228 27.8,228 27.8,255.7 47.8,236 "/>
<polygon fill="#FFDF74" points="47.8,208 19.8,208 0,228 27.8,228 "/>
<polygon fill="#F5B400" points="242.4,13.3 172.8,45.9 207.1,48.6 209.8,82.8 "/>
<polygon fill="#FFDF74" points="242.4,13.3 172.8,45.9 207.1,48.6 "/>
</svg>
