<?xml version="1.0" encoding="utf-8"?>
<!-- Generator: Adobe Illustrator 18.0.0, SVG Export Plug-In . SVG Version: 6.00 Build 0)  -->
<!DOCTYPE svg PUBLIC "-//W3C//DTD SVG 1.1//EN" "http://www.w3.org/Graphics/SVG/1.1/DTD/svg11.dtd">
<svg version="1.1" id="icon" xmlns="http://www.w3.org/2000/svg" xmlns:xlink="http://www.w3.org/1999/xlink" x="0px" y="0px"
	 width="256px" height="256px" viewBox="0 0 256 256" enable-background="new 0 0 256 256" xml:space="preserve">
<path fill="#9E2F30" d="M124.3,179.4c0,0,14.1-10.2,17.4-2.2c29.9,74.2-5.8,94.5-33.9,67.1c-27.5-26.8,6.3-17.3,7.9-8.8
	C121.6,265.7,174.3,251.9,124.3,179.4z"/>
<g>
	<path fill="#9E2F30" d="M166.7,29.9c-5.4-0.5-11.1-3.1-16.1-7.4c1.5,4.3,3.5,8.8,6.1,13.2c6.3,10.6,14.5,18.6,22.5,22.6
		C181.8,59.6,182.3,43.2,166.7,29.9z"/>
	<path fill="#BF4851" d="M190.8,54.1c0-8.3-1.6-18.3-7.2-27.7C173.7,9.8,159-0.3,148.4,1.1c4.1,2.4,7.9,5.8,11.1,10.1
		c4.4,5.9,6.2,10.7,6.3,18.4s5.3,23.4,11.3,29.8c1.1,1.1,1.9,2,2.7,2.7c1.1,1.1,1.2,4.4,1.2,6.1c0,23.8-24.9,34.2-32.2,34.2
		s2.8-0.2,3.8,1.5c1,1.7-0.4,3.3,1.3,2.3C153.9,106.3,190.8,105.3,190.8,54.1z"/>
	<path fill="#9E2F30" d="M98.1,29.9c5.4-0.5,11.1-3.1,16.1-7.4c-1.5,4.3-3.5,8.8-6.1,13.2c-6.3,10.6-14.5,18.6-22.5,22.6
		C83,59.6,82.6,43.2,98.1,29.9z"/>
	<path fill="#BF4851" d="M74.1,54.1c0-8.3,1.6-18.3,7.2-27.7c9.9-16.7,24.5-26.8,35.2-25.3c-4.1,2.4-7.9,5.8-11.1,10.1
		c-4.4,5.9-6.2,10.7-6.3,18.4c-0.2,7.7-5.3,23.4-11.3,29.8c-1.1,1.1-1.9,2-2.7,2.7c-1.1,1.1-1.2,4.4-1.2,6.1
		c0,23.8,24.9,34.2,32.2,34.2s-2.8-0.2-3.8,1.5c-1,1.7,0.4,3.3-1.3,2.3C111,106.3,74.1,105.3,74.1,54.1z"/>
	<g>
		<path fill="#9E2F30" d="M186.6,115.1l-1.7,3c-0.2,0.3-0.5,0.6-0.8,0.8s-0.6,0.4-1,0.5l-13.9,3.8c-0.3,0.1-0.7,0.1-1,0
			c-0.3,0-0.7-0.1-1-0.3l-12.5-7.2c-1.3-0.7-1.7-2.4-1-3.7c0.7-1.3,2.4-1.7,3.6-1l11.6,6.6l11.9-3.3l1.7-2.7
			c0.7-1.3,7.3-10.6,8.6-9.9C189.7,103.5,186.3,109,186.6,115.1z"/>
		<path fill="#9E2F30" d="M187.2,122.3c-1.6,1.5-5.4,7.1-5.4,12.5l-2,2.8c-0.2,0.3-0.5,0.6-0.8,0.7c-0.3,0.2-0.6,0.3-1,0.4
			l-13.9,2.6c-0.4,0.1-0.7,0-1,0c-0.3-0.1-0.7-0.2-1-0.4l-11.6-8.1c-1.2-0.8-1.5-2.5-0.7-3.7c0.8-1.2,2.5-1.5,3.7-0.7l10.8,7.5
			l11.9-2.2l1.9-2.5C178.8,130,184.8,122,187.2,122.3z"/>
		<path fill="#9E2F30" d="M183.3,142.4c-1.8,1.5-6.1,7.1-6.4,11.8l-2.2,2.6c-0.3,0.3-0.6,0.5-0.9,0.7c-0.3,0.2-0.6,0.3-1,0.3
			l-13.9,1.3c-0.4,0-0.7,0-1-0.1c-0.3-0.1-0.6-0.3-0.9-0.5l-10.7-8.9c-1.1-0.9-1.3-2.6-0.3-3.7c0.9-1.1,2.6-1.3,3.7-0.3l9.9,8.3
			l11.9-1.1l2.1-2.3C174.4,149.3,179.8,142.6,183.3,142.4z"/>
		<path fill="#9E2F30" d="M179.4,163c-4.6,0.6-9.5,6-10.5,7l-2.3,2.1l-11.9,0l-9.1-9.1c-1-1-2.7-1-3.7,0s-1,2.7,0,3.7l9.8,9.8
			c0.3,0.3,0.5,0.4,0.9,0.6c0.3,0.1,0.6,0.2,1,0.2l13.9,0c0.4,0,0.7-0.1,1-0.2c0.3-0.1,0.7-0.3,1-0.6l2.4-2.4
			C172.7,170.2,177.4,164.5,179.4,163z"/>
	</g>
	<g>
		<path fill="#9E2F30" d="M78.4,115.1l1.7,3c0.2,0.3,0.5,0.6,0.8,0.8c0.3,0.2,0.6,0.4,1,0.5l13.9,3.8c0.3,0.1,0.7,0.1,1,0
			c0.3,0,0.7-0.1,1-0.3l12.5-7.2c1.3-0.7,1.7-2.4,1-3.7c-0.7-1.3-2.4-1.7-3.6-1l-11.6,6.6l-11.9-3.3l-1.7-2.7
			c-0.7-1.3-7.3-10.6-8.6-9.9C75.3,103.5,78.6,109,78.4,115.1z"/>
		<path fill="#9E2F30" d="M77.8,122.3c1.6,1.5,5.4,7.1,5.4,12.5l2,2.8c0.2,0.3,0.5,0.6,0.8,0.7c0.3,0.2,0.6,0.3,1,0.4l13.9,2.6
			c0.4,0.1,0.7,0,1,0c0.3-0.1,0.7-0.2,1-0.4l11.6-8.1c1.2-0.8,1.5-2.5,0.7-3.7c-0.8-1.2-2.5-1.5-3.7-0.7l-10.8,7.5l-11.9-2.2
			l-1.9-2.5C86.2,130,80.2,122,77.8,122.3z"/>
		<path fill="#9E2F30" d="M81.7,142.4c1.8,1.5,6.1,7.1,6.4,11.8l2.2,2.6c0.3,0.3,0.6,0.5,0.9,0.7c0.3,0.2,0.6,0.3,1,0.3l13.9,1.3
			c0.4,0,0.7,0,1-0.1c0.3-0.1,0.6-0.3,0.9-0.5l10.7-8.9c1.1-0.9,1.3-2.6,0.3-3.7c-0.9-1.1-2.6-1.3-3.7-0.3l-9.9,8.3l-11.9-1.1
			l-2.1-2.3C90.6,149.3,85.1,142.6,81.7,142.4z"/>
		<path fill="#9E2F30" d="M85.5,163c4.6,0.6,9.5,6,10.5,7l2.3,2.1l11.9,0l9.1-9.1c1-1,2.7-1,3.7,0c1,1,1,2.7,0,3.7l-9.8,9.8
			c-0.3,0.3-0.5,0.4-0.9,0.6c-0.3,0.1-0.6,0.2-1,0.2l-13.9,0c-0.4,0-0.7-0.1-1-0.2c-0.3-0.1-0.7-0.3-1-0.6l-2.4-2.4
			C92.3,170.2,87.6,164.5,85.5,163z"/>
	</g>
</g>
<path fill="#BF4851" d="M109.6,199.2c-5.8,12-3,17.7,3.5,23.5c5.2,4.6-2.8,15.7-10.9,12.7C94,232.3,90.5,213.4,109.6,199.2z"/>
<g>
	<path fill="#F5B400" d="M157.9,115.6c0,24.5-11.4,68.8-25.6,68.8c-14.1,0-25.6-44.4-25.6-68.8c0-24.5,11.4-44.3,25.6-44.3
		C146.5,71.3,157.9,91.1,157.9,115.6z"/>
	<path fill="#FFDF74" d="M106.8,115.6c0,24.5,11.4,68.8,25.6,68.8V71.3C118.2,71.3,106.8,91.1,106.8,115.6z"/>
	<path fill="#F5B400" d="M143.6,52.3c0.6,1.6,0.9,3.3,0.9,5c0,7.2-5.4,13.1-12.1,13.1c-6.7,0-12.1-5.9-12.1-13.1
		c0-1.8,0.3-3.5,0.9-5c-3.8,3.4-6.2,8.6-6.2,14.3c0,10.3,7.8,18.7,17.4,18.7c9.6,0,17.4-8.4,17.4-18.7
		C149.7,60.9,147.3,55.8,143.6,52.3z"/>
</g>
</svg>
