<?xml version="1.0" encoding="utf-8"?>
<!-- Generator: Adobe Illustrator 18.0.0, SVG Export Plug-In . SVG Version: 6.00 Build 0)  -->
<!DOCTYPE svg PUBLIC "-//W3C//DTD SVG 1.1//EN" "http://www.w3.org/Graphics/SVG/1.1/DTD/svg11.dtd">
<svg version="1.1" id="icon" xmlns="http://www.w3.org/2000/svg" xmlns:xlink="http://www.w3.org/1999/xlink" x="0px" y="0px"
	 width="256px" height="256px" viewBox="0 0 256 256" enable-background="new 0 0 256 256" xml:space="preserve">
<g>
	<path fill="#9E2F30" d="M202.1,110.4c0,28.6-32.7,115.5-73.1,115.5c-40.4,0-73.1-86.9-73.1-115.5c0-43.3,32.7-43.9,73.1-43.9
		S202.1,67.1,202.1,110.4z"/>
	<path fill="#BF4851" d="M128.7,66.5c-40.2,0.1-72.8,0.7-72.8,43.8c0,28.5,32.6,115.1,72.8,115.5V66.5z"/>
</g>
<path fill="#F5B400" d="M157.1,219.4c0,11.4-12.6,20.6-28.1,20.6c-15.5,0-28.1-9.2-28.1-20.6c0-11.4,12.6-20.6,28.1-20.6
	C144.5,198.8,157.1,208,157.1,219.4z"/>
<path fill="#FFDF74" d="M147.6,185.8c-37.1,0,0,0-37.1,0c-12.6,0-22.8,8.9-22.8,19.9c0,11,10.2,19.9,22.8,19.9
	c7.6,0,14.4-3.3,18.5-8.3c4.1,5,10.9,8.3,18.5,8.3c12.6,0,22.8-8.9,22.8-19.9C170.4,194.7,160.2,185.8,147.6,185.8z"/>
<path fill="#4D4D4D" d="M181.5,113.4c-9.2,0-23.6,17.5-34.9,17.5c-10.5,0-16.8-12.5-17.5-14.2c0-0.1,0-0.2,0-0.2s0,0.1,0,0.1
	c0,0,0-0.1,0-0.1s0,0.1,0,0.2c-0.8,1.7-7,14.2-17.5,14.2c-11.3,0-25.7-17.5-34.9-17.5c-9.2,0-8.5,17.1-8.5,17.1s0.6-2,6.4-2
	c1,0,2.2,0.3,3.4,0.8c-0.4,4,1.1,8.1,4.8,11.1c6.2,5.2,16,5.4,22.6,0.7c2.1,0.3,4.2,0.5,6.5,0.5c13.8,0,16.7-13.8,17.2-21
	c0.3,7.2,2.7,21,16.5,21c2.5,0,4.9-0.2,7.2-0.7c6.6,4.8,16.5,4.6,22.7-0.6c3.7-3.1,5.2-7.2,4.8-11.2c1.2-0.5,2.3-0.7,3.3-0.7
	c4.8,0,6.6,2,6.6,2S190.7,113.4,181.5,113.4z"/>
<g>
	<ellipse fill="#4D4D4D" cx="109" cy="213.8" rx="6.2" ry="4.6"/>
	<ellipse fill="#4D4D4D" cx="149" cy="213.8" rx="6.2" ry="4.6"/>
</g>
<g>
	<path fill="#9E2F30" d="M190.5,116.7h46.9c0,0-9.7,18.6-28.3,18.6S190.5,116.7,190.5,116.7z"/>
	<path fill="#BF4851" d="M67.5,116.7H20.6c0,0,9.7,18.6,28.3,18.6S67.5,116.7,67.5,116.7z"/>
</g>
<g>
	<g>
		<path fill="#FFDF74" d="M179.9,13.4c66.8,30.6,33.5,57.5,6.7,63.4c-0.1,0-0.2,0-0.3,0c-3.6,1.1-3.6,11.2-0.1,22.6
			c3.5,11.3,9.5,19.7,13.1,18.6c0,0,0.3-0.1,0.4-0.1C250.2,104.6,304.3,37.2,179.9,13.4z"/>
		<path fill="#9E2F30" d="M211.5,33.8l10.7-1.2l-1.2-7.4c-10.7-4.6-24.2-8.6-41-11.8C195.4,20.5,205.4,27.3,211.5,33.8z"/>
	</g>
	<g>
		<path fill="#FFDF74" d="M78.1,13.4C11.2,44,44.5,70.9,71.3,76.8c0.1,0,0.2,0,0.3,0c3.6,1.1,3.6,11.2,0.1,22.6
			c-3.5,11.3-9.5,19.7-13.1,18.6c0,0-0.3-0.1-0.4-0.1C7.9,104.6-46.3,37.2,78.1,13.4z"/>
		<path fill="#9E2F30" d="M46.5,33.8l-10.7-1.2l1.2-7.4c10.7-4.6,24.2-8.6,41-11.8C62.6,20.5,52.6,27.3,46.5,33.8z"/>
	</g>
</g>
</svg>
