<?xml version="1.0" encoding="utf-8"?>
<!-- Generator: Adobe Illustrator 18.0.0, SVG Export Plug-In . SVG Version: 6.00 Build 0)  -->
<!DOCTYPE svg PUBLIC "-//W3C//DTD SVG 1.1//EN" "http://www.w3.org/Graphics/SVG/1.1/DTD/svg11.dtd">
<svg version="1.1" id="icon" xmlns="http://www.w3.org/2000/svg" xmlns:xlink="http://www.w3.org/1999/xlink" x="0px" y="0px"
	 width="256px" height="256px" viewBox="0 0 256 256" enable-background="new 0 0 256 256" xml:space="preserve">
<path fill="#BAA794" d="M126.6,42.5c0,0-66.9,31.4-66.9,77.8s58.6,84.1,69,84.1c10.5,0,68.6-36,68.6-95
	C197.3,62.6,126.6,42.5,126.6,42.5z"/>
<path fill="#FFDF74" d="M126.7,53.8c0,0-63.4,29.7-63.4,73.7c0,44,55.5,79.7,65.4,79.7c9.9,0,65-34.1,65-90
	C193.7,72.8,126.7,53.8,126.7,53.8z"/>
<path fill="#FAEC94" d="M129.9,54.8c-2-0.7-3.2-1-3.2-1s-63.4,29.7-63.4,73.7c0,44,55.5,79.7,65.4,79.7c0.3,0,0.7,0,1.2-0.1V54.8z"
	/>
<path fill="#BF4851" d="M137.3,151.9c-3.2,0-6.1,1.6-7.8,4.1c-1.7-2.5-4.5-4.1-7.8-4.1c-9.6,0-10.8,8.5-16.9,8.5h-0.2
	c6.6,6.6,11.8,18.1,24.7,18.1c13.1,0,18-11.3,24.7-18.1C148.1,160.4,146.9,151.9,137.3,151.9z"/>
<path fill="#9E2F30" d="M129.5,165c-11.3,0-21.9-1.7-23.3-4.4H106c1.9,2.7,11.9,7.5,23.5,7.5c11.6,0,20.1-4.2,23.4-7.6h-0.2
	C151.3,163.2,140.7,165,129.5,165z"/>
<path fill="#BF4851" d="M200,185.8c29.7-22.1,52.9-83.3,8.3-140.1C167-7,119,5.1,115.7,12.7C103-1.8,52,18.1,35.3,52.9
	C-11.8,151.1,65.3,185,61.9,199.8c-2.9,12.7-16.3,5.8-10.5-6.5c-36.6,1.5-26.6,62.9,20.4,57.2c40.7-4.9,45.2-46.6,28.6-58.9
	c-19.4-14.3-31.8-32.3-35.6-50.9c15.3,10.4,40.3,6.9,56.7-10.5c-28.9-25.8,4.5-44.8,21-62c1.8-1.8,3.4-3.5,5-4.9
	c21.3,8.5,51.6,27.3,44.9,64.6c-11.2,62.2-47.5,55.1-56.1,91.9c-6.5,27.9,34.1,36.6,35.5,11.6c-19.2,1.1-10.5-18.9-6.5-23.6
	c7.8,45.8,75.5,25.6,51.7-12.6C210.5,219.1,184.3,197.5,200,185.8z"/>
<path fill="#9E2F30" d="M121.5,130.2c0,0-74.9,11.1-61.8-56.4c-5.9,9-13.7,41.8-3.8,65.1c20.3,47.7,42.7,62.4,26.2,84.4
	c-12.6,16.8-57.9,0.7-30.7-30c-38.5,1.8-24.5,63.8,20.4,58.4c40.7-4.9,45-46.9,29.2-60.2c-17.1-14.3-31.5-32.9-36.2-50.7
	C80.1,151.2,105.1,147.7,121.5,130.2z"/>
<path fill="#9E2F30" d="M146.1,199.8c30.3-18.2,53.1-42,59.6-78.2c5.9-32.6-15.6-50.8-35-61.2c-8.2-4.4-19.6-3.1-23.1,2.9
	c21.3,8.5,50,27.6,43.3,64.9C182.3,175.9,160.4,182.5,146.1,199.8z"/>
<path fill="#9E2F30" d="M115.7,12.7c0,0,16.4,3.9,25,21.4c8.6,17.6,6.8,29.1,6.8,29.1s-23-20.5-29.9-35S115.7,12.7,115.7,12.7z"/>
<path fill="#9E2F30" d="M217,195.2c-1.4,36.6-46.9,28.8-51.7,12.6C173.1,253.6,240.8,233.4,217,195.2z"/>
</svg>
