<?xml version="1.0" encoding="utf-8"?>
<!-- Generator: Adobe Illustrator 16.0.0, SVG Export Plug-In . SVG Version: 6.00 Build 0)  -->
<!DOCTYPE svg PUBLIC "-//W3C//DTD SVG 1.1//EN" "http://www.w3.org/Graphics/SVG/1.1/DTD/svg11.dtd">
<svg version="1.1" id="Livello_1" xmlns="http://www.w3.org/2000/svg" xmlns:xlink="http://www.w3.org/1999/xlink" x="0px" y="0px"
	 width="64px" height="64px" viewBox="0 0 64 64" enable-background="new 0 0 64 64" xml:space="preserve">
<path d="M32,2C15.433,2,2,15.433,2,32c0,16.565,13.433,30,30,30c16.565,0,30-13.435,30-30C62,15.433,48.565,2,32,2z M49,46.5
	c0,1.381-1.119,2.5-2.5,2.5h-29c-1.381,0-2.5-1.119-2.5-2.5v-29c0-1.381,1.119-2.5,2.5-2.5h29c1.381,0,2.5,1.119,2.5,2.5V46.5z
	 M19,19h26v26H19V19z"/>
</svg>
