<?xml version="1.0" ?><!DOCTYPE svg  PUBLIC '-//W3C//DTD SVG 1.1//EN'  'http://www.w3.org/Graphics/SVG/1.1/DTD/svg11.dtd'><svg enable-background="new 0 0 512 512" height="512px" id="Ankle_x5F_boot" version="1.1" viewBox="0 0 512 512" width="512px" xml:space="preserve" xmlns="http://www.w3.org/2000/svg" xmlns:xlink="http://www.w3.org/1999/xlink"><g><path d="M58.885,97.504c-8.75,2.725-13.863,11.829-11.566,20.701c6.569,25.371,34.241,77.986,4.902,129.373   C11.52,318.863,73.385,453.685,73.385,453.685h44.975v-98.208l80.577,98.208h255.555c0,0,53.42-44.435-17.807-62.919   c-71.227-18.482-139.909-91.571-162.803-138.973L203.374,69.333c-3.268-8.456-12.531-12.931-21.187-10.235L58.885,97.504z" fill="#F28F8F"/><path d="M454.491,460.685H198.937c-2.096,0-4.082-0.939-5.411-2.56l-68.166-83.081v78.641c0,3.866-3.134,7-7,7   H73.385c-2.736,0-5.221-1.595-6.362-4.081c-0.643-1.4-15.866-34.807-26.284-77.584c-14.211-58.354-12.393-103.744,5.403-134.914   c22.697-39.754,8.709-80.928-0.548-108.174c-2.065-6.08-3.85-11.33-5.052-15.973c-3.234-12.492,3.908-25.292,16.262-29.139   l123.302-38.405c2.343-0.729,4.767-1.1,7.207-1.1c9.931,0,19.01,6.227,22.591,15.495l70.404,182.191   c21.931,45.155,88.936,117.032,158.135,134.989c24.458,6.348,38.461,16.729,41.62,30.855c4.971,22.235-20.028,43.333-21.095,44.221   C457.71,460.111,456.127,460.685,454.491,460.685z M202.248,446.685h249.586c6.132-5.737,16.901-18.413,14.561-28.804   c-1.905-8.459-12.787-15.491-31.469-20.339c-42.345-10.989-79.11-38.833-102.496-60.257   c-28.111-25.753-52.354-56.574-64.852-82.447c-0.082-0.171-0.157-0.346-0.226-0.521l-70.508-182.46   c-1.512-3.912-5.343-6.541-9.532-6.541c-1.026,0-2.05,0.157-3.043,0.466L60.967,104.187c-5.214,1.624-8.231,7.01-6.872,12.263   c1.072,4.14,2.778,9.163,4.755,14.979c9.452,27.823,25.273,74.39-0.55,119.619c-34.601,60.601,9.98,172.863,19.668,195.637h33.392   v-91.208c0-2.957,1.858-5.595,4.643-6.591c2.781-0.995,5.892-0.137,7.77,2.151L202.248,446.685z" fill="#5A5954"/><g><circle cx="171.554" cy="97.02" fill="#F2EAE2" r="14.859"/><circle cx="186.541" cy="140.571" fill="#F2EAE2" r="14.859"/><circle cx="201.526" cy="184.121" fill="#F2EAE2" r="14.858"/><circle cx="216.512" cy="227.672" fill="#F2EAE2" r="14.859"/><circle cx="231.499" cy="271.223" fill="#F2EAE2" r="14.859"/></g><path d="M307.864,267.556c-2.733-4.591-7.878-8.226-43.283-6.21c-6.272,0.357-12.426,0.838-17.735,1.305   c7.577-9.695,15.153-18.866,20.423-24.526c0.104,0.046,0.217,0.092,0.314,0.138c-0.094,2.3,0.947,4.6,2.971,6.022   c1.224,0.86,2.628,1.273,4.019,1.273c2.202,0,4.371-1.037,5.733-2.976c2.228-3.17,2.583-6.887,0.975-10.198   c-0.633-1.303-1.549-2.618-3.135-3.917c1.238-3.407-0.333-7.244-3.69-8.762c-3.814-1.723-7.424-0.161-10.986,2.708   c-4.567-1.113-10.309-2.169-17.588-3.141c-5.146-0.687-10.185-1.217-14.506-1.613c6.644-8.77,13.42-17.18,18.228-22.437   c0.766,0.312,1.429,0.62,1.975,0.92c-0.321,2.496,0.717,5.081,2.919,6.628c1.224,0.86,2.628,1.273,4.019,1.273   c2.202,0,4.371-1.037,5.733-2.976c2.248-3.2,2.643-6.979,1.082-10.367c-0.835-1.813-2.167-3.668-4.925-5.526   c0.815-3.225-0.761-6.667-3.897-8.086c-3.207-1.451-6.265-1.038-10.553,2.29c-3.595-0.964-7.856-1.917-12.948-2.853   c-5.431-0.999-10.724-1.776-15.007-2.34c5.764-7.928,11.713-15.653,16.305-21.044c0.793,0.338,1.479,0.671,2.033,0.994   c-0.4,2.553,0.634,5.23,2.892,6.817c1.224,0.86,2.628,1.273,4.019,1.273c2.202,0,4.371-1.037,5.733-2.976   c2.255-3.209,2.662-7.007,1.117-10.42c-0.769-1.697-2.02-3.503-4.604-5.355c0.225-0.33,0.434-0.675,0.604-1.051   c1.593-3.523,0.029-7.67-3.493-9.263c-3.655-1.654-7.155-0.827-12.354,3.914c-3.28-0.915-7.107-1.823-11.586-2.719   c-4.231-0.846-8.373-1.549-11.992-2.108c6.046-8.028,12.292-15.877,17.136-21.415c0.421,0.171,0.812,0.342,1.152,0.511   c-0.181,2.379,0.861,4.791,2.956,6.262c1.224,0.86,2.628,1.273,4.019,1.273c2.202,0,4.371-1.037,5.733-2.976   c2.236-3.182,2.607-6.925,1.019-10.267c-0.679-1.426-1.683-2.872-3.495-4.307c0.429-0.497,0.801-1.056,1.085-1.684   c1.593-3.522,0.029-7.669-3.493-9.263c-3.832-1.734-7.45-0.805-13.21,4.577c-4.053-1-8.969-1.969-14.974-2.893   c-13.21-2.034-25.666-2.927-26.189-2.964c-3.872-0.281-7.204,2.632-7.477,6.488c-0.272,3.856,2.632,7.204,6.488,7.477   c11.153,0.789,22.37,2.24,31.305,3.907c-1.229,1.495-2.522,3.092-3.896,4.813c-7.756,9.716-14.865,19.496-16.021,21.094   c-0.97,1.061-1.629,2.422-1.796,3.958c-0.418,3.843,2.359,7.297,6.202,7.716c9.334,1.016,18.71,2.589,26.458,4.321   c-1.348,1.679-2.775,3.496-4.303,5.476c-7.908,10.25-15.084,20.58-15.386,21.015c-2.204,3.177-1.416,7.538,1.761,9.741   c0.815,0.566,1.711,0.917,2.626,1.099c0.791,0.421,1.675,0.697,2.622,0.788c9.746,0.929,19.54,2.43,27.604,4.107   c-1.841,2.185-3.841,4.634-6.043,7.393c-7.18,8.993-13.801,18.038-15.664,20.602c-0.328,0.379-0.614,0.794-0.855,1.24   c-0.053,0.088-0.1,0.178-0.147,0.269c-0.003,0.004-0.005,0.008-0.007,0.012c-1.62,3.042-0.791,6.886,2.082,8.958   c1.238,0.893,2.67,1.322,4.088,1.322c0.446,0,0.891-0.053,1.328-0.137c11.037,0.652,23.016,1.953,32.527,3.562   c-2.308,2.662-4.85,5.696-7.614,9.089c-9.4,11.543-18.319,23.511-18.409,23.631c-0.044,0.059-0.079,0.121-0.121,0.181   c-0.071,0.103-0.142,0.204-0.208,0.311c-0.06,0.096-0.114,0.193-0.169,0.29c-0.056,0.102-0.11,0.202-0.161,0.305   c-0.053,0.106-0.101,0.213-0.147,0.32c-0.043,0.102-0.086,0.203-0.125,0.305c-0.041,0.111-0.08,0.225-0.115,0.336   c-0.034,0.105-0.065,0.211-0.094,0.316c-0.031,0.113-0.058,0.227-0.082,0.34c-0.023,0.109-0.045,0.219-0.063,0.331   c-0.02,0.114-0.034,0.229-0.048,0.345c-0.012,0.109-0.023,0.221-0.031,0.332c-0.008,0.121-0.011,0.242-0.013,0.363   c-0.001,0.105-0.003,0.213,0.001,0.32c0.004,0.129,0.015,0.26,0.025,0.389c0.006,0.068,0.006,0.137,0.014,0.207   c0.004,0.031,0.012,0.063,0.016,0.096c0.018,0.129,0.041,0.258,0.065,0.387c0.019,0.102,0.036,0.203,0.06,0.303   c0.027,0.117,0.062,0.231,0.095,0.348c0.031,0.105,0.06,0.213,0.095,0.316c0.036,0.107,0.081,0.213,0.123,0.319   c0.041,0.104,0.08,0.212,0.127,0.313c0.049,0.109,0.106,0.215,0.161,0.32c0.049,0.094,0.094,0.189,0.146,0.279   c0.067,0.115,0.143,0.227,0.216,0.34c0.05,0.074,0.096,0.152,0.147,0.226c0.082,0.115,0.173,0.226,0.263,0.337   c0.053,0.064,0.103,0.132,0.158,0.195c0.091,0.105,0.19,0.205,0.288,0.305c0.063,0.063,0.123,0.129,0.188,0.189   c0.096,0.09,0.199,0.176,0.301,0.262c0.075,0.064,0.149,0.129,0.228,0.188c0.034,0.027,0.063,0.057,0.098,0.082   c0.038,0.027,0.079,0.045,0.117,0.073c0.26,0.185,0.528,0.358,0.813,0.507c0.047,0.025,0.096,0.047,0.144,0.07   c0.256,0.127,0.521,0.234,0.791,0.33c0.084,0.029,0.166,0.061,0.25,0.086c0.286,0.09,0.58,0.16,0.88,0.211   c0.083,0.016,0.167,0.023,0.25,0.035c0.263,0.035,0.528,0.057,0.798,0.063c0.045,0,0.089,0.01,0.133,0.01   c0.02,0,0.039-0.002,0.059-0.003c0.21-0.001,0.422-0.016,0.635-0.036c0.037-0.004,0.075-0.003,0.111-0.008c0.004,0,0.008,0,0.012,0   c24.263-2.826,53.008-4.369,62.482-2.697c0.427,1.479,1.342,2.828,2.699,3.782c1.225,0.86,2.629,1.272,4.02,1.272   c2.202,0,4.37-1.036,5.733-2.975C309.473,274.386,309.705,270.646,307.864,267.556z" fill="#5A5954"/><path d="M174.524,431.121c0-11.908,9.652-21.561,21.56-21.561c0.242,0,0.48,0.011,0.72,0.019   c-0.716-2.146-1.109-4.438-1.109-6.825c0-11.907,9.653-21.56,21.561-21.56c2.694,0,5.271,0.498,7.649,1.401   c-1.268-2.746-1.98-5.801-1.98-9.023c0-11.908,9.653-21.561,21.561-21.561c4.286,0,8.275,1.256,11.632,3.411   c-0.553-1.909-0.855-3.925-0.855-6.011c0-11.908,9.653-21.561,21.561-21.561c4.765,0,9.167,1.549,12.736,4.167   c-0.077-0.743-0.118-1.498-0.118-2.263c0-11.906,9.652-21.559,21.56-21.559c11.223,0,20.438,8.574,21.462,19.529   c29.807,28.348,66.657,53.291,104.224,63.039c71.227,18.484,17.807,62.919,17.807,62.919s-260.343-0.714-260.08-1.074   C183.287,451.756,174.524,442.465,174.524,431.121z" fill="#F2EAE2"/><path d="M454.491,460.685c-0.007,0-0.013,0-0.02,0c0,0-64.977-0.179-129.977-0.401   c-32.502-0.111-65.01-0.234-89.403-0.353c-12.203-0.059-22.377-0.116-29.506-0.17c-3.579-0.027-6.393-0.054-8.315-0.079   c-1.211-0.016-2.345-0.03-3.392-0.148l-0.004,0.057c-14.776-1.136-26.351-13.641-26.351-28.469   c0-13.197,8.998-24.332,21.181-27.594c-0.007-0.258-0.011-0.516-0.011-0.773c0-15.305,12.101-27.836,27.236-28.529   c-0.005-0.218-0.007-0.436-0.007-0.652c0-15.749,12.813-28.561,28.561-28.561c1.369,0,2.729,0.098,4.071,0.29   c1.999-13.808,13.913-24.45,28.266-24.45c2.313,0,4.587,0.273,6.787,0.809c3.499-11.816,14.454-20.463,27.391-20.463   c13.889,0,25.491,9.756,28.04,23.113c32.243,30.232,67.467,51.393,99.404,59.68c24.457,6.348,38.46,16.729,41.618,30.855   c4.972,22.235-20.027,43.333-21.094,44.221C457.71,460.112,456.126,460.685,454.491,460.685z M195.307,445.668   c2.338,0.301,4.377,1.764,5.408,3.9C199.476,446.998,197.115,445.881,195.307,445.668z M195.072,445.642   c7.905,0.28,169.452,0.794,256.77,1.036c6.134-5.741,16.893-18.41,14.553-28.798c-1.905-8.458-12.787-15.49-31.468-20.339   c-34.778-9.024-72.881-32.018-107.29-64.742c-1.226-1.166-1.988-2.736-2.146-4.421c-0.702-7.515-6.933-13.181-14.492-13.181   c-8.028,0-14.56,6.531-14.56,14.559c0,0.506,0.027,1.023,0.081,1.541c0.285,2.754-1.079,5.417-3.481,6.795   c-2.402,1.377-5.39,1.209-7.622-0.429c-2.508-1.84-5.479-2.812-8.596-2.812c-8.028,0-14.561,6.531-14.561,14.561   c0,1.369,0.195,2.736,0.579,4.064c0.812,2.801-0.2,5.813-2.538,7.557c-2.338,1.745-5.514,1.857-7.969,0.279   c-2.344-1.506-5.058-2.301-7.849-2.301c-8.028,0-14.561,6.531-14.561,14.561c0,2.119,0.449,4.168,1.336,6.09   c1.192,2.582,0.703,5.628-1.236,7.707c-1.939,2.08-4.944,2.781-7.604,1.771c-1.652-0.628-3.391-0.945-5.165-0.945   c-8.028,0-14.561,6.531-14.561,14.56c0,1.568,0.252,3.119,0.75,4.61c0.725,2.173,0.34,4.563-1.029,6.399   c-1.369,1.837-3.588,2.879-5.84,2.812l-0.15-0.005c-0.113-0.004-0.227-0.01-0.341-0.01c-8.028,0-14.56,6.532-14.56,14.561   c0,7.559,5.896,13.932,13.423,14.51C194.989,445.635,195.03,445.638,195.072,445.642z" fill="#5A5954"/></g></svg>