<?xml version="1.0" ?><!DOCTYPE svg  PUBLIC '-//W3C//DTD SVG 1.1//EN'  'http://www.w3.org/Graphics/SVG/1.1/DTD/svg11.dtd'><svg enable-background="new 0 0 512 512" height="512px" id="Ankle_x5F_strap_x5F_pump" version="1.1" viewBox="0 0 512 512" width="512px" xml:space="preserve" xmlns="http://www.w3.org/2000/svg" xmlns:xlink="http://www.w3.org/1999/xlink"><path d="M86.841,115.212c-11.176,0-20.268-9.093-20.268-20.269s9.092-20.269,20.268-20.269H233.49  c11.176,0,20.269,9.093,20.269,20.269s-9.092,20.269-20.269,20.269H86.841z" fill="#F2EAE2"/><path d="M85.492,437.326L66.665,239.147c-0.038-0.403-0.196-0.78-0.455-1.091  c-24.25-29.099-30.427-59.719-18.359-91.008c5.259-13.635,13.043-24.474,18.646-31.166l2.916-3.481l3.746,2.568  c1.929,1.323,4.033,2.357,6.253,3.073l1.308,0.422l0.908,1.031c32.059,36.387,59.198,68.311,83.143,96.478  c62.454,73.466,100.151,117.81,132.349,130.69c6.425,2.569,12.795,3.872,18.933,3.872c25.05,0,40.815-20.821,47.984-33.231  l2.627-4.55l8.358,5.403c20.352,13.191,58.231,37.744,79.813,44.662c9.407,3.016,15.645,12.012,15.168,21.876l-0.061,1.263  l-27.459,45.439l-2.628,0.152c-13.188,0.765-59.335,3.262-99.422,3.262c-13.82,0-25.712-0.297-35.345-0.881  c-27.844-1.688-54.972-29.104-72.565-73.341c-45.375-114.086-107.428-122.953-125.366-122.953c-2.687,0-4.197,0.208-4.26,0.217  c-0.985,0.138-1.726,0.989-1.726,1.981v197.49H85.492z" fill="#F28F8F"/><path d="M457.583,354.25c-20.438-6.551-59.091-31.604-77.666-43.645c-4.935-3.197-8.5-5.508-10.654-6.801  c-1.731-1.039-3.828-1.279-5.75-0.66c-1.922,0.62-3.483,2.04-4.281,3.895c-0.148,0.346-15.168,34.497-43.18,34.497  c-4.988,0-10.233-1.087-15.59-3.229c-30.129-12.051-67.281-55.755-128.834-128.162c-21.743-25.576-45.849-53.932-73.877-85.933  h135.74c16.139,0,29.269-13.13,29.269-29.269s-13.13-29.269-29.269-29.269H86.841c-16.139,0-29.268,13.13-29.268,29.269  c0,4.898,1.215,9.515,3.351,13.576c-6.208,7.151-15.159,19.176-21.268,34.771c-9.224,23.544-13.425,59.667,18.25,98.837  l18.797,197.862c0.341,3.594,3.36,6.338,6.969,6.338h19.499c3.866,0,7-3.134,7-7V246.735c8.323,0.513,24.669,3.422,43.813,16.783  c27.781,19.39,51.391,53.169,70.176,100.399c19.199,48.272,48.498,77.065,80.384,78.999c9.814,0.594,21.89,0.896,35.889,0.896  c47.406,0,103.103-3.465,103.66-3.499c2.29-0.144,4.364-1.401,5.552-3.366l28.178-46.629c0.504-0.834,0.828-1.762,0.952-2.729  C480.675,372.816,471.762,358.795,457.583,354.25z M465.009,384.455l-25.443,42.104c-13.111,0.761-59.127,3.254-99.132,3.254  c-13.718,0-25.509-0.293-35.042-0.871c-25.859-1.567-51.363-27.81-68.222-70.198c-46.538-117.011-111.278-126.105-130.012-126.105  c-2.911,0-4.639,0.221-4.956,0.265c-3.458,0.483-6.031,3.441-6.031,6.933v192.49H90.04L71.643,238.675  c-0.134-1.404-0.688-2.735-1.592-3.819c-23.001-27.601-28.9-56.538-17.535-86.007c4.995-12.951,12.392-23.28,17.814-29.754  c2.301,1.578,4.838,2.834,7.546,3.708c32,36.32,58.997,68.076,83.084,96.411c62.955,74.055,100.954,118.754,134.302,132.094  c7.017,2.807,14.012,4.229,20.789,4.229c28.012,0,45.226-23.46,52.313-35.731c1.208,0.781,2.528,1.637,3.937,2.549  c20.547,13.318,58.794,38.107,81.008,45.229C460.624,369.927,465.374,376.889,465.009,384.455z M71.573,94.943  c0-8.419,6.85-15.269,15.268-15.269H233.49c8.419,0,15.269,6.85,15.269,15.269s-6.85,15.269-15.269,15.269H86.841  C78.423,110.212,71.573,103.362,71.573,94.943z" fill="#5A5954"/></svg>