<?xml version="1.0" ?><!DOCTYPE svg  PUBLIC '-//W3C//DTD SVG 1.1//EN'  'http://www.w3.org/Graphics/SVG/1.1/DTD/svg11.dtd'><svg enable-background="new 0 0 512 512" height="512px" id="Ballet_x5F_flat" version="1.1" viewBox="0 0 512 512" width="512px" xml:space="preserve" xmlns="http://www.w3.org/2000/svg" xmlns:xlink="http://www.w3.org/1999/xlink"><path d="M55.533,330.976l-7.538-23.93l9.224,2.989c7.315,2.371,15.77,3.523,25.846,3.523  c10.907,0,22.883-1.338,33.159-2.645l0.574-0.074l33.446,3.497l-13.147,16.639H55.533z" fill="#F2EAE2"/><path d="M357.315,310.726c-23.726,0-48.059-2.926-73.819-6.023c-17.364-2.087-35.318-4.247-53.295-5.472  c-7.499-0.512-15.237-0.771-22.999-0.771c-28.793,0-54.419,3.486-77.029,6.563c-17.901,2.436-33.352,4.537-47.108,4.537  c-16.404,0-28.425-3.163-37.828-9.954c-31.389-22.669-4.439-99.795-1.264-108.515l1.354-3.717l3.929,0.463  c110.311,12.985,183.98,39.236,218.077,53.729l8.333-9.185l-22.923-25.185l16.94-19.494l3.452,1.692  c4.847,2.376,12.856,6.293,22.188,10.821l6.941,3.368l-0.051,0.041l7.176,3.436l14.875,7.083  c23.47,11.174,33.111,15.381,37.066,16.943c10.943,4.322,24.235,6.335,41.832,6.335c8.197,0,16.352-0.414,24.237-0.814  c7.282-0.37,14.156-0.719,20.521-0.719c11.473,0,24.012,0.957,30.024,8.056c3.328,3.931,4.59,9.844,3.749,17.578l-0.246,2.263  l-1.867,1.3c-9.104,6.338-31.041,21.527-38.095,25.667C418.268,304.379,391.522,310.726,357.315,310.726z" fill="#F28F8F"/><path d="M316.013,208.996c2.677-0.781,5.207-2.624,7.395-4.383l2.776-2.232l39.003,24.522l-0.649-9.782  c-1.639-24.662-7.01-32.259-10.061-34.589c-1.332-1.015-2.96-1.508-4.978-1.508c-3.984,0-9.205,1.948-15.518,5.79l-6.125,3.729  l-2.763-3.264c-2.33-2.753-5.718-4.332-9.292-4.332c-6.716,0-12.178,5.463-12.178,12.177c0,2.083,0.547,4.149,1.584,5.977  l2.099,3.698l-7.313,5.881c-16.402,13.191-26.098,25.313-25.936,32.427l0.055,2.398l1.906,1.458  c2.718,2.079,9.539,4.557,26.603,4.558h0.005c6.044,0,12.815-0.312,20.126-0.925l8.123-0.682l-21.271-40.716  C309.604,209.198,312.353,210.063,316.013,208.996z" fill="#F2EAE2"/><path d="M484.813,238.127c-8.388-9.904-23.356-11.239-36.893-11.239c-6.585,0-13.564,0.354-20.951,0.729  c-7.782,0.395-15.828,0.804-23.807,0.804c-11.662,0-21.206-0.919-29.293-2.842c-0.157-12.601-1.886-41.002-13.926-50.195  c-2.919-2.229-6.434-3.359-10.445-3.359c-6.392,0-13.568,3.127-19.992,6.985c-3.697-3.149-8.479-5.063-13.705-5.063  c-9.967,0-18.324,6.928-20.566,16.215c-13.061-6.349-22.693-11.086-22.961-11.218c-2.852-1.404-6.291-0.709-8.374,1.689l-19.118,22  c-2.329,2.68-2.283,6.678,0.106,9.304l15.31,16.819c-37.938-15.16-110.114-38.648-215.35-50.487  c-3.134-0.354-6.112,1.431-7.282,4.356c-0.379,0.946-9.323,23.478-13.896,49.645c-6.226,35.622-1.385,60.204,14.374,73.138  l9.345,29.67c0.918,2.915,3.621,4.897,6.677,4.897h84c2.142,0,4.165-0.979,5.493-2.66l16-20.25c1.53-1.937,1.911-4.528,1.038-6.825  c14.534-1.593,30.07-2.781,46.605-2.781c7.552,0,15.084,0.252,22.388,0.75c17.752,1.211,35.581,3.354,52.821,5.428  c26.043,3.131,50.641,6.089,74.904,6.089c35.876,0,64.069-6.741,88.728-21.213c8.923-5.237,39.889-26.882,41.202-27.801  c1.541-1.077,2.583-2.729,2.893-4.583C492.176,253.924,490.434,244.765,484.813,238.127z M284.083,299.736  c-17.418-2.094-35.429-4.26-53.541-5.494c-7.619-0.52-15.473-0.783-23.34-0.783c-29.131,0-54.938,3.511-77.705,6.608  c-17.714,2.409-33.012,4.491-46.433,4.491c-15.302,0-26.392-2.862-34.9-9.008c-24.221-17.492-9.242-75.987,0.507-102.749  c110.494,13.007,184.034,39.478,216.705,53.364c2.578,12.839,22.41,14.354,37.244,14.354c0.002,0,0.004,0,0.006,0  c15.96,0,31.787-2.065,32.453-2.153c2.355-0.312,4.393-1.796,5.409-3.941c1.018-2.147,0.877-4.663-0.373-6.683l-17.999-29.087  c15.865,7.554,30.646,14.421,37.378,17.08c11.547,4.561,25.424,6.685,43.669,6.685c8.333,0,16.561-0.418,24.517-0.822  c7.206-0.365,14.011-0.711,20.241-0.711c8.966,0,21.436,0.651,26.209,6.287c2.411,2.848,3.281,7.484,2.594,13.806  c-7.662,5.336-30.726,21.325-37.768,25.458c-22.419,13.159-48.361,19.287-81.641,19.287  C333.89,305.726,309.697,302.816,284.083,299.736z M59.2,325.976l-3.523-11.185c7.84,2.541,16.838,3.768,27.388,3.768  c10.404,0,21.529-1.125,33.79-2.686l23.834,2.492l-6.014,7.61H59.2z M308.624,195.124c0-3.957,3.219-7.177,7.178-7.177  c3.957,0,7.177,3.22,7.177,7.177c0,3.958-3.22,7.178-7.177,7.178C311.843,202.302,308.624,199.082,308.624,195.124z   M351.448,186.511c4.32,3.3,7.162,16.843,8.1,30.941l-23.895-15.023c0.842-2.281,1.325-4.734,1.325-7.305  c0-1.382-0.143-2.729-0.396-4.038c4.864-2.961,9.582-5.062,12.917-5.062C350.812,186.024,351.29,186.391,351.448,186.511z   M279.057,242.992c-0.13-5.688,11.5-18.307,24.07-28.416l19.207,31.037c-5.594,0.47-12.69,0.907-19.708,0.907  c-0.001,0-0.004,0-0.005,0C284.857,246.52,280.026,243.733,279.057,242.992z M293.14,204.713c-3.033,2.49-6.625,5.59-10.205,9.033  c-3.451,3.321-6.383,6.48-8.826,9.496l-14.676-16.124l11.502-13.235C275.784,196.261,283.802,200.182,293.14,204.713z" fill="#5A5954"/></svg>