<?xml version="1.0" ?><!DOCTYPE svg  PUBLIC '-//W3C//DTD SVG 1.1//EN'  'http://www.w3.org/Graphics/SVG/1.1/DTD/svg11.dtd'><svg enable-background="new 0 0 512 512" height="512px" id="Ballet" version="1.1" viewBox="0 0 512 512" width="512px" xml:space="preserve" xmlns="http://www.w3.org/2000/svg" xmlns:xlink="http://www.w3.org/1999/xlink"><path d="M50.559,380.254c0,0,37.479,18.191,131.135,10.161c106.505-9.132,78.194,3.255,134.487,1.479  c56.293-1.774,162.65-42.824,165.01-69.402c2.359-26.579-138.013-26.077-138.013-26.077s-133.756,58.522-291.926-12.02  C51.252,284.396,5.703,348.129,50.559,380.254z" fill="#F2EAE2"/><path d="M64.17,335.908c-3.866,0-7,3.135-7,7c0,3.172,2.109,5.852,5.002,6.711c1.213,2.021,2.998,8.053,2.998,16.794  c0,3.866,3.134,7,7,7s7-3.134,7-7C79.17,352.341,75.242,335.908,64.17,335.908z" fill="#5A5954"/><path d="M116.17,340.908c-13.785,0-25,13.685-25,30.505c0,3.866,3.134,7,7,7s7-3.134,7-7  c0-8.946,5.037-16.505,11-16.505c3.866,0,7-3.133,7-7C123.17,344.043,120.036,340.908,116.17,340.908z" fill="#5A5954"/><path d="M279.17,338.16c-3.866,0-7,3.135-7,7c0,3.172,2.109,5.852,5.002,6.711c1.213,2.021,2.998,8.053,2.998,16.794  c0,3.866,3.134,7,7,7s7-3.134,7-7C294.17,354.593,290.242,338.16,279.17,338.16z" fill="#5A5954"/><path d="M331.17,343.16c-13.785,0-25,13.685-25,30.505c0,3.866,3.134,7,7,7s7-3.134,7-7  c0-8.946,5.037-16.505,11-16.505c3.866,0,7-3.133,7-7C338.17,346.295,335.036,343.16,331.17,343.16z" fill="#5A5954"/><path d="M352.378,334.271c-3.592,1.431-5.343,5.502-3.912,9.094c1.173,2.947,4.13,4.652,7.131,4.383  c1.875,1.428,5.767,6.371,9.002,14.49c1.093,2.742,3.724,4.411,6.505,4.411c0.862,0,1.739-0.161,2.589-0.499  c3.592-1.432,5.343-5.502,3.912-9.094C372.396,343.984,362.671,330.172,352.378,334.271z" fill="#5A5954"/><path d="M411.629,323.578c-1.431-3.59-5.504-5.342-9.094-3.911c-6.446,2.568-11.34,8.294-13.427,15.71  c-1.929,6.853-1.398,14.623,1.494,21.882c1.093,2.741,3.724,4.411,6.505,4.411c0.862,0,1.739-0.161,2.59-0.5  c3.591-1.432,5.342-5.502,3.911-9.094c-1.734-4.352-2.107-9.056-1.023-12.906c0.526-1.873,1.895-5.207,5.132-6.497  C411.309,331.242,413.06,327.17,411.629,323.578z" fill="#5A5954"/><path d="M174.15,160.833l-82.668,98.519c-6.953,8.287-19.421,9.378-27.708,2.425l0,0  c-8.286-6.953-9.377-19.422-2.424-27.708l82.668-98.52c6.952-8.286,19.421-9.377,27.708-2.424l0,0  C180.013,140.078,181.104,152.546,174.15,160.833z" fill="#AAA199"/><path d="M184.778,247.155c3.694-7.875,1.833-17.598-5.126-23.438l-77.279-64.845h65.459  c9.959,0,18.108-8.148,18.108-18.108v-3.117c0-9.96-8.149-18.109-18.108-18.109H61.669c-9.96,0-18.108,8.149-18.108,18.109v3.117  c0,5.042,2.094,9.615,5.448,12.906c-0.787,6.404,1.557,13.079,6.84,17.512l81.541,68.421h-73.44c-9.96,0-18.109,8.149-18.109,18.109  v3.117c0,9.96,8.149,18.108,18.109,18.108h106.162c9.96,0,18.108-8.148,18.108-18.108v-3.117  C188.22,253.777,186.933,250.135,184.778,247.155z" fill="#F2EAE2"/><path d="M483.943,311.456c-5.592-6.11-19.505-14.769-75.526-19.401c-30.386-2.514-59.223-2.641-64.695-2.641  l-0.569,0.001c-0.953,0.003-1.9,0.204-2.774,0.585c-0.51,0.222-51.83,22.195-126.859,22.199c-0.007,0-0.011,0-0.018,0  c-48.073,0-95.179-8.826-140.314-26.261h96.925c13.845,0,25.108-11.264,25.108-25.108v-3.117c0-4.045-0.968-7.867-2.674-11.256  c2.957-9.892,0.005-21.054-8.394-28.102l-28.832-24.192l24.192-28.831c1.087-1.295,2.022-2.667,2.822-4.091  c6.411-4.554,10.605-12.032,10.605-20.477v-3.117c0-13.846-11.264-25.109-25.108-25.109H61.669  c-13.845,0-25.108,11.264-25.108,25.109v3.117c0,5.796,1.979,11.135,5.29,15.389c0.003,0.759,0.03,1.521,0.098,2.285  c0.622,7.111,3.961,13.542,9.401,18.106l28.831,24.192l-24.192,28.831c-1.555,1.854-2.808,3.859-3.776,5.957  c-7.946,4.22-13.372,12.58-13.372,22.188v3.117c0,7.186,3.039,13.67,7.893,18.251c-0.43,0.366-0.835,0.768-1.176,1.244  c-0.493,0.69-12.152,17.146-18.195,38.005c-8.465,29.213-1.853,52.594,19.121,67.615c0.322,0.23,0.664,0.434,1.021,0.607  c1.086,0.526,27.309,12.908,88.786,12.909c0.002,0,0.004,0,0.007,0c14.482,0,29.958-0.697,45.995-2.072  c26.435-2.267,46.458-3.368,61.215-3.368c15.794,0,23.273,1.214,31.191,2.5c7.723,1.254,15.708,2.551,31.023,2.551  c3.292,0,6.886-0.061,10.681-0.182c27.316-0.86,68.589-11.031,105.148-25.912c18.048-7.346,33.511-15.263,44.719-22.893  c13.966-9.51,21.127-18.332,21.895-26.975C488.423,320.182,487.902,315.781,483.943,311.456z M144.596,185.164l-19.407-16.285  l2.522-3.006h33.072L144.596,185.164z M50.561,140.765v-3.117c0-0.453,0.035-0.897,0.088-1.337  c0.664-5.496,5.349-9.772,11.021-9.772h81.867h24.296c6.125,0,11.108,4.983,11.108,11.109v3.117c0,4.895-3.187,9.052-7.591,10.528  c-1.107,0.371-2.287,0.58-3.518,0.58h-28.373h-18.275h-16.263h-21.78H61.669c-1.671,0-3.251-0.382-4.674-1.046  C53.202,149.059,50.561,145.219,50.561,140.765z M60.371,165.84c0.43,0.021,0.862,0.033,1.298,0.033h38.156l5.64,4.732l10.725,8.999  l19.407,16.284l10.725,8.999l28.831,24.192c1.679,1.409,2.898,3.164,3.646,5.074c-2.708-1.002-5.635-1.551-8.687-1.551h-30.174  l-9.901-8.308l-10.725-8.999l-19.407-16.285l-10.725-8.999L60.371,165.84z M90.905,209.736l19.407,16.284l-5.523,6.583H71.717  L90.905,209.736z M52.84,259.159v-1.446c0-6.061,4.88-10.994,10.916-11.1c0.064-0.001,0.128-0.01,0.193-0.01h29.092h18.276h23.525  h21.78h13.488c2,0,3.874,0.539,5.497,1.469c3.347,1.916,5.611,5.516,5.611,9.641v3.117c0,0.177-0.019,0.35-0.026,0.523  c-0.276,5.882-5.134,10.585-11.082,10.585H85.018H67.875h-3.926c-6.126,0-11.109-4.983-11.109-11.108V259.159z M416.271,360.012  c-35.146,14.305-74.521,24.074-100.312,24.887c-3.648,0.115-7.093,0.174-10.239,0.174c-14.186,0-21.274-1.151-28.779-2.37  c-8.118-1.317-16.513-2.681-33.436-2.681c-15.16,0-35.575,1.118-62.41,3.419c-15.643,1.341-30.714,2.021-44.8,2.021  c-0.001,0-0.005,0-0.007,0c-53.394-0.001-78.563-9.758-82.209-11.302c-15.416-11.369-19.91-28.736-13.357-51.637  c3.558-12.435,9.552-23.384,13.174-29.33c51.047,21.904,104.708,33.006,159.604,33.006c0.003,0,0.015,0,0.019,0  c72.088-0.004,122.05-19.08,131.069-22.783c5.982,0.016,34.022,0.221,62.675,2.591c51.474,4.257,63.55,11.839,66.354,14.901  c0.288,0.316,0.619,0.758,0.601,0.965C473.572,329.145,455.164,344.182,416.271,360.012z" fill="#5A5954"/></svg>