<?xml version="1.0" ?><!DOCTYPE svg  PUBLIC '-//W3C//DTD SVG 1.1//EN'  'http://www.w3.org/Graphics/SVG/1.1/DTD/svg11.dtd'><svg enable-background="new 0 0 512 512" height="512px" id="Boot" version="1.1" viewBox="0 0 512 512" width="512px" xml:space="preserve" xmlns="http://www.w3.org/2000/svg" xmlns:xlink="http://www.w3.org/1999/xlink"><path d="M213.713,476l-1.185-0.708c-14.03-8.384-24.853-12.634-32.167-12.634c-4.104,0-7.205,1.293-9.214,3.846  c-1.108,1.409-1.838,3.184-2.168,5.275L168.313,476H87.145v-35h359.98v35H213.713z" fill="#F2EAE2"/><path d="M250.988,371.764c-18.519,0-30.831-4.241-36.596-12.605c-5.586-8.106-5.277-20.464,0.919-36.73  c12.292-32.27,30.38-185.19,37.586-249.439l0.616-5.496l26.121,5.631l-1.358,5.074c-3.781,14.121-13.261,51.553-19.602,94.068  c-10.963,73.5-8.122,127.388,8.444,160.166l0.164,0.324l0.115,0.344c0.838,2.502,5.561,15.599,16.241,27.698l6.003,6.801  l-8.955,1.444C269.497,370.848,259.505,371.764,250.988,371.764z" fill="#F2EAE2"/><path d="M86.994,437l-0.152-4.844c-0.276-8.822-1.1-53.512,9.851-66.89c28.376-34.67,25.987-93.655-6.725-166.09  C70.224,155.46,64.972,90.723,63.599,56.024c-0.209-5.284,1.694-10.293,5.358-14.105C72.627,38.102,77.565,36,82.862,36h148.585  c5.555,0,10.655,2.277,14.36,6.413c3.703,4.133,5.408,9.447,4.801,14.964c-5.85,53.162-25.953,229.287-39.035,263.627  c-6.692,17.568-6.853,31.17-0.475,40.424c6.555,9.513,19.976,14.336,39.889,14.336c13.866,0,31.249-2.334,51.665-6.936  c5.461-1.231,11.538-2.986,17.973-4.843c17.434-5.031,37.19-10.733,58.572-10.733c8.556,0,16.826,0.959,24.582,2.852  c23.136,5.643,37.484,21.049,42.645,45.795c2.477,11.874,2.189,23.172,1.514,30.558L447.522,437H86.994z" fill="#F28F8F"/><path d="M455.325,400.494c-5.761-28.283-22.848-46.656-49.413-53.135c-8.454-2.062-17.441-3.107-26.714-3.107  c-22.655,0-43.955,6.147-61.068,11.086c-6.306,1.82-12.262,3.539-17.456,4.71c-1.378,0.311-2.737,0.608-4.086,0.897  c-14.782-12.613-20.414-29.926-20.755-31.013c-0.121-0.388-0.274-0.765-0.46-1.127c-38.268-74.623,12.989-253.432,13.512-255.229  c0.542-1.865,0.284-3.872-0.71-5.54c-0.995-1.667-2.639-2.848-4.537-3.257l-24.215-5.22c0.043-0.397,0.088-0.808,0.131-1.198  c0.879-7.976-1.689-15.978-7.043-21.954C247.154,30.429,239.477,27,231.447,27H82.862c-7.769,0-15.011,3.084-20.393,8.683  c-5.377,5.594-8.169,12.944-7.863,20.697c1.399,35.353,6.789,101.396,27.159,146.501c18.087,40.051,43.173,113.664,7.962,156.685  c-14.625,17.867-11.997,72.462-11.583,79.637V478c0,3.866,3.134,7,7,7h86c0.007,0,0.013,0,0.02,0c0.647,0,1.273-0.088,1.867-0.252  c1.417-0.387,2.692-1.207,3.621-2.387c0.686-0.871,1.148-1.873,1.364-2.924c0.097-0.464,0.148-0.945,0.148-1.438  c0-0.666-0.093-1.312-0.267-1.922c-0.259-1.528-0.115-3.463,0.324-4.011c0.107-0.134,0.772-0.409,2.139-0.409  c3.333,0,11.551,1.6,29.141,12.319c1.097,0.669,2.357,1.022,3.643,1.022h235.98c3.866,0,7-3.134,7-7v-38.402  C456.72,435.982,459.111,419.086,455.325,400.494z M442.125,471H215.093c-15.019-8.975-26.394-13.342-34.732-13.342  c-7.119,0-11.076,3.129-13.143,5.754c-1.869,2.374-2.782,5.075-3.178,7.588H92.145v-25h349.98V471z M94.524,197.119  C75.13,154.175,69.954,90.162,68.595,55.826c-0.155-3.911,1.254-7.62,3.967-10.441C75.28,42.558,78.938,41,82.862,41h148.585  c4.115,0,7.893,1.687,10.637,4.75c2.742,3.06,4.004,6.995,3.555,11.08c-5.833,53.015-25.868,228.611-38.737,262.394  c-7.313,19.198-7.286,34.353,0.081,45.042c7.544,10.947,22.351,16.498,44.006,16.498c14.235,0,31.988-2.375,52.765-7.059  c5.6-1.262,11.748-3.037,18.259-4.916c17.114-4.938,36.511-10.537,57.187-10.537c8.156,0,16.027,0.912,23.396,2.709  c21.102,5.146,34.202,19.263,38.936,41.958c2.412,11.567,2.019,22.644,1.429,29.081H91.839c-0.689-22.021,1-54.131,8.722-63.566  C130.204,332.217,128.06,271.375,94.524,197.119z M253.73,171.529c-11.119,74.549-8.115,129.438,8.927,163.159  c1.062,3.167,6.05,16.748,17.234,29.42c-10.941,1.765-20.616,2.656-28.903,2.656c-16.776,0-27.703-3.514-32.479-10.443  c-4.598-6.671-4.102-17.475,1.475-32.113c12.205-32.038,29.49-175.829,37.883-250.662l15.58,3.359  C269.396,92.035,260.052,129.142,253.73,171.529z" fill="#5A5954"/><path d="M284.235,341.093c-0.637-5.731-4.564-12.841-44.079-30.923c-8.189-3.748-16.39-7.256-23.181-10.076  c13.154-5.092,26.07-9.682,34.675-12.175c1.686,1.371,2.743,2.407,3.399,3.139c-1.25,2.226-1.233,5.057,0.281,7.323  c1.35,2.02,3.567,3.111,5.826,3.111c1.338,0,2.689-0.383,3.884-1.181c3.408-2.278,5.179-5.797,4.857-9.654  c-0.147-1.764-0.659-3.688-2.103-5.951c0.086-0.077,0.18-0.141,0.264-0.224c2.756-2.711,2.793-7.143,0.083-9.898  c-2.921-2.97-7.161-3.157-13.45-1.838c-4.441-3.055-10.147-6.539-17.507-10.577c-6.165-3.383-12.258-6.474-17.25-8.921  c12.081-7.52,24.368-14.63,32.4-18.554c1.375,1.235,2.428,2.333,3.1,3.256c-1.625,2.298-1.761,5.453-0.104,7.933  c1.35,2.02,3.567,3.111,5.826,3.111c1.338,0,2.689-0.382,3.884-1.181c3.453-2.308,5.292-5.887,5.046-9.82  c-0.141-2.252-0.863-4.88-3.418-8.267c2.529-2.727,2.498-6.982-0.137-9.66c-3.102-3.153-7.359-2.921-11.922-1.456  c-3.599-2.664-8.02-5.635-13.451-8.972c-6.326-3.886-12.573-7.378-17.314-9.937c10.665-6.933,21.638-13.604,29.554-17.838  c1.416,1.31,2.49,2.47,3.15,3.433c-1.731,2.31-1.913,5.553-0.218,8.089c1.35,2.02,3.567,3.111,5.826,3.111  c1.338,0,2.689-0.383,3.884-1.181c3.467-2.317,5.329-5.916,5.106-9.873c-0.127-2.268-0.824-4.918-3.329-8.341  c0.731-0.33,1.423-0.779,2.029-1.375c2.757-2.711,2.794-7.143,0.083-9.899c-3.766-3.828-9.082-2.714-14.566-0.424  c-3.297-2.482-7.262-5.221-12.055-8.27c-4.991-3.175-9.933-6.084-14.068-8.434c10.979-6.875,22.287-13.507,30.546-17.795  c1.14,1.027,1.901,1.831,2.4,2.426c-1.388,2.258-1.425,5.21,0.144,7.558c1.35,2.02,3.567,3.111,5.826,3.111  c1.338,0,2.689-0.383,3.884-1.181c3.427-2.291,5.226-5.833,4.935-9.723c-0.15-2.007-0.752-4.224-2.609-6.912  c1.049-0.317,2.043-0.872,2.879-1.694c2.757-2.711,2.794-7.143,0.084-9.899c-3.947-4.012-9.764-2.549-15.699-0.029  c-4.088-2.89-9.241-6.158-15.751-9.901c-13.621-7.833-26.898-14.095-27.456-14.357c-3.501-1.646-7.668-0.144-9.314,3.354  c-1.646,3.499-0.144,7.668,3.354,9.314c0.121,0.057,12.232,5.769,24.792,12.887c3.863,2.189,7.148,4.16,9.949,5.929  c-2.545,1.403-5.278,2.956-8.203,4.662c-12.6,7.349-24.871,15.27-26.597,16.388c-1.319,0.635-2.454,1.681-3.178,3.081  c-1.776,3.434-0.432,7.657,3.001,9.434c10.647,5.509,20.984,11.701,29.073,17.224c-2.705,1.535-5.632,3.253-8.796,5.169  c-13.033,7.894-25.688,16.451-25.814,16.536c-3.201,2.167-4.04,6.52-1.872,9.721c0.599,0.885,1.371,1.578,2.233,2.087  c0.602,0.73,1.359,1.351,2.26,1.802c11.186,5.6,22.062,11.906,30.532,17.509c-3.465,1.848-7.344,4.02-11.637,6.523  c-11.671,6.808-23.057,14.103-26.045,16.031c-0.436,0.231-0.846,0.509-1.226,0.83c-2.856,2.208-3.589,6.271-1.585,9.35  c1.122,1.723,2.875,2.777,4.757,3.081c3.776,1.742,13.998,6.545,24.54,12.243c3.007,1.626,5.68,3.131,8.067,4.524  c-3.102,1.048-6.459,2.228-10.078,3.542c-15.652,5.688-30.963,12.009-31.116,12.072c-0.024,0.01-0.047,0.023-0.071,0.033  c-0.128,0.056-0.253,0.117-0.379,0.18c-0.084,0.042-0.17,0.082-0.251,0.127c-0.113,0.063-0.222,0.132-0.332,0.2  c-0.086,0.054-0.175,0.104-0.258,0.162c-0.1,0.068-0.195,0.145-0.292,0.219c-0.084,0.064-0.171,0.126-0.252,0.194  c-0.095,0.08-0.184,0.167-0.274,0.252c-0.074,0.069-0.151,0.136-0.222,0.208c-0.092,0.095-0.178,0.196-0.266,0.297  c-0.061,0.069-0.125,0.138-0.183,0.209c-0.082,0.103-0.157,0.212-0.234,0.319c-0.056,0.078-0.115,0.154-0.167,0.234  c-0.065,0.1-0.123,0.204-0.183,0.308c-0.057,0.097-0.115,0.192-0.167,0.291c-0.048,0.093-0.091,0.19-0.135,0.286  c-0.054,0.117-0.109,0.233-0.157,0.354c-0.011,0.026-0.024,0.051-0.035,0.078c-0.027,0.068-0.044,0.139-0.069,0.209  c-0.042,0.122-0.085,0.244-0.121,0.368c-0.03,0.105-0.055,0.21-0.081,0.315c-0.028,0.116-0.055,0.232-0.077,0.35  c-0.021,0.112-0.037,0.225-0.052,0.337c-0.016,0.112-0.03,0.226-0.04,0.339c-0.01,0.115-0.016,0.229-0.02,0.344  c-0.004,0.113-0.007,0.227-0.006,0.34s0.007,0.228,0.014,0.341c0.007,0.114,0.015,0.228,0.027,0.343  c0.013,0.113,0.03,0.225,0.048,0.337s0.037,0.225,0.061,0.337c0.025,0.117,0.055,0.232,0.085,0.348  c0.027,0.104,0.055,0.207,0.087,0.312c0.04,0.125,0.085,0.247,0.131,0.369c0.026,0.068,0.045,0.137,0.073,0.204  c0.008,0.021,0.02,0.037,0.028,0.056c0.121,0.286,0.261,0.563,0.419,0.831c0.037,0.062,0.076,0.121,0.114,0.182  c0.146,0.23,0.304,0.453,0.477,0.666c0.027,0.034,0.052,0.07,0.08,0.104c0.193,0.23,0.405,0.444,0.629,0.649  c0.053,0.048,0.107,0.095,0.162,0.142c0.208,0.178,0.425,0.347,0.655,0.502c0.027,0.018,0.053,0.039,0.08,0.057  c0.25,0.162,0.515,0.308,0.79,0.439c0.07,0.034,0.142,0.064,0.214,0.096c0.102,0.045,0.199,0.095,0.304,0.135  c0.176,0.068,17.754,6.858,36.033,15.109c25.864,11.676,34.635,17.901,37.546,20.527c-0.651,1.977-0.418,4.221,0.827,6.084  c1.35,2.02,3.567,3.111,5.826,3.111c1.338,0,2.689-0.383,3.884-1.182C282.975,348.121,284.636,344.698,284.235,341.093z" fill="#5A5954"/></svg>