<?xml version="1.0" ?><!DOCTYPE svg  PUBLIC '-//W3C//DTD SVG 1.1//EN'  'http://www.w3.org/Graphics/SVG/1.1/DTD/svg11.dtd'><svg enable-background="new 0 0 512 512" height="512px" id="Cowboy_x5F_boot" version="1.1" viewBox="0 0 512 512" width="512px" xml:space="preserve" xmlns="http://www.w3.org/2000/svg" xmlns:xlink="http://www.w3.org/1999/xlink"><path d="M244.197,358.83c-13.432,0-26.675-1.084-39.359-3.224l-4.402-0.742l0.241-4.458  c1.812-33.521,0.328-83.234-4.412-147.758c-3.605-49.066-8.301-95.899-11.606-126.546l-0.577-5.352l5.38-0.181  c2.046-0.069,3.887-0.103,5.625-0.103c44.432,0,82.08,17.265,96.204,24.688l3.304,1.736l-0.725,3.661  c-3.732,18.85-22.843,116.021-32.562,178.056c-6.385,40.747,2.678,60.905,11.402,70.642l6.563,7.32l-9.782,0.99  c-8.33,0.844-16.836,1.271-25.284,1.271H244.197z" fill="#F28F8F"/><path d="M139.614,459.073l-22.81-44.743l8.355,0.176c16.079,0.337,47.626,1.684,78.258,6.911l4.159,0.71v36.946  H139.614z" fill="#F28F8F"/><path d="M191.924,352.727c-20.031-4.807-38.285-12.433-54.253-22.667l-3.117-1.997l1-3.564  c2.296-8.179,1.471-22.961-2.454-43.936c-3.808-20.348-10.55-46.707-20.042-78.342c-13.521-45.067-29.067-88.782-33.51-101.106  l-1.155-3.203l2.557-2.248c9.919-8.722,45.975-37.544,93.461-42.238l4.895-0.484l0.564,4.886  c8.382,72.604,21.651,215.443,18.214,290.267l-0.277,6.045L191.924,352.727z" fill="#F2EAE2"/><path d="M365.53,455.836c-46.286,0-86.633-12.467-94.252-14.967l-0.738-0.242l-0.631-0.455  c-29.542-21.35-97.283-29.373-150.828-29.763l-4.039-0.03l-0.82-3.954c-7.491-36.104,7.805-62.102,14.729-71.603l2.771-3.801  l3.963,2.532c37.865,24.198,80.592,29.276,109.767,29.276c20.688,0,36.143-2.463,41.827-3.523l1.572-0.292l139.21,64.618  l0.415,0.311c4.064,3.033,6.04,7.848,5.283,12.878c-0.795,5.292-4.484,9.54-9.629,11.087  C406.638,453.168,386.921,455.836,365.53,455.836z" fill="#F2EAE2"/><path d="M432.897,416.05c-0.303-0.202-0.621-0.382-0.951-0.535l-139.928-64.952  c-0.057-0.026-0.119-0.039-0.177-0.064c-0.17-0.074-0.347-0.133-0.523-0.193c-0.196-0.066-0.392-0.13-0.592-0.178  c-0.072-0.019-0.138-0.049-0.212-0.064c-0.062-0.014-6.455-1.669-12.131-9.739c-6.115-8.694-12.283-26.218-6.94-60.323  c10.896-69.543,33.268-181.579,33.493-182.702c0.578-2.894-0.72-5.839-3.245-7.365c-1.924-1.162-47.783-28.466-105.361-28.466  c-2.341,0-4.668,0.059-6.987,0.15c-0.808-7.22-1.294-11.344-1.314-11.515c-0.433-3.652-3.63-6.349-7.292-6.167  c-63.466,3.096-107.75,46.686-109.604,48.54c-1.93,1.929-2.562,4.804-1.62,7.365c0.187,0.508,18.861,51.417,34.926,104.966  c9.4,31.332,16.067,57.377,19.816,77.413c5.946,31.779,2.852,40.094,1.806,41.855c-4.175,4.62-32.847,38.745-19.247,90.126  c0.015,0.058,0.042,0.108,0.059,0.166c0.077,0.263,0.169,0.522,0.278,0.777c0.041,0.096,0.08,0.19,0.124,0.284  c0.025,0.053,0.043,0.108,0.07,0.16l24.809,48.664c1.195,2.346,3.604,3.821,6.236,3.821h71.187c3.866,0,7-3.134,7-7v-32.028  c19.378,4.215,37.206,10.27,48.797,18.963c0.575,0.432,1.213,0.771,1.892,1.008c1.848,0.646,45.877,15.82,98.266,15.82  c22.27,0,42.857-2.795,61.192-8.309c8.511-2.561,14.618-9.598,15.937-18.367C443.972,429.439,440.23,420.968,432.897,416.05z   M272.837,436.119c-38.614-27.906-128.917-30.529-153.719-30.71c-7.016-33.815,6.879-58.043,13.875-67.642  c38.702,24.732,82.189,30.063,112.459,30.063c21.128,0,36.95-2.527,42.743-3.607l137.291,63.728c2.571,1.919,3.812,4.923,3.33,8.128  c-0.514,3.41-2.803,6.043-6.125,7.041c-17.025,5.121-36.257,7.717-57.16,7.717C319.713,450.836,279.476,438.297,272.837,436.119z   M142.678,454.073l-17.623-34.569c15.616,0.328,47.079,1.646,77.521,6.842v27.728H142.678z M174.904,58.4  c7.835,67.864,21.684,213.33,18.187,289.464c-17.438-4.185-35.627-11.059-52.722-22.015c2.06-7.335,2.485-20.352-2.353-46.206  c-3.84-20.522-10.625-47.055-20.167-78.86c-13.44-44.801-28.699-87.781-33.596-101.365C94.634,90.29,129.205,62.918,174.904,58.4z   M290.209,99.58c-4.49,22.678-22.98,116.875-32.597,178.252c-6.577,41.98,2.688,63.672,12.619,74.752  c-6.775,0.687-15.219,1.246-24.78,1.246c-11.263,0-24.467-0.781-38.538-3.154c1.827-33.789,0.357-83.39-4.418-148.394  c-3.699-50.353-8.581-98.517-11.622-126.716c1.812-0.061,3.629-0.1,5.457-0.1C240.291,75.466,277.903,93.113,290.209,99.58z" fill="#5A5954"/><path d="M298.161,148.133c0.385-1.981,0.608-6.979-5.627-10.581c-3.349-1.934-7.629-0.788-9.563,2.562  c-0.947,1.64-1.155,3.504-0.727,5.207c-1.86,0.844-4.799,1.976-9.4,3.375c-20.207-5.735-55.592-17.827-87.866-29.75  c-3.625-1.338-7.652,0.514-8.992,4.141c-1.339,3.626,0.514,7.652,4.141,8.992c0.251,0.092,25.372,9.364,51.097,18.079  c5.572,1.888,10.6,3.557,15.167,5.043c-3.954,0.828-8.3,1.695-13.088,2.602c-20.191,3.82-39.609,6.705-45.162,7.51  c-2.853-0.387-5.766,1.015-7.162,3.719c-1.67,3.234-0.572,7.166,2.43,9.095c0.518,0.378,1.088,0.685,1.694,0.91  c4.671,2.396,23.364,11.935,42.558,21.037c6.352,3.013,11.921,5.583,16.821,7.778c-3.81,0.942-8.039,1.937-12.757,2.984  c-21.226,4.714-41.484,8.109-41.686,8.143c-1.042,0.174-1.987,0.576-2.803,1.137c-2.194,0.267-4.228,1.561-5.343,3.661  c-1.814,3.414-0.518,7.652,2.896,9.466c0.206,0.109,20.82,11.054,42.098,21.421c4.477,2.18,8.542,4.123,12.262,5.863  c-3.486,0.896-7.333,1.839-11.589,2.83c-20.499,4.771-40.06,8.218-40.255,8.252c-3.808,0.668-6.353,4.297-5.685,8.104  c0.433,2.469,2.118,4.394,4.283,5.269c0.033,0.019,0.063,0.041,0.096,0.059c0.2,0.11,20.258,11.135,40.986,21.578  c4.002,2.016,7.676,3.834,11.058,5.477c-4.608,1.133-9.9,2.35-15.977,3.646c-21.431,4.573-41.876,7.844-42.081,7.876  c-3.818,0.608-6.42,4.196-5.812,8.015c0.548,3.444,3.523,5.899,6.904,5.899c0.366,0,0.737-0.028,1.11-0.088  c0.231-0.037,23.384-3.74,46.496-8.81c12.466-2.734,21.972-5.195,29.233-7.449c9.881,4.114,14.807,5.268,17.709,5.268  c1.893,0,2.932-0.487,3.933-0.957c3.501-1.642,5.007-5.81,3.366-9.31c-1.012-2.159-2.989-3.539-5.175-3.911  c2.786-2.308,3.618-4.443,4.009-6.555c0.373-2.02,0.553-7.112-5.824-10.795c-3.348-1.934-7.629-0.787-9.563,2.561  c-1.061,1.836-1.194,3.951-0.548,5.808c-1.53,0.756-3.831,1.738-7.255,2.932c-12.926-5.769-31.225-14.931-49.369-24.563  c7.435-1.511,16.246-3.396,25.056-5.501c9.782-2.338,18.157-4.609,25.009-6.779c9.604,3.836,14.428,4.917,17.285,4.917  c1.914,0,2.947-0.484,3.943-0.952c3.5-1.642,5.006-5.81,3.365-9.31c-0.839-1.788-2.344-3.036-4.074-3.63  c3.195-2.359,4.887-4.851,5.395-7.719c0.36-2.037,0.504-7.175-5.918-10.884c-3.348-1.935-7.629-0.788-9.563,2.561  c-1.128,1.953-1.208,4.223-0.414,6.159c-1.814,0.959-4.774,2.281-9.535,3.945c-13.16-5.639-32.083-14.797-51.193-24.608  c8.401-1.591,19.126-3.733,29.842-6.178c10.76-2.454,19.866-4.835,27.183-7.103c7.007,2.52,10.858,3.283,13.279,3.283  c1.918,0,2.939-0.479,3.926-0.941c3.5-1.642,5.007-5.81,3.365-9.31c-0.238-0.508-0.545-0.957-0.88-1.377  c3.386-2.369,5.145-4.88,5.682-7.847c0.366-2.023,0.53-7.127-5.847-10.811c-3.349-1.935-7.629-0.787-9.563,2.561  c-1.085,1.878-1.201,4.05-0.502,5.936c-1.787,0.911-4.65,2.149-9.187,3.696c-13.188-5.249-34.167-15.036-55.63-25.711  c8.741-1.427,19.218-3.235,29.69-5.271c13.424-2.611,24.531-5.146,33.096-7.549c8.43,2.228,12.982,2.92,15.722,2.92  c2.295,0,3.326-0.483,4.317-0.948c3.5-1.642,5.008-5.81,3.366-9.31c-0.386-0.822-0.915-1.526-1.538-2.113  C296.71,152.084,297.751,150.241,298.161,148.133z" fill="#5A5954"/></svg>