<?xml version="1.0" ?><!DOCTYPE svg  PUBLIC '-//W3C//DTD SVG 1.1//EN'  'http://www.w3.org/Graphics/SVG/1.1/DTD/svg11.dtd'><svg enable-background="new 0 0 512 512" height="512px" id="D_x27_orsay_x5F_flat" version="1.1" viewBox="0 0 512 512" width="512px" xml:space="preserve" xmlns="http://www.w3.org/2000/svg" xmlns:xlink="http://www.w3.org/1999/xlink"><path d="M51.556,324.155c0,0,37.478,18.191,131.134,10.16c106.505-9.132,78.195,3.256,134.488,1.48  c56.292-1.775,162.649-42.824,165.009-69.403c2.359-26.579-66.094-25.131-74.845-29.971c-8.75-4.84-70.393-48.764-70.393-48.764  s-81.491,66.917-89.755,110.471c0,0-77.165,12.757-98.628,3.627c0,0,54.628-55.575-103.541-126.117  C45.026,175.638,6.701,292.03,51.556,324.155z" fill="#F28F8F"/><path d="M137.294,343.362c-0.003,0-0.005,0-0.008,0c-61.477,0-87.7-12.383-88.787-12.91  c-0.356-0.173-0.697-0.375-1.019-0.606c-20.838-14.923-28.563-46.155-22.96-92.83c4.012-33.422,13.458-62.352,13.857-63.567  c0.619-1.88,2.005-3.411,3.816-4.212c1.81-0.801,3.876-0.798,5.684,0.008c70.542,31.462,109.542,64.473,115.917,98.117  c2.445,12.905-0.543,23.138-3.912,29.925c3.626,0.453,8.441,0.762,14.828,0.762c23.865-0.001,55.194-4.367,66.782-6.115  c13.022-45.228,87.729-106.986,91.017-109.685c2.444-2.007,5.93-2.126,8.504-0.291c16.993,12.108,62.492,44.291,69.642,48.297  c1.845,0.777,9.302,1.712,15.304,2.464c11.981,1.502,26.892,3.372,39.172,7.497c21.195,7.121,24.767,18.503,24.031,26.797  c-0.768,8.642-7.93,17.466-21.896,26.975c-11.208,7.631-26.671,15.548-44.72,22.894c-36.559,14.88-77.831,25.051-105.146,25.912  c-3.797,0.12-7.389,0.181-10.682,0.181c-15.314,0-23.301-1.296-31.023-2.55c-7.918-1.287-15.397-2.501-31.191-2.501  c-14.757,0-34.78,1.103-61.214,3.368C167.252,342.665,151.776,343.362,137.294,343.362z M55.088,318.065  c3.685,1.559,28.859,11.297,82.199,11.297c0.002,0,0.006,0,0.008,0c14.085,0,29.156-0.68,44.798-2.021  c26.835-2.301,47.25-3.419,62.41-3.419c16.924,0,25.317,1.363,33.436,2.681c7.506,1.219,14.594,2.37,28.779,2.37  c3.146,0,6.591-0.058,10.24-0.173c25.791-0.813,65.165-10.582,100.311-24.888c38.893-15.829,57.301-30.866,57.947-38.139  c1.121-12.63-34.082-17.043-51-19.165c-11.28-1.414-16.854-2.178-20.262-4.062c-7.752-4.289-51.645-35.382-66.635-46.036  c-16.347,14.029-76.57,67.732-83.246,102.921c-0.548,2.887-2.839,5.123-5.736,5.602c-1.732,0.287-42.775,7.013-73.627,7.014  c-13.344,0-22.791-1.26-28.882-3.852c-2.131-0.906-3.676-2.807-4.126-5.078c-0.451-2.271,0.251-4.619,1.874-6.27  c0.358-0.379,9.724-10.484,6.398-27.224c-3.813-19.189-24.532-49.176-100.606-84.33C39.058,220.61,24.86,295.413,55.088,318.065z" fill="#5A5954"/><path d="M73.167,317.313c-3.866,0-7-3.134-7-7c0-8.74-1.785-14.772-2.998-16.793  c-2.893-0.86-5.002-3.539-5.002-6.711c0-3.866,3.134-7,7-7c11.072,0,15,16.432,15,30.504  C80.167,314.18,77.033,317.313,73.167,317.313z" fill="#C96F6F"/><path d="M99.167,322.313c-3.866,0-7-3.134-7-7c0-16.82,11.215-30.504,25-30.504c3.866,0,7,3.134,7,7s-3.134,7-7,7  c-5.962,0-11,7.559-11,16.504C106.167,319.18,103.033,322.313,99.167,322.313z" fill="#C96F6F"/><path d="M288.167,319.565c-3.866,0-7-3.133-7-7c0-8.74-1.785-14.772-2.998-16.793  c-2.893-0.86-5.002-3.539-5.002-6.711c0-3.866,3.134-7,7-7c11.072,0,15,16.433,15,30.504  C295.167,316.433,292.033,319.565,288.167,319.565z" fill="#C96F6F"/><path d="M314.167,324.565c-3.866,0-7-3.133-7-7c0-16.82,11.215-30.504,25-30.504c3.866,0,7,3.134,7,7s-3.134,7-7,7  c-5.963,0-11,7.559-11,16.504C321.167,321.433,318.033,324.565,314.167,324.565z" fill="#C96F6F"/><path d="M372.101,310.55c-2.781,0-5.412-1.669-6.504-4.41c-3.236-8.119-7.127-13.063-9.002-14.49  c-3.01,0.271-5.957-1.438-7.131-4.383c-1.432-3.592,0.32-7.663,3.912-9.094c10.281-4.098,20.017,9.713,25.227,22.784  c1.43,3.591-0.32,7.663-3.912,9.095C373.841,310.39,372.963,310.55,372.101,310.55z" fill="#C96F6F"/><path d="M398.104,305.57c-2.781,0-5.412-1.669-6.505-4.411c-6.226-15.625-0.874-32.488,11.933-37.592  c3.592-1.43,7.662,0.32,9.094,3.912c1.432,3.591-0.32,7.662-3.911,9.094c-5.54,2.207-7.421,11.094-4.108,19.404  c1.43,3.591-0.32,7.662-3.912,9.094C399.845,305.409,398.967,305.57,398.104,305.57z" fill="#C96F6F"/></svg>