<?xml version="1.0" ?><!DOCTYPE svg  PUBLIC '-//W3C//DTD SVG 1.1//EN'  'http://www.w3.org/Graphics/SVG/1.1/DTD/svg11.dtd'><svg enable-background="new 0 0 512 512" height="512px" id="D_x27_orsay_x5F_pump" version="1.1" viewBox="0 0 512 512" width="512px" xml:space="preserve" xmlns="http://www.w3.org/2000/svg" xmlns:xlink="http://www.w3.org/1999/xlink"><path d="M339.499,366.344c-15.457,0-33.078-5.595-52.371-16.628l-10.109-5.781l11.153-3.349  c7.692-2.309,18.065-5.138,23.808-5.505l2.787-0.179l1.613,2.279c4.749,6.709,43.477,24.039,43.477,24.039  S341.96,366.344,339.499,366.344z" fill="#AAA199"/><path d="M208.784,347.612c-12.236-15.58-25.444-29.32-39.259-40.835c-17.609-14.679-31.944-22.352-38.922-25.618  l-2.88-1.349v-22.8l7.316,3.824c13.798,7.212,40.688,22.104,65.745,40.807c13.54,10.105,24.98,20.156,34.004,29.872l4.693,5.053  l-6.261,2.89c-7.126,3.289-13.723,6.927-18.002,9.398l-3.755,2.169L208.784,347.612z" fill="#AAA199"/><path d="M136.565,167.604c-7.091-36.273-34.988-56.306-36.172-57.141c-0.106-0.075-0.221-0.14-0.34-0.192  c-8.826-3.903-16.046-10.979-20.883-20.465l-5.891-11.55l12.121,4.604c24.992,9.495,66.901,30.353,66.791,63.353  c-0.021,6.403-1.988,13.569-6.189,22.55l-6.495,13.886L136.565,167.604z" fill="#AAA199"/><path d="M337.857,433.677c-52.547,0-87.818-9.52-92.05-24.842c-0.044-0.157-0.108-0.313-0.189-0.455l-30.989-54.613  l4.354-2.467c8.043-4.555,27.846-15.149,37.992-15.149c0.711,0,1.356,0.056,1.919,0.166l1.107,0.218l0.907,0.673  c29.642,21.988,56.083,33.137,78.589,33.137c18.852,0,30.23-8.036,35.335-12.827l2.891-2.713l72.198,48.039  c0.131,0.086,0.284,0.161,0.448,0.218l9.073,3.127l-7.762,5.644c-3.035,2.206-7.227,4.681-12.459,7.354  C422.794,427.582,380.163,433.677,337.857,433.677z" fill="#F2EAE2"/><path d="M98.428,429.453V283.174c0-0.411-0.125-0.808-0.36-1.146C56.749,222.823,52.33,170.553,55.899,137.129  c2.074-19.428,7.058-34.909,10.874-44.476l4.038-10.122l5.04,9.662c5.162,9.896,12.539,17.109,21.926,21.438l0.496,0.229l0.434,0.33  c3.619,2.748,35.36,28.057,35.484,70.036c0.092,31.165-10.411,56.645-10.517,56.898c-0.108,0.258-0.16,0.527-0.157,0.804  c0.92,76.587-1.486,159.193-2.245,182.686l-0.157,4.839H98.428z" fill="#F2EAE2"/><path d="M465.88,403.941c-1.137-5.747-6.813-8.61-12.344-9.505l-72.537-48.264c-3.209-2.136-7.504-1.331-9.652,1.872  c-0.149,0.214-1.67,2.317-4.805,4.79c-18.592-5.308-39.209-13.757-43.482-21.93c-1.688-3.23-4.986-4.868-9.804-4.868  c-9.597,0-30.656,6.728-39.119,9.566c-2.667-1.836-5.364-3.767-8.097-5.797c-2.371-1.763-5.42-2.656-9.063-2.656  c-3.452,0-7.589,0.876-11.975,2.26c-9.957-11.423-23.003-23.177-38.986-35.094c-30.434-22.692-62.5-39.404-73.42-44.857  c-0.02-2.088-0.04-4.174-0.064-6.255c2.067-5.357,9.06-25.109,10.423-50.142c9.787-16.375,18.186-31.95,18.235-46.819  c0.173-51.736-83.36-75.673-86.917-76.667c-0.118-0.032-0.236-0.055-0.354-0.081c-0.033-0.008-0.063-0.021-0.095-0.028  c-0.019-0.004-0.038-0.003-0.057-0.007c-0.314-0.063-0.629-0.104-0.944-0.123c-0.054-0.003-0.107-0.005-0.162-0.008  c-0.319-0.012-0.636-0.007-0.949,0.023c-0.031,0.003-0.061,0.009-0.092,0.012c-0.307,0.035-0.61,0.088-0.907,0.162  c-0.03,0.008-0.061,0.013-0.091,0.021c-0.299,0.078-0.591,0.18-0.876,0.297c-0.054,0.021-0.107,0.043-0.161,0.066  c-0.277,0.122-0.547,0.26-0.807,0.416c-0.045,0.027-0.088,0.057-0.133,0.085c-0.268,0.17-0.529,0.353-0.773,0.559  c-0.003,0.003-0.007,0.007-0.01,0.01c-0.246,0.208-0.475,0.438-0.692,0.682c-0.028,0.031-0.057,0.061-0.084,0.093  c-0.207,0.24-0.396,0.497-0.57,0.768c-0.016,0.023-0.035,0.043-0.05,0.066c-0.618,0.981-15.173,24.46-19.431,62.802  c-3.861,34.778,0.423,88.893,42.393,149.971v146.092c0,3.866,3.134,7,7,7h26.613c3.767,0,6.858-2.981,6.996-6.746  c0.029-0.802,2.375-66.259,2.658-139.388c7.415,4.008,18.643,10.941,31.66,21.866c13.209,11.087,29.971,27.806,46.788,51.671  l26.263,46.285c1.105,3.413,3.031,6.451,5.611,9.158c0.348,0.439,0.745,0.831,1.183,1.173  c18.363,17.299,64.683,20.204,93.659,20.204c43.56,0,87.913-6.51,105.462-15.477C460.839,418.247,467.376,411.509,465.88,403.941z   M337.857,428.677c-56.218,0-84.319-10.635-87.23-21.173c-0.154-0.556-0.375-1.09-0.659-1.591l-28.52-50.262  c11.694-6.623,28.042-14.501,35.528-14.501c0.499,0,0.804,0.043,0.954,0.072c30.524,22.642,57.966,34.121,81.568,34.121  c20.186,0,32.612-8.415,38.756-14.181l68.898,45.842c0.49,0.326,1.027,0.589,1.588,0.782c-2.27,1.651-5.932,3.95-11.793,6.946  C421.394,422.683,378.794,428.677,337.857,428.677z M132.723,276.631v-11.364c13.976,7.305,40.402,21.97,65.07,40.382  c11.44,8.539,23.362,18.534,33.332,29.269c-7.32,3.378-14.105,7.123-18.408,9.608c-14.475-18.433-28.496-32.007-39.99-41.589  C154.642,287.862,139.842,279.964,132.723,276.631z M339.499,361.344c-14.629,0-31.343-5.362-49.89-15.969  c8.761-2.63,17.919-4.999,22.689-5.305c5.414,7.648,16.581,14.503,33.925,20.854C344.126,361.189,341.893,361.344,339.499,361.344z   M141.472,166.645c-7.461-38.167-36.778-59.267-38.198-60.268c-0.377-0.266-0.779-0.494-1.202-0.681  c-9.47-4.188-15.137-11.667-18.449-18.162c21.939,8.336,63.669,28.199,63.566,58.662  C147.169,152.369,144.922,159.269,141.472,166.645z M60.871,137.661c1.963-18.385,6.563-33.168,10.546-43.154  c4.386,8.409,11.83,17.931,24.265,23.666c4.107,3.118,33.391,26.751,33.507,66.068c0.089,30.087-10.03,54.717-10.13,54.956  c-0.37,0.883-0.555,1.833-0.544,2.791c0.919,76.48-1.476,158.735-2.243,182.466h-12.845V283.174c0-1.433-0.44-2.831-1.26-4.007  C61.734,221.23,57.393,170.236,60.871,137.661z" fill="#5A5954"/></svg>