<?xml version="1.0" ?><!DOCTYPE svg  PUBLIC '-//W3C//DTD SVG 1.1//EN'  'http://www.w3.org/Graphics/SVG/1.1/DTD/svg11.dtd'><svg enable-background="new 0 0 512 512" height="512px" id="Flip_x5F_flop" version="1.1" viewBox="0 0 512 512" width="512px" xml:space="preserve" xmlns="http://www.w3.org/2000/svg" xmlns:xlink="http://www.w3.org/1999/xlink"><path d="M57.216,315.895c-7.969,0-14.451-6.482-14.451-14.451c0-7.968,6.482-14.451,14.451-14.451h397.568  c7.969,0,14.451,6.483,14.451,14.451c0,7.969-6.482,14.451-14.451,14.451H57.216z" fill="#F28F8F"/><path d="M261.207,282.992l0.696-5.615c1.679-13.535,8.546-58.794,26.413-72.879  c6.367-5.02,25.116-8.393,46.653-8.393c16.59,0,26.665,1.918,31.194,3.062l7.099,1.792l-4.252,5.96  c-7.413,10.392-13.289,23.726-17.464,39.632l-0.056,0.195c-3.894,12.706-5.254,24.172-5.709,31.555l-0.289,4.691H261.207z" fill="#F2EAE2"/><path d="M350.183,277.223c1.799-17.846,7.516-50.995,25.59-72.521l2.623-3.124l3.588,1.942  c8.09,4.383,22.586,19.543,28.776,71.844l0.638,5.396l-61.789,2.162L350.183,277.223z" fill="#AAA199"/><path d="M454.784,277.992h-34.672c-8.934-82.643-39.256-85.064-42.735-85.064c-0.549,0-1.089,0.071-1.614,0.196  c-9.876-4.813-26.579-6.019-40.793-6.019c-9.18,0-40.072,0.745-52.226,10.325c-20.734,16.346-27.939,62.773-29.982,80.562H57.216  c-12.931,0-23.451,10.521-23.451,23.451c0,12.932,10.521,23.451,23.451,23.451h397.568c12.931,0,23.451-10.52,23.451-23.451  C478.235,288.513,467.715,277.992,454.784,277.992z M454.784,310.895H57.216c-5.211,0-9.451-4.239-9.451-9.451  c0-5.211,4.24-9.451,9.451-9.451h201.876h88.495h107.197c5.211,0,9.451,4.24,9.451,9.451  C464.235,306.655,459.995,310.895,454.784,310.895z M291.412,208.425c4.613-3.637,21.057-7.319,43.558-7.319  c13.576,0,23.839,1.361,29.971,2.909c-8.963,12.564-14.641,27.593-18.229,41.267c-4.096,13.364-5.47,25.426-5.919,32.711h-73.927  C269.414,257.443,276.812,219.935,291.412,208.425z M355.157,277.724c1.506-14.937,6.773-48.762,24.444-69.808  c5.848,3.168,20.047,16.109,26.192,68.035L355.157,277.724z" fill="#5A5954"/><path d="M315.901,265.033c-0.49,0-0.984-0.039-1.469-0.116l-15.536-2.452c-2.502-0.395-4.701-1.742-6.193-3.793  c-1.491-2.051-2.096-4.558-1.7-7.06l2.454-15.541c0.718-4.565,4.741-8.01,9.357-8.01c0.496,0,0.998,0.039,1.493,0.117l15.54,2.453  c5.168,0.815,8.709,5.684,7.894,10.853l-2.454,15.541C324.569,261.59,320.533,265.033,315.901,265.033  C315.9,265.033,315.901,265.033,315.901,265.033z" fill="#F28F8F"/><path d="M297.492,271.355l15.541,2.453c0.958,0.15,1.933,0.227,2.897,0.227c9.147,0,16.821-6.564,18.247-15.607  l2.453-15.54c1.59-10.07-5.31-19.556-15.38-21.146l-15.54-2.452c-0.958-0.151-1.933-0.228-2.896-0.228  c-9.148,0-16.822,6.564-18.248,15.607l-2.453,15.54C280.523,260.279,287.423,269.766,297.492,271.355z M295.941,252.392  l2.454-15.541c0.34-2.16,2.24-3.789,4.419-3.789c0.235,0,0.476,0.019,0.714,0.057l15.54,2.452c2.444,0.386,4.12,2.689,3.734,5.135  l-2.454,15.541c-0.377,2.396-2.703,4.119-5.132,3.732l-15.541-2.453C297.23,257.141,295.556,254.837,295.941,252.392z" fill="#5A5954"/></svg>