<?xml version="1.0" ?><!DOCTYPE svg  PUBLIC '-//W3C//DTD SVG 1.1//EN'  'http://www.w3.org/Graphics/SVG/1.1/DTD/svg11.dtd'><svg enable-background="new 0 0 512 512" height="512px" id="Mule" version="1.1" viewBox="0 0 512 512" width="512px" xml:space="preserve" xmlns="http://www.w3.org/2000/svg" xmlns:xlink="http://www.w3.org/1999/xlink"><path d="M339.828,414.464c-46.078,0-58.888-6.314-102.277-78.813c-54.541-91.132-84.373-120.481-85.616-121.686  c-0.375-0.363-0.87-0.563-1.393-0.563c-0.254,0-0.503,0.048-0.739,0.142c-0.729,0.291-1.224,0.985-1.258,1.77l-8.58,198.565H58.801  L46.798,98.625l7.648,4.013c14.598,7.66,44.05,24.418,77.288,50.591c43.806,34.495,103.532,92.971,139.303,175.654  c6.769,15.646,31.196,17.982,45.154,17.982c3.86,0,6.561-0.184,7.296-0.239l0.232-0.013c21.668-0.644,44.903-0.971,69.062-0.971  c30.74,0,55.514,0.531,67.546,0.849l5.161,0.136l-0.302,5.154c-0.534,9.139-3.338,26.544-16.104,40.437  c-13.208,14.372-33.713,21.66-60.945,21.66h-0.458c-10.642,0-20.209,0.179-28.65,0.335  C352.098,414.343,345.64,414.464,339.828,414.464z" fill="#F2EAE2"/><path d="M315.801,342.866c-21.863-0.066-36.841-5.742-41.092-15.57c-36.17-83.605-96.55-142.656-140.833-177.472  c-19.681-15.471-40.112-29.411-60.729-41.433l2.811-9.311c28.697,1.681,67.507,4.663,89.434,9.322  c21.881,4.65,39.185,6.91,52.899,6.91c12.826,0,20.804-1.972,27.843-3.711c5.851-1.445,11.37-2.809,18.882-2.809  c1.7,0,3.411,0.066,5.229,0.201l3.327,0.248l1.048,3.167c3.048,9.202,11.693,33.804,26.117,63.426  c15.512,31.856,41.443,76.72,76.898,109.537l4.731,4.381l-5.419,3.492c-5.959,3.84-14.97,9.783-24.058,16.291  c-19.575,14.016-30.161,23.832-32.362,30.008l-1.188,3.332L315.801,342.866z" fill="#F28F8F"/><path d="M474.174,344.057c-0.319-3.517-3.208-6.245-6.737-6.364c-0.313-0.01-31.781-1.049-74.655-1.049  c-20.763,0-40.829,0.242-59.813,0.717c3.886-4.068,11.563-10.861,26.708-21.609c14.989-10.639,29.688-19.721,29.835-19.812  c1.906-1.176,3.135-3.192,3.305-5.427c0.17-2.232-0.738-4.412-2.444-5.863c-72.07-61.293-108.179-178.027-108.535-179.199  c-0.802-2.637-3.076-4.56-5.811-4.909c-3.941-0.503-7.543-0.748-11.011-0.748c-8.609,0-14.929,1.562-21.041,3.072  c-6.86,1.695-13.954,3.448-25.684,3.448c-13.077,0-29.769-2.196-51.028-6.714c-37.14-7.892-118.868-10.937-122.329-11.063  c-0.054-0.002-0.104,0.009-0.158,0.008c-0.324-0.004-0.646,0.01-0.968,0.051c-0.043,0.005-0.087,0.005-0.13,0.012  c-0.358,0.052-0.711,0.138-1.059,0.245c-0.072,0.022-0.144,0.049-0.215,0.074c-0.296,0.102-0.585,0.223-0.867,0.365  c-0.048,0.024-0.098,0.045-0.145,0.071c-0.302,0.161-0.597,0.337-0.876,0.543c-0.026,0.02-0.049,0.043-0.074,0.063  c-0.006,0.004-0.011,0.009-0.016,0.013c-0.285,0.218-0.546,0.46-0.791,0.715c-0.047,0.049-0.093,0.099-0.14,0.15  c-0.234,0.259-0.452,0.531-0.644,0.82c-0.011,0.016-0.023,0.03-0.034,0.046c-0.201,0.309-0.372,0.635-0.522,0.971  c-0.031,0.07-0.058,0.142-0.087,0.214c-0.123,0.301-0.226,0.609-0.306,0.925c-0.01,0.039-0.028,0.074-0.037,0.113  c-0.004,0.016-0.003,0.033-0.007,0.049c-0.082,0.359-0.134,0.726-0.158,1.099c-0.005,0.079-0.003,0.156-0.006,0.235  c-0.004,0.161-0.017,0.32-0.011,0.482l12.197,320.347c0.144,3.76,3.232,6.733,6.995,6.733h85.004c3.748,0,6.832-2.952,6.993-6.698  l7.915-183.167c13.307,16.096,38.228,49.092,73.039,107.258c20.52,34.285,35.65,56.555,52.268,68.922  c16.116,11.996,32.725,14.27,57.733,14.27c5.908,0,12.423-0.121,19.319-0.25c8.415-0.157,17.952-0.335,28.531-0.335h0.528  c29.899,0,52.655-8.315,67.635-24.716C476.742,375.282,474.288,345.321,474.174,344.057z M388.137,408.879h-0.458  c-10.709,0-20.316,0.179-28.792,0.337c-6.83,0.127-13.281,0.248-19.059,0.248c-44.376,0-55.658-5.654-97.987-76.381  c-54.879-91.696-85.164-121.485-86.427-122.708c-1.331-1.289-3.086-1.973-4.872-1.973c-0.871,0-1.75,0.163-2.589,0.497  c-2.561,1.02-4.285,3.448-4.403,6.201l-8.374,193.779H63.614L52.123,107.066c14.753,7.741,43.731,24.274,76.518,50.092  c43.352,34.138,102.451,91.986,137.808,173.712c7.903,18.269,34.559,20.996,49.743,20.996c4.018,0,6.877-0.193,7.677-0.254  c21.605-0.643,44.789-0.969,68.913-0.969c30.989,0,55.968,0.545,67.414,0.847c-0.505,8.628-3.119,24.64-14.795,37.345  C433.179,402.136,413.937,408.879,388.137,408.879z M247.332,116.457c5.783-1.429,10.777-2.663,17.683-2.663  c1.564,0,3.174,0.062,4.857,0.188c3.229,9.749,11.905,34.341,26.368,64.043c16.006,32.873,42.201,77.884,77.997,111.018  c-6.162,3.971-15.16,9.913-24.26,16.43c-24.43,17.492-32.042,26.449-34.161,32.395c-19.501-0.06-33.14-4.743-36.519-12.555  c-36.586-84.568-97.595-144.246-142.332-179.418c-23.75-18.671-45.304-32.494-61.301-41.821c27.633,1.619,66.854,4.582,88.687,9.222  c22.228,4.724,39.871,7.02,53.938,7.02C231.724,120.313,240.016,118.265,247.332,116.457z" fill="#5A5954"/><circle cx="188.008" cy="155.818" fill="#F2EAE2" r="14.833"/><circle cx="220.582" cy="191.285" fill="#F2EAE2" r="14.833"/><circle cx="247.156" cy="226.753" fill="#F2EAE2" r="14.833"/><circle cx="270.73" cy="262.22" fill="#F2EAE2" r="14.833"/><circle cx="294.305" cy="297.688" fill="#F2EAE2" r="14.833"/></svg>