<?xml version="1.0" ?><!DOCTYPE svg  PUBLIC '-//W3C//DTD SVG 1.1//EN'  'http://www.w3.org/Graphics/SVG/1.1/DTD/svg11.dtd'><svg enable-background="new 0 0 512 512" height="512px" id="Oxford" version="1.1" viewBox="0 0 512 512" width="512px" xml:space="preserve" xmlns="http://www.w3.org/2000/svg" xmlns:xlink="http://www.w3.org/1999/xlink"><path d="M317.468,321.179c-3.43-1.648-12.377-9.23-12.377-9.23c-0.676-0.838-1.229-1.66-1.689-2.512  c-2.485-4.601-2.339-10.222,0.437-16.707c3.994-9.336,18.556-12.649,33.695-14.84l23.974-3.467l0.204,0.086l1.421-0.321l8.026-2.188  c3.822-1.393,7.798-3.6,9.57-7.383c1.58-3.314,1.294-7.104-0.876-11.584l-1.67-3.447l-3.545-1.45  c-6.101-2.495-23.931-9.791-47.234-19.363l-4.503-1.85l-0.001,0l-10.487-4.313c-6.409-2.636-25.205-10.378-25.205-10.378l-0.001,0  l-9.059-3.738c-8.113-3.348-16.354-6.753-24.569-10.154l-5.919-2.45l-0.001,0l-7.94-3.294c-7.633-3.167-15.16-6.294-22.459-9.336  l-5.969-2.487l0,0.001l-7.87-3.292c-22.142-9.263-38.808-16.333-49.534-21.016c-5.205-2.272-10.634-3.473-15.699-3.473  c-10.86,0-19.493,5.297-21.994,13.495c-1.315,4.313-1.894,12.989,9.016,22.634l0.847,0.749  c-38.3,23.343-71.592,41.048-78.609,44.742l-2.627,1.382l-1.446,2.591c-24.57,44.001-11.808,71.995-5.18,81.988l2.235,3.37  l9.438,35.059h90.888l1.763-11.936l22.913,11.936h303.815l-0.038-34.555L317.468,321.179z" fill="#F2EAE2"/><path d="M323.522,322.927l-0.482-0.102c-1.563-0.328-15.424-3.481-20.518-12.912  c-2.639-4.885-2.505-10.799,0.396-17.577c5.003-11.694,25.408-14.319,43.411-16.634c16.015-2.061,29.844-3.84,33.499-11.523  c1.146-2.406,1.19-5.104,0.138-8.244l-1.271-3.792l3.42-2.073c8.402-5.094,25.219-13.639,43.428-13.639  c13.23,0,24.824,4.579,34.459,13.608c28.983,27.16,15.435,61.648,10.593,71.572l-1.387,2.84L323.522,322.927z" fill="#F28F8F"/><circle cx="178.187" cy="232.43" fill="#F28F8F" r="15.452"/><circle cx="213.19" cy="246.882" fill="#F28F8F" r="15.452"/><circle cx="247.91" cy="261.946" fill="#F28F8F" r="15.452"/><circle cx="281.63" cy="275.649" fill="#F28F8F" r="15.452"/><path d="M466.157,243.471c-11.358-10.644-25.021-16.041-40.613-16.041c-22.607,0-42.839,11.488-50.602,16.508  c-5.393-2.206-16.701-6.834-31.576-12.937c-0.279-0.895-0.741-1.75-1.395-2.502c-3.947-4.541-9.08-6.669-14.844-6.146  c-1.096,0.099-2.204,0.323-3.316,0.62c-4.584-1.884-9.349-3.843-14.254-5.861c-0.047-1.557-0.609-3.109-1.711-4.376  c-3.945-4.539-9.027-6.6-14.688-5.963c-1.747,0.197-3.513,0.686-5.284,1.409c-5.484-2.261-11.055-4.56-16.66-6.875  c0.551-2.152,0.074-4.53-1.493-6.334c-3.846-4.426-8.972-6.466-14.427-5.752c-2.353,0.309-4.77,1.142-7.261,2.496  c-4.131-1.711-8.243-3.417-12.316-5.108c1.05-2.4,0.711-5.291-1.121-7.4c-3.839-4.418-8.979-6.482-14.469-5.811  c-2.763,0.337-5.627,1.396-8.601,3.14c-23.008-9.606-43.144-18.105-56.04-23.734c-5.788-2.526-11.608-3.807-17.299-3.807  c-12.659,0-22.794,6.409-25.82,16.328c-2.409,7.899,0.254,16.355,7.181,23.825c-41.256,24.941-75.33,42.646-75.733,42.854  c-1.188,0.616-2.175,1.559-2.844,2.717c-29.846,51.734-9.749,83.49-4.329,90.543l8.767,32.563c0.823,3.057,3.595,5.18,6.76,5.18h86  c3.471,0,6.418-2.543,6.925-5.977l0.563-3.815l17.277,9.001c0.999,0.52,2.108,0.791,3.234,0.791h300.08c3.866,0,7-3.133,7-7V332.78  c1.218-0.575,2.271-1.486,2.995-2.674c0.306-0.5,7.519-12.464,9.962-28.946C489.516,278.813,482.584,258.864,466.157,243.471z   M466.103,319.417l-142.035-1.485c-3.887-0.816-13.724-4.059-17.146-10.396c-1.902-3.523-1.709-7.852,0.594-13.233  c3.88-9.066,23.604-11.604,39.453-13.642c17.465-2.247,32.549-4.188,37.377-14.334c1.711-3.596,1.829-7.607,0.363-11.982  c7.693-4.663,23.725-12.915,40.836-12.915c11.918,0,22.362,4.124,31.04,12.256C482.791,278.245,471.099,309.179,466.103,319.417z   M323.604,238.022c23.312,9.575,41.146,16.873,47.249,19.369c0.902,1.863,0.91,2.795,0.85,2.921c-0.007,0.016-0.813,1.579-7,3.228  c-0.66,0.176-1.346,0.344-2.056,0.504l-46.906-19.893C318.516,241.515,321.18,239.399,323.604,238.022z M288.672,223.652  c6.848,2.822,13.526,5.57,19.938,8.207c-2.293,1.963-4.547,4.125-6.729,6.414l-19.877-8.43  C284.353,227.317,286.603,225.212,288.672,223.652z M249.753,207.581c8.221,3.402,16.464,6.809,24.58,10.158  c-2.027,1.962-4.015,4.095-5.941,6.331l-24.362-10.333C246.021,211.337,247.945,209.255,249.753,207.581z M213.412,192.492  c7.305,3.044,14.836,6.174,22.474,9.343c-1.701,1.864-3.439,3.958-5.209,6.24l-22.816-9.676  C209.782,196.135,211.646,194.148,213.412,192.492z M125.758,169.407c1.17-3.835,6.165-6.412,12.429-6.412  c3.699,0,7.745,0.912,11.699,2.638c11.705,5.109,29.348,12.572,49.676,21.076c-1.668,1.816-3.369,3.811-5.107,6.004l-44.534-18.887  c-2.117-0.898-4.541-0.698-6.484,0.534c-3.893,2.47-7.767,4.896-11.604,7.272C126.982,177.344,124.698,172.881,125.758,169.407z   M46.528,315.05c-4.834-7.29-16.725-31.646,5.577-71.586c9.16-4.821,50.92-27.076,95.724-55.318l38.222,16.21  c-8.065,12.127-13.845,23.396-14.098,23.89c-1.759,3.443-0.393,7.66,3.05,9.418c1.02,0.521,2.107,0.768,3.178,0.768  c2.546,0,5.001-1.394,6.24-3.817c4.271-8.362,9.457-17.07,14.722-24.707l23.289,9.876c-8.223,12.728-14.157,24.82-14.409,25.336  c-1.697,3.473-0.257,7.664,3.215,9.361c0.99,0.484,2.037,0.713,3.069,0.713c2.59,0,5.08-1.443,6.294-3.926  c4.305-8.801,9.569-17.981,14.891-25.944l24.035,10.194c-7.057,10.002-12.371,19.603-14.262,23.14  c-1.823,3.408-0.537,7.648,2.872,9.472c1.051,0.563,2.181,0.829,3.295,0.829c2.499,0,4.917-1.342,6.178-3.698  c4.385-8.19,9.753-16.727,15.179-24.119l19.555,8.293c-7.29,9.383-12.821,18.383-14.798,21.713  c-1.975,3.323-0.879,7.617,2.443,9.591c1.121,0.666,2.353,0.983,3.568,0.983c2.389,0,4.716-1.223,6.025-3.426  c4.271-7.188,10.109-15.693,16.182-23.17l30.339,12.867c-17.742,2.566-35.46,6.785-41.458,20.803  c-5.025,11.746-2.796,20.293-0.041,25.395c0.791,1.461,1.707,2.801,2.708,4.039L46.528,315.05z M459.247,349.005H167.881  l-24.48-12.752c-2.008-1.047-4.398-1.057-6.417-0.027c-2.018,1.03-3.412,2.973-3.742,5.213l-1.118,7.566H57.532l-5.34-19.837  l407.056,7.171V349.005z" fill="#5A5954"/><circle cx="381.709" cy="286.005" fill="#F2EAE2" r="9.75"/><circle cx="399.069" cy="263.946" fill="#F2EAE2" r="9.75"/><circle cx="326.024" cy="301.677" fill="#F2EAE2" r="9.75"/><circle cx="354.709" cy="295.755" fill="#F2EAE2" r="9.75"/></svg>