<?xml version="1.0" ?><!DOCTYPE svg  PUBLIC '-//W3C//DTD SVG 1.1//EN'  'http://www.w3.org/Graphics/SVG/1.1/DTD/svg11.dtd'><svg enable-background="new 0 0 512 512" height="512px" id="Peep_x5F_toe_x5F_pump" version="1.1" viewBox="0 0 512 512" width="512px" xml:space="preserve" xmlns="http://www.w3.org/2000/svg" xmlns:xlink="http://www.w3.org/1999/xlink"><path d="M161.557,229.892c-28.169-18.454-96.495-53.552-116.765-63.869l-4.479-2.28l63.983-124.091l4.795,4.05  c10.878,9.188,20.626,18.841,28.976,28.692l6.978,8.232l25.674,48l1.092,3.519c3.96,12.76,6.169,26.02,6.563,39.409  c0.755,25.618-5.574,46.059-9.414,55.963l-2.234,5.761L161.557,229.892z" fill="#F2EAE2"/><path d="M342.877,473.378c-25.878,0-52.108-4.608-77.961-13.697l-1.877-0.659l-0.911-1.77  c-6.731-13.087-30.851-59.39-58.502-105.767c-43.158-72.386-73.431-109.089-89.976-109.089c-0.858,0-1.697,0.094-2.493,0.277  c-0.865,0.2-1.487,0.932-1.545,1.819L95.734,458.622H67.596l-0.063-4.936c-0.263-20.623-1.196-74.64-4.177-130.67  c-3.693-69.465-9.107-117.168-16.09-141.783l-3.142-11.077l10.239,5.267c29.705,15.28,82.938,43.171,105.722,58.277l0.105,0.072  c38.993,27.318,71.144,56.881,95.558,87.868l0.097,0.122l22.032,31.871c0.046,0.061,0.092,0.121,0.136,0.182  c0.003,0.005,0.173,0.207,0.173,0.207l0.086,0.072l0.098,0.094l0.159,0.109l0.181,0.063l0.278,0.188  c16.529,8.219,45.44,12.387,85.941,12.387c15.563,0,29.452-0.643,38.363-1.182l0.258-0.016l0.258,0.01  c10.188,0.437,19.604,0.657,27.983,0.657c9.92,0,18.719-0.304,26.152-0.901c0.373-0.031,0.746-0.046,1.116-0.046  c4.425,0,8.418,2.114,10.956,5.802c2.545,3.697,3.087,8.225,1.486,12.42l-23.545,61.662l-1.445,0.89  C436.164,452.599,398.106,473.378,342.877,473.378z" fill="#F28F8F"/><path d="M364.929,362.935c-38.102,0-66.7-3.898-82.705-11.271l-1.243-0.572l-21.097-30.518l4.569-2.746  c11.584-6.961,70.514-41.691,92.985-41.691c0.924,0,1.774,0.061,2.528,0.18l0.809,0.129l52.837,27.646v56.949l-4.649,0.327  C400.64,361.952,383.851,362.935,364.929,362.935z" fill="#F2EAE2"/><path d="M120.022,124.626c-11.028,0-20-8.972-20-20c0-11.027,8.972-20,20-20h145.59c11.028,0,20,8.973,20,20  c0,11.028-8.972,20-20,20H120.022z" fill="#F28F8F"/><path d="M477.428,366.153c-4.529-6.576-12.246-10.267-20.206-9.622c-7.19,0.579-15.748,0.873-25.431,0.873  c-2.995,0-6.062-0.029-9.179-0.083v-54.442c0-2.604-1.446-4.995-3.755-6.202l-54.004-28.256c-0.446-0.234-0.917-0.419-1.402-0.552  c-1.787-0.487-3.81-0.733-6.013-0.733c-24.528,0-80.468,32.59-98.827,43.702c-24.963-30.446-54.531-56.153-82.574-76.769  c4.242-9.961,12.076-32.524,11.352-62.02c-0.319-13.008-2.273-25.854-5.832-38.424h84.056c15.99,0,29-13.009,29-29  c0-15.99-13.01-29-29-29H152.084c-11.844-15.659-26.595-30.543-44.118-44.481c-1.64-1.305-3.777-1.806-5.826-1.366  s-3.793,1.773-4.753,3.636l-66,128c-0.042,0.082-0.074,0.166-0.113,0.249c-0.029,0.063-0.059,0.127-0.086,0.191  c-0.135,0.311-0.248,0.628-0.335,0.952c-0.015,0.06-0.026,0.12-0.042,0.181c-0.076,0.317-0.134,0.64-0.164,0.964  c-0.004,0.026-0.01,0.053-0.012,0.079c-0.029,0.34-0.025,0.681-0.005,1.021c0.004,0.066,0.007,0.133,0.014,0.199  c0.029,0.33,0.081,0.659,0.158,0.984c0.015,0.062,0.033,0.121,0.05,0.183c0.032,0.122,0.061,0.245,0.1,0.366  c0.062,0.193,0.137,0.381,0.215,0.566c0.01,0.022,0.016,0.046,0.025,0.069c0.14,0.319,0.309,0.622,0.492,0.915  c0.035,0.057,0.068,0.113,0.105,0.169c0.191,0.287,0.404,0.558,0.636,0.813c0.02,0.022,0.034,0.048,0.054,0.069  c4.366,4.702,15.239,29.127,21.889,154.064c3.699,69.537,4.236,136.556,4.241,137.225c0.029,3.846,3.154,6.947,7,6.947h32  c3.69,0,6.747-2.864,6.985-6.547l13.495-208.217c4.949,2.648,14.014,9.938,29.188,29.582c13.676,17.705,30.022,42.468,48.586,73.6  c31.745,53.238,59.23,107.215,59.506,107.754c0.803,1.582,2.179,2.801,3.847,3.407c27.694,10.07,55.842,15.177,83.661,15.177  c66.608,0,108.945-28.775,110.716-30c1.16-0.803,2.052-1.939,2.556-3.258l23.762-62.229  C482.544,379.989,481.617,372.236,477.428,366.153z M342.877,468.378c-25.324,0-50.98-4.512-76.303-13.414  c-5.794-11.261-30.561-58.922-58.653-106.039c-59.603-99.967-82.348-111.528-94.271-111.528c-1.236,0-2.453,0.137-3.617,0.405  c-3.011,0.695-5.21,3.283-5.41,6.368L91.048,453.622H72.532c-0.242-18.982-1.163-74.082-4.184-130.871  c-4.364-82.053-10.44-122.319-16.272-142.882c28.161,14.486,82.438,42.875,105.245,57.998c31.733,22.232,66.56,51.406,94.499,86.868  l22.03,31.867c0.028,0.042,0.063,0.078,0.093,0.119c0.098,0.134,0.201,0.262,0.307,0.389c0.073,0.087,0.145,0.176,0.222,0.259  c0.117,0.126,0.241,0.245,0.367,0.362c0.077,0.072,0.151,0.146,0.231,0.215c0.147,0.126,0.303,0.24,0.46,0.354  c0.067,0.049,0.132,0.103,0.201,0.148c0.231,0.154,0.472,0.295,0.72,0.421c0.002,0.001,0.004,0.003,0.006,0.004  c17.187,8.667,46.953,13.062,88.472,13.062c15.466,0,29.272-0.623,38.665-1.191c9.751,0.417,19.268,0.661,28.197,0.661  c10.057,0,18.99-0.31,26.554-0.918c3.056-0.248,5.825,1.099,7.554,3.607c1.598,2.322,1.938,5.167,0.932,7.804l-22.938,60.074  C435.522,447.122,397.654,468.378,342.877,468.378z M134.252,75.626h-14.229c-15.99,0-29,13.01-29,29c0,15.991,13.01,29,29,29  h47.013c3.834,12.353,5.957,25.052,6.34,38.075c0.723,24.507-5.206,44.021-9.078,54.008C136,207.171,68.239,172.347,47.06,161.566  l58.805-114.046C116.598,56.587,126.061,65.961,134.252,75.626z M280.612,104.626c0,8.271-6.729,15-15,15h-145.59  c-8.271,0-15-6.729-15-15c0-8.271,6.729-15,15-15h145.59C273.884,89.626,280.612,96.355,280.612,104.626z M357.438,281.136  c0.756,0,1.326,0.052,1.744,0.118l49.43,25.862v49.262c-8.62,0.607-25.082,1.557-43.684,1.557c-37.455,0-65.249-3.734-80.613-10.813  l-17.288-25.009C290.688,307.895,339.018,281.136,357.438,281.136z" fill="#5A5954"/><circle cx="126.445" cy="104.126" fill="#F2EAE2" r="9.5"/></svg>