<?xml version="1.0" ?><!DOCTYPE svg  PUBLIC '-//W3C//DTD SVG 1.1//EN'  'http://www.w3.org/Graphics/SVG/1.1/DTD/svg11.dtd'><svg enable-background="new 0 0 512 512" height="512px" id="Slipper" version="1.1" viewBox="0 0 512 512" width="512px" xml:space="preserve" xmlns="http://www.w3.org/2000/svg" xmlns:xlink="http://www.w3.org/1999/xlink"><path d="M40.301,301.34l-1.501-1.992c-2.48-3.294-5.433-8.031-6.276-11.443l-1.303-5.272l5.363-0.862  c0.842-0.136,1.806-0.205,2.867-0.205c99.205,0,170.385-12.059,211.563-35.841c33.625-19.421,37.88-40.815,39.925-51.098  l0.248-1.235c1.626-7.857,2.271-13.813,2.743-18.161c0.039-0.361,0.079-0.729,0.12-1.098l8.687-5.655  c6.094,3.063,33.334,18.266,55.53,30.653c38.389,21.425,50.669,28.212,52.711,28.934c21.215,7.501,37.302,16.801,47.814,27.64  c11.723,12.087,16.279,26.053,13.543,41.508l-0.73,4.129H40.301z" fill="#F28F8F"/><path d="M81.626,346.591c-15.354,0-29.296-2.539-36.24-4.052l-3.935-0.858V305.34h431.359  c2.604,0,4.525,1.072,5.709,3.188c1.736,3.101,1.625,7.911-0.273,11.698l-0.561,1.12l-1.021,0.724  c-2.951,2.086-11.125,5.236-14.195,5.882c-3.063,0.643-5.997,1.427-9.103,2.257c-16.833,4.497-42.27,11.292-145.902,11.292  c-3.92,0-23.28,0.016-23.28,0.016c-44.003,0-85.312-0.556-107.146-7.257c-21.669-6.652-33.875-8.049-40.298-8.049  c-7.688,0-12.722,1.849-14.962,5.495c-0.788,1.283-1.201,2.764-1.225,4.4l-0.051,3.35l-3.118,1.228  C107.424,344.604,95.393,346.591,81.626,346.591z" fill="#F2EAE2"/><path d="M364.782,230.409c-17.921,0-32.5-14.579-32.5-32.5c0-17.92,14.579-32.5,32.5-32.5s32.5,14.58,32.5,32.5  C397.282,215.83,382.703,230.409,364.782,230.409z" fill="#F2EAE2"/><path d="M486.373,304.131c-1.289-2.304-3.055-4.144-5.156-5.46c3.25-18.401-2.1-34.938-15.965-49.234  c-11.486-11.844-28.737-21.89-51.272-29.858c-3.551-1.255-7.368-2.834-11.363-4.648c2.348-5.197,3.666-10.956,3.666-17.021  c0-22.883-18.617-41.5-41.5-41.5c-13.963,0-26.329,6.939-33.854,17.543c-13.212-8.11-21.41-12.895-26.24-14.451  c-3.673-1.184-6.028-1.666-8.129-1.666c-9.793,0-10.781,9.106-11.575,16.423c-0.453,4.175-1.074,9.891-2.603,17.279  c-0.086,0.415-0.175,0.859-0.269,1.332c-10.517,52.882-92.16,79.695-242.661,79.695c-9.538,0-13.456,4.207-15.063,7.736  c-3.91,8.588,3.292,19.626,8.063,25.574v37.295c0,3.14,2.09,5.895,5.112,6.741c0.829,0.231,20.556,5.68,44.063,5.68  c17.675,0,32.801-3.082,44.956-9.159c1.723-0.861,3.101-2.236,3.657-4.08c0.548-1.818,0.418-3.625-0.505-5.276  c-0.08-0.207-0.146-0.479-0.173-0.688c0.553-0.332,2.43-1.177,7.178-1.177c8.444,0,21.114,2.575,37.658,7.652  c23.056,7.077,63.362,7.653,109.79,7.653c3.829,0,7.683-0.004,11.553-0.008c3.896-0.004,7.807-0.008,11.724-0.008  c104.817,0,130.939-6.979,148.225-11.598c3.116-0.832,5.809-1.551,8.63-2.144c0.166-0.034,17.154-4.497,21.102-10.929  C489.451,319.254,489.844,310.33,486.373,304.131z M452.074,325.377c-16.578,4.43-41.631,11.123-144.61,11.123  c-3.922,0-7.838,0.004-11.737,0.008c-3.865,0.004-7.715,0.008-11.539,0.008c-43.612,0-84.51-0.539-105.682-7.037  c-17.875-5.486-31.928-8.269-41.766-8.269c-9.545,0-16.012,2.651-19.223,7.879c-1.374,2.237-1.93,4.649-1.964,6.94  c-9.38,3.693-20.763,5.562-33.927,5.562c-14.771,0-28.172-2.411-35.175-3.938V310.34h426.359c0.994,0,1.143,0.264,1.348,0.631  c0.826,1.477,0.799,4.657-0.383,7.016c-2.238,1.584-9.77,4.533-12.334,5.071C458.249,323.728,455.25,324.529,452.074,325.377z   M39.452,286.564c100.095,0,172.116-12.283,214.063-36.511c35.588-20.554,40.312-44.31,42.33-54.453l0.246-1.227  c1.665-8.046,2.328-14.149,2.812-18.605c0.119-1.1,0.246-2.265,0.376-3.29c0.333,0.1,0.704,0.215,1.117,0.348  c3.673,1.184,13.357,6.992,24.454,13.819c-1.013,3.585-1.566,7.359-1.566,11.264c0,22.884,18.617,41.5,41.5,41.5  c11.718,0,22.31-4.89,29.863-12.727c5.123,2.389,10.052,4.463,14.666,6.095c20.481,7.242,35.922,16.127,45.892,26.406  c10.66,10.992,14.682,23.19,12.211,37.156H42.794c-2.674-3.55-4.878-7.457-5.416-9.635  C37.852,286.629,38.526,286.564,39.452,286.564z M364.782,170.409c15.163,0,27.5,12.337,27.5,27.5c0,15.164-12.337,27.5-27.5,27.5  s-27.5-12.336-27.5-27.5C337.282,182.746,349.619,170.409,364.782,170.409z" fill="#5A5954"/></svg>