<?xml version="1.0" ?><!DOCTYPE svg  PUBLIC '-//W3C//DTD SVG 1.1//EN'  'http://www.w3.org/Graphics/SVG/1.1/DTD/svg11.dtd'><svg enable-background="new 0 0 512 512" height="512px" id="Slip_x5F_on" version="1.1" viewBox="0 0 512 512" width="512px" xml:space="preserve" xmlns="http://www.w3.org/2000/svg" xmlns:xlink="http://www.w3.org/1999/xlink"><path d="M175.414,288.309c-17.479-0.41-35.554-0.99-53.727-1.721l-4.139-0.167l-0.606-4.097  c-3.761-25.404-18.596-45.345-42.899-57.666c-4.727-2.396-9.822-4.509-15.146-6.282l-3.138-1.045l-2.22-27.467l7.824,3.71  c20.454,9.7,64.995,26.263,133.49,28.215l2.347,0.067l19.71,25.171l-39.282,41.333L175.414,288.309z" fill="#F2EAE2"/><path d="M259.27,336.848c-64.205,0-137.349-2.84-217.402-8.438l-4.651-0.325V286.1l5.33,0.353  c24.958,1.653,91.211,5.591,167.189,6.463c15.442,0.354,30.944,0.532,46.134,0.532c68.095,0,160.108-3.523,211.802-20.309  l6.544-2.125v45.789l-3.247,1.215C446.651,327.121,378.268,336.848,259.27,336.848z" fill="#F2EAE2"/><path d="M37.216,281.232v-64.042l5.975,1.187c17.838,3.544,60.282,16.55,69.127,60.675l1.268,6.324L37.216,281.232z" fill="#F28F8F"/><path d="M255.87,289.447c-25.729,0-47.573-0.514-61.366-0.945l-11.159-0.349L221,248.532  c0.678-0.713,0.731-1.836,0.125-2.611l-20.301-25.926l41.005-43.513l3.544,4.895c5.655,7.811,15.211,19.619,28.618,31.516  c28.565,25.348,61.205,38.746,94.39,38.745c8.411,0,17.009-0.848,25.553-2.521c16.867-3.303,31.44-4.978,43.315-4.978  c21.951,0,30.899,5.726,34.539,10.529c1.729,2.279,2.749,5.011,2.951,7.9l0.264,3.76l-3.542,1.289  C421.858,285.66,326.843,289.447,255.87,289.447z" fill="#F28F8F"/><path d="M479.228,249.591c-6.995-9.589-21.121-14.452-41.979-14.452c-12.453,0-27.608,1.731-45.044,5.145  c-7.975,1.562-15.99,2.354-23.824,2.354c-31.263,0.001-60.904-12.178-88.1-36.198c-20.612-18.205-31.964-36.727-32.073-36.906  c-1.132-1.873-3.074-3.109-5.25-3.34c-2.184-0.238-4.335,0.567-5.836,2.16l-41.88,44.442  c-91.142-2.631-139.794-32.46-140.287-32.769c-2.243-1.417-5.093-1.444-7.361-0.071c-2.27,1.373-3.568,3.91-3.354,6.553  l1.881,23.259c-6.033-1.247-9.977-1.588-10.335-1.617c-1.96-0.157-3.876,0.505-5.313,1.831s-2.255,3.191-2.255,5.146v68  c0,0.142,0.013,0.281,0.021,0.421c-0.008,0.132-0.021,0.263-0.021,0.396v46c0,3.673,2.838,6.721,6.501,6.982  c82.824,5.92,158.374,8.922,224.552,8.922c130.491,0,200.109-11.659,220.077-21.643c2.371-1.186,3.869-3.609,3.869-6.262v-49.121  C483.931,265.66,484.974,257.467,479.228,249.591z M259.27,331.848c-64.114,0-137.104-2.834-217.053-8.426v-31.98  c22.099,1.463,90.136,5.586,167.462,6.473c12.685,0.291,28.529,0.533,46.191,0.533c0.005,0,0.006,0,0.011,0  c69.793,0,161.353-3.674,213.335-20.553v35.44C449.022,320.894,386.58,331.848,259.27,331.848z M59.221,198.092  c20.069,9.517,65.578,26.703,135.49,28.696l15.602,19.924l-34.782,36.599c-19.103-0.449-37.195-1.057-53.643-1.719  c-4.013-27.105-19.681-48.261-45.585-61.393c-5.459-2.767-10.846-4.908-15.826-6.566L59.221,198.092z M241.323,184.309  c5.501,7.597,15.38,19.928,29.349,32.324c29.494,26.172,63.281,40.006,97.708,40.004c8.734,0,17.655-0.878,26.514-2.613  c16.553-3.242,30.803-4.885,42.354-4.885c20.946,0,28.135,5.356,30.555,8.548c1.373,1.812,1.842,3.712,1.948,5.23  c-48.789,17.748-142.718,21.529-213.881,21.529c-25.686,0-47.498-0.514-61.21-0.942l29.964-31.529  c2.391-2.516,2.577-6.405,0.438-9.138l-17.651-22.542L241.323,184.309z M107.416,280.035l-65.199-3.539v-53.214  C59.136,226.643,99.166,238.876,107.416,280.035z" fill="#5A5954"/></svg>