<?xml version="1.0" ?><!DOCTYPE svg  PUBLIC '-//W3C//DTD SVG 1.1//EN'  'http://www.w3.org/Graphics/SVG/1.1/DTD/svg11.dtd'><svg enable-background="new 0 0 512 512" height="512px" id="Student_x5F_shoe" version="1.1" viewBox="0 0 512 512" width="512px" xml:space="preserve" xmlns="http://www.w3.org/2000/svg" xmlns:xlink="http://www.w3.org/1999/xlink"><path d="M225.324,348.664l-13.512-25.506l-49.688-0.011v25.517H47.764v-24.354l-2.788-2.27  c-25.491-20.75-15.277-60.518-9.703-76.652l1.253-3.627l300.28,21.365l14.32-52.928l5.063,1.753  c7.771,2.69,16.108,5.081,24.934,7.612c23.826,6.833,48.463,13.897,67.607,27.893c22.059,16.129,33.411,39.192,34.703,70.504  l0.215,5.203h-0.094v25.5H225.324z" fill="#F2EAE2"/><path d="M220.373,260.068l-82.03-6.542c-9.157-0.396-16.901,6.706-17.298,15.863s6.705,16.901,15.862,17.298  c1.193,0.053,2.36-0.029,3.492-0.221c-2.292,2.71-3.75,6.162-3.915,9.981c-0.396,9.157,6.705,16.901,15.862,17.299  c7.353,0.318,13.786-4.202,16.244-10.735c2.886,3.711,7.314,6.185,12.379,6.404c9.157,0.396,16.901-6.705,17.298-15.861  c0.054-1.233-0.039-2.438-0.244-3.604c6.285,5.445,21.366,4.309,25.885-2.909C231.675,274.635,225.725,262.068,220.373,260.068z" fill="#F28F8F"/><path d="M167.248,288.279c-2.573,0-5.028-0.635-7.296-1.886c-7.308-4.032-9.989-13.229-5.976-20.505l0.076-0.135  c0.051-0.084,9.239-15.534,32.186-42.757c35.468-42.074,51.014-50.25,69.105-57.208c4.292-1.65,8.164-2.453,11.835-2.453  c0.438,0,0.871,0.011,1.296,0.034c5.866,0.313,11.106,2.83,14.754,7.086c8.581,10.012,4.585,25.212,3.272,30.207  c-1.963,7.464-5.417,16.682-10.266,27.397c-4.906,10.842-9.293,18.537-12.108,23.083l-1.605,2.593l-29.918-2.376l5.918-7.368  c4.945-6.156,8.886-11.956,11.716-17.24c4.308-8.041,6.91-14.013,7.734-17.75l2.277-10.321l-9.423,4.785  c-4.193,2.129-14.927,9.743-39.703,36.813c-17.862,19.518-30.097,39.352-30.608,40.186l-0.084,0.143  C177.737,285.34,172.686,288.279,167.248,288.279z" fill="#F2EAE2"/><path d="M492.554,325.18c0.23-36.899-11.693-64.129-36.455-83.247c-21.084-16.277-48.385-24.106-72.473-31.014  c-11.309-3.243-21.989-6.306-31.26-9.968c-1.854-0.731-3.932-0.64-5.712,0.254s-3.097,2.504-3.616,4.428l-12.985,47.989  l-54.655-3.888c2.541-4.524,5.665-10.513,9.037-17.964c5.057-11.175,8.681-20.871,10.771-28.819  c1.61-6.123,6.509-24.757-5.143-38.352c-5.265-6.143-12.763-9.771-21.117-10.216c-5.328-0.277-10.83,0.698-16.833,3.006  c-18.729,7.204-35.979,16.182-72.756,59.808c-8.035,9.531-14.443,17.695-19.407,24.324l-124.172-8.834  c-2.973-0.214-5.755,1.484-6.93,4.223c-1.104,2.573-25.951,61.864,9.916,91.669v22.086c0,3.866,3.134,7,7,7h118.36  c3.866,0,7-3.134,7-7v-18.516c11.123,0.001,22.891,0.004,35.271,0.008l11.541,21.785c1.213,2.29,3.593,3.723,6.186,3.723h261.433  c3.867,0,7-3.134,7-7v-25.482C492.554,325.181,492.554,325.18,492.554,325.18z M478.554,332.182v11.482h-250.22l-6.083-11.482  h122.175c1.161,0,2.321,0,3.479,0H478.554z M268.205,168.363c4.49,0.239,8.478,2.138,11.228,5.346  c6.162,7.191,4.226,18.101,2.232,25.682c-1.891,7.192-5.25,16.144-9.985,26.607c-4.938,10.913-9.331,18.521-11.804,22.511  l-17.457-1.387c4.084-5.084,8.721-11.464,12.227-18.01c9.439-17.623,9.833-23.292,7.261-27.588  c-1.542-2.575-4.309-4.111-7.402-4.111c-3.271,0-10.929,0-47.071,39.49c-18.789,20.531-31.208,40.974-31.295,41.134  c-1.785,3.233-5.191,5.242-8.891,5.242c-1.718,0-3.361-0.425-4.881-1.264c-4.894-2.7-6.679-8.879-4.013-13.712  c0.083-0.143,9.254-15.447,31.708-42.084c34.699-41.162,49.688-49.077,67.077-55.764c3.709-1.426,6.994-2.12,10.041-2.12  C267.524,168.336,267.868,168.345,268.205,168.363z M218.384,245.678c10.906-11.884,19.144-20.013,25.078-25.367  c-0.362,0.696-0.748,1.426-1.158,2.191c-5.238,9.78-13.76,19.566-17.483,23.634L218.384,245.678z M146.129,261.48  c-6.428,11.652-2.179,26.363,9.475,32.793c3.565,1.967,7.592,3.006,11.644,3.006c8.743,0,16.801-4.723,21.077-12.35  c0.558-0.913,7.542-12.215,18.675-26.025l127.807,9.094c3.348,0.237,6.38-1.923,7.254-5.154l12.491-46.167  c7.901,2.735,16.371,5.164,25.214,7.7c47.191,13.533,95.936,27.505,98.67,93.789c-18.369,0.004-69.977,0.015-127.225,0.016h-13.65  c-35.086,0-71.438-0.005-102.939-0.017c-39.055-0.015-73.05-0.02-101.031-0.02c-47.082,0-77.117,0.014-85.459,0.019  c-23.427-19.07-12.729-57.842-8.134-71.142l110.4,7.854C147.508,259.148,146.159,261.427,146.129,261.48z M157.124,343.664H52.764  v-11.498l104.36,0.015V343.664z" fill="#5A5954"/></svg>