<?xml version="1.0" ?><!DOCTYPE svg  PUBLIC '-//W3C//DTD SVG 1.1//EN'  'http://www.w3.org/Graphics/SVG/1.1/DTD/svg11.dtd'><svg enable-background="new 0 0 512 512" height="512px" id="Wedge" version="1.1" viewBox="0 0 512 512" width="512px" xml:space="preserve" xmlns="http://www.w3.org/2000/svg" xmlns:xlink="http://www.w3.org/1999/xlink"><path d="M294.607,345.844l-0.433-0.109c-48.345-12.365-83.847-35.713-105.52-69.394  c-23.967-37.244-49.167-64.233-74.9-80.216c-20.608-12.801-37.29-15.812-47.654-16.084l-2.717-0.071l-1.418-2.318  c-5.045-8.249-15.016-32.02,1.313-74.5l1.477-3.843l4.055,0.711c9.989,1.753,36.569,8.577,67.553,34.023  c16.755,13.76,34.52,35.005,53.328,57.499c18.156,21.713,36.919,44.154,57.567,63.58c16.726,15.734,37.54,35.318,72.859,45.189  l6.682,1.867l-3.886,5.748c-1.895,2.803-3.666,5.859-5.265,9.084c-4.814,9.711-7.275,19.213-8.492,25.473l-0.846,4.354  L294.607,345.844z" fill="#F2EAE2"/><path d="M305.341,412.68c-46.479,0-82.479-3.758-107-11.172l-0.717-0.217l-0.622-0.418  c-0.335-0.226-33.613-22.617-39.247-30.873c-0.373-0.547-0.992-0.873-1.656-0.873c-0.052,0-0.105,0.002-0.158,0.006  c-0.71,0.057-1.343,0.494-1.648,1.142l-14.205,30.152H99.096L56.733,184.258l5.856-0.208c0.593-0.021,1.22-0.033,1.882-0.033  c18.045,0,65.939,9.207,120.818,94.489c41.262,64.121,123.648,79.547,185.495,81.197l0.319,0.008l0.725,0.113  c0.104,0.016,0.209,0.023,0.313,0.023c0.053,0,0.137-0.003,0.318-0.029l0.42-0.063l0.425,0.009c3.175,0.067,6.403,0.101,9.596,0.101  c4.349,0,8.803-0.063,13.237-0.185l0.617-0.018l0.604,0.133c0.157,0.036,0.302,0.053,0.43,0.053c0.104,0,0.209-0.008,0.314-0.024  l1.654-0.259l0.298-0.01c21.64-0.773,39.194-2.819,50.108-4.4l6.967-1.008l-9.638,49.627l-3.637,0.42  C426.632,406.184,365.737,412.678,305.341,412.68z" fill="#F28F8F"/><path d="M399.757,350.36c-1.043-7.605-4.738-17.065-10.982-28.116l-1.467-2.594l1.584-2.523  c5.606-8.935,12.516-18.502,19.453-26.942l1.965-2.39l3.014,0.691c15.122,3.463,26.964,13.539,35.197,29.946  c4.318,8.606,6.689,17.184,7.918,22.864l1.12,5.178l-57.108,8.934L399.757,350.36z" fill="#F2EAE2"/><path d="M312.372,346.475l1.119-5.178c1.229-5.682,3.601-14.26,7.918-22.863  c9.71-19.352,24.266-29.834,43.264-31.154l0.172-0.012h40.506l-6.143,8.035c-9.777,12.795-26.553,36.96-29.035,55.058l-0.692,5.048  L312.372,346.475z" fill="#F2EAE2"/><path d="M466.624,347.438c-0.07-0.662-1.797-16.377-9.863-32.648c-9.771-19.709-24.621-31.844-43.248-35.485  c-1.078-0.659-2.332-1.036-3.648-1.036h-4.719h-40.361h-4.719c-1.316,0-2.57,0.377-3.648,1.036  c-10.444,2.042-19.699,6.759-27.538,13.979c-36.993-8.558-57.858-28.164-75.454-44.717c-20.257-19.058-38.847-41.291-56.824-62.791  c-19.088-22.829-37.117-44.391-54.526-58.688c-42.284-34.725-76.836-36.693-78.287-36.76c-2.923-0.126-5.643,1.578-6.778,4.288  c-17.458,41.679-11.806,68.42-5.575,82.171c-2.83,1.359-4.459,4.48-3.838,7.649l42.984,219.338c0.644,3.284,3.522,5.653,6.869,5.653  h43.907c2.71,0,5.177-1.565,6.333-4.017l10.463-22.211c11.436,10.044,30.146,22.688,34.713,25.734  c0.56,0.373,1.169,0.664,1.812,0.864c25.408,7.885,62.642,11.882,110.665,11.882c71.778-0.002,143.999-9.072,144.721-9.164  c2.998-0.381,5.413-2.643,5.989-5.609l10.484-53.982c0.197-1.021,0.151-2.053-0.095-3.033  C466.64,349.109,466.713,348.283,466.624,347.438z M199.789,396.721c-13.885-9.32-34.313-24.277-37.904-29.539  c-1.416-2.074-3.837-3.23-6.336-3.033c-2.503,0.199-4.708,1.723-5.778,3.995l-12.853,27.283h-33.706l-40.444-206.38  c0.537-0.019,1.105-0.03,1.705-0.03c17.225,0,63.067,8.983,116.614,92.194c41.85,65.035,123.798,81.735,189.565,83.49l0.408,0.063  c0.361,0.057,0.723,0.084,1.082,0.084c0.014,0,0.027,0,0.041,0c0.346,0,0.684-0.035,1.018-0.085c3.277,0.069,6.514,0.102,9.7,0.102  c4.591,0,9.056-0.067,13.376-0.187c0.494,0.109,1,0.17,1.512,0.17c0.359,0,0.721-0.027,1.082-0.084l1.363-0.212  c22.186-0.794,40.15-2.929,50.646-4.448l-7.598,39.123c-17.477,2.02-77.866,8.451-137.941,8.453  C259.345,407.68,223.841,403.994,199.789,396.721z M133.19,137.906c16.395,13.464,34.016,34.538,52.671,56.849  c18.242,21.816,37.104,44.376,57.972,64.007c16.983,15.979,38.473,36.172,74.94,46.363c-2.02,2.986-3.89,6.208-5.604,9.664  c-5.158,10.408-7.723,20.581-8.92,26.74l-8.836-0.64c-40.495-10.357-78.837-30.398-102.554-67.255  c-24.372-37.872-50.099-65.38-76.466-81.758c-21.308-13.235-38.776-16.536-50.162-16.834c-4.755-7.775-13.78-29.788,1.714-70.098  C78.12,106.73,103.367,113.414,133.19,137.906z M365.019,292.268h9.676h20.541c-10.912,14.277-27.424,38.516-30.016,57.412  l-46.841-7.326c1.176-5.436,3.425-13.558,7.499-21.678C334.74,303.014,347.908,293.457,365.019,292.268z M386.928,338.479  c1.429,3.284,2.542,6.401,3.259,9.264l-10.25-0.741c0.973-3.6,2.541-7.578,4.547-11.766L386.928,338.479z M451.552,342.354  l-46.841,7.326c-1.273-9.281-5.907-19.85-11.584-29.896c5.981-9.53,12.95-18.968,19.081-26.424  c13.591,3.112,24.287,12.257,31.844,27.315C448.126,328.797,450.376,336.92,451.552,342.354z" fill="#5A5954"/></svg>