<?xml version="1.0" ?><!DOCTYPE svg  PUBLIC '-//W3C//DTD SVG 1.1//EN'  'http://www.w3.org/Graphics/SVG/1.1/DTD/svg11.dtd'><svg enable-background="new 0 0 512 512" height="512px" id="Wedge_x5F_sneaker" version="1.1" viewBox="0 0 512 512" width="512px" xml:space="preserve" xmlns="http://www.w3.org/2000/svg" xmlns:xlink="http://www.w3.org/1999/xlink"><path d="M166.823,150.073c0,0,37.112-37.648,58.112-25.648s3.795,53.094,30.669,65.752l-12.163,10.674  C243.441,200.851,215.691,192.625,166.823,150.073z" fill="#F2EAE2"/><path d="M47.479,318.915c0,0-12.814-7.817-12.814-18.316s0-53.997,0-53.997s10.409,9,43.453-29.999  c33.043-38.998,57.042-83.996,79.541-71.997c22.498,12,30.997,26.16,60.277,43.482c29.281,17.321,169.193,74.414,187.193,69.914  c17.998-4.5,70.789,20.098,71.393,51.597c0.604,31.498-8.826,29.722-8.826,29.722S202.191,331.033,47.479,318.915z" fill="#F28F8F"/><path d="M234.436,203.768c8-7.531,17.5-13.182,30.612-2.22c3.795,3.172,7.71,10.551,1.264,18.412  c-23.32,28.438-25.966,29.605-32.571,38.195c-8.664,11.266-20.59,24.426-11.59,31.926c9.888,8.24,22.563-7.391,29.807-15.693  c18.266-20.939,14.466-19.59,30.979-39.619c8.899-10.793,19.001-23.999,34-13.499c15,10.5-5.639,29.899-9.709,34.308  c-5.502,5.957-16.075,21.186-16.075,21.186s-8.876,9.402,1.782,18.317c8,6.691,17.061-0.454,22.217-6.317  c17.314-19.686,14.953-17.25,28.5-35c3.973-5.206,13.17-16.465,25.499-6c11.786,10.006-4.643,26.054-9.214,31.506  c-12.888,15.373-16.287,45.148-16.287,55.647l-200.99-7C140.433,293.426,198.92,237.201,234.436,203.768z" fill="#F2EAE2"/><path d="M451.521,389.936H311.15H52.479c-16.5,0-22-13.5-22-30v-12.021c0-16.5,5.5-30,22-30  c0,0,53.182,14.31,258.729,14.31c58.335,0,140.313,4.69,140.313,4.69c16.5,0,30,5.5,30,22v1.021  C481.521,376.436,468.021,389.936,451.521,389.936z" fill="#F2EAE2"/><path d="M479.717,338.254c2.347-6.346,4.058-15.523,3.804-28.789c-0.642-33.49-49.341-58.996-73.467-58.996  c-2.426,0-4.654,0.25-6.592,0.735c-0.011,0.002-0.259,0.05-0.876,0.05c-4.757,0-14.064-2.225-26.087-5.904  c-0.818-1.037-1.753-2.019-2.819-2.924c-4.665-3.959-9.592-5.967-14.645-5.967c-2.221,0-4.279,0.4-6.188,1.048  c-7.521-2.644-15.48-5.556-23.626-8.631c-0.395-3.75-2.158-9.063-8.271-13.342c-4.841-3.389-9.793-5.107-14.717-5.107  c-4.946,0-9.292,1.684-13.171,4.24c-5.659-2.308-11.229-4.619-16.634-6.901c-0.869-4.584-3.41-8.68-6.892-11.589  c-2.337-1.954-4.692-3.54-7.057-4.758c0.131-0.724,0.161-1.471,0.056-2.219c-0.329-2.336-1.814-4.35-3.949-5.355  c-10.085-4.75-11.977-14.592-13.893-30.237c-1.603-13.081-3.419-27.908-16.286-35.26c-3.813-2.179-8.155-3.283-12.908-3.283  c-18.949,0-40.527,17.835-49.581,26.174c-1.589-0.947-3.234-1.884-4.967-2.809c-3.482-1.857-7.161-2.799-10.937-2.799  c-18.202,0-34.302,21.136-54.684,47.895c-7.164,9.405-14.572,19.13-22.556,28.552c-23.252,27.442-33.117,28.442-34.685,28.42  c-1.926-1.083-4.283-1.204-6.341-0.262c-2.49,1.14-4.087,3.626-4.087,6.365v53.997c0,6.675,3.289,12.268,6.914,16.408  c-6.101,5.099-11.1,14.33-11.1,30.908v12.021c0,33.395,20.28,37,29,37h399.043c20.402,0,37-16.598,37-37v-1.021  C488.521,353.848,487.291,344.88,479.717,338.254z M406.826,264.793c0.591-0.148,1.63-0.324,3.228-0.324  c18.798,0,59.012,21.416,59.469,45.264c0.204,10.66-0.954,17.611-2.341,22.075c-4.263-1.179-9.356-1.878-15.458-1.893  c-3.527-0.199-52.403-2.926-100.526-4.128c1.363-12.934,5.439-31.688,14.103-42.021c0.417-0.498,0.942-1.091,1.537-1.764  c4.077-4.616,11.031-12.492,12.97-21.195c10.026,2.801,17.99,4.447,22.779,4.447C404.199,265.254,405.587,265.103,406.826,264.793z   M326.114,242.646c4.556,1.711,9.055,3.368,13.467,4.96c-0.59,0.728-1.097,1.386-1.495,1.908c-2.4,3.146-4.303,5.657-5.903,7.772  c-7.427,9.811-8.203,10.836-22.288,26.852c-3.603,4.096-7.409,6.64-9.936,6.64c-0.585,0-1.401-0.121-2.534-1.068  c-1.714-1.435-2.633-2.811-2.729-4.091c-0.127-1.683,1.091-3.51,1.58-4.086c0.276-0.277,0.394-0.443,0.626-0.779  c0.103-0.147,10.36-14.898,15.468-20.43c0.278-0.301,0.642-0.678,1.067-1.122C316.619,255.888,322.47,249.794,326.114,242.646z   M315.304,230.37c0.393,4.018-3.633,10.457-11.966,19.137c-0.502,0.522-0.928,0.966-1.254,1.32  c-5.372,5.816-14.831,19.288-16.456,21.618c-1.404,1.656-5.323,6.943-4.912,13.94c0.215,3.646,1.729,9.046,7.727,14.063  c3.387,2.832,7.369,4.329,11.517,4.329c8.618,0,15.876-6.196,20.447-11.394c14.426-16.401,15.395-17.682,22.938-27.647  c1.593-2.103,3.483-4.603,5.87-7.729c1.576-2.064,5.762-7.549,9.82-7.549c1.642,0,3.521,0.888,5.584,2.639  c1.396,1.186,1.641,2.128,1.695,2.894c0.362,5.046-6.878,13.241-9.97,16.741c-0.687,0.777-1.291,1.463-1.773,2.038  c-11.568,13.8-16.025,36.434-17.401,50.712c-8.941-0.162-17.699-0.258-25.962-0.258c-20.046,0-38.619-0.141-55.856-0.389  l-105.358-3.67c5.369-33.346,63.504-88.074,89.24-112.302c4.731-4.454,8.319-6.44,11.636-6.44c2.862,0,6.122,1.512,9.689,4.494  c1.319,1.103,3.993,4.147,0.34,8.602c-13.584,16.566-20.133,23.844-24.466,28.66c-3.104,3.451-5.348,5.944-8.241,9.706  c-0.829,1.078-1.688,2.174-2.557,3.279c-4.376,5.58-8.902,11.35-11.493,17.129c-5.175,11.544-0.011,18.215,3.527,21.163  c3.103,2.586,6.777,3.952,10.628,3.952c11.229,0,20.836-11.082,27.851-19.174l1.085-1.248  c10.248-11.749,13.804-16.775,17.568-22.098c3.068-4.337,6.241-8.822,13.536-17.67l0.836-1.016  c5.31-6.458,11.329-13.778,17.061-13.778c2.024,0,4.212,0.842,6.688,2.576C315.125,228.546,315.25,229.824,315.304,230.37z   M273.639,221.722c2.699,1.136,5.433,2.278,8.199,3.423c-1.209,1.408-2.366,2.815-3.479,4.168l-0.824,1.001  c-7.623,9.247-11.098,14.159-14.163,18.492c-3.707,5.241-6.909,9.766-16.689,20.979l-1.113,1.281  c-4.035,4.656-12.434,14.344-17.271,14.344c-0.425,0-0.92-0.086-1.665-0.707c-0.558-0.465-1.32-1.1,0.285-4.681  c1.89-4.215,5.877-9.299,9.733-14.216c0.896-1.142,1.783-2.272,2.639-3.385c2.564-3.335,4.441-5.421,7.551-8.877  c4.419-4.911,11.097-12.333,24.885-29.147C272.449,223.515,273.081,222.621,273.639,221.722z M215.5,129.064  c2.318,0,4.269,0.471,5.963,1.438c6.314,3.609,7.739,11.779,9.335,24.807c1.401,11.443,3.094,25.063,12.292,34.469  c-1.251,0.439-2.445,0.972-3.592,1.568c-7.579-3.609-13.775-6.785-17.998-9.283c-14.336-8.48-23.357-16.042-32.081-23.354  c-3.825-3.206-7.558-6.333-11.556-9.368C187.559,140.87,203.681,129.064,215.5,129.064z M41.664,254.164  c10.871-2.016,24.904-13.104,41.794-33.036c8.219-9.7,15.738-19.572,23.011-29.12c16.601-21.793,32.279-42.377,43.547-42.377  c1.473,0,2.896,0.377,4.349,1.152c2.868,1.53,5.489,3.098,7.962,4.71c6.544,4.267,12.023,8.853,18.099,13.945  c8.73,7.317,18.625,15.61,33.947,24.675c2.509,1.484,5.819,3.256,9.761,5.245c1.001,0.505,2.044,1.024,3.126,1.556  c-45.429,42.915-86.931,86.611-91.281,119.531c-60.944-4.047-81.366-9.207-81.681-9.29c-0.593-0.159-1.204-0.24-1.818-0.24  c-1.107,0-2.403,0.06-3.818,0.229c-2.933-2.383-6.996-6.518-6.996-10.546V254.164z M474.521,359.936c0,12.682-10.317,23-23,23  H52.479c-4.103,0-15,0-15-23v-12.021c0-14.708,4.457-20.007,8.742-21.919c2.002-0.893,3.966-1.049,5.422-1.076  c5.964,1.423,38.477,8.219,127.919,11.908c21.786,0.898,197.924,3.731,211.28,4.251c33.326,1.295,59.816,2.798,60.28,2.825  c0.133,0.007,0.266,0.011,0.399,0.011c11.844,0,17.58,2.891,20.367,6.255c2.625,3.168,2.633,6.755,2.633,8.745V359.936z" fill="#5A5954"/><path d="M379.487,237.552c-9.749-18.075-33.53-19.093-52.374-16.564c-4.98-7.004-12.995-11.871-23.953-14.572  c-1.994-3.232-4.395-6.174-7.203-8.813c-5.034-4.73-10.79-7.896-16.357-10.016c12.367-1.926,27.813-6.224,36.271-15.834  c4.935-5.607,7.055-12.548,6.132-20.073c-1.632-13.289-11.035-14.322-13.878-14.322c-8.214,0-19.097,7.536-28.975,16.293  c3.515-16.543-0.421-25.776-3.191-29.887c-4.404-6.536-11.565-9.686-19.143-8.426c-2.236,0.371-5.443,1.583-8.027,5.25  c-9.517,13.508-2.475,57.702-0.078,70.981c0.01,0.054,0.021,0.107,0.031,0.161c0.138,0.69,0.374,1.339,0.693,1.934  c0.522,0.977,1.283,1.841,2.26,2.498c0.322,0.217,0.663,0.408,1.019,0.57c1.041,0.473,2.147,0.674,3.242,0.616  c0.819-0.015,14.26-0.203,25.276,6.563c-0.537-0.007-1.055-0.029-1.6-0.029h-0.188c-17.662,0-33.244,3.272-33.901,3.413  c-3.781,0.804-6.194,4.522-5.39,8.303c0.805,3.781,4.519,6.197,8.304,5.39c8.974-1.91,28.928-4.476,45.277-2.114  c1.669,4.32,2.559,9.27,2.657,14.819c0.04,2.239,1.148,4.324,2.982,5.609c1.834,1.285,4.173,1.617,6.291,0.887  c10.692-3.672,38.441-11.154,53.37-3.729c1.006-0.294,6.322,0.909,9.656,2.909c4.66,2.795,7.579,5.704,7.808,5.982  C378.542,243.217,380.965,240.292,379.487,237.552z M259.507,168.224c-0.278-2.457-0.54-5.015-0.767-7.609  c-2.003-22.97,0.359-29.852,1.239-31.547c0.026,0,0.053-0.001,0.078-0.001c1.722,0,3.161,0.845,4.29,2.521  C267.906,136.867,268.057,149.154,259.507,168.224z M307.681,151.393c0.136,0.379,0.305,1.009,0.425,1.992  c0.44,3.588-0.43,6.484-2.738,9.111c-5.286,6.015-16.479,9.314-26.668,11.021C290.289,161.785,302.258,152.024,307.681,151.393z" fill="#F28F8F"/></svg>