<?xml version="1.0" encoding="utf-8"?>
<!-- Generator: Adobe Illustrator 18.1.1, SVG Export Plug-In . SVG Version: 6.00 Build 0)  -->
<svg version="1.1" id="Слой_1" xmlns="http://www.w3.org/2000/svg" xmlns:xlink="http://www.w3.org/1999/xlink" x="0px" y="0px"
	 viewBox="0 0 80 80" enable-background="new 0 0 80 80" xml:space="preserve">
<g id="Слой_3">
	<path fill="#FAC746" d="M49.724,42.9004h17.023l4.2306,1.2895c0,0,1.5827,1.1441,1.5827,2.4355s0,18.958,0,18.958L62,74.6217
		H43.1657l0.0001-22.2884L49.724,42.9004z"/>
	<g>
		<path fill="#EB5947" d="M33.5413,33.8429H13.5548c-3.3716,0-6.1151,2.7434-6.1151,6.1151v34.8002h32.2166V39.958
			C39.6563,36.5863,36.9129,33.8429,33.5413,33.8429z"/>
		<g>
			<polygon fill="#F0F7F7" points="9.3422,74.7581 14.8887,74.7581 39.6563,49.9893 39.6563,44.4425 			"/>
			<polygon fill="#F0F7F7" points="27.0388,74.7581 39.6563,62.1411 39.6563,56.5945 21.492,74.7581 			"/>
			<polygon fill="#F0F7F7" points="32.5123,74.7581 38.0591,74.7581 39.6563,73.1609 39.6563,67.6141 			"/>
			<polygon fill="#F0F7F7" points="19.4044,33.8428 13.8574,33.8428 7.4397,40.2603 7.4397,45.8068 			"/>
			<polygon fill="#F0F7F7" points="31.2161,33.8428 25.6695,33.8428 7.4397,52.0734 7.4397,57.6202 			"/>
			<path fill="#F0F7F7" d="M36.7351,34.7532L7.4397,64.0479v5.5466l31.8104-31.8096
				C38.7663,36.5184,37.8751,35.4555,36.7351,34.7532z"/>
		</g>
		<ellipse fill="#EB5947" cx="57.5317" cy="29.4258" rx="4.447" ry="9.3649"/>
		<ellipse fill="#EB5947" cx="24.0719" cy="21.6551" rx="4.5114" ry="8.5116"/>
		<path fill="#FAC746" d="M23.9774,32.4589c4.0549,0,5.9598-2.2232,6.7344-3.5483c3.0307-5.1845-1.1212-13.6992-3.0468-17.1194
			l-3.6875-6.5493l-3.6875,6.5493c-1.9258,3.4202-6.0776,11.9349-3.047,17.1194C18.0178,30.2357,19.9227,32.4589,23.9774,32.4589z
			 M23.9774,13.8675c0,0,7.0316,12.4934,1.4108,14.1699v-4.4326h-2.8213v4.4326C16.9457,26.3612,23.9774,13.8675,23.9774,13.8675z"
			/>
		<path fill="#AAC65A" d="M48.2063,42.9004c-2.7799,0-5.0405,2.2605-5.0405,5.0405v8.4817L56.688,42.9004H48.2063z"/>
		<polygon fill="#AAC65A" points="72.5603,74.6217 72.5603,62.995 60.9336,74.6217 		"/>
		<polygon fill="#AAC65A" points="44.564,74.6217 56.8285,74.6217 72.5603,58.8899 72.5603,46.6253 		"/>
		<path fill="#AAC65A" d="M70.2474,43.7145c-0.8224-0.5318-1.7661-0.8141-2.7276-0.8141h-6.8852l-17.469,17.469V72.003
			l27.8119-27.8132L70.2474,43.7145z"/>
		<path fill="#FAC746" d="M57.5317,40.3606c4.0549,0,5.9598-2.223,6.7344-3.5483c3.0306-5.1845-1.1212-13.6992-3.0468-17.1194
			l-3.6875-6.5493l-3.6875,6.5493c-1.9257,3.4202-6.0774,11.9349-3.0468,17.1194C51.5718,38.1374,53.4768,40.3606,57.5317,40.3606z
			 M57.5317,21.7693c0,0,7.0321,12.4943,1.4101,14.1701v-5.1003h-2.8213v5.0997C50.5005,34.2615,57.5317,21.7693,57.5317,21.7693z"
			/>
	</g>
</g>
</svg>
