<?xml version="1.0" encoding="utf-8"?>
<!-- Generator: Adobe Illustrator 18.1.1, SVG Export Plug-In . SVG Version: 6.00 Build 0)  -->
<svg version="1.1" id="Слой_1" xmlns="http://www.w3.org/2000/svg" xmlns:xlink="http://www.w3.org/1999/xlink" x="0px" y="0px"
	 viewBox="360 360 80 80" enable-background="new 360 360 80 80" xml:space="preserve">
<path fill="#EB5947" d="M401.6671,383.7386c-14.1658,0-25.6494,11.4836-25.6494,25.6494s11.4835,25.6494,25.6494,25.6494
	c14.1659,0,25.6494-11.4836,25.6494-25.6494S415.8329,383.7386,401.6671,383.7386z"/>
<path fill="#F0F7F7" d="M425.6461,399.8389c-0.0932,0.1272-0.1174,0.2813-0.1174,0.2813l-1.7237,4.636l-4.7181,0.7933
	c0,0-0.852,0.0548-0.8365,0.6997c0.0195,0.8248,0.563,1.1884,0.563,1.1884l3.5375,3.733l-0.641,5.9494
	c0,0-0.0705,0.7973,0.258,0.9574c0.3204,0.1526,0.8443-0.3243,0.8443-0.3243l3.4437-3.6821l0.6137,0.2774l0.1404-0.0377
	c0.3081-1.595,0.4817-3.2379,0.4817-4.9227C427.4916,406.0113,426.8246,402.7951,425.6461,399.8389z"/>
<path fill="#F0F7F7" d="M384.2472,405.4089l-4.7181-0.821l-1.7239-4.7963c0,0-0.0177-0.0632-0.0484-0.141
	c-1.2258,3.0066-1.9142,6.2899-1.9142,9.7373c0,1.7434,0.1779,3.4448,0.5074,5.0913l0.1537,0.0099l0.5785-0.2697l3.4399,3.8073
	c0,0,0.5237,0.4964,0.848,0.3362c0.3284-0.1643,0.258-0.989,0.258-0.989l-0.641-6.1527l3.5375-3.8581
	c0,0,0.5395-0.3792,0.5591-1.2352C385.0993,405.4636,384.2472,405.4089,384.2472,405.4089z"/>
<path fill="#F0F7F7" d="M413.4737,406.2884l-7.3055-1.1609l-3.2758-6.5318c0,0-0.1447-0.7779-1.0944-0.7857
	c-0.8014-0.0078-1.0359,0.9185-1.0359,0.9185l-3.3654,6.3091c0,0-7.2394,1.032-7.6848,1.0554
	c-0.4456,0.0195-0.8129,0.2579-0.9264,0.8168c-0.1135,0.5553,0.3947,1.0359,0.3947,1.0359l5.2301,5.1089
	c0,0-1.3994,7.0633-1.4307,7.4659s-0.2347,0.6684,0.3441,1.0359c0.5785,0.3637,1.7081-0.2423,1.7081-0.2423l6.3596-3.131
	l6.5005,3.4203c0,0,0.8639,0.3556,1.3799,0.0156c0.5197-0.3401,0.4104-1.2859,0.4104-1.2859l-1.0242-7.1299l5.1832-4.7962
	c0,0,0.7036-0.4222,0.727-1.3329C414.5877,406.3664,413.4737,406.2884,413.4737,406.2884z"/>
<path fill="#FAC746" d="M410.0996,385.1189c0.0511-0.2408,0.0812-0.4936,0.0812-0.7494c0-1.6315-1.1017-2.989-2.6007-3.4044
	l1.183-9.2258c0-2.0378-2.3929-5.1079-7.0946-5.1079s-7.0946,3.0701-7.0946,5.1079l1.1829,9.2258
	c-1.4959,0.4153-2.6036,1.7758-2.6036,3.4044c0,0.2558,0.0301,0.5086,0.0813,0.7494
	C403.0716,388.741,410.0996,385.1189,410.0996,385.1189z M401.6686,369.8941c2.3509,0,4.2562,2.2456,4.2562,3.263l-0.9452,7.6636
	h-6.6221l-0.9482-7.6636C397.4094,372.1398,399.3176,369.8941,401.6686,369.8941z"/>
</svg>
