<?xml version="1.0" encoding="utf-8"?>
<!-- Generator: Adobe Illustrator 18.1.1, SVG Export Plug-In . SVG Version: 6.00 Build 0)  -->
<svg version="1.1" id="Слой_1" xmlns="http://www.w3.org/2000/svg" xmlns:xlink="http://www.w3.org/1999/xlink" x="0px" y="0px"
	 viewBox="0 0 80 80" enable-background="new 0 0 80 80" xml:space="preserve">
<g id="Слой_2">
</g>
<g>
	<path fill="#422B22" d="M27.6916,52.1273c-0.1047-0.0792-0.2008-0.1636-0.303-0.2443c-0.523,2.5877-1.8562,8.8519-3.3052,13.0139
		c-1.6168,4.6442-3.8835,8.2777-3.5349,8.6411c0.3447,0.3594,1.3069,0.5068,2.3126,0.5068c1.1829,0,2.4255-0.2039,2.7935-0.5068
		c0.6801-0.5598,5.0222-14.5937,5.159-18.0162C30.1426,54.364,29.159,53.2364,27.6916,52.1273z"/>
	<path fill="#422B22" d="M45.0726,53.676c-0.5499,0-1.1011-0.0155-1.6451-0.0415c-0.1612,1.902-0.1623,7.5606,5.4007,8.5127
		c1.0817,2.6196-2.7835,11.785-2.3672,11.785c0.0033,0,0.0068-0.0006,0.0106-0.0017c0.5569,0,3.7889,0,4.7133,0
		c0.9245,0,2.7495-12.9617,2.7495-12.9617s-4.6179-3.6837-2.9426-8.0468c-0.0019-0.0753-0.0131-0.1432-0.0133-0.2197
		C49.4734,53.434,47.2886,53.676,45.0726,53.676z"/>
	<rect x="62.7683" y="74.5343" fill="#63473C" width="0.0002" height="0.0001"/>
	<path fill="#63473C" d="M62.7684,74.5342c-0.1104-0.0551-0.1801-0.1241-0.1929-0.2108c0.0414,0.2823,0.0862,0.4162,0.1243,0.4162
		c0.0276,0,0.0518-0.0702,0.0687-0.2051l-0.0001-0.0001C62.7684,74.5344,62.7684,74.5343,62.7684,74.5342z"/>
	<path fill="#63473C" d="M64.2838,59.4216c0,0-4.3422-4.9703-3.9912-9.0337c0.2037-2.3596,0.393-4.7585-0.2789-6.6744
		c1.8485-1.3847,2.5681-4.2998,2.9545-7.0964c-2.119,0.9262-8.1301,2.3566-10.2122,2.3566c-20.0316,0-20.7681-6.579-20.4244-8.2483
		c0.2769-1.3444,1.835-3.2343,1.8896-3.2576c3.9963-0.147,5.7104-4.5046,5.5731-4.7791c-0.0579-0.1157-0.6976-0.2104-1.576-0.2104
		c-1.6069,0-4.0121,0.3174-5.1118,1.4052c-0.0291-0.0003-0.6301-0.2534-1.9051-0.5076c6.7039-2,11.483-7.9886,12.4325-12.0374
		c0.2164-0.9221,0.0178-1.3113-0.2708-1.3113c-0.326,0-0.7667,0.4973-0.8528,1.2841c-0.2178,1.9886-2.8636,4.4958-3.4206,4.4958
		c-0.1744,0-0.144-0.2457,0.2292-0.8298c3.274-5.1221,1.6866-7.6835,0.1339-8.9704c-0.6472-0.5364-1.2925-0.7725-1.7116-0.7725
		c-0.5865,0-0.7301,0.4626,0.1838,1.2124c3.5887,2.9443,1.1033,6.8979,0.3045,6.8979c-0.1123,0-0.1915-0.0784-0.2154-0.2485
		c-0.1585-1.1226-2.5615-3.4881-3.4404-4.2402c-0.2776-0.2375-0.595-0.3551-0.85-0.3551c-0.5364,0-0.796,0.5207,0.175,1.5407
		c7.0115,7.3656-0.0474,9.7157-1.3746,10.7682c-0.0394,0.0376-0.0795,0.0742-0.1205,0.1093
		c0.0411-0.0352,0.0812-0.0717,0.1205-0.1093c1.3314-1.2749,1.6858-3.9456,0.9518-5.2483c-0.41-0.7275-1.2363-1.4326-1.6761-1.4326
		c-0.371,0-0.4671,0.5017,0.1935,1.9146c1.4124,3.0209-2.8156,5.906-3.3057,5.906c-0.0496,0-0.061-0.0295-0.0243-0.0914
		c0.3988-0.6741,0.8979-2.2919,0.6234-3.4421c-0.1373-0.5754-0.5269-1.0209-0.8431-1.0209c-0.3157,0-0.5584,0.4443-0.4036,1.6466
		c0.2117,1.6433-1.0281,3.0842-1.8359,3.8334c-0.0028,0-0.007-0.0002-0.0128-0.0002c-0.1072,0-0.7139,0.0114-0.9656,0.0229
		c-0.8112-0.7435-2.088-2.2012-1.8729-3.8665c0.1556-1.2051-0.0882-1.65-0.4058-1.65c-0.3179,0-0.7095,0.4462-0.8476,1.0229
		c-0.2761,1.1526,0.2258,2.7737,0.6268,3.4492c0.0369,0.0621,0.0255,0.0918-0.0244,0.0918c-0.4932,0-4.7434-2.8914-3.3235-5.9183
		c0.6642-1.416,0.5677-1.9185,0.1946-1.9185c-0.4423,0-1.2732,0.7066-1.6852,1.4356c-0.738,1.3054-0.3817,3.9816,0.957,5.2593
		c0.0482,0.0381,0.089,0.0746,0.1212,0.1095c-0.0322-0.0349-0.0729-0.0714-0.1212-0.1095
		c-1.3343-1.0547-8.4312-3.4097-1.3821-10.7906c0.9764-1.0223,0.7153-1.544,0.176-1.544c-0.2563,0-0.5756,0.1179-0.8545,0.3559
		c-0.8836,0.7532-3.2996,3.1237-3.459,4.2487c-0.0241,0.1707-0.1036,0.2491-0.2166,0.2491c-0.8033,0-3.3015-3.962,0.3062-6.9124
		c0.9191-0.7515,0.7747-1.2148,0.1849-1.2148c-0.4213,0-1.0702,0.2367-1.7208,0.7742c-1.561,1.2893-3.1569,3.8564,0.1347,8.9891
		c0.3755,0.5854,0.4058,0.8314,0.2305,0.8314c-0.5602,0-3.2202-2.5125-3.439-4.5052C8.7185,10.496,8.2754,9.9978,7.9477,9.9978
		c-0.2899,0-0.4896,0.3901-0.2722,1.3139c0.9774,4.1537,5.991,10.3434,12.985,12.1971c-1.1093,0.2775-1.6357,0.5392-1.6721,0.5392
		c-0.0002,0-0.0005,0-0.0007,0c-1.0999-1.0728-3.505-1.3859-5.1118-1.3859c-0.8783,0-1.5181,0.0934-1.576,0.2076
		c-0.1372,0.2708,1.5769,4.5684,5.5731,4.7134c0.6021,0.9139,1.4968,2.1848,1.4968,2.7495c0,0-1.3981,14.1074,8.0187,21.5504
		c0.0781-0.3861,0.1381-0.6889,0.1776-0.8912L27.5,51l0.125-0.3125c0,0-0.0227,0.1189-0.0588,0.3043L28,50.9375
		c0,0,2.9421,1.1688,2.8145,4.572c-0.0001,0.0037-0.0007,0.0085-0.0009,0.0122c0.5821,1.0043,0.9315,2.0309,1.1251,3.0908
		c0.7514,4.1135-1.4382,13.9051-1.1783,14.9255c0.2711,0.4476,1.3262,0.769,2.3429,0.769c0.8403,0,1.6544-0.2197,1.9777-0.769
		c0.7144-1.2139,1.1177-5.924,1.56-8.9262c0.5389-3.6594-0.0159-11.1015-0.1174-11.8526c-0.0001-0.0001-0.0001-0.0004-0.0001-0.0006
		c0,0.0002,0,0.0005,0.0001,0.0006c0.0227,0.041,3.2894,0.7028,6.904,0.8754C43.4606,53.2447,43.5,53,43.5,53l6.25-0.6875h0.5625
		H51.25c-0.106,0.2051-0.1803,0.4072-0.2581,0.6096c0.155,6.0945,5.7593,7.9553,7.7576,7.9553c0.4916,0,0.7648-0.1123,0.6836-0.3011
		c3.1061,7.2211,3.4749,12.8366,3.3352,13.9579c0.0001,0,0.0001,0.0001,0.0001,0.0001c0,0.0001,0,0.0001,0,0.0002
		c0.2978,0.1487,0.9042,0.1931,1.5751,0.1931c1.0066,0,2.1583-0.1003,2.6285-0.1003
		C68.5819,74.6273,64.2838,59.4216,64.2838,59.4216z M22.0581,29.5488c-0.6616,0-1.1367-0.6646-1.1174-1.5121
		c0.23-0.0451,0.433-0.065,0.6124-0.065c1.4124,0,1.3525,1.2405,1.3525,1.2405C22.6065,29.4463,22.318,29.5488,22.0581,29.5488z
		 M26.2083,35.5c-0.9895,0-1.7916-0.8022-1.7916-1.7917s0.8021-1.7917,1.7916-1.7917S28,32.7188,28,33.7083
		S27.1978,35.5,26.2083,35.5z M30.0366,29.5488c-0.2599,0-0.5486-0.1017-0.8474-0.3341c0,0-0.0602-1.2309,1.3525-1.2309
		c0.1793,0,0.3824,0.02,0.6123,0.0646C31.1732,28.8893,30.6983,29.5488,30.0366,29.5488z"/>
	<path fill="#63473C" d="M28,50.9375l-0.4338,0.0543c-0.0394,0.2023-0.0995,0.5051-0.1776,0.8912
		c0.1022,0.0807,0.1982,0.1652,0.303,0.2443c1.4674,1.1091,2.451,2.2368,3.122,3.3944c0.0001-0.0037,0.0007-0.0085,0.0009-0.0122
		C30.9421,52.1063,28,50.9375,28,50.9375z"/>
	<path fill="#63473C" d="M27.5,51l0.0662-0.0082c0.0361-0.1854,0.0588-0.3043,0.0588-0.3043L27.5,51z"/>
	<path fill="#63473C" d="M50.3125,52.3125H49.75L43.5,53c0,0-0.0394,0.2447-0.0724,0.6345c0.5439,0.026,1.0952,0.0415,1.6451,0.0415
		c2.216,0,4.4008-0.242,5.906-0.9736c0.0002,0.0765,0.0114,0.1445,0.0133,0.2197c0.0778-0.2025,0.1521-0.4045,0.2581-0.6096H50.3125
		z"/>
	<circle fill="#EB5947" cx="26.2083" cy="33.7083" r="1.7917"/>
	<path fill="#080606" d="M21.5531,27.9717c-0.1793,0-0.3823,0.0199-0.6124,0.065c-0.0193,0.8475,0.4557,1.5121,1.1174,1.5121
		c0.2599,0,0.5484-0.1025,0.8475-0.3366C22.9056,29.2122,22.9655,27.9717,21.5531,27.9717z"/>
	<path fill="#080606" d="M29.1892,29.2147c0.2988,0.2324,0.5874,0.3341,0.8474,0.3341c0.6617,0,1.1366-0.6595,1.1174-1.5004
		c-0.2299-0.0446-0.433-0.0646-0.6123-0.0646C29.129,27.9838,29.1892,29.2147,29.1892,29.2147z"/>
</g>
</svg>
