<?xml version="1.0" encoding="utf-8"?>
<!-- Generator: Adobe Illustrator 18.1.1, SVG Export Plug-In . SVG Version: 6.00 Build 0)  -->
<svg version="1.1" id="Слой_1" xmlns="http://www.w3.org/2000/svg" xmlns:xlink="http://www.w3.org/1999/xlink" x="0px" y="0px"
	 viewBox="0 0 80 80" enable-background="new 0 0 80 80" xml:space="preserve">
<g id="Слой_1_1_">
	<g>
		<g>
			<path fill="#936037" d="M59.1,23.8c-0.4,0-0.7,0-1.1,0.1l-0.9,0.1l-5.6,0.7l1.3-5.5c0.2-0.9,0.3-1.9,0.3-2.8
				C53,9.5,47.5,4,40.7,4c-6.8,0-12.3,5.5-12.3,12.3c0,0.9,0.1,1.9,0.3,2.8l1.3,5.5l-5.6-0.7l-0.9-0.1c-0.4,0-0.7-0.1-1.1-0.1
				c-4.6,0-8.5,3.5-9.1,8.1c-0.6,5,3,9.6,8,10.1l0.3,0l5.9,0.7l-2.9,5.2l-7.1,12.7c-1.2,2.1-1.5,4.6-0.8,6.9
				c0.7,2.4,2.2,4.3,4.3,5.5c1.4,0.8,2.9,1.2,4.4,1.2c3.3,0,6.4-1.8,8-4.7l2.3-4.1l3.5-6.3l3.5,6.3l2.3,4.1c1.6,2.9,4.7,4.7,8,4.7
				c1.5,0,3.1-0.4,4.4-1.2c4.4-2.5,6-8,3.5-12.4l-6.9-12.3L51.3,43l5.9-0.7l2.9-0.3c5-0.6,8.6-5.1,8-10.1
				C67.6,27.2,63.7,23.8,59.1,23.8z"/>
		</g>
		<g>
			<path fill="#F0F7F7" d="M38.1,14.6c0-1.3-1.1-2.4-2.4-2.4c-1.3,0-2.4,1.1-2.4,2.4c0,1.3,1.1,2.4,2.4,2.4
				C37,17,38.1,15.9,38.1,14.6z M34.9,14.6c0-0.4,0.4-0.8,0.8-0.8c0.4,0,0.8,0.4,0.8,0.8c0,0.5-0.4,0.8-0.8,0.8
				C35.2,15.4,34.9,15,34.9,14.6z"/>
			<path fill="#F0F7F7" d="M35.7,12.1c-1.3,0-2.4,1.1-2.4,2.4c0,1.3,1.1,2.4,2.4,2.4c1.3,0,2.4-1.1,2.4-2.4
				C38.1,13.2,37,12.1,35.7,12.1L35.7,12.1z M35.7,15.4c-0.5,0-0.8-0.4-0.8-0.8c0-0.4,0.4-0.8,0.8-0.8c0.4,0,0.8,0.4,0.8,0.8
				C36.5,15,36.1,15.4,35.7,15.4L35.7,15.4z"/>
		</g>
		<g>
			<path fill="#F0F7F7" d="M45.5,17c1.3,0,2.4-1.1,2.4-2.4c0-1.3-1.1-2.4-2.4-2.4c-1.3,0-2.4,1.1-2.4,2.4C43,15.9,44.1,17,45.5,17z
				 M45.5,13.7c0.5,0,0.8,0.4,0.8,0.8c0,0.5-0.4,0.8-0.8,0.8s-0.8-0.4-0.8-0.8C44.7,14.1,45,13.7,45.5,13.7z"/>
			<path fill="#F0F7F7" d="M45.5,12.1c-1.3,0-2.4,1.1-2.4,2.4c0,1.3,1.1,2.4,2.4,2.4c1.3,0,2.4-1.1,2.4-2.4
				C47.9,13.2,46.8,12.1,45.5,12.1L45.5,12.1z M45.5,15.4c-0.5,0-0.8-0.4-0.8-0.8c0-0.4,0.4-0.8,0.8-0.8c0.5,0,0.8,0.4,0.8,0.8
				C46.3,15,45.9,15.4,45.5,15.4L45.5,15.4z"/>
		</g>
		<g>
			<path fill="#FAC746" d="M40.1,29.4c-1.3,0-2.4,1.1-2.4,2.4c0,1.3,1.1,2.4,2.4,2.4c1.3,0,2.4-1.1,2.4-2.4S41.4,29.4,40.1,29.4z
				 M40.1,32.7c-0.5,0-0.8-0.4-0.8-0.8s0.4-0.8,0.8-0.8c0.4,0,0.8,0.4,0.8,0.8C40.9,32.3,40.5,32.7,40.1,32.7z"/>
			<path fill="#FAC746" d="M40.1,29.4c-1.3,0-2.4,1.1-2.4,2.4c0,1.3,1.1,2.4,2.4,2.4c1.3,0,2.4-1.1,2.4-2.4
				C42.5,30.5,41.4,29.4,40.1,29.4L40.1,29.4z M40.1,32.7c-0.5,0-0.8-0.4-0.8-0.8c0-0.5,0.4-0.8,0.8-0.8c0.4,0,0.8,0.4,0.8,0.8
				C40.9,32.3,40.5,32.7,40.1,32.7L40.1,32.7z"/>
		</g>
		<g>
			<path fill="#FAC746" d="M40.1,38.3c-1.3,0-2.4,1.1-2.4,2.4c0,1.3,1.1,2.4,2.4,2.4c1.3,0,2.4-1.1,2.4-2.4
				C42.5,39.3,41.4,38.3,40.1,38.3z M40.1,41.5c-0.5,0-0.8-0.4-0.8-0.8s0.4-0.8,0.8-0.8c0.4,0,0.8,0.4,0.8,0.8
				C40.9,41.1,40.5,41.5,40.1,41.5z"/>
			<path fill="#FAC746" d="M40.1,38.3c-1.3,0-2.4,1.1-2.4,2.4c0,1.3,1.1,2.4,2.4,2.4c1.3,0,2.4-1.1,2.4-2.4
				C42.5,39.3,41.4,38.3,40.1,38.3L40.1,38.3z M40.1,41.5c-0.5,0-0.8-0.4-0.8-0.8s0.4-0.8,0.8-0.8c0.4,0,0.8,0.4,0.8,0.8
				C40.9,41.1,40.5,41.5,40.1,41.5L40.1,41.5z"/>
		</g>
		<g>
			<path fill="#FAC746" d="M40.1,46.9c-1.3,0-2.4,1.1-2.4,2.4c0,1.3,1.1,2.4,2.4,2.4c1.3,0,2.4-1.1,2.4-2.4
				C42.5,48,41.4,46.9,40.1,46.9z M40.1,50.2c-0.5,0-0.8-0.4-0.8-0.8s0.4-0.8,0.8-0.8c0.4,0,0.8,0.4,0.8,0.8S40.5,50.2,40.1,50.2z"
				/>
			<path fill="#FAC746" d="M40.1,46.9c-1.3,0-2.4,1.1-2.4,2.4s1.1,2.4,2.4,2.4c1.3,0,2.4-1.1,2.4-2.4S41.4,46.9,40.1,46.9L40.1,46.9
				z M40.1,50.2c-0.5,0-0.8-0.4-0.8-0.8s0.4-0.8,0.8-0.8c0.4,0,0.8,0.4,0.8,0.8C40.9,49.8,40.5,50.2,40.1,50.2L40.1,50.2z"/>
		</g>
		<g>
			<path fill="#F0F7F7" d="M46.5,19.9c-0.4-0.2-0.9-0.1-1.1,0.2c0,0.1-1.3,1.9-4.7,1.9c-3.5,0-4.9-1.8-5-1.9
				c-0.3-0.4-0.8-0.4-1.1-0.2c-0.4,0.3-0.4,0.8-0.2,1.1c0.1,0.1,1.9,2.6,6.3,2.6c4.4,0,6-2.5,6.1-2.7C47,20.6,46.9,20.1,46.5,19.9z"
				/>
			<path fill="#F0F7F7" d="M35.1,19.8c-0.2,0-0.3,0-0.5,0.1c-0.4,0.3-0.4,0.8-0.2,1.1c0.1,0.1,1.9,2.6,6.3,2.6c4.4,0,6-2.5,6.1-2.7
				c0.2-0.4,0.1-0.9-0.3-1.1c-0.1-0.1-0.3-0.1-0.4-0.1c-0.3,0-0.5,0.1-0.7,0.4c0,0.1-1.3,1.9-4.7,1.9c-3.5,0-4.9-1.8-5-1.9
				C35.6,19.9,35.3,19.8,35.1,19.8L35.1,19.8z"/>
		</g>
	</g>
</g>
<path fill="#EB5947" d="M21.9,23.9l2,0.1c-0.4,0-6.2,7.8-1.2,18l-2-0.3C20.8,41.7,16.1,32.2,21.9,23.9z"/>
<path fill="#AAC65A" d="M19.8,56.7c0,0,5.5,8.8,15.3,9.9l-0.9,1.7c0,0-8.9,0-15.3-9.9L19.8,56.7z"/>
<path fill="#EB5947" d="M17.9,60c0,0,4,9.2,15.5,9.5l-1.2,1.7c0,0-10.5,0.5-15.2-9.3L17.9,60z"/>
<path fill="#EB5947" d="M58.8,23.9l-2,0.1c0.4,0,6.2,7.8,1.2,18l2-0.3C59.9,41.7,64.7,32.2,58.8,23.9z"/>
<path fill="#AAC65A" d="M59,56.7c0,0-5.5,8.8-15.3,9.9l0.9,1.7c0,0,8.9,0,15.3-9.9L59,56.7z"/>
<path fill="#EB5947" d="M60.8,60c0,0-4,9.2-15.5,9.5l1.2,1.7c0,0,10.5,0.5,15.2-9.3L60.8,60z"/>
</svg>
