<?xml version="1.0" encoding="utf-8"?>
<!-- Generator: Adobe Illustrator 18.1.1, SVG Export Plug-In . SVG Version: 6.00 Build 0)  -->
<svg version="1.1" id="Слой_1" xmlns="http://www.w3.org/2000/svg" xmlns:xlink="http://www.w3.org/1999/xlink" x="0px" y="0px"
	 viewBox="0 0 100 100" enable-background="new 0 0 100 100" xml:space="preserve">
<g>
	<path fill="#EA5947" d="M89.7702,38.6438c-0.3065-6.2075-3.192-24.777-26.4805-28.62c-2.08-0.3431-4.1403-0.5164-6.1273-0.5164
		c-30.1153,0-39.3204,38.9241-40.4072,44.0808c0.7193-0.1449,1.4593-0.2279,2.218-0.2279h0.5611l0.5192,0.2216
		c0.1107,0.0465,11.2727,4.7281,27.1905,4.7281c15.9964,0,27.077-4.6799,27.1878-4.7263l0.5183-0.2234h0.5646
		c0.328,0,0.6503,0.0242,0.9716,0.052c-0.0113-0.5262-0.0159-1.0915-0.0198-1.6115c-0.0304-4.227-0.0769-10.7215-2.4249-16.5548
		c3.4571,1.3807,7.1307,3.1876,9.6955,4.511c1.2017-0.8428,2.6617-1.3421,4.2385-1.3421
		C88.5954,38.4149,89.1944,38.4998,89.7702,38.6438z"/>
	<path fill="#E0F0F2" d="M89.7702,38.6438c-0.5758-0.144-1.1748-0.2288-1.7947-0.2288c-1.5768,0-3.0368,0.4992-4.2385,1.3421
		c-1.9061,1.3368-3.1575,3.5439-3.1575,6.0405c0,4.0715,3.3183,7.3835,7.396,7.3835c4.0795,0,7.3979-3.312,7.3979-7.3835
		C95.3733,42.3455,92.9835,39.4474,89.7702,38.6438z"/>
	<path fill="#E0F0F2" d="M74.9499,53.3604l-0.5183,0.2234c-0.1108,0.0465-11.1914,4.7263-27.1878,4.7263
		c-15.9178,0-27.0798-4.6817-27.1905-4.7281l-0.5192-0.2216h-0.5611c-0.7587,0-1.4987,0.0829-2.218,0.2279
		c-5.4557,1.0991-9.5944,6.1639-9.5944,12.2359v4.9265c0,2.08,0.9006,7.3925,9.241,11.7668
		c7.1146,3.7311,17.492,5.6234,30.8421,5.6234c29.584,0,40.0822-9.3687,40.0822-17.3902v-4.9265
		c0-6.5265-4.7806-11.8875-10.8399-12.4118c-0.3213-0.0278-0.6436-0.052-0.9716-0.052H74.9499z"/>
</g>
</svg>
