<?xml version="1.0" encoding="utf-8"?>
<!-- Generator: Adobe Illustrator 18.1.1, SVG Export Plug-In . SVG Version: 6.00 Build 0)  -->
<svg version="1.1" id="Слой_1" xmlns="http://www.w3.org/2000/svg" xmlns:xlink="http://www.w3.org/1999/xlink" x="0px" y="0px"
	 viewBox="0 0 80 80" enable-background="new 0 0 80 80" xml:space="preserve">
<g id="Слой_2">
</g>
<g>
	<path fill="#FAE3DD" d="M39.3079,18.3091c-11.6035,0-14.7765,8.1843-15.3914,10.2446c1.2265,0.618,2.6533,1.1409,4.2829,1.4445
		c1.5917,0.2889,3.1923,0.5323,4.8367,0.7175c-0.0052-0.0588-0.0152-0.1168-0.0152-0.1763c0-1.8422,2.5458-3.3357,5.6861-3.3357
		s5.686,1.4935,5.686,3.3357c0,0.1391-0.0191,0.2753-0.0473,0.41c1.7105-0.1105,3.4927-0.2742,5.4052-0.5267
		c1.7548-0.4449,3.1434-1.0944,4.2224-1.8098C53.4567,26.4105,50.7788,18.3091,39.3079,18.3091z M31.9677,26.1603
		c-1.0903,0-2.765,0.3509-2.765,0.3509s0.8582-2.1053,2.765-2.1053c1.9067,0,2.7651,2.4562,2.7651,2.4562
		S33.058,26.1603,31.9677,26.1603z M45.1017,26.1603c-1.0903,0-2.765,0.3509-2.765,0.3509s0.8583-2.1053,2.765-2.1053
		c1.9067,0,2.7651,2.4563,2.7651,2.4563S46.1923,26.1603,45.1017,26.1603z"/>
	<path fill="#F0F7F7" d="M43.3044,39.1442c0.5324,1.5147,0.894,1.6375,1.1033,1.7545c-3.1259,0-5.7005-2.8651-5.7005-2.8651
		s-2.5739,2.8651-5.7,2.8651c0.2094-0.1169,0.5707-0.2397,1.1033-1.7545c-1.744,0.774-7.2225,2.5793-10.6649,1.0529
		c0.3787-0.3126,1.7899-0.7001,2.2065-1.4037c-0.595-0.0717-1.3002-0.2797-2.0546-0.5996
		c-3.0363,1.6016-5.1097,5.8634-5.1097,5.8634s1.6594-0.6089,3.1108-1.4036c-2.0526,5.4521-1.0049,13.788,2.4195,20.3527
		c2.159,4.139,5.3477,6.9259,8.0948,8.7064c-3.194-3.8731-3.8697-11.2008-1.5822-15.0581
		c-2.2517,8.5738,1.5514,13.9764,4.2502,16.578c1.0465,0.5155,1.8883,0.8406,2.3712,1.003
		c-0.1008-0.1124-0.1732-0.2274-0.2618-0.3408c-0.0181-0.0244-0.039-0.0492-0.0566-0.0736
		c-0.3383-0.4473-1.2701-2.142-1.3516-2.6489c-2.2363-6.4646-0.4679-15.5384,1.2188-19.5443
		c-2.3303,7.4184-1.5998,13.2036-0.8237,16.314c0.8983,2.9764,5.0681,5.8873,7.2314,6.5162
		c-0.1022-0.1609-0.1821-0.3328-0.2484-0.5105c-1.0307-1.1772-0.7603-3.1514,0.1677-4.2742
		c1.2897-1.0711,2.4423-2.0744,3.4832-3.0232c0.8882-1.2664,2.5167-3.6216,2.6241-9.5344c0.4301,1.8007,0.3841,5.5942,0.0939,6.919
		c2.4301-2.4877,3.9457-4.5311,4.8592-6.2924c1.5999-3.0842,1.3826-6.3756,1.3826-6.3756s2.1725,0.1592,3.5128,0.934
		c0.5219-8.9179-3.5632-13.144-4.8505-14.2471c-0.8738,0.4015-1.6934,0.6581-2.3704,0.7398
		c0.4166,0.7037,1.8278,1.0912,2.2065,1.4037C50.5269,41.7234,45.0484,39.9182,43.3044,39.1442z"/>
	<path fill="#EB5947" d="M62.5366,14.2001c-1.2337-3.5334-4.609-10.2654-12.596-12.2525
		C25.9083-0.1337,22.6598,20.658,22.7134,20.4945c-0.1003,0.361-0.1851,0.7309-0.2619,1.1035
		c1.4618-4.4051,5.701-9.098,17.1318-9.098c11.5381,0,15.2368,5.0974,16.3263,9.3126c-0.2419-5.8649-1.5249-9.5303-1.1298-9.6887
		c0.4591-0.1844,3.1517-1.0848,5.9573,2.3885c0.5344-0.1978,1.1051-0.3216,1.7083-0.3216
		C62.4766,14.1909,62.5055,14.1995,62.5366,14.2001z"/>
	<path fill="#F0F7F7" d="M21.9563,26.7444v0.3224c0.002-0.017,0.0041-0.0345,0.0062-0.0518
		c0.0007,0.0198,0.0007,0.0416,0.0014,0.0612c-0.0024-0.0021-0.0051-0.004-0.0076-0.006v0.3099
		c0.0757,0.0532,0.1498,0.1061,0.228,0.1589C22.0471,27.0859,21.9563,26.7444,21.9563,26.7444z"/>
	<path fill="#F0F7F7" d="M55.9096,21.8126C54.8201,17.5974,51.1215,12.5,39.5833,12.5c-11.4307,0-15.67,4.6929-17.1318,9.098
		c-0.7129,2.1483-0.7644,4.2225-0.6678,5.6561c0.0576,0.0417,0.1124,0.0837,0.1714,0.1252
		c0.0004,0.0003,0.0008,0.0005,0.0012,0.0008v-0.3099c-0.0001-0.0001-0.0002-0.0002-0.0004-0.0003
		c0.0001-0.001,0.0002-0.002,0.0004-0.0031v-0.3224c0,0,0.0908,0.3415,0.228,0.7946c0.0722,0.0489,0.1514,0.0961,0.2257,0.1446
		c0.4091,0.2667,0.8439,0.5274,1.3162,0.7734c0.0627,0.0327,0.1265,0.0645,0.1902,0.0967
		c0.6149-2.0603,3.788-10.2446,15.3914-10.2446c11.4709,0,14.1489,8.1013,14.6653,10.3037c0.0059-0.004,0.0109-0.0081,0.0168-0.012
		c0.134-0.0892,0.2567-0.1804,0.3811-0.2713c0.5807-0.4244,1.059-0.8629,1.4456-1.2926c0.1644-0.1829,0.3159-0.3635,0.448-0.5403
		C56.3621,25.5172,56.4136,23.7626,55.9096,21.8126z"/>
	<path fill="#C4E4E8" d="M41.8953,36.335c-0.0543,0.1448-0.082,0.3192-0.0982,0.5006c0.1934-0.0173,0.3821-0.046,0.5732-0.0692
		C42.1464,36.6219,41.973,36.4774,41.8953,36.335z"/>
	<path fill="#C4E4E8" d="M38.2325,36.8708c0.3348,0.0146,0.6667,0.0233,0.9991,0.03c-0.1921-0.1218-0.388-0.2474-0.5957-0.3866
		C38.5286,36.6317,38.3883,36.7514,38.2325,36.8708z"/>
	<path fill="#C4E4E8" d="M35.2389,36.6323c0.1212,0.0143,0.2418,0.0287,0.3633,0.0419c-0.0182-0.1217-0.0427-0.238-0.0806-0.3392
		C35.468,36.4333,35.3649,36.5327,35.2389,36.6323z"/>
	<path fill="#C4E4E8" d="M54.071,29.0869c0.0034,0.0268,0.0096,0.0508,0.0129,0.0777c0,0-0.0048-0.0316-0.0127-0.0782
		C54.0712,29.0865,54.0711,29.0867,54.071,29.0869z"/>
	<path fill="#C4E4E8" d="M55.75,27.9166c0.0084-0.0884,0.0118-0.1718,0.0197-0.2597l-1.6857,1.5077
		C54.4135,31.8253,55.75,27.9166,55.75,27.9166z"/>
	<path fill="#C4E4E8" d="M54.062,29.0327c0.0024,0.0186,0.0066,0.0355,0.009,0.0543c0.0001-0.0002,0.0001-0.0004,0.0002-0.0005
		C54.0684,29.0695,54.0661,29.0552,54.062,29.0327z"/>
	<path fill="#C4E4E8" d="M21.9625,27.015c-0.0021,0.0173-0.0042,0.0348-0.0062,0.0518v0.0034
		c0.0024,0.002,0.0051,0.004,0.0076,0.006C21.9632,27.0566,21.9632,27.0348,21.9625,27.015z"/>
	<path fill="#C4E4E8" d="M54.062,29.0327c-0.0195-0.1486-0.0493-0.2866-0.072-0.4318c-0.0059,0.0039-0.0109,0.008-0.0168,0.012
		C54.0157,28.7943,54.0451,28.9391,54.062,29.0327z"/>
	<polygon fill="#C4E4E8" points="21.9559,27.0699 21.9563,27.0702 21.9563,27.0668 	"/>
	<path fill="#C4E4E8" d="M21.9563,27.3801c-0.0004-0.0002-0.0008-0.0005-0.0012-0.0008c0.0007,0.0381,0.0004,0.084,0.0012,0.1207
		V27.3801z"/>
	<path fill="#C4E4E8" d="M58.082,37.2787c2.6609-1.6009,4.1368-3.617,4.3633-8.8717c-1.3959,1.1884-2.2592,1.7328-2.9623,1.8192
		c0.3631-0.2763,1.8292-5.1149-2.3099-5.8094c0.0201,0.4211-0.2515,1.2007-0.9084,2.0798c-0.1321,0.1768-0.2836,0.3575-0.448,0.5403
		c-0.3866,0.4297-0.8649,0.8682-1.4456,1.2926c-0.1244,0.0909-0.2471,0.1821-0.3811,0.2713
		c0.0228,0.1451,0.0526,0.2832,0.072,0.4318c0.0041,0.0225,0.0064,0.0369,0.0093,0.0537c0.0079,0.0466,0.0127,0.0782,0.0127,0.0782
		l1.6857-1.5077c-0.0079,0.0879-0.0113,0.1713-0.0197,0.2597c0,0-1.3365,3.9087-1.666,1.248
		c-0.0034-0.0269-0.0095-0.0509-0.0129-0.0777c-0.0024-0.0187-0.0066-0.0356-0.009-0.0543
		c-0.0169-0.0935-0.0463-0.2383-0.0889-0.4198c-1.0789,0.7153-2.4675,1.3648-4.2224,1.8098
		c-1.9125,0.2525-3.6946,0.4163-5.4052,0.5267c-0.0669,0.3195-0.2078,0.6253-0.4174,0.9102
		c1.7504,0.2982,5.6629,0.8281,8.423-0.0607c0.4189-0.1349,0.8137-0.2995,1.1674-0.5058c3.5226-2.0549,4.4989-3.3611,4.4989-3.3611
		s-0.4575,3.3076-2.2496,4.7057c1.1068,0.3134,1.8298,0.4885,3.3745-0.3361c0.3092-0.1651,0.2874-0.0379,0.0368,0.2551
		c-1.5918,2.4157-5.0328,3.5573-4.9838,3.6357c-0.3618,0.1749-0.7479,0.3439-1.1436,0.4975
		c-1.1213,0.4354-2.322,0.7406-3.2829,0.6535c-0.1855,0.5625-0.1959,1.4662,1.1248,1.6807
		c-0.3674,0.143-6.6596-1.0549-8.5234-2.2576c-0.1911,0.0231-0.3798,0.0518-0.5732,0.0692c-0.0614,0.6902,0.0982,1.516,0.0982,1.516
		s-1.041-0.4219-2.6637-1.4508c-0.3324-0.0068-0.6643-0.0154-0.9991-0.03c-0.9783,0.7499-2.7109,1.4808-2.7109,1.4808
		s0.1879-0.9627,0.0806-1.6774c-0.1215-0.0132-0.2421-0.0276-0.3633-0.0419c-1.5754,1.2459-8.3347,2.54-8.7158,2.3917
		c1.3207-0.2145,1.3105-1.1182,1.1248-1.6807c-1.4146,0.1282-3.1686-0.5045-4.6604-1.2741c0,0-0.1356-0.0872-0.3507-0.2271
		c-0.7651-0.4974-2.597-1.701-3.4557-2.3751c-0.9948-0.8635-1.4489-1.455-0.9066-1.1655c1.5446,0.8246,2.2677,0.6495,3.3744,0.3361
		c-2.0393-2.2219-2.2496-4.7057-2.2496-4.7057s0.8129,1.0804,3.6017,2.8184c0.2809,0.1751,0.5751,0.3546,0.8975,0.5427
		c2.7491,1.6034,7.6084,0.7774,9.4932,0.4232c-0.2021-0.3138-0.3245-0.6497-0.3558-1.0005
		c-1.6443-0.1851-3.2449-0.4285-4.8367-0.7175c-1.6296-0.3036-3.0564-0.8265-4.2829-1.4445
		c-0.0638-0.0322-0.1275-0.064-0.1902-0.0967c-0.4723-0.246-0.907-0.5068-1.3162-0.7734c-0.0743-0.0485-0.1535-0.0957-0.2257-0.1446
		c-0.0782-0.0529-0.1523-0.1057-0.228-0.1589V27.5c-0.0008-0.0367-0.0005-0.0826-0.0012-0.1207
		c-0.0591-0.0415-0.1139-0.0835-0.1714-0.1252c-2.3542-1.7053-3.4628-3.5228-3.2254-3.6693
		c-2.735,1.7968-0.6824,5.9981-0.3176,6.2755c-0.7032-0.0862-2.0109,0.1899-3.4066-0.9987
		c0.0488,4.8095,1.8302,7.1368,4.8883,8.2681c-1.8414,0.9786-6.7859,5.7611-4.1301,12.2429
		c0.4863-0.5516,0.4044-1.2338,1.9733-2.1345c-1.2393,0.7114-1.7012,9.6147,4.2534,18.7329
		c6.0074,9.1992,17.5025,11.7939,20.0362,11.7328c-1.1492-0.6038-1.2935-0.9955-1.2935-1.5601
		c0.1268,0.0237,0.23,0.1658,0.3489,0.1884c1.4935,0.9832,5.3328,2.184,10.1094-1.4999c-0.7763,0.0856-5.7025-0.7133-3.9767-3.8585
		c2.0321-3.7033,8.7072-5.0106,11.2368-14.598c0.3051-1.1568,2.3721-0.3062,2.4617,0.9543
		c1.395-2.8987,1.615-11.2188-0.2698-15.0072C58.9649,39.2938,58.7275,38.0991,58.082,37.2787z M58.9836,52.3005
		c-1.3403-0.7747-3.5128-0.934-3.5128-0.934s0.2172,3.2914-1.3826,6.3756c-0.9135,1.7614-2.4291,3.8047-4.8592,6.2924
		c0.2902-1.3248,0.3361-5.1183-0.0939-6.919c-0.1075,5.9128-1.7359,8.2681-2.6241,9.5344
		c-1.0408,0.9488-2.1935,1.9521-3.4832,3.0232c-0.928,1.1229-1.1984,3.097-0.1677,4.2742c0.0662,0.1777,0.1462,0.3495,0.2484,0.5105
		c-2.1633-0.6288-6.3331-3.5397-7.2314-6.5162c-0.7761-3.1104-1.5066-8.8956,0.8237-16.314
		c-1.6867,4.0059-3.4551,13.0797-1.2188,19.5443c0.0815,0.5069,1.0133,2.2017,1.3516,2.6489
		c0.0176,0.0244,0.0385,0.0492,0.0566,0.0736c0.0886,0.1133,0.161,0.2284,0.2618,0.3408c-0.4828-0.1624-1.3246-0.4875-2.3712-1.003
		c-2.6988-2.6016-6.5019-8.0042-4.2502-16.578c-2.2875,3.8573-1.6119,11.185,1.5822,15.0581
		c-2.7471-1.7805-5.9359-4.5673-8.0948-8.7064c-3.4244-6.5647-4.472-14.9005-2.4195-20.3527
		c-1.4514,0.7947-3.1108,1.4036-3.1108,1.4036s2.0734-4.2618,5.1097-5.8634c0.7545,0.3199,1.4597,0.5279,2.0546,0.5996
		c-0.4166,0.7037-1.8278,1.0912-2.2065,1.4037c3.4424,1.5264,8.9208-0.2788,10.6649-1.0529
		c-0.5325,1.5147-0.8939,1.6375-1.1033,1.7545c3.1261,0,5.7-2.8651,5.7-2.8651s2.5746,2.8651,5.7005,2.8651
		c-0.2093-0.1169-0.5709-0.2397-1.1033-1.7545c1.744,0.774,7.2225,2.5793,10.6649,1.0529
		c-0.3787-0.3126-1.7899-0.7001-2.2065-1.4037c0.677-0.0817,1.4966-0.3383,2.3704-0.7398
		C55.4205,39.1566,59.5055,43.3826,58.9836,52.3005z"/>
	<path fill="#F0F7F7" d="M59.1424,32.3015c-1.5446,0.8246-2.2677,0.6495-3.3745,0.3361c1.7921-1.3981,2.2496-4.7057,2.2496-4.7057
		s-0.9763,1.3062-4.4989,3.3611c-0.3537,0.2063-0.7485,0.3708-1.1674,0.5058c-2.7601,0.8889-6.6727,0.3589-8.423,0.0607
		c-0.8721,1.1853-2.8807,2.0154-5.2213,2.0154c-2.4331,0-4.5034-0.8981-5.3151-2.1588c-1.8848,0.3542-6.7441,1.1802-9.4932-0.4232
		c-0.3224-0.1881-0.6166-0.3676-0.8975-0.5427c-2.7888-1.738-3.6017-2.8184-3.6017-2.8184s0.2103,2.4838,2.2496,4.7057
		c-1.1067,0.3134-1.8298,0.4885-3.3744-0.3361c-0.5422-0.2895-0.0882,0.302,0.9066,1.1655
		c0.8586,0.6741,2.6906,1.8777,3.4557,2.3751c0.2151,0.1399,0.3507,0.2271,0.3507,0.2271c1.4918,0.7696,3.2458,1.4023,4.6604,1.2741
		c0.1857,0.5625,0.1959,1.4662-1.1248,1.6807c0.3811,0.1483,7.1404-1.1458,8.7158-2.3917c0.126-0.0997,0.2291-0.199,0.2827-0.2973
		c0.038,0.1012,0.0624,0.2175,0.0806,0.3392c0.1072,0.7147-0.0806,1.6774-0.0806,1.6774s1.7325-0.731,2.7109-1.4808
		c0.1558-0.1194,0.2961-0.2391,0.4034-0.3566c0.2077,0.1392,0.4036,0.2648,0.5957,0.3866c1.6227,1.0289,2.6637,1.4508,2.6637,1.4508
		s-0.1596-0.8258-0.0982-1.516c0.0162-0.1814,0.0439-0.3558,0.0982-0.5006c0.0777,0.1423,0.2511,0.2869,0.475,0.4315
		c1.8638,1.2027,8.156,2.4006,8.5234,2.2576c-1.3207-0.2145-1.3104-1.1182-1.1248-1.6807c0.9609,0.0871,2.1616-0.2181,3.2829-0.6535
		c0.3956-0.1536,0.7818-0.3226,1.1436-0.4975c-0.0491-0.0784,3.392-1.22,4.9838-3.6357
		C59.4298,32.2636,59.4516,32.1364,59.1424,32.3015z"/>
	<path fill="#63473C" d="M45.1017,24.4058c-1.9067,0-2.765,2.1053-2.765,2.1053s1.6747-0.3509,2.765-0.3509
		c1.0906,0,2.7651,0.7018,2.7651,0.7018S47.0084,24.4058,45.1017,24.4058z"/>
	<path fill="#63473C" d="M31.9677,24.4058c-1.9069,0-2.765,2.1053-2.765,2.1053s1.6747-0.3509,2.765-0.3509
		c1.0904,0,2.7651,0.7018,2.7651,0.7018S33.8744,24.4058,31.9677,24.4058z"/>
	<path fill="#EAC7BA" d="M38.7069,27.2037c-3.1403,0-5.6861,1.4935-5.6861,3.3357c0,0.0595,0.0099,0.1176,0.0152,0.1763
		c0.0313,0.3508,0.1537,0.6866,0.3558,1.0005c0.8117,1.2607,2.882,2.1588,5.3151,2.1588c2.3406,0,4.3492-0.8301,5.2213-2.0154
		c0.2097-0.2849,0.3505-0.5908,0.4174-0.9102c0.0282-0.1346,0.0473-0.2709,0.0473-0.41
		C44.3929,28.6971,41.8472,27.2037,38.7069,27.2037z"/>
	<circle fill="#C4E4E8" cx="62.13" cy="18.9108" r="2.9161"/>
	<path fill="#C4E4E8" d="M62.5366,14.2001c-0.0311-0.0005-0.0601-0.0092-0.0913-0.0092c-0.6031,0-1.1739,0.1238-1.7083,0.3216
		c-1.8832,0.6972-3.2325,2.4937-3.2325,4.6192c0,2.7288,2.212,4.9409,4.9408,4.9409c2.7287,0,4.9408-2.2121,4.9408-4.9409
		C67.3861,16.4342,65.2222,14.2499,62.5366,14.2001z"/>
</g>
</svg>
