<?xml version="1.0" encoding="utf-8"?>
<!-- Generator: Adobe Illustrator 18.1.1, SVG Export Plug-In . SVG Version: 6.00 Build 0)  -->
<svg version="1.1" id="Слой_1" xmlns="http://www.w3.org/2000/svg" xmlns:xlink="http://www.w3.org/1999/xlink" x="0px" y="0px"
	 viewBox="0 0 80 80" enable-background="new 0 0 80 80" xml:space="preserve">
<g id="Слой_14">
	<path fill="#C4E4E8" d="M72.5728,47.869l-1.2781-4.8419l-13.108,3.4608l-5.7788-3.4623v-8.0155l6.219-3.6099l13.4095,3.553
		l1.2814-4.8419l-8.562-2.2685l8.5588-4.9681l-2.514-4.3316l-8.4589,4.91l2.2131-8.3866l-4.8419-1.2781l-3.4875,13.215
		l-6.3252,3.6715l-6.9123-3.99v-7.15l9.7899-9.7236l-3.5279-3.554l-6.2619,6.2195V2.619h-5.0082v9.7909l-6.1469-6.1464l-3.541,3.541
		l9.6879,9.687v7.1931l-6.9138,3.9915l-6.1895-3.5752l0.0007-0.0002L21.3623,13.788l-4.8419,1.2781l2.2457,8.5053l-8.549-4.9383
		l-2.5058,4.3366l8.5003,4.91l-8.4513,2.2313l1.2781,4.8419l13.3128-3.5149l-0.0038-0.014l6.2143,3.5895v8.1659l-6.2421,3.6229
		L9.0382,43.2958l-1.2781,4.8419l8.4256,2.2245l-8.4782,4.9212l2.514,4.3301l8.563-4.9696l-2.2629,8.5383l4.8403,1.2814
		l3.544-13.3724l6.3158-3.6655l6.7582,3.9027v7.4292l-9.6879,9.687l3.541,3.541l6.1469-6.1464v9.7917h5.0082v-9.8588l6.2603,6.22
		l3.5311-3.554l-9.7914-9.7278v-7.3818l6.8921-3.9795l6.3135,3.783l2.7482,12.9402l4.8974-1.04l-1.7809-8.3864l7.9696,4.7752
		l2.5725-4.2974l-8.4133-5.0408L72.5728,47.869z M47.3997,42.9977l-6.9157,3.9925l-6.914-3.9925v-7.9834l6.914-3.9925l6.9157,3.9925
		C47.3997,35.0143,47.3997,42.9977,47.3997,42.9977z"/>
</g>
</svg>
