<?xml version="1.0" encoding="utf-8"?>
<!-- Generator: Adobe Illustrator 18.1.1, SVG Export Plug-In . SVG Version: 6.00 Build 0)  -->
<svg version="1.1" id="snowman" xmlns="http://www.w3.org/2000/svg" xmlns:xlink="http://www.w3.org/1999/xlink" x="0px" y="0px"
	 viewBox="0 0 80 80" enable-background="new 0 0 80 80" xml:space="preserve">
<g>
	<path fill="#925F36" d="M9.201,35.4727l11.1045,4.9564c0.1034-1.131,0.3479-2.2692,0.7122-3.3961l-10.7105-4.7806l-2.3796-4.8225
		l-3.0418,1.5009l1.9788,4.0105l-4.0209,2.5736l1.8283,2.8565L9.201,35.4727 M9.0568,33.5496l-0.0004,0.0008"/>
	<path fill="#925F36" d="M65.7901,32.9438l1.9803-4.0137L64.73,27.4298l-2.3786,4.8206l-0.0001,0.0001l-9.7745,4.3591
		c0.3616,1.1184,0.6185,2.251,0.746,3.3799l10.1275-4.5165l-0.767-0.4909l0.767,0.4909l4.5323,2.9007l1.8283-2.8566L65.7901,32.9438
		z M63.594,33.5463l-1.5135-0.7468l0.1778-0.3602l-0.1777,0.3602L63.594,33.5463l0.0034,0.0076l0,0L63.594,33.5463z"/>
	<circle fill="#C5E4E8" cx="37.7081" cy="63.1917" r="1.1578"/>
	<circle fill="#C5E4E8" cx="37.7081" cy="44.8209" r="1.1578"/>
	<path fill="#C5E4E8" d="M52.5769,36.6096c-0.6464-1.9991-1.6246-3.9482-2.8548-5.7179c0.9046-1.2731,1.4519-2.8006,1.4519-4.6232
		c0-2.2578-0.9791-5.4487-2.3066-7.4091c-0.0532-0.3129,0.0442,0.3351,0-0.0001c0,0.0001,0,0.0001,0,0.0001
		c-1.8791-1.6539-5.5786-3.9691-11.6099-3.9691c-9.3341,0-12.9943,6.7196-13.0251,6.7763c-0.5917,1.6821-0.901,3.2606-0.8917,4.6018
		c0.0114,1.644,0.4458,3.0483,1.1955,4.2432c-1.5511,1.9905-2.7773,4.2288-3.5184,6.5213l-0.7122,3.3961
		c-0.0369,0.4035-0.0662,0.8066-0.0662,1.2066c0,1.7001,0.3485,3.2278,0.9561,4.5938c-1.8726,2.7023-3.0236,6.2157-3.0236,10.6752
		c0,10.0055,7.257,19.0437,19.0856,19.0437c11.1636,0,19.0856-9.0382,19.0856-19.0437c-0.0002-4.7533-1.3889-8.4556-3.5828-11.2547
		c0.4197-1.2177,0.6668-2.5481,0.6668-4.0144c0-0.5456-0.0419-1.0954-0.1041-1.6462"/>
	<path fill-rule="evenodd" clip-rule="evenodd" fill="#EFF6F6" d="M22.4304,50.5661c-1.0304,2.2077-1.612,4.6781-1.612,7.2904
		c0,9.3325,7.3599,14.9669,16.4388,14.9669c7.664,0,16.4388-5.6344,16.4388-14.9669c0-2.7712-0.6597-5.3795-1.8104-7.6869
		c-3.4253,3.5796-9.0651,5.3559-14.6283,5.3559C31.9081,55.5254,26.1563,53.8741,22.4304,50.5661z"/>
	<path fill-rule="evenodd" clip-rule="evenodd" fill="#EFF6F6" d="M37.2571,35.9945c-3.5532,0-7.492-0.7653-10.5011-2.463
		c-1.9377,2.4175-3.1196,5.4982-3.1196,8.8753c0,7.7326,6.0981,11.1044,13.6207,11.1044s13.6207-3.3718,13.6207-11.1044
		c0-3.3769-1.1782-6.4604-3.1162-8.8773C44.752,35.2285,40.8117,35.9945,37.2571,35.9945"/>
	<path fill-rule="evenodd" clip-rule="evenodd" fill="#EFF6F6" d="M26.4545,25.9915c0,6.1328,4.8364,8.2077,10.8026,8.2077
		s10.8026-2.0748,10.8026-8.2077c0-6.1327-4.8364-9.1732-10.8026-9.1732S26.4545,19.8588,26.4545,25.9915z"/>
	<path fill="#C5E4E8" d="M22.2534,37.5844l-1.2356-0.5514c-0.3643,1.1269-0.6088,2.265-0.7122,3.3961l0.5655,0.2524L22.2534,37.5844
		z"/>
	<path fill="#C5E4E8" d="M50.3984,37.5811l1.381,3.0968l1.5435-0.6883c-0.1275-1.129-0.3844-2.2615-0.746-3.3799L50.3984,37.5811z"
		/>
	<path fill="#EB5A48" d="M54.0744,12.2851c-0.7443-3.8118-2.6935-8.2336-7.6792-8.2336c-12.3559,0-19.3098,9.8087-22.0381,17.2744
		c-0.0414,0.1133-0.0851,0.2279-0.1246,0.3402c-0.0001,0.0002-0.0001,0.0004-0.0002,0.0006
		c0.0308-0.0567,3.691-6.7763,13.0251-6.7763c6.0312,0,9.7307,2.3151,11.6099,3.9691c0-0.0001,0-0.0001,0-0.0001
		c-0.0796-0.6021-0.1329-1.2188-0.1456-1.7998c-0.0026-0.1246-0.0061-0.2499-0.0043-0.3702
		c0.0016-0.1097,0.0088-0.2132,0.0145-0.3183c0.007-0.1302,0.0165-0.2567,0.0304-0.3785c0.0106-0.0926,0.0244-0.1801,0.0394-0.267
		c0.0211-0.1223,0.048-0.2357,0.0784-0.3448c0.0201-0.0721,0.0399-0.1438,0.0645-0.2095c0.0411-0.1101,0.0926-0.2039,0.1469-0.2936
		c0.0273-0.0449,0.0501-0.0966,0.081-0.1358c0.0922-0.1176,0.1971-0.2145,0.3237-0.2749c1.1488-0.5478,2.9148,1.012,4.0112,2.1696
		c0.3674,0.0112,0.7084,0.116,1.0081,0.2877c0.0001,0,0,0,0.0001,0C54.519,15.9323,54.4573,14.1731,54.0744,12.2851z"/>
	<path fill="#925F36" d="M37.7081,45.9786c-0.6381,0-1.1552-0.5183-1.1552-1.1578s0.5173-1.1578,1.1552-1.1578
		c0.638,0,1.1551,0.5183,1.1551,1.1578S38.3461,45.9786,37.7081,45.9786z"/>
	<path fill="#925F36" d="M37.7081,64.3495c-0.6381,0-1.1552-0.5183-1.1552-1.1578c0-0.6395,0.5173-1.1578,1.1552-1.1578
		c0.638,0,1.1551,0.5183,1.1551,1.1578C38.8632,63.8313,38.3461,64.3495,37.7081,64.3495z"/>
	<circle fill="#925F36" cx="32.8676" cy="23.5874" r="1.2717"/>
	<circle fill="#925F36" cx="41.0634" cy="23.5874" r="1.2717"/>
	<path fill="#C5E4E8" d="M54.5158,16.9728c0.0001-0.0151-0.0001-0.033-0.0001-0.0485c-0.0001,0,0,0-0.0001,0
		C54.5156,16.9396,54.5158,16.9577,54.5158,16.9728z"/>
	<path fill="#C5E4E8" d="M54.5158,16.9243c-0.0001,0.0155,0.0001,0.0334,0.0001,0.0485c-0.0001,0-0.0001-0.0001-0.0002-0.0001
		c0.0001-0.015-0.0002-0.0331-0.0001-0.0485c-0.2997-0.1717-0.6407-0.2766-1.0081-0.2877c0.0067,0.0071,0.0148,0.0149,0.0214,0.0219
		c0,0-0.0001,0-0.0001,0c-0.0066-0.0071-0.0146-0.0147-0.0213-0.0218c-0.0224-0.0007-0.0435-0.0066-0.066-0.0066
		c-1.2012,0-2.175,0.9738-2.175,2.175c0,1.2012,0.9738,2.175,2.175,2.175c1.2012,0,2.175-0.9738,2.175-2.175
		C55.6165,17.9964,55.1704,17.2992,54.5158,16.9243z"/>
</g>
<path fill="#925F36" d="M36.8541,30.5311c-2.2988,0-3.4995-1.5107-3.5499-1.5749c-0.3206-0.4126-0.2462-1.0067,0.1663-1.3277
	c0.4089-0.3174,0.9997-0.2467,1.3208,0.1575c0.0402,0.0485,0.7286,0.8528,2.0628,0.8528c1.2455,0,1.6733-0.6191,1.6909-0.6454
	c0.2837-0.425,0.8602-0.5613,1.2963-0.292c0.4333,0.2703,0.583,0.8214,0.3271,1.2635
	C40.076,29.1253,39.1945,30.5311,36.8541,30.5311z"/>
</svg>
