<svg height="85.333336" viewBox="0 0 85.333336 85.333336" width="85.333336" xmlns="http://www.w3.org/2000/svg"><g transform="matrix(.13333333 0 0 -.13333333 0 85.333333)"><path d="m640 320c0-176.73-143.27-320-320-320s-320 143.27-320 320 143.27 320 320 320 320-143.27 320-320" fill="#495672"/><path d="m551.129 260h-32.121c.656 6.582.992 13.25.992 20h31.129c.258 0 .512.004.758.016l4.875-6.2c5.976-7.597 3.441-13.816-5.633-13.816m-76.191 0h-29.399c-9.074 0-11.609 6.219-5.637 13.816l4.875 6.2c.25-.012.504-.016.762-.016h33.219c-.856-6.805-2.137-13.484-3.82-20" fill="#404a5f"/><path d="m194.461 260h-29.398c-1.684 6.516-2.965 13.195-3.821 20h33.219c.258 0 .512.004.762.016l4.875-6.2c5.972-7.597 3.437-13.816-5.637-13.816m-73.469 0h-32.1209c-9.0742 0-11.6094 6.219-5.6328 13.816l4.875 6.2c.2461-.012.5-.016.7578-.016h31.1289c0-6.75.336-13.418.992-20" fill="#404a5f"/><path d="m445.539 280c-9.074 0-11.609 6.219-5.637 13.816l47.567 60.485c5.976 7.597 15.754 7.597 21.73 0l47.563-60.485c5.976-7.597 3.441-13.816-5.633-13.816z" fill="#e1e3cc"/><path d="m88.8711 280c-9.0742 0-11.6094 6.219-5.6328 13.816l47.5627 60.485c5.976 7.597 15.754 7.597 21.73 0l47.567-60.485c5.972-7.597 3.437-13.816-5.637-13.816z" fill="#e1e3cc"/><path d="m320 80c-103.527 0-188.937 79.078-199.008 180h3.028c18.582-91.176 99.398-160 195.98-160s177.398 68.824 195.98 160h3.028c-10.07-100.922-95.481-180-199.008-180" fill="#404a5f"/><path d="m519.008 260h-3.028c1.34 6.559 2.352 13.227 3.028 20h.992c0-6.75-.336-13.418-.992-20" fill="#394051"/><path d="m124.02 260h-3.028c-.656 6.582-.992 13.25-.992 20h.992c.676-6.773 1.688-13.441 3.028-20" fill="#394051"/><path d="m520 280h-.992c.16 1.59.297 3.176.418 4.773.375-1.527.574-3.128.574-4.773" fill="#b7b7a7"/><path d="m120.992 280h-.992c0 1.645.199 3.246.574 4.773.121-1.597.262-3.183.418-4.773" fill="#b7b7a7"/><path d="m320 100c-110.277 0-200 89.719-200 200 0 11.047 8.953 20 20 20s20-8.953 20-20c0-88.223 71.777-160 160-160s160 71.777 160 160c0 11.047 8.953 20 20 20s20-8.953 20-20c0-110.281-89.723-200-200-200" fill="#e1e3cc"/><path d="m300 120h40v320h-40z" fill="#e1e3cc"/><path d="m300 403.426c-23.281 8.254-40 30.496-40 56.574 0 33.086 26.914 60 60 60s60-26.914 60-60c0-26.078-16.719-48.32-40-56.574v36.574h-20c11.031 0 20 8.969 20 20s-8.969 20-20 20-20-8.969-20-20 8.969-20 20-20h-20z" fill="#404a5f"/><path d="m320 400c-7.008 0-13.742 1.207-20 3.426v36.574h20 20v-36.574c-6.258-2.219-12.992-3.426-20-3.426" fill="#b7b7a7"/><path d="m380 310h-40v40h40c11.047 0 20-8.953 20-20s-8.953-20-20-20m-80 0h-40c-11.047 0-20 8.953-20 20s8.953 20 20 20h40z" fill="#404a5f"/><path d="m300 310h40v40h-40z" fill="#b7b7a7"/><g fill="#e1e3cc"><path d="m320 500c-11.031 0-20-8.977-20-20s8.969-20 20-20 20 8.977 20 20-8.969 20-20 20zm0-80c-33.086 0-60 26.914-60 60s26.914 60 60 60 60-26.914 60-60-26.914-60-60-60"/><path d="m400 350c0-11.047-8.953-20-20-20h-120c-11.047 0-20 8.953-20 20s8.953 20 20 20h120c11.047 0 20-8.953 20-20"/></g></g></svg>