<svg height="85.333336" viewBox="0 0 85.333336 85.333336" width="85.333336" xmlns="http://www.w3.org/2000/svg"><g transform="matrix(.13333333 0 0 -.13333333 0 85.333333)"><path d="m640 320c0-176.73-143.27-320-320-320s-320 143.27-320 320 143.27 320 320 320 320-143.27 320-320" fill="#e1e3cc"/><g fill="#b7b7a7"><path d="m190 281.504-96.8477 96.848c17.6717 51.168 52.1447 94.468 96.8477 123.343z"/><path d="m229.082 200h-127.246c-13.9805 30.449-21.836 64.301-21.836 100 0 15.332 1.5 30.305 4.2461 44.836z"/><path d="m320 60c-15.332 0-30.305 1.4961-44.836 4.2461l144.836 144.8359v-127.2461c-30.449-13.9804-64.301-21.8359-100-21.8359"/><path d="m241.648 73.1523c-51.168 17.6719-94.468 52.1447-123.343 96.8477h220.191z"/><path d="m555.754 255.164-144.836 144.836h127.246c13.981-30.449 21.836-64.301 21.836-100 0-15.332-1.496-30.305-4.246-44.836"/><path d="m450 98.3047v220.1913l96.848-96.848c-17.672-51.168-52.145-94.468-96.848-123.3433"/><path d="m521.695 430h-220.191l96.848 96.848c51.168-17.672 94.468-52.145 123.343-96.848"/><path d="m220 390.918v127.246c30.449 13.981 64.301 21.836 100 21.836 15.332 0 30.305-1.496 44.836-4.246z"/></g><path d="m190 521.695c-44.703-28.875-79.176-72.175-96.8477-123.343l96.8477-96.848z" fill="#495672"/><path d="m84.2461 364.836c-2.75-14.531-4.2461-29.504-4.2461-44.836 0-35.699 7.8555-69.551 21.836-100h127.246z" fill="#495672"/><path d="m275.164 84.2461c14.531-2.75 29.504-4.2461 44.836-4.2461 35.699 0 69.551 7.8555 100 21.836v127.246z" fill="#495672"/><path d="m118.305 190c28.875-44.703 72.175-79.176 123.343-96.8477l96.848 96.8477z" fill="#495672"/><path d="m555.754 275.164c2.75 14.531 4.246 29.504 4.246 44.836 0 35.699-7.855 69.551-21.836 100h-127.246z" fill="#495672"/><path d="m450 118.305c44.703 28.875 79.176 72.175 96.848 123.343l-96.848 96.848z" fill="#495672"/><path d="m521.695 450c-28.875 44.703-72.175 79.176-123.343 96.848l-96.848-96.848z" fill="#495672"/><path d="m364.836 555.754c-14.531 2.75-29.504 4.246-44.836 4.246-35.699 0-69.551-7.855-100-21.836v-127.246z" fill="#495672"/></g></svg>