<svg height="85.333336" viewBox="0 0 85.333336 85.333336" width="85.333336" xmlns="http://www.w3.org/2000/svg"><g transform="matrix(.13333333 0 0 -.13333333 0 85.333333)"><path d="m640 320c0-176.73-143.27-320-320-320s-320 143.27-320 320 143.27 320 320 320 320-143.27 320-320" fill="#7db6d8"/><path d="m360 100h-80c-22.094 0-40 17.91-40 40v120h-78.387c-27.222 0-34.828 18.652-16.902 41.445l142.695 181.457c8.965 11.399 20.778 17.098 32.594 17.098s23.629-5.699 32.594-17.098l142.695-181.457c17.926-22.793 10.32-41.445-16.902-41.445h-78.387v-120c0-22.09-17.906-40-40-40" fill="#6594b2"/><g fill="#fff"><path d="m400 160c0-22.09-17.91-40-40-40h-80c-22.09 0-40 17.91-40 40v240c0 22.09 17.91 40 40 40h80c22.09 0 40-17.91 40-40z"/><path d="m161.613 280c-27.222 0-34.828 18.652-16.902 41.445l142.695 181.457c17.926 22.797 47.262 22.797 65.188 0l142.695-181.457c17.926-22.793 10.32-41.445-16.902-41.445z"/></g></g></svg>