<svg height="85.333336" viewBox="0 0 85.333336 85.333336" width="85.333336" xmlns="http://www.w3.org/2000/svg"><g transform="matrix(.13333333 0 0 -.13333333 0 85.333333)"><path d="m640 320c0-176.73-143.27-320-320-320s-320 143.27-320 320 143.27 320 320 320 320-143.27 320-320" fill="#7db6d8"/><g fill="#6594b2"><path d="m500 240h-20v120h20c11.047 0 20-8.953 20-20v-80c0-11.047-8.953-20-20-20"/><path d="m460 190h-320c-11.047 0-20 8.953-20 20v50 80 50c0 11.047 8.953 20 20 20h320c11.047 0 20-8.953 20-20v-30-120-30c0-11.047-8.953-20-20-20m-310 190v-160h300.004v160z"/><path d="m170 240h260.004v120h-260.004z"/></g><path d="m500 380h-20v-120h20c11.047 0 20 8.953 20 20v80c0 11.047-8.953 20-20 20" fill="#495672"/><path d="m150 240h300.004v160h-300.004z" fill="#fff"/><path d="m450.004 240h-300.004v160h300.004zm9.996 190h-320c-11.047 0-20-8.953-20-20v-50-80-50c0-11.047 8.953-20 20-20h320c11.047 0 20 8.953 20 20v30 120 30c0 11.047-8.953 20-20 20" fill="#495672"/><path d="m170 260h260.004v120h-260.004z" fill="#77caa9"/></g></svg>