<svg height="85.333336" viewBox="0 0 85.333336 85.333336" width="85.333336" xmlns="http://www.w3.org/2000/svg"><g transform="matrix(.13333333 0 0 -.13333333 0 85.333333)"><path d="m640 320c0-176.73-143.27-320-320-320s-320 143.27-320 320 143.27 320 320 320 320-143.27 320-320" fill="#77caa9"/><g fill="#62a48d"><path d="m190 140c-49.707 0-90 40.293-90 90s40.293 90 90 90c49.703 0 90-40.293 90-90s-40.297-90-90-90m0 150c-33.086 0-60-26.918-60-60s26.914-60 60-60 60 26.918 60 60-26.914 60-60 60"/><path d="m460 140c-49.707 0-90 40.293-90 90s40.293 90 90 90c49.703 0 90-40.293 90-90s-40.297-90-90-90m0 150c-33.082 0-60-26.918-60-60s26.918-60 60-60c33.086 0 60 26.918 60 60s-26.914 60-60 60"/><path d="m325 195.02c-8.281 0-15 6.714-15 15v72.976l-82.285 79.328c-2.902 2.797-4.551 6.637-4.59 10.664-.039 4.024 1.543 7.895 4.395 10.742l51.875 51.875c2.914 2.926 6.753 4.399 10.601 4.399 3.645 0 7.297-1.32 10.18-3.984l60.691-56.02h29.133c8.281 0 15-6.715 15-15s-6.719-15-15-15h-35c-3.77 0-7.402 1.422-10.176 3.98l-54.402 50.223-30.891-30.883 75.879-73.144c2.93-2.828 4.59-6.731 4.59-10.801v-79.355c0-8.286-6.719-15-15-15"/><path d="m345 440c-19.328 0-35 15.672-35 35s15.672 35 35 35 35-15.672 35-35-15.672-35-35-35"/></g><path d="m190 340c-49.707 0-90-40.293-90-90s40.293-90 90-90 90 40.293 90 90-40.293 90-90 90zm0-30c33.086 0 60-26.918 60-60s-26.914-60-60-60-60 26.918-60 60 26.914 60 60 60" fill="#fff"/><path d="m460 340c-49.707 0-90-40.293-90-90s40.293-90 90-90 90 40.293 90 90-40.293 90-90 90zm0-30c33.086 0 60-26.918 60-60s-26.914-60-60-60c-33.082 0-60 26.918-60 60s26.918 60 60 60" fill="#fff"/><path d="m340 230.016v79.359c0 4.066-1.664 7.98-4.59 10.801l-75.879 73.148 30.883 30.879 54.41-50.226c2.774-2.559 6.403-3.977 10.176-3.977h35c8.281 0 15 6.719 15 15 0 8.285-6.719 15-15 15h-29.137l-60.687 56.023c-5.922 5.465-15.086 5.282-20.781-.418l-51.875-51.875c-2.836-2.832-4.43-6.734-4.395-10.742s1.703-7.879 4.59-10.66l82.285-79.324v-72.988c0-8.282 6.715-15 15-15s15 6.718 15 15" fill="#fff"/><path d="m380 495c0-19.328-15.672-35-35-35s-35 15.672-35 35 15.672 35 35 35 35-15.672 35-35" fill="#fff"/></g></svg>