<svg height="85.333336" viewBox="0 0 85.333336 85.333336" width="85.333336" xmlns="http://www.w3.org/2000/svg"><g transform="matrix(.13333333 0 0 -.13333333 0 85.333333)"><path d="m640 320c0-176.73-143.27-320-320-320s-320 143.27-320 320 143.27 320 320 320 320-143.27 320-320" fill="#77caa9"/><path d="m499.727 290h-128.512l-17.805 17.805 2.195 2.195h144.122c.179-3.312.273-6.645.273-10s-.094-6.687-.273-10m-230.942 0h-128.512c-.179 3.313-.273 6.645-.273 10s.094 6.688.273 10h142.911l2.8-2.801z" fill="#62a48d"/><path d="m433.109 160.074-98.109 98.11v25.605l111.613-111.613c-4.293-4.25-8.804-8.293-13.504-12.102m-147.125 147.125-2.8 2.801h5.601zm-7.195 32.801h-25.605l-73.11 73.109c3.809 4.7 7.852 9.211 12.102 13.504z" fill="#62a48d"/><path d="m206.223 160.617c-4.461 3.649-8.746 7.508-12.836 11.559l111.613 111.613v-24.394zm147.187 147.188-2.195 2.195h4.39zm32.195 32.195h-24.394l86.613 86.613c4.051-4.09 7.91-8.375 11.559-12.836zm102.016 102.496c-3.914 4.598-8.019 9.039-12.293 13.301 1.262 3.117 1.43 6.574.508 9.785 3.555-.195 7.055-1.652 9.769-4.371 5.086-5.082 5.758-12.91 2.016-18.715" fill="#62a48d"/><g fill="#fff"><path d="m305 520.004v-400c0-8.285 6.715-15 15-15s15 6.715 15 15v400c0 8.281-6.715 15-15 15s-15-6.719-15-15"/><path d="m520 340h-400c-8.285 0-15-6.715-15-15s6.715-15 15-15h400c8.285 0 15 6.715 15 15s-6.715 15-15 15"/><path d="m472.027 189.188-282.843 282.843c-5.856 5.856-15.356 5.856-21.211 0-5.86-5.859-5.86-15.355 0-21.215l282.843-282.839c5.856-5.86 15.356-5.86 21.211 0 5.86 5.855 5.86 15.351 0 21.211"/><path d="m189.184 167.977 282.843 282.839c5.86 5.86 5.86 15.356 0 21.215-5.855 5.856-15.355 5.856-21.211 0l-282.843-282.843c-5.86-5.86-5.86-15.356 0-21.211 5.855-5.86 15.355-5.86 21.211 0"/></g><path d="m320 290c-2.609 0-5.098.5-7.383 1.406l7.383 7.383 7.383-7.383c-2.285-.906-4.774-1.406-7.383-1.406" fill="#d4d3d1"/><path d="m327.383 291.406-7.383 7.383 18.594 18.594c.906-2.285 1.406-4.774 1.406-7.383 0-8.437-5.227-15.656-12.617-18.594" fill="#d4d3d1"/><path d="m312.617 291.406c-7.39 2.938-12.617 10.157-12.617 18.594 0 11.047 8.953 20 20 20 8.438 0 15.656-5.227 18.594-12.617l-18.594-18.594z" fill="#d4d3d1"/><path d="m340 320c0-11.047-8.953-20-20-20s-20 8.953-20 20 8.953 20 20 20 20-8.953 20-20" fill="#77caa9"/><path d="m320 80c-121.504 0-220 98.496-220 220 0 60.871 24.723 115.965 64.672 155.797.73-1.813 1.832-3.512 3.301-4.981l3.242-3.242c-.86-.558-1.672-1.215-2.426-1.969-5.859-5.855-5.859-15.355 0-21.21l11.285-11.286c-17.008-21-29.394-45.894-35.594-73.109h-24.48c-8.285 0-15-6.715-15-15s6.715-15 15-15h1.102c-.715-1.562-1.102-3.246-1.102-5 0-8.285 8.664-15 19.355-15h.918c1.946-35.297 14.106-67.922 33.567-94.945l-5.867-5.867c-5.86-5.86-5.86-15.356 0-21.211 1.859-1.864 4.086-3.129 6.445-3.809.195-3.559 1.652-7.059 4.371-9.773 2.93-2.93 6.77-4.395 10.606-4.395 3.835 0 7.675 1.465 10.605 4.395l6.223 6.222c27.394-22.402 61.496-36.906 98.777-40v-.613c0-8.285 6.715-15 15-15s15 6.715 15 15v.613c36.98 3.067 70.828 17.363 98.109 39.457l1.286-1.285c2.929-2.93 6.765-4.394 10.605-4.394s7.676 1.464 10.605 4.394c1.477 1.477 2.579 3.18 3.313 5.004.828-.141 1.664-.211 2.504-.211 3.84 0 7.676 1.465 10.605 4.395 5.86 5.855 5.86 15.351 0 21.211l-5.867 5.867c19.461 27.023 31.621 59.648 33.567 94.945h.918c10.691 0 19.355 6.715 19.355 15 0 1.754-.387 3.438-1.102 5h1.102c8.285 0 15 6.715 15 15s-6.715 15-15 15h-24.48c-6.266 27.504-18.848 52.637-36.137 73.777l26.222 26.223c.774.773 1.446 1.609 2.016 2.496 32.672-38.391 52.379-88.137 52.379-142.496 0-121.504-98.496-220-220-220" fill="#62a48d"/><path d="m500.645 290h-.918c.179 3.313.273 6.645.273 10s-.094 6.688-.273 10h19.171c.715-1.562 1.102-3.246 1.102-5 0-8.285-8.664-15-19.355-15m-360.372 0h-.918c-10.691 0-19.355 6.715-19.355 15 0 1.754.387 3.438 1.102 5h19.171c-.179-3.312-.273-6.645-.273-10s.094-6.687.273-10" fill="#538777"/><path d="m445 154.395c-3.84 0-7.676 1.464-10.605 4.394l-1.286 1.285c4.7 3.809 9.211 7.852 13.504 12.102l4.203-4.199c2.289-2.293 5.133-3.688 8.102-4.184-.734-1.824-1.836-3.527-3.313-5.004-2.929-2.93-6.765-4.394-10.605-4.394m-264.926 258.714-11.285 11.286c-5.859 5.855-5.859 15.355 0 21.21.754.754 1.566 1.411 2.426 1.969l20.961-20.961c-4.25-4.293-8.293-8.804-12.102-13.504" fill="#538777"/><path d="m189.395 150c-3.836 0-7.676 1.465-10.606 4.395-2.719 2.714-4.176 6.214-4.371 9.773 1.355-.391 2.758-.586 4.16-.586 3.84 0 7.68 1.465 10.606 4.395l4.203 4.199c4.09-4.051 8.375-7.91 12.836-11.559l-6.223-6.222c-2.93-2.93-6.77-4.395-10.605-4.395m269.988 263.777c-3.649 4.461-7.508 8.746-11.559 12.836l24.203 24.203c1.469 1.469 2.571 3.168 3.301 4.981 4.274-4.262 8.379-8.703 12.293-13.301-.57-.887-1.242-1.723-2.016-2.496z" fill="#538777"/><path d="m215.055 446.16-25.871 25.871c-.977.977-2.059 1.793-3.207 2.446 33.402 25.699 74.386 42.011 119.023 45.019v-9.336-30.777c-33.371-2.77-64.199-14.684-89.945-33.223" fill="#62a48d"/><path d="m424.945 446.16c-25.746 18.539-56.574 30.453-89.945 33.223v40.113c44.637-3.008 85.621-19.32 119.023-45.019-1.148-.653-2.23-1.465-3.207-2.446z" fill="#62a48d"/><path d="m320 105.004c-8.285 0-15 6.715-15 15v.613c4.949-.406 9.949-.617 15-.617s10.051.211 15 .617v-.613c0-8.285-6.715-15-15-15m-15 374.379v30.777 9.336c4.957.336 9.957.504 15 .504s10.043-.168 15-.504v-40.113c-4.949.406-9.949.617-15 .617s-10.051-.211-15-.617" fill="#d4d3d1"/><path d="m520 310h-20.273c-.567 10.25-1.989 20.273-4.207 30h24.48c8.285 0 15-6.715 15-15s-6.715-15-15-15m-379.727 0h-19.171-1.102c-8.285 0-15 6.715-15 15s6.715 15 15 15h24.48c-2.218-9.727-3.64-19.75-4.207-30" fill="#d4d3d1"/><path d="m461.422 163.582c-.84 0-1.676.07-2.504.211-2.969.496-5.813 1.891-8.102 4.184l-4.203 4.199c7.133 7.066 13.668 14.711 19.547 22.879l5.867-5.867c5.86-5.86 5.86-15.356 0-21.211-2.929-2.93-6.765-4.395-10.605-4.395m-269.246 263.031-20.961 20.961-3.242 3.242c-1.469 1.469-2.571 3.168-3.301 4.981 6.683 6.668 13.808 12.914 21.305 18.68 1.148-.653 2.23-1.469 3.207-2.446l25.871-25.871c-8.168-5.879-15.813-12.414-22.879-19.547" fill="#d4d3d1"/><path d="m178.578 163.582c-1.402 0-2.805.195-4.16.586-2.359.68-4.586 1.945-6.445 3.809-5.86 5.855-5.86 15.351 0 21.211l5.867 5.867c5.879-8.168 12.414-15.813 19.547-22.879l-4.203-4.199c-2.926-2.93-6.766-4.395-10.606-4.395m269.246 263.031c-7.066 7.133-14.711 13.668-22.879 19.547l25.871 25.871c.977.981 2.059 1.793 3.207 2.446 7.497-5.766 14.618-12.012 21.305-18.68-.73-1.813-1.832-3.512-3.301-4.981z" fill="#d4d3d1"/><path d="m320 540c-121.504 0-220-98.496-220-220s98.496-220 220-220 220 98.496 220 220-98.496 220-220 220zm0-40c99.254 0 180-80.746 180-180s-80.746-180-180-180-180 80.746-180 180 80.746 180 180 180" fill="#495672"/></g></svg>