<svg height="85.333336" viewBox="0 0 85.333336 85.333336" width="85.333336" xmlns="http://www.w3.org/2000/svg"><g transform="matrix(.13333333 0 0 -.13333333 0 85.333333)"><path d="m640 320c0-176.73-143.27-320-320-320s-320 143.27-320 320 143.27 320 320 320 320-143.27 320-320" fill="#7db6d8"/><path d="m369.973 160.016h-60c-11.043 0-30 8.953-30 19.996 0 11.039-1.043 19.988 10 19.988h100c11.047 0 10-8.949 10-19.988 0-11.043-18.953-19.996-30-19.996" fill="#6594b2"/><path d="m340 220c-57.223 0-109.328 9.938-148.461 26.211-26.09-13.652-53.859-26.211-59.715-26.211l-50.3513 1.188c-12.3164 0-16.8047 7.398-9.9727 16.441l.3242 2.371c.7578.773 1.5039 1.563 2.25 2.359 1.9922-.757 4.4727-1.175 7.3985-1.175l50.3513-1.184c5.852 0 33.625 12.555 59.707 26.203 39.133-16.273 91.246-26.203 148.469-26.203 114.078 0 207.879 39.465 218.914 90 .719-3.289 1.086-6.625 1.086-10 0-55.227-98.496-100-220-100m-219.445 92.914c-.125.805-.231 1.606-.313 2.41l3.625-.453c-1.121-.605-2.226-1.258-3.312-1.957m1.066 39.281c-24.5858 21.563-61.703 64.512-51.621 67.805h58.137c15.672 0 34.851-3.941 53.105-10.77-32.101-15.207-53.73-35.015-59.621-57.035" fill="#6594b2"/><path d="m399.973 200.008c0-11.039-18.953-19.992-30-19.992h-60c-11.043 0-30 8.953-30 19.992 0 11.043-1.043 19.992 10 19.992h100c11.047 0 10-8.949 10-19.992" fill="#495672"/><path d="m140 360c-12.316 0-83.5039 75.59-70 80h58.137c31.863 0 78.484-16.07 101.863-40l-29.676-2.375c6.832-9.039 2.344-16.441-9.972-16.441z" fill="#c84755"/><path d="m131.824 240c12.317 0 121.68 55.59 108.176 60l-96.312 20c-31.864 0-48.4849-36.07-71.8638-60l-.3242-2.375c-6.832-9.039-2.3437-16.441 9.9727-16.441z" fill="#c84755"/><path d="m560 340c0-55.227-98.496-100-220-100s-220 44.773-220 100 98.496 100 220 100 220-44.773 220-100" fill="#fff"/><path d="m120.242 315.324-45.7654 5.723c-1.2735 0-2.5078-.02-3.6836-.02-6.211 0-10.793.536-10.793 7.258 0 6.723 4.582 7.258 10.7969 7.258 1.1758 0 2.4062-.02 3.6797-.02l45.5394 5.692c-.012-.402-.016-.813-.016-1.215 0-3.391.371-6.738 1.098-10.043-.727-3.273-1.098-6.594-1.098-9.957 0-1.566.082-3.125.242-4.676" fill="#6594b2"/><path d="m123.867 314.871-3.625.453c-.16 1.551-.242 3.11-.242 4.676 0 3.363.371 6.684 1.098 9.957 1.035-4.719 2.793-9.352 5.222-13.855-.828-.383-1.644-.797-2.453-1.231" fill="#567a95"/><path d="m127.246 314.449-3.379.422c.809.434 1.625.848 2.453 1.231.301-.555.61-1.102.926-1.653" fill="#a43f4a"/><path d="m190.301 306.566-63.055 7.883c-.316.551-.625 1.098-.926 1.653-2.429 4.503-4.187 9.136-5.222 13.855-.727 3.305-1.098 6.652-1.098 10.043 0 .402.004.813.016 1.215l70.285 8.785c7.996 0 28.953-13.723 28.953-21.715 0-7.996-20.957-21.719-28.953-21.719" fill="#d4d3d1"/><path d="m70 330c-7.9961 0-10 3.723-10 11.715 0 7.996 2.0039 8.285 10 8.285l120.301 10c7.996 0 29.699-12.004 29.699-20h-.746c0-7.996-20.957-20-28.953-20z" fill="#c84755"/></g></svg>