<svg height="85.333336" viewBox="0 0 85.333336 85.333336" width="85.333336" xmlns="http://www.w3.org/2000/svg"><g transform="matrix(.13333333 0 0 -.13333333 0 85.333333)"><path d="m640 320c0-176.73-143.27-320-320-320s-320 143.27-320 320 143.27 320 320 320 320-143.27 320-320" fill="#495672"/><path d="m190 90c-2.129 0-4.258.6758-6.047 2.0352-3.711 2.8203-4.988 7.8242-3.074 12.0668l83.652 185.898h-54.531c-3.469 0-6.68 1.797-8.508 4.742-1.824 2.949-1.988 6.629-.437 9.731l80 160c1.699 3.386 5.156 5.527 8.945 5.527h170c3.711 0 7.117-2.055 8.848-5.348 1.726-3.285 1.496-7.257-.606-10.316l-99.226-144.336h60.984c4.211 0 7.969-2.637 9.402-6.598 1.438-3.961.239-8.386-2.996-11.082l-240-199.9997c-1.855-1.543-4.133-2.3203-6.406-2.3203" fill="#404a5f"/><path d="m468.848 484.652c-1.731 3.293-5.137 5.348-8.848 5.348h-170c-3.789 0-7.246-2.141-8.945-5.527l-80-160c-1.551-3.102-1.387-6.782.437-9.731 1.828-2.945 5.039-4.742 8.508-4.742h54.531l-83.652-185.898c-1.914-4.243-.637-9.247 3.074-12.067 1.789-1.359 3.918-2.035 6.047-2.035 2.273 0 4.551.777 6.406 2.32l240 200c3.235 2.696 4.434 7.121 2.996 11.082-1.433 3.961-5.191 6.598-9.402 6.598h-60.984l99.226 144.336c2.102 3.059 2.332 7.031.606 10.316" fill="#f3cc70"/></g></svg>