<svg height="85.333336" viewBox="0 0 85.333336 85.333336" width="85.333336" xmlns="http://www.w3.org/2000/svg"><g transform="matrix(.13333333 0 0 -.13333333 0 85.333333)"><path d="m638.332 310c0-176.73-143.269-320-320-320-176.73 0-319.99997 143.27-319.99997 320s143.26997 320 319.99997 320c176.731 0 320-143.27 320-320" fill="#e08e4c"/><path d="m416.406 395.855-10.66 9.719c9.367 9.164 20.738 19.957 32.402 30.223 3.114-4.09 7-7.563 11.438-10.203-11.328-9.414-22.914-19.985-33.18-29.739" fill="#b77744"/><path d="m375.625 389.375s66.875 70.625 103.75 89.375z" fill="#e1e3cc"/><path d="m375.625 379.375c-2.473 0-4.941.906-6.875 2.734-4.008 3.797-4.184 10.125-.387 14.141 2.782 2.938 68.5 72.102 106.481 91.418 4.937 2.477 10.941.547 13.449-4.387 2.5-4.922.535-10.937-4.387-13.445-34.906-17.746-100.359-86.645-101.019-87.336-1.969-2.078-4.61-3.125-7.262-3.125" fill="#e1e3cc"/><path d="m279.953 100c-38.48 0-77.07 13.797-107.75 41.762-65.301 59.535-69.973 160.734-10.441 226.035 31.566 34.625 74.851 52.203 118.285 52.203 20.769 0 41.566-4.016 61.144-12.117l-32.484-35.629c-11.164-12.246-13.504-28.285-5.23-35.828l49.933-45.524c2.879-2.625 6.66-3.875 10.836-3.875 7.84 0 17.074 4.399 24.356 12.387l32.656 35.816c30.914-58.042 23.82-131.648-23.02-183.027-31.566-34.625-74.851-52.203-118.285-52.203" fill="#b77744"/><path d="m421.258 335.23c-7.266 13.645-16.625 26.422-28.067 37.856 5.95 6.016 14.055 14.066 23.215 22.769l17.852-16.277c8.273-7.543 5.93-23.582-5.231-35.828zm-54.313 59.114c-8.254 5.355-16.875 9.867-25.754 13.539l7.938 8.711c7.281 7.984 16.519 12.383 24.355 12.383 4.18 0 7.961-1.25 10.84-3.872l6.598-6.019c-12.719-12.473-21.574-21.797-22.559-22.836-.558-.59-1.031-1.23-1.418-1.906" fill="#b77744"/><path d="m393.191 373.086c-1.746 1.75-3.55 3.469-5.394 5.152-1.609 1.465-3.238 2.895-4.891 4.282.535.566 9.719 10.214 22.84 23.054l10.66-9.719c-9.16-8.703-17.265-16.753-23.215-22.769" fill="#97633d"/><path d="m382.906 382.52c-5.129 4.316-10.468 8.261-15.961 11.824.387.676.86 1.316 1.418 1.906.985 1.039 9.84 10.363 22.559 22.836l14.824-13.512c-13.121-12.84-22.305-22.488-22.84-23.054" fill="#b7b7a7"/><path d="m364.246 287.027c-4.176 0-7.957 1.25-10.836 3.875l-49.933 45.524c-8.274 7.543-5.934 23.582 5.23 35.828l32.484 35.629c8.879-3.672 17.5-8.184 25.754-13.539-2.246-3.914-1.613-8.992 1.805-12.235.973-.918 2.082-1.605 3.258-2.058-2.035-2.11-3.305-3.446-3.645-3.801-3.797-4.008-3.621-10.336.387-14.137 1.934-1.832 4.402-2.738 6.875-2.738 2.652 0 5.293 1.051 7.262 3.125.156.164 4.031 4.242 10.304 10.586 11.442-11.434 20.801-24.211 28.067-37.856l-32.656-35.816c-7.282-7.988-16.516-12.387-24.356-12.387" fill="#97633d"/><path d="m375.625 359.375c-2.473 0-4.941.906-6.875 2.738-4.008 3.801-4.184 10.129-.387 14.137.34.355 1.61 1.691 3.645 3.801 1.16-.453 2.39-.676 3.617-.676 2.652 0 5.293 1.047 7.262 3.125.004.004.008.012.019.02 1.653-1.387 3.282-2.817 4.891-4.282 1.844-1.683 3.648-3.402 5.394-5.152-6.273-6.344-10.148-10.422-10.304-10.586-1.969-2.074-4.61-3.125-7.262-3.125" fill="#7e5337"/><path d="m375.625 379.375c-1.227 0-2.457.223-3.617.676-1.176.453-2.285 1.14-3.258 2.058-3.418 3.243-4.051 8.321-1.805 12.235 5.493-3.563 10.832-7.508 15.961-11.824-.011-.008-.015-.016-.019-.02-1.969-2.078-4.61-3.125-7.262-3.125" fill="#97978c"/><path d="m398.238 172.203c-59.535-65.301-160.734-69.973-226.035-10.441-65.301 59.535-69.973 160.734-10.441 226.035 59.535 65.301 160.734 69.973 226.035 10.441 65.301-59.535 69.973-160.734 10.441-226.035" fill="#495672"/><path d="m388.602 319.414c-11.161-12.246-26.918-16.055-35.192-8.512l-49.933 45.524c-8.274 7.543-5.934 23.582 5.23 35.828l40.422 44.34c11.164 12.242 26.922 16.051 35.195 8.511l49.934-45.527c8.273-7.543 5.93-23.582-5.231-35.828z" fill="#495672"/><path d="m470 420c-7.457 0-14.437 2.039-20.414 5.594 12.437 10.336 24.57 19.285 34.32 24.242 4.922 2.504 6.887 8.523 4.387 13.445-1.426 2.801-3.988 4.645-6.84 5.25.832.461 1.652.895 2.453 1.305 4.922 2.508 6.887 8.523 4.387 13.445-1.77 3.477-5.273 5.465-8.922 5.465-1.523 0-3.07-.348-4.527-1.078-12.856-6.539-28.887-18.789-44.586-32.246-.168 1.504-.258 3.027-.258 4.578 0 22.094 17.91 40 40 40s40-17.906 40-40c0-22.09-17.91-40-40-40" fill="#b77744"/><path d="m449.586 425.594c-4.438 2.64-8.324 6.113-11.438 10.203 15.211 13.391 30.915 25.891 43.305 32.734 2.852-.605 5.414-2.449 6.84-5.25 2.5-4.922.535-10.941-4.387-13.445-9.75-4.957-21.883-13.906-34.32-24.242" fill="#97633d"/><path d="m438.148 435.797c-4.242 5.578-7.054 12.301-7.89 19.625 15.699 13.457 31.73 25.707 44.586 32.246 1.457.73 3.004 1.078 4.527 1.078 3.649 0 7.152-1.988 8.922-5.465 2.5-4.922.535-10.937-4.387-13.445-.801-.41-1.621-.844-2.453-1.305-12.39-6.843-28.094-19.343-43.305-32.734" fill="#b7b7a7"/><path d="m510 470c0-22.09-17.91-40-40-40s-40 17.91-40 40c0 22.094 17.91 40 40 40s40-17.906 40-40" fill="#c84755"/><path d="m490 470c0-11.047-8.953-20-20-20s-20 8.953-20 20 8.953 20 20 20 20-8.953 20-20" fill="#f3cc70"/></g></svg>