<svg height="85.333336" viewBox="0 0 85.333336 85.333336" width="85.333336" xmlns="http://www.w3.org/2000/svg"><g transform="matrix(.13333333 0 0 -.13333333 0 85.333333)"><path d="m640 320c0-176.73-143.27-320-320-320s-320 143.27-320 320 143.27 320 320 320 320-143.27 320-320" fill="#7db6d8"/><path d="m480 120h-320c-22.09 0-40 17.91-40 40v300-35-245c0-22.09 17.906-40 40-40h320c22.094 0 40 17.91 40 40v-20c0-22.09-17.91-40-40-40" fill="#6594b2"/><path d="m120 425v-245c0-22.09 17.906-40 40-40h320c22.094 0 40 17.91 40 40v245z" fill="#fff"/><path d="m520 460c0 22.09-17.91 40-40 40 22.094 0 40-17.906 40-40m-400 0c0 22.094 17.906 40 40 40-22.09 0-40-17.91-40-40" fill="#6594b2"/><path d="m520 425h-400v35c0 22.09 17.91 40 40 40h320c22.09 0 40-17.91 40-40z" fill="#567a95"/><path d="m120 400h400v25h-400z" fill="#d4d3d1"/><path d="m520 480c0 22.094-17.906 40-40 40h-320c-22.094 0-40-17.906-40-40v-60h400z" fill="#e1e3cc"/><path d="m250 470c0 11.047-8.953 20-20 20s-20-8.953-20-20 8.953-20 20-20 20 8.953 20 20" fill="#e08e4c"/><path d="m310 470c0 11.047-8.953 20-20 20s-20-8.953-20-20 8.953-20 20-20 20 8.953 20 20" fill="#77caa9"/><path d="m190 470c0 11.047-8.953 20-20 20s-20-8.953-20-20 8.953-20 20-20 20 8.953 20 20" fill="#c84755"/><path d="m280 180h-120v180h120z" fill="#495672"/><g fill="#e1e3cc"><path d="m480 340h-160v20h160z"/><path d="m480 300h-160v20h160z"/><path d="m480 260h-160v20h160z"/><path d="m480 220h-160v20h160z"/><path d="m480 180h-160v20h160z"/></g></g></svg>