<svg height="85.333336" viewBox="0 0 85.333336 85.333336" width="85.333336" xmlns="http://www.w3.org/2000/svg"><g transform="matrix(.13333333 0 0 -.13333333 0 85.333333)"><path d="m640 320c0-176.73-143.27-320-320-320s-320 143.27-320 320 143.27 320 320 320 320-143.27 320-320" fill="#77caa9"/><path d="m439.598 120c-7.723 0-16.453 3.719-23.473 10.738l-35.355 35.356-7.071 7.07-59.918 59.914c4.422 2.711 9.098 5.891 14.055 9.586l52.934-52.934 20.785 20.786-50.977 50.972 50.977-50.972 41.566 41.57-51.043 51.039 51.043-51.039 8.965 8.965 4.75-4.75 7.07-7.071 35.356-35.355c11.715-11.715 14.234-28.191 5.625-36.801l-51.961-51.961c-3.449-3.453-8.164-5.113-13.328-5.113m-186.516 173.781-67.98 67.977-28.856 84.281-14.426 42.141 42.141-14.426 45.602-15.613-37.817-37.817 89.742-89.746-75.601 75.606-20.785-20.786 77.562-77.562c-3.691-4.957-6.875-9.637-9.582-14.055m70.043 78.301-82.152 82.148 9.66-3.304-3.176-3.176z" fill="#62a48d"/><path d="m373.699 196.801c-11.719 11.719-14.234 28.191-5.625 36.801l51.961 51.961c8.61 8.609 25.086 6.093 36.801-5.625l42.426-42.426c11.715-11.715 14.234-28.192 5.625-36.801l-51.961-51.961c-8.61-8.609-25.086-6.09-36.801 5.625z" fill="#c84755"/><g fill="#e08e4c"><path d="m247.457 447.75 20.781 20.785 195.668-195.668-20.785-20.781z"/><path d="m191.746 420.324 41.567 41.567 209.808-209.805-41.566-41.57z"/><path d="m185.102 385.398 20.785 20.786 195.668-195.668-20.785-20.786z"/></g><path d="m141.82 511.82 14.426-42.14 27.715 27.711z" fill="#495672"/><path d="m268.238 468.535-84.277 28.856-27.715-27.711 28.856-84.282 10.394 10.391 24.531-3.75-7.5 49.07 49.071-7.5-3.75 24.532z" fill="#f3cc70"/><path d="m183.359 132.613c-27.882 0-52.836 6.965-63.359 17.489 30 19.898 37.332 47.836 44.945 70.148 3.961 11.605 9.258 22.344 18.938 32.02 13.512 13.511 33.289 21.148 52.398 21.148 2.258 0 4.508-.109 6.739-.324 2.101 6.199 5.378 13.054 10.062 20.687l60.699-60.703c-7.683-4.715-14.59-8.012-20.82-10.109 1.426-14.813-1.844-30.512-9.246-43.797-3.133-5.617-6.957-10.805-11.445-15.289-22.461-22.461-57.543-31.27-88.911-31.27" fill="#62a48d"/><path d="m313.781 233.078-60.699 60.703c2.707 4.418 5.891 9.098 9.582 14.055l65.172-65.172c-4.957-3.695-9.633-6.875-14.055-9.586" fill="#538777"/><path d="m411.586 325.188-66.398 66.398c55.703 47.617 119.007 90.012 144.66 90.012 3.82 0 6.804-.942 8.804-2.942 15.45-15.449-32.359-89.476-87.066-153.468" fill="#62a48d"/><path d="m350.578 261.488-69.09 69.09zm41.5 41.637-68.953 68.957z" fill="#538777"/><path d="m392.078 303.125-68.953 68.957c7.145 6.535 14.531 13.066 22.063 19.504l66.398-66.398c-6.438-7.532-12.969-14.918-19.508-22.063" fill="#b77744"/><path d="m350.578 261.488-69.09 69.09c5.492 6.094 11.614 12.524 18.422 19.332 7.305 7.305 15.098 14.742 23.215 22.172l68.953-68.957c-7.426-8.113-14.863-15.91-22.168-23.215-6.805-6.805-13.238-12.93-19.332-18.422" fill="#b77744"/><path d="m327.836 242.664-65.172 65.172c5.215 6.996 11.449 14.559 18.824 22.742l69.09-69.09c-8.18-7.375-15.742-13.609-22.742-18.824" fill="#b77744"/><path d="m299.91 369.91c-68.34-68.34-68.074-99.414-48.742-118.742 19.328-19.332 50.402-19.598 118.742 48.742 68.344 68.344 148.074 179.414 128.742 198.742-19.328 19.332-130.398-60.398-198.742-128.742" fill="#f3cc70"/><path d="m120 170.102c22.363-22.368 109.844-28.645 152.27 13.781 4.488 4.484 8.312 9.672 11.445 15.289-66.375 1.98-101.453 24.078-118.77 41.078-7.613-22.312-14.945-50.25-44.945-70.148" fill="#c84755"/><path d="m277.574 277.574c-24.406 24.406-69.285 19.106-93.691-5.304-9.68-9.676-14.977-20.415-18.938-32.02 17.317-17 51.305-69.418 118.77-41.078 13.894 24.933 13.781 58.48-6.141 78.402" fill="#495672"/><path d="m164.945 240.25s40.219 7.641 59.383-20.59c19.168-28.226 59.387-20.488 59.387-20.488l-52.047-28.754-52.086 37.914z" fill="#c84755"/></g></svg>