<svg height="85.333336" viewBox="0 0 85.333336 85.333336" width="85.333336" xmlns="http://www.w3.org/2000/svg"><g transform="matrix(.13333333 0 0 -.13333333 0 85.333333)"><path d="m638.332 320c0-176.73-143.266-320-320-320-176.73 0-319.99997 143.27-319.99997 320s143.26997 320 319.99997 320c176.734 0 320-143.27 320-320" fill="#495672"/><g fill="#404a5f"><path d="m440 230c-11.047 0-20 8.953-20 20s8.953 20 20 20 20-8.953 20-20-8.953-20-20-20"/><path d="m440 110c-11.047 0-20 8.953-20 20s8.953 20 20 20 20-8.953 20-20-8.953-20-20-20"/><path d="m200 320c-11.047 0-20 8.953-20 20v40h-40c-11.047 0-20 8.953-20 20s8.953 20 20 20h40v40c0 11.047 8.953 20 20 20s20-8.953 20-20v-40h40c11.047 0 20-8.953 20-20s-8.953-20-20-20h-40v-40c0-11.047-8.953-20-20-20"/><path d="m500 380h-120c-11.047 0-20 8.953-20 20s8.953 20 20 20h120c11.047 0 20-8.953 20-20s-8.953-20-20-20"/><path d="m500 170h-120c-11.047 0-20 8.953-20 20s8.953 20 20 20h120c11.047 0 20-8.953 20-20s-8.953-20-20-20"/><path d="m254.141 105.859c-5.118 0-10.235 1.954-14.141 5.856l-40 40-40-40c-3.906-3.902-9.023-5.856-14.141-5.856-5.121 0-10.238 1.954-14.144 5.856-7.809 7.812-7.809 20.476 0 28.285l40 40-40 40c-7.809 7.809-7.809 20.473 0 28.285 3.906 3.903 9.023 5.856 14.144 5.856 5.118 0 10.235-1.953 14.141-5.856l40-40 40 40c3.906 3.903 9.023 5.856 14.141 5.856 5.121 0 10.238-1.953 14.144-5.856 7.809-7.812 7.809-20.476 0-28.285l-40-40 40-40c7.809-7.809 7.809-20.473 0-28.285-3.906-3.902-9.023-5.856-14.144-5.856"/></g><path d="m460 270c0 11.047-8.953 20-20 20s-20-8.953-20-20 8.953-20 20-20 20 8.953 20 20" fill="#e1e3cc"/><path d="m460 150c0 11.047-8.953 20-20 20s-20-8.953-20-20 8.953-20 20-20 20 8.953 20 20" fill="#e1e3cc"/><path d="m280 420c0-11.047-8.953-20-20-20h-120c-11.047 0-20 8.953-20 20s8.953 20 20 20h120c11.047 0 20-8.953 20-20" fill="#f3cc70"/><path d="m520 420c0-11.047-8.953-20-20-20h-120c-11.047 0-20 8.953-20 20s8.953 20 20 20h120c11.047 0 20-8.953 20-20" fill="#e08e4c"/><path d="m200 340c-11.047 0-20 8.953-20 20v120c0 11.047 8.953 20 20 20s20-8.953 20-20v-120c0-11.047-8.953-20-20-20" fill="#f3cc70"/><path d="m520 210c0-11.047-8.953-20-20-20h-120c-11.047 0-20 8.953-20 20s8.953 20 20 20h120c11.047 0 20-8.953 20-20" fill="#e1e3cc"/><path d="m268.285 131.715c-7.812-7.809-20.472-7.809-28.285 0l-108.285 108.285c-7.809 7.809-7.809 20.473 0 28.285 7.812 7.809 20.476 7.809 28.285 0l108.285-108.285c7.809-7.809 7.809-20.473 0-28.285" fill="#77caa9"/><path d="m131.715 131.715c-7.809 7.812-7.809 20.476 0 28.285l108.285 108.285c7.813 7.809 20.473 7.809 28.285 0 7.809-7.812 7.809-20.476 0-28.285l-108.285-108.285c-7.809-7.809-20.473-7.809-28.285 0" fill="#77caa9"/></g></svg>