<svg height="85.333336" viewBox="0 0 85.333336 85.333336" width="85.333336" xmlns="http://www.w3.org/2000/svg"><g transform="matrix(.13333333 0 0 -.13333333 0 85.333333)"><path d="m640 320c0-176.73-143.27-320-320-320s-320 143.27-320 320 143.27 320 320 320 320-143.27 320-320" fill="#e1e3cc"/><path d="m450 140h-260c-16.57 0-30 13.43-30 30l-37.777 170h4.445l33.332-150c0-16.57 13.43-30 30-30h260c16.57 0 30 13.43 30 30l33.332 150h4.445l-37.777-170c0-16.57-13.43-30-30-30m-10 70v40c0 11.047-8.953 20-20 20s-20-8.953-20-20v20c0 11.047 8.953 20 20 20s20-8.953 20-20zm-100 0v40c0 11.047-8.953 20-20 20s-20-8.953-20-20v20c0 11.047 8.953 20 20 20s20-8.953 20-20zm-100 0v40c0 11.047-8.953 20-20 20s-20-8.953-20-20v20c0 11.047 8.953 20 20 20s20-8.953 20-20z" fill="#b7b7a7"/><path d="m440 210c0-11.047-8.953-20-20-20s-20 8.953-20 20v60c0 11.047 8.953 20 20 20s20-8.953 20-20zm-100 0c0-11.047-8.953-20-20-20s-20 8.953-20 20v60c0 11.047 8.953 20 20 20s20-8.953 20-20zm-100 0c0-11.047-8.953-20-20-20s-20 8.953-20 20v60c0 11.047 8.953 20 20 20s20-8.953 20-20zm250 190h-340c-16.57 0-30-13.43-30-30l40-180c0-16.57 13.43-30 30-30h260c16.57 0 30 13.43 30 30l40 180c0 16.57-13.43 30-30 30" fill="#e08e4c"/><path d="m540 340h-22.223l2.223 10c0 3.508-.602 6.871-1.707 10h21.707c7.402 0 13.867 4.023 17.324 10 1.703-2.941 2.676-6.355 2.676-10 0-11.047-8.953-20-20-20" fill="#b7b7a7"/><path d="m517.777 340h-4.445l4.445 20h.516c1.105-3.129 1.707-6.492 1.707-10z" fill="#97978c"/><path d="m513.332 340h-173.906l14.808 20h163.543z" fill="#b77744"/><path d="m122.223 340h-22.223c-11.0469 0-20 8.953-20 20 0 3.645.9727 7.059 2.6758 10 3.457-5.977 9.9219-10 17.3242-10h21.707c-1.105-3.129-1.707-6.492-1.707-10z" fill="#b7b7a7"/><path d="m126.668 340h-4.445l-2.223 10c0 3.508.602 6.871 1.707 10h.516z" fill="#97978c"/><path d="m290.195 340h-163.527l-4.445 20h182.785z" fill="#b77744"/><path d="m560 380c0-11.047-8.953-20-20-20h-440c-11.0469 0-20 8.953-20 20s8.9531 20 20 20h440c11.047 0 20-8.953 20-20" fill="#e08e4c"/><path d="m300 300c-5.117 0-10.238 1.953-14.141 5.859-7.812 7.809-7.812 20.473 0 28.282l4.336 5.859h49.231l-25.285-34.141c-3.903-3.906-9.024-5.859-14.141-5.859" fill="#b77744"/><path d="m383.855 400h-49.23l65.375 88.285c3.906 3.906 9.023 5.856 14.141 5.856 5.121 0 10.238-1.95 14.144-5.856 7.809-7.812 7.809-20.472 0-28.285z" fill="#b7b7a7"/><path d="m339.426 340h-49.231l14.813 20h49.226z" fill="#97633d"/><path d="m354.234 360h-49.226l29.617 40h49.23z" fill="#b77744"/><path d="m428.285 508.285c7.809-7.812 7.809-20.472 0-28.285l-114.144-154.141c-7.809-7.812-20.473-7.812-28.282 0-7.812 7.809-7.812 20.473 0 28.282l114.141 154.144c7.809 7.809 20.473 7.809 28.285 0" fill="#495672"/></g></svg>