<svg height="85.333336" viewBox="0 0 85.333336 85.333336" width="85.333336" xmlns="http://www.w3.org/2000/svg"><g transform="matrix(.13333333 0 0 -.13333333 0 85.333333)"><path d="m640 320c0-176.73-143.27-320-320-320s-320 143.27-320 320 143.27 320 320 320 320-143.27 320-320" fill="#f3cc70"/><path d="m540 320c0-121.504-98.496-220-220-220s-220 98.496-220 220 98.496 220 220 220 220-98.496 220-220" fill="#e1e3cc"/><path d="m320 80c-121.504 0-220 98.496-220 220 0 3.352.074 6.684.223 10 5.23-116.859 101.625-210 219.777-210s214.547 93.141 219.777 210c.149-3.316.223-6.648.223-10 0-121.504-98.496-220-220-220" fill="#c7a85f"/><path d="m469.672 310c-5.168 78.063-70.324 140-149.672 140s-144.504-61.937-149.672-140c-.219 3.309-.328 6.637-.328 10 0 82.711 67.289 150 150 150s150-67.289 150-150c0-3.363-.109-6.691-.328-10" fill="#b7b7a7"/><path d="m320 540c-121.504 0-220-98.496-220-220s98.496-220 220-220 220 98.496 220 220-98.496 220-220 220m0-70c82.711 0 150-67.289 150-150s-67.289-150-150-150-150 67.289-150 150 67.289 150 150 150" fill="#495672"/><g fill="#b7b7a7"><path d="m420 310.129c-11.047 0-20 8.953-20 20 0 11.043 8.953 20 20 20s20-8.957 20-20c0-11.047-8.953-20-20-20"/><path d="m320 390c-11.047 0-20 8.953-20 20s8.953 20 20 20 20-8.953 20-20-8.953-20-20-20"/><path d="m220 310.129c-11.047 0-20 8.953-20 20 0 11.043 8.953 20 20 20s20-8.957 20-20c0-11.047-8.953-20-20-20"/><path d="m260 200c-11.047 0-20 8.953-20 20s8.953 20 20 20 20-8.953 20-20-8.953-20-20-20"/><path d="m380 200c-11.047 0-20 8.953-20 20s8.953 20 20 20 20-8.953 20-20-8.953-20-20-20"/></g><path d="m440 340.129c0-11.047-8.953-20-20-20s-20 8.953-20 20c0 11.043 8.953 20 20 20s20-8.957 20-20" fill="#c84755"/><path d="m340 420c0-11.047-8.953-20-20-20s-20 8.953-20 20 8.953 20 20 20 20-8.953 20-20" fill="#c84755"/><path d="m320 250c-27.613 0-50 22.387-50 50s22.387 50 50 50 50-22.387 50-50-22.387-50-50-50" fill="#b7b7a7"/><path d="m370 320c0-27.613-22.387-50-50-50s-50 22.387-50 50 22.387 50 50 50 50-22.387 50-50" fill="#495672"/><path d="m240 340.129c0-11.047-8.953-20-20-20s-20 8.953-20 20c0 11.043 8.953 20 20 20s20-8.957 20-20" fill="#c84755"/><path d="m280 230c0-11.047-8.953-20-20-20s-20 8.953-20 20 8.953 20 20 20 20-8.953 20-20" fill="#c84755"/><path d="m400 230c0-11.047-8.953-20-20-20s-20 8.953-20 20 8.953 20 20 20 20-8.953 20-20" fill="#c84755"/></g></svg>