<svg height="85.333336" viewBox="0 0 85.333336 85.333336" width="85.333336" xmlns="http://www.w3.org/2000/svg"><g transform="matrix(.13333333 0 0 -.13333333 0 85.333333)"><path d="m640 320c0-176.73-143.27-320-320-320s-320 143.27-320 320 143.27 320 320 320 320-143.27 320-320" fill="#c84755"/><path d="m427.082 309.809c-27.457-32.555-67.062-48.918-107.082-48.946-40.02.028-79.629 16.391-107.082 48.946-7.121 8.445-19.738 9.515-28.184 2.394-8.441-7.121-9.515-19.738-2.39-28.183 35.578-42.18 86.824-63.188 137.656-63.157 50.832-.031 102.078 20.977 137.656 63.157 7.121 8.445 6.051 21.062-2.39 28.183-8.446 7.121-21.063 6.051-28.184-2.394z" fill="#e1e3cc"/><path d="m340 470v50c0 11.047-8.953 20-20 20s-20-8.953-20-20v-50c0-11.047 8.953-20 20-20s20 8.953 20 20" fill="#e1e3cc"/><path d="m179.984 99.9922c-3.199 0-6.449.7738-9.464 2.4028-9.731 5.234-13.368 17.363-8.125 27.085l.281.524c1.793-3.113 4.445-5.785 7.844-7.613 3.015-1.625 6.261-2.395 9.46-2.395 7.125 0 14.016 3.813 17.629 10.524s25.903 48.097 55.422 102.921c2.981-1.168 5.985-2.253 9.012-3.257l-64.438-119.664c-3.609-6.707-10.496-10.5278-17.621-10.5278m280.036.0039c-7.125 0-14.02 3.8129-17.625 10.5239l-64.438 119.664c3.027 1.004 6.035 2.089 9.012 3.257 29.519-54.82 55.422-102.921 55.422-102.921 3.613-6.711 10.504-10.524 17.625-10.524 3.203 0 6.449.77 9.464 2.395 3.399 1.828 6.051 4.5 7.844 7.613l.281-.524c5.243-9.722 1.606-21.851-8.125-27.085-3.015-1.629-6.261-2.3989-9.46-2.3989m-178.637 166.1019c-3.102.859-6.168 1.824-9.211 2.894 6.629 12.313 13.207 24.528 19.488 36.192 2.992-1.137 6.07-2.098 9.223-2.875zm77.234 0-19.5 36.211c3.153.777 6.231 1.738 9.223 2.875 6.281-11.664 12.855-23.879 19.488-36.192-3.043-1.07-6.109-2.035-9.211-2.894m-38.617 73.902c-3.637 0-7.156.488-10.508 1.398.098.903.133 1.805.106 2.704 5.504-2.247 10.699-3.457 15.632-3.762-1.71-.223-3.457-.34-5.23-.34" fill="#a43f4a"/><path d="m377.957 230.184-19.34 35.914c3.102.859 6.168 1.824 9.211 2.894 6.402-11.89 12.852-23.871 19.141-35.551-2.977-1.168-5.985-2.253-9.012-3.257m-115.914 0c-3.027 1.004-6.031 2.089-9.012 3.257 6.285 11.676 12.739 23.664 19.141 35.551 3.043-1.07 6.109-2.035 9.211-2.894z" fill="#b7b7a7"/><path d="m333.832 332.129c41.277-76.66 108.559-201.609 108.559-201.609 5.238-9.727 17.367-13.368 27.089-8.129 9.727 5.238 13.368 17.367 8.129 27.089 0 0-67.281 124.95-108.558 201.61-5.238 9.726-17.367 13.367-27.094 8.129-9.723-5.239-13.363-17.367-8.125-27.094z" fill="#e1e3cc"/><path d="m197.609 130.52s68.426 127.074 109.602 203.546c5.238 9.727 1.598 21.856-8.125 27.09-9.727 5.239-21.856 1.598-27.094-8.125-41.176-76.472-109.601-203.551-109.601-203.551-5.239-9.722-1.598-21.851 8.129-27.089 9.722-5.239 21.851-1.598 27.089 8.129z" fill="#e1e3cc"/><path d="m320 300c-6.586 0-12.992.801-19.117 2.309l19.117 35.504 19.117-35.504c-6.125-1.508-12.531-2.309-19.117-2.309m7.742 40.262c-.828 0-1.668.027-2.512.078 2.125.277 4.2.726 6.208 1.324-.004-.406.007-.816.031-1.226-1.227-.118-2.465-.176-3.727-.176" fill="#a43f4a"/><path d="m339.117 302.309-19.117 35.504-19.117-35.504c-3.153.777-6.231 1.738-9.223 2.875 5.461 10.14 10.695 19.859 15.551 28.882 1.266 2.348 2.012 4.836 2.281 7.332 3.352-.91 6.871-1.398 10.508-1.398 1.773 0 3.52.117 5.23.34.844-.051 1.684-.078 2.512-.078 1.262 0 2.5.058 3.727.176.164-2.825.933-5.657 2.363-8.313v.004c4.559-8.473 9.438-17.531 14.508-26.945-2.992-1.137-6.07-2.098-9.223-2.875" fill="#883840"/><path d="m258.801 328.531c-11.727 13.922-18.801 31.883-18.801 51.469 0 38.543 27.402 70.809 63.746 78.34 3.633-5.051 9.559-8.34 16.254-8.34s12.621 3.289 16.254 8.34c36.344-7.531 63.746-39.797 63.746-78.34 0-19.586-7.074-37.547-18.801-51.469-4.226 7.848-8.301 15.41-12.148 22.559-2.949 5.473-8.078 9.019-13.735 10.14 2.989 5.598 4.684 11.993 4.684 18.77 0 22.055-17.945 40-40 40s-40-17.945-40-40c0-6.184 1.41-12.043 3.926-17.273-4.934-1.461-9.301-4.813-11.934-9.696-4.148-7.711-8.582-15.941-13.191-24.5" fill="#a43f4a"/><g fill="#b7b7a7"><path d="m320 450c-6.695 0-12.621 3.289-16.254 8.34 5.25 1.09 10.688 1.66 16.254 1.66s11.004-.57 16.254-1.66c-3.633-5.051-9.559-8.34-16.254-8.34"/><path d="m348.34 305.184c-5.07 9.414-9.949 18.472-14.508 26.945v-.004c-1.43 2.656-2.199 5.488-2.363 8.313-.024.41-.035.82-.031 1.226 10.316 3.086 18.894 10.227 23.878 19.566 5.657-1.121 10.786-4.667 13.735-10.14 3.847-7.149 7.922-14.711 12.148-22.559-8.715-10.347-20-18.461-32.859-23.347"/><path d="m291.66 305.184c-12.859 4.886-24.144 13-32.859 23.347 4.609 8.559 9.043 16.789 13.191 24.5 2.633 4.883 7 8.235 11.934 9.696 4.98-10.36 14.289-18.254 25.566-21.329-.269-2.496-1.015-4.984-2.281-7.332-4.856-9.023-10.09-18.742-15.551-28.882"/></g><path d="m380 400h-20c-.012-11.109-4.445-20.98-11.715-28.285-7.305-7.27-17.176-11.703-28.285-11.715-11.109.012-20.984 4.445-28.285 11.715-7.27 7.305-11.703 17.176-11.715 28.285.012 11.109 4.445 20.984 11.715 28.285 7.301 7.27 17.176 11.703 28.285 11.715 11.109-.012 20.98-4.445 28.285-11.715 7.27-7.301 11.703-17.176 11.715-28.285h20 20c-.012 44.191-35.809 79.988-80 80-44.191-.012-79.988-35.809-80-80 .012-44.191 35.809-79.988 80-80 44.191.012 79.988 35.809 80 80z" fill="#e1e3cc"/></g></svg>