<svg height="85.333336" viewBox="0 0 85.333336 85.333336" width="85.333336" xmlns="http://www.w3.org/2000/svg"><g transform="matrix(.13333333 0 0 -.13333333 0 85.333333)"><path d="m640 320c0-176.73-143.27-320-320-320s-320 143.27-320 320 143.27 320 320 320 320-143.27 320-320" fill="#7db6d8"/><path d="m500 110h-360c-11.047 0-20 8.953-20 20v150 41.707-21.707h16.719l50 50-50-50h56.562l50 50h20 63.438 56.562 63.438 56.562 16.719v-70-150c0-11.047-8.953-20-20-20" fill="#6594b2"/><path d="m204.305 367.586 2.414 2.414h-54.36c-1.867 2.09-4.023 3.914-6.41 5.414l34.68 7.234 44.531 71.012 14.434 3.008 60.918 12.711 54.312 11.328 60.918 12.711 54.317 11.328 5.597 1.168c1.375.289 2.75.426 4.102.426 9.273 0 17.59-6.485 19.558-15.918l12.254-58.738-100.476-20.957-54.317-11.332-60.914-12.711-54.316-11.329-25.668-5.355h-9.16zm-89.68 8.18-6.879 32.968c-.93 4.457-.297 8.879 1.527 12.692l9.125-43.75c-1.304-.551-2.57-1.188-3.773-1.91" fill="#6594b2"/><g fill="#495672"><path d="m120 300v-150c0-11.047 8.953-20 20-20h360c11.047 0 20 8.953 20 20v150z"/><path d="m120 370v-70h16.719l70 70z"/><path d="m383.281 370-70-70h63.438l70 70z"/><path d="m263.281 370-70-70h63.438l70 70z"/></g><path d="m206.719 370-70-70h56.562l70 70z" fill="#fff"/><path d="m326.719 370-70-70h56.562l70 70z" fill="#fff"/><path d="m446.719 370-70-70h56.562l70 70z" fill="#fff"/><path d="m520 370h-16.719l-70-70h60.157l26.562 26.563z" fill="#495672"/><path d="m493.438 300h26.562v26.563z" fill="#fff"/><path d="m239.594 476.672-58.965-94.024 60.918 12.707 58.965 94.024z" fill="#495672"/><path d="m354.824 500.711-58.961-94.023 60.914 12.707 58.965 94.023z" fill="#495672"/><path d="m123.242 452.398c-10.812-2.257-17.75-12.851-15.496-23.664l12.254-58.734 6.313 1.316 58.964 94.024z" fill="#495672"/><path d="m185.277 465.34-58.964-94.024 54.316 11.332 58.965 94.024z" fill="#fff"/><path d="m300.512 489.379-58.965-94.024 54.316 11.333 58.961 94.023z" fill="#fff"/><path d="m470.059 524.746-54.317-11.328-58.965-94.023 54.317 11.332z" fill="#fff"/><path d="m499.316 510.422c-2.253 10.812-12.847 17.75-23.66 15.496l-5.597-1.168-58.965-94.023 61.082 12.742 30.847 49.191z" fill="#495672"/><path d="m503.023 492.66-30.847-49.191 39.394 8.219z" fill="#fff"/><path d="m120 321.707c-11.652 4.117-20 15.231-20 28.293 0 10.949 5.863 20.527 14.625 25.766l5.375-25.766z" fill="#6594b2"/><path d="m120 350-5.375 25.766c1.203.722 2.469 1.359 3.773 1.91l1.602-7.676zm32.359 20h-32.359l6.313 1.316 5.414 8.633-5.414-8.633 19.636 4.098c2.387-1.5 4.543-3.324 6.41-5.414" fill="#567a95"/><path d="m130 320c-3.508 0-6.871.602-10 1.707v28.293 20h32.359c4.75-5.309 7.641-12.316 7.641-20 0-16.57-13.43-30-30-30" fill="#404a5f"/><path d="m120 370-1.602 7.676c3.571 1.496 7.489 2.324 11.602 2.324.578 0 1.156-.016 1.727-.051l-5.414-8.633z" fill="#404a5f"/><path d="m126.313 371.316 5.414 8.633c5.207-.293 10.058-1.918 14.222-4.535z" fill="#d4d3d1"/><path d="m160 370c0-16.57-13.43-30-30-30s-30 13.43-30 30c0 16.566 13.43 30 30 30s30-13.434 30-30" fill="#495672"/></g></svg>