<svg height="85.333336" viewBox="0 0 85.333336 85.333336" width="85.333336" xmlns="http://www.w3.org/2000/svg"><g transform="matrix(.13333333 0 0 -.13333333 0 85.333333)"><path d="m640 320c0-176.73-143.27-320-320-320s-320 143.27-320 320 143.27 320 320 320 320-143.27 320-320" fill="#7db6d8"/><path d="m480 160h-300c-55.227 0-100 44.773-100 100 0 50.09 36.867 91.453 84.922 98.742 17.344 69.61 80.098 121.258 155.078 121.258 88.363 0 160-71.637 160-160 44.184 0 80-35.816 80-80s-35.816-80-80-80" fill="#6594b2"/><path d="m480 340c0 88.363-71.637 160-160 160-74.98 0-137.734-51.648-155.078-121.258-48.055-7.289-84.922-48.652-84.922-98.742 0-55.227 44.773-100 100-100h300c44.184 0 80 35.816 80 80s-35.816 80-80 80" fill="#fff"/></g></svg>