<svg height="85.333336" viewBox="0 0 85.333336 85.333336" width="85.333336" xmlns="http://www.w3.org/2000/svg"><g transform="matrix(.13333333 0 0 -.13333333 0 85.333333)"><path d="m640 320c0-176.73-143.27-320-320-320s-320 143.27-320 320 143.27 320 320 320 320-143.27 320-320" fill="#495672"/><path d="m440 140c-49.199 0-90.098 35.531-98.445 82.328 1.773.391 3.527.828 5.261 1.309 14.547-37.246 50.786-63.637 93.184-63.637 52.195 0 95.051 39.988 99.602 91 .261-3.637.398-7.309.398-11 0-55.227-44.773-100-100-100" fill="#404a5f"/><path d="m540 260c0-55.227-44.773-100-100-100s-100 44.773-100 100c0 100 100 180 100 180s100-80 100-180" fill="#c84755"/><path d="m320 220c-7.402 0-14.613.805-21.555 2.328 1.024 5.738 1.555 11.641 1.555 17.672 0 .672-.004 1.336-.012 2.004 6.465-1.313 13.16-2.004 20.012-2.004s13.547.691 20.012 2.004c-.008-.668-.012-1.332-.012-2.004 0-6.031.531-11.934 1.555-17.672-6.942-1.523-14.153-2.328-21.555-2.328" fill="#404a5f"/><path d="m341.555 222.328c-1.024 5.738-1.555 11.641-1.555 17.672 0 .672.004 1.336.012 2.004.519.105 1.027.211 1.543.324 1.156-6.465 2.929-12.719 5.261-18.691-1.734-.481-3.488-.918-5.261-1.309" fill="#394051"/><path d="m346.816 223.637c-2.332 5.972-4.105 12.226-5.261 18.691 42.019 9.235 74.14 44.895 78.047 88.672.261-3.637.398-7.309.398-11 0-45.937-30.98-84.641-73.184-96.363" fill="#a43f4a"/><path d="m420 340c0-55.227-44.773-100-100-100s-100 44.773-100 100c0 100 100 180 100 180s100-80 100-180" fill="#7db6d8"/><path d="m200 140c-55.227 0-100 44.773-100 100 0 100 100 180 100 180s12.578-10.062 28.813-27.508c-5.465-16.582-8.813-34.207-8.813-52.492 0-3.035.137-6.035.398-9-.261-3.637-.398-7.309-.398-11 0-47.824 33.578-87.812 78.445-97.672-8.347-46.797-49.246-82.328-98.445-82.328" fill="#404a5f"/><path d="m298.445 222.328c-44.867 9.86-78.445 49.848-78.445 97.672 0 3.691.137 7.363.398 11 3.954-44.312 36.813-80.309 79.59-88.996.008-.668.012-1.332.012-2.004 0-6.031-.531-11.934-1.555-17.672" fill="#394051"/><path d="m299.988 242.004c-42.777 8.687-75.636 44.684-79.59 88.996-.261 2.965-.398 5.965-.398 9 0 18.285 3.348 35.91 8.813 52.492 29.23-31.418 70.324-86.797 71.175-150.488" fill="#6594b2"/><path d="m300 260c0-55.227-44.773-100-100-100s-100 44.773-100 100c0 100 100 180 100 180s100-80 100-180" fill="#f3cc70"/></g></svg>