<svg height="85.333336" viewBox="0 0 85.333336 85.333336" width="85.333336" xmlns="http://www.w3.org/2000/svg"><g transform="matrix(.13333333 0 0 -.13333333 0 85.333333)"><path d="m640 320c0-176.73-143.27-320-320-320s-320 143.27-320 320 143.27 320 320 320 320-143.27 320-320" fill="#495672"/><path d="m540 320c0-121.504-98.496-220-220-220s-220 98.496-220 220 98.496 220 220 220 220-98.496 220-220" fill="#7db6d8"/><path d="m320 80c-121.504 0-220 98.496-220 220 0 3.352.074 6.684.223 10 5.23-116.859 101.625-210 219.777-210s214.547 93.141 219.777 210c.149-3.316.223-6.648.223-10 0-121.504-98.496-220-220-220" fill="#404a5f"/><path d="m499.727 310c-5.207 94.617-83.832 170-179.727 170s-174.52-75.383-179.727-170c-.179 3.313-.273 6.645-.273 10 0 99.254 80.746 180 180 180s180-80.746 180-180c0-3.355-.094-6.687-.273-10" fill="#6594b2"/><path d="m320 540c-121.504 0-220-98.496-220-220s98.496-220 220-220 220 98.496 220 220-98.496 220-220 220m0-40c99.254 0 180-80.746 180-180s-80.746-180-180-180-180 80.746-180 180 80.746 180 180 180" fill="#fff"/><path d="m232.5 200c-3.227 0-6.426 1.25-8.852 3.648-4.125 4.125-4.847 10.528-1.75 15.454l2.446 3.914c2.324-1.985 5.23-3.016 8.156-3.016 2.301 0 4.602.625 6.625 1.898l46.523 29.051 9.278 5.785c6.394-3.714 13.691-6.054 21.48-6.605l-30.758-19.18-46.523-29.051c-2.023-1.273-4.324-1.898-6.625-1.898m137.371 103.594c-.391 5.523-1.68 10.801-3.723 15.683 2.223 2.348 3.54 3.821 3.528 3.996l19.375 31.051 26.601 42.625c.231-.195.453-.406.672-.625 4.153-4.097 4.875-10.5 1.778-15.449l-29.051-46.551z" fill="#6594b2"/><path d="m295 320c0-13.809 11.191-25 25-25s25 11.191 25 25-11.191 25-25 25-25-11.191-25-25m123.102 80.875-29.051-46.551-19.375-31.051c.074-1.097-51.852-53.023-52.949-52.949l-31.079-19.375-46.523-29.051c-2.023-1.273-4.324-1.898-6.625-1.898-3.227 0-6.426 1.25-8.852 3.648-4.125 4.125-4.847 10.528-1.75 15.454l29.051 46.546 19.375 31.051c-.074 1.125 51.852 53.051 52.949 52.977l31.079 19.375 46.523 29.051c4.852 3.074 11.324 2.347 15.449-1.778 4.153-4.097 4.875-10.5 1.778-15.449" fill="#c84755"/><path d="m320 250c-1.207 0-2.406.043-3.594.129l.321.195c1.175 0 53.023 51.852 52.949 52.949l.195.321c.086-1.188.129-2.387.129-3.594 0-27.613-22.387-50-50-50m2.016 25.078c5.433 5.192 14.269 13.914 22.871 22.527-1.141-12.019-10.797-21.562-22.871-22.527" fill="#6594b2"/><path d="m316.406 250.129c-7.789.551-15.086 2.891-21.48 6.605l21.801 13.59c.218 0 2.207 1.809 5.289 4.754 12.074.965 21.73 10.508 22.871 22.527 8.492 8.504 16.75 16.899 21.261 21.672 2.043-4.882 3.332-10.16 3.723-15.683l-.195-.321c.074-1.097-51.774-52.949-52.949-52.949z" fill="#567a95"/><path d="m320 295c-10.254 0-19.062 6.172-22.922 15 3.86 8.828 12.668 15 22.922 15s19.063-6.172 22.922-15c-3.859-8.828-12.668-15-22.922-15m-24.887 27.391c1.141 12.023 10.797 21.566 22.871 22.531-5.433-5.192-14.273-13.918-22.871-22.531" fill="#6594b2"/><path d="m342.922 310c-3.859 8.828-12.668 15-22.922 15s-19.062-6.172-22.922-15c-1.336 3.063-2.078 6.445-2.078 10 0 .809.039 1.602.113 2.391 8.598 8.613 17.438 17.339 22.871 22.531.664.051 1.336.078 2.016.078 13.809 0 25-11.191 25-25 0-3.555-.742-6.937-2.078-10" fill="#567a95"/><path d="m275.098 322.023c4.761 9.688 12.566 17.614 22.168 22.524-8.489-8.484-17.043-17.156-22.168-22.524" fill="#6594b2"/><path d="m294.926 256.734c-14.906 8.657-24.926 24.789-24.926 43.266 0 7.902 1.836 15.379 5.098 22.023 5.125 5.368 13.679 14.04 22.168 22.524 6.82 3.484 14.547 5.453 22.734 5.453 20.781 0 38.602-12.68 46.148-30.723-4.511-4.773-12.769-13.168-21.261-21.672-8.602-8.613-17.438-17.335-22.871-22.527-3.082-2.945-5.071-4.754-5.289-4.754zm2.152 53.266c3.86-8.828 12.668-15 22.922-15s19.063 6.172 22.922 15c1.336 3.063 2.078 6.445 2.078 10 0 13.809-11.191 25-25 25-.68 0-1.352-.027-2.016-.078-12.074-.965-21.73-10.508-22.871-22.531-.074-.789-.113-1.582-.113-2.391 0-3.555.742-6.937 2.078-10" fill="#a43f4a"/><path d="m370 320c0-27.613-22.387-50-50-50s-50 22.387-50 50 22.387 50 50 50 50-22.387 50-50" fill="#fff"/></g></svg>