<svg height="85.333336" viewBox="0 0 85.333336 85.333336" width="85.333336" xmlns="http://www.w3.org/2000/svg"><g transform="matrix(.13333333 0 0 -.13333333 0 85.333333)"><path d="m640 320c0-176.73-143.27-320-320-320s-320 143.27-320 320 143.27 320 320 320 320-143.27 320-320" fill="#e08e4c"/><g fill="#b77744"><path d="m462.781 220h-285.562l29.972 80h225.618z"/><path d="m402.832 380h-165.664l43.879 117.117c10.715 28.59 24.832 42.883 38.953 42.883s28.238-14.293 38.953-42.883z"/><path d="m500 120h-360c-11.047 0-20 8.953-20 20s8.953 20 20 20h360c11.047 0 20-8.953 20-20s-8.953-20-20-20"/></g><path d="m432.809 320h-225.618l-29.972-80h285.562z" fill="#fff"/><path d="m358.953 517.117c-21.426 57.176-56.48 57.176-77.906 0l-43.879-117.117h165.664z" fill="#fff"/><path d="m140 180c-11.047 0-20-8.953-20-20s8.953-20 20-20h360c11.047 0 20 8.953 20 20s-8.953 20-20 20z" fill="#fff"/></g></svg>