<svg height="85.333336" viewBox="0 0 85.333336 85.333336" width="85.333336" xmlns="http://www.w3.org/2000/svg"><g transform="matrix(.13333333 0 0 -.13333333 0 85.333333)"><path d="m640 320c0-176.73-143.27-320-320-320s-320 143.27-320 320 143.27 320 320 320 320-143.27 320-320" fill="#495672"/><path d="m320 60c-8.285 0-15 6.7148-15 15v25.758c-16.859 1.254-33.121 4.551-48.559 9.73l-9.972-23.6677c-2.414-5.7305-7.977-9.1797-13.828-9.1797-1.942 0-3.914.3828-5.821 1.1836-7.632 3.2188-11.215 12.0117-7.996 19.6485l9.973 23.6753c-14.098 7.247-27.203 16.082-39.106 26.332l-18.183-18.183c-2.93-2.93-6.766-4.395-10.606-4.395-3.836 0-7.675 1.465-10.605 4.395-5.859 5.855-5.859 15.355 0 21.211l18.183 18.183c-10.765 12.504-19.933 26.36-27.371 41.27l-23.836-9.707c-1.851-.758-3.765-1.113-5.652-1.113-5.918 0-11.527 3.527-13.8944 9.347-3.125 7.676.5586 16.426 8.2304 19.551l23.707 9.652c-4.75 14.758-7.715 30.278-8.906 46.309h-25.758c-8.2852 0-15 6.715-15 15s6.7148 15 15 15h25.758c1.254 16.859 4.551 33.121 9.73 48.559l-23.668 9.972c-7.6325 3.215-11.2145 12.012-7.9958 19.649 2.4138 5.734 7.9768 9.175 13.8278 9.175 1.942 0 3.918-.378 5.821-1.179l23.675-9.973c7.247 14.098 16.082 27.203 26.332 39.106l-18.183 18.183c-5.859 5.856-5.859 15.356 0 21.211 2.93 2.93 6.769 4.395 10.605 4.395 3.84 0 7.676-1.465 10.606-4.395l18.183-18.183c12.504 10.765 26.36 19.933 41.27 27.371l-9.707 23.836c-3.125 7.671.562 16.421 8.234 19.546 1.856.758 3.774 1.118 5.66 1.118 5.918 0 11.524-3.532 13.891-9.348l9.652-23.707c14.758 4.75 30.278 7.715 46.309 8.906v25.758c0 8.285 6.715 15 15 15s15-6.715 15-15v-25.758c16.859-1.254 33.121-4.551 48.559-9.73l9.972 23.668c2.418 5.734 7.989 9.172 13.84 9.172 1.938 0 3.91-.379 5.809-1.176 7.633-3.215 11.215-12.012 7.996-19.649l-9.973-23.675c14.098-7.247 27.203-16.082 39.106-26.332l18.183 18.183c2.93 2.93 6.766 4.395 10.606 4.395 3.836 0 7.675-1.465 10.605-4.395 5.86-5.855 5.86-15.355 0-21.211l-18.183-18.183c10.765-12.504 19.933-26.36 27.371-41.266l23.836 9.703c1.851.758 3.769 1.113 5.656 1.113 5.918 0 11.527-3.531 13.89-9.347 3.125-7.676-.558-16.426-8.23-19.551l-23.707-9.652c4.75-14.758 7.715-30.278 8.906-46.309h25.758c8.285 0 15-6.715 15-15s-6.715-15-15-15h-25.758c-1.254-16.859-4.551-33.121-9.73-48.559l23.668-9.972c7.633-3.215 11.215-12.012 7.996-19.649-2.414-5.73-7.977-9.179-13.828-9.179-1.942 0-3.914.382-5.821 1.183l-23.675 9.973c-7.247-14.098-16.082-27.203-26.332-39.106l18.183-18.183c5.86-5.856 5.86-15.356 0-21.211-2.93-2.93-6.769-4.395-10.605-4.395-3.84 0-7.676 1.465-10.606 4.395l-18.183 18.183c-12.504-10.765-26.36-19.933-41.27-27.371l9.707-23.8356c3.125-7.6718-.562-16.4218-8.234-19.5468-1.856-.7578-3.77-1.1172-5.653-1.1172-5.918 0-11.531 3.5273-13.898 9.3476l-9.652 23.707c-14.758-4.75-30.278-7.715-46.309-8.906v-25.758c0-8.2852-6.715-15-15-15m0 410c-93.738 0-170-76.262-170-170s76.262-170 170-170 170 76.262 170 170-76.262 170-170 170" fill="#404a5f"/><path d="m320 160c-77.32 0-140 62.68-140 140s62.68 140 140 140 140-62.68 140-140-62.68-140-140-140m0 250c-60.652 0-110-49.348-110-110s49.348-110 110-110z" fill="#404a5f"/><g fill="#e1e3cc"><path d="m490 320c0-93.738-76.262-170-170-170s-170 76.262-170 170 76.262 170 170 170 170-76.262 170-170zm55 15h-25.758c-1.191 16.031-4.156 31.551-8.906 46.309l23.707 9.652c7.672 3.125 11.355 11.875 8.23 19.551-3.117 7.672-11.875 11.367-19.546 8.234l-23.836-9.703c-7.438 14.906-16.606 28.762-27.371 41.266l18.183 18.183c5.86 5.856 5.86 15.356 0 21.211-5.859 5.86-15.351 5.86-21.211 0l-18.183-18.183c-11.903 10.25-25.008 19.085-39.106 26.332l9.973 23.675c3.219 7.637-.363 16.434-7.996 19.649-7.621 3.203-16.426-.36-19.649-7.996l-9.972-23.668c-15.438 5.179-31.7 8.476-48.559 9.73v25.758c0 8.285-6.715 15-15 15s-15-6.715-15-15v-25.758c-16.031-1.191-31.551-4.156-46.309-8.906l-9.652 23.707c-3.121 7.672-11.871 11.367-19.551 8.23-7.672-3.125-11.359-11.875-8.234-19.546l9.707-23.836c-14.91-7.438-28.766-16.606-41.27-27.371l-18.183 18.183c-5.86 5.86-15.352 5.86-21.211 0-5.859-5.855-5.859-15.355 0-21.211l18.183-18.183c-10.25-11.903-19.085-25.008-26.332-39.106l-23.675 9.973c-7.637 3.215-16.434-.36-19.6488-7.996-3.2187-7.637.3633-16.434 7.9958-19.649l23.668-9.972c-5.179-15.438-8.476-31.7-9.73-48.559h-25.758c-8.2852 0-15-6.715-15-15s6.7148-15 15-15h25.758c1.191-16.031 4.156-31.551 8.906-46.309l-23.707-9.652c-7.6718-3.125-11.3554-11.875-8.2304-19.551 2.3674-5.82 7.9764-9.347 13.8944-9.347 1.887 0 3.801.355 5.652 1.113l23.836 9.707c7.438-14.91 16.606-28.766 27.371-41.27l-18.183-18.183c-5.859-5.856-5.859-15.356 0-21.211 2.93-2.93 6.769-4.395 10.605-4.395 3.84 0 7.676 1.465 10.606 4.395l18.183 18.183c11.903-10.25 25.008-19.085 39.106-26.332l-9.973-23.675c-3.219-7.637.364-16.43 7.996-19.6488 1.907-.8008 3.879-1.1836 5.821-1.1836 5.851 0 11.414 3.4494 13.828 9.1794l9.972 23.668c15.438-5.179 31.7-8.476 48.559-9.73v-25.758c0-8.2852 6.715-15 15-15s15 6.7148 15 15v25.758c16.031 1.191 31.551 4.156 46.309 8.906l9.652-23.707c2.367-5.82 7.98-9.3476 13.898-9.3476 1.883 0 3.797.3594 5.653 1.1172 7.672 3.1254 11.359 11.8754 8.234 19.5464l-9.707 23.836c14.91 7.438 28.766 16.606 41.27 27.371l18.183-18.183c2.93-2.93 6.766-4.395 10.606-4.395 3.836 0 7.675 1.465 10.605 4.395 5.86 5.855 5.86 15.355 0 21.211l-18.183 18.183c10.25 11.903 19.085 25.008 26.332 39.106l23.675-9.973c1.907-.801 3.879-1.183 5.821-1.183 5.851 0 11.414 3.449 13.828 9.179 3.219 7.637-.363 16.434-7.996 19.649l-23.668 9.972c5.179 15.438 8.476 31.7 9.73 48.559h25.758c8.285 0 15 6.715 15 15s-6.715 15-15 15"/><path d="m210 320c0 60.652 49.348 110 110 110v-220c-60.652 0-110 49.348-110 110zm110 140c-77.32 0-140-62.68-140-140s62.68-140 140-140 140 62.68 140 140-62.68 140-140 140"/></g></g></svg>