<svg height="85.333336" viewBox="0 0 85.333336 85.333336" width="85.333336" xmlns="http://www.w3.org/2000/svg"><g transform="matrix(.13333333 0 0 -.13333333 0 85.333333)"><path d="m640 320c0-176.73-143.27-320-320-320s-320 143.27-320 320 143.27 320 320 320 320-143.27 320-320" fill="#c84755"/><path d="m490 380v20c11.047 0 20 8.953 20 20v-20c0-11.047-8.953-20-20-20" fill="#a43f4a"/><path d="m490 290v20c11.047 0 20 8.953 20 20v-20c0-11.047-8.953-20-20-20" fill="#a43f4a"/><path d="m490 200v20c11.047 0 20 8.953 20 20v-20c0-11.047-8.953-20-20-20" fill="#a43f4a"/><path d="m490 400c-11.047 0-20 8.953-20 20v30c0 11.047 8.953 20 20 20s20-8.953 20-20v-30c0-11.047-8.953-20-20-20" fill="#7db6d8"/><path d="m490 310c-11.047 0-20 8.953-20 20v30c0 11.047 8.953 20 20 20s20-8.953 20-20v-30c0-11.047-8.953-20-20-20" fill="#fff"/><path d="m490 220c-11.047 0-20 8.953-20 20v30c0 11.047 8.953 20 20 20s20-8.953 20-20v-30c0-11.047-8.953-20-20-20" fill="#77caa9"/><path d="m450 100h-240c-19.645 0-35.984 14.16-39.359 32.832 7.304-7.891 17.754-12.832 29.359-12.832h240c22.09 0 40 17.906 40 40v42.676c2.941-1.703 6.355-2.676 10-2.676v-60c0-22.094-17.91-40-40-40m30 187.324v5.352c2.941-1.703 6.355-2.676 10-2.676-3.645 0-7.059-.973-10-2.676m0 90v5.352c2.941-1.703 6.355-2.676 10-2.676-3.645 0-7.059-.973-10-2.676m0 90v12.676c0 2.445-.219 4.844-.641 7.168 4.438-4.797 7.719-10.68 9.391-17.207-3.176-.195-6.148-1.133-8.75-2.637" fill="#a43f4a"/><path d="m490 380c-3.645 0-7.059.973-10 2.676v20c2.941-1.703 6.355-2.676 10-2.676z" fill="#883840"/><path d="m490 290c-3.645 0-7.059.973-10 2.676v20c2.941-1.703 6.355-2.676 10-2.676z" fill="#883840"/><path d="m490 200c-3.645 0-7.059.973-10 2.676v20c2.941-1.703 6.355-2.676 10-2.676z" fill="#883840"/><path d="m490 400c-3.645 0-7.059.973-10 2.676v64.648c2.602 1.504 5.574 2.442 8.75 2.637.816-3.184 1.25-6.52 1.25-9.961z" fill="#6594b2"/><path d="m490 310c-3.645 0-7.059.973-10 2.676v64.648c2.941 1.703 6.355 2.676 10 2.676z" fill="#d4d3d1"/><path d="m490 220c-3.645 0-7.059.973-10 2.676v64.648c2.941 1.703 6.355 2.676 10 2.676z" fill="#62a48d"/><path d="m480 160c0-22.094-17.91-40-40-40h-240c-22.09 0-40 17.906-40 40v320c0 22.094 17.91 40 40 40h240c22.09 0 40-17.906 40-40z" fill="#e08e4c"/><path d="m250 120h-30v400h30z" fill="#495672"/><path d="m160 400h-10c-11.047 0-20 8.953-20 20s8.953 20 20 20h10z" fill="#a43f4a"/><path d="m180 400h-20v40h20c11.047 0 20-8.953 20-20s-8.953-20-20-20" fill="#b77744"/><path d="m160 320h-10c-11.047 0-20 8.953-20 20s8.953 20 20 20h10z" fill="#a43f4a"/><path d="m180 320h-20v40h20c11.047 0 20-8.953 20-20s-8.953-20-20-20" fill="#b77744"/><path d="m160 240h-10c-11.047 0-20 8.953-20 20s8.953 20 20 20h10z" fill="#a43f4a"/><path d="m180 240h-20v40h20c11.047 0 20-8.953 20-20s-8.953-20-20-20" fill="#b77744"/><path d="m160 160h-10c-11.047 0-20 8.953-20 20s8.953 20 20 20h10z" fill="#a43f4a"/><path d="m180 160h-20v40h20c11.047 0 20-8.953 20-20s-8.953-20-20-20" fill="#b77744"/><g fill="#e1e3cc"><path d="m200 440c0-11.047-8.953-20-20-20h-30c-11.047 0-20 8.953-20 20s8.953 20 20 20h30c11.047 0 20-8.953 20-20"/><path d="m200 360c0-11.047-8.953-20-20-20h-30c-11.047 0-20 8.953-20 20s8.953 20 20 20h30c11.047 0 20-8.953 20-20"/><path d="m200 280c0-11.047-8.953-20-20-20h-30c-11.047 0-20 8.953-20 20s8.953 20 20 20h30c11.047 0 20-8.953 20-20"/><path d="m200 200c0-11.047-8.953-20-20-20h-30c-11.047 0-20 8.953-20 20s8.953 20 20 20h30c11.047 0 20-8.953 20-20"/></g><path d="m400 370c0-22.094-17.91-40-40-40s-40 17.906-40 40 17.91 40 40 40 40-17.906 40-40" fill="#f3cc70"/><path d="m420 247.406c0-30.105-26.863-27.254-60-27.254s-60-2.851-60 27.254c0 30.102 26.863 72.672 60 72.672s60-42.57 60-72.672" fill="#f3cc70"/></g></svg>