<svg height="85.333336" viewBox="0 0 85.333336 85.333336" width="85.333336" xmlns="http://www.w3.org/2000/svg"><g transform="matrix(.13333333 0 0 -.13333333 0 85.333333)"><path d="m640 320c0-176.73-143.27-320-320-320s-320 143.27-320 320 143.27 320 320 320 320-143.27 320-320" fill="#f3cc70"/><path d="m320 496v-176l123.199-132c132 176-25.996 308-123.199 308" fill="#e08e4c"/><path d="m320 65c-129.578 0-235 105.422-235 235s105.422 235 235 235 235-105.422 235-235-105.422-235-235-235m184.238 220c-7.277-90.043-79.195-161.961-169.238-169.238v-20.0003c101.063 7.3713 181.867 88.1763 189.238 189.2383zm-388.476 0c7.371-101.062 88.176-181.867 189.238-189.2383v20.0003c-90.043 7.277-161.961 79.195-169.238 169.238zm219.238 0v-139.238c39.672 3.828 75.012 22.664 100.254 50.754l7.945-8.516c76.41 101.879 55.649 189.016 5.754 244.34 31.098-30.313 51.578-71.477 55.285-117.34h20c-7.371 101.063-88.175 181.867-189.238 189.238v-9.218c-5.125.652-10.137.98-15 .98v-176l32.668-35zm-169.238 0c7.093-73.512 65.726-132.145 139.238-139.238v139.238zm139.238 169.238c-73.512-7.093-132.145-65.726-139.238-139.238h139.238zm0 50c-101.062-7.371-181.867-88.175-189.238-189.238h20c7.277 90.043 79.195 161.961 169.238 169.238z" fill="#c7a85f"/><path d="m443.199 188-7.945 8.516c21.531 23.957 35.719 54.644 38.984 88.484h-121.57l-32.668 35v176c4.863 0 9.875-.328 15-.98v-10.782c44.18-3.57 83.992-22.699 113.953-51.898 49.895-55.324 70.656-142.461-5.754-244.34m-108.199 266.238v-139.238h139.238c-7.093 73.512-65.726 132.145-139.238 139.238" fill="#b77744"/><path d="m335 115.762v20c90.043 7.277 161.961 79.195 169.238 169.238h20c-7.371-101.062-88.175-181.867-189.238-189.238zm-219.238 189.238h20c7.277-90.043 79.195-161.961 169.238-169.238v-20c-101.062 7.371-181.867 88.176-189.238 189.238zm189.238 219.238v-20c-90.043-7.277-161.961-79.195-169.238-169.238h-20c7.371 101.063 88.176 181.867 189.238 189.238zm30-189.238v139.238c73.512-7.093 132.145-65.726 139.238-139.238zm0-30h139.238c-7.093-73.512-65.726-132.145-139.238-139.238zm-30 0v-139.238c-73.512 7.093-132.145 65.726-139.238 139.238zm0 30h-139.238c7.093 73.512 65.726 132.145 139.238 139.238zm219.238 0h-20c-7.277 90.043-79.195 161.961-169.238 169.238v20c101.063-7.371 181.867-88.175 189.238-189.238zm-204.238 220c-129.578 0-235-105.422-235-235s105.422-235 235-235 235 105.422 235 235-105.422 235-235 235" fill="#495672"/></g></svg>