<svg height="85.333336" viewBox="0 0 85.333336 85.333336" width="85.333336" xmlns="http://www.w3.org/2000/svg"><g transform="matrix(.13333333 0 0 -.13333333 0 85.333333)"><path d="m640 320c0-176.73-143.27-320-320-320s-320 143.27-320 320 143.27 320 320 320 320-143.27 320-320" fill="#7db6d8"/><path d="m480 150h-320c-22.094 0-40 17.91-40 40v200c0 22.09 17.906 40 40 40h320c22.09 0 40-17.91 40-40v-200c0-22.09-17.91-40-40-40" fill="#6594b2"/><path d="m520 210c0-22.09-17.91-40-40-40h-320c-22.094 0-40 17.91-40 40v200c0 22.09 17.906 40 40 40h320c22.09 0 40-17.91 40-40z" fill="#fff"/><path d="m520 330h-400v60h400z" fill="#495672"/><g fill="#e08e4c"><path d="m400 230c0 11.047-8.953 20-20 20s-20-8.953-20-20 8.953-20 20-20 20 8.953 20 20"/><path d="m480 230c0 11.047-8.953 20-20 20s-20-8.953-20-20 8.953-20 20-20 20 8.953 20 20"/><path d="m320 230c0 11.047-8.953 20-20 20s-20-8.953-20-20 8.953-20 20-20 20 8.953 20 20"/></g></g></svg>