<svg height="85.333336" viewBox="0 0 85.333336 85.333336" width="85.333336" xmlns="http://www.w3.org/2000/svg"><g transform="matrix(.13333333 0 0 -.13333333 0 85.333333)"><path d="m640 320c0-176.73-143.27-320-320-320s-320 143.27-320 320 143.27 320 320 320 320-143.27 320-320" fill="#e1e3cc"/><path d="m455 90c-13.785 0-25 11.215-25 25v25h-245c-13.785 0-25 11.215-25 25v235h-25c-13.785 0-25 11.215-25 25s11.215 25 25 25h25v20c0 13.785 11.215 25 25 25s25-11.215 25-25v-120-129.648l174.648 179.648h-144.648v45h194.648l37.676 37.676c4.723 4.722 11 7.324 17.676 7.324s12.953-2.602 17.672-7.32c4.726-4.719 7.328-11 7.328-17.68s-2.602-12.957-7.324-17.676l-27.676-27.676v-199.648h-50v149.648l-179.648-179.648h129.648 120 5c13.785 0 25-11.215 25-25s-11.215-25-25-25h-25v-25c0-13.785-11.215-25-25-25" fill="#b7b7a7"/><path d="m505 210h-254.648l179.648 179.648v-149.648h50v199.648l27.676 27.676c4.722 4.719 7.324 10.996 7.324 17.676s-2.602 12.961-7.328 17.68c-4.719 4.718-10.996 7.32-17.672 7.32s-12.953-2.602-17.676-7.324l-32.5-32.676h-199.824v-50h149.824l-179.824-179.648v129.648 120c0 13.785-11.215 25-25 25s-25-11.215-25-25v-20h-25c-13.785 0-25-11.215-25-25s11.215-25 25-25h25v-235c0-13.785 11.215-25 25-25h245v-25c0-13.785 11.215-25 25-25s25 11.215 25 25v25h25c13.785 0 25 11.215 25 25s-11.215 25-25 25" fill="#495672"/></g></svg>