<svg height="85.333336" viewBox="0 0 85.333336 85.333336" width="85.333336" xmlns="http://www.w3.org/2000/svg"><g transform="matrix(.13333333 0 0 -.13333333 0 85.333333)"><path d="m640 320c0-176.73-143.27-320-320-320s-320 143.27-320 320 143.27 320 320 320 320-143.27 320-320" fill="#7db6d8"/><path d="m320 40c-11.047 0-20 8.9531-20 20v160-139.9961c0-11.0469 8.953-20 20-20s20 8.9531 20 20v-20.0039c0-11.0469-8.953-20-20-20" fill="#6594b2"/><path d="m300 520.004v-440.0001c0-11.0469 8.953-20 20-20s20 8.9531 20 20v440.0001c0 11.047-8.953 20-20 20s-20-8.953-20-20" fill="#f3cc70"/><path d="m392.438 360h-52.438v120h52.438c4.16 0 7.562-3.598 7.562-7.992v-104.016c0-4.394-3.402-7.992-7.562-7.992m-92.438 0h-115.148c-4.161 0-10.043 2.461-13.079 5.465l-49.5 49.07c-3.031 3.004-3.031 7.926 0 10.93l49.5 49.07c3.036 3.004 8.918 5.465 13.079 5.465h115.148z" fill="#6594b2"/><path d="m300 360h40v120h-40z" fill="#c7a85f"/><path d="m495.148 220h-155.148v120h155.148c4.161 0 10.043-2.461 13.079-5.465l49.5-49.07c3.031-3.004 3.031-7.926 0-10.93l-49.5-49.07c-3.036-3.004-8.918-5.465-13.079-5.465m-195.148 0h-52.437c-4.161 0-7.563 3.598-7.563 7.992v104.016c0 4.394 3.402 7.992 7.563 7.992h52.437z" fill="#6594b2"/><path d="m300 220h40v120h-40z" fill="#c7a85f"/><path d="m184.852 500c-4.161 0-10.043-2.461-13.079-5.465l-49.5-49.07c-3.031-3.004-3.031-7.926 0-10.93l49.5-49.07c3.036-3.004 8.918-5.465 13.079-5.465h207.586c4.16 0 7.562 3.598 7.562 7.992v104.016c0 4.394-3.402 7.992-7.562 7.992z" fill="#495672"/><path d="m495.148 240c4.161 0 10.043 2.461 13.079 5.465l49.5 49.07c3.031 3.004 3.031 7.926 0 10.93l-49.5 49.07c-3.036 3.004-8.918 5.465-13.079 5.465h-247.585c-4.161 0-7.563-3.598-7.563-7.992v-104.016c0-4.394 3.402-7.992 7.563-7.992z" fill="#fff"/></g></svg>