<svg height="85.333336" viewBox="0 0 85.333336 85.333336" width="85.333336" xmlns="http://www.w3.org/2000/svg"><g transform="matrix(.13333333 0 0 -.13333333 0 85.333333)"><path d="m640 318.125c0-176.73-143.27-320-320-320s-320 143.27-320 320 143.27 320 320 320 320-143.27 320-320" fill="#495672"/><path d="m427.996 180h-267.996c-13.461 0-44.98 0-59.594 49.68-.258.687-10.406 29.707-10.406 70.32 0 5.523 4.4766 10 10 10h40.746l9.414 51.785c.863 4.758 5.004 8.215 9.84 8.215h33.625l4.949 41.191c.602 5.032 4.864 8.809 9.926 8.809h147.043c3.34 0 6.453-1.664 8.309-4.441l30.468-45.559h45.68c3.199 0 6.207-1.531 8.086-4.117l40.644-55.883h71.27c3.293 0 6.367-1.617 8.238-4.324 1.864-2.711 2.282-6.168 1.102-9.238-1.813-4.758-45.524-116.438-141.344-116.438" fill="#404a5f"/><g fill="#e1e3cc"><path d="m399.375 364.457h-198.75l7.875 65.543h147.043z"/><path d="m399.375 364.457v10h-187.477l5.473 45.543h132.828l40.864-61.102 8.312 5.559v10-10l8.313 5.563-43.833 65.539c-1.859 2.781-4.968 4.441-8.312 4.441h-147.043c-5.07 0-9.324-3.773-9.93-8.805l-7.875-65.543c-.34-2.836.551-5.691 2.45-7.832 1.898-2.136 4.625-3.359 7.48-3.359h198.75c3.699 0 7.074 2.019 8.82 5.285 1.743 3.266 1.551 7.195-.507 10.274z"/><path d="m520 270h-380l20 110h280z"/><path d="m520 270v10h-368.02l16.368 90h266.558l77.008-105.883 8.086 5.883v10-10l8.086 5.883-80 110c-1.887 2.597-4.875 4.117-8.086 4.117h-280c-4.828 0-8.973-3.457-9.84-8.211l-20-110c-.527-2.918.262-5.918 2.164-8.195 1.899-2.278 4.711-3.594 7.676-3.594h380c3.762 0 7.203 2.109 8.91 5.465 1.707 3.351 1.391 7.375-.824 10.418z"/></g><path d="m250 340c0-11.047-8.953-20-20-20s-20 8.953-20 20 8.953 20 20 20 20-8.953 20-20" fill="#7db6d8"/><path d="m330 340c0-11.047-8.953-20-20-20s-20 8.953-20 20 8.953 20 20 20 20-8.953 20-20" fill="#7db6d8"/><path d="m410 340c0-11.047-8.953-20-20-20s-20 8.953-20 20 8.953 20 20 20 20-8.953 20-20" fill="#7db6d8"/><path d="m160 210h268c90.031 0 132 110 132 110h-460c0-39.363 10-67.5 10-67.5 12.5-42.5 36.871-42.5 50-42.5" fill="#fff"/><path d="m160 210v-10h29.215 238.785c24.57-.016 46.027 7.574 63.887 18.695 26.824 16.711 45.918 41.082 58.558 61.188 12.618 20.133 18.735 36.133 18.899 36.555 1.168 3.058.75 6.539-1.11 9.234-1.855 2.699-4.957 4.328-8.234 4.328h-460c-2.6328 0-5.2109-1.066-7.0703-2.93-1.8633-1.859-2.9297-4.437-2.9297-7.07.0195-41.055 10.348-70.148 10.578-70.848l9.422 3.348-9.594-2.82c3.371-11.461 7.66-20.473 12.684-27.543 7.48-10.629 16.851-16.637 25.512-19.403 8.64-2.808 16.445-2.718 21.398-2.734v10 10c-6.543-.023-13.559.152-20.273 3.996-3.383 1.945-6.848 4.84-10.336 9.727-3.473 4.882-6.918 11.812-9.797 21.597l-.172.532-.067.187c-.878 2.551-9.371 28.649-9.355 63.961h-10v-10h460v10l-9.344 3.566-.082-.211c-1.023-2.656-11.914-29.3-32.629-54.605-10.336-12.66-23.09-24.953-38.058-33.949-14.996-9.004-32.078-14.785-51.887-14.801-45.016 0-112.016 0-167.762 0-27.875 0-52.933 0-71.023 0-18.094 0-29.188 0-29.215 0z" fill="#fff"/></g></svg>