<svg height="85.333336" viewBox="0 0 85.333336 85.333336" width="85.333336" xmlns="http://www.w3.org/2000/svg"><g transform="matrix(.13333333 0 0 -.13333333 0 85.333333)"><path d="m640 320c0-176.73-143.27-320-320-320s-320 143.27-320 320 143.27 320 320 320 320-143.27 320-320" fill="#e1e3cc"/><path d="m320 80c-121.504 0-220 98.496-220 220s98.496 220 220 220 220-98.496 220-220-98.496-220-220-220m-132.285 309.863c-17.473-25.633-27.715-56.57-27.715-89.863 0-88.227 71.777-160 160-160 33.293 0 64.23 10.242 89.863 27.715zm132.285 70.137c-33.293 0-64.23-10.242-89.863-27.715l222.148-222.148c17.473 25.633 27.715 56.57 27.715 89.863 0 88.227-71.777 160-160 160" fill="#b7b7a7"/><g fill="#c84755"><path d="m320 540c-121.504 0-220-98.496-220-220s98.496-220 220-220 220 98.496 220 220-98.496 220-220 220zm0-60c88.223 0 160-71.777 160-160s-71.777-160-160-160-160 71.777-160 160 71.777 160 160 160"/><path d="m438.789 158.789-280 280 42.422 42.422 280-280z"/></g></g></svg>