<svg height="85.333336" viewBox="0 0 85.333336 85.333336" width="85.333336" xmlns="http://www.w3.org/2000/svg"><g transform="matrix(.13333333 0 0 -.13333333 0 85.333333)"><path d="m640 320c0-176.73-143.27-320-320-320s-320 143.27-320 320 143.27 320 320 320 320-143.27 320-320" fill="#77caa9"/><path d="m320 68.4219c-13.988 0-27.18 3.1719-37.141 8.9219l-137.113 79.1642c-20.476 11.82-37.144 40.68-37.144 64.332v158.32c0 23.653 16.668 52.512 37.144 64.332l137.113 79.164c9.961 5.75 23.551 8.629 37.141 8.629s27.18-2.879 37.141-8.629l137.113-79.164c20.476-11.82 37.141-40.679 37.141-64.332v-158.32c0-23.652-16.665-52.512-37.141-64.332l-137.113-79.1642c-9.961-5.75-23.153-8.9219-37.141-8.9219" fill="#62a48d"/><path d="m354.641 538.324c-19.051 11-50.231 11-69.282 0l-137.113-79.164c-19.051-11-34.641-38-34.641-60v-158.324c0-21.996 15.59-49 34.641-60l137.113-79.16c19.051-11.0002 50.231-11.0002 69.282 0l137.113 79.16c19.051 11 34.641 38.004 34.641 60v158.324c0 22-15.59 49-34.641 60z" fill="#e1e3cc"/><path d="m320 541.574c-12.262 0-23.672-2.695-32.141-7.582l-137.113-79.156c-17.422-10.063-32.141-35.559-32.141-55.676v-158.32c0-20.117 14.719-45.613 32.141-55.672l137.113-79.16c16.938-9.7697 47.344-9.7697 64.282 0l137.113 79.16c17.422 10.059 32.141 35.555 32.141 55.672v158.32c0 20.117-14.719 45.613-32.141 55.676l-137.113 79.156c-8.469 4.887-19.879 7.582-32.141 7.582zm0-453.1443c-13.988 0-27.18 3.1641-37.141 8.9258l-137.113 79.1605c-20.476 11.812-37.141 40.672-37.141 64.324v158.32c0 23.653 16.665 52.512 37.141 64.324l137.113 79.164c19.922 11.524 54.36 11.524 74.282 0l137.113-79.164c20.476-11.812 37.141-40.671 37.141-64.324v-158.32c0-23.652-16.665-52.512-37.141-64.324l-137.113-79.1605c-9.961-5.7617-23.153-8.9258-37.141-8.9258" fill="#e1e3cc"/><path d="m320 341.746c-11.23 0-22.031 2.524-29.641 6.91l-137.113 79.164c-5.902 3.41-9.293 7.539-9.293 11.344.008 3.797 3.391 7.93 9.293 11.332l137.113 79.168c7.61 4.395 18.411 6.914 29.641 6.914s22.031-2.519 29.641-6.91l137.113-79.172c5.902-3.402 9.285-7.535 9.293-11.332 0-3.805-3.391-7.934-9.293-11.344l-137.113-79.16c-7.61-4.39-18.411-6.914-29.641-6.914" fill="#fff"/><path d="m299.086 106.98c-3 0-6.594 1.161-10.391 3.352l-137.117 79.172c-16.066 9.269-29.64 32.781-29.64 51.336v158.32c0 4.418.902 14.695 9.253 14.695 2.993 0 6.586-1.16 10.387-3.359l137.117-79.156c16.063-9.277 29.637-32.789 29.637-51.34v-158.324c0-5.172-1.117-9.414-3.152-11.949-1.504-1.875-3.442-2.747-6.094-2.747" fill="#fff"/><path d="m339.254 106.98c-8.352 0-9.254 10.278-9.254 14.696v158.324c0 18.551 13.574 42.063 29.641 51.344l137.113 79.152c3.805 2.199 7.394 3.359 10.391 3.359 8.347 0 9.25-10.277 9.25-14.695v-158.32c0-18.555-13.575-42.067-29.641-51.336l-137.113-79.168c-3.801-2.195-7.395-3.356-10.387-3.356" fill="#fff"/><g fill="#495672"><path d="m320 425c-12.645 0-23.336 6.484-23.336 14.16s10.691 14.164 23.336 14.164 23.336-6.488 23.336-14.164-10.691-14.16-23.336-14.16"/><path d="m151.457 216.316c-7.676 0-14.16 9.508-14.16 20.766 0 11.254 6.484 20.77 14.16 20.77s14.16-9.516 14.16-20.77c0-11.258-6.484-20.766-14.16-20.766"/><path d="m483.543 216.316c-7.676 0-14.16 9.508-14.16 20.766 0 11.254 6.484 20.77 14.16 20.77s14.16-9.516 14.16-20.77c0-11.258-6.484-20.766-14.16-20.766"/><path d="m151.457 335.691c-7.676 0-14.16 9.508-14.16 20.766 0 11.254 6.484 20.77 14.16 20.77s14.16-9.516 14.16-20.77c0-11.258-6.484-20.766-14.16-20.766"/><path d="m269.172 258.816c-7.68 0-14.16 9.512-14.16 20.77 0 11.254 6.48 20.766 14.16 20.766 7.676 0 14.164-9.512 14.164-20.766 0-11.258-6.488-20.77-14.164-20.77"/><path d="m369.586 258.816c-7.676 0-14.16 9.512-14.16 20.77 0 11.254 6.484 20.766 14.16 20.766s14.168-9.512 14.168-20.766c0-11.258-6.492-20.77-14.168-20.77"/><path d="m269.172 148.605c-7.68 0-14.16 9.516-14.16 20.77s6.48 20.77 14.16 20.77c7.676 0 14.164-9.516 14.164-20.77s-6.488-20.77-14.164-20.77"/></g></g></svg>