<svg height="85.333336" viewBox="0 0 85.333336 85.333336" width="85.333336" xmlns="http://www.w3.org/2000/svg"><g transform="matrix(.13333333 0 0 -.13333333 0 85.333333)"><path d="m640 320c0-176.73-143.27-320-320-320s-320 143.27-320 320 143.27 320 320 320 320-143.27 320-320" fill="#77caa9"/><path d="m319.961 85c-24.176 0-45.27 15.512-52.484 38.598-7.493 23.984 2.363 49.269 22.406 62.398l-79.695 254.973c-1.54 4.609-7.29 17.937-22.071 17.937-2.762 0-5.836-.465-9.254-1.539-1.484-.457-2.98-.676-4.457-.676-6.394 0-12.328 4.098-14.332 10.52-2.472 7.906 1.934 16.32 9.836 18.789 6.59 2.059 12.742 2.973 18.453 2.973 27.711 0 44.985-21.563 50.453-39.063l13.364-42.738 87.433 54.797c1.653 1.035 3.492 1.527 5.309 1.527 3.332 0 6.586-1.66 8.476-4.687l69.102-110.258c2.934-4.684 1.52-10.856-3.16-13.785l-70.828-44.391 88.672 27.715c.98.305 1.976.445 2.957.445 4.261 0 8.234-2.722 9.57-7.008l29.836-95.441c.789-2.531.543-5.273-.692-7.625-1.226-2.348-3.343-4.113-5.871-4.906l-107.089-33.473 83.23 26.012c1.488.469 2.996.691 4.48.691 6.375 0 12.301-4.113 14.309-10.535 2.473-7.906-1.934-16.316-9.844-18.789l-83.343-26.051c.246-9.258-1.614-18.484-6.032-26.918-6.816-13.012-18.289-22.5936-32.312-26.9764-5.344-1.6718-10.863-2.5156-16.422-2.5156m-46.887 255.32 45.453-145.414-21.531 68.887c-.789 2.531-.543 5.273.692 7.625 1.226 2.348 3.343 4.113 5.871 4.906l8.082 2.528-.125.132z" fill="#62a48d"/><path d="m319.988 314.297 94.039 58.937-69.101 110.262-94.043-58.933z" fill="#f3cc70"/><path d="m319.988 314.297 5.309-8.473 94.043 58.938c2.23 1.398 3.848 3.672 4.437 6.238.586 2.566.125 5.316-1.273 7.547l-69.106 110.262c-2.933 4.679-9.101 6.097-13.781 3.164l-94.043-58.938c-4.679-2.933-6.097-9.105-3.164-13.785l69.102-110.262c1.398-2.23 3.672-3.847 6.238-4.437 2.566-.586 5.316-.125 7.547 1.273l-5.309 8.473 8.473 5.312-63.793 101.789 77.094 48.317 58.48-93.313-85.566-53.629 5.312-8.476 8.473 5.312z" fill="#f3cc70"/><path d="m449.121 226.098-119.308-37.293-90.993 291.109c-.359 1.027-3 9.617-10.382 19.082-3.711 4.707-8.708 9.664-15.415 13.535-6.675 3.879-15.128 6.492-24.554 6.461-5.883.004-12.11-.972-18.563-2.996-7.902-2.473-12.304-10.891-9.828-18.797 2.477-7.906 10.891-12.308 18.797-9.832 3.867 1.211 7.004 1.625 9.594 1.629 4.129-.027 6.957-.984 9.582-2.461 3.875-2.183 7.183-6.125 9.32-9.754 1.07-1.789 1.848-3.433 2.313-4.539l.472-1.199.071-.199 5.656 1.902-5.695-1.781.039-.121 5.656 1.902-5.695-1.781 95.468-305.43c1.176-3.765 3.86-6.976 7.356-8.812 3.5-1.832 7.664-2.207 11.433-1.028l133.625 41.766c7.907 2.473 12.317 10.887 9.844 18.793s-10.887 12.312-18.793 9.84" fill="#fff"/><path d="m336.375 201.332 133.625 41.766-29.832 95.445-133.625-41.766z" fill="#e08e4c"/><path d="m336.375 201.332 2.984-9.547 133.625 41.77c2.512.785 4.653 2.574 5.875 4.906 1.219 2.332 1.469 5.109.684 7.621l-29.832 95.445c-1.648 5.274-7.258 8.207-12.527 6.563l-133.625-41.77c-5.274-1.644-8.211-7.254-6.563-12.527l29.836-95.445c.785-2.512 2.57-4.653 4.906-5.875 2.332-1.223 5.11-1.469 7.621-.688l-2.984 9.547 9.547 2.984-26.852 85.899 114.535 35.801 23.868-76.356-124.082-38.785 2.984-9.543 9.547 2.984z" fill="#e08e4c"/><path d="m358.152 181.945c6.59-21.086-5.16-43.523-26.246-50.113s-43.519 5.16-50.113 26.246c-6.59 21.086 5.16 43.52 26.246 50.11 21.086 6.593 43.52-5.157 50.113-26.243" fill="#f3cc70"/><path d="m358.152 181.945-14.316-4.472c.781-2.516 1.144-5.012 1.148-7.473-.011-10.609-6.851-20.531-17.554-23.852-2.512-.781-5.008-1.144-7.469-1.148-10.613.012-20.535 6.852-23.852 17.555-.785 2.511-1.148 5.011-1.148 7.468.012 10.618 6.852 20.536 17.551 23.848 2.519.789 5.015 1.152 7.472 1.152 10.614-.011 20.532-6.847 23.852-17.55l14.316 4.472 14.317 4.477c-7.379 23.523-29.035 38.613-52.485 38.601-5.449 0-10.996-.82-16.425-2.519-23.52-7.375-38.61-29.035-38.598-52.481 0-5.445.816-10.992 2.516-16.421 7.382-23.52 29.035-38.61 52.484-38.598 5.441-.004 10.988.812 16.422 2.512 23.519 7.386 38.609 29.039 38.601 52.484 0 5.445-.82 10.988-2.515 16.422z" fill="#495672"/></g></svg>