<svg height="85.333336" viewBox="0 0 85.333336 85.333336" width="85.333336" xmlns="http://www.w3.org/2000/svg"><g transform="matrix(.13333333 0 0 -.13333333 0 85.333333)"><path d="m638.332 320c0-176.73-143.269-320-320-320-176.73 0-319.99997 143.27-319.99997 320s143.26997 320 319.99997 320c176.731 0 320-143.27 320-320" fill="#495672"/><g fill="#f3cc70"><path d="m240 340h60v140h-60z"/><path d="m240 160h60v140h-60z"/><path d="m340 340h60v140h-60z"/><path d="m340 160h60v140h-60z"/></g><path d="m400 100h-160c-22.094 0-40 17.91-40 40v320-300c0-22.09 17.906-40 40-40h160c22.094 0 40 17.91 40 40v-20c0-22.09-17.906-40-40-40" fill="#404a5f"/><path d="m240 460h60v20h-60z" fill="#c7a85f"/><path d="m240 280h60v20h-60z" fill="#c7a85f"/><path d="m340 460h60v20h-60z" fill="#c7a85f"/><path d="m377.641 280h-37.641v20h30c0-7.684 2.887-14.691 7.641-20" fill="#c7a85f"/><path d="m400 340h-60v140h60zm0-180h-60v140h60zm-100 180h-60v140h60zm0-180h-60v140h60zm100 360h-160c-22.094 0-40-17.906-40-40v-320c0-22.09 17.906-40 40-40h160c22.094 0 40 17.91 40 40v320c0 22.094-17.906 40-40 40" fill="#e08e4c"/><path d="m400 270c-8.887 0-16.867 3.863-22.359 10h22.359z" fill="#c7a85f"/><path d="m400 280h-22.359c-4.754 5.309-7.641 12.316-7.641 20h30z" fill="#a48c53"/><path d="m400 270v30h-30c0 16.57 13.43 30 30 30s30-13.43 30-30-13.43-30-30-30" fill="#b77744"/><path d="m430 320c0-16.57-13.43-30-30-30s-30 13.43-30 30 13.43 30 30 30 30-13.43 30-30" fill="#f3cc70"/></g></svg>