<svg height="85.333328" viewBox="0 0 85.333328 85.333328" width="85.333328" xmlns="http://www.w3.org/2000/svg"><g transform="matrix(.13333333 0 0 -.13333333 0 85.333331)"><path d="m640 320c0-176.73-143.27-320-320-320s-320 143.27-320 320 143.27 320 320 320 320-143.27 320-320" fill="#c84755"/><g fill="#a43f4a"><path d="m399.836 528.258c.062.984.109 1.562.137 1.562.015 0 .027-.308.027-.984z"/><path d="m240.18 528.211-.18.625c0 .68.012.988.031.988.028 0 .078-.597.149-1.613"/><path d="m480 160h-300c-55.227 0-100 44.773-100 100 0 50.09 36.867 91.453 84.922 98.742 11.75 47.153 44.371 86 87.476 106.199l.075-.007c2.328.992 4.738 1.437 7.125 1.437 10.441 0 20.402-8.547 20.402-17.535v-85c0-8.285-6.715-13.836-15-13.836h-30.613c-14.715 0-18.828-11.27-9.137-23.617l77.133-98.289c4.844-6.172 11.23-9.258 17.617-9.258s12.773 3.086 17.617 9.258l77.133 98.289c9.691 12.347 5.578 23.617-9.137 23.617h-30.613c-8.285 0-15 5.551-15 13.836v85c0 8.57 5.789 18.73 16.953 18.73 2.785 0 5.902-.632 9.344-2.074 55.238-25.219 93.703-80.804 93.703-145.492 44.184 0 80-35.816 80-80s-35.816-80-80-80"/></g><path d="m480 340c0 64.688-38.465 120.273-93.703 145.492-17.258 7.235-26.297-5.945-26.297-16.656v-85c0-8.285 6.715-13.836 15-13.836h30.613c14.715 0 18.828-11.27 9.137-23.617l-77.133-98.289c-9.687-12.348-25.547-12.348-35.234 0l-77.133 98.289c-9.691 12.347-5.578 23.617 9.137 23.617h30.613c8.285 0 15 5.551 15 13.836v85c0 11.043-15.035 21.422-27.527 16.098l-.075.007c-43.105-20.199-75.726-59.046-87.476-106.199-48.055-7.289-84.922-48.652-84.922-98.742 0-55.227 44.773-100 100-100h300c44.184 0 80 35.816 80 80s-35.816 80-80 80" fill="#fff"/><path d="m399.836 548.258.164.574c0 1.609-.055 1.129-.164-.574" fill="#8b76c2"/><path d="m240 548.832.18-.621c-.121 1.742-.18 2.254-.18.621" fill="#8b76c2"/></g></svg>