<svg height="85.333328" viewBox="0 0 85.333328 85.333328" width="85.333328" xmlns="http://www.w3.org/2000/svg"><g transform="matrix(.13333333 0 0 -.13333333 0 85.333331)"><path d="m640 320c0-176.73-143.27-320-320-320s-320 143.27-320 320 143.27 320 320 320 320-143.27 320-320" fill="#7db6d8"/><path d="m320 80c-121.309 0-220 98.691-220 220s98.691 220 220 220 220-98.691 220-220c0-45.215-13.617-88.652-39.375-125.629-3.852-5.531-10.059-8.574-16.418-8.574-3.082 0-6.199.715-9.105 2.207-2.313 1.18-40.922 21.559-63.961 64.008-20.758-27.778-53.797-45.84-91.141-45.84-62.867 0-113.828 50.961-113.828 113.828s50.961 113.828 113.828 113.828c28.359 0 54.234-10.433 74.164-27.59v.828c0 11.043 8.957 20 20 20 11.047 0 20-8.957 20-20v-87.902c0-43.328 26.41-71.414 43.941-85.285 14.375 26.297 21.895 55.715 21.895 86.121 0 99.254-80.746 180-180 180s-180-80.746-180-180 80.746-180 180-180c29.055 0 56.77 6.699 82.383 19.91 2.93 1.52 6.062 2.238 9.152 2.238 7.242 0 14.242-3.957 17.789-10.839 5.067-9.821 1.211-21.879-8.601-26.946-30.899-15.9411-65.727-24.363-100.723-24.363m0 293.828c-40.711 0-73.828-33.117-73.828-73.828 0-40.707 33.117-73.828 73.828-73.828s73.828 33.121 73.828 73.828c0 40.711-33.117 73.828-73.828 73.828" fill="#6594b2"/><g fill="#fff"><path d="m320 100c-121.309 0-220 98.691-220 220s98.691 220 220 220 220-98.691 220-220c0-45.215-13.613-88.66-39.375-125.637-5.715-8.211-16.633-10.918-25.52-6.367-3.308 1.692-80.933 42.465-80.933 131.176v87.891c0 11.042 8.953 20 20 20 11.043 0 20-8.958 20-20v-87.891c0-43.332 26.402-71.43 43.941-85.293 14.367 26.297 21.887 55.711 21.887 86.121 0 99.246-80.754 180-180 180s-180-80.754-180-180 80.754-180 180-180c29.055 0 56.77 6.699 82.383 19.91 9.797 5.078 21.875 1.223 26.941-8.601 5.071-9.817 1.211-21.883-8.601-26.946-30.899-15.933-65.735-24.363-100.723-24.363"/><path d="m320 433.828c-62.867 0-113.828-50.961-113.828-113.828s50.961-113.828 113.828-113.828 113.828 50.961 113.828 113.828-50.961 113.828-113.828 113.828zm0-40c40.711 0 73.828-33.117 73.828-73.828 0-40.707-33.117-73.828-73.828-73.828s-73.828 33.121-73.828 73.828c0 40.711 33.117 73.828 73.828 73.828"/></g></g></svg>