<svg height="85.333328" viewBox="0 0 85.333328 85.333328" width="85.333328" xmlns="http://www.w3.org/2000/svg"><g transform="matrix(.13333333 0 0 -.13333333 0 85.333331)"><path d="m640 320c0-176.73-143.27-320-320-320s-320 143.27-320 320 143.27 320 320 320 320-143.27 320-320" fill="#7db6d8"/><path d="m320 100c-110.457 0-200 89.543-200 200s89.543 200 200 200 200-89.543 200-200-89.543-200-200-200" fill="#6594b2"/><path d="m520 320c0-110.457-89.543-200-200-200s-200 89.543-200 200 89.543 200 200 200 200-89.543 200-200" fill="#fff"/><path d="m440 320c0-66.273-53.727-120-120-120s-120 53.727-120 120 53.727 120 120 120 120-53.727 120-120" fill="#77caa9"/><path d="m360 320c0-22.094-17.91-40-40-40s-40 17.906-40 40 17.91 40 40 40 40-17.906 40-40" fill="#495672"/><g fill="#fff"><path d="m360 340c0-11.047-8.953-20-20-20s-20 8.953-20 20 8.953 20 20 20 20-8.953 20-20"/><path d="m440 400c0-22.094-17.91-40-40-40s-40 17.906-40 40 17.91 40 40 40 40-17.906 40-40"/></g></g></svg>