<svg height="85.333328" viewBox="0 0 85.333328 85.333328" width="85.333328" xmlns="http://www.w3.org/2000/svg"><g transform="matrix(.13333333 0 0 -.13333333 0 85.333331)"><path d="m640 320c0-176.73-143.27-320-320-320s-320 143.27-320 320 143.27 320 320 320 320-143.27 320-320" fill="#c84755"/><path d="m400 140c-40 0-80 0-120 80s-80 80-80 80v-140c0-11.047-8.953-20-20-20s-20 8.953-20 20c0 120-40 180-40 220s40 80 40 80 37.148-19.566 118.125-151.875c35.883-58.633 71.766-72.918 98.219-72.918 25.148.004 41.781 12.918 41.781 12.918s63.566-26.711 83.75-41.875c21.918-16.465 18.125-31.918 18.125-49.375 0-15-80-16.875-120-16.875" fill="#a43f4a"/><g fill="#fff"><path d="m160 480s-40-40-40-80 40-100 40-220h40v140s40 0 80-80 80-80 120-80 120 1.875 120 16.875c0 17.457 3.793 32.91-18.125 49.375-20.184 15.164-83.75 41.875-83.75 41.875s-70-54.375-140 60c-80.977 132.309-118.125 151.875-118.125 151.875"/><path d="m200 180c0-11.047-8.953-20-20-20s-20 8.953-20 20 8.953 20 20 20 20-8.953 20-20"/></g></g></svg>