<svg height="85.333328" viewBox="0 0 85.333328 85.333328" width="85.333328" xmlns="http://www.w3.org/2000/svg"><g transform="matrix(.13333333 0 0 -.13333333 0 85.333331)"><path d="m640 320c0-176.73-143.27-320-320-320s-320 143.27-320 320 143.27 320 320 320 320-143.27 320-320" fill="#7db6d8"/><path d="m346.895 172.766c-1.391 2.433-2.598 4.984-3.61 7.632 37.32 6.704 69.149 29.239 88.285 60.403 1.071-.965 2.102-1.977 3.094-3.024-18.113-32.863-49.941-57.105-87.769-65.011m-54.344.117c-37.742 8.058-69.457 32.398-87.442 65.308.996 1.028 2.028 2.02 3.098 2.969 19.016-31.187 50.715-53.797 87.926-60.656-1-2.641-2.203-5.191-3.582-7.621m155.125 107.594c1.773 7.925 2.828 16.125 3.094 24.523.043-1.383.062-2.773.062-4.168 0-6.84-.523-13.562-1.535-20.117-.539-.09-1.078-.168-1.621-.238m-255.367.054c-.539.078-1.079.16-1.618.254-1.003 6.535-1.523 13.231-1.523 20.047 0 1.395.02 2.785.062 4.168.262-8.379 1.313-16.559 3.079-24.469" fill="#6594b2"/><path d="m450.832 309.168c0-72.258-58.574-130.836-130.832-130.836s-130.832 58.578-130.832 130.836 58.574 130.832 130.832 130.832 130.832-58.574 130.832-130.832" fill="#495672"/><path d="m450.832 320c0-72.258-58.574-130.832-130.832-130.832s-130.832 58.574-130.832 130.832 58.574 130.832 130.832 130.832 130.832-58.574 130.832-130.832" fill="#495672"/><path d="m320 80c-121.504 0-220 98.496-220 220s98.496 220 220 220 220-98.496 220-220-98.496-220-220-220m26.895 92.766c9.468-16.586 27.328-27.766 47.793-27.766 30.378 0 55 24.625 55 55 0 14.629-5.711 27.926-15.024 37.777 7.223 13.106 12.262 27.578 14.633 42.938 26.152 4.242 46.121 26.933 46.121 54.285 0 30.375-24.625 55-55 55-3.195 0-6.324-.273-9.367-.793-13.797 22.094-34.004 39.773-58.02 50.434-6.41 23.269-27.726 40.359-53.031 40.359s-46.621-17.09-53.031-40.359c-23.992-10.653-44.184-28.305-57.981-50.371-2.925.48-5.925.73-8.988.73-30.375 0-55-24.625-55-55 0-27.203 19.75-49.793 45.691-54.215 2.344-15.222 7.305-29.578 14.418-42.594-9.546-9.894-15.421-23.355-15.421-38.191 0-30.375 24.625-55 55-55 20.515 0 38.41 11.234 47.863 27.883 8.851-1.891 18.035-2.883 27.449-2.883 9.219 0 18.215.953 26.895 2.766" fill="#6594b2"/><path d="m320 170c-9.414 0-18.598.992-27.449 2.883 1.379 2.43 2.582 4.98 3.582 7.621 7.738-1.426 15.719-2.172 23.867-2.172 7.945 0 15.727.711 23.285 2.066 1.012-2.648 2.219-5.199 3.61-7.632-8.68-1.813-17.676-2.766-26.895-2.766m114.664 67.777c-.992 1.047-2.023 2.059-3.094 3.024 7.414 12.07 12.918 25.433 16.106 39.676.543.07 1.082.148 1.621.238-2.371-15.36-7.41-29.832-14.633-42.938m-229.555.414c-7.113 13.016-12.074 27.372-14.418 42.594.539-.094 1.079-.176 1.618-.254 3.156-14.121 8.586-27.379 15.898-39.371-1.07-.949-2.102-1.941-3.098-2.969" fill="#567a95"/><path d="m320 178.332c-8.148 0-16.129.746-23.867 2.172 1.258 3.309 2.199 6.773 2.801 10.351 6.855-1.113 13.894-1.687 21.066-1.687 6.961 0 13.797.543 20.461 1.59.605-3.582 1.562-7.047 2.824-10.36-7.558-1.355-15.34-2.066-23.285-2.066m111.57 62.469c-1.48 1.34-3.035 2.601-4.652 3.773 7.613 10.774 13.641 22.75 17.738 35.586 1.016.078 2.024.184 3.02.317-3.188-14.243-8.692-27.606-16.106-39.676m-223.363.359c-7.312 11.992-12.742 25.25-15.898 39.371 1-.136 2.007-.25 3.023-.336 4.063-12.73 10.023-24.621 17.543-35.324-1.625-1.152-3.18-2.391-4.668-3.711" fill="#404a5f"/><path d="m320 189.168c-7.172 0-14.211.574-21.066 1.687.496 2.973.754 6.028.754 9.145 0 30.375-24.622 55-55 55-11.852 0-22.833-3.75-31.813-10.129-7.52 10.703-13.48 22.594-17.543 35.324 1.539-.129 3.098-.195 4.668-.195 30.375 0 55 24.625 55 55 0 27.316-19.91 49.98-46.012 54.27 13.797 22.066 33.989 39.718 57.981 50.371-1.281-4.661-1.969-9.571-1.969-14.641 0-30.375 24.625-55 55-55s55 24.625 55 55c0 5.07-.687 9.98-1.969 14.641 24.016-10.661 44.223-28.34 58.02-50.434-25.914-4.445-45.633-27.023-45.633-54.207 0-30.375 24.625-55 55-55 1.426 0 2.84.055 4.238.16-4.097-12.836-10.125-24.812-17.738-35.586-9.059 6.559-20.191 10.426-32.23 10.426-30.375 0-55-24.625-55-55 0-3.148.265-6.238.773-9.242-6.664-1.047-13.5-1.59-20.461-1.59" fill="#404a5f"/><path d="m440.418 300c-30.375 0-55 24.625-55 55s24.625 55 55 55 55-24.625 55-55-24.625-55-55-55zm-45.73-135c-30.375 0-55 24.625-55 55s24.625 55 55 55c30.378 0 55-24.625 55-55s-24.622-55-55-55zm-129.688 280c0 30.375 24.625 55 55 55s55-24.625 55-55-24.625-55-55-55-55 24.625-55 55zm-20.312-280c-30.375 0-55 24.625-55 55s24.625 55 55 55c30.378 0 55-24.625 55-55s-24.622-55-55-55zm-99.688 190c0 30.375 24.625 55 55 55s55-24.625 55-55-24.625-55-55-55-55 24.625-55 55zm175 185c-121.504 0-220-98.496-220-220s98.496-220 220-220 220 98.496 220 220-98.496 220-220 220" fill="#fff"/></g></svg>