<svg height="85.333328" viewBox="0 0 85.333328 85.333328" width="85.333328" xmlns="http://www.w3.org/2000/svg"><g transform="matrix(.13333333 0 0 -.13333333 0 85.333331)"><path d="m640 320c0-176.73-143.27-320-320-320s-320 143.27-320 320 143.27 320 320 320 320-143.27 320-320" fill="#e08e4c"/><g fill="#b77744"><path d="m450 190h-80v220h130c11.047 0 20-8.953 20-20v-80c0-11.047-8.953-20-20-20h-10c-20 0-20-20-20-20v-60c0-11.047-8.953-20-20-20"/><path d="m340 130h-160c-11.047 0-20 8.953-20 20v280c0 11.047 8.953 20 20 20h20c0-11.047 8.953-20 20-20h80c11.047 0 20 8.953 20 20h20c11.047 0 20-8.953 20-20v-280c0-11.047-8.953-20-20-20"/><path d="m320 450h-120c0 11.047 8.953 20 20 20h80c11.047 0 20-8.953 20-20"/></g><path d="m300 430h-80c-11.047 0-20 8.953-20 20h120c0-11.047-8.953-20-20-20" fill="#97633d"/><path d="m500 430h-130v-220h80c11.047 0 20 8.953 20 20v60s0 20 20 20h10c11.047 0 20 8.953 20 20v80c0 11.047-8.953 20-20 20" fill="#f3cc70"/><path d="m360 170c0-11.047-8.953-20-20-20h-160c-11.047 0-20 8.953-20 20v280c0 11.047 8.953 20 20 20h160c11.047 0 20-8.953 20-20z" fill="#495672"/><path d="m320 470c0-11.047-8.953-20-20-20h-80c-11.047 0-20 8.953-20 20s8.953 20 20 20h80c11.047 0 20-8.953 20-20" fill="#495672"/></g></svg>