<svg height="85.333328" viewBox="0 0 85.333328 85.333328" width="85.333328" xmlns="http://www.w3.org/2000/svg"><g transform="matrix(.13333333 0 0 -.13333333 .222396 85.333331)"><path d="m638.332 320c0-176.73-143.266-320-320-320-176.73 0-319.99997 143.27-319.99997 320s143.26997 320 319.99997 320c176.734 0 320-143.27 320-320" fill="#e1e3cc"/><path d="m310 260h-110v20h110zm46.59 190h-.004c4.809 3.254 9.684 6.676 14.047 10-4.363-3.324-9.238-6.746-14.043-10m29.504 6.559v.121c0-.039 0-.082 0-.121" fill="#b7b7a7"/><path d="m386.094 440v36.559c-.18-8.938-39.031-32.758-51.742-41.071 4.566 2.809 9.89 4.512 15.648 4.512z" fill="#77caa9"/><path d="m386.094 476.559c.043 2.152-2.16 3.441-7.512 3.441h-138.582-10-30v-30-140-30h30 10 80v130c0 2.367.293 4.664.813 6.875 1.496 6.375 5.007 11.977 9.847 16.063 4.317 3.64 55.227 33.386 55.434 43.621" fill="#c84755"/><path d="m490 220h-150c-16.57 0-30 13.43-30 30v10h10v20 110c0 2.367.293 4.664.813 6.875 1.496 6.375 5.007 11.977 9.847 16.063 2.762 2.328 24.551 15.32 39.973 27.062h.004c-12.367-9.418-28.828-19.637-36.285-24.512 4.566 2.809 9.89 4.512 15.648 4.512h36.094v20h103.906c16.57 0 30-13.43 30-30v-160c0-16.57-13.43-30-30-30" fill="#b7b7a7"/><path d="m334.352 415.488c7.457 4.875 23.918 15.094 36.285 24.512h15.449.008v-20h-36.094c-5.758 0-11.082-1.703-15.648-4.512" fill="#97978c"/><path d="m320 260h-10v20h10zm0 130v20c0 2.367.293 4.664.813 6.875 1.496 6.375 5.007 11.977 9.847 16.063 1.981 1.667 13.742 8.82 25.926 17.062h.004c-8.817-5.965-17.414-11.355-22.238-14.512 4.566 2.809 9.89 4.512 15.648 4.512h20.633c-15.422-11.742-37.211-24.734-39.973-27.062-4.84-4.086-8.351-9.688-9.847-16.063-.52-2.211-.813-4.508-.813-6.875" fill="#97978c"/><path d="m334.352 435.488c4.824 3.157 13.421 8.547 22.238 14.512h29.496v-10h-15.449-.004-20.633c-5.758 0-11.082-1.703-15.648-4.512" fill="#62a48d"/><path d="m320 280h-10v140c0 16.57 13.43 30 30 30h16.586c-12.184-8.242-23.945-15.395-25.926-17.062-4.84-4.086-8.351-9.688-9.847-16.063-.52-2.211-.813-4.508-.813-6.875v-20z" fill="#a43f4a"/><path d="m490 440h-140c-16.57 0-30-13.43-30-30v-130-10c0-16.57 13.43-30 30-30h140c16.57 0 30 13.43 30 30v140c0 16.57-13.43 30-30 30" fill="#c84755"/><path d="m180 100c-11.047 0-20 8.953-20 20v327.641-307.641c0-11.047 8.953-20 20-20s20 8.953 20 20v-20c0-11.047-8.953-20-20-20" fill="#b7b7a7"/><path d="m200 140c0-11.047-8.953-20-20-20s-20 8.953-20 20v340c0 11.047 8.953 20 20 20s20-8.953 20-20z" fill="#e08e4c"/><path d="m208.293 480h-8.293c0 11.035-8.937 19.984-19.969 20 13.047-.016 24.149-8.359 28.262-20" fill="#b7b7a7"/><path d="m200 447.641v32.359h8.293c1.105-3.129 1.707-6.492 1.707-10 0-8.887-3.863-16.867-10-22.359" fill="#a43f4a"/><path d="m160 447.641c-6.137 5.492-10 13.472-10 22.359 0 16.57 13.434 30 30 30-11.047 0-20-8.953-20-20v-20z" fill="#b7b7a7"/><path d="m180 440c-7.684 0-14.691 2.891-20 7.641v12.359 20c0 11.047 8.953 20 20 20h.031c11.032-.016 19.969-8.965 19.969-20v-32.359c-5.309-4.754-12.316-7.641-20-7.641" fill="#b77744"/><path d="m210 490c0-16.57-13.43-30-30-30-16.566 0-30 13.43-30 30s13.434 30 30 30c16.57 0 30-13.43 30-30" fill="#e08e4c"/></g></svg>