<svg height="85.333328" viewBox="0 0 85.333328 85.333328" width="85.333328" xmlns="http://www.w3.org/2000/svg"><g transform="matrix(.13333333 0 0 -.13333333 0 85.333331)"><path d="m640 320c0-176.73-143.27-320-320-320s-320 143.27-320 320 143.27 320 320 320 320-143.27 320-320" fill="#f3cc70"/><path d="m344.852 140c0-11.047-8.954-20-20-20h-120c-11.043 0-20 8.953-20 20v240c0 11.047 8.957 20 20 20h120c11.046 0 20-8.953 20-20z" fill="#495672"/><path d="m316.422 258.43c-7.813-7.809-20.473-7.809-28.285 0l-84.852 84.855c-7.812 7.809-7.812 20.473 0 28.285l169.703 169.703c7.813 7.813 20.477 7.813 28.285 0l84.856-84.851c7.809-7.813 7.809-20.473 0-28.285z" fill="#fff"/><path d="m344.852 257.156v29.707l103.136 103.137.711-.711c7.813-7.809 7.813-20.473 0-28.285zm-160 0-18.993 18.996c-7.812 7.813-7.812 20.473 0 28.286l.707.71 18.286-18.285z" fill="#c7a85f"/><path d="m264.852 185.441c-5.118 0-10.235 1.954-14.141 5.86l-65.859 65.855v29.707l65.859-65.859c3.906-3.902 9.023-5.856 14.141-5.856 5.121 0 10.238 1.954 14.144 5.856l56.567 56.57 9.289 9.289v-29.707l-65.856-65.855c-3.906-3.906-9.023-5.86-14.144-5.86" fill="#404a5f"/><path d="m335.563 277.574 112.425 112.426-103.136-103.137z" fill="#d4d3d1"/><path d="m278.996 221.004c-7.812-7.809-20.476-7.809-28.285 0l-84.852 84.855c-7.812 7.809-7.812 20.473 0 28.282l169.704 169.707c7.812 7.808 20.472 7.808 28.285 0l84.851-84.852c7.813-7.812 7.813-20.476 0-28.285z" fill="#495672"/><path d="m265 250c-35.898 0-65 29.102-65 65s29.102 65 65 65 65-29.102 65-65-29.102-65-65-65" fill="#404a5f"/><path d="m325.145 321.727c0-33.215-26.926-60.145-60.145-60.145s-60.145 26.93-60.145 60.145c0 33.214 26.926 60.144 60.145 60.144s60.145-26.93 60.145-60.144" fill="#495672"/></g></svg>