<svg height="85.333328" viewBox="0 0 85.333328 85.333328" width="85.333328" xmlns="http://www.w3.org/2000/svg"><g transform="matrix(.13333333 0 0 -.13333333 0 85.333331)"><path d="m640 320c0-176.73-143.27-320-320-320s-320 143.27-320 320 143.27 320 320 320 320-143.27 320-320" fill="#495672"/><g fill="#404a5f"><path d="m165 360c-8.285 0-15 6.715-15 15v80c0 8.285 6.715 15 15 15h80c8.285 0 15-6.715 15-15s-6.715-15-15-15h-65v-65c0-8.285-6.715-15-15-15"/><path d="m475 360c-8.285 0-15 6.715-15 15v65h-65c-8.285 0-15 6.715-15 15s6.715 15 15 15h80c8.285 0 15-6.715 15-15v-80c0-8.285-6.715-15-15-15"/><path d="m475 130h-80c-8.285 0-15 6.715-15 15s6.715 15 15 15h65v65c0 8.285 6.715 15 15 15s15-6.715 15-15v-80c0-8.285-6.715-15-15-15"/><path d="m245 130h-80c-8.285 0-15 6.715-15 15v80c0 8.285 6.715 15 15 15s15-6.715 15-15v-65h65c8.285 0 15-6.715 15-15s-6.715-15-15-15"/><path d="m350 255h-60c-8.285 0-15 6.715-15 15v60c0 8.285 6.715 15 15 15h60c8.285 0 15-6.715 15-15v-60c0-8.285-6.715-15-15-15m-45 60v-30h30v30z"/></g><path d="m180 395v65h65c8.285 0 15 6.715 15 15s-6.715 15-15 15h-80c-3.949 0-7.812-1.602-10.605-4.395-2.793-2.792-4.395-6.656-4.395-10.605v-80c0-8.285 6.715-15 15-15s15 6.715 15 15" fill="#fff"/><path d="m395 460h65v-65c0-8.285 6.715-15 15-15s15 6.715 15 15v80c0 3.949-1.602 7.813-4.395 10.605-2.792 2.793-6.656 4.395-10.605 4.395h-80c-8.285 0-15-6.715-15-15s6.715-15 15-15" fill="#fff"/><path d="m460 245v-65h-65c-8.285 0-15-6.715-15-15s6.715-15 15-15h80c3.949 0 7.813 1.602 10.605 4.395 2.793 2.793 4.395 6.656 4.395 10.605v80c0 8.285-6.715 15-15 15s-15-6.715-15-15" fill="#fff"/><path d="m245 180h-65v65c0 8.285-6.715 15-15 15s-15-6.715-15-15v-80c0-3.949 1.602-7.812 4.395-10.605s6.656-4.395 10.605-4.395h80c8.285 0 15 6.715 15 15s-6.715 15-15 15" fill="#fff"/><path d="m350 290v15h-45v30h30v-45h15v15-15h15v60c0 3.949-1.602 7.813-4.395 10.605-2.792 2.793-6.656 4.395-10.605 4.395h-60c-3.949 0-7.812-1.602-10.605-4.395-2.793-2.792-4.395-6.656-4.395-10.605v-60c0-3.949 1.602-7.812 4.395-10.605s6.656-4.395 10.605-4.395h60c3.949 0 7.813 1.602 10.605 4.395 2.793 2.793 4.395 6.656 4.395 10.605z" fill="#c84755"/></g></svg>