<svg height="85.333328" viewBox="0 0 85.333328 85.333328" width="85.333328" xmlns="http://www.w3.org/2000/svg"><g transform="matrix(.13333333 0 0 -.13333333 0 85.333331)"><path d="m640 320c0-176.73-143.27-320-320-320s-320 143.27-320 320 143.27 320 320 320 320-143.27 320-320" fill="#e08e4c"/><path d="m495 140h-350c-13.801 0-25 11.027-25 24.617v221.93c0 13.59 11.199 24.223 25 24.223h170.832 4.168 200v-24.223-25.008-196.922c0-13.59-11.199-24.617-25-24.617" fill="#b77744"/><path d="m320 430.77h-175c-13.801 0-25-10.633-25-24.223v-221.934c0-13.586 11.199-24.613 25-24.613h350c13.801 0 25 11.027 25 24.613v196.926 25.008 24.223z" fill="#fff"/><path d="m520 455.387c0 13.586-11.199 24.613-25 24.613h-125c-13.801 0-25-11.027-25-24.613 0 0-3.25-22.574-25-24.617h200z" fill="#e1e3cc"/></g></svg>