<svg height="85.333328" viewBox="0 0 85.333328 85.333328" width="85.333328" xmlns="http://www.w3.org/2000/svg"><g transform="matrix(.13333333 0 0 -.13333333 0 85.333331)"><path d="m640 320c0-176.73-143.27-320-320-320s-320 143.27-320 320 143.27 320 320 320 320-143.27 320-320" fill="#495672"/><g fill="#404a5f"><path d="m370 220h-220c-16.566 0-30 13.434-30 30v180c0 16.57 13.434 30 30 30h220c16.566 0 30-13.43 30-30v-180c0-16.566-13.434-30-30-30m-220 210v-180h220v180z"/><path d="m485 120h-245c-8.285 0-15 6.715-15 15s6.715 15 15 15h230v190c0 8.285 6.715 15 15 15s15-6.715 15-15v-205c0-8.285-6.715-15-15-15"/><path d="m435 170h-245c-8.285 0-15 6.715-15 15s6.715 15 15 15h230v190c0 8.285 6.715 15 15 15s15-6.715 15-15v-205c0-8.285-6.715-15-15-15"/></g><path d="m370 480h-220c-16.566 0-30-13.43-30-30v-180c0-16.566 13.434-30 30-30h220c16.566 0 30 13.434 30 30v180c0 16.57-13.434 30-30 30zm0-30v-180h-220v180z" fill="#fff"/><path d="m485 140h-245c-8.285 0-15 6.715-15 15s6.715 15 15 15h230v190c0 8.285 6.715 15 15 15s15-6.715 15-15v-205c0-8.285-6.715-15-15-15" fill="#e1e3cc"/><path d="m435 190h-245c-8.285 0-15 6.715-15 15s6.715 15 15 15h230v190c0 8.285 6.715 15 15 15s15-6.715 15-15v-205c0-8.285-6.715-15-15-15" fill="#e1e3cc"/></g></svg>