<svg height="85.333328" viewBox="0 0 85.333328 85.333328" width="85.333328" xmlns="http://www.w3.org/2000/svg"><g transform="matrix(.13333333 0 0 -.13333333 0 85.333331)"><path d="m640 320c0-176.73-143.27-320-320-320s-320 143.27-320 320 143.27 320 320 320 320-143.27 320-320" fill="#e1e3cc"/><path d="m480 120h-280c-22.094 0-40 17.91-40 40v110 70l22.324 22.324c-9.765 9.762-9.765 25.59 0 35.352l14.328 14.328c-12.648 11.035-31.8 21.988-60.992 28.473-10.781 2.394-17.578 13.078-15.183 23.863 2.074 9.312 10.32 15.668 19.484 15.668 1.441 0 2.91-.156 4.379-.485 37.883-8.418 63.433-23.453 80.664-39.168l17.32 17.321c4.879 4.883 11.278 7.324 17.676 7.324s12.797-2.441 17.676-7.324l22.324 22.324h20 120c22.094 0 80-57.906 80-80v-70-170c0-22.09-17.906-40-40-40m-90 320 90-90v45.516c-6.508 12.461-32.023 37.976-44.484 44.484z" fill="#b7b7a7"/><g fill="#c84755"><path d="m440 500h-140l-140-140v-180c0-22.09 17.91-40 40-40h280c22.09 0 40 17.91 40 40v240c0 22.09-57.91 80-80 80zm-4.484-40c12.461-6.508 37.976-32.023 44.484-44.484v-235.516h-280v163.43l116.57 116.57z"/><path d="m200 155c-13.785 0-25 11.215-25 25v103.344l194.48 175.957 114.309-114.301h6.211c5.844 0 10.906.691 15 1.453v-166.453c0-13.785-11.215-25-25-25z"/><path d="m370 480-210-190v-110c0-22.09 17.91-40 40-40h280c22.09 0 40 17.91 40 40v170c0 10.547-1.801 13.301-6.09 13.301-4.695 0-12.363-3.301-23.91-3.301zm-1.035-41.391 99.82-99.824 8.789-8.785h12.426v-150c0-5.516-4.484-10-10-10h-280c-5.516 0-10 4.484-10 10v96.688z"/></g><path d="m259.727 403.289c-.387 2.254-3.778 20.559-20.25 41.566-16.383 21.036-46.145 43.903-95.137 54.668-10.785 2.399-21.469-4.402-23.863-15.183-2.399-10.785 4.402-21.469 15.183-23.863 41.008-9.235 61.246-26.368 72.363-40.332 5.52-7.028 8.668-13.403 10.407-17.801.867-2.196 1.375-3.891 1.644-4.895l.235-.961.011-.047 11.981 2.278-12.028-2.004.047-.274 11.981 2.278-12.028-2.004c1.817-10.899 12.118-18.258 23.012-16.442 10.899 1.817 18.258 12.122 16.442 23.012" fill="#495672"/><path d="m217.68 382.324 60 60c9.761 9.762 9.761 25.59 0 35.356-9.766 9.761-25.594 9.761-35.36 0l-60-60c-9.761-9.766-9.761-25.594 0-35.356 9.766-9.765 25.594-9.765 35.36 0" fill="#495672"/><path d="m200 155c-13.785 0-25 11.215-25 25v173.789l131.211 131.211h13.789c13.785 0 25-11.215 25-25v-1.328l49.973-279.848c-.618-13.242-11.578-23.824-24.973-23.824z" fill="#c84755"/><path d="m320 500h-20l-140-140v-180c0-22.09 17.91-40 40-40h170c22.09 0 40 17.91 40 40l-50 280c0 22.09-17.91 40-40 40zm0-30c5.516 0 10-4.484 10-10v-2.656l.469-2.617 49.375-276.5c-.84-4.672-4.938-8.227-9.844-8.227h-170c-5.516 0-10 4.484-10 10v167.574l122.426 122.426z" fill="#c84755"/></g></svg>