<svg height="85.333328" viewBox="0 0 85.333328 85.333328" width="85.333328" xmlns="http://www.w3.org/2000/svg"><g transform="matrix(.13333333 0 0 -.13333333 0 85.333331)"><path d="m640 320c0-176.73-143.27-320-320-320s-320 143.27-320 320 143.27 320 320 320 320-143.27 320-320" fill="#e08e4c"/><path d="m320 45c-37.57 0-69.656 38.6445-89.527 100.465-19.43-4.211-37.711-6.461-54.141-6.461-47.797 0-68.348 18.215-77.1679 33.496-18.75 32.477-1.418 79.477 42.0119 127.5-43.4299 48.023-60.7619 95.023-42.0119 127.5 8.8199 15.281 29.3709 33.496 77.1679 33.496 16.43 0 34.711-2.25 54.141-6.461 19.871 61.82 51.957 100.465 89.527 100.465s69.656-38.645 89.527-100.465c19.43 4.211 37.711 6.461 54.141 6.461 47.797 0 68.348-18.215 77.168-33.496 18.75-32.477 1.418-79.477-42.012-127.5 43.43-48.023 60.762-95.023 42.012-127.5-8.82-15.281-29.371-33.496-77.168-33.496-16.43 0-34.711 2.25-54.141 6.461-19.871-61.8205-51.957-100.465-89.527-100.465m0 130.582c-20.484-9.117-40.77-16.687-60.297-22.535 15.938-48.945 38.805-78.047 60.297-78.047s44.359 29.102 60.297 78.047c-19.527 5.848-39.813 13.418-60.297 22.535m157.645 102.891c-14.633-13.778-31.29-27.469-49.735-40.77-2.285-22.535-5.797-43.726-10.387-63.223 16.567-3.472 32.196-5.476 46.145-5.476 26.121 0 44.301 6.562 51.191 18.496 10.719 18.57-2.972 52.809-37.214 90.973m-315.29 0c-34.242-38.164-47.933-72.403-37.214-90.973 6.89-11.934 25.07-18.496 51.191-18.496 13.949 0 29.578 2.004 46.145 5.476-4.59 19.497-8.102 40.688-10.387 63.223-18.445 13.301-35.102 26.992-49.735 40.77m232.329-63.043c-6.254-3.903-12.625-7.766-19.188-11.551-6.504-3.758-13.047-7.324-19.601-10.793 11.015-4.27 21.777-7.859 32.347-11.043 2.469 10.516 4.629 21.645 6.442 33.387m-149.368 0c1.813-11.742 3.973-22.871 6.442-33.387 10.57 3.184 21.332 6.773 32.347 11.043-6.554 3.469-13.097 7.035-19.601 10.793-6.563 3.785-12.934 7.648-19.188 11.551m74.684 175.855c-13.496-6.43-27.047-13.371-40.496-21.14-13.742-7.93-26.621-16.114-38.719-24.415-1.14-14.621-1.785-29.867-1.785-45.73s.645-31.109 1.785-45.73c12.098-8.301 24.977-16.485 38.719-24.415 13.449-7.769 27-14.71 40.496-21.14 13.496 6.43 27.047 13.371 40.496 21.14 13.742 7.93 26.621 16.114 38.719 24.415 1.14 14.621 1.785 29.867 1.785 45.73s-.645 31.109-1.785 45.73c-12.098 8.301-24.977 16.485-38.719 24.415-13.449 7.769-27 14.71-40.496 21.14m110.586-68.898c.258-7.367.414-14.817.414-22.387s-.156-15.02-.414-22.387c9.309 7.481 17.906 14.953 25.816 22.387-7.91 7.434-16.507 14.906-25.816 22.387m-221.172 0c-9.309-7.481-17.906-14.953-25.816-22.387 7.91-7.434 16.507-14.906 25.816-22.387-.258 7.367-.414 14.817-.414 22.387s.156 15.02.414 22.387m254.254 108.609c-13.949 0-29.578-2.008-46.145-5.476 4.59-19.497 8.102-40.688 10.387-63.223 18.445-13.301 35.102-26.992 49.735-40.77 34.242 38.164 47.933 72.403 37.214 90.973-6.89 11.934-25.07 18.496-51.191 18.496m-287.336 0c-26.121 0-44.301-6.562-51.191-18.496-10.719-18.57 2.972-52.809 37.214-90.973 14.633 13.778 31.29 27.469 49.735 40.77 2.285 22.535 5.797 43.726 10.387 63.223-16.567 3.468-32.196 5.476-46.145 5.476m211.91-13.039c-10.57-3.184-21.332-6.773-32.347-11.043 6.554-3.469 13.097-7.035 19.601-10.793 6.563-3.785 12.934-7.648 19.188-11.551-1.813 11.743-3.973 22.871-6.442 33.387m-136.484 0c-2.469-10.516-4.629-21.644-6.442-33.387 6.254 3.903 12.625 7.766 19.188 11.551 6.504 3.758 13.047 7.324 19.601 10.793-11.015 4.27-21.777 7.859-32.347 11.043m68.242 107.043c-21.492 0-44.359-29.102-60.297-78.047 19.527-5.848 39.813-13.418 60.297-22.535 20.484 9.117 40.77 16.687 60.297 22.535-15.938 48.945-38.805 78.047-60.297 78.047" fill="#b77744"/><path d="m320 270c-16.57 0-30 13.43-30 30s13.43 30 30 30 30-13.43 30-30-13.43-30-30-30" fill="#b77744"/><g fill="#fff"><path d="m320 545c-38.312 0-81-92.402-81-225s42.688-225 81-225c38.313 0 81 92.402 81 225s-42.687 225-81 225zm0-480c-63.281 0-111 109.629-111 255s47.719 255 111 255 111-109.629 111-255-47.719-255-111-255"/><path d="m463.668 450.996c-49.32 0-118.172-22.742-184.164-60.851-114.836-66.297-173.52-149.461-154.363-182.645 6.89-11.934 25.07-18.496 51.191-18.496 49.32 0 118.172 22.742 184.164 60.851 114.836 66.297 173.52 149.461 154.363 182.645-6.89 11.934-25.07 18.496-51.191 18.496zm-287.336-291.992c-47.797 0-68.348 18.215-77.1679 33.496-31.6407 54.805 39.4409 150.945 165.3399 223.621 70.355 40.625 144.809 64.875 199.164 64.875 47.797 0 68.348-18.215 77.168-33.496 31.641-54.805-39.441-150.945-165.34-223.621-70.355-40.625-144.808-64.875-199.164-64.875"/><path d="m463.668 450.996c-49.32 0-118.172-22.742-184.164-60.851-114.836-66.297-173.52-149.461-154.363-182.645 6.89-11.934 25.07-18.496 51.191-18.496 49.32 0 118.172 22.742 184.164 60.851 114.836 66.297 173.52 149.461 154.363 182.645-6.89 11.934-25.07 18.496-51.191 18.496zm-287.336-291.992c-47.797 0-68.348 18.215-77.1679 33.496-31.6407 54.805 39.4409 150.945 165.3399 223.621 70.355 40.625 144.809 64.875 199.164 64.875 47.797 0 68.348-18.215 77.168-33.496 31.641-54.805-39.441-150.945-165.34-223.621-70.355-40.625-144.808-64.875-199.164-64.875"/><path d="m176.332 450.996c-26.121 0-44.301-6.562-51.191-18.496-19.157-33.184 39.527-116.348 154.363-182.645 65.992-38.109 134.844-60.851 184.164-60.851 26.121 0 44.301 6.562 51.191 18.496 19.157 33.184-39.527 116.348-154.363 182.645-65.992 38.109-134.844 60.851-184.164 60.851zm287.336-291.992c-54.355 0-128.809 24.25-199.164 64.875-125.899 72.676-196.9806 168.816-165.3399 223.621 8.8199 15.281 29.3709 33.496 77.1679 33.496 54.356 0 128.809-24.25 199.164-64.875 125.899-72.676 196.981-168.816 165.34-223.621-8.82-15.281-29.371-33.496-77.168-33.496"/><path d="m350 320c0-16.57-13.43-30-30-30s-30 13.43-30 30 13.43 30 30 30 30-13.43 30-30"/></g></g></svg>