<svg height="85.333328" viewBox="0 0 85.333328 85.333328" width="85.333328" xmlns="http://www.w3.org/2000/svg"><g transform="matrix(.13333333 0 0 -.13333333 0 85.333331)"><path d="m640 320c0-176.73-143.27-320-320-320s-320 143.27-320 320 143.27 320 320 320 320-143.27 320-320" fill="#495672"/><path d="m335 60h-30v.5156c-120.59 7.4414-217.043 103.8944-224.4844 224.4844h-.5156v30h.5156c7.4414 120.59 103.8944 217.043 224.4844 224.484v.516h30v-.516c120.59-7.441 217.043-103.894 224.484-224.484h.516v-30h-.516c-7.441-120.59-103.894-217.043-224.484-224.4844zm0 133.043v-100.3672c19.473 6.3476 38.668 24.5152 54.313 52.3282 6.652 11.824 12.328 24.945 17.199 38.891-22.571 5.132-46.633 8.246-71.512 9.148m-30 .008c-24.883-.895-48.945-3.992-71.527-9.113 4.871-13.961 10.554-27.094 17.215-38.934 15.644-27.813 34.839-45.9806 54.312-52.3282zm130.598-17.067c-9.391-27.597-21.832-51.519-36.469-70.386 29.418 12.019 55.394 30.586 76.398 53.793-12.257 6.371-25.636 11.922-39.929 16.593m-231.211.059c-14.313-4.664-27.707-10.207-39.985-16.574 21.016-23.246 47.02-41.836 76.469-53.871-14.648 18.882-27.094 42.824-36.484 70.445m250.324 108.957c-.984-28.387-4.738-55.43-10.797-80.297 18.199-5.887 35.254-12.973 50.578-21.367 19.774 29.477 32.082 64.25 34.746 101.664zm-343.949 0c2.66-37.375 14.953-72.113 34.687-101.57 15.34 8.383 32.41 15.461 50.621 21.336-6.05 24.847-9.797 51.871-10.781 80.234zm224.238 0v-61.969c27.758-.949 54.688-4.476 79.984-10.375 5.45 22.649 8.68 47.032 9.614 72.344zm-119.598 0c.934-25.293 4.161-49.66 9.602-72.297 25.305 5.883 52.238 9.399 79.996 10.34v61.957zm279.782 130.527c-15.414-8.5-32.563-15.699-50.911-21.648 5.86-24.473 9.469-51.039 10.438-78.879h74.527c-2.629 36.949-14.711 71.289-34.054 100.527m-79.825-29.617c-25.406-5.941-52.468-9.492-80.359-10.441v-60.469h89.598c-.914 24.77-3.996 48.676-9.239 70.91m-190.718 0c-5.243-22.234-8.325-46.14-9.239-70.91h89.598v60.469c-27.891.949-54.953 4.5-80.359 10.441m-79.828 29.61c-19.344-29.235-31.422-63.575-34.051-100.52h74.527c.969 27.84 4.578 54.406 10.438 78.879-18.348 5.949-35.5 13.144-50.914 21.641m190.187 91.804v-101.867c25.051.906 49.273 4.047 71.984 9.238-4.968 14.473-10.796 28.082-17.671 40.301-15.645 27.813-34.84 45.981-54.313 52.328m-30 0c-19.473-6.347-38.668-24.515-54.312-52.328-6.875-12.223-12.704-25.828-17.672-40.301 22.707-5.191 46.929-8.332 71.984-9.238zm94.125-12.922c14.887-19.179 27.48-43.601 36.922-71.777 14.496 4.754 28.07 10.398 40.461 16.906-21.168 23.715-47.504 42.664-77.383 54.871m-158.254 0c-29.871-12.207-56.211-31.156-77.375-54.871 12.391-6.504 25.961-12.152 40.457-16.906 9.442 28.176 22.039 52.598 36.918 71.777" fill="#404a5f"/><g fill="#fff"><path d="m320 560c-132.547 0-240-107.453-240-240s107.453-240 240-240 240 107.453 240 240-107.453 240-240 240zm0-30c115.793 0 210-94.203 210-210s-94.207-210-210-210-210 94.203-210 210 94.207 210 210 210"/><path d="m320 560c-74.559 0-135-107.453-135-240s60.441-240 135-240 135 107.453 135 240-60.441 240-135 240zm0-30c24.387 0 49.648-20.047 69.313-55.004 23.011-40.91 35.687-95.957 35.687-154.996s-12.676-114.086-35.687-154.996c-19.665-34.957-44.926-55.004-69.313-55.004s-49.648 20.047-69.312 55.004c-23.012 40.91-35.688 95.957-35.688 154.996s12.676 114.086 35.688 154.996c19.664 34.957 44.925 55.004 69.312 55.004"/><path d="m335 80h-30v480h30z"/><path d="m320 395c-74.246 0-144.473 18.613-192.656 51.063l16.758 24.882c43.359-29.199 107.468-45.945 175.898-45.945 68.359 0 132.441 16.719 175.801 45.879l16.738-24.902c-48.184-32.391-118.359-50.977-192.539-50.977"/><path d="m495.793 167.559c-43.359 29.199-107.473 45.949-175.898 45.949-68.372 0-132.446-16.731-175.801-45.891l-16.739 24.903c48.172 32.402 118.36 50.988 192.54 50.988 74.246 0 144.468-18.613 192.656-51.067z"/><path d="m560 305h-480v30h480z"/></g></g></svg>