<svg height="85.333328" viewBox="0 0 85.333328 85.333328" width="85.333328" xmlns="http://www.w3.org/2000/svg"><g transform="matrix(.13333333 0 0 -.13333333 0 85.333331)"><path d="m640 320c0-176.73-143.27-320-320-320s-320 143.27-320 320 143.27 320 320 320 320-143.27 320-320" fill="#c84755"/><path d="m436.055 177.281-110.035 55.016c-1.891.949-3.961 1.422-6.02 1.422s-4.129-.473-6.02-1.422l-110.035-55.016 116.055 261.11z" fill="#a43f4a"/><path d="m176.41 134.992c-3.387 0-6.738 1.281-9.301 3.735-4.109 3.929-5.308 10.011-3.004 15.203l143.59 323.078c2.164 4.859 6.985 7.992 12.305 7.992s10.141-3.133 12.305-7.992l143.59-323.078c2.304-5.192 1.105-11.274-3.004-15.203-2.563-2.45-5.911-3.727-9.301-3.727-2.051 0-4.11.465-6.02 1.418l-137.57 68.785-137.57-68.785c-1.91-.957-3.973-1.426-6.02-1.426m143.59 98.727c2.059 0 4.129-.473 6.02-1.422l110.035-55.016-116.055 261.11-116.055-261.11 110.035 55.016c1.891.949 3.961 1.422 6.02 1.422" fill="#a43f4a"/><g fill="#fff"><path d="m320 490-140.789-316.773 140.789 70.394 140.789-70.394z"/><path d="m320 490-13.707 6.094-140.789-316.774c-2.574-5.797-1.238-12.554 3.344-16.937 4.586-4.379 11.402-5.406 17.074-2.57l134.078 67.039 134.078-67.039c5.672-2.836 12.488-1.809 17.074 2.57 4.582 4.383 5.918 11.14 3.344 16.937l-140.789 316.774c-2.406 5.414-7.781 8.906-13.707 8.906s-11.301-3.488-13.707-8.906l13.707-6.094-13.707-6.09 123.809-278.566-103.395 51.695c-4.215 2.106-9.203 2.106-13.414 0l-103.395-51.695 123.809 278.566-13.707 6.09-13.707-6.09z"/></g></g></svg>