<svg height="85.333328" viewBox="0 0 85.333328 85.333328" width="85.333328" xmlns="http://www.w3.org/2000/svg"><g transform="matrix(.13333333 0 0 -.13333333 0 85.333331)"><path d="m640 320c0-176.73-143.27-320-320-320s-320 143.27-320 320 143.27 320 320 320 320-143.27 320-320" fill="#495672"/><g fill="#404a5f"><path d="m210 104.73c-32.402 18.668-60.508 45.797-80.551 80.512s-29.4842 72.617-29.449 110.016h220z"/><path d="m430.012 104.707-110.012 190.551h220c-.074-75.969-39.465-149.832-109.988-190.551"/><path d="m320 295.258-110.012 190.547c34.625 19.992 72.41 29.488 109.711 29.488 38.66 0 76.797-10.211 110.301-29.512z"/></g><path d="m100 315.258c-.0352-37.399 9.406-75.301 29.449-110.016s48.149-61.844 80.551-80.512l110 190.528z" fill="#f3cc70"/><path d="m430.012 124.707c70.523 40.719 109.914 114.582 109.988 190.551h-220z" fill="#f3cc70"/><path d="m430 505.781c-65.828 37.922-149.492 40.742-220.012.024l110.012-190.547z" fill="#f3cc70"/></g></svg>