<svg height="85.333328" viewBox="0 0 85.333328 85.333328" width="85.333328" xmlns="http://www.w3.org/2000/svg"><g transform="matrix(.13333333 0 0 -.13333333 0 85.333331)"><path d="m640 320c0-176.73-143.27-320-320-320s-320 143.27-320 320 143.27 320 320 320 320-143.27 320-320" fill="#c84755"/><path d="m318.582 125.605s-173.184 57.692-178.133 198.407c-.066 1.484-.449 2.652-.449 4.207l.066.765-.066.989h.18c.945 55.215 45.742 104.422 101.07 104.422 31.996 0 60.188-16.739 78.75-41.309 18.563 24.57 46.754 41.309 78.75 41.309 55.328 0 100.125-49.207 101.07-104.422h.18l-.066-.989.066-.765c0-1.621-.406-2.86-.496-4.434-5.195-140.558-180.922-198.18-180.922-198.18" fill="#a43f4a"/><path d="m499.82 349.973c-.945 55.215-45.742 104.422-101.07 104.422-31.996 0-60.187-16.739-78.75-41.309-18.562 24.57-46.754 41.309-78.75 41.309-55.328 0-100.125-49.207-101.07-104.422h-.18l.066-.989-.066-.765c0-1.555.383-2.723.449-4.207 4.949-140.715 178.133-198.407 178.133-198.407s175.727 57.622 180.922 198.18c.09 1.574.496 2.813.496 4.434l-.066.765.066.989z" fill="#fff"/></g></svg>