<svg height="85.333328" viewBox="0 0 85.333328 85.333328" width="85.333328" xmlns="http://www.w3.org/2000/svg"><g transform="matrix(.13333333 0 0 -.13333333 0 85.333331)"><path d="m640 320c0-176.73-143.27-320-320-320s-320 143.27-320 320 143.27 320 320 320 320-143.27 320-320" fill="#e08e4c"/><path d="m440 100h-140c-11.047 0-20 8.953-20 20s8.953 20 20 20h140c11.047 0 20-8.953 20-20s-8.953-20-20-20" fill="#495672"/><path d="m500 440h-280c-11.047 0-20 8.953-20 20s8.953 20 20 20h280c11.047 0 20-8.953 20-20s-8.953-20-20-20" fill="#b77744"/><path d="m500 475h-280" fill="#495672"/><path d="m500 490h-280c-8.285 0-15-6.715-15-15s6.715-15 15-15h280c8.285 0 15 6.715 15 15s-6.715 15-15 15" fill="#fff"/><path d="m370 140c-82.844 0-150 27.156-150 110 0 13.125-13.867 20.027-13.867 20.027l-86.133 40.911s-.074.035-.219.109c3.301-.688 6.719-1.047 10.219-1.047 8.16 0 15.863 1.953 22.664 5.422l53.469-25.395s13.867-6.902 13.867-20.027c0-82.844 67.156-110 150-110 72.914 0 133.625 12.047 147.141 81.004-6.309-75.399-74.227-101.004-147.141-101.004m.328 254.504c-.113 1.824-.199 3.652-.254 5.492l.684-.035c-.164-1.813-.313-3.633-.43-5.457" fill="#b77744"/><path d="m370 405c0 5.051.313 10.027.758 14.961l-.758.039c-38.676 0-73.836-14.723-100.41-38.777-3.899-3.532-12.715-11.223-26.051-11.223-30.887 0-143.539 0-143.539 0l20-39.062 86.133-40.911s13.867-6.902 13.867-20.027c0-82.844 67.156-110 150-110 72.914 0 133.625 12.047 147.141 81.004-82.719 8.91-147.141 78.906-147.141 163.996" fill="#495672"/><path d="m119.781 311.047c-22.7146 4.715-39.781 24.84-39.781 48.953 0 27.613 22.387 50 50 50 24.188 0 44.367-17.18 49-40-38.906 0-79 0-79 0l4.867-9.504c-3.254-2.469-5.074-5.875-5.074-10.445 0-27.824 17.812-37.879 19.988-39.004" fill="#b77744"/><path d="m130 310c-3.5 0-6.918.359-10.219 1.047-2.176 1.125-19.988 11.18-19.988 39.004 0 4.57 1.82 7.976 5.074 10.445l15.133-29.558 32.664-15.516c-6.801-3.469-14.504-5.422-22.664-5.422" fill="#97633d"/><path d="m152.664 315.422-32.664 15.516-15.133 29.558-4.867 9.504h79c.656-3.23 1-6.574 1-10 0-19.453-11.109-36.316-27.336-44.578m-22.664 54.578c-5.516 0-10-4.484-10-10s4.484-10 10-10 10 4.484 10 10-4.484 10-10 10" fill="#404a5f"/><path d="m130 430c-27.613 0-50-22.387-50-50s22.387-50 50-50 50 22.387 50 50-22.387 50-50 50zm0-30c11.027 0 20-8.973 20-20s-8.973-20-20-20-20 8.973-20 20 8.973 20 20 20" fill="#fff"/><path d="m370.758 419.961c-.445-4.934-.758-9.91-.758-14.961 0-85.09 64.422-155.086 147.141-163.996 1.839 9.387 2.859 19.07 2.859 28.996 0 82.59-66.754 149.551-149.242 149.961" fill="#e1e3cc"/></g></svg>