<svg height="85.333328" viewBox="0 0 85.333328 85.333328" width="85.333328" xmlns="http://www.w3.org/2000/svg"><g transform="matrix(.13333333 0 0 -.13333333 0 85.333331)"><path d="m640 320c0-176.73-143.27-320-320-320s-320 143.27-320 320 143.27 320 320 320 320-143.27 320-320" fill="#7db6d8"/><path d="m320 140.313c-110.457 0-200 89.402-200 199.687s89.543 199.688 200 199.688 200-89.403 200-199.688-89.543-199.687-200-199.687" fill="#6594b2"/><path d="m350 60.3125h-60c-16.57 0-30 13.4297-30 30 0 16.5705 13.43 30.0005 30 30.0005h60c16.57 0 30-13.43 30-30.0005 0-16.5703-13.43-30-30-30" fill="#6594b2"/><path d="m520 359.688c0-110.286-89.543-199.688-200-199.688s-200 89.402-200 199.688c0 110.285 89.543 199.687 200 199.687s200-89.402 200-199.687" fill="#495672"/><path d="m480 359.688c0-110.286-71.637-199.688-160-199.688s-160 89.402-160 199.688c0 110.285 71.637 199.687 160 199.687s160-89.402 160-199.687" fill="#fff"/><path d="m400 359.688c0-110.286-35.816-199.688-80-199.688s-80 89.402-80 199.688c0 110.285 35.816 199.687 80 199.687s80-89.402 80-199.687" fill="#495672"/><path d="m380 110c0-16.5703-13.43-30-30-30h-60c-16.57 0-30 13.4297-30 30 0 16.57 13.43 30 30 30h60c16.57 0 30-13.43 30-30" fill="#c84755"/></g></svg>