<svg height="85.333328" viewBox="0 0 85.333328 85.333328" width="85.333328" xmlns="http://www.w3.org/2000/svg"><g transform="matrix(.13333333 0 0 -.13333333 0 85.333331)"><path d="m640 320c0-176.73-143.27-320-320-320s-320 143.27-320 320 143.27 320 320 320 320-143.27 320-320" fill="#c84755"/><path d="m460 100h-280c-11.047 0-20 8.953-20 20s8.953 20 20 20h19.996c0 2.473.004 5.488.004 9.168h120 120c0-3.68.004-6.695.004-9.168h19.996c11.047 0 20-8.953 20-20s-8.953-20-20-20m-87.742 210c-.414.398-.805.77-1.16 1.109-9.149 8.754 0 17.782 0 17.782s13.406 12.824 41.734 39.929c25.309 24.211 27.078 58.313 27.172 65.313l-.004-18.715s1.16-39.492-27.168-66.598c-23.531-22.515-36.766-35.179-40.574-38.82m-104.516 0c-3.808 3.641-17.043 16.305-40.574 38.82-28.328 27.106-27.168 66.598-27.168 66.598l-.004 18.711c.094-7.012 1.871-41.102 27.172-65.309 28.328-27.105 41.734-39.929 41.734-39.929s9.149-9.028 0-17.782c-.355-.339-.746-.711-1.16-1.109m172.262 125.297c-.004.078-.004.121-.004.121l.004 24.582h.004zm-240.008 0-.004 24.703h.004l.004-24.582s0-.039-.004-.121" fill="#a43f4a"/><path d="m410 273.891s-29.754 28.468-38.902 37.218c-9.149 8.754 0 17.782 0 17.782s13.406 12.824 41.734 39.929c28.328 27.106 27.168 66.598 27.168 66.598l.008 51.25-120.008 10-120.008-10 .008-51.25s-1.16-39.492 27.168-66.598c28.328-27.105 41.734-39.929 41.734-39.929s9.149-9.028 0-17.782c-9.148-8.75-38.902-37.218-38.902-37.218s-30-28.473-30-73.891c0-45.414-.008-50.832-.008-50.832h120.008 120.008s-.008 5.418-.008 50.832c0 45.418-30 73.891-30 73.891" fill="#fff"/><path d="m310 210 .309 110c.164 20.605-9.524 33.621-13.305 37.359l-42.184 40.36c-14.324 13.707-14.843 36.304-14.84 36.519h80.02 80.02l-.004.004c-.012 0-.235-22.554-14.84-36.523l-41.731-39.922c-4.23-4.176-13.609-17.192-13.449-37.797l.004-110z" fill="#495672"/><path d="m460 460h-19.992v26.668l-120.008 10-120.008-10 .004-20h-.004v-6.668h-19.992c-11.047 0-20 8.953-20 20s8.953 20 20 20h280c11.047 0 20-8.953 20-20s-8.953-20-20-20" fill="#923b44"/><path d="m440.008 460h-.004v6.668h.004zm-240.012 0h-.004v6.668z" fill="#79343c"/><path d="m440.004 460h-240.008v6.668l-.004 20 120.008 10 120.008-10-.004-20z" fill="#bcb9b9"/><path d="m480 500c0-11.047-8.953-20-20-20h-280c-11.047 0-20 8.953-20 20s8.953 20 20 20h280c11.047 0 20-8.953 20-20" fill="#f3cc70"/><path d="m480 140c0-11.047-8.953-20-20-20h-280c-11.047 0-20 8.953-20 20s8.953 20 20 20h280c11.047 0 20-8.953 20-20" fill="#f3cc70"/><path d="m410 160h-180l90 80z" fill="#495672"/></g></svg>