<svg height="85.333328" viewBox="0 0 85.333328 85.333328" width="85.333328" xmlns="http://www.w3.org/2000/svg"><g transform="matrix(.13333333 0 0 -.13333333 0 85.333331)"><path d="m640 320c0-176.73-143.27-320-320-320s-320 143.27-320 320 143.27 320 320 320 320-143.27 320-320" fill="#e08e4c"/><path d="m480 100h-320c-22.094 0-40 17.91-40 40v240 80c0 22.094 17.906 40 40 40h320c22.094 0 40-17.906 40-40v-80-240c0-22.09-17.906-40-40-40" fill="#b77744"/><path d="m160 140c-11.031 0-20 8.977-20 20v320c0 11.023 8.969 20 20 20h320c11.031 0 20-8.977 20-20v-320c0-11.023-8.969-20-20-20z" fill="#7db6d8"/><path d="m480 520h-320c-22.094 0-40-17.906-40-40v-80-240c0-22.09 17.906-40 40-40h320c22.094 0 40 17.91 40 40v240 80c0 22.094-17.906 40-40 40zm0-40v-320h-320v320z" fill="#fff"/><path d="m480 160h-320v40h320z" fill="#fff"/><path d="m139.895 200h348.96v29.211s-17.058 29.773-32.867 48.426c-11.758 13.879-29.316 17.804-44.636.758l-27.524-26.434-59.988 76.285c-22.344 28.41-58.902 28.41-81.242 0z" fill="#495672"/><path d="m430 400c0-16.57-13.434-30-30-30-16.57 0-30 13.43-30 30s13.43 30 30 30c16.566 0 30-13.43 30-30" fill="#f3cc70"/><path d="m480 520h-320c-22.094 0-40-17.906-40-40v-80-240c0-22.09 17.906-40 40-40h320c22.094 0 40 17.91 40 40v240 80c0 22.094-17.906 40-40 40zm0-40v-320h-320v320z" fill="#fff"/></g></svg>