<svg height="85.333328" viewBox="0 0 85.333328 85.333328" width="85.333328" xmlns="http://www.w3.org/2000/svg"><g transform="matrix(.13333333 0 0 -.13333333 0 85.333331)"><path d="m640 320c0-176.73-143.27-320-320-320s-320 143.27-320 320 143.27 320 320 320 320-143.27 320-320" fill="#e08e4c"/><path d="m320 65c-1.074 0-2.148.1172-3.203.3477-184.879 40.4373-222.9103 155.4253-222.2579 244.7573v.004.004c.582 78.231 30.5899 143.485 31.8669 146.227 1.735 3.719 4.91 6.566 8.805 7.875 1.551.531 3.164.793 4.777.793 2.41 0 4.813-.586 6.992-1.731.399-.207 42.043-21.656 90.797-21.656 27.989 0 52.875 7.035 73.981 20.914 2.5 1.645 5.371 2.469 8.242 2.469s5.742-.824 8.242-2.469c21.106-13.879 45.996-20.914 73.981-20.914 49.054.004 90.382 21.442 90.797 21.656 2.168 1.145 4.566 1.727 6.976 1.727 1.621 0 3.25-.266 4.817-.801 3.898-1.316 7.078-4.18 8.8-7.91 1.27-2.738 31.035-67.996 31.836-146.141.922-90.097-36.91-205.714-222.351-244.8317-1.024-.2148-2.063-.3203-3.098-.3203" fill="#b77744"/><path d="m109.543 335c-.648-88.238 38.398-192.363 210.457-230 172.617 36.41 211.355 141.195 210.449 230z" fill="#495672"/><path d="m109.543 335-15 .117-.0078-2.262c-.0235-46.062 10.4918-97.273 44.2738-141.894 33.742-44.66 90.164-81.477 177.984-100.6133 2.047-.4493 4.254-.4571 6.305-.0235 43.953 9.2735 79.98 22.9488 109.312 39.9568 44.008 25.465 72.762 58.625 89.949 94.078 17.239 35.461 23.102 72.903 23.106 107.621 0 1.071-.008 2.122-.016 3.161-.078 8.238-6.761 14.859-15 14.859h-420.906c-8.238 0-14.9375-6.645-15-14.883l15-.117v-15h420.906v15l-15-.141c.008-.964.016-1.925.016-2.879-.024-41.91-9.418-86.07-38.184-123.976-14.422-18.992-33.785-36.602-59.922-51.77-26.132-15.156-59.078-27.828-100.457-36.554l3.098-14.68 3.207 14.656c-82.848 18.196-131.656 51.418-160.48 89.41-28.786 38.028-38.168 82.075-38.192 123.789l.008 2.032-15 .113v-15z" fill="#fff"/><path d="m500 475s-100-52.602-180 0c-80-52.602-180 0-180 0s-29.898-64.129-30.457-140h420.906c-.777 75.824-30.449 140-30.449 140" fill="#c84755"/><path d="m500 475-6.984 13.277 2.558-4.859-2.539 4.867-.019-.008 2.558-4.859-2.539 4.867c-.207-.219-42.597-21.808-90.812-21.664-24.532.024-50.246 5.32-73.985 20.914-4.992 3.281-11.488 3.281-16.48 0-23.735-15.594-49.449-20.887-73.981-20.91-24.472-.016-47.484 5.426-64.203 10.938-8.363 2.746-15.148 5.496-19.773 7.523-2.317 1.016-4.086 1.848-5.246 2.41l-1.274.629-.273.141-.043.019-2.637-5.055 2.652 5.047-.015.008-2.637-5.055 2.652 5.047c-3.644 1.918-7.867 2.254-11.773.938-3.902-1.317-7.062-4.141-8.801-7.875-.406-1.067-31.1599-66.527-31.863-146.231-.0274-4.004 1.5312-7.832 4.3554-10.675 2.8246-2.844 6.6366-4.434 10.6446-4.434h420.906c4.008 0 7.84 1.602 10.66 4.449 2.821 2.848 4.379 6.699 4.34 10.703-.929 79.602-31.437 145.086-31.836 146.145-1.726 3.738-4.894 6.59-8.797 7.91-3.906 1.324-8.152.988-11.8-.93l6.984-13.277-13.613-6.293.039-.094c1.347-2.781 28.414-63.972 29.023-133.765l15 .152v15h-420.906v-15l15-.109c.25 35.996 7.547 69.738 14.82 94.308 3.633 12.285 7.25 22.281 9.926 29.137 1.34 3.43 2.445 6.074 3.203 7.832l.856 1.953.207.453.039.086-13.594 6.34-6.984-13.273c1.152-.489 47.078-24.95 104.761-25.102 28.801-.023 60.868 6.367 90.461 25.844l-8.238 12.531-8.238-12.531c29.593-19.473 61.656-25.867 90.461-25.844 57.683.148 103.609 24.613 104.761 25.102l-6.984 13.273-13.613-6.293z" fill="#fff"/></g></svg>