<svg height="85.333328" viewBox="0 0 85.333328 85.333328" width="85.333328" xmlns="http://www.w3.org/2000/svg"><g transform="matrix(.13333333 0 0 -.13333333 0 85.333331)"><path d="m640 320c0-176.73-143.27-320-320-320s-320 143.27-320 320 143.27 320 320 320 320-143.27 320-320" fill="#e08e4c"/><path d="m500 190h-360c-11.047 0-20 9.305-20 20.785v168.43-148.43c0-11.48 8.953-20.785 20-20.785h360c11.047 0 20 9.305 20 20.785v-20c0-11.48-8.953-20.785-20-20.785" fill="#b77744"/><path d="m520 230.785c0-11.48-8.953-20.785-20-20.785h-360c-11.047 0-20 9.305-20 20.785v168.43c0 11.48 8.953 20.785 20 20.785h360c11.047 0 20-9.305 20-20.785z" fill="#f3cc70"/><g fill="#c7a85f"><path d="m398.855 230h-157.71c-8.915 0-16.145 6.715-16.145 15s7.23 15 16.145 15h157.71c8.915 0 16.145-6.715 16.145-15s-7.23-15-16.145-15"/><path d="m200 230c-8.285 0-15 6.715-15 15s6.715 15 15 15 15-6.715 15-15-6.715-15-15-15"/><path d="m160 230c-8.285 0-15 6.715-15 15s6.715 15 15 15 15-6.715 15-15-6.715-15-15-15"/><path d="m480 230c-8.285 0-15 6.715-15 15s6.715 15 15 15 15-6.715 15-15-6.715-15-15-15"/><path d="m440 230c-8.285 0-15 6.715-15 15s6.715 15 15 15 15-6.715 15-15-6.715-15-15-15"/><path d="m200 271.504h-40c-8.285 0-15 6.715-15 15s6.715 15 15 15h40c8.285 0 15-6.715 15-15s-6.715-15-15-15"/><path d="m480 271.504h-40c-8.285 0-15 6.715-15 15s6.715 15 15 15h40c8.285 0 15-6.715 15-15s-6.715-15-15-15"/><path d="m200 310c-8.285 0-15 6.715-15 15s6.715 15 15 15 15-6.715 15-15-6.715-15-15-15"/><path d="m160 310c-8.285 0-15 6.715-15 15s6.715 15 15 15 15-6.715 15-15-6.715-15-15-15"/><path d="m480 310c-8.285 0-15 6.715-15 15s6.715 15 15 15 15-6.715 15-15-6.715-15-15-15"/><path d="m440 310c-8.285 0-15 6.715-15 15s6.715 15 15 15 15-6.715 15-15-6.715-15-15-15"/><path d="m200 349.836c-8.285 0-15 6.715-15 15s6.715 15 15 15 15-6.715 15-15-6.715-15-15-15"/><path d="m160 349.836c-8.285 0-15 6.715-15 15s6.715 15 15 15 15-6.715 15-15-6.715-15-15-15"/><path d="m280 271.504c-8.285 0-15 6.715-15 15s6.715 15 15 15 15-6.715 15-15-6.715-15-15-15"/><path d="m240 271.504c-8.285 0-15 6.715-15 15s6.715 15 15 15 15-6.715 15-15-6.715-15-15-15"/><path d="m280 310c-8.285 0-15 6.715-15 15s6.715 15 15 15 15-6.715 15-15-6.715-15-15-15"/><path d="m240 310c-8.285 0-15 6.715-15 15s6.715 15 15 15 15-6.715 15-15-6.715-15-15-15"/><path d="m280 349.836c-8.285 0-15 6.715-15 15s6.715 15 15 15 15-6.715 15-15-6.715-15-15-15"/><path d="m240 349.836c-8.285 0-15 6.715-15 15s6.715 15 15 15 15-6.715 15-15-6.715-15-15-15"/><path d="m360 271.504c-8.285 0-15 6.715-15 15s6.715 15 15 15 15-6.715 15-15-6.715-15-15-15"/><path d="m320 271.504c-8.285 0-15 6.715-15 15s6.715 15 15 15 15-6.715 15-15-6.715-15-15-15"/><path d="m360 310c-8.285 0-15 6.715-15 15s6.715 15 15 15 15-6.715 15-15-6.715-15-15-15"/><path d="m320 310c-8.285 0-15 6.715-15 15s6.715 15 15 15 15-6.715 15-15-6.715-15-15-15"/><path d="m360 349.836c-8.285 0-15 6.715-15 15s6.715 15 15 15 15-6.715 15-15-6.715-15-15-15"/><path d="m400 271.504c-8.285 0-15 6.715-15 15s6.715 15 15 15 15-6.715 15-15-6.715-15-15-15"/><path d="m400 310c-8.285 0-15 6.715-15 15s6.715 15 15 15 15-6.715 15-15-6.715-15-15-15"/><path d="m400 349.836c-8.285 0-15 6.715-15 15s6.715 15 15 15 15-6.715 15-15-6.715-15-15-15"/><path d="m320 349.836c-8.285 0-15 6.715-15 15s6.715 15 15 15 15-6.715 15-15-6.715-15-15-15"/><path d="m480 349.836c-8.285 0-15 6.715-15 15s6.715 15 15 15 15-6.715 15-15-6.715-15-15-15"/><path d="m440 349.836c-8.285 0-15 6.715-15 15s6.715 15 15 15 15-6.715 15-15-6.715-15-15-15"/></g><path d="m398.855 270h-157.71c-8.915 0-16.145-6.715-16.145-15s7.23-15 16.145-15h157.71c8.915 0 16.145 6.715 16.145 15s-7.23 15-16.145 15" fill="#fff"/><path d="m200 270c-8.285 0-15-6.715-15-15s6.715-15 15-15 15 6.715 15 15-6.715 15-15 15" fill="#fff"/><path d="m160 270c-8.285 0-15-6.715-15-15s6.715-15 15-15 15 6.715 15 15-6.715 15-15 15" fill="#fff"/><path d="m480 270c-8.285 0-15-6.715-15-15s6.715-15 15-15 15 6.715 15 15-6.715 15-15 15" fill="#fff"/><path d="m440 270c-8.285 0-15-6.715-15-15s6.715-15 15-15 15 6.715 15 15-6.715 15-15 15" fill="#fff"/><path d="m200 311.504h-40c-8.285 0-15-6.715-15-15s6.715-15 15-15h40c8.285 0 15 6.715 15 15s-6.715 15-15 15" fill="#fff"/><path d="m480 311.504h-40c-8.285 0-15-6.715-15-15s6.715-15 15-15h40c8.285 0 15 6.715 15 15s-6.715 15-15 15" fill="#fff"/><path d="m200 350c-8.285 0-15-6.715-15-15s6.715-15 15-15 15 6.715 15 15-6.715 15-15 15" fill="#fff"/><path d="m160 320c8.285 0 15 6.715 15 15s-6.715 15-15 15-15-6.715-15-15 6.715-15 15-15" fill="#fff"/><path d="m480 350c-8.285 0-15-6.715-15-15s6.715-15 15-15 15 6.715 15 15-6.715 15-15 15" fill="#fff"/><path d="m440 320c8.285 0 15 6.715 15 15s-6.715 15-15 15-15-6.715-15-15 6.715-15 15-15" fill="#fff"/><path d="m200 389.836c-8.285 0-15-6.715-15-15s6.715-15 15-15 15 6.715 15 15-6.715 15-15 15" fill="#fff"/><path d="m160 359.836c8.285 0 15 6.715 15 15s-6.715 15-15 15-15-6.715-15-15 6.715-15 15-15" fill="#fff"/><path d="m280 281.504c8.285 0 15 6.715 15 15s-6.715 15-15 15-15-6.715-15-15 6.715-15 15-15" fill="#fff"/><path d="m240 281.504c8.285 0 15 6.715 15 15s-6.715 15-15 15-15-6.715-15-15 6.715-15 15-15" fill="#fff"/><path d="m280 320c8.285 0 15 6.715 15 15s-6.715 15-15 15-15-6.715-15-15 6.715-15 15-15" fill="#fff"/><path d="m240 320c8.285 0 15 6.715 15 15s-6.715 15-15 15-15-6.715-15-15 6.715-15 15-15" fill="#fff"/><path d="m280 359.836c8.285 0 15 6.715 15 15s-6.715 15-15 15-15-6.715-15-15 6.715-15 15-15" fill="#fff"/><path d="m240 359.836c8.285 0 15 6.715 15 15s-6.715 15-15 15-15-6.715-15-15 6.715-15 15-15" fill="#fff"/><path d="m360 281.504c8.285 0 15 6.715 15 15s-6.715 15-15 15-15-6.715-15-15 6.715-15 15-15" fill="#fff"/><path d="m320 281.504c8.285 0 15 6.715 15 15s-6.715 15-15 15-15-6.715-15-15 6.715-15 15-15" fill="#fff"/><path d="m360 320c8.285 0 15 6.715 15 15s-6.715 15-15 15-15-6.715-15-15 6.715-15 15-15" fill="#fff"/><path d="m320 320c8.285 0 15 6.715 15 15s-6.715 15-15 15-15-6.715-15-15 6.715-15 15-15" fill="#fff"/><path d="m360 359.836c8.285 0 15 6.715 15 15s-6.715 15-15 15-15-6.715-15-15 6.715-15 15-15" fill="#fff"/><path d="m400 311.504c-8.285 0-15-6.715-15-15s6.715-15 15-15 15 6.715 15 15-6.715 15-15 15" fill="#fff"/><path d="m400 350c-8.285 0-15-6.715-15-15s6.715-15 15-15 15 6.715 15 15-6.715 15-15 15" fill="#fff"/><path d="m400 389.836c-8.285 0-15-6.715-15-15s6.715-15 15-15 15 6.715 15 15-6.715 15-15 15" fill="#fff"/><path d="m320 359.836c8.285 0 15 6.715 15 15s-6.715 15-15 15-15-6.715-15-15 6.715-15 15-15" fill="#fff"/><path d="m480 359.836c8.285 0 15 6.715 15 15s-6.715 15-15 15-15-6.715-15-15 6.715-15 15-15" fill="#fff"/><path d="m440 359.836c8.285 0 15 6.715 15 15s-6.715 15-15 15-15-6.715-15-15 6.715-15 15-15" fill="#fff"/></g></svg>