<svg height="85.333328" viewBox="0 0 85.333328 85.333328" width="85.333328" xmlns="http://www.w3.org/2000/svg"><g transform="matrix(.13333333 0 0 -.13333333 0 85.333331)"><path d="m640 320c0-176.73-143.27-320-320-320s-320 143.27-320 320 143.27 320 320 320 320-143.27 320-320" fill="#e1e3cc"/><path d="m474 320c0-85.051-68.949-154-154-154s-154 68.949-154 154 68.949 154 154 154 154-68.949 154-154" fill="#77caa9"/><path d="m405 320c0-46.945-38.055-85-85-85s-85 38.055-85 85 38.055 85 85 85 85-38.055 85-85" fill="#495672"/><path d="m380 380c0-11.047-8.953-20-20-20s-20 8.953-20 20 8.953 20 20 20 20-8.953 20-20" fill="#fff"/><path d="m320 480c-88.367 0-160-71.633-160-160s71.633-160 160-160 160 71.633 160 160-71.633 160-160 160m0-30c71.684 0 130-58.316 130-130s-58.316-130-130-130-130 58.316-130 130 58.316 130 130 130" fill="#495672"/><path d="m320 510c-104.934 0-190-85.066-190-190s85.066-190 190-190 190 85.066 190 190-85.066 190-190 190m0-30c88.223 0 160-71.777 160-160s-71.777-160-160-160-160 71.777-160 160 71.777 160 160 160" fill="#495672"/><path d="m146.34 435.078c38.058 55.078 101.644 91.168 173.66 91.168s135.602-36.086 173.66-91.168c-40.258 51.684-103.074 84.922-173.66 84.922s-133.402-33.238-173.66-84.922" fill="#b7b7a7"/><path d="m320 80c-121.504 0-220 98.496-220 220 0 50.918 17.301 97.797 46.34 135.078-23.512-34.019-37.277-75.289-37.277-119.769 0-116.5 94.441-210.942 210.937-210.942s210.938 94.442 210.938 210.942c0 44.48-13.77 85.75-37.278 119.769 29.039-37.277 46.34-84.16 46.34-135.078 0-121.504-98.496-220-220-220" fill="#b7b7a7"/><path d="m320 192.945c-66.613 0-120.805 54.196-120.805 120.805 0 25.93 8.211 49.977 22.168 69.676 2.297-17.223 7.442-33.543 14.946-48.477-.86-4.851-1.309-9.847-1.309-14.949 0-46.945 38.055-85 85-85 17.973 0 34.648 5.578 48.379 15.102 1.867-.067 3.738-.102 5.621-.102 19.043 0 37.258 3.465 54.074 9.797-19.851-39.602-60.844-66.852-108.074-66.852" fill="#62a48d"/><path d="m320 235c-46.945 0-85 38.055-85 85 0 5.102.449 10.098 1.309 14.949 24.527-48.801 74.238-82.769 132.07-84.847-13.731-9.524-30.406-15.102-48.379-15.102" fill="#404a5f"/><path d="m374 250c-1.883 0-3.754.035-5.621.102 22.129 15.343 36.621 40.929 36.621 69.898 0 23.527-9.555 44.82-25 60.211-.113 10.949-9.023 19.789-20 19.789-2.645 0-5.168-.512-7.477-1.445-10.019 4.156-21.003 6.445-32.523 6.445-41.844 0-76.625-30.234-83.691-70.051-7.504 14.934-12.649 31.254-14.946 48.477 21.903 30.914 57.953 51.129 98.637 51.129 66.613 0 120.805-54.192 120.805-120.805 0-19.379-4.586-37.703-12.731-53.953-16.816-6.332-35.031-9.797-54.074-9.797" fill="#77ae99"/><path d="m368.379 250.102c-57.832 2.078-107.543 36.046-132.07 84.847 7.066 39.817 41.847 70.051 83.691 70.051 11.52 0 22.504-2.289 32.523-6.445-7.343-2.961-12.523-10.153-12.523-18.555 0-11.047 8.953-20 20-20s20 8.953 20 20v.211c15.445-15.391 25-36.684 25-60.211 0-28.969-14.492-54.555-36.621-69.898" fill="#5b6478"/><path d="m360 360c-11.047 0-20 8.953-20 20 0 8.402 5.18 15.594 12.523 18.555 2.309.933 4.832 1.445 7.477 1.445 10.977 0 19.887-8.84 20-19.789 0-.07 0-.141 0-.211 0-11.047-8.953-20-20-20" fill="#d4d3d1"/><path d="m320 190c-71.684 0-130 58.316-130 130 0 31.52 11.273 60.453 30.004 82.984.043-6.629.504-13.152 1.359-19.558-13.957-19.699-22.168-43.746-22.168-69.676 0-66.609 54.192-120.805 120.805-120.805 47.23 0 88.223 27.25 108.074 66.852 3.047 1.144 6.055 2.391 9.004 3.723-21.055-43.473-65.621-73.52-117.078-73.52" fill="#538777"/><path d="m428.074 259.797c8.145 16.25 12.731 34.574 12.731 53.953 0 66.613-54.192 120.805-120.805 120.805-40.684 0-76.734-20.215-98.637-51.129-.855 6.406-1.316 12.929-1.359 19.558 23.863 28.707 59.832 47.016 99.996 47.016 71.684 0 130-58.316 130-130 0-20.227-4.645-39.395-12.922-56.48-2.949-1.332-5.957-2.579-9.004-3.723" fill="#648f83"/><path d="m320 165.324c-82.871 0-150.293 67.422-150.293 150.293 0 82.875 67.422 150.297 150.293 150.297s150.293-67.422 150.293-150.297c0-82.871-67.422-150.293-150.293-150.293m-99.996 237.66c-18.731-22.531-30.004-51.464-30.004-82.984 0-71.684 58.316-130 130-130 51.457 0 96.023 30.047 117.078 73.52 8.277 17.085 12.922 36.253 12.922 56.48 0 71.684-58.316 130-130 130-40.164 0-76.133-18.309-99.996-47.016" fill="#404a5f"/><path d="m320 160c-88.223 0-160 71.777-160 160 0 88.223 71.777 160 160 160s160-71.777 160-160c0-88.223-71.777-160-160-160zm0 305.914c-82.871 0-150.293-67.422-150.293-150.297 0-82.871 67.422-150.293 150.293-150.293s150.293 67.422 150.293 150.293c0 82.875-67.422 150.297-150.293 150.297" fill="#394051"/><path d="m320 136.008c-98.863 0-179.297 80.433-179.297 179.301 0 98.863 80.434 179.296 179.297 179.296s179.297-80.433 179.297-179.296c0-98.868-80.434-179.301-179.297-179.301m0 23.992c88.223 0 160 71.777 160 160 0 88.223-71.777 160-160 160s-160-71.777-160-160c0-88.223 71.777-160 160-160" fill="#404a5f"/><path d="m320 104.367c-116.496 0-210.937 94.442-210.937 210.942 0 44.48 13.765 85.75 37.277 119.769 40.258 51.684 103.074 84.922 173.66 84.922s133.402-33.238 173.66-84.922c23.508-34.019 37.278-75.289 37.278-119.769 0-116.5-94.442-210.942-210.938-210.942m0 405.633c-104.934 0-190-85.066-190-190s85.066-190 190-190 190 85.066 190 190-85.066 190-190 190" fill="#97978c"/><path d="m320 130c-104.934 0-190 85.066-190 190s85.066 190 190 190 190-85.066 190-190-85.066-190-190-190m0 364.605c-98.863 0-179.297-80.433-179.297-179.296 0-98.868 80.434-179.301 179.297-179.301s179.297 80.433 179.297 179.301c0 98.863-80.434 179.296-179.297 179.296" fill="#394051"/><path d="m320 540c-121.504 0-220-98.496-220-220s98.496-220 220-220 220 98.496 220 220-98.496 220-220 220zm0-30c104.766 0 190-85.234 190-190s-85.234-190-190-190-190 85.234-190 190 85.234 190 190 190" fill="#495672"/></g></svg>