<svg height="85.333328" viewBox="0 0 85.333328 85.333328" width="85.333328" xmlns="http://www.w3.org/2000/svg"><g transform="matrix(.13333333 0 0 -.13333333 0 85.333331)"><path d="m640 320c0-176.73-143.27-320-320-320s-320 143.27-320 320 143.27 320 320 320 320-143.27 320-320" fill="#e08e4c"/><g fill="#b77744"><path d="m320 408.336c-8.285 0-15 6.715-15 15v81.664c0 8.285 6.715 15 15 15s15-6.715 15-15v-81.664c0-8.285-6.715-15-15-15"/><path d="m200 290h-80c-8.285 0-15 6.715-15 15s6.715 15 15 15h80c8.285 0 15-6.715 15-15s-6.715-15-15-15"/><path d="m320 90c-8.285 0-15 6.7148-15 15v80c0 8.285 6.715 15 15 15s15-6.715 15-15v-80c0-8.2852-6.715-15-15-15"/><path d="m420.016 116.793c-5.188 0-10.227 2.687-13.004 7.504l-40 69.281c-4.145 7.176-1.684 16.348 5.488 20.492 2.363 1.36 4.941 2.004 7.484 2.004 5.192 0 10.235-2.687 13.004-7.496l40-69.281c4.145-7.172 1.684-16.348-5.488-20.488-2.363-1.368-4.941-2.016-7.484-2.016"/><path d="m260.852 392.477c-5.188 0-10.227 2.691-13.004 7.503l-40.836 70.723c-4.145 7.172-1.684 16.348 5.488 20.488 2.367 1.368 4.949 2.016 7.492 2.016 5.184 0 10.219-2.691 12.996-7.504l40.836-70.723c4.145-7.171 1.684-16.347-5.488-20.488-2.363-1.367-4.941-2.015-7.484-2.015"/><path d="m422.496 349.16c-5.187 0-10.226 2.692-13.004 7.504-4.144 7.176-1.683 16.348 5.488 20.488l70.723 40.836c2.367 1.367 4.949 2.016 7.492 2.016 5.184 0 10.219-2.691 12.996-7.504 4.145-7.172 1.684-16.348-5.488-20.488l-70.723-40.836c-2.363-1.367-4.941-2.016-7.484-2.016"/><path d="m520 290h-81.664c-8.285 0-15 6.715-15 15s6.715 15 15 15h81.664c8.285 0 15-6.715 15-15s-6.715-15-15-15"/><path d="m493.188 189.996c-2.543 0-5.122.649-7.485 2.016l-69.281 40c-7.176 4.14-9.637 13.316-5.492 20.488 2.781 4.809 7.824 7.496 13.008 7.496 2.542 0 5.121-.644 7.484-2.008l69.281-40c7.172-4.14 9.633-13.316 5.488-20.488-2.777-4.812-7.816-7.504-13.003-7.504"/><path d="m217.504 349.16c-2.543 0-5.121.649-7.484 2.016l-70.723 40.836c-7.172 4.14-9.633 13.316-5.488 20.488 2.777 4.813 7.816 7.504 13 7.504 2.543 0 5.125-.649 7.488-2.016l70.723-40.836c7.171-4.14 9.632-13.312 5.488-20.488-2.778-4.812-7.817-7.504-13.004-7.504"/><path d="m146.813 189.996c-5.188 0-10.227 2.692-13.004 7.504-4.145 7.172-1.684 16.348 5.488 20.488l69.281 40c2.367 1.364 4.945 2.008 7.488 2.008 5.188 0 10.227-2.691 13.004-7.496 4.145-7.172 1.684-16.348-5.492-20.488l-69.281-40c-2.363-1.367-4.942-2.016-7.484-2.016"/><path d="m219.984 116.793c-2.543 0-5.121.648-7.484 2.016-7.172 4.14-9.633 13.316-5.488 20.488l40 69.281c2.773 4.809 7.816 7.496 13.008 7.496 2.543 0 5.117-.644 7.48-2.004 7.172-4.144 9.633-13.316 5.488-20.492l-40-69.281c-2.777-4.817-7.816-7.504-13.004-7.504"/><path d="m379.148 392.477c-2.543 0-5.121.648-7.484 2.015-7.172 4.141-9.633 13.317-5.488 20.488l40.836 70.723c2.785 4.813 7.816 7.504 13 7.504 2.543 0 5.125-.648 7.488-2.016 7.172-4.14 9.633-13.316 5.488-20.488l-40.836-70.723c-2.777-4.808-7.816-7.503-13.004-7.503"/></g><path d="m320 540c-8.285 0-15-6.715-15-15v-81.664c0-8.285 6.715-15 15-15s15 6.715 15 15v81.664c0 8.285-6.715 15-15 15" fill="#fff"/><path d="m215 325c0 8.285-6.715 15-15 15h-80c-8.285 0-15-6.715-15-15s6.715-15 15-15h80c8.285 0 15 6.715 15 15" fill="#fff"/><path d="m320 220c-8.285 0-15-6.715-15-15v-80c0-8.285 6.715-15 15-15s15 6.715 15 15v80c0 8.285-6.715 15-15 15" fill="#fff"/><path d="m392.988 228.578c-4.125 7.164-13.3 9.625-20.488 5.492-7.172-4.144-9.633-13.316-5.488-20.492l40-69.281c2.777-4.817 7.816-7.504 13.004-7.504 2.543 0 5.121.648 7.484 2.016 7.172 4.14 9.633 13.316 5.488 20.488z" fill="#fff"/><path d="m232.988 505.703c-4.14 7.18-13.304 9.633-20.488 5.488-7.172-4.14-9.633-13.316-5.488-20.488l40.836-70.723c2.777-4.812 7.816-7.503 13.004-7.503 2.543 0 5.121.648 7.484 2.015 7.172 4.141 9.633 13.317 5.488 20.488z" fill="#fff"/><path d="m409.492 376.664c2.778-4.812 7.817-7.504 13.004-7.504 2.543 0 5.121.649 7.484 2.016l70.723 40.836c7.172 4.14 9.633 13.316 5.488 20.488-4.14 7.18-13.304 9.633-20.488 5.488l-70.723-40.836c-7.171-4.14-9.632-13.312-5.488-20.488" fill="#fff"/><path d="m520 340h-81.664c-8.285 0-15-6.715-15-15s6.715-15 15-15h81.664c8.285 0 15 6.715 15 15s-6.715 15-15 15" fill="#fff"/><path d="m500.703 237.988-69.281 40c-7.18 4.141-16.344 1.676-20.492-5.488-4.145-7.172-1.684-16.348 5.492-20.488l69.281-40c2.363-1.367 4.942-2.016 7.485-2.016 5.187 0 10.226 2.692 13.003 7.504 4.145 7.172 1.684 16.348-5.488 20.488" fill="#fff"/><path d="m139.297 412.012 70.723-40.836c2.363-1.367 4.941-2.016 7.484-2.016 5.187 0 10.226 2.692 13.004 7.504 4.144 7.176 1.683 16.348-5.488 20.488l-70.723 40.836c-7.172 4.145-16.348 1.692-20.488-5.488-4.145-7.172-1.684-16.348 5.488-20.488" fill="#fff"/><path d="m229.07 272.5c-4.136 7.164-13.304 9.629-20.492 5.488l-69.281-40c-7.172-4.14-9.633-13.316-5.488-20.488 2.777-4.812 7.816-7.504 13.004-7.504 2.542 0 5.121.649 7.484 2.016l69.281 40c7.176 4.14 9.637 13.316 5.492 20.488" fill="#fff"/><path d="m267.5 234.07c-7.184 4.133-16.352 1.672-20.488-5.492l-40-69.281c-4.145-7.172-1.684-16.348 5.488-20.488 2.363-1.368 4.941-2.016 7.484-2.016 5.188 0 10.227 2.687 13.004 7.504l40 69.281c4.145 7.176 1.684 16.348-5.488 20.492" fill="#fff"/><path d="m371.664 414.492c2.363-1.367 4.941-2.015 7.484-2.015 5.188 0 10.227 2.695 13.004 7.503l40.836 70.723c4.145 7.172 1.684 16.348-5.488 20.488-7.18 4.145-16.34 1.692-20.488-5.488l-40.836-70.723c-4.145-7.171-1.684-16.347 5.488-20.488" fill="#fff"/></g></svg>