<svg height="85.333328" viewBox="0 0 85.333328 85.333328" width="85.333328" xmlns="http://www.w3.org/2000/svg"><g transform="matrix(.13333333 0 0 -.13333333 0 85.333331)"><path d="m640 320c0-176.73-143.27-320-320-320s-320 143.27-320 320 143.27 320 320 320 320-143.27 320-320" fill="#e08e4c"/><path d="m405 370v11.672c0 46.863-38.129 85-85 85s-85-38.137-85-85v20c0 46.863 38.129 85 85 85s85-38.137 85-85z" fill="#b77744"/><path d="m455 328.328h-50v73.344c0 46.863-38.129 85-85 85s-85-38.137-85-85v-73.344h-50v73.344c0 74.441 60.563 135 135 135 74.438 0 135-60.559 135-135z" fill="#495672"/><path d="m320 320c-22.094 0-40-17.906-40-40 0-14.77 8.094-27.523 20-34.453v-25.547c0-11.047 8.953-20 20-20s20 8.953 20 20v25.547c11.906 6.93 20 19.683 20 34.453 0 22.094-17.906 40-40 40" fill="#495672"/><path d="m470 120h-300c-16.57 0-30 13.43-30 30v190c0 16.57 13.43 30 30 30h15v-61.672h50v20 41.672h170v-61.672h50v20 41.672h15c16.57 0 30-13.43 30-30v-190c0-16.57-13.43-30-30-30m-170 100v-20c0-11.047 8.953-20 20-20s20 8.953 20 20v25.547c11.906 6.93 20 19.683 20 34.453 0 3.465-.441 6.828-1.27 10.035.829 3.18 1.27 6.516 1.27 9.965 0 22.094-17.906 40-40 40s-40-17.906-40-40c0-3.449.441-6.785 1.27-9.965-.829-3.207-1.27-6.57-1.27-10.035 0-14.77 8.094-27.523 20-34.453z" fill="#b77744"/><path d="m455 308.328h-50v61.672-41.672h50zm-220 0h-50v61.672-41.672h50z" fill="#97633d"/><path d="m455 328.328h-50v41.672h50zm-220 0h-50v41.672h50z" fill="#404a5f"/><path d="m300 220v5.547zm58.73 50.035c-4.453 17.235-20.105 29.965-38.73 29.965s-34.277-12.73-38.73-29.965c-.829 3.18-1.27 6.516-1.27 9.965 0 22.094 17.906 40 40 40s40-17.906 40-40c0-3.449-.441-6.785-1.27-9.965" fill="#404a5f"/><path d="m340 245.547v-25.547c0-11.047-8.953-20-20-20s-20 8.953-20 20v25.547c-11.906 6.93-20 19.683-20 34.453 0 22.094 17.906 40 40 40s40-17.906 40-40c0-14.77-8.094-27.523-20-34.453zm130 144.453h-300c-16.57 0-30-13.43-30-30v-190c0-16.57 13.43-30 30-30h300c16.57 0 30 13.43 30 30v190c0 16.57-13.43 30-30 30" fill="#fff"/></g></svg>