<svg height="85.333328" viewBox="0 0 85.333328 85.333328" width="85.333328" xmlns="http://www.w3.org/2000/svg"><g transform="matrix(.13333333 0 0 -.13333333 0 85.333331)"><path d="m640 320c0-176.73-143.27-320-320-320s-320 143.27-320 320 143.27 320 320 320 320-143.27 320-320" fill="#e08e4c"/><g fill="#b77744"><path d="m260 120-120 40v320l120-40z"/><path d="m260 120v320l120 40v-320z"/><path d="m500 120-120 40v320l120-40z"/></g><path d="m260 140-120 40v320l120-40z" fill="#e1e3cc"/><path d="m380 180-120-40v320l120 40z" fill="#fff"/><path d="m500 140-120 40v320l120-40z" fill="#e1e3cc"/></g></svg>