<svg height="85.333328" viewBox="0 0 85.333328 85.333328" width="85.333328" xmlns="http://www.w3.org/2000/svg"><g transform="matrix(.13333333 0 0 -.13333333 0 85.333331)"><path d="m640 320c0-176.73-143.27-320-320-320s-320 143.27-320 320 143.27 320 320 320 320-143.27 320-320" fill="#f3cc70"/><path d="m360.527 150c-2.839 0-5.691.352-8.464 1.039l-97.043 24.141c-18.723 4.66-30.168 23.687-25.512 42.414l.406 1.633c3.418-11.493 12.652-20.95 25.106-24.047l97.043-24.141c2.773-.687 5.625-1.039 8.464-1.039 16.102 0 30.067 10.918 33.953 26.555l1.618 6.508 4.722-1.02-6.34-25.488c-3.886-15.637-17.851-26.555-33.953-26.555m-98.429 74.336c-2.575.734-4.129 3.398-3.481 6.016l.547 2.183 4.723-1.015z" fill="#c7a85f"/><path d="m277.941 292.371c-1.875 0-4.191-1.183-4.839-3.797l-14.485-58.222c-.664-2.676.973-5.395 3.649-6.059l97.043-24.141c2.273-.578 5.265.469 6.058 3.649l14.485 58.219c.664 2.675-.973 5.398-3.649 6.062l-97.043 24.141zm82.586-122.371c-2.839 0-5.691.352-8.464 1.039l-97.043 24.141c-18.723 4.66-30.168 23.687-25.512 42.414l14.48 58.226c3.891 15.633 17.856 26.551 33.953 26.551 2.84 0 5.692-.351 8.465-1.039l97.043-24.141c18.727-4.656 30.168-23.683 25.512-42.41l-14.481-58.226c-3.886-15.637-17.851-26.555-33.953-26.555" fill="#495672"/><path d="m500 170c-11.047 0-20 8.953-20 20v-5l-79.18 17.043 8.141 32.738c1.559 6.27 1.312 12.574-.406 18.364l.406 1.636c4.656 18.727-6.785 37.754-25.512 42.41l-97.043 24.141c-2.773.688-5.625 1.039-8.465 1.039-16.097 0-30.062-10.918-33.953-26.551l-14.168-56.968-93.183 20.058c-3.586-5.367-9.696-8.91-16.637-8.91-11.047 0-20 8.953-20 20v60c0 11.047 8.953 20 20 20 6.941 0 13.051-3.543 16.637-8.91l343.363 73.91v-5c0 11.047 8.953 20 20 20s20-8.953 20-20v-220c0-11.047-8.953-20-20-20" fill="#c7a85f"/><path d="m400.82 202.043-4.722 1.02 12.457 50.082c1.718-5.79 1.965-12.094.406-18.364z" fill="#a48c53"/><path d="m366.754 209.379-102.867 22.141 9.215 37.054c.648 2.614 2.964 3.797 4.839 3.797l1.219-.148 97.043-24.141c.055-.016.113-.031.168-.047z" fill="#c7a85f"/><path d="m263.887 231.52-4.723 1.015 13.938 56.039c.648 2.614 2.964 3.797 4.839 3.797l1.219-.148 97.043-24.141c2.676-.664 4.313-3.387 3.649-6.062l-3.481-13.985c-.055.016-.113.031-.168.047l-97.043 24.141-1.219.148c-1.875 0-4.191-1.183-4.839-3.797z" fill="#a48c53"/><path d="m396.098 203.063-29.344 6.316 9.617 38.656 3.481 13.985c.664 2.675-.973 5.398-3.649 6.062l-97.043 24.141-1.219.148c-1.875 0-4.191-1.183-4.839-3.797l-13.938-56.039-29.344 6.317 14.168 56.968c3.891 15.633 17.856 26.551 33.953 26.551 2.84 0 5.692-.351 8.465-1.039l97.043-24.141c18.727-4.656 30.168-23.683 25.512-42.41l-.406-1.636z" fill="#404a5f"/><path d="m480 205-370 80v70l370 80z" fill="#c84755"/><g fill="#e08e4c"><path d="m140 290c0-11.047-8.953-20-20-20s-20 8.953-20 20v60c0 11.047 8.953 20 20 20s20-8.953 20-20z"/><path d="m520 210c0-11.047-8.953-20-20-20s-20 8.953-20 20v220c0 11.047 8.953 20 20 20s20-8.953 20-20z"/></g></g></svg>