<svg height="85.333328" viewBox="0 0 85.333328 85.333328" width="85.333328" xmlns="http://www.w3.org/2000/svg"><g transform="matrix(.13333333 0 0 -.13333333 0 85.333331)"><path d="m640 320c0-176.73-143.27-320-320-320s-320 143.27-320 320 143.27 320 320 320 320-143.27 320-320" fill="#f3cc70"/><path d="m300 60c-16.566 0-30 13.4336-30 30v310-290c0-16.5664 13.43-30 30-30 16.566 0 30 13.4336 30 30v-20c0-16.5664-13.434-30-30-30m160.059 49.988c-1.918 0-3.86.184-5.813.571-4.59.894-72.238 15.265-124.246 87.832v-88.391 109.195c20.105-28.168 42.629-47.922 62.82-61.207 32.5-21.468 58.707-26.875 61.43-27.429 1.941-.379 3.875-.563 5.781-.563 12.625 0 24.035 8.008 28.258 20.008 1.734-4.891 2.223-10.293 1.152-15.758-2.796-14.308-15.343-24.258-29.382-24.258" fill="#c7a85f"/><path d="m465.75 189.445-3.84-19.652 4.074 19.605-.234.047-3.84-19.652 4.074 19.605-.261-1.265.277 1.262-.016.003-.261-1.265.277 1.262c-.469.097-9.363 2.125-22.164 8.371-19.262 9.441-47.07 27.964-70.566 64.5-23.43 36.586-43.204 91.949-43.27 177.734h-60v-330c0-16.5664 13.43-30 30-30 16.566 0 30 13.4336 30 30v330h-60c-.008-65.383 10.543-117.887 27.105-159.727 24.766-62.843 63.254-100.929 95.715-122.285 32.5-21.468 58.707-26.875 61.43-27.429 16.262-3.176 32.016 7.429 35.191 23.691 3.176 16.262-7.429 32.02-23.691 35.191z" fill="#495672"/><path d="m385.613 400h-54.047c-1.007 12.543-1.554 25.859-1.566 40h-60v-20-20h-55.613c-14.715 0-18.828 10.879-9.137 24.176l77.133 105.851c4.844 6.649 11.23 9.973 17.617 9.973s12.773-3.324 17.617-9.973l77.133-105.851c9.691-13.297 5.578-24.176-9.137-24.176" fill="#c7a85f"/><path d="m331.566 400h-61.566v40h60c.012-14.141.559-27.457 1.566-40" fill="#404a5f"/><path d="m214.387 420c-14.715 0-18.828 10.879-9.137 24.176l77.133 105.851c9.687 13.297 25.547 13.297 35.234 0l77.133-105.851c9.691-13.297 5.578-24.176-9.137-24.176z" fill="#495672"/></g></svg>