<svg height="85.333328" viewBox="0 0 85.333328 85.333328" width="85.333328" xmlns="http://www.w3.org/2000/svg"><g transform="matrix(.13333333 0 0 -.13333333 0 85.333331)"><path d="m640 320c0-176.73-143.27-320-320-320s-320 143.27-320 320 143.27 320 320 320 320-143.27 320-320" fill="#7db6d8"/><g fill="#6594b2"><path d="m320 225c-33.148 0-60 26.852-60 60v180c0 33.148 26.852 60 60 60s60-26.852 60-60v-180c0-33.148-26.852-60-60-60"/><path d="m335 158.359v6.641c0 8.281-6.719 15-15 15s-15-6.719-15-15v-6.641c-64.645 7.461-115 62.532-115 129.141v37.5c0 8.281 6.719 15 15 15s15-6.719 15-15v-37.5c0-55.137 44.863-100 100-100s100 44.863 100 100v37.5c0 8.281 6.719 15 15 15s15-6.719 15-15v-37.5c0-66.609-50.355-121.68-115-129.141"/><path d="m335 110h-30v48.359c4.922-.566 9.93-.859 15-.859s10.078.293 15 .859z"/></g><path d="m320 157.5c-5.07 0-10.078.293-15 .859v6.641c0 8.281 6.719 15 15 15s15-6.719 15-15v-6.641c-4.922-.566-9.93-.859-15-.859" fill="#567a95"/><path d="m370 80h-100c-8.281 0-15 6.7188-15 15 0 8.281 6.719 15 15 15h35v-5c0-8.2812 6.719-15 15-15s15 6.7188 15 15v5h35c8.281 0 15-6.719 15-15 0-8.2812-6.719-15-15-15" fill="#6594b2"/><path d="m320 90c-8.281 0-15 6.7188-15 15v5h30v-5c0-8.2812-6.719-15-15-15" fill="#567a95"/><path d="m320 245c33.148 0 60 26.852 60 60v180c0 33.148-26.852 60-60 60s-60-26.852-60-60v-180c0-33.148 26.852-60 60-60" fill="#495672"/><path d="m320 177.5c-71.68 0-130 58.32-130 130v37.5c0 8.281 6.719 15 15 15s15-6.719 15-15v-37.5c0-55.137 44.863-100 100-100s100 44.863 100 100v37.5c0 8.281 6.719 15 15 15s15-6.719 15-15v-37.5c0-71.68-58.32-130-130-130" fill="#fff"/><path d="m320 110c-8.281 0-15 6.719-15 15v60c0 8.281 6.719 15 15 15s15-6.719 15-15v-60c0-8.281-6.719-15-15-15" fill="#fff"/><path d="m370 100h-100c-8.281 0-15 6.719-15 15s6.719 15 15 15h100c8.281 0 15-6.719 15-15s-6.719-15-15-15" fill="#fff"/></g></svg>