<svg height="85.333328" viewBox="0 0 85.333328 85.333328" width="85.333328" xmlns="http://www.w3.org/2000/svg"><g transform="matrix(.13333333 0 0 -.13333333 0 85.333331)"><path d="m640 320c0-176.73-143.27-320-320-320s-320 143.27-320 320 143.27 320 320 320 320-143.27 320-320" fill="#f3cc70"/><path d="m160 120c-3.84 0-7.676 1.465-10.605 4.395-5.86 5.855-5.86 15.355 0 21.21l20.293 20.293-7.704 7.707c-6.742 6.743-6.742 17.672 0 24.415l150.723 174.835c4.391-20.214 14.332-39.453 30.016-55.132 15.32-15.325 34.332-25.567 55.011-30.075l-176.785-148.593c-3.371-3.371-7.789-5.059-12.207-5.059s-8.836 1.688-12.207 5.059l-5.637 5.633-20.293-20.293c-2.929-2.93-6.765-4.395-10.605-4.395" fill="#c7a85f"/><path d="m421.641 300c-50.61 0-91.641 41.031-91.641 91.641 0 50.613 41.031 91.644 91.641 91.644 50.613 0 91.644-41.031 91.644-91.644 0-50.61-41.031-91.641-91.644-91.641" fill="#c7a85f"/><path d="m513.285 421.641c0-50.61-41.031-91.641-91.644-91.641-50.61 0-91.641 41.031-91.641 91.641 0 50.613 41.031 91.644 91.641 91.644 50.613 0 91.644-41.031 91.644-91.644" fill="#e08e4c"/><g fill="#495672"><path d="m312.707 397.855-150.723-174.835c-6.742-6.743-6.742-17.672 0-24.415l7.704-7.707-20.293-20.293c-5.86-5.855-5.86-15.355 0-21.21 2.929-2.93 6.765-4.395 10.605-4.395s7.676 1.465 10.605 4.395l20.293 20.293 5.637-5.633c6.742-6.742 17.672-6.742 24.414 0l176.785 148.593c-20.679 4.508-39.691 14.75-55.011 30.075-15.684 15.679-25.625 34.918-30.016 55.132"/><path d="m480.453 351.336c-28.152 9.086-53.992 24.656-75.515 46.18-25.047 25.047-41.379 55.468-49.422 87.562-34.395-35.918-33.993-92.879 1.347-128.215 17.91-17.91 41.379-26.863 64.852-26.863 20.898 0 41.769 7.141 58.738 21.336"/><path d="m486.57 486.57c-17.91 17.907-41.382 26.86-64.855 26.86-14.25 0-28.481-3.352-41.485-9.95 5.508-31.503 20.313-61.699 44.645-86.027 21.648-21.648 47.965-35.664 75.688-42.41 20.855 35.187 16.257 81.273-13.993 111.527"/></g></g></svg>