<svg height="85.333328" viewBox="0 0 85.333328 85.333328" width="85.333328" xmlns="http://www.w3.org/2000/svg"><g transform="matrix(.13333333 0 0 -.13333333 0 85.333331)"><path d="m640 320c0-176.73-143.27-320-320-320s-320 143.27-320 320 143.27 320 320 320 320-143.27 320-320" fill="#77caa9"/><path d="m170 160c-49.703 0-90 40.293-90 90 0 3.379.1875 6.719.5508 10 4.9726-45 43.1252-80 89.4492-80 39.188 0 72.527 25.047 84.879 60.004h4.57c-4.972-45-43.125-80.004-89.449-80.004m-59.168 100c-.547 3.254-.832 6.594-.832 10 0 33.082 26.914 60 60 60 26.074 0 48.316-16.719 56.574-40h-11.89c-10.993 12.27-26.954 20-44.684 20-29.68 0-54.391-21.66-59.168-50" fill="#62a48d"/><path d="m470 160c-49.707 0-90 40.293-90 90 0 3.379.188 6.719.551 10 4.972-45 43.125-80 89.449-80s84.477 35 89.449 80c.364-3.281.551-6.621.551-10 0-49.707-40.297-90-90-90m59.168 100c-4.777 28.34-29.488 50-59.168 50-4.973 0-9.809-.609-14.434-1.754l-9.148 16.926c7.242 3.105 15.215 4.828 23.582 4.828 33.086 0 60-26.918 60-60 0-3.406-.285-6.746-.832-10m-118.336 0c-.547 3.254-.832 6.594-.832 10 0 13.723 4.629 26.383 12.41 36.5l6.781-12.551c-9.48-8.808-16.117-20.644-18.359-33.949" fill="#62a48d"/><path d="m170 360c-49.703 0-90-40.293-90-90s40.297-90 90-90c49.707 0 90 40.293 90 90s-40.293 90-90 90m0-30c33.086 0 60-26.918 60-60s-26.914-60-60-60-60 26.918-60 60 26.914 60 60 60" fill="#495672"/><path d="m470 360c-49.707 0-90-40.293-90-90s40.293-90 90-90c49.703 0 90 40.293 90 90s-40.297 90-90 90m0-30c33.086 0 60-26.918 60-60s-26.914-60-60-60c-33.082 0-60 26.918-60 60s26.918 60 60 60" fill="#495672"/><path d="m330 240.004h-70.551c.364 3.281.551 6.617.551 9.996s-.187 6.719-.551 10h70.551c3.273 0 6.383 1.039 9 3l20 15c.809.605 1.535 1.277 2.184 2 .285-.316.558-.648.82-.996 4.969-6.625 3.621-16.031-3.004-21l-20-15c-2.598-1.945-5.754-3-9-3m-108.051 0h-41.949c-8.285 0-15 6.715-15 15 0 3.84 1.441 7.344 3.816 10 2.747-3.07 6.739-5.004 11.184-5.004h49.164.004c-1.211-7.176-3.695-13.922-7.219-19.996" fill="#62a48d"/><path d="m259.449 240.004h-4.57c2.254 6.367 3.805 13.062 4.57 19.996.364-3.281.551-6.621.551-10s-.187-6.715-.551-9.996m-30.281 19.996h-.004z" fill="#538777"/><path d="m254.879 240.004h-32.93c3.524 6.074 6.008 12.82 7.219 19.996h30.281c-.765-6.934-2.316-13.629-4.57-19.996" fill="#404a5f"/><path d="m180 260h150c3.273 0 6.383 1.039 9 3l20 15c6.629 4.973 7.969 14.371 3 21-4.973 6.629-14.371 7.969-21 3l-16-12h-145c-8.285 0-15-6.715-15-15s6.715-15 15-15z" fill="#fff"/><path d="m416.805 421.367 10-18.5c3.937-7.289 13.039-10 20.328-6.062 7.289 3.941 10.004 13.043 6.062 20.328l-10 18.5c-3.937 7.289-13.039 10.004-20.328 6.062-7.289-3.937-10.004-13.039-6.062-20.328" fill="#f3cc70"/><path d="m549.988 316.074c-.941 0-1.886.09-2.82.266-15.742 26.16-44.41 43.66-77.168 43.66-13.539 0-26.379-2.988-37.898-8.344l-7.59 14.035c.468.149.937.325 1.398.52v.004l.02.008c1.246.543 19.511 7.707 43.359 7.707h.207c21.391-.071 46.723-5.36 70.899-25.453 2.804-2.336 6.21-3.477 9.597-3.477 1.832 0 3.66.336 5.383.992 1.414-1.09 2.824-2.222 4.23-3.394 6.364-5.301 7.219-14.762 1.918-21.129-2.968-3.559-7.23-5.395-11.535-5.395" fill="#62a48d"/><path d="m547.168 316.34c-2.414.461-4.746 1.523-6.773 3.211-24.004 20.004-49.957 25.441-71.071 25.441-12.765 0-23.758-1.984-31.492-3.941l-5.73 10.605c11.519 5.356 24.359 8.344 37.898 8.344 32.758 0 61.426-17.5 77.168-43.66" fill="#404a5f"/><path d="m283.055 290c-10.832 5.047-21.813 12.051-32.918 21.008-14.914 29.086-45.203 48.992-80.137 48.992-25.227 0-48.031-10.379-64.371-27.102-4.254-2.121-6.6524-3.839-6.711-3.882-2.6719-1.953-5.7813-2.895-8.8633-2.895-4.5977 0-9.1406 2.102-12.0742 6.07-4.8985 6.625-3.5742 15.938 3.0195 20.883.2266.172 1.6484 1.223 4.1289 2.739 1.5703-.54 3.2227-.813 4.8828-.813 3.1172 0 6.2578.965 8.9453 2.969l.6719.457c3.4961 2.359 19.1521 11.578 40.1251 11.578.082 0 .16 0 .246-.004h78.82c.008-.012.02-.023.032-.035 4.492-4.988 8.914-9.613 13.257-13.891h-17.839c39.57-46.269 75.07-58.996 102.14-59 8.047 0 15.344 1.125 21.785 2.824l-13.195-9.898zm81.793 2.148c-.344 2.411-1.285 4.766-2.848 6.852-2.496 3.328-6.113 5.324-9.934 5.855 11.493 5.25 17.934 11.219 17.934 11.219 0 2.688-.422 5.215-1.234 7.594 5.976 4.305 9.867 8.371 11.793 10.578 3.226-6.019 4.441-12.23 4.441-18.172 0-3.308-1.094-6.523-3.109-9.144-.43-.559-6.219-7.938-17.043-14.782m-19.707 52.145c-16.403 6.73-39.676 10.277-65.961 11.391-5.676 3.879-11.715 8.601-18.094 14.316 28.637-.023 54.66-2.805 71.879-8.324 8.719-2.727 14.988-6.192 18.187-9.172 1.09-.996 1.852-1.899 2.399-2.719-1.332-1.094-2.938-2.281-4.785-3.437-1.125-.703-2.332-1.395-3.625-2.055" fill="#62a48d"/><path d="m250.137 311.008c-10.328 8.328-20.766 18.347-31.285 30.031l-.036.035h-78.816c-15.129 0-27.309-4.648-34.371-8.176 16.34 16.723 39.144 27.102 64.371 27.102 34.934 0 65.223-19.906 80.137-48.992" fill="#404a5f"/><path d="m323.824 280.309c-13.304 0-26.914 3.242-40.769 9.691h41.945l13.195 9.898c5.203 1.372 9.848 3.122 13.871 4.957 3.821-.531 7.438-2.527 9.934-5.855 1.563-2.086 2.504-4.441 2.848-6.852-9.118-5.769-21.813-11.16-37.879-11.781-1.047-.039-2.098-.058-3.145-.058" fill="#d4d3d1"/><path d="m316.41 297.074c-27.07.004-62.57 12.731-102.14 59h17.839c15.426-15.176 29.95-26 43.661-33.445 17.496-9.516 33.769-13.391 48.007-13.391h.106.07c18.555 0 33.078 6.492 42.633 12.914.754.504 1.48 1.012 2.18 1.516.812-2.379 1.234-4.906 1.234-7.594 0 0-6.441-5.969-17.934-11.219-.687.098-1.382.145-2.078.145-3.133 0-6.289-.977-8.988-3l-2.805-2.102c-6.441-1.699-13.738-2.824-21.785-2.824m7.473 42.16c-8.918.02-19.988 2.293-33.809 9.766-3.469 1.879-7.097 4.09-10.894 6.684 26.285-1.114 49.558-4.661 65.961-11.391-5.485-2.809-12.481-5.043-21.258-5.059" fill="#538777"/><path d="m338.195 299.898 2.805 2.102c2.699 2.023 5.855 3 8.988 3 .696 0 1.391-.047 2.078-.145-4.023-1.835-8.668-3.585-13.871-4.957" fill="#aeabaa"/><path d="m425.91 366.215.02.008c1.246.543 19.613 7.746 43.566 7.707 21.391-.071 46.723-5.36 70.899-25.453 6.367-5.301 15.824-4.446 21.128 1.921 5.301 6.364 4.446 15.821-1.918 21.125-30.371 25.372-63.714 32.469-90.109 32.403-31.789-.051-54.254-9.684-55.406-10.137-7.613-3.266-11.141-12.086-7.879-19.699 3.266-7.613 12.086-11.141 19.699-7.879z" fill="#c84755"/><path d="m260 385h-45.73c87.929-102.82 155.73-40 155.73-40 0 29.262-50 40-110 40" fill="#e08e4c"/><path d="m99 358-5.1719 6.895 5.0938-6.954.0781.059-5.1719 6.895 5.0938-6.954.707.485c3.5121 2.371 19.2731 11.648 40.3711 11.574h120c29.066.047 55.527-2.734 72.965-8.324 8.719-2.727 14.988-6.192 18.187-9.172 1.625-1.488 2.528-2.77 3.059-3.871.519-1.121.773-2.11.789-3.633h15l-11.891 9.148 3.907-3.003-3.817 3.117-.09-.114 3.907-3.003-3.817 3.117c-.191-.254-3.566-4.246-9.433-7.914-5.911-3.688-14.036-7.094-24.883-7.114-8.918.02-19.988 2.293-33.809 9.766-13.793 7.473-30.23 20.254-48.926 41.035-5.543 6.16-15.027 6.656-21.183 1.113-6.156-5.539-6.656-15.027-1.113-21.183 20.433-22.695 39.343-37.793 56.918-47.336 17.539-9.539 33.847-13.41 48.113-13.391 18.586-.015 33.137 6.485 42.703 12.914 9.617 6.453 14.602 12.813 15.305 13.703 2.035 2.645 3.109 5.809 3.109 9.145.016 5.793-1.293 11.543-3.742 16.609-4.317 8.95-11.57 15.43-19.75 20.246-12.371 7.211-27.492 11.403-44.711 14.211-17.207 2.758-36.516 3.93-56.797 3.934h-120c-17.52-.008-31.996-4.359-42.1602-8.711-10.1718-4.367-16.1171-8.754-16.8398-9.289-6.6289-4.969-7.9727-14.371-3-21 4.9688-6.629 14.3711-7.969 21-3z" fill="#c84755"/><path d="m470.016 234.996c-5.332 0-10.5 2.852-13.207 7.871l-27.618 51.082c7.332 6.809 16.36 11.813 26.375 14.297l27.625-51.113c3.942-7.289 1.227-16.391-6.058-20.324-2.27-1.227-4.711-1.813-7.117-1.813m-62.758 99.531-46.203 85.473h-41.055c-8.285 0-15 6.715-15 15s6.715 15 15 15h50c5.508 0 10.574-3.023 13.191-7.867l27.309-50.52c-5.047-4.121-6.984-11.234-4.289-17.523 1.848-4.309 5.477-7.313 9.66-8.512-.945-.363-1.551-.617-1.777-.715-7.617-3.265-11.145-12.086-7.883-19.699 1.199-2.785 3.144-5.027 5.496-6.59-1.527-1.301-3.012-2.652-4.449-4.047" fill="#62a48d"/><path d="m429.191 293.949-6.781 12.551c6.231 8.109 14.488 14.586 24.008 18.672l9.148-16.926c-10.015-2.484-19.043-7.488-26.375-14.297" fill="#538777"/><path d="m422.41 306.5-15.152 28.027c1.437 1.395 2.922 2.746 4.449 4.047 2.453-1.625 5.348-2.511 8.309-2.511 1.972 0 3.972.39 5.89 1.222.164.07 4.567 1.906 11.926 3.766l8.586-15.879c-9.52-4.086-17.777-10.563-24.008-18.672" fill="#404a5f"/><path d="m411.707 338.574c-2.352 1.563-4.297 3.805-5.496 6.59-3.262 7.613.266 16.434 7.883 19.699.226.098.832.352 1.777.715 1.336-.383 2.727-.582 4.137-.582 1.5 0 3.015.227 4.504.695l7.59-14.035c-7.399-3.441-14.254-7.855-20.395-13.082" fill="#538777"/><path d="m420.016 336.063c-2.961 0-5.856.886-8.309 2.511 6.141 5.227 12.996 9.641 20.395 13.082l5.73-10.605c-7.359-1.86-11.762-3.696-11.926-3.766-1.918-.832-3.918-1.222-5.89-1.222" fill="#394051"/><path d="m420.008 364.996c-1.41 0-2.801.199-4.137.582-4.183 1.199-7.812 4.203-9.66 8.512-2.695 6.289-.758 13.402 4.289 17.523l14.012-25.922c-1.489-.468-3.004-.695-4.504-.695" fill="#a43f4a"/><path d="m320 440h41.055l95.75-177.133c3.937-7.289 13.039-10 20.328-6.062 7.289 3.937 10.004 13.039 6.062 20.328l-100 185c-2.617 4.844-7.691 7.867-13.195 7.867h-50c-8.285 0-15-6.715-15-15s6.715-15 15-15" fill="#fff"/></g></svg>