<svg height="85.333328" viewBox="0 0 85.333328 85.333328" width="85.333328" xmlns="http://www.w3.org/2000/svg"><g transform="matrix(.13333333 0 0 -.13333333 0 85.333331)"><path d="m640 320c0-176.73-143.27-320-320-320s-320 143.27-320 320 143.27 320 320 320 320-143.27 320-320" fill="#77caa9"/><path d="m174.25 129.34c-14.172 0-27.32 5.535-35.738 16.461-15.934 20.715-8.852 52.929 15.851 71.957 8.512 6.551 18.004 10.496 27.434 12.265l-.234.11s.683.062 1.73.234l1.234.254c8.024 1.496 35.473 15.266 35.473 45.004v129.93c0 11.777 4.891 24.258 16.668 27.84l192 36.289c2.168.664 4.262.98 6.234.98 8.739 0 15.098-6.199 15.098-15.809v-223.292c0-29.063-12.371-47.661-24.875-57.301-11.668-8.989-25.172-13.426-37.859-13.426-14.18 0-27.34 5.543-35.762 16.473-15.957 20.714-8.852 52.929 15.851 71.957 8.598 6.617 18.176 10.605 27.692 12.332l-.129.043.895.105 2.089.387c8.043 1.512 32.098 8.34 32.098 38.035v84.184l-190-36.289v-133.375c0-43.125-17.816-64.172-27.867-71.915-11.672-8.992-25.188-13.437-37.883-13.433" fill="#62a48d"/><path d="m138.512 165.801c15.961-20.715 48.918-22.059 73.621-3.028 10.051 7.743 27.867 28.79 27.867 71.915v133.375l190 36.289v-84.184c0-29.695-24.055-36.523-32.098-38.035l-2.089-.387-.895-.105.129-.043c-9.516-1.727-19.094-5.715-27.692-12.332-24.703-19.028-31.808-51.243-15.851-71.957 15.957-20.711 48.918-22.079 73.621-3.047 12.504 9.64 24.875 28.238 24.875 57.301v223.292c0 11.778-9.559 18.434-21.332 14.829l-192-36.289c-11.777-3.582-16.668-16.063-16.668-27.84v-129.93c0-29.738-27.449-43.512-35.473-45.004l-1.234-.254c-1.047-.172-1.73-.234-1.73-.234l.234-.11c-9.43-1.769-18.922-5.714-27.434-12.265-24.703-19.028-31.785-51.242-15.851-71.957" fill="#fff"/></g></svg>