<svg height="85.333328" viewBox="0 0 85.333328 85.333328" width="85.333328" xmlns="http://www.w3.org/2000/svg"><g transform="matrix(.13333333 0 0 -.13333333 0 85.333331)"><path d="m640 320c0-176.73-143.27-320-320-320s-320 143.27-320 320 143.27 320 320 320 320-143.27 320-320" fill="#c84755"/><path d="m480 100h-320c-22.09 0-40 17.91-40 40v280-260c0-22.09 17.91-40 40-40h320c22.09 0 40 17.91 40 40v-20c0-22.09-17.91-40-40-40" fill="#a43f4a"/><path d="m520 160c0-22.09-17.91-40-40-40h-320c-22.09 0-40 17.91-40 40v280c0 22.09 17.91 40 40 40h320c22.09 0 40-17.91 40-40z" fill="#e1e3cc"/><path d="m520 180v260c0 22.09-17.91 40-40 40h-320c-22.09 0-40-17.91-40-40v20c0 22.09 17.91 40 40 40h320c22.09 0 40-17.91 40-40z" fill="#a43f4a"/><path d="m480 140h-320c-22.09 0-40 17.91-40 40v260c0 22.09 17.91 40 40 40h320c22.09 0 40-17.91 40-40v-260c0-22.09-17.91-40-40-40" fill="#b7b7a7"/><path d="m520 200c0-22.09-17.91-40-40-40h-320c-22.09 0-40 17.91-40 40v280c0 22.09 17.91 40 40 40h320c22.09 0 40-17.91 40-40z" fill="#e1e3cc"/><g fill="#495672"><path d="m280 280h-120v120h120z"/><path d="m480 360h-120v10h120z"/><path d="m480 380h-120v10h120z"/><path d="m350 360h-30v40h30z"/><path d="m480 330h-160v10h160z"/><path d="m480 310h-160v10h160z"/><path d="m480 290h-160v10h160z"/><path d="m480 270h-160v10h160z"/><path d="m480 240h-121.25v10h121.25z"/><path d="m280 240h-120v10h120z"/><path d="m280 220h-120v10h120z"/><path d="m280 200h-120v10h120z"/><path d="m280 180h-120v10h120z"/><path d="m480 220h-160v10h160z"/><path d="m480 200h-160v10h160z"/><path d="m480 180h-160v10h160z"/></g><path d="m260 360c0-11.047-8.953-20-20-20s-20 8.953-20 20 8.953 20 20 20 20-8.953 20-20" fill="#e1e3cc"/><path d="m480 440h-320v40h320z" fill="#495672"/><path d="m270 290v24.141l-7.852 7.804c-4.867 4.836-12.761 4.836-17.628 0l-8.438-8.386-19.281 19.164c-9.766 9.703-25.594 9.703-35.356 0l-11.445-11.379v-31.344z" fill="#e1e3cc"/></g></svg>