<svg height="85.333328" viewBox="0 0 85.333328 85.333328" width="85.333328" xmlns="http://www.w3.org/2000/svg"><g transform="matrix(.13333333 0 0 -.13333333 0 85.333331)"><path d="m640 320c0-176.73-143.27-320-320-320s-320 143.27-320 320 143.27 320 320 320 320-143.27 320-320" fill="#e1e3cc"/><path d="m340 70c-11.047 0-20 8.9531-20 20v190h-180c-22.055 0-40 17.945-40 40v70c0 22.055 17.945 40 40 40h40v20c0 11.047 8.953 20 20 20h320c11.047 0 20-8.953 20-20v-40-25-15-45c0-8.285-6.715-15-15-15s-15 6.715-15 15v10c0 8.285-6.715 15-15 15s-15-6.715-15-15v-30c0-8.285-6.715-15-15-15s-15 6.715-15 15v30c0 8.285-6.715 15-15 15s-15-6.715-15-15-6.715-15-15-15-15 6.715-15 15-6.715 15-15 15h-175c-11.047 0-20 8.953-20 20v20h-40v-70h180c22.055 0 40-17.945 40-40v-190c0-11.0469-8.953-20-20-20" fill="#b7b7a7"/><path d="m360 110v190c-.012 22.098-17.902 39.988-40 40h-180v70h180c11.047 0 20 8.953 20 20s-8.953 20-20 20h-180c-22.098-.012-39.988-17.902-40-40v-70c.012-22.098 17.902-39.988 40-40h180v-190c0-11.0469 8.953-20 20-20s20 8.9531 20 20" fill="#495672"/><g fill="#c84755"><path d="m540 345c0-8.285-6.715-15-15-15s-15 6.715-15 15v60c0 8.285 6.715 15 15 15s15-6.715 15-15z"/><path d="m480 325c0-8.285-6.715-15-15-15s-15 6.715-15 15v60c0 8.285 6.715 15 15 15s15-6.715 15-15z"/><path d="m510 400c0-8.285-6.715-15-15-15v-5c-8.285 0-15 11.715-15 20v-45c0 8.285 6.715 15 15 15s15-6.715 15-15z"/><path d="m420 355c0-8.285-6.715-15-15-15s-15 6.715-15 15v60c0 8.285 6.715 15 15 15s15-6.715 15-15z"/><path d="m450 400c0-8.285-6.715-15-15-15v-5c-8.285 0-15 11.715-15 20v-45c0 8.285 6.715 15 15 15s15-6.715 15-15z"/><path d="m390 400c0-8.285-6.715-15-15-15v-5c-8.285 0-15 11.715-15 20v-20c0 8.285 6.715-10 15-10s15-6.715 15-15z"/></g><path d="m540 470c0 11.047-8.953 20-20 20h-320c-11.047 0-20-8.953-20-20v-40h360z" fill="#e08e4c"/><path d="m180 470v-80c0-11.047 8.953-20 20-20h320c11.047 0 20 8.953 20 20v40z" fill="#c84755"/></g></svg>