<svg height="85.333328" viewBox="0 0 85.333328 85.333328" width="85.333328" xmlns="http://www.w3.org/2000/svg"><g transform="matrix(.13333333 0 0 -.13333333 0 85.333331)"><path d="m640 320c0-176.73-143.27-320-320-320s-320 143.27-320 320 143.27 320 320 320 320-143.27 320-320" fill="#e1e3cc"/><path d="m183.359 132.613c-27.882 0-52.836 6.965-63.359 17.489 30 19.898 37.332 47.836 44.945 70.148 3.961 11.605 9.258 22.344 18.938 32.02 13.512 13.511 33.289 21.148 52.398 21.148 2.258 0 4.508-.109 6.739-.324 6.308 18.621 23.265 43.191 56.89 76.816 61.27 61.27 156.875 131.688 189.938 131.688 3.82 0 6.804-.942 8.804-2.942 19.332-19.332-60.398-130.402-128.742-198.746-33.703-33.703-58.312-50.668-76.949-56.941 1.426-14.813-1.844-30.512-9.246-43.797-3.133-5.617-6.957-10.805-11.445-15.289-22.461-22.461-57.54-31.27-88.911-31.27" fill="#b7b7a7"/><path d="m299.91 369.91c-68.34-68.34-68.074-99.414-48.742-118.742 19.328-19.332 50.402-19.598 118.742 48.742 68.344 68.344 148.074 179.414 128.742 198.742-19.328 19.332-130.398-60.398-198.742-128.742" fill="#e08e4c"/><path d="m120 170.102c22.363-22.368 109.844-28.645 152.27 13.781 4.488 4.484 8.312 9.672 11.445 15.289-66.375 1.98-101.453 24.078-118.77 41.078-7.613-22.312-14.945-50.25-44.945-70.148" fill="#c84755"/><path d="m277.574 277.574c-24.406 24.406-69.285 19.106-93.691-5.304-9.68-9.676-14.977-20.415-18.938-32.02 17.317-17 51.305-69.418 118.77-41.078 13.894 24.933 13.781 58.48-6.141 78.402" fill="#495672"/><path d="m164.945 240.25s40.219 7.641 59.383-20.59c19.168-28.226 59.387-20.488 59.387-20.488l-52.047-28.754-52.086 37.914z" fill="#c84755"/></g></svg>