<svg height="85.333328" viewBox="0 0 85.333328 85.333328" width="85.333328" xmlns="http://www.w3.org/2000/svg"><g transform="matrix(.13333333 0 0 -.13333333 0 85.333331)"><path d="m640 320c0-176.73-143.27-320-320-320s-320 143.27-320 320 143.27 320 320 320 320-143.27 320-320" fill="#77caa9"/><path d="m460 120h-280c-11.047 0-20 8.953-20 20v264.191-244.191c0-11.047 8.953-20 20-20h280c11.047 0 20 8.953 20 20v-20c0-11.047-8.953-20-20-20" fill="#62a48d"/><path d="m480 160c0-11.047-8.953-20-20-20h-280c-11.047 0-20 8.953-20 20v340c0 11.047 8.953 20 20 20h280c11.047 0 20-8.953 20-20z" fill="#e1e3cc"/><path d="m405 220c-8.285 0-15 6.715-15 15v79.617-59.617c0-8.285 6.715-15 15-15s15 6.715 15 15v-20c0-8.285-6.715-15-15-15m60 80c-8.285 0-15 6.715-15 15v25c0 4.816-2.27 9.105-5.801 11.848 1.985 2 3.914 4.047 5.801 6.14v-22.988c0-8.285 6.715-15 15-15s15 6.715 15 15v-20c0-8.285-6.715-15-15-15m-75 36.73v33.27c0 8.285-6.715 15-15 15s-15-6.715-15-15-6.715-15-15-15-15 6.715-15 15v16.73c0 9.52-10.566 13.27-15 13.27l-139.09 17.945c-2.672 6.739-4.887 13.696-6.601 20.856l145.691-18.801c4.434 0 15-3.75 15-13.27 0 0 0-12.878 0-16.73 0-8.285 6.715-15 15-15s15 6.715 15 15 6.715 15 15 15 15-6.715 15-15zm30 19.946v3.324c0 8.285 6.715 15 15 15 1.047 0 2.066-.105 3.051-.312-5.516-6.481-11.555-12.512-18.051-18.012" fill="#b7b7a7"/><path d="m460 520h-280c-11.047 0-20-8.953-20-20v-60c0-11.047 0 0 0 0l155-20c4.434 0 15-3.75 15-13.27 0 0 0-12.878 0-16.73 0-8.285 6.715-15 15-15s15 6.715 15 15 6.715 15 15 15 15-6.715 15-15v-135c0-8.285 6.715-15 15-15s15 6.715 15 15v105c0 8.285 6.715 15 15 15s15-6.715 15-15v-25c0-8.285 6.715-15 15-15s15 6.715 15 15v165c0 11.047-8.953 20-20 20" fill="#c84755"/><path d="m160 404.191c-9.605 21.645-14.949 45.594-14.949 70.758 0 5.524 4.476 10 10 10 1.801 0 3.488-.472 4.949-1.308v-3.641z" fill="#62a48d"/><path d="m320 300c-71.305 0-132.777 42.867-160 104.191v75.809 3.641-3.641-60c0-3.684 0-4.91 0-4.91v4.91l15.91-2.055c22.758-57.312 78.77-97.945 144.09-97.945 25.172 0 48.965 6.035 70 16.73v-22.113c-21.445-9.398-45.121-14.617-70-14.617" fill="#b7b7a7"/><path d="m160 415.09v4.91 60-40c0-3.684 0-4.91 0-4.91v4.91l9.309-1.199c1.714-7.16 3.929-14.117 6.601-20.856l-15.91 2.055z" fill="#97978c"/><path d="m420 331.465v8.535c0 8.285 6.715 15 15 15 3.465 0 6.66-1.176 9.199-3.152-7.426-7.493-15.527-14.321-24.199-20.383" fill="#b7b7a7"/><path d="m420 340v16.676c6.496 5.5 12.535 11.531 18.051 18.012 6.82-1.407 11.949-7.45 11.949-14.688v-2.012c-1.887-2.093-3.816-4.14-5.801-6.14-2.539 1.976-5.734 3.152-9.199 3.152-8.285 0-15-6.715-15-15" fill="#97978c"/><path d="m480 404.195v79.446c1.461.836 3.148 1.308 4.949 1.308 5.524 0 10-4.476 10-10 0-25.164-5.344-49.109-14.949-70.754" fill="#62a48d"/><path d="m390 314.617v22.113c10.785 5.485 20.848 12.196 30 19.946v-16.676-8.535c-9.371-6.551-19.414-12.207-30-16.848m60 43.371v2.012c0 7.238-5.129 13.281-11.949 14.688 23.008 27.046 36.898 62.058 36.898 100.261 0 3.723 2.035 6.969 5.051 8.692v-79.446c-7.543-16.996-17.715-32.566-30-46.207m-290 77.102v4.91 40 3.641c3.016-1.723 5.051-4.969 5.051-8.692 0-12.441 1.472-24.547 4.258-36.148l-9.309 1.199z" fill="#a43f4a"/><path d="m474.949 494.949c-.004-42.82-17.328-81.492-45.383-109.566-28.074-28.055-66.746-45.379-109.566-45.383-42.82.004-81.492 17.328-109.566 45.383-28.055 28.074-45.379 66.746-45.383 109.566 0 5.524-4.477 10-10 10-5.524 0-10-4.476-10-10 .004-96.625 78.32-174.941 174.949-174.949 96.625.008 174.941 78.324 174.949 174.949 0 5.524-4.476 10-10 10-5.523 0-10-4.476-10-10" fill="#495672"/></g></svg>