<svg height="85.333328" viewBox="0 0 85.333328 85.333328" width="85.333328" xmlns="http://www.w3.org/2000/svg"><g transform="matrix(.13333333 0 0 -.13333333 0 85.333331)"><path d="m640 320c0-176.73-143.27-320-320-320s-320 143.27-320 320 143.27 320 320 320 320-143.27 320-320" fill="#7db6d8"/><path d="m355.699 118.063c-.523 1.031-1.086 2.035-1.691 3.007l11.09 19.977 173.121 158.953 21.781 20zm-71.398 0-204.301 201.937 21.781-20 173.606-159.395 10.687-19.402c-.633-1.015-1.226-2.066-1.773-3.14m-61.418 111.089-77.75 70.848h11.992z" fill="#6594b2"/><path d="m320 105c-3.848 0-7.512 1.461-10.309 4.105l-229.691 210.895 42.895.266 197.105-179.618 225.668 206.633c1.766-2.222 4.305-7.769 6.074-11.633 2.528-5.515 5.117-11.179 8.258-15.648l-229.695-210.898c-2.793-2.641-6.457-4.102-10.305-4.102" fill="#495672"/><path d="m354.008 121.07c-1.281 2.063-2.742 4-4.367 5.789l15.457 14.188zm-67.934.133-10.687 19.402 14.972-13.746c-1.589-1.754-3.023-3.644-4.285-5.656" fill="#567a95"/><path d="m260.629 194.754-30.293 27.601-42.785 77.645h2.449c0 6.488.141 12.91.414 19.27-.273-6.36-.414-12.782-.414-19.27h11.277zm119.047.535 59.047 104.711h11.277c0 6.488-.141 12.91-.414 19.27.273-6.36.414-12.782.414-19.27h3.344l-42.071-75.777z" fill="#6594b2"/><path d="m349.641 126.859c-1.711 1.891-3.606 3.618-5.649 5.153l35.684 63.277 31.597 28.934-46.175-83.176zm-59.282 0-14.972 13.746-45.051 81.75 30.293-27.601 35.379-62.742c-2.043-1.535-3.938-3.262-5.649-5.153" fill="#404a5f"/><path d="m320 105c-5.535 0-10.602 3.027-13.219 7.906l-116.781 207.094c-2.094 3.91 1.43 11.871 2.117 16.969.688 5.078 2.793 8.91 5.789 10.519 2.211 1.188 4.59 1.789 7.074 1.789 5.547 0 6.211-5.394 8.833-10.273l106.187-187.281 106.188 187.281c2.621 4.879 3.285 10.273 8.832 10.273 2.484 0 4.863-.601 7.07-1.789 3-1.609 5.105-5.441 5.793-10.519.687-5.098 4.211-13.059 2.117-16.969l-116.781-207.094c-2.617-4.879-7.684-7.906-13.219-7.906" fill="#495672"/><path d="m494.031 300h-40.687l16.656 30c.395.738.309 1.016-.094 1.016-.617 0-1.984-.657-3.511-1.313-1.528-.656-3.219-1.312-4.481-1.312-1.016 0-1.754.425-1.914 1.609-.684 5.078-7.004 8.391-10 10-.059.031-.125.047-.199.047-.367 0-.883-.41-1.504-1.113-10.078 114.027-63.684 201.066-128.297 201.066 125.813 0 229.836-96.809 240-220-.004.008-.008.012-.012.02-1.086 1.546-2.816 4.601-4.73 8.168-1.215 2.433-2.371 4.964-3.516 7.46-1.769 3.864-4.308 9.411-6.074 11.633-.141.309-.25.449-.328.449-.121 0-.18-.335-.184-.917z" fill="#6594b2"/><path d="m538.219 300 21.781 20zm21.769 20.02c-1.715 2.441-3.265 5.234-4.73 8.168 1.914-3.567 3.644-6.622 4.73-8.168m-14.832 26.793c.004.582.063.917.184.917.078 0 .187-.14.328-.449z" fill="#567a95"/><path d="m538.219 300h-44.188l51.125 46.813.512.468c1.766-2.222 4.305-7.769 6.074-11.633 1.145-2.496 2.301-5.027 3.516-7.46 1.465-2.934 3.015-5.727 4.73-8.168.004-.008.008-.012.012-.02z" fill="#404a5f"/><path d="m453.344 300h-3.344c0 6.488-.141 12.91-.414 19.27l.414.73c1.566 2.926-.012 8.121-1.195 12.688-.157 2.097-.325 4.164-.508 6.246.621.703 1.137 1.113 1.504 1.113.074 0 .14-.016.199-.047 2.996-1.609 9.316-4.922 10-10 .16-1.184.898-1.609 1.914-1.609 1.262 0 2.953.656 4.481 1.312 1.527.656 2.894 1.313 3.511 1.313.403 0 .489-.278.094-1.016z" fill="#567a95"/><path d="m449.586 319.27c-.191 4.5-.453 8.988-.781 13.418 1.183-4.567 2.761-9.762 1.195-12.688z" fill="#404a5f"/><path d="m187.551 300h-30.426l-37.125 40-40-20c12.2891 121.023 115.734 220 240 220-62.184 0-114.168-80.594-126.977-188.293-.457.145-.886.231-1.269.231-.906 0-1.559-.489-1.754-1.938-.16-1.184-1.98-1.609-4.652-1.609-3.328 0-7.981.656-12.399 1.312s-8.601 1.313-10.992 1.313c-1.555 0-2.352-.278-1.957-1.016z" fill="#6594b2"/><path d="m157.125 300h-11.992l-22.238 20.266-42.895-.266 40 20zm-55.344 0-21.781 20z" fill="#567a95"/><path d="m145.133 300h-43.352l-21.781 20 42.895.266z" fill="#404a5f"/><path d="m190 300h-2.449l-27.551 50c-.395.738.402 1.016 1.957 1.016 2.391 0 6.574-.657 10.992-1.313s9.071-1.312 12.399-1.312c2.672 0 4.492.425 4.652 1.609.195 1.449.848 1.938 1.754 1.938.383 0 .812-.086 1.269-.231-.742-6.254-1.355-12.594-1.828-19.019-1.183-4.567-2.761-9.762-1.195-12.688l.414-.73c-.273-6.36-.414-12.782-.414-19.27" fill="#567a95"/><path d="m190.414 319.27-.414.73c-1.566 2.926.012 8.121 1.195 12.688-.328-4.43-.59-8.918-.781-13.418" fill="#404a5f"/><path d="m450 300h-11.277l10.863 19.27c.273-6.36.414-12.782.414-19.27" fill="#567a95"/><path d="m404.07 300h-168.14l-22.117 39.004c-2.622 4.879-3.286 10.273-8.833 10.273-.98 0-1.945-.093-2.89-.281-.656.672-1.246 1.094-1.735 1.094-.125 0-.246-.031-.355-.09-.336-.18-.715-.258-1.121-.258-1.094 0-2.399.551-3.668 1.098-.758.328-1.504.656-2.188.867 12.809 107.699 64.793 188.293 126.977 188.293 64.613 0 118.219-87.039 128.297-201.066-.192-.223-.399-.473-.613-.746-.836 4.468-2.84 7.824-5.594 9.3-2.207 1.188-4.586 1.789-7.07 1.789-5.547 0-6.211-5.394-8.832-10.273z" fill="#6594b2"/><path d="m201.277 300h-11.277c0 6.488.141 12.91.414 19.27zm-10.082 32.688c.473 6.425 1.086 12.765 1.828 19.019.684-.211 1.43-.539 2.188-.867 1.269-.547 2.574-1.098 3.668-1.098.406 0 .785.078 1.121.258.109.059.23.09.355.09.489 0 1.079-.422 1.735-1.094-1.449-.285-2.848-.789-4.184-1.508-2.996-1.609-5.101-5.441-5.789-10.519-.172-1.285-.523-2.746-.922-4.281m257.61 0c-.399 1.535-.75 2.996-.922 4.281-.059.414-.121.82-.199 1.219.214.273.421.523.613.746.183-2.082.351-4.149.508-6.246" fill="#567a95"/><path d="m438.723 300h-34.653l22.118 39.004c2.621 4.879 3.285 10.273 8.832 10.273 2.484 0 4.863-.601 7.07-1.789 2.754-1.476 4.758-4.832 5.594-9.3.078-.399.14-.805.199-1.219.172-1.285.523-2.746.922-4.281.328-4.43.59-8.918.781-13.418zm-202.793 0h-34.653l-10.863 19.27c.191 4.5.453 8.988.781 13.418.399 1.535.75 2.996.922 4.281.688 5.078 2.793 8.91 5.789 10.519 1.336.719 2.735 1.223 4.184 1.508.945.188 1.91.281 2.89.281 5.547 0 6.211-5.394 8.833-10.273z" fill="#404a5f"/><path d="m450 320h110c0 132.551-107.453 240-240 240 71.797 0 130-107.449 130-240" fill="#c84755"/><path d="m320 560c-132.547 0-240-107.449-240-240h110c0 132.551 58.203 240 130 240" fill="#c84755"/><path d="m190 320h260c0 132.551-58.203 240-130 240s-130-107.449-130-240" fill="#fff"/><path d="m320 60c-22.09 0-40 17.9102-40 40 0 6.5 1.551 12.637 4.301 18.063l7.699-7.61 7.504-13.6132c1.762.3594 3.527.6758 5.305.9571l4.882-4.8321c2.797-2.6445 6.461-4.1054 10.309-4.1054s7.512 1.4609 10.305 4.1015l7.218 7.1371c1.633.039 3.262.07 4.899.105l5.824 10.496 7.453 7.364c2.75-5.426 4.301-11.563 4.301-18.063 0-22.0898-17.91-40-40-40" fill="#6594b2"/><path d="m320 88.8594c-3.848 0-7.512 1.4609-10.309 4.1054l-4.882 4.8321c10.734 1.6914 21.703 2.0586 32.714 2.3011l-7.218-7.1371c-2.793-2.6406-6.457-4.1015-10.305-4.1015m-28 21.5936-7.699 7.61c.547 1.074 1.14 2.125 1.773 3.14zm56.246.246 5.762 10.371c.605-.972 1.168-1.976 1.691-3.007z" fill="#567a95"/><path d="m299.504 96.8398-7.504 13.6132 12.809-12.6561c-1.778-.2813-3.543-.5977-5.305-.9571m38.019 3.2582 10.723 10.601-5.824-10.496c-1.637-.035-3.266-.066-4.899-.105" fill="#567a95"/><path d="m304.809 97.7969-12.809 12.6561-5.926 10.75c1.262 2.012 2.696 3.902 4.285 5.656l19.114-17.55c2.172-2.141 4.953-3.575 7.988-4.094h.008c.011-.004.023-.004.035-.008h.012c.007-.004.019-.004.031-.008h.016c.007-.004.011-.004.015-.004.586-.093 1.176-.156 1.774-.179h.003c.008-.004.02-.004.028-.004h.008.054.004c.012 0 .02-.004.028-.004h.011.024.015.039.02c.004 0 .012-.004.019-.004h.02.023.032.015.024.015.039.008c.012 0 .024-.004.032-.004h.015.031.008.039.012.031.012.039.039.012.031.012.039.008.031.016c.007 0 .019.004.031.004h.008.039.015.024.015.032.023.02c.007 0 .015.004.019.004h.02.043.007.028.011c.008 0 .02.004.028.004h.058.004c.012 0 .024 0 .032.004h.003c.747.031 1.485.117 2.207.257.008 0 .012 0 .016.004h.02c2.894.567 5.547 1.973 7.629 4.024l19.121 17.558c1.625-1.789 3.086-3.726 4.367-5.789l-5.762-10.371-10.723-10.601c-11.011-.2425-21.98-.6097-32.714-2.3011" fill="#4a667c"/><path d="m320.039 105h.012c-.004 0-.008 0-.012 0m-.078 0c-.004 0-.008 0-.012 0zm.121 0h.012c-.004 0-.008 0-.012 0m-.164 0c-.004 0-.008 0-.012 0zm-.051 0c-.004 0-.008 0-.008 0zm.266 0h.008s-.004 0-.008 0m.039 0h.016c-.004 0-.012 0-.016 0m-.344 0c-.004 0-.012 0-.015 0zm.391.004h.008c-.004 0-.004 0-.008 0m-.438 0c-.004 0-.004 0-.008 0zm-.047 0c-.004 0-.007 0-.015 0zm.532 0h.015c-.008 0-.011 0-.015 0m-.571 0c-.004 0-.011 0-.015 0zm.61 0h.015c-.004 0-.011 0-.015 0m.047 0h.023c-.008 0-.016 0-.023 0m-.704 0c-.007 0-.015 0-.023 0zm-.043 0c-.007 0-.015.004-.019.004.008 0 .012-.004.019-.004m.79 0c.007 0 .011.004.019.004-.004 0-.012-.004-.019-.004m.039.004h.043c-.016 0-.032 0-.043 0m-.868 0c-.011 0-.027 0-.039 0zm.918 0h.028c-.008 0-.02 0-.028 0m-.972 0c-.008 0-.016 0-.024 0zm1.011 0c.008 0 .02.004.028.004-.008 0-.02-.004-.028-.004m-1.046 0c-.008 0-.016.004-.028.004.012 0 .02-.004.028-.004m1.074.004h.058c-.019 0-.039 0-.058 0m-1.106 0c-.015 0-.035 0-.054 0zm1.168 0c.012 0 .024 0 .032.004-.008-.004-.02-.004-.032-.004m-1.23 0c-.008 0-.02 0-.028.004.008-.004.02-.004.028-.004m1.265.004c.747.031 1.485.117 2.207.257-.722-.14-1.46-.226-2.207-.257m-1.296 0c-.598.023-1.188.086-1.774.179.582-.093 1.176-.156 1.774-.179m-1.789.183c-.004 0-.012 0-.016 0zm-.047.008c-.004 0-.008 0-.012 0zm-.047.008c-.004 0-.004 0-.008 0zm5.402.062h.02c-.004 0-.012 0-.02 0m7.649 4.024c1.058 1.043 1.972 2.254 2.699 3.605l10.773 19.106c2.043-1.535 3.938-3.262 5.649-5.153zm-21.047.008-19.114 17.55c1.711 1.891 3.606 3.618 5.649 5.153l10.773-19.106c.727-1.351 1.637-2.558 2.692-3.597" fill="#394051"/><path d="m320 105c-.016 0-.027 0-.039 0-.004 0-.008 0-.012 0-.011 0-.019 0-.031 0-.004 0-.008 0-.012 0-.011 0-.027 0-.039 0-.004 0-.008 0-.008 0-.011 0-.023 0-.031 0-.004 0-.012 0-.015 0-.008 0-.02.004-.032.004-.004 0-.004 0-.008 0-.011 0-.027 0-.039 0-.004 0-.007 0-.015 0s-.016 0-.024 0c-.004 0-.011 0-.015 0-.012 0-.024 0-.032 0-.007 0-.015 0-.023 0s-.012 0-.02 0c-.007 0-.011.004-.019.004s-.016 0-.02 0c-.011 0-.027 0-.039 0-.004 0-.007 0-.015 0-.004 0-.016 0-.024 0-.004 0-.008 0-.011 0-.008 0-.016.004-.028.004 0 0 0 0-.004 0-.015 0-.035 0-.054 0-.004 0-.004 0-.008 0-.008 0-.02 0-.028.004-.003 0-.003 0-.003 0-.598.023-1.192.086-1.774.179-.004 0-.008 0-.015.004-.004 0-.012 0-.016 0-.012.004-.024.004-.031.008-.004 0-.008 0-.012 0-.012.004-.024.004-.035.008-.004 0-.004 0-.008 0-3.035.519-5.816 1.953-7.988 4.094-1.055 1.039-1.965 2.246-2.692 3.597l-10.773 19.106c6.683 5.015 14.992 7.988 23.992 7.988s17.309-2.973 23.992-7.988l-10.773-19.106c-.727-1.351-1.641-2.562-2.699-3.605-2.082-2.051-4.735-3.457-7.629-4.024-.004 0-.012 0-.02 0-.004-.004-.008-.004-.016-.004-.722-.14-1.46-.226-2.207-.257h-.003c-.008-.004-.02-.004-.032-.004 0 0 0 0-.004 0-.019 0-.039 0-.058 0-.008 0-.02-.004-.028-.004-.003 0-.007 0-.011 0-.008 0-.02 0-.028 0 0 0-.004 0-.007 0-.016 0-.032 0-.043 0-.008 0-.012 0-.02 0s-.012-.004-.019-.004c-.008 0-.012 0-.02 0s-.016 0-.023 0c-.008 0-.02 0-.032 0-.004 0-.011 0-.015 0-.008 0-.016 0-.024 0s-.011 0-.015 0c-.012 0-.028 0-.039 0-.004 0-.004 0-.008 0-.012 0-.024-.004-.031-.004-.004 0-.012 0-.016 0-.008 0-.02 0-.031 0 0 0-.004 0-.008 0-.012 0-.028 0-.039 0-.004 0-.008 0-.012 0-.012 0-.019 0-.031 0-.004 0-.008 0-.012 0-.012 0-.027 0-.039 0" fill="#404a5f"/><path d="m360 120c0-22.0898-17.91-40-40-40s-40 17.9102-40 40c0 22.09 17.91 40 40 40s40-17.91 40-40" fill="#e1e3cc"/></g></svg>