<svg height="85.333328" viewBox="0 0 85.333328 85.333328" width="85.333328" xmlns="http://www.w3.org/2000/svg"><g transform="matrix(.13333333 0 0 -.13333333 0 85.333331)"><path d="m640 320c0-176.73-143.27-320-320-320s-320 143.27-320 320 143.27 320 320 320 320-143.27 320-320" fill="#7db6d8"/><path d="m320 60-26.668 40-53.332 80v290c0 16.57 13.43 30 30 30h100c16.57 0 30-13.43 30-30v-50-10-230l-53.332-80z" fill="#6594b2"/><path d="m400 430c0-16.57-13.43-30-30-30h-100c-16.566 0-30 13.43-30 30v60c0 16.57 13.434 30 30 30h100c16.57 0 30-13.43 30-30z" fill="#c84755"/><path d="m280 200h-40v240h40z" fill="#e08e4c"/><path d="m360 180h-80v260h80z" fill="#f3cc70"/><path d="m400 200h-40v240h40z" fill="#e08e4c"/><path d="m320 80 26.668 40h-53.336z" fill="#495672"/><path d="m240 200 53.332-80h53.336l53.332 80h-20l-20 20-40-40-40 40-20-20z" fill="#fff"/></g></svg>