<svg height="85.333328" viewBox="0 0 85.333328 85.333328" width="85.333328" xmlns="http://www.w3.org/2000/svg"><g transform="matrix(.13333333 0 0 -.13333333 0 85.333331)"><path d="m640 320c0-176.73-143.27-320-320-320s-320 143.27-320 320 143.27 320 320 320 320-143.27 320-320" fill="#e1e3cc"/><path d="m550 330h-200v200c110.457 0 200-89.543 200-200" fill="#b7b7a7"/><path d="m550 350c0 110.457-89.543 200-200 200v-200z" fill="#495672"/><path d="m310 70c-121.504 0-220 98.496-220 220 0 3.352.0742 6.684.2227 10 5.2304-116.859 101.6253-210 219.7773-210 52.086 0 99.949 18.105 137.633 48.363l10.226-11.265c-39.062-35.4769-90.933-57.098-147.859-57.098" fill="#b7b7a7"/><path d="m310 530c-121.504 0-220-98.496-220-220s98.496-220 220-220c56.926 0 108.797 21.621 147.859 57.098l-147.859 162.902z" fill="#77caa9"/><path d="m457.859 127.098-10.226 11.265c3.5 2.809 6.91 5.719 10.226 8.735l-147.859 162.902h220c0-64.578-27.824-142.656-72.141-182.902" fill="#b7b7a7"/><path d="m447.633 138.363-137.633 151.637v20l147.859-162.902c-3.316-3.016-6.726-5.926-10.226-8.735z" fill="#62a48d"/><path d="m530 310h-220l147.859-162.902c44.317 40.246 72.141 98.324 72.141 162.902" fill="#c84755"/></g></svg>