<svg height="85.333328" viewBox="0 0 85.333328 85.333328" width="85.333328" xmlns="http://www.w3.org/2000/svg"><g transform="matrix(.13333333 0 0 -.13333333 0 85.333331)"><path d="m640 320c0-176.73-143.27-320-320-320s-320 143.27-320 320 143.27 320 320 320 320-143.27 320-320" fill="#e1e3cc"/><path d="m270.004 90c-2.207 0-4.453.3672-6.656 1.1484-5.356 1.8868-9.399 5.8243-11.567 10.6176.508-.227 1.028-.438 1.563-.625 2.199-.778 4.449-1.1449 6.656-1.1449 8.242 0 15.961 5.1329 18.859 13.3479l66.829 189.351c4.179-.941 8.445-1.648 12.789-2.097l-69.618-197.246c-2.894-8.2192-10.613-13.352-18.855-13.352" fill="#b7b7a7"/><path d="m361.141 466.656-120-340c-3.676-10.414 1.789-21.84 12.203-25.515 10.418-3.6762 21.84 1.789 25.515 12.203l120 340c3.676 10.418-1.789 21.84-12.203 25.515-10.418 3.676-21.84-1.785-25.515-12.203" fill="#495672"/><path d="m370 300c-3.891 0-7.738.203-11.523.598l50.382 142.754c3.489 9.878-1.25 20.668-10.632 24.882-2.168 4.797-6.215 8.735-11.571 10.625-2.203.778-4.449 1.149-6.656 1.149-8.242 0-15.961-5.137-18.859-13.352l-52.278-148.117c-29.468 19.734-48.863 53.332-48.863 91.461 0 60.75 49.25 110 110 110s110-49.25 110-110-49.25-110-110-110" fill="#b7b7a7"/><path d="m358.477 300.598c-4.344.449-8.61 1.156-12.789 2.097l53.171 150.649c1.786 5.062 1.414 10.359-.632 14.89 9.382-4.214 14.121-15.004 10.632-24.882z" fill="#97978c"/><path d="m345.688 302.695c-13.356 3.016-25.797 8.461-36.825 15.844l52.278 148.117c2.898 8.215 10.617 13.352 18.859 13.352 2.207 0 4.453-.371 6.656-1.149 5.356-1.89 9.403-5.828 11.571-10.625 2.046-4.531 2.418-9.828.632-14.89z" fill="#404a5f"/><path d="m480 430c0-60.75-49.25-110-110-110s-110 49.25-110 110 49.25 110 110 110 110-49.25 110-110" fill="#c84755"/></g></svg>