<svg height="85.333328" viewBox="0 0 85.333328 85.333328" width="85.333328" xmlns="http://www.w3.org/2000/svg"><g transform="matrix(.13333333 0 0 -.13333333 0 85.333331)"><path d="m640 320c0-176.73-143.27-320-320-320s-320 143.27-320 320 143.27 320 320 320 320-143.27 320-320" fill="#e1e3cc"/><path d="m320 69.4648-20 40.0002v70.75c-56.734 3.976-100 24.48-100 49.25 0 15.781 17.59 29.836 45 39v143.07c-27.41 9.164-45 23.219-45 39 0 27.613 53.727 40 120 40s120-12.387 120-40c0-15.781-17.59-29.836-45-39v-143.07c27.41-9.164 45-23.219 45-39 0-24.77-43.266-45.274-100-49.25v-70.75z" fill="#b7b7a7"/><g fill="#c84755"><path d="m440 249.465c0-27.613-53.727-50-120-50s-120 22.387-120 50 53.727 50 120 50 120-22.387 120-50"/><path d="m440 470.535c0-27.613-53.727-50-120-50s-120 22.387-120 50 53.727 40 120 40 120-12.387 120-40"/><path d="m390 240h-140v200h140z"/></g><path d="m300 129.465 20-40.0002 20 40.0002v100h-40z" fill="#495672"/><path d="m340 227.59c0-7.938-8.953-14.375-20-14.375s-20 6.437-20 14.375c0 7.937 8.953 14.375 20 14.375s20-6.438 20-14.375" fill="#495672"/></g></svg>