<svg height="85.333328" viewBox="0 0 85.333328 85.333328" width="85.333328" xmlns="http://www.w3.org/2000/svg"><g transform="matrix(.13333333 0 0 -.13333333 0 85.333331)"><path d="m640 320c0-176.73-143.27-320-320-320s-320 143.27-320 320 143.27 320 320 320 320-143.27 320-320" fill="#c84755"/><path d="m320 80c-121.504 0-220 98.496-220 220s98.496 220 220 220 220-98.496 220-220-98.496-220-220-220m0 400c-99.254 0-180-80.746-180-180s80.746-180 180-180 180 80.746 180 180-80.746 180-180 180" fill="#a43f4a"/><path d="m280 193.813c-3.453 0-6.902.894-10 2.679-6.187 3.571-10 10.18-10 17.321v172.375c0 7.14 3.813 13.75 10 17.32 3.094 1.785 6.547 2.68 10 2.68s6.902-.895 10-2.68l120-86.188c6.188-3.57 10-10.175 10-17.32s-3.812-13.75-10-17.32l-120-86.188c-3.098-1.785-6.547-2.679-10-2.679" fill="#a43f4a"/><path d="m320 540c-121.504 0-220-98.496-220-220s98.496-220 220-220 220 98.496 220 220-98.496 220-220 220zm0-40c99.254 0 180-80.746 180-180s-80.746-180-180-180-180 80.746-180 180 80.746 180 180 180" fill="#e1e3cc"/><path d="m280 213.813c-3.453 0-6.902.894-10 2.679-6.187 3.571-10 10.18-10 17.321v172.375c0 7.14 3.813 13.75 10 17.32 6.191 3.57 13.809 3.57 20 0l120-86.188c6.188-3.57 10-10.175 10-17.32s-3.812-13.75-10-17.32l-120-86.188c-3.098-1.785-6.547-2.679-10-2.679" fill="#f3cc70"/></g></svg>