<svg height="85.333328" viewBox="0 0 85.333328 85.333328" width="85.333328" xmlns="http://www.w3.org/2000/svg"><g transform="matrix(.13333333 0 0 -.13333333 0 85.333331)"><path d="m640 320c0-176.73-143.27-320-320-320s-320 143.27-320 320 143.27 320 320 320 320-143.27 320-320" fill="#c84755"/><path d="m469.879 106.98c-1.027 0-2.066.09-3.109.274l-205.797 36.613 47.617 9.438 161.269-28.688c1.043-.187 2.082-.277 3.106-.277 8.348 0 15.754 5.949 17.32 14.426l-3.066-17.239c-1.52-8.543-8.957-14.547-17.34-14.547m-254.055 99.844 20.156 113.305zm294.504 44.614 26.332 148.011c-.008-.047-.015-.094-.023-.14z" fill="#a43f4a"/><path d="m286.441 452.77 225.696-40.149-38.606-217.016-225.695 40.153zm239.012-15.653-243.058 43.242c-9.586 1.704-18.743-4.687-20.45-14.273l-49.418-277.781c-1.703-9.586 4.688-18.742 14.274-20.45l243.058-43.238c9.586-1.707 18.743 4.684 20.45 14.274l49.414 277.777c1.707 9.59-4.684 18.742-14.27 20.449" fill="#e1e3cc"/><path d="m512.137 412.621-225.696 40.149-38.605-217.012 225.695-40.153z" fill="#495672"/><path d="m192.48 130.633c-8.246 0-15.613 5.812-17.277 14.207l-54.863 276.758c-1.895 9.55 4.316 18.832 13.867 20.722l128.109 25.399c-.148-.535-.273-1.078-.371-1.633l-4.683-26.336-109.262-21.66 42.863-216.215 24.961 4.949-6.383-35.879c-1.707-9.59 4.684-18.746 14.274-20.449l37.258-6.629-65.043-12.894c-1.16-.231-2.313-.34-3.45-.34m208.008 328.715-95.07 16.914 70.949 14.066c1.16.231 2.313.34 3.449.34 8.247 0 15.614-5.813 17.278-14.207z" fill="#a43f4a"/><path d="m260.973 143.867-37.258 6.629c-9.59 1.703-15.981 10.859-14.274 20.449l6.383 35.879-3.297-18.519c-1.703-9.586 4.688-18.742 14.274-20.45l81.789-14.55z" fill="#883840"/><path d="m308.59 153.305-81.789 14.55c-9.586 1.708-15.977 10.864-14.274 20.45l3.297 18.519 92.063 18.25 144.121-25.64c1.726-9.457-4.457-18.579-13.918-20.457zm97.418 278.195-27.953 4.973-5.192 26.195-67.183-13.32-19.239 3.422-1.332-7.5-27.847-5.52 4.683 26.336c.098.555.223 1.098.371 1.633l43.102 8.543 95.07-16.914z" fill="#b7b7a7"/><path d="m452.008 199.434-144.121 25.64 107.84 21.379-37.672 190.02 27.953-4.973 45.949-231.797c.02-.09.035-.18.051-.269m-166.899 245.836 1.332 7.5 19.239-3.422z" fill="#404a5f"/><path d="m132.273 437.426 224.864 44.574 42.863-216.215-224.863-44.574zm228.368 72.234-242.161-48.004c-9.55-1.894-15.761-11.176-13.867-20.726l54.864-276.754c1.894-9.555 11.171-15.766 20.726-13.871l242.16 48.008c9.555 1.89 15.762 11.171 13.867 20.722l-54.863 276.758c-1.89 9.551-11.172 15.762-20.726 13.867" fill="#fff"/><path d="m357.137 482-224.864-44.574 42.864-216.215 224.863 44.574z" fill="#7db6d8"/></g></svg>