<svg height="85.333328" viewBox="0 0 85.333328 85.333328" width="85.333328" xmlns="http://www.w3.org/2000/svg"><g transform="matrix(.13333333 0 0 -.13333333 0 85.333331)"><path d="m640 320c0-176.73-143.27-320-320-320s-320 143.27-320 320 143.27 320 320 320 320-143.27 320-320" fill="#7db6d8"/><path d="m460 120h-280c-11.047 0-20 8.953-20 20v320c0 11.047 8.953 20 20 20h280c11.047 0 20-8.953 20-20v-320c0-11.047-8.953-20-20-20m-270 330v-250h260v250z" fill="#6594b2"/><path d="m190 470h260v-250h-260zm270 30h-280c-11.047 0-20-8.953-20-20v-320c0-11.047 8.953-20 20-20h280c11.047 0 20 8.953 20 20v320c0 11.047-8.953 20-20 20" fill="#fff"/><path d="m450 470h-260v-250h260z" fill="#495672"/></g></svg>