<svg height="85.333328" viewBox="0 0 85.333328 85.333328" width="85.333328" xmlns="http://www.w3.org/2000/svg"><g transform="matrix(.13333333 0 0 -.13333333 0 85.333331)"><path d="m640 320c0-176.73-143.27-320-320-320s-320 143.27-320 320 143.27 320 320 320 320-143.27 320-320" fill="#e08e4c"/><path d="m480 260c0-11.047-8.953-20-20-20h-280c-11.047 0-20 8.953-20 20v219.383c0 11.047 8.953 20 20 20h280c11.047 0 20-8.953 20-20z" fill="#e1e3cc"/><path d="m140 240 20 30h320l20-30z" fill="#fff"/><path d="m320 270c-44.184 0-80 35.816-80 80s35.816 80 80 80 80-35.816 80-80-35.816-80-80-80" fill="#b7b7a7"/><path d="m320 305c-35.84 0-65 29.16-65 65s29.16 65 65 65 65-29.16 65-65-29.16-65-65-65" fill="#7db6d8"/><path d="m320 450c-44.184 0-80-35.816-80-80s35.816-80 80-80 80 35.816 80 80-35.816 80-80 80zm0-30c27.57 0 50-22.43 50-50s-22.43-50-50-50-50 22.43-50 50 22.43 50 50 50" fill="#495672"/><path d="m205 270c-13.809 0-25 11.191-25 25s11.191 25 25 25 25-11.191 25-25-11.191-25-25-25" fill="#b7b7a7"/><path d="m230 315c0-13.809-11.191-25-25-25s-25 11.191-25 25 11.191 25 25 25 25-11.191 25-25" fill="#c84755"/><path d="m500 240h-360v-20h360z" fill="#e1e3cc"/><path d="m460 400h-40c-11.047 0-20 8.953-20 20v40c0 11.047 8.953 20 20 20h40c11.047 0 20-8.953 20-20v-40c0-11.047-8.953-20-20-20" fill="#b7b7a7"/><path d="m400 440c0-11.047 8.953-20 20-20h40c11.047 0 20 8.953 20 20v40c0 11.047-8.953 20-20 20h-40c-11.047 0-20-8.953-20-20z" fill="#495672"/><path d="m440 120h-240c-33.137 0-60 26.863-60 60v20h360v-20c0-33.137-26.863-60-60-60" fill="#b77744"/><path d="m140 200c0-33.137 26.863-60 60-60h240c33.137 0 60 26.863 60 60v20h-360z" fill="#495672"/></g></svg>