<svg height="85.333328" viewBox="0 0 85.333328 85.333328" width="85.333328" xmlns="http://www.w3.org/2000/svg"><g transform="matrix(.13333333 0 0 -.13333333 0 85.333331)"><path d="m640 320c0-176.73-143.27-320-320-320s-320 143.27-320 320 143.27 320 320 320 320-143.27 320-320" fill="#e1e3cc"/><path d="m197.41 169.531c-5.055 0-10.043 2.301-13.355 6.696-5.715 7.554-4.391 18.406 3 24.242 52.609 41.793 67.008 82.726 69.554 110.816-7.461-4.191-15.863-6.836-24.964-6.836-28.379 0-51.356 23.524-51.356 52.539 0 29.02 23.012 52.543 51.356 52.543 6.418 0 12.308-1.648 17.921-3.883l-.175.415s2.476-.895 5.929-2.782l.524-.207.277-.207c2.371-1.34 5.09-3.125 8.125-5.664 1.289-1.101 2.367-2.371 3.555-3.57 12.656-12.399 26.566-36.059 22.871-81.149-2.16-35.23-18.305-87.976-82.906-139.312-3.106-2.442-6.731-3.641-10.356-3.641m169.024.032c-5.055 0-10.043 2.3-13.356 6.699-5.719 7.554-4.39 18.406 3 24.242 52.61 41.793 67.008 82.726 69.555 110.816-7.426-4.257-15.828-6.871-24.93-6.871-28.379 0-51.355 23.524-51.355 52.539 0 29.02 22.976 52.543 51.355 52.543 6.414 0 12.309-1.648 17.922-3.883l-.211.415s2.477-.895 5.93-2.782l.519-.207.282-.207c2.371-1.34 5.089-3.125 8.121-5.664 1.293-1.101 2.371-2.371 3.558-3.57 12.656-12.399 26.531-36.059 22.871-81.113-2.164-35.231-18.304-87.977-82.91-139.317-3.101-2.437-6.726-3.64-10.351-3.64" fill="#b7b7a7"/><path d="m231.645 324.449c-28.379 0-51.356 23.524-51.356 52.539 0 29.02 23.012 52.543 51.356 52.543 6.418 0 12.308-1.648 17.921-3.883l-.175.415s2.476-.895 5.929-2.782l.524-.207.277-.207c2.371-1.34 5.09-3.125 8.125-5.664 1.289-1.101 2.367-2.371 3.555-3.57 12.656-12.399 26.566-36.059 22.871-81.149-2.16-35.23-18.305-87.976-82.906-139.312-3.106-2.442-6.731-3.641-10.356-3.641-5.055 0-10.043 2.301-13.355 6.696-5.715 7.554-4.391 18.406 3 24.242 52.609 41.793 67.008 82.726 69.554 110.816-7.461-4.191-15.863-6.836-24.964-6.836zm228.05 8.071c-2.164-35.231-18.304-87.977-82.91-139.317-3.101-2.437-6.726-3.64-10.351-3.64-5.055 0-10.043 2.3-13.356 6.699-5.719 7.554-4.39 18.406 3 24.242 52.61 41.793 67.008 82.726 69.555 110.816-7.426-4.257-15.828-6.871-24.93-6.871-28.379 0-51.355 23.524-51.355 52.539 0 29.02 22.976 52.543 51.355 52.543 6.414 0 12.309-1.648 17.922-3.883l-.211.415s2.477-.895 5.93-2.782l.519-.207.282-.207c2.371-1.34 5.089-3.125 8.121-5.664 1.293-1.101 2.371-2.371 3.558-3.57 12.656-12.399 26.531-36.059 22.871-81.113" fill="#495672"/></g></svg>