<svg height="85.333328" viewBox="0 0 85.333328 85.333328" width="85.333328" xmlns="http://www.w3.org/2000/svg"><g transform="matrix(.13333333 0 0 -.13333333 0 85.333331)"><path d="m640 320c0-176.73-143.27-320-320-320s-320 143.27-320 320 143.27 320 320 320 320-143.27 320-320" fill="#c84755"/><path d="m490.32 223.504c-2.843 0-5.687 1.086-7.855 3.254l-52.856 52.855-53.031 53.032 10 10 43.031-43.036 47.145 47.145-43.035 43.031 43.035-43.031 37.137 37.137 10-10 52.855-52.852c4.34-4.34 4.34-11.375 0-15.715l-39.285-39.285-39.281-39.281c-2.172-2.168-5.016-3.254-7.86-3.254" fill="#a43f4a"/><path d="m146.426 220c-2.844 0-5.688 1.086-7.86 3.254l-39.2808 39.285-39.2852 39.281c-4.3398 4.34-1.0859 14.879 3.2539 19.219l52.8551 52.852 10 10 37.141-37.137 43.031 43.031-43.031-43.031 47.141-47.145 43.031 43.036 10-10-53.031-53.032-56.11-56.359c-2.172-2.168-5.011-3.254-7.855-3.254" fill="#a43f4a"/><path d="m476.754 346.754-47.145-47.145 52.856-52.851c4.34-4.34 11.375-4.34 15.715 0l39.281 39.281z" fill="#fff"/><path d="m523.891 393.891-62.852 62.855c-4.34 4.34-11.375 4.34-15.715 0l-39.285-39.285 70.715-70.707z" fill="#fff"/><path d="m537.461 286.039 39.285 39.285c4.34 4.34 4.34 11.375 0 15.715l-52.855 52.852-47.137-47.137z" fill="#495672"/><path d="m406.039 417.461-39.281-39.281c-4.34-4.34-4.34-11.375 0-15.715l62.851-62.856 47.145 47.145z" fill="#495672"/><path d="m163.25 346.754 47.141-47.145-56.11-56.355c-4.34-4.34-11.375-4.34-15.715 0l-39.2808 39.285z" fill="#fff"/><path d="m116.109 393.891 62.852 62.855c4.34 4.34 11.375 4.34 15.715 0l39.285-39.285-70.711-70.707z" fill="#fff"/><path d="m99.2852 282.539-39.2852 39.281c-4.3398 4.34-1.0859 14.879 3.2539 19.219l52.8551 52.852 47.141-47.137z" fill="#495672"/><path d="m233.961 417.461 39.281-39.281c4.34-4.34 4.34-11.375 0-15.715l-62.851-62.856-47.141 47.145z" fill="#495672"/><path d="m175.688 137.969c-3.836 0-7.676 1.465-10.606 4.394-5.66 5.657-5.852 14.719-.57 20.606.183-.203.375-.406.574-.606 2.926-2.929 6.766-4.39 10.605-4.39 3.836 0 7.676 1.461 10.606 4.39l123.703 123.703 10-10-133.707-133.703c-2.93-2.929-6.766-4.394-10.605-4.394m165.523 159.308-10 10 35.367 35.371c.059-.062.117-.121.18-.183l9.82-9.82zm132.586 146.711-2.938 2.938c.196.199.387.398.571.605.976-1.086 1.765-2.281 2.367-3.543" fill="#a43f4a"/><path d="m376.578 332.645-9.82 9.82c-.063.062-.121.121-.18.183l10 9.997 10-10z" fill="#883840"/><path d="m433.719 389.785-10 10 47.14 47.141 2.938-2.938c2.656-5.574 1.68-12.453-2.938-17.062z" fill="#d4d3d1"/><path d="m386.578 342.645-10 10 47.141 47.14 10-10z" fill="#404a5f"/><path d="m449.645 468.137-284.559-284.559c-5.859-5.859-5.859-15.355 0-21.215 5.855-5.855 15.352-5.855 21.211 0l284.562 284.563c5.856 5.855 5.856 15.355 0 21.211-5.859 5.859-15.355 5.859-21.214 0" fill="#e1e3cc"/><path d="m464.313 137.969c-3.84 0-7.676 1.465-10.606 4.394l-133.707 133.703 21.211 21.211 133.707-133.703c5.859-5.855 5.859-15.355 0-21.211-2.93-2.929-6.77-4.394-10.605-4.394m-175.528 169.312-25.363 25.364 9.82 9.82c4.34 4.34 4.34 11.375 0 15.715l-2.14 2.14 2.14 2.145c.477.473.899.98 1.27 1.512l35.484-35.485zm-122.582 136.707c.715 1.5 1.695 2.907 2.938 4.149 1.242 1.242 2.648 2.218 4.148 2.933z" fill="#a43f4a"/><path d="m263.422 332.645-10 10 17.68 17.675 2.14-2.14c4.34-4.34 4.34-11.375 0-15.715z" fill="#883840"/><path d="m206.281 389.785-37.14 37.141c-4.618 4.609-5.594 11.488-2.938 17.062l7.086 7.082c2.035.973 4.246 1.457 6.457 1.457 3.84 0 7.676-1.464 10.606-4.39l37.14-37.141z" fill="#d4d3d1"/><path d="m253.422 342.645-47.141 47.14 21.211 21.211 47.02-47.019c-.371-.532-.793-1.039-1.27-1.512l-2.14-2.145z" fill="#404a5f"/><path d="m320 276.066-10 10 21.211 21.211 10-10z" fill="#883840"/><path d="m310 286.066-21.215 21.215 21.211 21.211 21.215-21.215z" fill="#b7b7a7"/><path d="m169.141 446.926 284.562-284.563c5.86-5.855 15.356-5.855 21.215 0 5.855 5.86 5.855 15.356 0 21.215l-284.563 284.559c-5.859 5.859-15.355 5.859-21.214 0-5.86-5.856-5.86-15.356 0-21.211" fill="#e1e3cc"/></g></svg>