<svg height="85.333328" viewBox="0 0 85.333328 85.333328" width="85.333328" xmlns="http://www.w3.org/2000/svg"><g transform="matrix(.13333333 0 0 -.13333333 0 85.333331)"><path d="m640 320c0-176.73-143.27-320-320-320s-320 143.27-320 320 143.27 320 320 320 320-143.27 320-320" fill="#7db6d8"/><path d="m320 377.07c-5.867 0-11.734 2.239-16.215 6.715-8.953 8.953-8.953 23.473 0 32.426 4.481 4.477 10.348 6.719 16.215 6.719s11.734-2.242 16.215-6.719c8.953-8.953 8.953-23.473 0-32.426-4.481-4.476-10.348-6.715-16.215-6.715" fill="#6594b2"/><path d="m369.496 335.504c-3.836 0-7.68 1.465-10.605 4.394-5.86 5.86-5.86 15.356 0 21.211 10.39 10.391 16.109 24.2 16.109 38.891 0 14.688-5.723 28.5-16.109 38.891-5.86 5.855-5.86 15.355 0 21.211 2.929 2.929 6.769 4.394 10.605 4.394 3.84 0 7.676-1.465 10.606-4.394 16.054-16.055 24.898-37.403 24.898-60.102 0-22.703-8.844-44.055-24.898-60.102-2.93-2.929-6.766-4.394-10.606-4.394" fill="#6594b2"/><path d="m420 307.219c-3.84 0-7.676 1.465-10.605 4.39-5.86 5.856-5.86 15.36 0 21.211 17.945 17.946 27.824 41.805 27.824 67.18s-9.879 49.23-27.824 67.172c-5.86 5.855-5.86 15.351 0 21.211 2.925 2.93 6.761 4.394 10.601 4.394s7.68-1.464 10.609-4.394c23.614-23.61 36.614-54.992 36.614-88.383s-13-64.781-36.614-88.391c-2.929-2.925-6.765-4.39-10.605-4.39" fill="#6594b2"/><path d="m270.504 335.504c-3.84 0-7.676 1.465-10.606 4.394-16.054 16.047-24.898 37.399-24.898 60.102 0 22.699 8.844 44.047 24.898 60.102 2.93 2.929 6.766 4.394 10.606 4.394 3.836 0 7.676-1.465 10.605-4.394 5.86-5.856 5.86-15.356 0-21.211-10.386-10.391-16.109-24.203-16.109-38.891 0-14.691 5.719-28.5 16.109-38.891 5.86-5.855 5.86-15.351 0-21.211-2.925-2.929-6.769-4.394-10.605-4.394" fill="#6594b2"/><path d="m220 307.219c-3.84 0-7.676 1.465-10.605 4.39-23.614 23.61-36.614 55-36.614 88.391s13 64.773 36.614 88.383c2.929 2.93 6.765 4.394 10.605 4.394s7.676-1.464 10.605-4.394c5.86-5.86 5.86-15.356 0-21.211-17.945-17.942-27.824-41.797-27.824-67.172s9.879-49.234 27.824-67.18c5.86-5.851 5.86-15.355 0-21.211-2.929-2.925-6.765-4.39-10.605-4.39" fill="#6594b2"/><path d="m420.004 74.9961c-5.906 0-11.508 3.5156-13.887 9.3242l-35.101 85.7817-1.016-.102h-100l-1.016.102-35.101-85.7817c-2.379-5.8125-7.981-9.3242-13.887-9.3242-1.894 0-3.816.3594-5.676 1.1211-7.672 3.1367-11.34 11.8945-8.203 19.5625l100 244.3713c2.305 5.637 7.793 9.32 13.883 9.32s11.578-3.683 13.883-9.32l100-244.3713c3.137-7.668-.531-16.4258-8.203-19.5625-1.856-.7617-3.782-1.1211-5.676-1.1211m-126.508 155.0039-12.277-30h77.562l-12.277 30zm26.504 64.766-14.227-34.766h28.454z" fill="#6594b2"/><g fill="#495672"><path d="m336.215 403.785c-8.957-8.953-23.473-8.953-32.43 0-8.953 8.957-8.953 23.473 0 32.43 8.957 8.953 23.473 8.953 32.43 0 8.953-8.957 8.953-23.473 0-32.43"/><path d="m358.891 458.891c10.765-10.778 16.093-24.762 16.109-38.891-.016-14.125-5.344-28.113-16.109-38.891-5.86-5.855-5.86-15.355 0-21.214 5.855-5.856 15.355-5.856 21.214 0 16.567 16.562 24.911 38.402 24.895 60.105.016 21.703-8.328 43.547-24.898 60.105-5.856 5.86-15.356 5.856-21.211 0-5.86-5.859-5.86-15.359 0-21.214"/><path d="m409.395 487.176c18.578-18.59 27.804-42.813 27.824-67.176-.02-24.363-9.246-48.586-27.824-67.176-5.86-5.855-5.86-15.355 0-21.215 5.855-5.855 15.355-5.855 21.21 0 24.379 24.371 36.629 56.454 36.614 88.391.015 31.941-12.235 64.02-36.614 88.391-5.855 5.855-15.355 5.855-21.21 0-5.86-5.86-5.86-15.36 0-21.215"/><path d="m259.898 480.105c-16.57-16.558-24.914-38.402-24.898-60.105-.016-21.703 8.328-43.543 24.895-60.102 5.859-5.859 15.355-5.859 21.214-.003 5.86 5.859 5.86 15.355 0 21.214-10.769 10.778-16.093 24.766-16.109 38.891.016 14.129 5.34 28.113 16.109 38.891 5.86 5.859 5.86 15.355 0 21.211-5.855 5.859-15.355 5.859-21.211.003"/><path d="m209.395 508.391c-24.379-24.371-36.629-56.45-36.614-88.391-.015-31.937 12.235-64.02 36.614-88.387 5.855-5.859 15.351-5.859 21.21-.004 5.86 5.86 5.86 15.36 0 21.215-18.578 18.59-27.808 42.813-27.824 67.176.016 24.363 9.246 48.586 27.824 67.176 5.86 5.859 5.86 15.355 0 21.215-5.859 5.855-15.355 5.855-21.21-.004"/><path d="m233.883 104.32 86.117 210.446 86.117-210.446c3.137-7.6677 11.895-11.3395 19.563-8.2028s11.34 11.8988 8.203 19.5628l-100 244.375c-2.317 5.656-7.77 9.316-13.883 9.316s-11.566-3.66-13.883-9.316l-100-244.375c-3.137-7.664.535-16.4261 8.203-19.5628 7.664-3.1367 16.426.5351 19.563 8.2028"/><path d="m290 250h60c8.281 0 15 6.715 15 15s-6.719 15-15 15h-60c-8.285 0-15-6.715-15-15s6.715-15 15-15"/><path d="m270 190h100c8.285 0 15 6.715 15 15s-6.715 15-15 15h-100c-8.285 0-15-6.715-15-15s6.715-15 15-15"/></g></g></svg>