<svg height="85.333328" viewBox="0 0 85.333328 85.333328" width="85.333328" xmlns="http://www.w3.org/2000/svg"><g transform="matrix(.13333333 0 0 -.13333333 0 85.333331)"><path d="m640 320c0-176.73-143.27-320-320-320s-320 143.27-320 320 143.27 320 320 320 320-143.27 320-320" fill="#c84755"/><path d="m423.145 410h-75.559l-190.145 50.332c-5.336 1.414-8.519 6.891-7.109 12.227 1.09 4.117 4.57 6.953 8.574 7.386z" fill="#a43f4a"/><path d="m502.559 409.668-340 90c-5.34 1.41-10.813-1.77-12.227-7.109-1.41-5.34 1.77-10.813 7.109-12.227l340-90c5.34-1.41 10.813 1.77 12.227 7.109 1.41 5.34-1.77 10.813-7.109 12.227" fill="#e1e3cc"/><path d="m500 150h-360c-11.047 0-20 8.953-20 20v200-180c0-11.047 8.953-20 20-20h360c11.047 0 20 8.953 20 20v-20c0-11.047-8.953-20-20-20" fill="#a43f4a"/><path d="m520 190c0-11.047-8.953-20-20-20h-360c-11.047 0-20 8.953-20 20v200c0 11.047 8.953 20 20 20h360c11.047 0 20-8.953 20-20z" fill="#f3cc70"/><path d="m320 290c0-44.184-35.816-80-80-80s-80 35.816-80 80 35.816 80 80 80 80-35.816 80-80" fill="#495672"/><path d="m319.309 280c-4.93 39.453-38.52 70-79.309 70s-74.379-30.547-79.309-70c-.41 3.281-.691 6.605-.691 10 0 44.184 35.816 80 80 80s80-35.816 80-80c0-3.395-.281-6.719-.691-10" fill="#404a5f"/><path d="m365 200c-8.285 0-15 6.715-15 15s6.715 15 15 15 15-6.715 15-15-6.715-15-15-15" fill="#c7a85f"/><path d="m415 200c-8.285 0-15 6.715-15 15s6.715 15 15 15 15-6.715 15-15-6.715-15-15-15" fill="#c7a85f"/><path d="m465 200c-8.285 0-15 6.715-15 15s6.715 15 15 15 15-6.715 15-15-6.715-15-15-15" fill="#c7a85f"/><g fill="#495672"><path d="m380 225c0-8.285-6.715-15-15-15s-15 6.715-15 15 6.715 15 15 15 15-6.715 15-15"/><path d="m430 225c0-8.285-6.715-15-15-15s-15 6.715-15 15 6.715 15 15 15 15-6.715 15-15"/><path d="m480 225c0-8.285-6.715-15-15-15s-15 6.715-15 15 6.715 15 15 15 15-6.715 15-15"/></g><path d="m480 290c0-11.047-8.953-20-20-20h-90c-11.047 0-20 8.953-20 20v50c0 11.047 8.953 20 20 20h90c11.047 0 20-8.953 20-20z" fill="#fff"/><path d="m480 320c0 11.047-8.953 20-20 20h-90c-11.047 0-20-8.953-20-20v20c0 11.047 8.953 20 20 20h90c11.047 0 20-8.953 20-20z" fill="#d4d3d1"/></g></svg>