<svg height="85.333328" viewBox="0 0 85.333328 85.333328" width="85.333328" xmlns="http://www.w3.org/2000/svg"><g transform="matrix(.13333333 0 0 -.13333333 0 85.333331)"><path d="m640 320c0-176.73-143.27-320-320-320s-320 143.27-320 320 143.27 320 320 320 320-143.27 320-320" fill="#e1e3cc"/><path d="m152.387 146c-14.266 0-24.489 10.582-26.063 12.309-29.1013 39.714-46.324 88.683-46.324 141.691 0 132.547 107.453 240 240 240s240-107.453 240-240c0-52.977-17.203-101.922-46.277-141.621-8.078-9.121-16.551-12.172-24.274-12.172-15.547.004-28.027 12.371-28.027 12.371l-2.859 2.86c-1.836 1.835-4.477 4.476-7.708 7.707l-17.718 17.718-6.957 6.957c-7.02 7.02-14.367 14.371-21.328 21.328-2.368 2.368-4.692 4.692-6.942 6.942l-21.34 21.34c-19.164 19.164-16.57 56.57-16.57 56.57 0 22.094-17.906 40-40 40s-40-17.906-40-40c0-40.207-16.57-56.57-16.57-56.57l-28.282-28.282-28.285-28.285-28.285-28.285c-9.437-9.437-18.414-12.578-26.191-12.578" fill="#b7b7a7"/><path d="m178.578 178.578c-36.191 36.195-58.578 86.195-58.578 141.422 0 110.457 89.543 200 200 200s200-89.543 200-200c0-55.227-22.387-105.227-58.578-141.422 0 0 27.941-27.699 52.301-.199 29.074 39.699 46.277 88.641 46.277 141.621 0 132.547-107.453 240-240 240s-240-107.453-240-240c0-53.008 17.2227-101.977 46.324-141.691 2.434-2.672 25.508-26.477 52.254.269" fill="#c84755"/><path d="m320 520c-110.457 0-200-89.543-200-200 0-55.227 22.387-105.227 58.578-141.422l28.285 28.285c-28.957 28.953-46.863 68.953-46.863 113.137 0 88.363 71.637 160 160 160s160-71.637 160-160c0-44.184-17.906-84.184-46.863-113.137l17.718-17.718c3.231-3.231 5.872-5.872 7.708-7.707l2.859-2.86c36.191 36.195 58.578 86.195 58.578 141.422 0 110.457-89.543 200-200 200" fill="#e08e4c"/><path d="m320 480c-88.363 0-160-71.637-160-160 0-44.184 17.906-84.184 46.863-113.137l28.285 28.285c-21.718 21.715-35.148 51.715-35.148 84.852 0 66.273 53.727 120 120 120s120-53.727 120-120c0-33.137-13.43-63.137-35.148-84.852 6.961-6.957 14.308-14.308 21.328-21.328l6.957-6.957c28.957 28.953 46.863 68.953 46.863 113.137 0 88.363-71.637 160-160 160" fill="#f3cc70"/><path d="m320 440c-66.273 0-120-53.727-120-120 0-33.137 13.43-63.137 35.148-84.852l28.282 28.282c-14.477 14.476-23.43 34.48-23.43 56.57 0 44.184 35.816 80 80 80s80-35.816 80-80c0-22.09-8.953-42.094-23.43-56.57l21.34-21.34c2.25-2.25 4.574-4.574 6.942-6.942 21.718 21.715 35.148 51.715 35.148 84.852 0 66.273-53.727 120-120 120" fill="#77caa9"/><path d="m320 400c-44.184 0-80-35.816-80-80 0-22.09 8.953-42.094 23.43-56.57 0 0 16.57 16.363 16.57 56.57 0 22.094 17.906 40 40 40s40-17.906 40-40c0 0-2.594-37.406 16.57-56.57 14.477 14.476 23.43 34.48 23.43 56.57 0 44.184-35.816 80-80 80" fill="#495672"/></g></svg>