<svg height="85.333313" viewBox="0 0 85.333328 85.333313" width="85.333328" xmlns="http://www.w3.org/2000/svg"><g transform="matrix(.13333333 0 0 -.13333333 0 85.821331)"><path d="m640 323.66c0-176.73-143.27-319.99984-320-319.99984s-320 143.26984-320 319.99984c0 176.731 143.27 320 320 320s320-143.269 320-320" fill="#e1e3cc"/><g fill="#b7b7a7"><path d="m196.512 100c-7.832 0-16.481 2.695-24.317 6.992l-.965.485c-8.285 4.718-15.542 11.273-19.718 18.503l-55.6097 96.325c-5.6015 9.699-7.3984 23.59-5.3984 35.98.9492-5.863 2.7461-11.39 5.3984-15.98l55.6097-96.325c3.883-6.722 10.426-12.855 17.98-17.48.535-.363 1.113-.707 1.738-1.023 8.079-4.61 17.133-7.477 25.282-7.477h68.5l33.859 57.824 6.156-9.492-40.015-68.332zm35.492 150h-11.551l22.293 38.609c.938 1.621 1.703 3.289 2.305 4.989 2.816-7.977 2.258-17.086-2.305-24.989z"/><path d="m443.484 100-68.523.004h-.008c-16.496 0-29.863 13.32-29.976 29.793v.406l-.012 69.735v.125c0 .144 0 .289.004.433l.008-50.293v-.406c.113-16.473 13.48-29.793 29.976-29.797h.008 68.523c16.5 0 36.75 11.691 45 25.98l55.61 96.325c2.648 4.59 4.441 10.117 5.386 15.976.504-3.148.766-6.398.786-9.652.05-9.531-1.996-19.094-6.172-26.324l-55.61-96.325c-8.25-14.289-28.5-25.98-45-25.98m76.161 150h.246c-.106 0-.188 0-.246 0m-100.102 0h-11.547l-10.746 18.609 5.418 10.618 5.355-9.278zm100.379 0h.027c-.008 0-.015 0-.027 0m.109.004h.028c-.008 0-.02 0-.028 0m.153 0h.019c-.008 0-.015 0-.019 0m.046 0h.012c-.004 0-.008 0-.012 0m22.61 5.418c.012.008.023.016.031.019-.008-.003-.019-.011-.031-.019m.066.043c.004 0 .008.004.012.008-.004-.004-.008-.008-.012-.008m.028.015c.207.129.41.258.609.391-.199-.133-.402-.262-.609-.391m.609.391c.012.008.02.012.027.02 2.223 1.488 4.086 3.351 5.282 5.687-1.196-2.336-3.059-4.199-5.282-5.687-.007-.008-.015-.012-.027-.02"/><path d="m368.25 348.82c-10.363 0-20.445 5.379-26 15l-22.293 38.61-.004-.004-22.289-42.403h-73.398l-39.59 68.575 5.797 9.961 33.793-58.536h73.398l22.289 42.403.004.004 22.293-38.61c5.555-9.625 15.637-15 26-15 5.074 0 10.211 1.285 14.926 3.993l.105.062 60.383 34.879.356.207c6.351 3.723 10.835 9.434 13.113 15.883 4.73-13.313-.512-28.492-13.113-35.883l-.356-.207-60.383-34.879-.105-.059c-4.715-2.711-9.852-3.996-14.926-3.996"/></g><path d="m220.453 250-49.984-86.578s-7.653-12.902-6.926-23.777c.328-4.946 2.391-9.469 7.687-12.168 8.079-4.61 17.133-7.477 25.282-7.477h68.5l40.015 68.332-39.988 61.668z" fill="#495672"/><path d="m163.543 139.645c-.727 10.875 6.926 23.777 6.926 23.777l49.984 86.578 22.293 38.609c8.274 14.332 3.379 32.649-10.93 40.946l-.105.062-60.398 34.856-.356.203c-14.32 8.137-32.539 3.222-40.789-11.063l-.004-.008-34.2617-59.339c-8.25-14.289-8.25-37.672 0-51.961l55.6097-96.325c4.176-7.23 11.433-13.785 19.718-18.503-5.296 2.699-7.359 7.222-7.687 12.168" fill="#77caa9"/><path d="m172.195 126.992-.965.485c-.582.332-1.16.671-1.734 1.019-3.996 2.731-5.641 6.731-5.949 11.063 0 .027-.004.054-.004.086-.035.488-.051.98-.051 1.476-.004 10.391 6.793 21.988 6.973 22.293.004.004.004.008.004.008l49.984 86.578h23.039z" fill="#404a5f"/><path d="m171.23 127.477c-.621.316-1.199.656-1.734 1.019.574-.348 1.152-.687 1.734-1.019zm-7.683 12.082c0 .027-.004.054-.004.086 0-.032.004-.059.004-.086m-.055 1.562c-.004 10.391 6.793 21.988 6.973 22.293-.18-.305-6.977-11.902-6.973-22.293" fill="#62a48d"/><path d="m419.543 250h99.969s15.004-.176 24.058 5.891c4.114 2.757 7 6.8 6.696 12.742-.051 9.301-2.098 18.574-6.172 25.633l-34.25 59.808h-79.184l-33.41-65.465z" fill="#495672"/><path d="m543.57 255.891c-9.054-6.067-24.058-5.891-24.058-5.891h-99.969-44.586c-16.547 0-29.961-13.398-29.992-29.937v-.125l.012-69.735v-.406c.113-16.473 13.48-29.793 29.976-29.797h.008 68.523c16.5 0 36.75 11.691 45 25.98l55.61 96.325c4.176 7.23 6.222 16.793 6.172 26.328.304-5.942-2.582-9.985-6.696-12.742" fill="#77caa9"/><path d="m519.641 250c-.082 0-.129 0-.129 0h-99.969l-11.52 19.949 11.52-19.949h99.969z" fill="#97978c"/><path d="m519.641 250c-.082 0-.129 0-.129 0h-99.969l-11.52 19.949 142.176-.238.063-1.078c0-.004.004-.004.004-.008 0-.668-.004-1.336-.024-2-.363-4.859-3.039-8.301-6.672-10.734-8.562-5.735-22.441-5.891-23.929-5.891" fill="#404a5f"/><path d="m519.641 250c-.082 0-.129 0-.129 0h-99.969 99.969zm30.601 16.625c.02.664.024 1.332.024 2 .035-.691.027-1.359-.024-2" fill="#62a48d"/><path d="m319.957 422.43-49.984 86.578s-7.352 13.078-17.129 17.89c-4.446 2.184-9.395 2.665-14.383-.574-8.031-4.695-15.039-11.101-19.117-18.16l-34.668-59.566 39.59-68.575h73.398z" fill="#495672"/><path d="m252.844 526.898c9.777-4.812 17.129-17.89 17.129-17.89l49.984-86.578 22.293-38.61c8.273-14.332 26.582-19.246 40.926-11.007l.105.062 60.383 34.879.356.207c14.207 8.332 19.058 26.566 10.812 40.855l-.004.004-34.258 59.344c-8.25 14.289-28.5 25.981-45 25.981h-111.222c-8.356 0-17.657-3.008-25.887-7.821 4.988 3.239 9.937 2.758 14.383.574" fill="#77caa9"/><path d="m252.844 526.898c-.043.02-.086.04-.129.063.043-.023.086-.043.129-.063m-.133.063c-.043.019-.086.043-.125.062 0 0 0 0 0-.003.043-.02.082-.04.125-.059" fill="#b7b7a7"/><path d="m308.438 402.48-70.879 123.25.902.594c.008.004.016.008.019.012.567.332 1.141.652 1.715.969 1.934.929 3.848 1.34 5.727 1.34 2.297 0 4.535-.614 6.664-1.622.039-.019.082-.043.125-.062h.004c.043-.023.086-.043.129-.063 1.547-.761 3.035-1.73 4.441-2.824 7.481-5.801 12.688-15.066 12.688-15.066l40.07-69.403 9.914-17.175-.004-.004z" fill="#404a5f"/><path d="m319.957 422.43-9.914 17.175zm-62.672 101.644c-1.406 1.094-2.894 2.063-4.441 2.824-.043.02-.086.04-.129.063h-.004c-.043.019-.082.039-.125.059.086-.04.172-.082.258-.122 1.547-.761 3.035-1.73 4.441-2.824m-18.805 2.262c.575.371 1.145.691 1.715.969-.574-.317-1.148-.637-1.715-.969" fill="#62a48d"/></g></svg>