<svg height="85.333328" viewBox="0 0 85.333328 85.333328" width="85.333328" xmlns="http://www.w3.org/2000/svg"><g transform="matrix(.13333333 0 0 -.13333333 0 85.333331)"><path d="m640 320c0-176.73-143.27-320-320-320s-320 143.27-320 320 143.27 320 320 320 320-143.27 320-320" fill="#495672"/><path d="m453.332 90c-6.934 0-13.758 2.668-18.852 7.6641l-114.48 112.2769-114.48-112.2769c-5.094-4.9961-11.918-7.6641-18.852-7.6641-3.441 0-6.906.6523-10.215 1.9883-9.945 4.0547-16.453 13.6017-16.453 24.1637v313.848-293.848c0-10.562 6.508-20.109 16.453-24.164 3.309-1.336 6.774-1.988 10.215-1.988 6.934 0 13.758 2.668 18.852 7.664l114.48 112.277 114.48-112.277c5.094-4.996 11.918-7.664 18.852-7.664 3.441 0 6.906.652 10.188 1.988 9.972 4.055 16.48 13.602 16.48 24.164v-20c0-10.562-6.508-20.109-16.48-24.1637-3.282-1.336-6.747-1.9883-10.188-1.9883" fill="#404a5f"/><path d="m160 450v-313.848c0-10.562 6.508-20.109 16.453-24.164 3.309-1.336 6.774-1.988 10.215-1.988 6.934 0 13.758 2.668 18.852 7.664l114.48 112.277 114.48-112.277c5.094-4.996 11.918-7.664 18.852-7.664 3.441 0 6.906.652 10.188 1.988 9.972 4.055 16.48 13.602 16.48 24.164v313.848z" fill="#f3cc70"/><path d="m480 450h-320c0 11.039 11.945 20 26.668 20h266.664c14.723 0 26.668-8.961 26.668-20" fill="#404a5f"/><path d="m160 430h320v20h-320z" fill="#c7a85f"/><path d="m480 450v50c0 11.039-11.945 20-26.668 20h-266.664c-14.723 0-26.668-8.961-26.668-20v-50z" fill="#e08e4c"/></g></svg>