<svg height="85.333328" viewBox="0 0 85.333328 85.333328" width="85.333328" xmlns="http://www.w3.org/2000/svg"><g transform="matrix(.13333333 0 0 -.13333333 0 85.333331)"><path d="m640 320c0-176.73-143.27-320-320-320s-320 143.27-320 320 143.27 320 320 320 320-143.27 320-320" fill="#e1e3cc"/><path d="m180 140c-11.047 0-20 8.953-20 20v60-40c0-11.047 8.953-20 20-20s20 8.953 20 20v-20c0-11.047-8.953-20-20-20" fill="#b7b7a7"/><path d="m460 140c-11.047 0-20 8.953-20 20v60-40c0-11.047 8.953-20 20-20s20 8.953 20 20v-20c0-11.047-8.953-20-20-20" fill="#b7b7a7"/><path d="m200 180c0-11.047-8.953-20-20-20s-20 8.953-20 20v80c0 11.047 8.953 20 20 20s20-8.953 20-20z" fill="#e08e4c"/><path d="m480 180c0-11.047-8.953-20-20-20s-20 8.953-20 20v80c0 11.047 8.953 20 20 20s20-8.953 20-20z" fill="#e08e4c"/><path d="m520 220h-40v40c0 11.047-8.953 20-20 20s-20-8.953-20-20v-20-20h-100-140v40c0 11.047-8.953 20-20 20s-20-8.953-20-20v-20-20h-40c-13.109 0-24.6367 6.395-31.9336 16.137-5 6.676-8.0664 14.879-8.0664 23.863v120c0 22.094 17.9102 40 40 40h60 120 140 80c13.109 0 24.637-6.395 31.934-16.137 5-6.675 8.066-14.879 8.066-23.863v-120c0-22.09-17.906-40-40-40" fill="#b7b7a7"/><path d="m200 220h-40v40c0 11.047 8.953 20 20 20s20-8.953 20-20z" fill="#b77744"/><path d="m480 220h-40v40c0 11.047 8.953 20 20 20s20-8.953 20-20z" fill="#b77744"/><path d="m120 440c-22.0898 0-40-17.906-40-40v-120c0-8.984 3.0664-17.187 8.0664-23.863l91.9336 183.863z" fill="#495672"/><path d="m300 440-100-200h140l100 200z" fill="#495672"/><path d="m180 440-91.9336-183.863c7.2969-9.742 18.8246-16.137 31.9336-16.137h80l100 200z" fill="#f3cc70"/><path d="m460 240h60c22.094 0 40 17.91 40 40v120c0 8.984-3.066 17.188-8.066 23.863z" fill="#495672"/><path d="m520 440h-80l-100-200h120l91.934 183.863c-7.297 9.742-18.825 16.137-31.934 16.137" fill="#f3cc70"/></g></svg>