<svg height="85.333328" viewBox="0 0 85.333328 85.333328" width="85.333328" xmlns="http://www.w3.org/2000/svg"><g transform="matrix(.13333333 0 0 -.13333333 0 85.333331)"><path d="m640 320c0-176.73-143.27-320-320-320s-320 143.27-320 320 143.27 320 320 320 320-143.27 320-320" fill="#495672"/><path d="m267.957 103.047c-9.309 0-12.324 6.617-7.863 14.726 0 0 .933 2.27 2.586 6.204 1.437-.602 3.199-.93 5.277-.93 4.559-.004 10.629 1.586 18.066 5.359l81.317 44.356c37.945 21.09 49.379 28.687 51.387 62.558l.316-2.277c.574-49.57-7.895-55.934-51.703-80.281l-81.317-44.356c-7.437-3.773-13.507-5.363-18.066-5.359" fill="#404a5f"/><path d="m138.441 230.52c-7.023 0-10.707 7.781-5.179 21.984 1.336-1.309 3.113-1.984 5.179-1.984 2.055 0 4.395.668 6.875 2.031 0 0 53.813 22.195 91.442 40.855-.192-2.414-.352-4.777-.477-7.09-1.222-1.496-2.429-3-3.629-4.515-6.519-4.66-13.277-10.336-20.187-17.246-1.606-1.606-3.192-3.239-4.766-4.903-31.39-14.316-62.383-27.101-62.383-27.101-2.48-1.363-4.82-2.031-6.875-2.031" fill="#404a5f"/><path d="m320.961 263.176c-15.555-15.555-60.867-125.403-60.867-125.403-6.649-12.082 3.301-20.851 25.929-9.367l81.317 44.356c43.808 24.347 52.277 30.707 51.703 80.281l-8.152 58.531c-2.793 20.051-17.805 23.727-33.36 8.172z" fill="#c84755"/><path d="m270.719 313.418c-15.555-15.555-125.403-60.867-125.403-60.867-12.082-6.649-20.851 3.301-9.367 25.929l44.356 81.317c24.347 43.808 30.711 52.277 80.281 51.703l58.531-8.152c20.051-2.789 23.727-17.805 8.172-33.36z" fill="#c84755"/><path d="m133.992 104.52c-1.312 0-2.234.234-2.722.722-1.665 1.66-.25 8.789 3.691 19.317 17.789 1.293 89.617 35.879 135.621 81.879 1.133 1.132 2.231 2.261 3.301 3.386.797-.008 1.605-.011 2.426-.011 4.379 0 9.05.097 13.957.332-5.078-7.594-11.524-15.547-19.684-23.707-46.887-46.887-120.609-81.918-136.59-81.918" fill="#404a5f"/><path d="m212.465 264.555c50.742 50.742 93.371 35.254 93.371 35.254s15.488-42.629-35.254-93.371c-50.742-50.743-132.91-87.594-139.312-81.196-6.204 6.203 30.453 88.567 81.195 139.313" fill="#e08e4c"/><path d="m254.891 306.98c50.742 50.743 93.371 35.254 93.371 35.254s15.488-42.629-35.254-93.371-132.91-87.593-139.313-81.195c-6.203 6.203 30.453 88.57 81.196 139.312" fill="#f3cc70"/><path d="m290.266 210.145c4.863 7.285 8.464 14.242 11.105 20.75.145.011.281.023.43.035-3.246-6.496-6.613-13.524-9.961-20.703-.531-.028-1.051-.055-1.574-.082m128.66 43.738-2.52 18.086c6.864 5.125 13.543 10.855 19.934 17.25 53.484 53.484 74.015 126.051 76.812 171.324 3.09-40.77-14.492-129.004-76.812-191.324-5.61-5.61-11.434-10.707-17.414-15.336" fill="#404a5f"/><path d="m291.84 210.227c3.348 7.179 6.715 14.207 9.961 20.703 34.344 3.039 77.293 13.164 114.605 41.039l2.52-18.086c-41.567-32.172-90.633-41.711-127.086-43.656" fill="#a43f4a"/><path d="m276.309 209.813c-.821 0-1.629.003-2.426.011 5.426 5.711 10.023 11.317 13.914 16.75 1.531 1.215 3.055 2.442 4.566 3.68 2.922.16 5.934.375 9.008.641-2.641-6.508-6.242-13.465-11.105-20.75-4.907-.235-9.578-.332-13.957-.332" fill="#394051"/><path d="m273.883 209.824c-3.07.024-5.981.098-8.723.203 7.641 5.176 15.262 10.715 22.637 16.547-3.891-5.433-8.488-11.039-13.914-16.75" fill="#b77744"/><path d="m265.16 210.027c-1.148.043-2.265.094-3.351.149l25.511 19.844c1.653.062 3.336.14 5.043.234-1.511-1.238-3.035-2.465-4.566-3.68-7.375-5.832-14.996-11.371-22.637-16.547m-28.957 25.754c-.351 6.985-.508 15.278-.191 24.516.343-9.961 1.136-17.758 1.738-22.527z" fill="#c7a85f"/><path d="m436.34 289.219c-78.106-78.106-197.824-56.731-197.824-56.731s-21.375 119.719 56.73 197.825c78.106 78.105 196.43 86.414 211.969 70.875 15.066-15.067 7.23-133.864-70.875-211.969" fill="#e1e3cc"/><path d="m195.719 159.594c-2.11 0-4.301.996-6.703 3.394-2.047 2.051-3.075 3.946-3.328 5.77 13.238 3.957 35.609 14.191 59.742 28.68l-35.2-27.379c-5.41-5.411-9.757-10.465-14.511-10.465" fill="#b77744"/><path d="m185.688 168.758c-.719 5.129 4.64 9.683 10.402 15.445l40.113 51.578c.735-14.449 2.313-23.293 2.313-23.293s8.839-1.582 23.293-2.312l-16.379-12.738c-24.133-14.489-46.504-24.723-59.742-28.68" fill="#c7a85f"/><path d="m261.809 210.176c-14.454.73-23.293 2.312-23.293 2.312s-1.578 8.844-2.313 23.293l1.547 1.989c.434-3.418.766-5.282.766-5.282s14.968-2.675 37.793-2.675c3.496 0 7.175.062 11.011.207z" fill="#a48c53"/><path d="m276.309 229.813c-22.825 0-37.793 2.675-37.793 2.675s-.332 1.864-.766 5.282l57.332 73.71c5.41 5.411 23.328 10.469 36.426 10.469 5.812 0 10.672-.996 13.07-3.398 7.813-7.809.742-41.688-7.066-49.496l-50.192-39.035c-3.836-.145-7.515-.207-11.011-.207" fill="#b7b7a7"/><path d="m210.23 190.059c-7.808-7.809-13.402-14.879-21.214-7.071-7.809 7.813-.739 13.403 7.074 21.215l98.992 127.277c7.813 7.813 41.688 14.883 49.5 7.071 7.809-7.809.738-41.688-7.07-49.496z" fill="#c84755"/><path d="m396.043 328.5c-10.234 0-20.473 3.906-28.281 11.719-15.621 15.621-15.621 40.945 0 56.566 7.808 7.813 18.047 11.719 28.281 11.719 10.238 0 20.477-3.906 28.285-11.719 15.621-15.621 15.621-40.945 0-56.566-7.808-7.813-18.047-11.719-28.285-11.719" fill="#b7b7a7"/><path d="m452.613 405.07c-5.121 0-10.238 1.953-14.14 5.86-7.813 7.808-7.813 20.472 0 28.285 3.902 3.902 9.019 5.855 14.14 5.855 5.117 0 10.239-1.953 14.141-5.855 7.812-7.813 7.812-20.477 0-28.285-3.902-3.907-9.024-5.86-14.141-5.86" fill="#b7b7a7"/><g fill="#495672"><path d="m424.328 360.219c-15.621-15.621-40.945-15.621-56.566 0s-15.621 40.945 0 56.566 40.945 15.621 56.566 0 15.621-40.945 0-56.566"/><path d="m466.754 430.93c-7.809-7.813-20.473-7.813-28.281 0-7.813 7.808-7.813 20.472 0 28.285 7.808 7.808 20.472 7.808 28.281 0 7.812-7.813 7.812-20.477 0-28.285"/></g></g></svg>