<svg height="85.333328" viewBox="0 0 85.333328 85.333328" width="85.333328" xmlns="http://www.w3.org/2000/svg"><g transform="matrix(.13333333 0 0 -.13333333 0 85.333331)"><path d="m640 320c0-176.73-143.27-320-320-320s-320 143.27-320 320 143.27 320 320 320 320-143.27 320-320" fill="#c84755"/><path d="m500 159.996h-320c-22.09 0-40 17.91-40 40v240c0 15.152 8.559 29 22.109 35.777 5.661 2.832 11.789 4.227 17.887 4.227 8.5 0 16.949-2.707 24.004-8l320-240c13.773-10.332 19.395-28.316 13.949-44.652-5.445-16.336-20.73-27.352-37.949-27.352m-280 200v-120h160z" fill="#a43f4a"/><path d="m220 259.996h160l-160 120zm280-80h-320c-22.09 0-40 17.91-40 40v240c0 15.152 8.559 29 22.109 35.777 13.555 6.782 29.778 5.313 41.891-3.773l320-240c13.773-10.332 19.395-28.316 13.949-44.652-5.445-16.336-20.73-27.352-37.949-27.352" fill="#f3cc70"/><g fill="#e08e4c"><path d="m210 230c-5.523 0-10-4.477-10-10v-40h20v40c0 5.523-4.477 10-10 10"/><path d="m260 210c-5.523 0-10-4.477-10-10v-20h20v20c0 5.523-4.477 10-10 10"/><path d="m310 230c-5.523 0-10-4.477-10-10v-40h20v40c0 5.523-4.477 10-10 10"/><path d="m360 210c-5.523 0-10-4.477-10-10v-20h20v20c0 5.523-4.477 10-10 10"/><path d="m410 230c-5.523 0-10-4.477-10-10v-40h20v40c0 5.523-4.477 10-10 10"/><path d="m470 200c0 5.523-4.477 10-10 10s-10-4.477-10-10v-20h20z"/></g></g></svg>