<svg height="85.333328" viewBox="0 0 85.333328 85.333328" width="85.333328" xmlns="http://www.w3.org/2000/svg"><g transform="matrix(.13333333 0 0 -.13333333 0 85.333331)"><path d="m640 320c0-176.73-143.27-320-320-320s-320 143.27-320 320 143.27 320 320 320 320-143.27 320-320" fill="#7db6d8"/><g fill="#6594b2"><path d="m240.828 115c-66.473 0-107.586 42.965-121.805 60.836h400.274c-8.867-11.488-33.106-33.922-90.266-40.93-1.004-.199-102.246-19.906-188.203-19.906"/><path d="m240.828 105c-89.187 0-134.031 70.199-135.894 73.188-.969 1.539-1.02 3.484-.137 5.074.879 1.586 2.555 2.574 4.375 2.574h419.156c1.672 0 3.227-.832 4.152-2.215.926-1.379 1.106-3.133.481-4.676-.727-1.777-18.731-43.668-102.356-53.906-.664-.144-102.851-20.039-189.777-20.039m-121.805 70.836c14.219-17.871 55.332-60.836 121.805-60.836 85.957 0 187.199 19.707 188.203 19.906 57.16 7.008 81.399 29.442 90.266 40.93z"/><path d="m490 215h-350c-2.434 0-4.504 1.742-4.922 4.137-.422 2.386.938 4.734 3.211 5.566 89.055 32.305 146.328 234.598 146.899 236.641.609 2.207 2.671 3.644 4.902 3.644.191 0 .387-.011.586-.031 2.476-.344 4.324-2.457 4.324-4.957v-212.191c17.773 53.554 48.305 179.449-19.004 269.195-1.223 1.633-1.328 3.855-.266 5.601.911 1.5 2.52 2.403 4.235 2.403.293 0 .59-.028.887-.082 2.136-.363 214.148-39.965 214.148-304.926 0-2.766-2.234-5-5-5"/></g><path d="m430 150s-101.723-20-189.168-20c-87.441 0-131.664 70.836-131.664 70.836h419.164s-16.664-40.836-98.332-50.836" fill="#fff"/><path d="m430 150-.965 4.906c-.015-.004-6.285-1.234-17.144-3.101-32.555-5.606-106.024-16.813-171.059-16.805-42.328.008-74.098 17.102-95.488 34.313-10.676 8.597-18.715 17.214-24.055 23.648-2.668 3.215-4.664 5.887-5.98 7.73-.657.922-1.145 1.641-1.461 2.118l-.348.531-.094.144-4.238-2.648v-5h419.164v5l-4.629 1.887.047-.016-.047.02v-.004l.047-.016-.047.02c-.262-.586-4.547-10.082-18.336-20.672-13.793-10.578-37.16-22.328-75.976-27.09l-.356-.059.965-4.906.609-4.961c41.598 5.082 67.157 18.137 82.297 30.219 15.153 12.07 19.809 23.066 20.059 23.687.629 1.547.453 3.289-.481 4.676-.933 1.391-2.48 2.215-4.152 2.215h-419.164c-1.82 0-3.492-.984-4.375-2.578-.883-1.59-.832-3.528.133-5.07.199-.313 11.535-18.442 34.148-36.665 22.578-18.207 56.645-36.531 101.758-36.523 88.148.016 189.969 20.074 190.133 20.094l-.965 4.906.609-4.961z" fill="#fff"/><path d="m290 480s-57.5-206.441-150-240h150z" fill="#f3cc70"/><path d="m290 480-4.816 1.344c-.004-.012-.875-3.149-2.614-8.813-6.082-19.816-22.629-70.031-47.593-118.695-12.477-24.328-27.063-48.258-43.372-67.758-16.3-19.519-34.3-34.504-53.308-41.379-2.285-.828-3.641-3.172-3.223-5.562.422-2.395 2.496-4.137 4.926-4.137h150c1.336 0 2.59.52 3.535 1.465s1.465 2.199 1.465 3.535v240c0 2.504-1.84 4.613-4.324 4.953-2.481.34-4.821-1.195-5.492-3.609l4.816-1.344h-5v-235h-145v-5l1.703-4.699c24.527 8.937 45.992 28.844 64.731 53.32 56.043 73.461 88.254 189.77 88.382 190.035l-4.816 1.344h-5z" fill="#f3cc70"/><path d="m290 240s80 180-10 300c0 0 210-36.187 210-300z" fill="#c84755"/><path d="m290 240 4.57-2.031c.121.347 33.157 74.488 33.196 160.301.004 48.25-10.52 100.394-43.766 144.73l-4-3-.848-4.926.504-.094c5.664-1.078 57.231-11.992 107.047-53.914 49.789-41.968 98.223-114.578 98.297-241.066h5v5h-200v-5l4.57-2.031-4.57 2.031v-5h200c1.336 0 2.59.52 3.535 1.465s1.465 2.199 1.465 3.535c.082 133.25-53.324 210.078-106.875 252.836-53.523 42.809-106.789 51.992-107.277 52.094-2.024.347-4.043-.571-5.114-2.321-1.07-1.75-.964-3.964.266-5.609 31.555-42.059 41.766-91.867 41.77-138.73.003-41.625-8.09-80.786-16.2-109.477-4.05-14.348-8.105-26.078-11.136-34.203-1.512-4.063-2.774-7.223-3.653-9.356-.875-2.136-1.351-3.199-1.351-3.203-.684-1.543-.543-3.34.379-4.758.918-1.414 2.504-2.273 4.191-2.273z" fill="#c84755"/></g></svg>