<svg height="85.333328" viewBox="0 0 85.333328 85.333328" width="85.333328" xmlns="http://www.w3.org/2000/svg"><g transform="matrix(.13333333 0 0 -.13333333 0 85.333331)"><path d="m640 320c0-176.73-143.27-320-320-320s-320 143.27-320 320 143.27 320 320 320 320-143.27 320-320" fill="#495672"/><path d="m480 410c0-11.047-8.953-20-20-20s-20 8.953-20 20 8.953 20 20 20 20-8.953 20-20" fill="#c84755"/><path d="m580 310c0-11.047-8.953-20-20-20s-20 8.953-20 20 8.953 20 20 20 20-8.953 20-20" fill="#c84755"/><path d="m460 250c0-22.09 0-40 0-40h-320c-22.09 0-40 17.91-40 40v150c0 22.09 17.91 40 40 40h300c22.09 0 20-17.91 20-40z" fill="#f3cc70"/><path d="m559.973 250s2.5-40-40-40h-80v40 50 40h90.027c20 0 29.973-7.863 29.973-29.953z" fill="#f3cc70"/><g fill="#e08e4c"><path d="m150 400h180v-60h-180z"/><path d="m370 400h50v-60h-50z"/><path d="m140 400h50v-60h-50z"/></g><path d="m230 210c0-22.09-17.91-40-40-40s-40 17.91-40 40 17.91 40 40 40 40-17.91 40-40" fill="#e1e3cc"/><path d="m230 210h-10c-.031-16.562-13.437-29.969-30-30-16.566.031-29.969 13.438-30 30 .031 16.566 13.434 29.973 30 30 16.563-.027 29.969-13.434 30-30h10 10c-.008 27.617-22.383 49.992-50 50-27.617-.008-49.992-22.383-50-50 .008-27.617 22.383-49.992 50-50 27.617.008 49.992 22.383 50 50z" fill="#495672"/><path d="m510 210c0-22.09-17.91-40-40-40s-40 17.91-40 40 17.91 40 40 40 40-17.91 40-40" fill="#e1e3cc"/><path d="m510 210h-10c-.031-16.562-13.437-29.969-30-30-16.566.031-29.969 13.438-30 30 .031 16.566 13.434 29.973 30 30 16.563-.027 29.969-13.434 30-30h10 10c-.008 27.617-22.383 49.992-50 50-27.617-.008-49.992-22.383-50-50 .008-27.617 22.383-49.992 50-50 27.617.008 49.992 22.383 50 50z" fill="#495672"/></g></svg>