<svg height="85.333328" viewBox="0 0 85.333328 85.333328" width="85.333328" xmlns="http://www.w3.org/2000/svg"><g transform="matrix(.13333333 0 0 -.13333333 0 85.333331)"><path d="m640 320c0-176.73-143.27-320-320-320s-320 143.27-320 320 143.27 320 320 320 320-143.27 320-320" fill="#c84755"/><path d="m440 100c-33.844 0-62.715 21.051-74.402 50.742-5.59 12.004-10.352 27.711-10.352 46.672 0 16.797-14.34 32.719-35.246 50.789 3.629 3.137 7.461 6.344 11.449 9.629 14.512-13.953 23.797-26.902 23.797-40.418 0-18.961 4.762-34.668 10.352-46.672 11.687-29.691 40.558-50.742 74.402-50.742 40.797 0 74.461 30.539 79.383 70 .406-3.277.617-6.613.617-10 0-44.184-35.816-80-80-80m38.734 90c-4.453 17.234-20.129 30-38.734 30s-34.281-12.766-38.734-30c-.828 3.195-1.266 6.547-1.266 10 0 22.055 17.945 40 40 40s40-17.945 40-40c0-3.453-.437-6.805-1.266-10m-201.617 93.582c-54.355 45.477-117.117 108.344-117.117 216.418l.805-.855c7.98-102.157 73.949-160.989 126.863-204.282l-5.801-6.183s-1.441-2.071-4.75-5.098" fill="#a43f4a"/><path d="m440 160c-22.055 0-40 17.945-40 40s17.945 40 40 40 40-17.945 40-40-17.945-40-40-40m0 120c-61.875 0-81.867 28.68-81.867 28.68l-198.133 211.32c0-190.625 195.246-240.598 195.246-302.586 0-18.961 4.762-34.668 10.352-46.672 11.687-29.691 40.558-50.742 74.402-50.742 44.184 0 80 35.816 80 80s-35.816 80-80 80" fill="#e1e3cc"/><path d="m200 100c-44.184 0-80 35.816-80 80s35.816 80 80 80c45.254 0 68.105 15.34 77.117 23.582 15.535-12.996 30.383-24.57 42.883-35.379-20.906-18.07-35.246-33.992-35.246-50.789 0-18.961-4.762-34.668-10.352-46.672-11.687-29.691-40.558-50.742-74.402-50.742m0 120c-22.055 0-40-17.945-40-40s17.945-40 40-40 40 17.945 40 40-17.945 40-40 40m175.629 74.473c-12.559 7.125-17.496 14.207-17.496 14.207l-28.758 30.668 150.625 160.652c0-99.711-53.418-160.934-104.371-205.527" fill="#a43f4a"/><path d="m320 248.203c-12.5 10.809-27.348 22.383-42.883 35.379 3.309 3.027 4.75 5.098 4.75 5.098l5.801 6.183c16.617-13.593 31.934-25.644 43.781-37.031-3.988-3.285-7.82-6.492-11.449-9.629" fill="#883840"/><path d="m331.449 257.832c-11.847 11.387-27.164 23.438-43.781 37.031l41.707 44.485 28.758-30.668s4.937-7.082 17.496-14.207c-15.477-13.547-30.727-25.555-44.18-36.641" fill="#b7b7a7"/><path d="m200 160c-22.055 0-40 17.945-40 40s17.945 40 40 40 40-17.945 40-40-17.945-40-40-40zm81.867 148.68s-19.992-28.68-81.867-28.68c-44.184 0-80-35.816-80-80s35.816-80 80-80c33.844 0 62.715 21.051 74.402 50.742 5.59 12.004 10.352 27.711 10.352 46.672 0 61.988 195.246 111.961 195.246 302.586z" fill="#e1e3cc"/><path d="m335 310c0-8.285-6.715-15-15-15s-15 6.715-15 15 6.715 15 15 15 15-6.715 15-15" fill="#495672"/></g></svg>