<svg height="85.333328" viewBox="0 0 85.333328 85.333328" width="85.333328" xmlns="http://www.w3.org/2000/svg"><g transform="matrix(.13333333 0 0 -.13333333 0 85.333331)"><path d="m640 320c0-176.73-143.27-320-320-320s-320 143.27-320 320 143.27 320 320 320 320-143.27 320-320" fill="#c84755"/><path d="m320 80s-180 68.105-180 214.953v136.215s58.105 68.832 180 68.832z" fill="#a43f4a"/><path d="m320 80v420c121.895 0 180-68.832 180-68.832v-136.215c0-146.848-180-214.953-180-214.953" fill="#a43f4a"/><path d="m320 100s-180 68.105-180 214.953v136.215s58.105 68.832 180 68.832z" fill="#f3cc70"/><path d="m320 100s180 68.105 180 214.953v136.215s-58.105 68.832-180 68.832z" fill="#e08e4c"/></g></svg>