<svg height="85.333328" viewBox="0 0 85.333328 85.333328" width="85.333328" xmlns="http://www.w3.org/2000/svg"><g transform="matrix(.13333333 0 0 -.13333333 0 85.333331)"><path d="m640 320c0-176.73-143.27-320-320-320s-320 143.27-320 320 143.27 320 320 320 320-143.27 320-320" fill="#7db6d8"/><g fill="#6594b2"><path d="m320 80c-121.309 0-220 98.691-220 220 0 25.637 4.375 50.758 12.996 74.656 2.938 8.149 10.625 13.227 18.813 13.227 2.254 0 4.546-.387 6.789-1.199 10.39-3.75 15.777-15.207 12.027-25.598-7.051-19.543-10.625-40.09-10.625-61.086 0-99.254 80.746-180 180-180s180 80.746 180 180c0 80.395-53.992 151.676-131.305 173.34-10.636 2.976-16.84 14.019-13.859 24.652 2.469 8.828 10.5 14.621 19.223 14.621 1.793 0 3.617-.246 5.429-.758 94.504-26.484 160.512-113.601 160.512-211.855 0-121.309-98.691-220-220-220"/><path d="m280 450c-22.09 0-40 17.91-40 40s17.91 40 40 40 40-17.91 40-40-17.91-40-40-40"/><path d="m320 260c-10.238 0-20.473 3.906-28.285 11.715-18.957 18.961-148.676 187.328-148.676 187.328-3.367 5.309-2.574 12.402 1.945 16.922 2.629 2.66 6.125 4.035 9.657 4.035 2.5 0 5.019-.687 7.265-2.094 0 0 158.047-121.293 186.379-149.621 15.621-15.621 15.621-40.949 0-56.57-7.812-7.809-18.047-11.715-28.285-11.715"/></g><path d="m320 100c-121.309 0-220 98.691-220 220 0 25.637 4.375 50.758 12.996 74.656 3.746 10.395 15.223 15.793 25.602 12.028 10.39-3.75 15.777-15.207 12.027-25.598-7.051-19.543-10.625-40.09-10.625-61.086 0-99.254 80.746-180 180-180s180 80.746 180 180c0 80.395-53.992 151.676-131.305 173.34-10.636 2.976-16.84 14.019-13.859 24.652 2.977 10.645 14.035 16.875 24.652 13.863 94.504-26.484 160.512-113.601 160.512-211.855 0-121.309-98.691-220-220-220" fill="#495672"/><path d="m320 510c0-22.09-17.91-40-40-40s-40 17.91-40 40 17.91 40 40 40 40-17.91 40-40" fill="#495672"/><path d="m348.285 348.285c-28.332 28.328-186.379 149.621-186.379 149.621-5.422 3.395-12.433 2.602-16.922-1.941-4.519-4.52-5.312-11.613-1.945-16.922 0 0 129.719-168.367 148.676-187.328 15.621-15.621 40.949-15.621 56.57 0s15.621 40.949 0 56.57" fill="#495672"/></g></svg>