<svg height="85.333328" viewBox="0 0 85.333328 85.333328" width="85.333328" xmlns="http://www.w3.org/2000/svg"><g transform="matrix(.13333333 0 0 -.13333333 0 85.333331)"><path d="m640 320c0-176.73-143.27-320-320-320s-320 143.27-320 320 143.27 320 320 320 320-143.27 320-320" fill="#77caa9"/><g fill="#495672"><path d="m320 120c-11.047 0-20 8.953-20 20v320c0 11.047 8.953 20 20 20s20-8.953 20-20v-320c0-11.047-8.953-20-20-20"/><path d="m460 120c-11.047 0-20 8.953-20 20v320c0 11.047 8.953 20 20 20s20-8.953 20-20v-320c0-11.047-8.953-20-20-20"/><path d="m180 120c-11.047 0-20 8.953-20 20v320c0 11.047 8.953 20 20 20s20-8.953 20-20v-320c0-11.047-8.953-20-20-20"/></g><path d="m440 224.602c-12.699 6.707-21.352 20.043-21.352 35.398 0 15.359 8.653 28.691 21.352 35.398zm40 1.57v67.656c11.207-7.086 18.648-19.59 18.648-33.828s-7.441-26.742-18.648-33.828" fill="#62a48d"/><path d="m458.648 220c-6.734 0-13.082 1.664-18.648 4.602v70.796c5.566 2.938 11.914 4.602 18.648 4.602 7.852 0 15.172-2.262 21.352-6.172v-67.656c-6.18-3.91-13.5-6.172-21.352-6.172" fill="#404a5f"/><path d="m300 335.352c-11.957 6.914-20 19.843-20 34.648s8.043 27.734 20 34.648zm40 0v69.296c11.957-6.914 20-19.843 20-34.648s-8.043-27.734-20-34.648" fill="#62a48d"/><path d="m320 330c-7.285 0-14.117 1.949-20 5.352v69.296c5.883 3.403 12.715 5.352 20 5.352s14.117-1.949 20-5.352v-69.296c-5.883-3.403-12.715-5.352-20-5.352" fill="#404a5f"/><path d="m160 165.352c-11.957 6.914-20 19.843-20 34.648s8.043 27.734 20 34.648zm40 0v69.296c11.957-6.914 20-19.843 20-34.648s-8.043-27.734-20-34.648" fill="#62a48d"/><path d="m180 160c-7.285 0-14.117 1.949-20 5.352v69.296c5.883 3.403 12.715 5.352 20 5.352s14.117-1.949 20-5.352v-69.296c-5.883-3.403-12.715-5.352-20-5.352" fill="#404a5f"/><path d="m498.648 280c0-22.09-17.91-40-40-40-22.093 0-40 17.91-40 40s17.907 40 40 40c22.09 0 40-17.91 40-40" fill="#fff"/><path d="m360 390c0-22.09-17.91-40-40-40s-40 17.91-40 40 17.91 40 40 40 40-17.91 40-40" fill="#fff"/><path d="m220 220c0-22.09-17.91-40-40-40s-40 17.91-40 40 17.91 40 40 40 40-17.91 40-40" fill="#fff"/></g></svg>