<svg height="85.333328" viewBox="0 0 85.333328 85.333328" width="85.333328" xmlns="http://www.w3.org/2000/svg"><g transform="matrix(.13333333 0 0 -.13333333 0 85.333331)"><path d="m640 320c0-176.73-143.27-320-320-320s-320 143.27-320 320 143.27 320 320 320 320-143.27 320-320" fill="#495672"/><g fill="#404a5f"><path d="m320 40c-11.047 0-20 8.9531-20 20v40.988-20.9841c0-11.0469 8.953-20 20-20s20 8.9531 20 20v-20.0039c0-11.0469-8.953-20-20-20"/><path d="m560 280h-40.988c.652 6.578.988 13.25.988 20l40 .004c7.402 0 13.863 4.019 17.324 9.996 1.699-2.941 2.676-6.355 2.676-10 0-11.047-8.953-20-20-20m-85.062 0h-56.946c1.317 6.465 2.008 13.152 2.008 20l58.758.004c-.856-6.813-2.137-13.484-3.82-20.004m-252.93 0h-56.945c-1.684 6.52-2.965 13.191-3.821 20.004h58.758c0-.004 0-.004 0-.004 0-6.848.691-13.535 2.008-20m-101.02 0h-40.988c-11.043 0-20 8.953-20 20 0 3.645.9727 7.059 2.6758 10 3.4609-5.977 9.9219-9.996 17.3242-9.996h40c0-.004 0-.004 0-.004 0-6.75.336-13.422.988-20m258.047 9.254-4.883 4.879c.911 1.902 1.727 3.863 2.434 5.871h3.414c0-.004 0-.004 0-.004 0-3.668-.332-7.262-.965-10.746m-118.07 0c-.633 3.484-.965 7.078-.965 10.746l3.414.004c.707-2.008 1.524-3.969 2.434-5.871z"/><path d="m489.707 110.293c-5.117 0-10.238 1.953-14.141 5.859l-28.992 28.993c3.66 2.992 7.211 6.113 10.645 9.351l18.344-18.34c3.906-3.906 9.023-5.859 14.14-5.859 5.121 0 10.238 1.953 14.145 5.859 1.265 1.266 2.328 2.66 3.183 4.141 4.422-7.649 3.364-17.602-3.183-24.145-3.903-3.906-9.024-5.859-14.141-5.859m-83.348 75.066-31.238 31.239c3.973 2.632 7.746 5.547 11.297 8.703l31.645-31.645c-3.77-2.933-7.676-5.703-11.704-8.297m-60.504 60.5-5.855 5.86v11.695c2.008.711 3.969 1.524 5.871 2.434l12.195-12.196c-3.722-3.062-7.82-5.683-12.211-7.793m-109.257 109.262-42.942 42.942c2.907 3.742 5.973 7.339 9.196 10.804l42.449-42.449c-3.156-3.551-6.071-7.324-8.703-11.297m-80.094 80.098-20.352 20.347c-6.547 6.543-7.605 16.493-3.183 24.141.855-1.48 1.918-2.875 3.183-4.141l28.993-28.992c-3.016-3.679-5.891-7.461-8.641-11.355"/><path d="m150.293 110.293c-5.117 0-10.238 1.953-14.141 5.859-6.547 6.543-7.605 16.496-3.183 24.145.855-1.481 1.918-2.875 3.183-4.141 3.907-3.906 9.024-5.859 14.141-5.859 5.121 0 10.238 1.953 14.145 5.859l18.343 18.34c3.434-3.238 6.985-6.359 10.645-9.351l-28.992-28.993c-3.903-3.906-9.024-5.859-14.141-5.859m83.348 75.066c-4.028 2.594-7.934 5.364-11.703 8.297l31.644 31.645c3.551-3.156 7.324-6.071 11.297-8.703zm60.504 60.504c-4.391 2.106-8.489 4.727-12.211 7.789l12.195 12.196c1.902-.91 3.863-1.723 5.871-2.434v-11.695zm109.257 109.258c-2.632 3.973-5.547 7.746-8.703 11.297l42.449 42.449c3.223-3.465 6.29-7.062 9.196-10.804zm80.094 80.098c-2.75 3.894-5.625 7.676-8.641 11.355l28.993 28.992c1.265 1.266 2.328 2.661 3.183 4.145 4.422-7.648 3.364-17.602-3.183-24.145z"/></g><path d="m300 560.004v-480.0001c0-11.0469 8.953-20 20-20s20 8.9531 20 20v480.0001c0 11.043-8.953 20-20 20s-20-8.957-20-20" fill="#e08e4c"/><path d="m560 340.004h-480c-11.0469 0-20-8.953-20-20s8.9531-20 20-20h480c11.047 0 20 8.953 20 20s-8.953 20-20 20" fill="#e08e4c"/><path d="m503.848 164.441-339.41 339.411c-7.813 7.808-20.473 7.808-28.286 0-7.808-7.813-7.808-20.473 0-28.286l339.411-339.41c7.812-7.812 20.472-7.812 28.285 0 7.808 7.809 7.808 20.473 0 28.285" fill="#e08e4c"/><path d="m164.438 136.156 339.41 339.41c7.808 7.813 7.808 20.473 0 28.286-7.813 7.808-20.473 7.808-28.285 0l-339.411-339.411c-7.808-7.812-7.808-20.476 0-28.285 7.813-7.812 20.473-7.812 28.286 0" fill="#e08e4c"/><path d="m300 100.988c-40.23 3.992-76.941 19.903-106.574 44.157l11.355 11.359c27.446-19.375 59.989-32.02 95.219-35.516z" fill="#404a5f"/><path d="m193.426 145.145c-3.66 2.992-7.211 6.113-10.645 9.351l10.645 10.645c3.679-3.012 7.461-5.887 11.355-8.637z" fill="#394051"/><path d="m340 100.988v20c35.23 3.496 67.773 16.141 95.219 35.516l11.355-11.359c-29.633-24.254-66.344-40.165-106.574-44.157" fill="#404a5f"/><path d="m446.574 145.145-11.355 11.359c3.894 2.75 7.676 5.625 11.355 8.637l10.645-10.645c-3.434-3.238-6.985-6.359-10.645-9.351" fill="#394051"/><path d="m483.5 184.785-8.641 8.641c20.164 24.64 34.567 54.191 41.141 86.574h3.012c-3.496-35.23-16.137-67.77-35.512-95.215" fill="#404a5f"/><path d="m519.012 280h-3.012c1.332 6.559 2.34 13.23 3.012 20.004h.988c0-.004 0-.004 0-.004 0-6.75-.336-13.422-.988-20" fill="#394051"/><path d="m478.758 340.004h-3.82c-5.532 21.406-15.395 41.094-28.594 58.059l8.297 8.296c12.621-19.613 21.082-42.16 24.117-66.355" fill="#404a5f"/><path d="m446.344 398.063c-2.906 3.742-5.973 7.339-9.196 10.804l9.196 9.196c2.933-3.77 5.703-7.676 8.297-11.704z" fill="#394051"/><path d="m320 100c-6.75 0-13.422.336-20 .988v20c6.578-.652 13.25-.988 20-.988 6.746 0 13.422.336 20 .988v-20c-6.578-.652-13.254-.988-20-.988" fill="#b77744"/><path d="m520 300.004h-.988c.328 3.309.578 6.641.742 9.996.164-3.309.246-6.648.246-10m-40.309 10c-.636 10.289-2.253 20.324-4.753 30.004h3.82c.82-6.559 1.242-13.231 1.242-20.004 0-3.359-.105-6.691-.309-10" fill="#b77744"/><path d="m457.219 154.496-10.645 10.645c10.344 8.464 19.824 17.945 28.285 28.285l8.641-8.641c-7.734-10.957-16.551-21.105-26.281-30.289" fill="#b77744"/><path d="m156.5 184.785c-19.375 27.445-32.016 59.985-35.512 95.215h3.012c6.574-32.383 20.977-61.934 41.141-86.574z" fill="#404a5f"/><path d="m124 280h-3.012c-.652 6.578-.988 13.25-.988 20l.988.004c.672-6.774 1.684-13.445 3.012-20.004" fill="#394051"/><path d="m165.063 340.004h-3.821c3.035 24.195 11.496 46.742 24.117 66.355l8.297-8.296c-13.199-16.965-23.062-36.653-28.593-58.059" fill="#404a5f"/><path d="m193.656 398.063-8.297 8.296c2.594 4.028 5.364 7.934 8.297 11.704l9.196-9.196c-3.223-3.465-6.289-7.062-9.196-10.804" fill="#394051"/><path d="m233.645 434.645-11.704 11.703c22.129 17.215 48.891 28.754 78.059 32.41v-20c-24.199-3.031-46.742-11.492-66.355-24.113" fill="#404a5f"/><path d="m406.355 434.645c-19.613 12.621-42.156 21.082-66.355 24.113v20c29.172-3.656 55.93-15.195 78.059-32.41z" fill="#404a5f"/><path d="m340 458.758c-6.555.82-13.227 1.242-20 1.242s-13.445-.422-20-1.242v20c6.555.82 13.227 1.242 20 1.242s13.445-.422 20-1.242z" fill="#b77744"/><path d="m120.988 300.004h-.988c0 3.348.082 6.687.246 9.996.164-3.355.414-6.687.742-9.996m39.321 9.996c-.204 3.309-.309 6.641-.309 10 0 6.773.422 13.445 1.242 20.004h3.821c-2.5-9.68-4.118-19.715-4.754-30.004" fill="#b77744"/><path d="m202.852 408.867-9.196 9.196c8.215 10.566 17.723 20.07 28.285 28.285l11.704-11.703c-11.321-7.286-21.665-15.961-30.793-25.778" fill="#b77744"/><path d="m182.781 154.496c-9.73 9.184-18.547 19.332-26.281 30.289l8.641 8.641c8.461-10.34 17.941-19.821 28.285-28.285zm254.367 254.371c-9.128 9.817-19.476 18.492-30.793 25.778l11.704 11.703c10.562-8.215 20.07-17.719 28.285-28.285z" fill="#b77744"/><path d="m320 520c-110.457 0-200-89.543-200-200s89.543-200 200-200 200 89.543 200 200-89.543 200-200 200m0-40c88.223 0 160-71.777 160-160s-71.777-160-160-160-160 71.777-160 160 71.777 160 160 160" fill="#f3cc70"/><path d="m380 320c0-33.137-26.863-60-60-60s-60 26.863-60 60 26.863 60 60 60 60-26.863 60-60" fill="#495672"/><path d="m300 202.008c-12.75 2.601-24.629 7.633-35.121 14.59l29.266 29.265c1.898-.914 3.851-1.726 5.855-2.437zm40 0v41.418c2.004.711 3.957 1.523 5.855 2.433l29.266-29.261c-10.492-6.957-22.371-11.989-35.121-14.59m70.602 55.68-22.317 22.312h29.707c-1.59-7.805-4.094-15.281-7.39-22.312m-181.204 0c-3.296 7.031-5.8 14.507-7.39 22.312h29.703zm182.25 82.316h-23.363l15.117 15.117c3.164-4.769 5.926-9.824 8.246-15.117m-159.933 0h-23.363c2.32 5.293 5.082 10.348 8.246 15.117zm42.418 34.148-16.445 16.45c7.031 3.296 14.507 5.8 22.312 7.39v-21.406c-2.008-.707-3.965-1.523-5.867-2.434m51.734 0c-1.902.911-3.859 1.727-5.867 2.434v21.406c7.805-1.59 15.281-4.094 22.313-7.39z" fill="#404a5f"/><path d="m417.992 280h-29.707l-9.25 9.254c.633 3.484.965 7.078.965 10.746l40 .004c0-.004 0-.004 0-.004 0-6.848-.691-13.535-2.008-20m-166.281 0h-29.703c-1.317 6.465-2.008 13.152-2.008 20l40 .004c0-.004 0-.004 0-.004 0-3.668.332-7.262.965-10.746z" fill="#394051"/><path d="m375.121 216.598-29.266 29.261c4.391 2.11 8.489 4.731 12.211 7.793l28.352-28.351c-3.551-3.156-7.324-6.071-11.297-8.703m-111.707 123.406h-11.699l-15.117 15.117c2.632 3.973 5.547 7.746 8.703 11.297l20.547-20.547c-.91-1.902-1.723-3.863-2.434-5.867" fill="#394051"/><path d="m264.879 216.598c-3.973 2.632-7.746 5.547-11.297 8.703l28.352 28.351c3.722-3.062 7.82-5.683 12.211-7.789zm123.406 123.406h-11.699c-.711 2.004-1.523 3.965-2.434 5.867l20.547 20.547c3.156-3.551 6.071-7.324 8.703-11.297z" fill="#394051"/><path d="m320 200c-6.848 0-13.535.691-20 2.008v41.418c6.258-2.219 12.992-3.426 20-3.426s13.742 1.207 20 3.426v-41.418c-6.465-1.317-13.152-2.008-20-2.008m20 176.586c-6.254 2.211-12.988 3.414-20 3.414s-13.746-1.203-20-3.414v21.406c6.465 1.317 13.152 2.008 20 2.008s13.535-.691 20-2.008z" fill="#b77744"/><path d="m420 300.004h-40c0 3.398-.285 6.734-.832 9.984.547 3.254.832 6.602.832 10.012 0 7.016-1.203 13.746-3.414 20.004h11.699 23.363c5.372-12.258 8.352-25.789 8.352-40.004m-160 .004h-40c0 14.211 2.98 27.742 8.352 40h23.363 11.699c-2.211-6.258-3.414-12.988-3.414-20.004 0-3.41.285-6.758.832-10.012-.547-3.25-.832-6.586-.832-9.988" fill="#b77744"/><path d="m386.418 225.301-28.352 28.351c10.75 8.848 18.383 21.356 20.969 35.602l9.25-9.254 22.317-22.312c-5.809-12.387-14.082-23.391-24.184-32.387m-120.57 120.57-20.547 20.547c8.996 10.102 20 18.375 32.387 24.184l16.445-16.45c-12.356-5.91-22.371-15.925-28.285-28.281" fill="#b77744"/><path d="m253.582 225.301c-10.102 8.996-18.375 20-24.184 32.387l22.313 22.312 9.254 9.254c2.586-14.246 10.219-26.754 20.969-35.602zm120.57 120.57c-5.914 12.356-15.929 22.371-28.285 28.281l16.446 16.45c12.386-5.809 23.39-14.082 32.386-24.184z" fill="#b77744"/><path d="m260.832 309.988c-.547 3.254-.832 6.602-.832 10.012 0 7.016 1.203 13.746 3.414 20.004.711 2.004 1.524 3.965 2.434 5.867 5.914 12.356 15.929 22.371 28.285 28.281 1.902.911 3.859 1.727 5.867 2.434 6.254 2.211 12.988 3.414 20 3.414s13.746-1.203 20-3.414c2.008-.707 3.965-1.523 5.867-2.434 12.356-5.91 22.371-15.925 28.285-28.281.911-1.902 1.723-3.863 2.434-5.867 2.211-6.258 3.414-12.988 3.414-20.004 0-3.41-.285-6.758-.832-10.012-4.77 28.348-29.484 50.012-59.168 50.012s-54.398-21.664-59.168-50.012" fill="#404a5f"/><path d="m400 320h-20c-.012-16.633-6.684-31.504-17.574-42.426-10.922-10.89-25.793-17.562-42.426-17.574-16.633.012-31.504 6.684-42.426 17.574-10.89 10.922-17.562 25.793-17.574 42.426.012 16.633 6.684 31.508 17.574 42.426 10.922 10.89 25.793 17.562 42.426 17.574 16.633-.012 31.504-6.684 42.426-17.574 10.89-10.918 17.562-25.793 17.574-42.426h20 20c-.012 55.238-44.766 99.988-100 100-55.234-.012-99.988-44.762-100-100 .012-55.234 44.766-99.988 100-100 55.234.012 99.988 44.766 100 100z" fill="#f3cc70"/></g></svg>