<svg height="85.333328" viewBox="0 0 85.333328 85.333328" width="85.333328" xmlns="http://www.w3.org/2000/svg"><g transform="matrix(.13333333 0 0 -.13333333 0 85.333331)"><path d="m640 320c0-176.73-143.27-320-320-320s-320 143.27-320 320 143.27 320 320 320 320-143.27 320-320" fill="#e1e3cc"/><path d="m283.887 100c-6.289 0-12.582 2.395-17.414 7.203l-139.258 139.313c-9.621 9.621-9.621 25.214 0 34.839l181.383 181.454c1.113 1.109 9.695 7.007 13.468 7.179h155.067.566.668c6.758 0 11.961-5.351 11.617-12.238v-155.617c0-4.738-6.191-12.363-7.3-13.473l-181.387-181.457c-4.809-4.808-11.121-7.203-17.41-7.203m156.113 340c-11.039 0-20-8.961-20-20s8.961-20 20-20 20 8.961 20 20-8.961 20-20 20" fill="#b7b7a7"/><path d="m440 420c-11.039 0-20 8.961-20 20s8.961 20 20 20 20-8.961 20-20-8.961-20-20-20zm38.367 69.988h-156.301c-3.773-.172-12.355-6.07-13.468-7.179l-181.383-181.454c-9.621-9.625-9.621-25.218 0-34.839l139.258-139.313c4.832-4.808 11.125-7.203 17.414-7.203s12.601 2.395 17.41 7.203l181.387 181.457c1.109 1.11 7.3 8.735 7.3 13.473v155.617c.344 6.887-4.859 12.238-11.617 12.238" fill="#c84755"/></g></svg>