<svg height="85.333328" viewBox="0 0 85.333328 85.333328" width="85.333328" xmlns="http://www.w3.org/2000/svg"><g transform="matrix(.13333333 0 0 -.13333333 0 85.333331)"><path d="m640 320c0-176.73-143.27-320-320-320s-320 143.27-320 320 143.27 320 320 320 320-143.27 320-320" fill="#c84755"/><path d="m199.844 170.762c-13.781 0-26.196 9.554-29.274 23.566-1.246 5.68-.797 11.336 1.012 16.442 4.242-12.047 15.68-20.012 28.258-20.012 2.133 0 4.301.23 6.469.707 10.507 2.308 18.504 9.859 21.851 19.301.406-1.149.742-2.336 1.012-3.555 3.555-16.184-6.68-32.184-22.863-35.742-2.168-.477-4.332-.707-6.465-.707" fill="#a43f4a"/><path d="m473.316 230.863c-13.781 0-26.191 9.555-29.273 23.567-1.246 5.679-.797 11.336 1.012 16.441 4.242-12.051 15.679-20.012 28.261-20.012 2.133 0 4.301.231 6.469.707 10.504 2.309 18.5 9.86 21.848 19.301.406-1.148.746-2.336 1.012-3.558 3.558-16.18-6.676-32.184-22.86-35.739-2.168-.476-4.336-.707-6.469-.707" fill="#a43f4a"/><path d="m229.172 227.203c3.555-16.18-6.68-32.183-22.863-35.738-16.18-3.559-32.18 6.68-35.739 22.859-3.554 16.184 6.68 32.188 22.864 35.742 16.179 3.555 32.179-6.679 35.738-22.863" fill="#77caa9"/><path d="m502.645 287.305c3.558-16.184-6.676-32.184-22.86-35.739-16.183-3.558-32.183 6.68-35.742 22.86-3.555 16.183 6.68 32.183 22.863 35.742 16.184 3.555 32.184-6.68 35.739-22.863" fill="#77caa9"/><path d="m161.863 240c-39.765 0-77.8161 23.496-82.6364 26.578-9.3086 5.949-12.0235 18.32-6.0743 27.625 3.8165 5.969 10.2735 9.227 16.8711 9.227 3.6875 0 7.418-1.016 10.7536-3.153 9.848-6.242 37.516-20.277 61.149-20.277 3.625 0 7.152.328 10.508 1.07l312.539 68.688c25.285 5.555 50.246 36.926 56.996 47.476 3.816 5.969 10.269 9.231 16.863 9.231 3.688 0 7.422-1.02 10.762-3.16 9.304-5.95 12.019-18.321 6.066-27.621-3.574-5.59-36.269-54.922-82.101-64.996l-9.028-1.985c-3.492 1.41-7.269 2.168-11.16 2.168-2.129 0-4.297-.226-6.465-.703-6.125-1.348-11.394-4.477-15.39-8.719l-240.453-52.844c-3.493 1.407-7.274 2.168-11.161 2.168-2.132 0-4.3-.23-6.468-.707-6.09-1.339-11.34-4.441-15.329-8.648-5.39-.984-10.832-1.418-16.242-1.418" fill="#a43f4a"/><path d="m178.105 241.418c3.989 4.207 9.239 7.309 15.329 8.648 2.168.477 4.336.707 6.468.707 3.887 0 7.668-.761 11.161-2.168l-30.04-6.601c-.972-.215-1.945-.41-2.918-.586" fill="#62a48d"/><path d="m451.516 301.449c3.996 4.242 9.265 7.371 15.39 8.719 2.168.477 4.336.703 6.465.703 3.891 0 7.668-.758 11.16-2.168z" fill="#62a48d"/><path d="m536.914 408.082 3.809-2.434-3.801 2.45-.008-.016 3.809-2.434-3.801 2.45c-.109-.188-7.438-11.438-18.844-23.149-11.34-11.824-26.898-23.551-41.297-26.539 0 0-68.371-15.023-141.621-31.121-73.254-16.098-151.387-33.269-170.922-37.562-3.613-.797-7.488-1.176-11.535-1.176-14.375-.067-30.836 5.054-43.301 10.484-6.242 2.692-11.5114 5.406-15.152 7.414-1.8242 1.004-3.2383 1.828-4.168 2.387l-1.0234.621-.2227.141-.0312.019-3.1133-4.898 3.1289 4.886-.0156.012-3.1133-4.898 3.1289 4.886c-6.9805 4.465-16.2578 2.426-20.7187-4.55-4.4649-6.981-2.4258-16.258 4.5547-20.723.4687-.293 10.2148-6.516 24.8632-12.844 14.6835-6.277 34.2035-12.867 55.1835-12.937 5.906 0 11.942.551 17.973 1.875 39.07 8.586 312.543 68.683 312.543 68.683 12.222 2.704 23.074 8.219 32.558 14.653 14.219 9.687 25.543 21.554 33.551 31.058 7.988 9.512 12.602 16.703 12.856 17.098 4.464 6.977 2.425 16.254-4.551 20.719-6.981 4.465-16.254 2.426-20.719-4.555" fill="#f3cc70"/></g></svg>