<svg height="85.333328" viewBox="0 0 85.333328 85.333328" width="85.333328" xmlns="http://www.w3.org/2000/svg"><g transform="matrix(.13333333 0 0 -.13333333 0 85.333331)"><path d="m640 320c0-176.73-143.27-320-320-320s-320 143.27-320 320 143.27 320 320 320 320-143.27 320-320" fill="#77caa9"/><path d="m380 120h-33.16c2.008 2.941 3.16 6.355 3.16 10v10h30c11.047 0 20 8.953 20 20h60 40c11.047 0 20 8.953 20 20v-20c0-11.047-8.953-20-20-20h-100c0-11.047-8.953-20-20-20m-156.84 0h-83.16c-11.047 0-20 8.953-20 20v20 120-100-20c0-11.047 8.953-20 20-20h80v-10c0-3.645 1.152-7.059 3.16-10" fill="#62a48d"/><g fill="#495672"><path d="m520 300c0 11.047-8.953 20-20 20h-360c-11.047 0-20-8.953-20-20v-120c0-11.047 8.953-20 20-20h360c11.047 0 20 8.953 20 20z"/><path d="m400 220c0-33.137 26.863-60 60-60s60 26.863 60 60v90c0 33.137-26.863 60-60 60s-60-26.863-60-60z"/><path d="m380 310c0-11.047-8.953-20-20-20h-150c-11.047 0-20 8.953-20 20v190c0 11.047 8.953 20 20 20h150c11.047 0 20-8.953 20-20z"/><path d="m400 160c0-11.047-8.953-20-20-20h-240c-11.047 0-20 8.953-20 20v140c0 11.047 8.953 20 20 20h240c11.047 0 20-8.953 20-20z"/></g><path d="m490 310c0-16.57-13.43-30-30-30s-30 13.43-30 30 13.43 30 30 30 30-13.43 30-30" fill="#7db6d8"/><path d="m326.363 110h-82.726c-8.75 0-16.387 4.02-20.477 10h123.68c-4.09-5.98-11.727-10-20.477-10" fill="#62a48d"/><path d="m346.84 120h-123.68c-2.008 2.941-3.16 6.355-3.16 10v10h130v-10c0-3.645-1.152-7.059-3.16-10" fill="#538777"/><path d="m350 140h-130v150c0 11.047 10.582 20 23.637 20h82.726c13.055 0 23.637-8.953 23.637-20z" fill="#404a5f"/><path d="m340 160c0-11.047-8.953-20-20-20h-70c-11.047 0-20 8.953-20 20v160c0 11.047 8.953 20 20 20h70c11.047 0 20-8.953 20-20z" fill="#f3cc70"/><path d="m340 140c0-11.047-8.953-20-20-20h-70c-11.047 0-20 8.953-20 20v160c0 11.047 8.953 20 20 20h70c11.047 0 20-8.953 20-20z" fill="#495672"/><path d="m490 210c0-11.047-8.953-20-20-20h-70c-11.047 0-20 8.953-20 20v20c0 11.047 8.953 20 20 20h70c11.047 0 20-8.953 20-20z" fill="#e1e3cc"/><path d="m490 220c0 11.047-8.953 20-20 20h-70c-11.047 0-20-8.953-20-20v10c0 11.047 8.953 20 20 20h70c11.047 0 20-8.953 20-20z" fill="#b7b7a7"/></g></svg>