<svg height="85.333328" viewBox="0 0 85.333328 85.333328" width="85.333328" xmlns="http://www.w3.org/2000/svg"><g transform="matrix(.13333333 0 0 -.13333333 0 85.333331)"><path d="m640 320c0-176.73-143.27-320-320-320s-320 143.27-320 320 143.27 320 320 320 320-143.27 320-320" fill="#e08e4c"/><path d="m400 120h-160c-22.09 0-40 17.91-40 40v320-300c0-22.09 17.91-40 40-40h160c7.078 0 13.723 1.836 19.492 5.063l.52-1.258v1.554c11.949 6.918 19.988 19.84 19.988 34.641v-20c0-22.09-17.91-40-40-40" fill="#b77744"/><path d="m240 155c-13.789 0-25 11.211-25 25v320c0 13.789 11.211 25 25 25h160c13.789 0 25-11.211 25-25v-320c0-13.789-11.211-25-25-25z" fill="#495672"/><path d="m400 540h-160c-22.09 0-40-17.91-40-40v-320c0-22.09 17.91-40 40-40h160c22.09 0 40 17.91 40 40v320c0 22.09-17.91 40-40 40m0-30c5.516 0 10-4.484 10-10v-320c0-5.516-4.484-10-10-10h-160c-5.516 0-10 4.484-10 10v320c0 5.516 4.484 10 10 10z" fill="#fff"/><path d="m420.012 143.805-.52 1.258c.172.097.348.195.52.296z" fill="#c59266"/><path d="m407.691 173.617-138.992 336.383h131.301c5.516 0 10-4.484 10-10v-320c0-2.426-.867-4.648-2.309-6.383" fill="#6c7990"/><path d="m419.492 145.063-11.801 28.554c1.442 1.735 2.309 3.957 2.309 6.383v320c0 5.516-4.484 10-10 10h-131.301l-6.199 15h157.512v-379.641c-.172-.101-.348-.199-.52-.296" fill="#fff"/><path d="m400 140h-160l-40 80h240z" fill="#fff"/><path d="m340 180c0 11.047-8.953 20-20 20s-20-8.953-20-20 8.953-20 20-20 20 8.953 20 20" fill="#e1e3cc"/></g></svg>