<svg height="85.333328" viewBox="0 0 85.333328 85.333328" width="85.333328" xmlns="http://www.w3.org/2000/svg"><g transform="matrix(.13333333 0 0 -.13333333 0 85.333331)"><path d="m640 320c0-176.73-143.27-320-320-320s-320 143.27-320 320 143.27 320 320 320 320-143.27 320-320" fill="#495672"/><path d="m235 87.3438c-12.922 0-23.555 9.9257-24.863 22.6562h9.543c4.23-3.328 9.547-5.309 15.32-5.309s11.09 1.981 15.32 5.309h9.543c-1.308-12.7305-11.941-22.6562-24.863-22.6562" fill="#404a5f"/><path d="m405 87.3438c-12.922 0-23.555 9.9257-24.863 22.6562h9.543c4.23-3.328 9.547-5.309 15.32-5.309s11.09 1.981 15.32 5.309h9.543c-1.308-12.7305-11.941-22.6562-24.863-22.6562" fill="#404a5f"/><path d="m260 130c0-13.977-11.191-25.309-25-25.309s-25 11.332-25 25.309v334.691c0 13.977 11.191 35.309 25 35.309s25-21.332 25-35.309z" fill="#e1e3cc"/><path d="m430 130c0-13.977-11.191-25.309-25-25.309s-25 11.332-25 25.309v334.691c0 13.977 11.191 35.309 25 35.309s25-21.332 25-35.309z" fill="#e1e3cc"/><path d="m380 209.691c0-32.964-26.863-59.691-60-59.691s-60 26.727-60 59.691v270.309c0 32.965 26.863 90 60 90s60-57.035 60-90z" fill="#e08e4c"/><path d="m270 110h-10.137c.09.871.137 1.758.137 2.656v17.344 20h10zm-59.863 0h-.137c-11.047 0-30 8.953-30 20v30c0 1.711.438 3.426 1.223 5.129 4.363-8.691 19.414-15.129 28.777-15.129v-37.344c0-.898.047-1.785.137-2.656" fill="#404a5f"/><path d="m259.863 110h-9.543c5.856 4.602 9.633 11.781 9.68 19.855v.043.008.035.012.047-17.344c0-.898-.047-1.785-.137-2.656m-40.183 0h-9.543c-.09.871-.137 1.758-.137 2.656v37.344-20c0-8.133 3.789-15.371 9.68-20" fill="#394051"/><path d="m250.32 110h-.148c5.906 4.598 9.781 11.738 9.828 19.855-.047-8.074-3.824-15.253-9.68-19.855m-.32 0h-30.32c-5.891 4.629-9.68 11.867-9.68 20v20h40zm10 19.855v.043c0-.015 0-.027 0-.043m0 .051v.035c0-.011 0-.019 0-.035m0 .047v.047c0-.016 0-.031 0-.047" fill="#b7b7a7"/><path d="m430 110h-.137c.09.871.137 1.758.137 2.656v17.344 20c9.363 0 24.414 6.438 28.777 15.129.786-1.703 1.223-3.418 1.223-5.129v-30c0-11.047-18.953-20-30-20" fill="#404a5f"/><path d="m429.863 110h-9.543c5.891 4.629 9.68 11.867 9.68 20v-17.344c0-.898-.047-1.785-.137-2.656" fill="#394051"/><path d="m380.137 110h-10.137v40h10v-37.344c0-.898.047-1.785.137-2.656" fill="#404a5f"/><path d="m389.68 110h-9.543c-.09.871-.137 1.758-.137 2.656v37.344-20c0-.016 0-.031 0-.047 0-.004 0-.008 0-.012 0-.011 0-.019 0-.035 0-.004 0-.004 0-.008 0-.015 0-.027 0-.039 0-.004 0-.004 0-.007.047-8.075 3.824-15.25 9.68-19.852" fill="#394051"/><path d="m420.32 110h-30.32v40h40v-20c0-8.133-3.789-15.371-9.68-20m-30.492 0h-.148c-5.856 4.602-9.633 11.777-9.68 19.852.047-8.114 3.922-15.254 9.828-19.852m-9.828 19.859v.039c0-.015 0-.027 0-.039m0 .047v.035c0-.011 0-.023 0-.035m0 .047v.047c0-.016 0-.031 0-.047" fill="#b7b7a7"/><path d="m320 70c-27.613 0-50 11.332-50 25.3086v14.6914h44.371 55.629v-14.6914c0-13.9766-22.387-25.3086-50-25.3086" fill="#404a5f"/><path d="m314.371 110h-44.371v40h24.371v-20c0-11.047 8.953-20 20-20" fill="#394051"/><path d="m370 110h-55.629 11.258c11.047 0 20 8.953 20 20v20h24.371z" fill="#394051"/><path d="m325.629 110h-11.258c-11.047 0-20 8.953-20 20v20h20 31.258v-20c0-11.047-8.953-20-20-20" fill="#343945"/><path d="m320 317.711c-19.348 15.937-43.613 32.289-50 32.289v50c0 13.977 22.387 70 50 70s50-56.023 50-70v-50c-6.387 0-30.652-16.352-50-32.289" fill="#b77744"/><path d="m260 257.316v40c9.996 28.454 10 52.684 10 52.684v-40s-.004-24.23-10-52.684" fill="#b77744"/><path d="m270 150h-10v59.691c0-12.203 3.684-23.554 10-33.007z" fill="#394051"/><path d="m270 176.684c-6.316 9.453-10 20.804-10 33.007v47.625c9.996 28.454 10 52.684 10 52.684z" fill="#97633d"/><path d="m181.223 165.129c-.785 1.559-1.223 3.191-1.223 4.871v30c0 11.047 18.234 22.156 30 30v-40c-9.941-6.629-24.504-15.59-28.777-24.871" fill="#404a5f"/><path d="m210 190v40c18.398 12.266 31.156 28.293 40 44.621v-40c-8.844-16.328-21.602-32.355-40-44.621z" fill="#b7b7a7"/><path d="m210 150c-9.363 0-24.414 6.438-28.777 15.129 4.273 9.281 18.836 18.242 28.777 24.871z" fill="#394051"/><path d="m250 150h-40v40c18.398 12.266 31.156 28.293 40 44.621z" fill="#97978c"/><path d="m296.836 295.297c-12.18 8.496-22.902 14.703-26.836 14.703v40c6.387 0 30.652-16.352 50-32.289-10.207-8.406-19.047-16.703-23.164-22.414" fill="#97633d"/><path d="m294.371 150h-24.371v26.684c6.027-9.02 14.453-16.313 24.371-20.981z" fill="#343945"/><path d="m294.371 155.703c-9.918 4.668-18.344 11.961-24.371 20.981v133.316c3.934 0 14.656-6.207 26.836-14.703-1.578-2.192-2.465-4.004-2.465-5.297v-40z" fill="#7e5337"/><path d="m314.371 150h-20v5.703c3.984-1.875 8.207-3.324 12.613-4.297 2.286-.906 4.778-1.406 7.387-1.406" fill="#31333d"/><path d="m306.984 151.406c-4.406.973-8.629 2.422-12.613 4.297v94.297-80c0-8.437 5.227-15.652 12.613-18.594" fill="#6b4833"/><path d="m458.777 165.129c-4.273 9.281-18.836 18.242-28.777 24.871v40c11.766-7.844 30-18.953 30-30v-30c0-1.68-.437-3.312-1.223-4.871" fill="#404a5f"/><path d="m430 190c-18.398 12.266-31.156 28.293-40 44.621v40c8.844-16.328 21.602-32.355 40-44.621z" fill="#b7b7a7"/><path d="m430 150v40c9.941-6.629 24.504-15.59 28.777-24.871-4.363-8.691-19.414-15.129-28.777-15.129" fill="#394051"/><path d="m430 150h-40v84.621c8.844-16.328 21.602-32.355 40-44.621z" fill="#97978c"/><path d="m380 257.316c-9.953 28.329-10 52.469-10 52.684v40s0-24.23 10-52.684z" fill="#b77744"/><path d="m380 150h-10v26.684c6.316 9.453 10 20.804 10 33.007z" fill="#394051"/><path d="m370 176.684v133.316c0-.215.047-24.355 10-52.684v-47.625c0-12.203-3.684-23.554-10-33.007" fill="#97633d"/><path d="m343.164 295.297c-4.117 5.711-12.957 14.008-23.164 22.414 19.348 15.937 43.613 32.289 50 32.289v-40c-3.934 0-14.656-6.207-26.836-14.703" fill="#97633d"/><path d="m370 150h-24.371v5.703c9.918 4.668 18.344 11.961 24.371 20.981z" fill="#343945"/><path d="m345.629 155.703v134.297c0 1.293-.887 3.105-2.465 5.297 12.18 8.496 22.902 14.703 26.836 14.703v-133.316c-6.027-9.02-14.453-16.313-24.371-20.981" fill="#7e5337"/><path d="m345.629 150h-31.258 11.258c2.609 0 5.101.5 7.387 1.406 4.406.973 8.629 2.422 12.613 4.297z" fill="#31333d"/><path d="m333.016 151.406c7.386 2.942 12.613 10.157 12.613 18.594v-14.297c-3.984-1.875-8.207-3.324-12.613-4.297" fill="#6b4833"/><path d="m320 277.711c-7.426 6.117-15.578 12.293-23.164 17.586 4.117 5.711 12.957 14.008 23.164 22.414 10.207-8.406 19.047-16.703 23.164-22.414-7.586-5.293-15.738-11.469-23.164-17.586" fill="#7e5337"/><path d="m294.371 250v40c0 1.293.887 3.105 2.465 5.297 7.586-5.293 15.738-11.469 23.164-17.586-14.125-11.637-25.629-23.051-25.629-27.711" fill="#6b4833"/><path d="m345.629 170v80c0 4.66-11.504 16.074-25.629 27.711 7.426 6.117 15.578 12.293 23.164 17.586 1.578-2.192 2.465-4.004 2.465-5.297z" fill="#6b4833"/><path d="m325.629 150h-11.258c-2.609 0-5.101.5-7.387 1.406 4.192-.922 8.547-1.406 13.016-1.406s8.824.484 13.016 1.406c-2.286-.906-4.778-1.406-7.387-1.406" fill="#2d2e36"/><path d="m320 150c-4.469 0-8.824.484-13.016 1.406-7.386 2.942-12.613 10.157-12.613 18.594v80c0 4.66 11.504 16.074 25.629 27.711 14.125-11.637 25.629-23.051 25.629-27.711v-80c0-8.437-5.227-15.652-12.613-18.594-4.192-.922-8.547-1.406-13.016-1.406" fill="#5a3f2f"/><path d="m250 109.867v.133h.172c-.059-.043-.113-.09-.172-.133" fill="#b7b7a7"/><path d="m260 129.898v.008c0-.004 0-.004 0-.008m0 .043v.012c0-.004 0-.008 0-.012" fill="#343945"/><path d="m250.172 110h-.172v40h10v-20c0-.016 0-.031 0-.047 0-.004 0-.008 0-.012 0-.011 0-.023 0-.035 0-.004 0-.004 0-.008 0-.015 0-.027 0-.043-.047-8.117-3.922-15.257-9.828-19.855" fill="#97978c"/><path d="m260 464.691v.032c0-.008 0-.02 0-.032m0 .047v.028c0-.012 0-.02 0-.028m-.023 1.121c-.266 6.188-2.559 13.586-6.2 19.914 3.629-5.488 5.934-13.656 6.2-19.914" fill="#404a5f"/><path d="m250 274.621v215.379c1.375-1.051 2.641-2.508 3.777-4.227 3.641-6.328 5.934-13.726 6.2-19.914.011-.363.023-.722.023-1.074 0-.008 0-.015 0-.019 0-.012 0-.02 0-.028 0-.004 0-.011 0-.015 0-.008 0-.02 0-.032v-167.375c-2.598-7.398-5.871-15.078-10-22.695" fill="#b7b7a7"/><path d="m250 234.621v40c4.129 7.617 7.402 15.297 10 22.695v-40c-2.598-7.398-5.871-15.078-10-22.695" fill="#97978c"/><path d="m260 150h-10v84.621c4.129 7.617 7.402 15.297 10 22.695z" fill="#7d7c76"/><path d="m390 109.867c-.059.043-.113.09-.172.133h.172z" fill="#b7b7a7"/><path d="m380 129.852v.007c0-.004 0-.004 0-.007m0 .046v.008c0-.004 0-.004 0-.008m0 .043v.012c0-.004 0-.008 0-.012" fill="#343945"/><path d="m390 110h-.172c-5.906 4.598-9.781 11.738-9.828 19.852v.007.039.008.035.012.047 20h10z" fill="#97978c"/><path d="m380 464.691v.036c0-.012 0-.024 0-.036m0 .047v.028c0-.008 0-.02 0-.028m.023 1.121c.266 6.258 2.571 14.426 6.2 19.914-3.641-6.328-5.938-13.73-6.2-19.914" fill="#404a5f"/><path d="m390 274.621c-4.129 7.617-7.402 15.297-10 22.695v167.375.036.011.028c0 .355.008.722.023 1.093.262 6.184 2.559 13.586 6.2 19.914 1.136 1.719 2.402 3.176 3.777 4.227z" fill="#b7b7a7"/><path d="m390 234.621c-4.129 7.617-7.402 15.297-10 22.695v40c2.598-7.398 5.871-15.078 10-22.695z" fill="#97978c"/><path d="m390 150h-10v107.316c2.598-7.398 5.871-15.078 10-22.695z" fill="#7d7c76"/><path d="m345.629 150c0-11.047-8.953-20-20-20h-115.629c-11.047 0-30 8.953-30 20v30c0 11.047 18.234 22.156 30 30 60 40 60 120 60 120 11.047 0 75.629-48.953 75.629-60z" fill="#e1e3cc"/><path d="m294.371 150c0-11.047 8.953-20 20-20h115.629c11.047 0 30 8.953 30 20v30c0 11.047-18.234 22.156-30 30-60 40-60 120-60 120-11.047 0-75.629-48.953-75.629-60z" fill="#e1e3cc"/><path d="m370 115.309c0-13.977-22.387-25.309-50-25.309s-50 11.332-50 25.309v304.691c0 13.977 22.387 70 50 70s50-56.023 50-70z" fill="#fff"/></g></svg>