<svg height="85.333328" viewBox="0 0 85.333328 85.333328" width="85.333328" xmlns="http://www.w3.org/2000/svg"><g transform="matrix(.13333333 0 0 -.13333333 0 85.333331)"><path d="m640 320c0-176.73-143.27-320-320-320s-320 143.27-320 320 143.27 320 320 320 320-143.27 320-320" fill="#e08e4c"/><g fill="#b77744"><path d="m330.004 80c-4.461 0-8.883 1.4883-12.496 4.3828l-144.524 115.6172h-52.984c-11.047 0-20 8.953-20 20v160c0 11.047 8.953 20 20 20h52.984l144.524 115.617c3.613 2.895 8.035 4.383 12.496 4.383 2.941 0 5.902-.648 8.66-1.973 6.93-3.332 11.336-10.339 11.336-18.027v-400c0-7.6875-4.406-14.6953-11.336-18.0273-2.758-1.3243-5.719-1.9727-8.66-1.9727"/><path d="m389.145 244.508c-4.657 0-9.247 2.156-12.18 6.222-4.848 6.719-3.328 16.094 3.39 20.946 9.309 6.707 14.645 17.035 14.645 28.324s-5.336 21.617-14.645 28.324c-6.718 4.852-8.238 14.227-3.39 20.946 2.933 4.058 7.523 6.218 12.183 6.218 3.036 0 6.106-.918 8.758-2.828 16.965-12.234 27.094-31.922 27.094-52.66s-10.129-40.426-27.094-52.66c-2.656-1.914-5.722-2.832-8.761-2.832"/><path d="m389.121 179.02c-6.586 0-12.629 4.375-14.453 11.035-2.195 7.988 2.504 16.238 10.492 18.429 41.117 11.289 69.84 48.922 69.84 91.516s-28.723 80.227-69.84 91.516c-7.988 2.191-12.687 10.441-10.492 18.429 1.828 6.66 7.879 11.032 14.461 11.032 1.312 0 2.648-.176 3.973-.539 54.109-14.848 91.898-64.375 91.898-120.438 0-56.062-37.789-105.59-91.898-120.437-1.329-.368-2.668-.543-3.981-.543"/><path d="m389.109 117.672c-7.156 0-13.496 5.144-14.757 12.441-1.414 8.164 4.054 15.926 12.218 17.336 74.422 12.879 128.43 77.031 128.43 152.551s-54.008 139.672-128.43 152.551c-8.164 1.41-13.632 9.172-12.218 17.336 1.257 7.285 7.539 12.453 14.711 12.453.863 0 1.742-.074 2.625-.231 88.835-15.371 153.312-91.957 153.312-182.109s-64.477-166.738-153.312-182.109z"/></g><path d="m310 240c0-11.047-8.953-20-20-20h-170c-11.047 0-20 8.953-20 20v160c0 11.047 8.953 20 20 20h170c11.047 0 20-8.953 20-20z" fill="#495672"/><path d="m330 110c-2.227 0-4.437.746-6.246 2.191l-150 120c-2.371 1.895-3.754 4.774-3.754 7.809v160c0 3.035 1.383 5.914 3.754 7.809l150 120c1.809 1.445 4.019 2.191 6.246 2.191 1.477 0 2.953-.328 4.332-.984 3.465-1.668 5.668-5.172 5.668-9.016v-400c0-3.844-2.203-7.348-5.668-9.016-1.379-.656-2.855-.984-4.332-.984" fill="#495672"/><path d="m330.004 540c-4.461 0-8.883-1.488-12.496-4.383l-150-120c-4.746-3.797-7.508-9.543-7.508-15.617v-160c0-6.074 2.762-11.82 7.508-15.617l150-120c3.613-2.895 8.035-4.383 12.496-4.383 2.945 0 5.902.648 8.66 1.973 6.93 3.332 11.336 10.34 11.336 18.027v400c0 7.688-4.406 14.695-11.336 18.027-2.758 1.325-5.719 1.973-8.66 1.973zm-.004-20v-400l-150 120v160z" fill="#495672"/><path d="m397.902 267.344c16.27 11.691 27.102 30.902 27.098 52.656.004 21.754-10.828 40.969-27.098 52.66-6.722 4.844-16.097 3.324-20.941-3.398-4.844-6.719-3.324-16.094 3.398-20.938 8.918-6.469 14.637-16.656 14.641-28.324-.004-11.668-5.723-21.855-14.641-28.324-6.722-4.844-8.242-14.219-3.398-20.938 4.844-6.722 14.223-8.242 20.941-3.398" fill="#fff"/><path d="m393.098 199.563c52.957 14.515 91.875 62.859 91.902 120.437-.027 57.578-38.945 105.926-91.902 120.441-7.989 2.192-16.243-2.507-18.434-10.496-2.191-7.992 2.508-16.242 10.496-18.437 40.227-11.051 69.867-47.785 69.84-91.508.027-43.723-29.613-80.453-69.84-91.508-7.988-2.191-12.687-10.445-10.496-18.437 2.191-7.989 10.445-12.688 18.434-10.496" fill="#e1e3cc"/><path d="m391.688 137.891c87.07 15.058 153.281 90.746 153.312 182.109-.031 91.363-66.242 167.051-153.312 182.109-8.165 1.414-15.926-4.058-17.34-12.222-1.41-8.164 4.062-15.926 12.226-17.34 72.891-12.617 128.457-76.039 128.426-152.547.031-76.508-55.535-139.93-128.43-152.547-8.16-1.414-13.632-9.176-12.222-17.34 1.414-8.164 9.175-13.636 17.34-12.222" fill="#f3cc70"/></g></svg>