<svg height="85.333328" viewBox="0 0 85.333328 85.333328" width="85.333328" xmlns="http://www.w3.org/2000/svg"><g transform="matrix(.13333333 0 0 -.13333333 0 85.333331)"><path d="m640 320c0-176.73-143.27-320-320-320s-320 143.27-320 320 143.27 320 320 320 320-143.27 320-320" fill="#495672"/><g fill="#e1e3cc"><path d="m477.191 234.145c2.297 3.691 6.028 6.14 10.149 7.406 4.25 1.172 9.293.953 13.98-1.184l25.45-11.672c4.691-2.14 7.988-6.144 9.418-11.09 1.574-4.996.863-10.714-2.227-15.796-3-5.125-7.5-8.7-12.305-10.079-5.043-1.242-10.207-.421-14.437 2.52l-23.028 15.934c-4.23 2.937-6.953 7.136-8.043 11.347-1.308 4.379-1.168 8.879 1.043 12.614"/><path d="m164.457 232.117c4.613-7.195 1.379-18.137-6.703-24.086l-22.828-16.215c-8.528-6.257-20.434-2.949-26.813 7.227-6.109 10.332-2.375 22.797 6.864 26.992l25.293 12.016c9.519 4.355 19.82 1.406 24.187-5.934"/><path d="m139.703 322.184c.059-8.543-7.348-16.336-17.738-17.457l-27.883-2.59c-10.1015-1.117-19.625 7.699-19.7109 19.691.3086 11.996 9.0156 20.91 19.2773 19.914l27.9066-2.262c10.261-.992 18.461-8.742 18.148-17.296"/><path d="m163.355 412.613c-2.296-3.691-6.027-6.14-10.148-7.406-4.25-1.172-9.289-.953-13.98 1.184l-25.45 11.672c-4.687 2.14-7.988 6.144-9.418 11.089-1.574 4.996-.863 10.715 2.227 15.797 3.004 5.125 7.5 8.699 12.305 10.074 5.043 1.247 10.207.422 14.437-2.515l23.027-15.934c4.231-2.941 6.954-7.136 8.043-11.351 1.313-4.375 1.168-8.879-1.043-12.61"/><path d="m229.016 479.195c-7.2-4.613-18.141-1.379-24.086 6.703l-16.219 22.829c-6.258 8.527-2.949 20.433 7.23 26.808 10.329 6.113 22.793 2.379 26.989-6.859l12.015-25.293c4.356-9.52 1.407-19.82-5.929-24.188"/><path d="m319.078 503.949c-8.543-.058-16.336 7.348-17.457 17.739l-2.59 27.882c-1.117 10.102 7.699 19.625 19.692 19.711 11.996-.308 20.91-9.015 19.914-19.277l-2.262-27.906c-.992-10.262-8.742-18.461-17.297-18.149"/><path d="m409.508 480.297c-3.692 2.297-6.141 6.027-7.406 10.148-1.172 4.25-.954 9.289 1.183 13.981l11.676 25.449c2.137 4.691 6.141 7.988 11.086 9.418 5 1.574 10.715.863 15.797-2.227 5.125-3.003 8.699-7.5 10.078-12.304 1.242-5.043.422-10.207-2.52-14.438l-15.933-23.027c-2.942-4.231-7.137-6.953-11.352-8.043-4.375-1.313-8.879-1.168-12.609 1.043"/><path d="m476.09 414.637c-4.613 7.199-1.379 18.14 6.707 24.086l22.824 16.218c8.527 6.258 20.434 2.95 26.813-7.226 6.109-10.332 2.375-22.797-6.864-26.992l-25.293-12.016c-9.515-4.355-19.82-1.406-24.187 5.93"/><path d="m500.848 324.574c-.063 8.543 7.343 16.336 17.738 17.457l27.879 2.59c10.101 1.117 19.625-7.699 19.715-19.691-.313-11.996-9.02-20.91-19.282-19.914l-27.906 2.261c-10.262.993-18.461 8.743-18.144 17.297"/></g><path d="m320 250c-1.121 0-2.168.258-3.27.328-24.953 1.645-44.746 21.434-46.398 46.383-.074 1.105-.332 2.16-.332 3.289 0 27.613 22.387 50 50 50 1.117 0 2.168-.258 3.27-.328l.003.004 31.079 19.375 46.523 29.051c2.008 1.269 4.289 1.89 6.57 1.89 3.235 0 6.461-1.25 8.879-3.668 4.153-4.097 4.875-10.5 1.778-15.449l-29.051-46.551-19.375-31.051-.004-.003c.07-1.102.328-2.153.328-3.27 0-27.613-22.387-50-50-50" fill="#404a5f"/><path d="m416.324 416.324c-4.125 4.125-10.597 4.852-15.449 1.778l-46.523-29.051-31.079-19.375-.003-.004c-1.102.07-2.153.328-3.27.328-27.613 0-50-22.387-50-50 0-1.129.258-2.184.332-3.289 1.652-24.949 21.445-44.738 46.398-46.383 1.102-.07 2.149-.328 3.27-.328 27.613 0 50 22.387 50 50 0 1.117-.258 2.168-.328 3.27l.004.003 19.375 31.051 29.051 46.551c3.097 4.949 2.375 11.352-1.778 15.449" fill="#c84755"/><path d="m370 320c0-27.613-22.387-50-50-50s-50 22.387-50 50 22.387 50 50 50 50-22.387 50-50" fill="#fff"/><path d="m400 150c0-16.57-13.43-30-30-30h-100c-16.57 0-30 13.43-30 30v20c0 16.57 13.43 30 30 30h100c16.57 0 30-13.43 30-30z" fill="#f3cc70"/></g></svg>