<svg height="85.333328" viewBox="0 0 85.333328 85.333328" width="85.333328" xmlns="http://www.w3.org/2000/svg"><g transform="matrix(.13333333 0 0 -.13333333 0 85.333331)"><path d="m640 320c0-176.73-143.27-320-320-320s-320 143.27-320 320 143.27 320 320 320 320-143.27 320-320" fill="#e08e4c"/><path d="m399.754 396.316c-3.527 2.329-7.734 3.684-12.254 3.684h-135c-4.52 0-8.727-1.355-12.254-3.684 3.219 41.231 37.695 73.684 79.754 73.684s76.535-32.453 79.754-73.684" fill="#b77744"/><path d="m387.5 80h-135c-12.426 0-22.5 10.2344-22.5 22.855v274.29c0 8.031 4.078 15.093 10.246 19.171-.164-2.086-.246-4.191-.246-6.316 0-44.184 35.816-80 80-80s80 35.816 80 80c0 2.125-.082 4.23-.246 6.316 6.168-4.078 10.246-11.14 10.246-19.171v-274.29c0-12.6206-10.074-22.855-22.5-22.855" fill="#b77744"/><path d="m320 310c-44.184 0-80 35.816-80 80 0 2.125.082 4.23.246 6.316 3.527 2.329 7.734 3.684 12.254 3.684h135c4.52 0 8.727-1.355 12.254-3.684.164-2.086.246-4.191.246-6.316 0-44.184-35.816-80-80-80" fill="#97633d"/><path d="m305 500h30v30h-30z" fill="#b77744"/><path d="m400 410c0-44.184-35.816-80-80-80s-80 35.816-80 80 35.816 80 80 80 80-35.816 80-80" fill="#e1e3cc"/><path d="m410 122.855c0-12.621-10.074-22.855-22.5-22.855h-135c-12.426 0-22.5 10.234-22.5 22.855v274.29c0 12.621 10.074 22.855 22.5 22.855h135c12.426 0 22.5-10.234 22.5-22.855z" fill="#fff"/><path d="m335 510h-30v30h30z" fill="#fff"/><path d="m380.098 270.098c0-33.192-26.907-60.098-60.098-60.098s-60.098 26.906-60.098 60.098c0 33.191 26.907 60.097 60.098 60.097s60.098-26.906 60.098-60.097" fill="#c84755"/></g></svg>