<svg height="85.333328" viewBox="0 0 85.333328 85.333328" width="85.333328" xmlns="http://www.w3.org/2000/svg"><g transform="matrix(.13333333 0 0 -.13333333 0 85.333331)"><path d="m640 320c0-176.73-143.27-320-320-320s-320 143.27-320 320 143.27 320 320 320 320-143.27 320-320" fill="#c84755"/><path d="m433.531 108.984c-4.179 0-8.383 1-12.222 3.024l-101.313 53.273-101.316-53.273c-3.836-2.024-8.043-3.024-12.219-3.024-5.469 0-10.883 1.684-15.43 5.024-8.093 5.887-12.14 15.847-10.461 25.703l19.344 112.824-81.973 79.895c-7.171 6.992-9.75 17.425-6.648 26.941 3.074 9.512 11.301 16.449 21.211 17.895l113.273 16.453 50.645 102.629c4.441 8.988 13.558 14.668 23.574 14.668 10.012 0 19.133-5.68 23.574-14.668l50.668-102.629 113.274-16.453c9.883-1.446 18.109-8.383 21.211-17.895 3.074-9.516.5-19.976-6.649-26.941l-81.972-79.895 19.343-112.824c1.68-9.856-2.367-19.816-10.461-25.703-4.574-3.34-10.011-5.024-15.453-5.024" fill="#a43f4a"/><path d="m528.723 379.371c-3.102 9.512-11.328 16.449-21.211 17.895l-113.274 16.453-50.668 102.629c-4.441 8.988-13.562 14.668-23.574 14.668-10.016 0-19.133-5.68-23.574-14.668l-50.645-102.629-113.273-16.453c-9.91-1.446-18.137-8.383-21.211-17.895-3.102-9.516-.523-19.949 6.648-26.941l81.973-79.895-19.344-112.824c-1.679-9.856 2.368-19.816 10.461-25.703 4.547-3.34 9.961-5.024 15.43-5.024 4.176 0 8.383 1 12.219 3.024l101.316 53.273 101.313-53.273c3.839-2.024 8.043-3.024 12.222-3.024 5.442 0 10.879 1.684 15.453 5.024 8.094 5.887 12.141 15.847 10.461 25.703l-19.343 112.824 81.972 79.895c7.149 6.965 9.723 17.425 6.649 26.941" fill="#f3cc70"/></g></svg>