<svg height="85.333328" viewBox="0 0 85.333328 85.333328" width="85.333328" xmlns="http://www.w3.org/2000/svg"><g transform="matrix(.13333333 0 0 -.13333333 0 85.333331)"><path d="m640 320c0-176.73-143.27-320-320-320s-320 143.27-320 320 143.27 320 320 320 320-143.27 320-320" fill="#7db6d8"/><path d="m280 167.59v44.82c0 31.805-25.781 57.59-57.59 57.59l-72.34-6.902c-2.359 9.566-3.929 19.453-4.64 29.558l76.98 7.344c31.809 0 57.59-25.785 57.59-57.59zm80 44.82v30c0 31.805 25.781 57.59 57.59 57.59l76.98-7.344c-.711-10.105-2.281-19.992-4.64-29.558l-72.34 6.902c-31.809 0-57.59-25.785-57.59-57.59" fill="#6594b2"/><path d="m120 360c-11.996 0 .023 20.371-11.367 20.988-5.582-19.371-8.633-39.82-8.633-60.988 0-7.566.383-15.047 1.129-22.418 5.219 1.555 10.734-7.582 16.461-7.582l104.82 10c31.809 0 57.59-25.785 57.59-57.59v-74.82c0-24.527-15.359-45.418-36.965-53.719 23.961-8.949 49.883-13.871 76.965-13.871s53.004 4.922 76.965 13.871c-21.606 8.301-36.965 29.192-36.965 53.719v74.82c0 31.805 25.781 57.59 57.59 57.59l104.82-10c5.727 0 11.242 9.137 16.461 7.582.742 7.371 1.129 14.852 1.129 22.418 0 21.168-3.051 41.617-8.633 60.988-11.39-.617.629-20.988-11.367-20.988 0 0-120 20-200 20s-200-20-200-20" fill="#495672"/><path d="m320 280c-16.57 0-30 13.43-30 30s13.43 30 30 30 30-13.43 30-30-13.43-30-30-30" fill="#404a5f"/><path d="m350 320c0-16.57-13.43-30-30-30s-30 13.43-30 30 13.43 30 30 30 30-13.43 30-30" fill="#77caa9"/><path d="m320 80c-121.504 0-220 98.496-220 220 0 3.352.074 6.695.223 10.012.187-4.176.492-8.321.906-12.43.41.121.82.18 1.234.18 4.852 0 9.95-7.762 15.227-7.762l5.519.527c3.016-9.629 5.743-19.324 7.668-29.269l19.293 1.84c14.934-60.563 61.493-108.813 121.078-126.16-6.589-10.422-16.441-18.583-28.113-23.067 23.961-8.949 49.883-13.871 76.965-13.871s53.004 4.922 76.965 13.871c-11.672 4.484-21.524 12.645-28.113 23.067 59.586 17.347 106.144 65.597 121.078 126.16l19.48-1.86v.012c1.094 10.148 3.856 19.75 6.613 29.359l6.387-.609c5.278 0 10.375 7.762 15.227 7.762.414 0 .824-.059 1.234-.18.414 4.109.719 8.254.906 12.43.149-3.317.223-6.66.223-10.012 0-121.504-98.496-220-220-220m200 280s-14.059 2.344-35.754 5.426c-24.652 66.808-88.976 114.574-164.246 114.574s-139.59-47.766-164.246-114.574c-21.695-3.082-35.754-5.426-35.754-5.426-8.633 0-4.828 10.551-6.262 16.695 31.129 83.692 111.731 143.305 206.262 143.305s175.133-59.613 206.262-143.305c-1.434-6.144 2.371-16.695-6.262-16.695" fill="#6594b2"/><path d="m509.41 261.238-19.48 1.86c2.359 9.566 3.929 19.453 4.64 29.558l21.453-2.047c-2.757-9.609-5.519-19.211-6.613-29.359zm-378.633.02c-1.925 9.945-4.652 19.64-7.668 29.269l22.321 2.129c.711-10.105 2.281-19.992 4.64-29.558z" fill="#567a95"/><path d="m320 100c-27.082 0-53.004 4.922-76.965 13.871 11.672 4.484 21.524 12.645 28.113 23.067 15.512-4.516 31.903-6.938 48.852-6.938s33.34 2.422 48.852 6.938c6.589-10.422 16.441-18.583 28.113-23.067-23.961-8.949-49.883-13.871-76.965-13.871m202.41 190-6.387.609-21.453 2.047c.285 4.082.43 8.192.43 12.344 0 21.227-3.801 41.582-10.754 60.426 21.695-3.082 35.754-5.426 35.754-5.426 8.633 0 4.828 10.551 6.262 16.695 7.777-20.91 12.468-43.324 13.515-66.683-.187-4.176-.492-8.321-.906-12.43-.41.121-.82.18-1.234.18-4.852 0-9.949-7.762-15.227-7.762m-404.82 0c-5.277 0-10.375 7.762-15.227 7.762-.414 0-.824-.059-1.234-.18-.414 4.109-.719 8.254-.906 12.43 1.047 23.359 5.738 45.773 13.515 66.683 1.434-6.144-2.371-16.695 6.262-16.695 0 0 14.059 2.344 35.754 5.426-6.953-18.844-10.754-39.199-10.754-60.426 0-4.152.145-8.262.43-12.344l-22.321-2.129z" fill="#404a5f"/><path d="m320 540c-121.504 0-220-98.496-220-220s98.496-220 220-220 220 98.496 220 220-98.496 220-220 220zm0-40c99.254 0 180-80.746 180-180s-80.746-180-180-180-180 80.746-180 180 80.746 180 180 180" fill="#495672"/></g></svg>