<svg height="85.333328" viewBox="0 0 85.333328 85.333328" width="85.333328" xmlns="http://www.w3.org/2000/svg"><g transform="matrix(.13333333 0 0 -.13333333 0 85.333331)"><path d="m640 320c0-176.73-143.27-320-320-320s-320 143.27-320 320 143.27 320 320 320 320-143.27 320-320" fill="#495672"/><path d="m376.984 90h-113.968c-16.5 0-39.547 9.5469-51.215 21.215l-80.586 80.586c-11.668 11.668-21.215 34.715-21.215 51.215v113.968c0 16.5 9.547 39.547 21.215 51.215l80.586 80.586c11.668 11.668 34.715 21.215 51.215 21.215h113.968c16.5 0 39.547-9.547 51.215-21.215l80.586-80.586c11.668-11.668 21.215-34.715 21.215-51.215v-113.968c0-16.5-9.547-39.547-21.215-51.215l-80.586-80.586c-11.668-11.6681-34.715-21.215-51.215-21.215" fill="#404a5f"/><path d="m263.016 110c-16.5 0-39.547 9.547-51.215 21.215l-80.586 80.586c-11.668 11.668-21.215 34.715-21.215 51.215v113.968c0 16.5 9.547 39.547 21.215 51.215l80.586 80.586c11.668 11.668 34.715 21.215 51.215 21.215h113.968c16.5 0 39.547-9.547 51.215-21.215l80.586-80.586c11.668-11.668 21.215-34.715 21.215-51.215v-113.968c0-16.5-9.547-39.547-21.215-51.215l-80.586-80.586c-11.668-11.668-34.715-21.215-51.215-21.215z" fill="#c84755"/><path d="m450 300c0-22.09-17.91-40-40-40h-180c-22.09 0-40 17.91-40 40v40c0 22.09 17.91 40 40 40h180c22.09 0 40-17.91 40-40z" fill="#fff"/></g></svg>