<svg height="85.333328" viewBox="0 0 85.333328 85.333328" width="85.333328" xmlns="http://www.w3.org/2000/svg"><g transform="matrix(.13333333 0 0 -.13333333 0 85.333331)"><path d="m640 320c0-176.73-143.27-320-320-320s-320 143.27-320 320 143.27 320 320 320 320-143.27 320-320" fill="#e08e4c"/><path d="m440 90h-240c-11.047 0-20 8.9531-20 20v380-360c0-11.047 8.953-20 20-20h240c11.047 0 20 8.953 20 20v-20c0-11.0469-8.953-20-20-20" fill="#b77744"/><path d="m460 130c0-11.047-8.953-20-20-20h-240c-11.047 0-20 8.953-20 20v380c0 11.047 8.953 20 20 20h240c11.047 0 20-8.953 20-20z" fill="#f3cc70"/><path d="m425 245c0-57.988-47.012-105-105-105s-105 47.012-105 105 47.012 105 105 105 105-47.012 105-105" fill="#495672"/><path d="m424.496 235c-5.043 53.297-49.883 95-104.496 95s-99.453-41.703-104.496-95c-.313 3.297-.504 6.625-.504 10 0 57.988 47.012 105 105 105s105-47.012 105-105c0-3.375-.191-6.703-.504-10" fill="#404a5f"/><path d="m385 435c0-35.898-29.102-65-65-65s-65 29.102-65 65 29.102 65 65 65 65-29.102 65-65" fill="#495672"/><path d="m320 197.223c-13.5 0-24.445 10.945-24.445 24.445s10.945 24.441 24.445 24.441 24.445-10.941 24.445-24.441-10.945-24.445-24.445-24.445" fill="#404a5f"/><path d="m320 392.727c-13.055 0-23.637 10.582-23.637 23.636 0 13.055 10.582 23.637 23.637 23.637s23.637-10.582 23.637-23.637c0-13.054-10.582-23.636-23.637-23.636" fill="#404a5f"/><path d="m344.445 240c0-13.5-10.945-24.445-24.445-24.445s-24.445 10.945-24.445 24.445 10.945 24.445 24.445 24.445 24.445-10.945 24.445-24.445" fill="#495672"/><path d="m343.637 435c0-13.055-10.582-23.637-23.637-23.637s-23.637 10.582-23.637 23.637 10.582 23.637 23.637 23.637 23.637-10.582 23.637-23.637" fill="#495672"/><path d="m383.875 423.184c-5.566 30.246-23.875 56.816-63.875 56.816s-58.309-26.57-63.875-56.816c-.707 3.836-1.125 7.773-1.125 11.816 0 35.898 29.102 65 65 65s65-29.102 65-65c0-4.043-.418-7.98-1.125-11.816" fill="#404a5f"/></g></svg>