<svg height="85.333328" viewBox="0 0 85.333328 85.333328" width="85.333328" xmlns="http://www.w3.org/2000/svg"><g transform="matrix(.13333333 0 0 -.13333333 0 85.333331)"><path d="m640 320c0-176.73-143.27-320-320-320s-320 143.27-320 320 143.27 320 320 320 320-143.27 320-320" fill="#495672"/><path d="m441.652 374.164s-38.961 65.836-55.839 65.836h-91.68c-16.875 0-55.84-65.836-55.84-65.836 0-30.832 8.402-45.828 25.281-45.828h152.797c16.879 0 25.281 14.996 25.281 45.828" fill="#f3cc70"/><path d="m208.293 257.086s40.258-65.836 57.695-65.836h156.719c17.438 0 57.695 65.836 57.695 65.836 0 30.832-8.679 45.828-26.121 45.828h-219.867c-17.437 0-26.121-14.996-26.121-45.828" fill="#f3cc70"/><path d="m159.609 280.113c0-10.937-28.867-59.804-39.804-59.804-10.938 0-19.805 8.867-19.805 19.804v139.809c0 10.937 8.867 19.805 19.805 19.805 10.937 0 39.804-48.868 39.804-59.805z" fill="#e08e4c"/><path d="m445.422 208.324c17.094 19.504 34.98 48.762 34.98 48.762 0 30.832-8.679 45.828-26.121 45.828h-219.867c-17.437 0-26.121-14.996-26.121-45.828 0 0 13.223-21.621 27.793-40.082-33.383 9.039-64.742 20.613-90.484 31.992 7.773 12.758 14.007 26.031 14.007 31.117v57.301c23.473 9.613 50.567 18.992 79.036 26.492 1.75-23.906 10.043-35.57 24.929-35.57h152.797c16.559 0 24.957 14.43 25.274 44.082 71.859-13.082 118.355-42.367 118.355-82.402 0-39.325-44.875-68.278-114.578-81.692m-345.422 63.989c-12.6953 7.804-20 14.187-20 17.703 0 3.742 7.3047 10.246 20 18.113z" fill="#404a5f"/><path d="m416.371 328.336h-152.797c-14.886 0-23.179 11.664-24.929 35.57 36.414 9.594 75.085 16.11 111.355 16.11 33.43 0 64.367-2.633 91.645-7.598-.317-29.652-8.715-44.082-25.274-44.082" fill="#c7a85f"/><path d="m350 200.016c-37.117 0-76.762 6.922-113.914 16.988-14.57 18.461-27.793 40.082-27.793 40.082 0 30.832 8.684 45.828 26.121 45.828h219.867c17.442 0 26.121-14.996 26.121-45.828 0 0-17.886-29.258-34.98-48.762-28.192-5.426-60.434-8.308-95.422-8.308" fill="#c7a85f"/><path d="m145.602 248.996c-18.59 8.219-34.254 16.34-45.602 23.317v35.816c14.098 8.73 34.844 19.141 59.609 29.285v-57.301c0-5.086-6.234-18.359-14.007-31.117" fill="#b77744"/><path d="m560 310.016c0 55.23-88.496 90-210 90s-270-73.141-270-90c0-15.852 148.496-90 270-90s210 34.773 210 90" fill="#f3cc70"/><g fill="#e08e4c"><path d="m390 320c0-16.57-13.43-30-30-30s-30 13.43-30 30 13.43 30 30 30 30-13.43 30-30"/><path d="m490 320c0-16.57-13.43-30-30-30s-30 13.43-30 30 13.43 30 30 30 30-13.43 30-30"/><path d="m290 320c0-16.57-13.43-30-30-30s-30 13.43-30 30 13.43 30 30 30 30-13.43 30-30"/></g></g></svg>