<svg height="85.333328" viewBox="0 0 85.333328 85.333328" width="85.333328" xmlns="http://www.w3.org/2000/svg"><g transform="matrix(.13333333 0 0 -.13333333 0 85.333331)"><path d="m640 320c0-176.73-143.27-320-320-320s-320 143.27-320 320 143.27 320 320 320 320-143.27 320-320" fill="#495672"/><path d="m320 80c-42.664 0-82.492 12.1445-116.219 33.168.449.387.887.793 1.313 1.215l11.426 11.426c30.839-16.469 66.074-25.809 103.48-25.809s72.641 9.34 103.48 25.809l11.426-11.426c.426-.422.864-.828 1.313-1.215-33.723-21.0235-73.555-33.168-116.219-33.168m-186.832 103.781c-21.023 33.727-33.168 73.555-33.168 116.219 0 3.352.074 6.684.223 10 1.968-43.973 16.84-84.582 40.925-118.141l-6.761-6.765c-.426-.426-.832-.864-1.219-1.313m373.664 0c-.387.449-.793.887-1.215 1.313l-6.765 6.765c24.086 33.559 38.957 74.168 40.925 118.141.149-3.316.223-6.648.223-10 0-42.664-12.145-82.492-33.168-116.219m-67.242 126.219c-.918 11.098-3.344 21.77-7.074 31.805l4.574 4.578c1.906-8.492 2.91-17.317 2.91-26.383 0-3.367-.137-6.699-.41-10m-239.18 0c-.273 3.301-.41 6.633-.41 10 0 9.066 1.004 17.891 2.91 26.379l4.574-4.574c-3.73-10.035-6.156-20.707-7.074-31.805m161.395 102.516c-13.02 4.839-27.102 7.484-41.805 7.484s-28.785-2.645-41.805-7.484l-13.836 13.836c16.633 8.714 35.563 13.648 55.641 13.648s39.008-4.934 55.641-13.652z" fill="#404a5f"/><path d="m440 320c0-66.273-53.727-120-120-120s-120 53.727-120 120 53.727 120 120 120 120-53.727 120-120m-340 0c0-121.504 98.496-220 220-220s220 98.496 220 220-98.496 220-220 220-220-98.496-220-220" fill="#fff"/><path d="m224.855 333.84c-5.792 0-11.691 2.285-16.222 6.82l-1.149 1.145c12.133 32.644 38.067 58.578 70.711 70.711l1.145-1.149c8.789-8.785 9.129-22.691.758-31.058l-40.407-40.407c-4.046-4.05-9.398-6.062-14.836-6.062m-96.957 93.465c-1.164 6.679.727 13.66 5.731 18.664l40.402 40.402c2.293 2.297 5 3.934 7.907 4.926-21.84-17.629-40.247-39.348-54.04-63.992" fill="#404a5f"/><path d="m207.484 341.805-4.574 4.574c7.801 34.777 30.699 63.848 61.449 79.973l13.836-13.836c-32.644-12.133-58.578-38.067-70.711-70.711" fill="#394051"/><path d="m202.91 346.379-68.523 68.527c-3.539 3.535-5.707 7.899-6.489 12.399 13.793 24.644 32.2 46.363 54.04 63.992 2.226.758 4.57 1.137 6.929 1.137 5.797 0 11.696-2.286 16.227-6.817l59.265-59.265c-30.75-16.125-53.648-45.196-61.449-79.973" fill="#d4d3d1"/><path d="m451.133 107.566c-5.254 0-10.586 1.875-14.914 5.602 28.594 17.82 52.793 42.02 70.613 70.613 7.582-8.808 7.504-21.785-.461-29.75l-40.402-40.402c-4.051-4.055-9.399-6.063-14.836-6.063m-97.293 97.274c-.004 5.441 2.008 10.797 6.062 14.851l40.407 40.407c4.05 4.05 9.398 6.062 14.836 6.062 3.652 0 7.347-.91 10.718-2.719-15.031-28.074-40.902-49.472-72.023-58.601" fill="#404a5f"/><path d="m436.219 113.168c-.449.387-.887.793-1.313 1.215l-11.426 11.426c29.922 15.972 55.711 38.664 75.372 66.05l6.765-6.765c.422-.426.828-.864 1.215-1.313-17.82-28.593-42.019-52.793-70.613-70.613" fill="#394051"/><path d="m423.48 125.809-62.82 62.824c-4.531 4.527-6.812 10.414-6.82 16.207 31.121 9.129 56.992 30.527 72.023 58.601 1.973-1.058 3.832-2.425 5.504-4.101l67.485-67.481c-19.661-27.386-45.45-50.078-75.372-66.05" fill="#d4d3d1"/><path d="m415.145 333.84c-5.442 0-10.786 2.012-14.836 6.062l-40.407 40.407c-8.371 8.367-8.031 22.273.758 31.058l1.145 1.149c32.644-12.133 58.578-38.067 70.711-70.711l-1.149-1.145c-4.531-4.535-10.429-6.82-16.222-6.82m96.957 93.465c-13.793 24.64-32.2 46.367-54.039 63.992 2.906-.992 5.613-2.629 7.906-4.926l40.402-40.402c5.004-5.004 6.895-11.981 5.731-18.664" fill="#404a5f"/><path d="m432.516 341.805c-12.133 32.644-38.067 58.578-70.711 70.711l13.836 13.832c30.75-16.121 53.648-45.192 61.449-79.965z" fill="#394051"/><path d="m437.09 346.383c-7.801 34.773-30.699 63.844-61.449 79.965l59.265 59.269c4.532 4.531 10.43 6.817 16.227 6.817 2.359 0 4.703-.379 6.93-1.137 21.839-17.625 40.246-39.352 54.039-63.992-.782-4.5-2.95-8.864-6.485-12.399z" fill="#d4d3d1"/><path d="m188.867 107.566c-5.437 0-10.781 2.008-14.836 6.063l-40.402 40.402c-7.965 7.965-8.043 20.942-.461 29.75 17.82-28.593 42.02-52.793 70.613-70.613-4.328-3.727-9.66-5.602-14.914-5.602m97.293 97.274c-31.117 9.129-56.992 30.527-72.023 58.601 3.371 1.809 7.066 2.719 10.722 2.719 5.438 0 10.782-2.012 14.832-6.062l40.407-40.407c4.058-4.054 6.066-9.41 6.062-14.851" fill="#404a5f"/><path d="m203.781 113.168c-28.593 17.82-52.793 42.02-70.613 70.613.387.449.793.887 1.219 1.313l6.761 6.765c19.661-27.386 45.45-50.078 75.372-66.05l-11.426-11.426c-.426-.422-.864-.828-1.313-1.215" fill="#394051"/><path d="m216.52 125.809c-29.922 15.972-55.711 38.664-75.372 66.05l67.485 67.481c1.672 1.676 3.531 3.043 5.504 4.101 15.031-28.074 40.906-49.472 72.023-58.601-.004-5.793-2.289-11.68-6.82-16.207z" fill="#d4d3d1"/><g fill="#e08e4c"><path d="m279.34 431.367c8.789-8.785 9.129-22.691.758-31.058l-40.407-40.407c-8.367-8.371-22.273-8.031-31.058.758l-74.25 74.246c-8.785 8.785-9.125 22.692-.754 31.063l40.402 40.402c8.371 8.371 22.278 8.031 31.063-.754z"/><path d="m505.617 205.094c8.785-8.785 9.125-22.692.754-31.063l-40.402-40.402c-8.371-8.371-22.278-8.031-31.063.754l-74.246 74.25c-8.789 8.785-9.129 22.691-.758 31.058l40.407 40.407c8.367 8.371 22.273 8.031 31.058-.758z"/><path d="m431.367 360.66c-8.785-8.789-22.691-9.129-31.058-.758l-40.407 40.407c-8.371 8.367-8.031 22.273.758 31.058l74.246 74.25c8.785 8.785 22.692 9.125 31.063.754l40.402-40.402c8.371-8.371 8.031-22.278-.754-31.063z"/><path d="m205.094 134.383c-8.785-8.785-22.692-9.125-31.063-.754l-40.402 40.402c-8.371 8.371-8.031 22.278.754 31.063l74.25 74.246c8.785 8.789 22.691 9.129 31.058.758l40.407-40.407c8.371-8.367 8.031-22.273-.758-31.058z"/></g></g></svg>