<svg height="85.333328" viewBox="0 0 85.333328 85.333328" width="85.333328" xmlns="http://www.w3.org/2000/svg"><g transform="matrix(.13333333 0 0 -.13333333 0 85.333331)"><path d="m640 320c0-176.73-143.27-320-320-320s-320 143.27-320 320 143.27 320 320 320 320-143.27 320-320" fill="#495672"/><path d="m184.586 128.234c-7.645.422-14.695 5.235-17.602 12.848l-2.441 6.398 8.672-2.89 8.879-13.309c.742-1.113 1.578-2.133 2.492-3.047m81.477 29.246 2.476 7.43 35.277 23.535 231.653 88.395c2.324.887 4.386 2.16 6.144 3.719 1.942-9.43-3.179-19.145-12.468-22.688zm-128.637 62.145c-1.078 6.34.996 12.734 5.344 17.234-1.989-3.98-2.61-8.558-1.711-12.964-1.434-1.266-2.649-2.707-3.633-4.27" fill="#404a5f"/><path d="m192.004 157.18c-4.121 0-7.883 2.586-9.348 6.437l-28.523 74.742c-.957 2.496-.879 5.215.215 7.653 1.09 2.433 3.062 4.301 5.562 5.254l336.34 128.347c1.152.442 2.355.66 3.563.66 4.125 0 7.882-2.582 9.347-6.433l28.516-74.746c.957-2.5.879-5.215-.203-7.653-1.094-2.437-3.071-4.3-5.571-5.257l-336.343-128.348c-1.157-.434-2.344-.656-3.555-.656" fill="#7db6d8"/><path d="m499.816 390.277c-2.371-.004-4.781-.425-7.128-1.32l-336.344-128.348c-10.321-3.937-15.492-15.496-11.555-25.812l28.52-74.746c3.043-7.973 10.636-12.875 18.691-12.875 2.367 0 4.781.426 7.125 1.32l336.344 128.344c10.32 3.937 15.496 15.496 11.558 25.816l-28.523 74.746c-3.043 7.973-10.633 12.875-18.688 12.875m.004-20.007 28.52-74.743-336.344-128.343-28.523 74.742z" fill="#e1e3cc"/><path d="m198.746 122.379c-5.215 0-10.348 2.035-14.16 5.855.359-.019.723-.027 1.09-.027 2.371 0 4.781.426 7.125 1.32l.504.192 4.379-4.297c1.144-1.121 2.386-2.078 3.703-2.867-.875-.117-1.758-.176-2.641-.176m-63.18 79.617c-2.179 5.887-1.429 12.426 1.86 17.629.215-1.273.558-2.547 1.039-3.801l2.187-5.73-.375-.383c-2.211-2.258-3.781-4.902-4.711-7.715" fill="#404a5f"/><path d="m185.676 128.207c-.367 0-.731.008-1.09.027-.914.914-1.75 1.934-2.492 3.047l-8.879 13.309 7.453-2.485 12.637-12.386-.504-.192c-2.344-.894-4.754-1.32-7.125-1.32m82.863 36.703 2.129 6.387 7.047 7.187 26.101 9.961zm-127.887 45.184-2.187 5.73c-.481 1.254-.824 2.528-1.039 3.801.984 1.563 2.199 3.004 3.633 4.27.203-.985.48-1.965.836-2.922-1.094-3.313-1.301-6.852-.622-10.243z" fill="#394051"/><path d="m327.105 218.738 183.758 122.59 3.938-10.324c-1.414-2.106-3.258-3.977-5.5-5.473l-130.52-87.074z" fill="#6594b2"/><path d="m277.715 178.484 20.695 21.114 28.695 19.14 51.676 19.719-74.965-50.012zm237.086 152.52-3.938 10.324 4.766 3.18c.769.515 1.496 1.074 2.172 1.672 1.07-5.242-.016-10.735-3-15.176" fill="#b7b7a7"/><path d="m205.078 151.352c-3.359 0-6.484 1.668-8.34 4.461l-44.394 66.546c-1.485 2.219-2.012 4.887-1.492 7.504.527 2.621 2.039 4.883 4.253 6.367l299.473 199.782c1.652 1.101 3.567 1.683 5.539 1.683 3.36 0 6.477-1.664 8.328-4.453l44.399-66.547c1.48-2.222 2.011-4.886 1.492-7.504-.527-2.625-2.039-4.882-4.258-6.371l-299.473-199.785c-1.652-1.101-3.566-1.683-5.527-1.683" fill="#77caa9"/><path d="m460.113 447.695c-3.816 0-7.672-1.086-11.082-3.363l-299.472-199.789c-9.192-6.129-11.668-18.547-5.539-27.734l44.398-66.551c3.852-5.778 10.195-8.903 16.652-8.903 3.817 0 7.672 1.09 11.082 3.364l299.477 199.789c9.187 6.129 11.668 18.547 5.539 27.734l-44.398 66.551c-3.856 5.777-10.196 8.902-16.657 8.902m.02-20 44.394-66.55-299.472-199.79-44.399 66.551z" fill="#e1e3cc"/><path d="m211.684 119.703c-3.567 0-7.137.949-10.297 2.852 2.929.39 5.816 1.437 8.441 3.187l.813.543 5.808-3.484c.996-.598 2.028-1.098 3.074-1.504-2.496-1.063-5.168-1.594-7.839-1.594" fill="#404a5f"/><path d="m201.387 122.555c-1.317.789-2.559 1.746-3.703 2.867l-4.379 4.297 7.09 2.707 10.246-6.141-.813-.543c-2.625-1.75-5.512-2.797-8.441-3.187" fill="#394051"/><path d="m193.305 129.719-12.637 12.386 8.055-2.683 11.672-6.996zm77.363 41.578 1.719 5.156 5.328 2.031z" fill="#343945"/><path d="m272.387 176.453.582 1.746 4.414 7.367 21.027 14.032-20.695-21.114z" fill="#97978c"/><path d="m331.066 245.422 149.164 152.144 3.11-4.66c-.727-3.703-2.504-7.242-5.348-10.14l-111.441-113.672z" fill="#62a48d"/><path d="m277.383 185.566 7.863 13.122 45.82 46.734 35.485 23.672-68.141-69.496zm205.957 207.34-3.11 4.66 3.09 3.153c.516-2.574.524-5.235.02-7.813" fill="#b7b7a7"/><path d="m138.324 184.023c-3.804 5.274-4.73 11.993-2.758 17.973.536-1.437 1.243-2.836 2.129-4.164l3.758-5.637-.496-.832c-1.394-2.324-2.258-4.816-2.633-7.34" fill="#404a5f"/><path d="m141.453 192.195-3.758 5.637c-.886 1.328-1.593 2.727-2.129 4.164.93 2.813 2.5 5.457 4.711 7.715l.375.383 3.782-9.91c-.004-.918.05-1.829.171-2.735z" fill="#394051"/><path d="m144.434 200.184-3.782 9.91.621.636c.551-2.738 1.676-5.382 3.375-7.738-.14-.933-.21-1.875-.214-2.808" fill="#343945"/><path d="m218.008 148.672c-2.637 0-5.125 1.016-7 2.859l-57.121 56.008c-1.914 1.875-2.981 4.375-3.008 7.047-.02 2.664.996 5.187 2.859 7.094l252.035 257.066c1.895 1.934 4.43 2.996 7.137 2.996 2.637 0 5.117-1.015 7-2.859l57.121-56c1.914-1.875 2.981-4.375 3.008-7.047.02-2.672-.996-5.191-2.859-7.098l-252.032-257.062c-1.894-1.942-4.433-3.004-7.14-3.004" fill="#f3cc70"/><path d="m412.91 491.742c-5.183 0-10.363-2.004-14.281-5.996l-252.027-257.066c-7.735-7.887-7.61-20.547.281-28.282l57.125-56.007c3.89-3.817 8.945-5.719 14-5.719 5.183 0 10.363 2.004 14.281 6l252.027 257.062c7.735 7.887 7.61 20.551-.277 28.286l-57.129 56.003c-3.89 3.817-8.945 5.719-14 5.719m0-20 57.125-56.004-252.027-257.062-57.125 56.004 252.008 257.062z" fill="#fff"/><path d="m226.715 119.953c-2.418 0-4.856.438-7.192 1.344 2.348 1 4.543 2.469 6.442 4.406l.965.981 7.008-2.336c1.351-.45 2.722-.75 4.085-.903-3.339-2.281-7.293-3.492-11.308-3.492" fill="#404a5f"/><path d="m144.48 166.441c-4.867 4.524-7.109 11.153-6.156 17.582.66-.91 1.403-1.781 2.235-2.593l5.269-5.168-.437-1.317c-.942-2.828-1.219-5.722-.911-8.504" fill="#404a5f"/><path d="m219.523 121.297c-1.046.406-2.078.906-3.074 1.504l-5.808 3.484 5.828 3.887 10.461-3.488-.965-.981c-1.899-1.937-4.094-3.406-6.442-4.406m-73.695 54.965-5.269 5.168c-.832.812-1.575 1.683-2.235 2.593.375 2.524 1.239 5.016 2.633 7.34l.496.832 6.461-9.683z" fill="#394051"/><path d="m210.641 126.285-10.246 6.141 4.343 1.656 11.731-3.91zm-62.727 56.227-6.461 9.683 3.152 5.254c.508-3.863 2.141-7.558 4.766-10.558z" fill="#343945"/><path d="m200.395 132.426-11.672 6.996 16.015-5.34z" fill="#31333d"/><path d="m272.969 178.199 1.894 5.688 2.52 1.679z" fill="#7d7c76"/><path d="m274.863 183.887 2.129 6.379 8.254 8.422-7.863-13.122z" fill="#97978c"/><path d="m316.313 258.941 115.312 192.411c.57-4.321-.262-8.856-2.676-12.883l-99.656-166.289z" fill="#c7a85f"/><path d="m276.992 190.266 2.301 6.91 37.02 61.765 12.98 13.239-44.047-73.492z" fill="#d4d3d1"/><path d="m233.035 148.926c-1.797 0-3.562.492-5.113 1.426l-68.637 41.128c-2.281 1.372-3.902 3.555-4.551 6.141-.652 2.594-.254 5.277 1.125 7.574l185.059 308.789c1.824 3.047 5.039 4.864 8.594 4.864 1.797 0 3.562-.493 5.117-1.426l68.633-41.121c4.726-2.832 6.269-8.992 3.437-13.723l-185.058-308.789c-1.828-3.047-5.047-4.863-8.606-4.863" fill="#e08e4c"/><path d="m349.52 528.848c-6.797 0-13.426-3.465-17.176-9.719l-185.063-308.793c-5.679-9.477-2.601-21.758 6.875-27.438l68.617-41.125c3.223-1.929 6.766-2.847 10.262-2.847 6.801 0 13.426 3.469 17.176 9.722l185.062 308.79c5.68 9.476 2.602 21.761-6.875 27.437l-68.617 41.125c-3.222 1.93-6.765 2.848-10.261 2.848m-.02-20.004v.004l68.617-41.129-185.062-308.789-68.617 41.125 185.042 308.785z" fill="#fff"/><path d="m240.262 123.316c-.742 0-1.489.043-2.239.129 2.313 1.578 4.329 3.672 5.864 6.231l7.992 13.332c6.215 1.711 11.488 6.39 13.68 12.965l.504 1.507-6.829-20.484c-2.793-8.379-10.597-13.68-18.972-13.68m-75.719 24.164-6.504 2.168c-7.648 2.551-12.73 9.274-13.559 16.793 1.004-.933 2.125-1.781 3.352-2.515l13.531-8.11z" fill="#404a5f"/><path d="m173.215 144.59-8.672 2.89-3.18 8.336 7.266-4.351zm92.848 12.89 2.476 7.43z" fill="#394051"/><path d="m180.668 142.105-7.453 2.485-4.586 6.875 6.418-3.848zm87.871 22.805 2.129 6.387z" fill="#343945"/><path d="m188.723 139.422-8.055 2.683-5.621 5.512zm81.945 31.875 1.719 5.156z" fill="#31333d"/><path d="m272.387 176.453.582 1.746z" fill="#7d7c76"/><path d="m238.023 123.445c-1.363.153-2.734.453-4.085.903l-7.008 2.336 13.312 13.582c1.442.55 2.821 1.273 4.11 2.152.746-.086 1.492-.129 2.238-.129 1.801 0 3.582.246 5.289.719l-7.992-13.332c-1.535-2.559-3.551-4.653-5.864-6.231" fill="#394051"/><path d="m161.363 155.816-13.531 8.11c-1.227.734-2.348 1.582-3.352 2.515-.308 2.782-.031 5.676.911 8.504l.437 1.317 12.356-12.114z" fill="#394051"/><path d="m168.629 151.465-7.266 4.351-3.179 8.332 5.726-5.613z" fill="#343945"/><path d="m175.047 147.617-6.418 3.848-4.719 7.07z" fill="#31333d"/><path d="m226.93 126.684-10.461 3.488 13.48 8.996c1.028-.16 2.059-.242 3.086-.242 2.469 0 4.914.457 7.207 1.34zm-68.746 37.464-12.356 12.114 2.086 6.25 7.621-11.426z" fill="#343945"/><path d="m163.91 158.535-5.726 5.613-2.649 6.938z" fill="#31333d"/><path d="m216.469 130.172-11.731 3.91 12.121 4.625c.383-.023.766-.035 1.149-.035 2.672 0 5.344.535 7.844 1.598 1.339-.52 2.714-.887 4.097-1.102zm-60.934 40.914-7.621 11.426 1.457 4.379c.078-.09.156-.176.234-.262z" fill="#31333d"/><path d="m204.738 134.082-16.015 5.34-13.676 8.195-11.137 10.918-8.375 12.551-5.93 15.543c.379-.422.782-.824 1.2-1.215.832-7.519 5.914-14.242 13.562-16.793l6.5-2.168 2.442-6.402c2.906-7.613 9.961-12.426 17.605-12.844 3.813-3.82 8.945-5.852 14.156-5.852.879 0 1.758.055 2.633.172 2.82-1.699 5.973-2.64 9.156-2.82z" fill="#2d2e36"/><path d="m190.914 147.207c-7.644.418-14.699 5.231-17.605 12.844l-2.442 6.402 8.672-2.89 8.879-13.305c.742-1.117 1.582-2.137 2.496-3.051m82.055 30.992 1.894 5.688z" fill="#696663"/><path d="m205.07 141.355c-5.211 0-10.343 2.032-14.156 5.852-.914.914-1.754 1.934-2.496 3.051l-8.879 13.305 7.445-2.481 17.024-16.691c1.14-1.118 2.383-2.075 3.695-2.864-.875-.117-1.754-.172-2.633-.172m69.793 42.532 2.129 6.379z" fill="#7d7c76"/><path d="m218.008 138.672c-.383 0-.766.012-1.149.035-3.183.18-6.336 1.121-9.156 2.82-1.312.789-2.555 1.746-3.695 2.864l-17.024 16.691 8.055-2.684 27.734-16.625c1-.597 2.028-1.097 3.079-1.503-2.5-1.063-5.172-1.598-7.844-1.598m58.984 51.594 2.301 6.906v.004z" fill="#aeabaa"/><path d="m176.512 268.309 82.722 248.164c.012.031.024.058.032.09z" fill="#404a5f"/><path d="m174.035 260.875 2.477 7.434z" fill="#b7b7a7"/><path d="m171.906 254.492 2.129 6.383-2.125-6.379z" fill="#b7b7a7"/><path d="m169.605 247.59 2.301 6.902.004.004z" fill="#d4d3d1"/><path d="m308.516 284.836 64.574 193.715c-.004-.008-.008-.02-.012-.028l-64.562-193.683z" fill="#b77744"/><path d="m233.035 138.926c-1.027 0-2.058.082-3.086.242-1.383.215-2.758.582-4.097 1.102-1.051.406-2.079.906-3.079 1.503l-27.734 16.625 45.223-15.074c1.351-.453 2.722-.75 4.09-.906-1.289-.879-2.668-1.602-4.11-2.152-2.293-.883-4.738-1.34-7.207-1.34m-82.23 46.488c-.418.391-.821.793-1.2 1.215-.078.086-.156.172-.234.262l20.234 60.699-17.886-53.668c-.946-2.832-1.223-5.727-.914-8.508m128.488 11.758 29.223 87.664v.004l-29.223-87.664z" fill="#d4d3d1"/><path d="m246.594 152.289c-1.067 0-2.129.176-3.164.524l-75.903 25.296c-2.539.844-4.589 2.621-5.781 5.016-1.187 2.387-1.387 5.098-.547 7.633l113.84 341.523c1.367 4.098 5.188 6.844 9.492 6.844 1.074 0 2.141-.176 3.164-.516l75.899-25.304c2.539-.844 4.59-2.621 5.781-5.012 1.199-2.391 1.387-5.102.547-7.633l-113.848-341.523c-1.367-4.098-5.176-6.848-9.48-6.848" fill="#c84755"/><path d="m284.531 549.125c-8.375 0-16.176-5.301-18.968-13.68l-113.844-341.523c-3.496-10.481 2.168-21.809 12.648-25.301l75.895-25.297c2.097-.699 4.23-1.035 6.328-1.035 8.371 0 16.176 5.301 18.969 13.684l113.843 341.523c3.493 10.481-2.172 21.805-12.648 25.301l-75.895 25.297c-2.097.699-4.23 1.031-6.328 1.031m.016-20.008 75.883-25.297-113.844-341.523-75.895 25.297z" fill="#fff"/><path d="m221.051 192.898c-1.965 0-3.965.313-5.934.969-9.824 3.274-15.133 13.895-11.855 23.719 2.617 7.855 9.933 12.824 17.785 12.824 1.965 0 3.965-.312 5.93-.969 9.824-3.273 15.132-13.89 11.859-23.714-2.617-7.86-9.938-12.829-17.785-12.829" fill="#a43f4a"/><path d="m242.789 217.586c-3.277-9.824-13.894-15.137-23.719-11.859-9.824 3.273-15.132 13.89-11.855 23.714 3.273 9.825 13.89 15.133 23.715 11.86 9.824-3.274 15.133-13.895 11.859-23.715" fill="#fff"/></g></svg>