<svg height="85.333328" viewBox="0 0 85.333328 85.333328" width="85.333328" xmlns="http://www.w3.org/2000/svg"><g transform="matrix(.13333333 0 0 -.13333333 0 85.333331)"><path d="m640 320c0-176.73-143.27-320-320-320s-320 143.27-320 320 143.27 320 320 320 320-143.27 320-320" fill="#e08e4c"/><path d="m430 110h-220c-22.09 0-40 17.91-40 40v320-300c0-22.09 17.91-40 40-40h220c22.09 0 40 17.91 40 40v-20c0-22.09-17.91-40-40-40" fill="#b77744"/><path d="m210 145c-13.785 0-25 11.215-25 25v320c0 13.785 11.215 25 25 25h220c13.785 0 25-11.215 25-25v-320c0-13.785-11.215-25-25-25z" fill="#495672"/><path d="m430 530h-220c-22.09 0-40-17.91-40-40v-320c0-22.09 17.91-40 40-40h220c22.09 0 40 17.91 40 40v320c0 22.09-17.91 40-40 40m0-30c5.516 0 10-4.484 10-10v-320c0-5.516-4.484-10-10-10h-220c-5.516 0-10 4.484-10 10v320c0 5.516 4.484 10 10 10z" fill="#fff"/><path d="m430 160h-36.277l-140.489 340h176.766c5.516 0 10-4.484 10-10v-320c0-5.516-4.484-10-10-10" fill="#6c7990"/><path d="m399.773 145.359-6.05 14.641h36.277c5.516 0 10 4.484 10 10v320c0 5.516-4.484 10-10 10h-176.766l-6.199 15h202.965v-360.355c-16.781-2.887-33.551-5.832-50.227-9.286" fill="#fff"/><path d="m450 140h-250l-10 70h260z" fill="#fff"/><path d="m340 170c0 11.047-8.953 20-20 20s-20-8.953-20-20 8.953-20 20-20 20 8.953 20 20" fill="#e1e3cc"/></g></svg>