<svg height="85.333328" viewBox="0 0 85.333328 85.333328" width="85.333328" xmlns="http://www.w3.org/2000/svg"><g transform="matrix(.13333333 0 0 -.13333333 0 85.333331)"><path d="m640 320c0-176.73-143.27-320-320-320s-320 143.27-320 320 143.27 320 320 320 320-143.27 320-320" fill="#495672"/><path d="m320 80c-121.504 0-220 98.496-220 220s98.496 220 220 220 220-98.496 220-220-98.496-220-220-220" fill="#404a5f"/><path d="m320 120c-110.277 0-200 89.719-200 200s89.723 200 200 200 200-89.719 200-200-89.723-200-200-200" fill="#c84755"/><g fill="#fff"><path d="m320 540c-121.504 0-220-98.496-220-220s98.496-220 220-220 220 98.496 220 220-98.496 220-220 220zm0-40c99.254 0 180-80.746 180-180s-80.746-180-180-180-180 80.746-180 180 80.746 180 180 180"/><path d="m320 460c-77.32 0-140-62.68-140-140s62.68-140 140-140 140 62.68 140 140-62.68 140-140 140zm0-40c55.141 0 100-44.859 100-100s-44.859-100-100-100-100 44.859-100 100 44.859 100 100 100"/><path d="m370 320c0-27.613-22.387-50-50-50s-50 22.387-50 50 22.387 50 50 50 50-22.387 50-50"/></g></g></svg>