<svg height="85.333328" viewBox="0 0 85.333328 85.333328" width="85.333328" xmlns="http://www.w3.org/2000/svg"><g transform="matrix(.13333333 0 0 -.13333333 0 85.333331)"><path d="m640 320c0-176.73-143.27-320-320-320s-320 143.27-320 320 143.27 320 320 320 320-143.27 320-320" fill="#e1e3cc"/><path d="m480 160h-320c-22.094 0-40 17.906-40 40v180c0 .324.004.645.012.969-.008-.324-.012-.645-.012-.969v-30-130c0-22.09 17.906-40 40-40h320c22.09 0 40 17.91 40 40v-20c0-22.094-17.91-40-40-40" fill="#b7b7a7"/><path d="m380 510h-120c-22.094 0-40-17.906-40-40v-200c0-22.094 17.906-40 40-40h120c22.09 0 40 17.906 40 40v200c0 22.094-17.91 40-40 40m0-40v-200h-120v200z" fill="#495672"/><path d="m120 350v-130c0-22.09 17.906-40 40-40h320c22.09 0 40 17.91 40 40v130z" fill="#c84755"/><path d="m360 400h-80c-22.09 0-40-17.906-40-40v-30c0-22.094 17.91-40 40-40h80c22.09 0 40 17.906 40 40v30c0 22.094-17.91 40-40 40m0-40v-30h-80v30z" fill="#f3cc70"/><path d="m519.996 380.582c-.312 21.801-18.062 39.383-39.93 39.418 21.868-.035 39.618-17.617 39.93-39.418m-399.984.387c.511 21.644 18.218 39.031 39.988 39.031-21.77 0-39.477-17.387-39.988-39.031" fill="#b7b7a7"/><path d="m520 350h-100v70h60 .066c21.868-.035 39.618-17.617 39.93-39.418.004-.195.004-.387.004-.582zm-160 0h-80v10h80zm-140 0h-100v30c0 .324.004.645.012.969.511 21.644 18.218 39.031 39.988 39.031h60zm160 44.648c-5.883 3.403-12.715 5.352-20 5.352h-80c-7.285 0-14.117-1.949-20-5.352v25.352h120z" fill="#97978c"/><path d="m420 350h-20v10c0 14.805-8.043 27.734-20 34.648v25.352h40zm-180 0h-20v70h40v-25.352c-11.957-6.914-20-19.843-20-34.648z" fill="#404a5f"/><path d="m520 330h-120v20h20 100zm-160 0h-80v20h80zm-120 0h-120v20h100 20z" fill="#a43f4a"/><path d="m400 330h-160v30c0 14.805 8.043 27.734 20 34.648 5.883 3.403 12.715 5.352 20 5.352h80c7.285 0 14.117-1.949 20-5.352 11.957-6.914 20-19.843 20-34.648v-10zm-120 20v-20h80v20 10h-80z" fill="#c7a85f"/><path d="m520 400c0 22.094-17.906 40-40 40h-320c-22.094 0-40-17.906-40-40v-50h400z" fill="#c84755"/></g></svg>