<svg height="85.333328" viewBox="0 0 85.333328 85.333328" width="85.333328" xmlns="http://www.w3.org/2000/svg"><g transform="matrix(.13333333 0 0 -.13333333 0 85.333331)"><path d="m640 320c0-176.73-143.27-320-320-320s-320 143.27-320 320 143.27 320 320 320 320-143.27 320-320" fill="#77caa9"/><path d="m470.711 109.289c-10.238 0-20.473 3.906-28.285 11.715l-122.426 122.43 10 10 112.426-112.43c7.812-7.809 18.047-11.715 28.285-11.715s20.473 3.906 28.285 11.715c5.246 5.246 8.731 11.586 10.449 18.285 3.41-13.25-.074-27.91-10.449-38.285-7.812-7.809-18.047-11.715-28.285-11.715m-193.231 204.762-67.355 66.527-.078-.078-59.109 30.438-30.438 59.109 28.672 28.672 59.109-30.438 9.414-18.285-4.386 4.332-29.34-27.918 103.574-102.297z" fill="#62a48d"/><path d="m344.992 267.367-161.023 159.043 29.34 27.918 161.019-159.039z" fill="#495672"/><path d="m498.996 141.004c-15.621-15.621-40.949-15.621-56.57 0l-141.422 141.422c-15.621 15.621-15.621 40.949 0 56.57s40.949 15.621 56.57 0l141.422-141.422c15.621-15.621 15.621-40.949 0-56.57" fill="#f3cc70"/><path d="m200 80c-12.887 0-25.16 2.5234-36.473 6.9609l64.758 64.7541c15.621 15.621 15.621 40.949 0 56.57-7.812 7.809-18.047 11.715-28.285 11.715s-20.473-3.906-28.285-11.715l-64.754-64.758c-4.438 11.313-6.961 23.586-6.961 36.473 0 55.227 44.773 100 100 100 12.887 0 25.16-2.523 36.473-6.961l41.007 41.012 12.93-12.77c.074-.304.153-.609.231-.91-3.282-13.172.066-27.648 10.363-37.945l18.996-18.992-26.961-26.961c4.438-11.313 6.961-23.586 6.961-36.473 0-55.23-44.773-100-100-100" fill="#62a48d"/><path d="m320 243.434-18.996 18.992c-10.297 10.297-13.645 24.773-10.363 37.945 1.754-6.574 5.207-12.785 10.363-17.945l28.996-28.992zm-29.59 57.847-12.93 12.77 10.063 10.062 3.098-3.062c-1.723-6.465-1.797-13.274-.231-19.77" fill="#538777"/><path d="m386.57 310-28.996 28.996c-7.812 7.809-18.047 11.715-28.285 11.715-3.305 0-6.609-.406-9.836-1.223l-3.285 3.246 30.793 30.793c-4.438 11.313-6.961 23.586-6.961 36.473 0 55.23 44.773 100 100 100 12.887 0 25.16-2.523 36.473-6.961l-64.758-64.754c-15.621-15.621-15.621-40.949 0-56.57 7.812-7.809 18.047-11.715 28.285-11.715s20.473 3.906 28.285 11.715l64.754 64.758c4.438-11.313 6.961-23.586 6.961-36.473 0-55.227-44.773-100-100-100-12.887 0-25.16 2.523-36.473 6.961z" fill="#62a48d"/><path d="m290.641 321.051-3.098 3.062 7.844 7.844c-2.149-3.426-3.731-7.105-4.746-10.906m17.402 23.562 8.125 8.121 3.285-3.246c-3.976-1.004-7.832-2.629-11.41-4.875" fill="#404a5f"/><path d="m330 253.434-28.996 28.992c-5.156 5.16-8.609 11.371-10.363 17.945-.078.301-.157.606-.231.91-1.566 6.496-1.492 13.305.231 19.77 1.015 3.801 2.597 7.48 4.746 10.906l12.656 12.656c3.578 2.246 7.434 3.871 11.41 4.875 3.227.817 6.531 1.223 9.836 1.223 10.238 0 20.473-3.906 28.285-11.715l28.996-28.996z" fill="#c7a85f"/><path d="m408.883 352.316-121.195-121.199-56.571 56.571 121.199 121.195z" fill="#fff"/><path d="m210.047 400.5-59.109 30.438-30.438 59.109 28.672 28.672 59.109-30.438 30.438-59.109z" fill="#495672"/><g fill="#fff"><path d="m468.285 411.715c-15.621-15.621-40.949-15.621-56.57 0s-15.621 40.949 0 56.57l64.758 64.754c-11.313 4.438-23.586 6.961-36.473 6.961-55.227 0-100-44.77-100-100 0-55.227 44.773-100 100-100s100 44.773 100 100c0 12.887-2.523 25.16-6.961 36.473z"/><path d="m171.715 228.285c15.621 15.621 40.949 15.621 56.57 0s15.621-40.949 0-56.57l-64.758-64.754c11.313-4.438 23.586-6.961 36.473-6.961 55.227 0 100 44.77 100 100 0 55.227-44.773 100-100 100s-100-44.773-100-100c0-12.887 2.523-25.16 6.961-36.473z"/></g></g></svg>