<svg height="85.333328" viewBox="0 0 85.333328 85.333328" width="85.333328" xmlns="http://www.w3.org/2000/svg"><g transform="matrix(.13333333 0 0 -.13333333 0 85.333331)"><path d="m640 320c0-176.73-143.27-320-320-320s-320 143.27-320 320 143.27 320 320 320 320-143.27 320-320" fill="#c84755"/><g fill="#a43f4a"><path d="m410.254 190h-86.438c3.664 6.328 6.782 13.016 9.274 20h78.648c-1.136-4.816-1.738-9.84-1.738-15 0-1.687.125-3.344.254-5m109.746 51.836c-.23.223-.465.445-.703.664.461 2.43.703 4.938.703 7.5zm-185.715 118.164h-5.609c-10.336 36.906-19.992 71.703-24.836 90h-83.84v20h83.84c1.246-4.711 2.812-10.512 4.625-17.164l.754-2.836h.019c6.481-23.695 15.789-57.035 25.047-90m-154.285 3.023v106.977c0-24.93 0-68.469 0-106.977z"/><path d="m220 170c-44.113 0-80 35.891-80 80 0 3.387.211 6.723.621 10 4.938-39.406 38.652-70 79.379-70 23.309 0 44.32 10.02 58.953 25.977 3.375-2.09 7.082-3.696 11.027-4.711-13.664-24.59-39.91-41.266-69.98-41.266"/><path d="m475 170c-13.785 0-25 11.215-25 25 0 3.555.746 6.938 2.09 10 3.863-8.82 12.68-15 22.91-15s19.047 6.18 22.91 15c1.344-3.062 2.09-6.445 2.09-10 0-13.785-11.215-25-25-25"/></g><path d="m320 510h-120c-11.047 0-20-8.953-20-20s0-204.379 0-204.379l211.875 17.504s-50 176.875-51.875 186.875c0 11.047-8.953 20-20 20m-16.16-40c6.629-25.051 22.285-81.039 36.355-131.008l-120.195-9.933v140.941z" fill="#77caa9"/><path d="m520 250c0-22.09-17.91-40-40-40h-180c-22.09 0-40 17.91-40 40v70c0 22.09 17.91 40 40 40h180c22.09 0 40-17.91 40-40z" fill="#77caa9"/><path d="m220 350c-44.113 0-80-35.887-80-80 0-44.109 35.887-80 80-80s80 35.891 80 80c0 44.113-35.887 80-80 80" fill="#f3cc70"/><path d="m475 240c-13.785 0-25-11.215-25-25s11.215-25 25-25 25 11.215 25 25-11.215 25-25 25" fill="#f3cc70"/><path d="m220 130c-66.273 0-120 53.727-120 120 0 52.227 33.426 96.535 80 113.023 0-8.222 0-16.222 0-23.757-23.895-13.856-40-39.715-40-69.266 0-3.387.211-6.723.621-10-.41-3.277-.621-6.613-.621-10 0-44.109 35.887-80 80-80 30.07 0 56.316 16.676 69.98 41.266 3.204-.828 6.559-1.266 10.02-1.266h33.09c-2.492-6.984-5.61-13.672-9.274-20-20.757-35.832-59.425-60-103.816-60m43.758 206.945c-12.582 8.254-27.621 13.055-43.758 13.055v20c21.598 0 41.82-5.75 59.305-15.766-6.746-4.082-12.184-10.101-15.547-17.289" fill="#a43f4a"/><path d="m180 339.266v23.757c12.527 4.438 25.953 6.977 40 6.977v-20c-14.559 0-28.227-3.91-40-10.734" fill="#62a48d"/><path d="m333.09 210h-33.09c-3.461 0-6.816.438-10.02 1.266 6.383 11.484 10.02 24.691 10.02 38.734 0 3.387-.211 6.723-.621 10 .41 3.277.621 6.613.621 10 0 27.973-14.434 52.641-36.242 66.945 3.363 7.188 8.801 13.207 15.547 17.289 7.14-4.089 13.832-8.894 19.965-14.308 24.925-21.988 40.73-54.074 40.73-89.926 0-14.039-2.449-27.496-6.91-40" fill="#62a48d"/><path d="m299.379 260c-4.938 39.41-38.652 70-79.379 70s-74.441-30.59-79.379-70c-.41 3.277-.621 6.613-.621 10 0 29.551 16.105 55.41 40 69.266 11.773 6.824 25.441 10.734 40 10.734 16.137 0 31.176-4.801 43.758-13.055 21.808-14.304 36.242-38.972 36.242-66.945 0-3.387-.211-6.723-.621-10" fill="#c7a85f"/><path d="m475 130c-34.211 0-62.187 26.445-64.746 60-.129 1.656-.254 3.313-.254 5 0 5.16.602 10.184 1.738 15h38.766c.351-1.738.887-3.41 1.586-5-1.344-3.062-2.09-6.445-2.09-10 0-13.785 11.215-25 25-25s25 11.215 25 25c0 3.555-.746 6.938-2.09 10 1.344 3.063 2.09 6.445 2.09 10 0 .117 0 .234-.004.352 9.887 5.718 17.102 15.546 19.301 27.148.238-.219.473-.441.703-.664 12.309-11.828 20-28.418 20-46.836 0-35.898-29.102-65-65-65" fill="#a43f4a"/><path d="m450.504 210h-38.766c6.774 28.668 32.528 50 63.262 50 17.133 0 32.688-6.664 44.297-17.5-2.199-11.602-9.414-21.43-19.301-27.148-.187 13.625-11.328 24.648-24.996 24.648-13.785 0-25-11.215-25-25 0-1.711.172-3.383.504-5" fill="#62a48d"/><path d="m497.91 205c-3.863 8.824-12.68 15-22.91 15s-19.047-6.176-22.91-15c-.699 1.59-1.235 3.262-1.586 5-.332 1.617-.504 3.289-.504 5 0 13.785 11.215 25 25 25 13.668 0 24.809-11.023 24.996-24.648.004-.118.004-.235.004-.352 0-3.555-.746-6.937-2.09-10z" fill="#c7a85f"/><path d="m220 190c-44.113 0-80 35.891-80 80 0 44.113 35.887 80 80 80s80-35.887 80-80c0-44.109-35.887-80-80-80zm0 200c-66.273 0-120-53.727-120-120s53.727-120 120-120 120 53.727 120 120-53.727 120-120 120" fill="#495672"/><path d="m475 190c-13.785 0-25 11.215-25 25s11.215 25 25 25 25-11.215 25-25-11.215-25-25-25zm0 90c-35.898 0-65-29.102-65-65s29.102-65 65-65 65 29.102 65 65-29.102 65-65 65" fill="#495672"/><path d="m349.977 452.66c-5.52 20.016-9.473 34.66-9.977 37.34 11.047 0 20-8.953 20-20 0-7.41-4.031-13.883-10.023-17.34" fill="#a43f4a"/><path d="m309.238 450h-.019l-.754 2.836c.254-.93.512-1.875.773-2.836" fill="#883840"/><path d="m340 450h-30.762c-.261.961-.519 1.906-.773 2.836l-4.555 17.164 36.09 20c.504-2.68 4.457-17.324 9.977-37.34-2.938-1.691-6.344-2.66-9.977-2.66" fill="#62a48d"/><path d="m360 490c0-11.047-8.953-20-20-20h-140c-11.047 0-20 8.953-20 20s8.953 20 20 20h140c11.047 0 20-8.953 20-20" fill="#77caa9"/></g></svg>