<svg height="85.333328" viewBox="0 0 85.333328 85.333328" width="85.333328" xmlns="http://www.w3.org/2000/svg"><g transform="matrix(.13333333 0 0 -.13333333 0 85.333331)"><path d="m640 320c0-176.73-143.27-320-320-320s-320 143.27-320 320 143.27 320 320 320 320-143.27 320-320" fill="#7db6d8"/><path d="m410 70h-180c-16.57 0-30 13.4297-30 30v400-380c0-16.57 13.43-30 30-30h180c16.566 0 30 13.43 30 30v-20c0-16.5703-13.434-30-30-30" fill="#6594b2"/><path d="m440 120c0-16.57-13.434-30-30-30h-180c-16.57 0-30 13.43-30 30v400c0 16.57 13.43 30 30 30h180c16.566 0 30-13.43 30-30z" fill="#495672"/><g fill="#404a5f"><path d="m320 250c-27.613 0-50 22.387-50 50s22.387 50 50 50 50-22.387 50-50-22.387-50-50-50"/><path d="m320 380c-27.613 0-50 22.387-50 50s22.387 50 50 50 50-22.387 50-50-22.387-50-50-50"/><path d="m320 120c-27.613 0-50 22.387-50 50s22.387 50 50 50 50-22.387 50-50-22.387-50-50-50"/></g><path d="m370 320c0-27.613-22.387-50-50-50s-50 22.387-50 50 22.387 50 50 50 50-22.387 50-50" fill="#f3cc70"/><path d="m370 450c0-27.613-22.387-50-50-50s-50 22.387-50 50 22.387 50 50 50 50-22.387 50-50" fill="#c84755"/><path d="m370 190c0-27.613-22.387-50-50-50s-50 22.387-50 50 22.387 50 50 50 50-22.387 50-50" fill="#77caa9"/></g></svg>