<svg height="85.333328" viewBox="0 0 85.333328 85.333328" width="85.333328" xmlns="http://www.w3.org/2000/svg"><g transform="matrix(.13333333 0 0 -.13333333 0 85.333331)"><path d="m640 320c0-176.73-143.27-320-320-320s-320 143.27-320 320 143.27 320 320 320 320-143.27 320-320" fill="#e1e3cc"/><path d="m425 185.906c-46.945 0-85 38.055-85 85 0 3.141.219 6.328.637 9.539 5.156-42.007 40.961-74.535 84.363-74.535s79.207 32.528 84.363 74.535c.414-3.211.637-6.398.637-9.539 0-46.945-38.055-85-85-85" fill="#b7b7a7"/><path d="m110.016 215.004c-5.137 0-10.1371 2.637-12.9379 7.375-3.4023 5.773-2.5 12.887 1.7344 17.625 2.8905-3.238 7.0005-5.004 11.2035-5.008 2.589 0 5.211.672 7.605 2.082l271.84 160.317c.687-.887 1.41-1.747 2.164-2.579-7.434-8.781-15.262-18.765-22.508-29.418l-251.496-148.316c-2.391-1.41-5.019-2.078-7.605-2.078m390.875 228.109c-7.903 3.985-15.36 6.496-22.305 6.844l29.035 17.121c1.367.809 2.559 1.801 3.567 2.922.64-.719 1.222-1.512 1.734-2.375 4.207-7.141 1.836-16.332-5.301-20.543z" fill="#b7b7a7"/><path d="m117.621 237.078 390 230c7.133 4.211 9.508 13.406 5.301 20.543-4.211 7.137-13.406 9.508-20.543 5.301l-390-230c-7.1329-4.207-9.5079-13.406-5.3009-20.543 4.2109-7.133 13.4059-9.508 20.5429-5.301" fill="#e08e4c"/><path d="m510 290.91c0-46.945-38.055-85-85-85s-85 38.055-85 85c0 61.817 85 139.09 85 139.09s85-77.273 85-139.09" fill="#c84755"/><path d="m350.176 409.059c-2.352.57-4.754 1.222-7.207 1.949-38.051 11.234-39.727 37.769-37.414 52.414 2.312-13.34 11.289-28.266 37.414-35.981 9.551-2.82 18.351-4.57 26.144-4.57 1.688 0 3.325.082 4.914.254z" fill="#b7b7a7"/><path d="m369.113 406.434c-5.793.004-12.14.968-18.937 2.625l23.851 14.066c2.082.223 4.075.598 5.981 1.141.086-5.422 1.133-10.618 2.976-15.414-4.148-1.672-8.796-2.418-13.871-2.418" fill="#b77744"/><path d="m398.172 440c5.59 11.18 0 40-40 30-49.469-12.367-50 20-50 20s-19.117-46.637 34.797-62.559c25.203-7.441 45.203-7.441 55.203 12.559" fill="#c84755"/><path d="m528.438 348.777s8.078 31.344-42.895 32.555c-7.668.184-13.828 1.344-18.727 3.172-2.836 3.586-5.664 7.031-8.441 10.312 2.527 2.789 4.707 5.903 6.477 9.262 5.183-2.285 11.961-3.762 20.691-3.969 50.973-1.211 42.895-32.554 42.895-32.554s6.16 7.972 8.703 19.441c4.941-20.558-8.703-38.219-8.703-38.219" fill="#b7b7a7"/><path d="m466.816 384.504c-5.019 1.875-8.711 4.449-11.336 7.391 1.008.929 1.973 1.902 2.895 2.921 2.777-3.281 5.605-6.726 8.441-10.312" fill="#a43f4a"/><path d="m454.941 439.652c-8.355-9.293-10.617-38.562 30.602-39.543 50.973-1.211 42.895-32.554 42.895-32.554s30.816 39.886-16.942 69.55c-22.32 13.864-41.601 19.176-56.555 2.547" fill="#c84755"/><path d="m450.105 404.297c-1.812 2.016-3.574 3.937-5.265 5.762l6.254 3.687c-.891-2.871-1.305-6.129-.989-9.449m-50.8 33.73c-.219.891-.489 1.778-.817 2.657 2.168 5 2.266 12.937-1.449 19.578 7.68 6.097 17.395 9.738 27.961 9.738 7.309 0 14.211-1.742 20.313-4.836z" fill="#b7b7a7"/><path d="m391.625 394.816c-.754.832-1.477 1.692-2.164 2.579l9.027 5.324c-2.23-2.504-4.527-5.149-6.863-7.903m53.215 15.243c-4.774 5.132-9.004 9.441-12.324 12.73l19.113 11.27c-1.992-5.133-2.457-11.871.324-17.993-.32-.738-.609-1.511-.859-2.32z" fill="#97978c"/><path d="m389.461 397.395c-2.688 3.453-4.879 7.304-6.477 11.457 6.297 2.539 11.442 7.222 15.188 14.714 1.808 3.614 2.445 9.071 1.133 14.461l46.008 27.137c7.968-4.039 14.574-10.379 18.941-18.144-3.266-1.676-6.371-4.098-9.313-7.368-1.296-1.441-2.449-3.367-3.312-5.593l-19.113-11.27c-4.661 4.617-7.516 7.211-7.516 7.211s-11.75-10.68-26.512-27.281z" fill="#b77744"/><path d="m425 380c-13.238 0-25.141 5.715-33.375 14.816 2.336 2.754 4.633 5.399 6.863 7.903 14.762 16.601 26.512 27.281 26.512 27.281s2.855-2.594 7.516-7.211c3.32-3.289 7.55-7.598 12.324-12.73 1.691-1.825 3.453-3.746 5.265-5.762.403-4.27 2.016-8.637 5.375-12.402-8.015-7.387-18.722-11.895-30.48-11.895" fill="#a43f4a"/><path d="m395.871 436.004c.817 1.234 1.582 2.562 2.301 3.996.109.223.215.449.316.684.328-.879.598-1.766.817-2.657z" fill="#97978c"/><path d="m382.984 408.852c-1.843 4.796-2.89 9.992-2.976 15.414 6.39 1.828 11.754 5.543 15.863 11.738l3.434 2.023c1.312-5.39.675-10.847-1.133-14.461-3.746-7.492-8.891-12.175-15.188-14.714" fill="#97633d"/><path d="m380.008 424.266c-.004.246-.008.488-.008.734 0 14.285 6.656 27.02 17.039 35.262 3.715-6.641 3.617-14.578 1.449-19.578-.101-.235-.207-.461-.316-.684-.719-1.434-1.484-2.762-2.301-3.996-4.109-6.195-9.473-9.91-15.863-11.738" fill="#a43f4a"/><path d="m458.375 394.816c-2.828 3.34-5.609 6.516-8.27 9.481-.316 3.32.098 6.578.989 9.449l1.558.918c2.274-4.144 6.149-7.918 12.2-10.586-1.77-3.359-3.95-6.473-6.477-9.262" fill="#97978c"/><path d="m451.094 413.746c.25.809.539 1.582.859 2.32.211-.468.445-.937.699-1.402z" fill="#7d7c76"/><path d="m455.48 391.895c-3.359 3.765-4.972 8.132-5.375 12.402 2.661-2.965 5.442-6.141 8.27-9.481-.922-1.019-1.887-1.992-2.895-2.921" fill="#883840"/><path d="m464.852 404.078c-6.051 2.668-9.926 6.442-12.2 10.586-.254.465-.488.934-.699 1.402-2.781 6.122-2.316 12.86-.324 17.993.863 2.226 2.016 4.152 3.312 5.593 2.942 3.27 6.047 5.692 9.313 7.368 3.66-6.508 5.746-14.024 5.746-22.02 0-7.551-1.859-14.672-5.148-20.922" fill="#a43f4a"/><path d="m465 440c0-22.09-17.91-40-40-40s-40 17.91-40 40 17.91 40 40 40 40-17.91 40-40" fill="#c84755"/></g></svg>