<svg height="85.333328" viewBox="0 0 85.333328 85.333328" width="85.333328" xmlns="http://www.w3.org/2000/svg"><g transform="matrix(.13333333 0 0 -.13333333 0 85.333331)"><path d="m0 320c0-176.73 143.27-320 320-320s320 143.27 320 320-143.27 320-320 320-320-143.27-320-320" fill="#77caa9"/><path d="m291.25 195c-4.855 0-9.43 2.352-12.25 6.348l-102.828 145.578-77.8517-51.906c-6.9062-4.598-16.2109-2.735-20.8008 4.16-4.5937 6.894-2.7343 16.203 4.1602 20.8l90.0003 60c6.754 4.5 15.879 2.813 20.57-3.828l97.328-137.793 107.238 197.547c2.422 4.453 6.934 7.395 11.993 7.793 5.062.383 9.976-1.765 13.078-5.801l130-168.75c5.051-6.558 3.832-15.972-2.731-21.035-6.562-5.047-15.972-3.836-21.043 2.739l-115.925 150.488-107.754-198.496c-2.477-4.551-7.125-7.512-12.301-7.817z" fill="#fff"/><path d="m366.25 408.75c0-24.164 19.59-43.75 43.75-43.75 24.164 0 43.75 19.586 43.75 43.75s-19.586 43.75-43.75 43.75c-24.16 0-43.75-19.586-43.75-43.75" fill="#c84755"/><path d="m291.25 175c-4.855 0-9.43 2.355-12.25 6.348l-102.828 145.57-77.8517-51.898c-2.5586-1.704-5.4492-2.516-8.3086-2.516-4.8476 0-9.6054 2.344-12.4922 6.676-3.875 5.812-3.1601 13.347 1.2969 18.32 2.9024-3.258 7.0117-5.004 11.1914-5.004 2.8594 0 5.75.817 8.3125 2.524l77.8517 51.906 102.828-145.578c2.82-3.996 7.395-6.348 12.25-6.348l.883.027c5.176.305 9.824 3.266 12.301 7.817l81.195 149.566c2.629-1.765 5.465-3.254 8.457-4.426l-89.652-165.14c-2.477-4.559-7.125-7.512-12.301-7.821z" fill="#62a48d"/><path d="m540.016 224.992c-4.493 0-8.938 2.012-11.903 5.852l-93.679 121.609c3.406 2.297 6.468 5.059 9.097 8.195l84.582-109.796c2.965-3.844 7.407-5.852 11.899-5.852 3.195 0 6.418 1.016 9.144 3.113.754.586 1.442 1.227 2.055 1.914l.676-.871c5.051-6.562 3.832-15.98-2.731-21.043-2.726-2.101-5.945-3.121-9.14-3.121" fill="#62a48d"/><path d="m291.25 195c-4.855 0-9.43 2.352-12.25 6.348l-102.828 145.578-77.8517-51.906c-6.9062-4.598-16.2109-2.735-20.8008 4.16-4.5937 6.894-2.7343 16.203 4.1602 20.8l90.0003 60c6.754 4.5 15.879 2.813 20.57-3.828l97.328-137.793 107.238 197.547c2.422 4.453 6.934 7.395 11.993 7.793 5.062.383 9.976-1.765 13.078-5.801l130-168.75c5.051-6.558 3.832-15.972-2.731-21.035-6.562-5.047-15.972-3.836-21.043 2.739l-115.925 150.488-107.754-198.496c-2.477-4.551-7.125-7.512-12.301-7.817z" fill="#fff"/><path d="m410 345c-5.617 0-10.984 1.059-15.914 2.984l9.488 17.485c2.098-.309 4.242-.469 6.426-.469 4.602 0 9.039.711 13.207 2.027l11.227-14.574c-6.977-4.707-15.383-7.453-24.434-7.453" fill="#62a48d"/><path d="m410 365c-2.184 0-4.328.16-6.426.469l8.614 15.863 11.019-14.305c-4.168-1.316-8.605-2.027-13.207-2.027" fill="#a43f4a"/><path d="m394.086 347.984c-2.992 1.172-5.828 2.661-8.457 4.426l8.453 15.574c3.016-1.175 6.195-2.031 9.492-2.515z" fill="#538777"/><path d="m434.434 352.453-11.227 14.574c4.027 1.274 7.801 3.114 11.231 5.426l9.093-11.805c-2.629-3.136-5.691-5.898-9.097-8.195" fill="#538777"/><path d="m403.574 365.469c-3.297.484-6.476 1.34-9.492 2.515l18.106 33.356 22.25-28.887c-3.43-2.312-7.204-4.152-11.231-5.426l-11.019 14.305z" fill="#883840"/><path d="m366.953 380.895c-.461 2.546-.703 5.175-.703 7.855 0 3.441.398 6.789 1.148 10 .832-3.562 2.102-6.961 3.747-10.133z" fill="#62a48d"/><path d="m371.145 388.617c-1.645 3.172-2.915 6.571-3.747 10.133 3.219 13.766 12.934 25.031 25.739 30.383z" fill="#a43f4a"/><path d="m452.824 397.734-.355.465c.047.184.09.367.133.551.078-.336.152-.676.222-1.016" fill="#62a48d"/><path d="m452.469 398.199-22.856 29.668c11.438-5.746 20.004-16.355 22.989-29.117-.043-.184-.086-.367-.133-.551z" fill="#a43f4a"/><path d="m385.629 352.41c-9.617 6.465-16.531 16.645-18.676 28.485l4.192 7.722 21.992 40.516c5.191 2.168 10.886 3.367 16.863 3.367 7.051 0 13.715-1.668 19.613-4.633l22.856-29.668.355-.465c.61-2.898.926-5.906.926-8.984 0-10.699-3.84-20.5-10.219-28.102l-9.093 11.805-22.25 28.887-18.106-33.356z" fill="#d4d3d1"/><path d="m366.25 408.75c0-24.164 19.59-43.75 43.75-43.75 24.164 0 43.75 19.586 43.75 43.75s-19.586 43.75-43.75 43.75c-24.16 0-43.75-19.586-43.75-43.75" fill="#495672"/></g></svg>