<svg height="85.333328" viewBox="0 0 85.333328 85.333328" width="85.333328" xmlns="http://www.w3.org/2000/svg"><g transform="matrix(.13333333 0 0 -.13333333 0 85.333331)"><path d="m640 320c0-176.73-143.27-320-320-320s-320 143.27-320 320 143.27 320 320 320 320-143.27 320-320" fill="#77caa9"/><path d="m320 420c-11.047 0-20 8.953-20 20v20c0-11.047 8.953-20 20-20s20 8.953 20 20v-20c0-11.047-8.953-20-20-20" fill="#62a48d"/><path d="m320 440c-11.047 0-20 8.953-20 20v40c0 11.047 8.953 20 20 20s20-8.953 20-20v-40c0-11.047-8.953-20-20-20" fill="#495672"/><path d="m360 460h-20v40h20c11.047 0 20-8.953 20-20s-8.953-20-20-20" fill="#62a48d"/><path d="m300 460h-20c-11.047 0-20 8.953-20 20s8.953 20 20 20h20v-20z" fill="#62a48d"/><path d="m340 460h-40v40h40z" fill="#404a5f"/><path d="m360 480h-80c-11.047 0-20 8.953-20 20s8.953 20 20 20h80c11.047 0 20-8.953 20-20s-8.953-20-20-20" fill="#495672"/><path d="m320 100c-11.047 0-20 8.953-20 20v173.945-153.945c0-11.047 8.953-20 20-20s20 8.953 20 20v-20c0-11.047-8.953-20-20-20" fill="#62a48d"/><path d="m320 120c-11.047 0-20 8.953-20 20v240c0 11.047 8.953 20 20 20s20-8.953 20-20v-240c0-11.047-8.953-20-20-20" fill="#e1e3cc"/><path d="m159.98 99.9883c-3.808 0-7.664 1.0897-11.074 3.3707-9.187 6.129-11.676 18.543-5.547 27.735l156.641 234.961v-6.055-66.055l-123.359-185.039c-3.848-5.781-10.196-8.9177-16.661-8.9177m320.024.0117c-6.457 0-12.793 3.129-16.645 8.906l-123.359 185.039v72.11l156.641-234.961c6.129-9.192 3.64-21.606-5.547-27.735-3.406-2.273-7.266-3.359-11.074-3.359-.004 0-.008 0-.016 0" fill="#62a48d"/><path d="m340 293.945-20 30-20-30v72.11l3.359 5.039c3.711 5.566 9.954 8.906 16.641 8.906 6.688 0 12.93-3.34 16.641-8.906l3.359-5.039z" fill="#b7b7a7"/><path d="m480.02 120c-6.465-.004-12.809 3.125-16.661 8.906l-143.359 215.039-143.359-215.039c-6.118-9.187-18.539-11.695-27.735-5.547-9.187 6.129-11.676 18.543-5.547 27.735l160 240c3.711 5.566 9.954 8.906 16.641 8.906 6.688 0 12.93-3.34 16.641-8.906l160-240c6.129-9.192 3.64-21.606-5.547-27.735-3.406-2.273-7.266-3.359-11.074-3.359" fill="#fff"/></g></svg>