<svg height="85.333328" viewBox="0 0 85.333328 85.333328" width="85.333328" xmlns="http://www.w3.org/2000/svg"><g transform="matrix(.13333333 0 0 -.13333333 0 85.333331)"><path d="m640 320c0-176.73-143.27-320-320-320s-320 143.27-320 320 143.27 320 320 320 320-143.27 320-320" fill="#f3cc70"/><path d="m500 130h-360c-11.047 0-20 8.953-20 20v300-280c0-11.047 8.953-20 20-20h360c11.047 0 20 8.953 20 20v-20c0-11.047-8.953-20-20-20" fill="#c7a85f"/><path d="m520 170c0-11.047-8.953-20-20-20h-360c-11.047 0-20 8.953-20 20v300c0 11.047 8.953 20 20 20h360c11.047 0 20-8.953 20-20z" fill="#495672"/><path d="m480 270c0-11.047-8.953-20-20-20h-280c-11.047 0-20 8.953-20 20v161.25c0 11.047 8.953 20 20 20h280c11.047 0 20-8.953 20-20z" fill="#e1e3cc"/><path d="m160 431.25c0 10.949 8.797 19.844 19.711 20-10.914-.156-19.711-9.051-19.711-20" fill="#404a5f"/><path d="m160 420v11.25c0 10.949 8.797 19.844 19.711 20h.289 280 .289c-.094 0-.191 0-.289 0h-204.969l6.473-11.25h-81.504c-11.047 0-20-8.953-20-20" fill="#b7b7a7"/><path d="m180 170c-11.047 0-20 8.953-20 20s8.953 20 20 20 20-8.953 20-20-8.953-20-20-20" fill="#404a5f"/><path d="m460 170c-11.047 0-20 8.953-20 20s8.953 20 20 20 20-8.953 20-20-8.953-20-20-20" fill="#404a5f"/><path d="m200 200c0-11.047-8.953-20-20-20s-20 8.953-20 20 8.953 20 20 20 20-8.953 20-20" fill="#77caa9"/><path d="m480 200c0-11.047-8.953-20-20-20s-20 8.953-20 20 8.953 20 20 20 20-8.953 20-20" fill="#77caa9"/><g fill="#f3cc70"><path d="m250 190c0-5.523-4.477-10-10-10s-10 4.477-10 10v20c0 5.523 4.477 10 10 10s10-4.477 10-10z"/><path d="m290 190c0-5.523-4.477-10-10-10s-10 4.477-10 10v20c0 5.523 4.477 10 10 10s10-4.477 10-10z"/><path d="m370 190c0-5.523-4.477-10-10-10s-10 4.477-10 10v20c0 5.523 4.477 10 10 10s10-4.477 10-10z"/><path d="m410 190c0-5.523-4.477-10-10-10s-10 4.477-10 10v20c0 5.523 4.477 10 10 10s10-4.477 10-10z"/><path d="m330 190c0-5.523-4.477-10-10-10s-10 4.477-10 10v20c0 5.523 4.477 10 10 10s10-4.477 10-10z"/></g><path d="m250 200c0 5.523-4.477 10-10 10s-10-4.477-10-10v10c0 5.523 4.477 10 10 10s10-4.477 10-10z" fill="#c7a85f"/><path d="m290 200c0 5.523-4.477 10-10 10s-10-4.477-10-10v10c0 5.523 4.477 10 10 10s10-4.477 10-10z" fill="#c7a85f"/><path d="m370 200c0 5.523-4.477 10-10 10s-10-4.477-10-10v10c0 5.523 4.477 10 10 10s10-4.477 10-10z" fill="#c7a85f"/><path d="m410 200c0 5.523-4.477 10-10 10s-10-4.477-10-10v10c0 5.523 4.477 10 10 10s10-4.477 10-10z" fill="#c7a85f"/><path d="m330 200c0 5.523-4.477 10-10 10s-10-4.477-10-10v10c0 5.523 4.477 10 10 10s10-4.477 10-10z" fill="#c7a85f"/><path d="m460 250h-89.223l-109.273 190h198.496c11.047 0 20-8.953 20-20v-150c0-11.047-8.953-20-20-20" fill="#e7e9d7"/><path d="m480 431.25c0 10.949-8.797 19.844-19.711 20 10.914-.156 19.711-9.051 19.711-20" fill="#646f80"/><path d="m480 420c0 11.047-8.953 20-20 20h-198.496l-6.473 11.25h204.969.289c10.914-.156 19.711-9.051 19.711-20z" fill="#c7c6b8"/></g></svg>