<svg height="85.333328" viewBox="0 0 85.333328 85.333328" width="85.333328" xmlns="http://www.w3.org/2000/svg"><g transform="matrix(.13333333 0 0 -.13333333 0 85.333331)"><path d="m640 320c0-176.73-143.27-320-320-320s-320 143.27-320 320 143.27 320 320 320 320-143.27 320-320" fill="#7db6d8"/><path d="m100.02 154.988c-1.7583 0-3.5434.313-5.2895.969-7.7539 2.906-11.6836 11.555-8.7735 19.313l120 320c2.191 5.851 7.789 9.73 14.043 9.73s11.852-3.879 14.043-9.73l120-320c2.91-7.758-1.02-16.407-8.773-19.313-1.739-.652-3.516-.961-5.27-.961-6.07 0-11.785 3.715-14.043 9.734l-46.977 125.27h-117.96l-46.977-125.27c-2.25-6.015-7.949-9.742-14.023-9.742m119.98 292.293-47.73-127.281h95.46z" fill="#6594b2"/><path d="m530 155h-80c-46.871 0-85 38.129-85 85 0 45.605 36.543 80 85 80h65v10c0 15.883-4.844 27.484-14.805 35.465-13.64 10.926-35.406 14.144-55.445 14.144-17.125 0-32.992-2.347-41.457-4.242-1.105-.25-2.211-.367-3.297-.367-6.863 0-13.055 4.738-14.625 11.711-1.816 8.074 3.246 16.098 11.324 17.918 1.657.379 22.465 4.957 48 4.957 24.641 0 53.684-4.262 74.196-20.66 17.324-13.848 26.109-33.672 26.109-58.926v-160c0-8.285-6.715-15-15-15m-80 135c-31.871 0-55-21.031-55-50 0-30.328 24.672-55 55-55h65v105z" fill="#6594b2"/><g fill="#fff"><path d="m114.047 184.734 105.953 282.547 105.953-282.547c2.91-7.757 11.559-11.687 19.313-8.781 7.757 2.91 11.687 11.559 8.781 19.313l-120 320c-2.195 5.851-7.797 9.734-14.047 9.734s-11.852-3.883-14.047-9.734l-119.996-320c-2.9101-7.754 1.0196-16.403 8.7774-19.313 7.7536-2.906 16.4026 1.024 19.3126 8.781"/><path d="m160 310h120c8.285 0 15 6.715 15 15s-6.715 15-15 15h-120c-8.285 0-15-6.715-15-15s6.715-15 15-15"/><path d="m403.305 395.367.117.028c1.687.382 20.301 4.246 41.707 4.226 17.371.082 36.387-2.742 49.09-10.121 6.406-3.676 11.301-8.187 14.851-14.227 3.524-6.058 5.907-13.957 5.93-25.273 0-100 0-160 0-160h15v15h-80c-15.234.008-28.891 6.133-38.891 16.109-9.976 10-16.101 23.657-16.109 38.891.074 15.234 5.898 27.055 15.547 35.855 9.672 8.727 23.516 14.141 39.453 14.145h70c8.285 0 15 6.715 15 15s-6.715 15-15 15h-70c-22.723.004-43.879-7.754-59.539-21.859-15.688-14.036-25.535-34.715-25.461-58.141.012-46.949 38.051-84.988 85-85h80c3.949 0 7.813 1.602 10.605 4.395 2.793 2.793 4.395 6.656 4.395 10.605v160c.023 15.648-3.508 29.309-10.035 40.422-4.867 8.336-11.317 15.113-18.496 20.359-10.797 7.887-23.09 12.477-35.348 15.219-12.277 2.73-24.633 3.613-35.992 3.621-26.52-.023-47.777-4.859-48.434-4.988-8.082-1.828-13.152-9.86-11.328-17.938 1.828-8.082 9.86-13.152 17.938-11.328"/></g></g></svg>