<svg height="85.333328" viewBox="0 0 85.333328 85.333328" width="85.333328" xmlns="http://www.w3.org/2000/svg"><g transform="matrix(.13333333 0 0 -.13333333 0 85.333331)"><path d="m640 320c0-176.73-143.27-320-320-320s-320 143.27-320 320 143.27 320 320 320 320-143.27 320-320" fill="#495672"/><path d="m320 190c-132.547 0-240 60-240 80 0 2.496 2.043 5.828 5.9102 9.711 24.1878-25.113 119.8088-69.711 234.0898-69.711 114.57 0 210.391 44.828 234.273 69.902 3.75-3.89 5.727-7.273 5.727-9.902 0-20-107.453-80-240-80" fill="#404a5f"/><path d="m560 290c0-20-107.453-80-240-80s-240 60-240 80c0 18.121 107.453 80 240 80s240-60.633 240-80" fill="#e1e3cc"/><path d="m228.656 360.484c11.043 40.079 47.754 69.516 91.344 69.516 43.523 0 80.191-29.352 91.293-69.34-28.141 5.735-58.973 9.34-91.293 9.34-32.344 0-63.184-3.684-91.344-9.516" fill="#404a5f"/><path d="m320 280c-52.32 0-94.738 2.941-94.738 55.266 0 8.73 1.183 17.187 3.394 25.218 28.16 5.832 59 9.516 91.344 9.516 32.32 0 63.152-3.605 91.293-9.34 2.246-8.082 3.445-16.597 3.445-25.394 0-52.325-42.418-55.266-94.738-55.266" fill="#b7b7a7"/><path d="m414.738 355.266c0-52.325-42.418-55.266-94.738-55.266s-94.738 2.941-94.738 55.266c0 52.32 42.418 94.734 94.738 94.734s94.738-42.414 94.738-94.734" fill="#7db6d8"/></g></svg>