<svg height="85.333328" viewBox="0 0 85.333328 85.333328" width="85.333328" xmlns="http://www.w3.org/2000/svg"><g transform="matrix(.13333333 0 0 -.13333333 0 85.333331)"><path d="m640 320c0-176.73-143.27-320-320-320s-320 143.27-320 320 143.27 320 320 320 320-143.27 320-320" fill="#7db6d8"/><path d="m260 80c-44.109 0-80 35.891-80 80 0 2.316.395 4.543 1.121 6.613 6.387-37.758 39.328-66.613 78.879-66.613 44.109 0 80 35.891 80 80v-20c0-44.109-35.891-80-80-80" fill="#6594b2"/><path d="m260 100c-44.109 0-80 35.891-80 80 0 11.047 8.953 20 20 20s20-8.953 20-20c0-22.062 17.945-40 40-40s40 17.938 40 40v360c0 11.047 8.953 20 20 20s20-8.953 20-20v-360c0-44.109-35.891-80-80-80" fill="#495672"/><path d="m560 280c-17.047 11.363-34.848 15.152-51.012 15.152-32.32 0-58.078-15.152-58.078-15.152 0 10.918-48.105 28.914-110.91 32.203v206.977c123.184-10.168 220-113.371 220-239.18m-370.91 0s-26.059 15.152-58.383 15.152c-16.16 0-33.8906-3.789-50.707-15.152 0 125.809 96.816 229.012 220 239.18v-206.977c-62.805-3.289-110.91-21.285-110.91-32.203" fill="#6594b2"/><path d="m340 312.203c-6.52.344-13.199.524-20 .524s-13.48-.18-20-.524v206.977c6.598.543 13.262.82 20 .82s13.402-.277 20-.82z" fill="#404a5f"/><path d="m189.09 300s2.726 176.59 130.91 240c-132.547 0-240-107.453-240-240 50.453 34.09 109.09 0 109.09 0" fill="#c84755"/><path d="m450.91 300s57.953 34.09 109.09 0c0 132.547-107.453 240-240 240 128.184-63.41 130.91-240 130.91-240" fill="#c84755"/><path d="m189.09 300c0 12.051 58.609 32.727 130.91 32.727s130.91-20.676 130.91-32.727c0 0-2.726 176.59-130.91 240-128.184-63.41-130.91-240-130.91-240" fill="#fff"/><path d="m320 510c-11.047 0-20 8.953-20 20v10c0 11.047 8.953 20 20 20s20-8.953 20-20v-10c0-11.047-8.953-20-20-20" fill="#495672"/></g></svg>