<svg height="85.33329" viewBox="0 0 85.333328 85.33329" width="85.333328" xmlns="http://www.w3.org/2000/svg"><g transform="matrix(.13333333 0 0 -.13333333 0 85.659331)"><path d="m640 322.445c0-176.73-143.27-319.99969-320-319.99969s-320 143.26969-320 319.99969c0 176.731 143.27 320 320 320s320-143.269 320-320" fill="#77caa9"/><path d="m320 90c-71.797 0-130 58.203-130 130 0 64.996 47.699 118.852 110 128.473v-40.711c-40.031-9.121-70-45.008-70-87.762 0-49.625 40.375-90 90-90s90 40.375 90 90c0 42.754-29.969 78.641-70 87.762v40.711c62.301-9.621 110-63.477 110-128.473 0-71.797-58.203-130-130-130" fill="#62a48d"/><path d="m280.02 173.336c-6.465 0-12.809 3.125-16.661 8.906-6.129 9.192-3.64 21.606 5.547 27.735l32.821 21.878c3.121-6.984 10.128-11.855 18.273-11.855 11.047 0 20 8.953 20 20v17.371l8.906 5.938c3.407 2.277 7.262 3.367 11.071 3.367 6.464 0 12.812-3.137 16.664-8.914 6.129-9.192 3.64-21.61-5.547-27.735l-80-53.332c-3.406-2.273-7.266-3.359-11.074-3.359" fill="#62a48d"/><path d="m320 370c-71.797 0-130-58.203-130-130s58.203-130 130-130 130 58.203 130 130-58.203 130-130 130zm0-40c49.625 0 90-40.375 90-90s-40.375-90-90-90-90 40.375-90 90 40.375 90 90 90" fill="#495672"/><path d="m340 240v255.938c0 11.042-8.953 20-20 20s-20-8.958-20-20v-255.938c0-11.047 8.953-20 20-20s20 8.953 20 20" fill="#e1e3cc"/><path d="m291.094 196.691 80 53.336c9.191 6.125 11.676 18.543 5.547 27.735-6.125 9.191-18.543 11.672-27.735 5.547l-80-53.332c-9.191-6.129-11.676-18.547-5.547-27.739 6.125-9.187 18.543-11.672 27.735-5.547" fill="#fff"/><path d="m300 465.746c-21.809 2.434-40.062 10.258-51.094 17.613-9.187 6.125-11.676 18.543-5.547 27.735 3.852 5.781 10.188 8.914 16.653 8.914 3.777 0 7.597-1.07 10.988-3.305 1.105-.711 13.492-8.476 31.535-11.012-1.613-2.882-2.535-6.211-2.535-9.753zm40 2.164v28.028c0 4.582-1.539 8.8-4.133 12.171 10.086 3.008 20.696 8.391 31.328 17.254 3.739 3.117 8.282 4.637 12.793 4.637 5.731 0 11.418-2.449 15.379-7.199 7.071-8.485 5.922-21.094-2.562-28.168-17.473-14.559-35.496-22.789-52.805-26.723" fill="#62a48d"/><path d="m313.699 464.98c-4.691 0-9.269.27-13.699.766v30.192c0 3.542.922 6.871 2.535 9.753 3.551-.496 7.317-.793 11.258-.793 6.895 0 14.328.907 22.074 3.211 2.594-3.371 4.133-7.589 4.133-12.171v-28.028c-9.02-2.051-17.848-2.93-26.301-2.93" fill="#b7b7a7"/><path d="m248.906 503.359c.891-.586 7.719-5.066 19.059-9.539 11.328-4.453 27.258-8.953 46.219-8.965 23.64-.121 52.086 7.524 78.617 29.782 8.488 7.07 9.633 19.679 2.562 28.164-7.07 8.488-19.679 9.637-28.164 2.562-19.625-16.199-37.332-20.386-53.015-20.508-12.5-.015-23.664 3.059-31.563 6.18-3.937 1.555-7.047 3.098-9.055 4.184-1.003.547-1.734.972-2.156 1.23l-.398.246-.024.016-6.711-10.293 6.817 10.223-.106.07-6.711-10.293 6.817 10.223c-9.192 6.129-21.61 3.644-27.735-5.547-6.129-9.192-3.644-21.61 5.547-27.735" fill="#495672"/></g></svg>