<svg height="85.333328" viewBox="0 0 85.333328 85.333328" width="85.333328" xmlns="http://www.w3.org/2000/svg"><g transform="matrix(.13333333 0 0 -.13333333 0 85.333331)"><path d="m640 320c0-176.73-143.27-320-320-320s-320 143.27-320 320 143.27 320 320 320 320-143.27 320-320" fill="#7db6d8"/><path d="m235 381.672v20c0 46.863 38.129 85 85 85 28.953 0 55.652-14.543 71.418-38.891 4.785-7.39 12.809-11.418 21.004-11.414 4.652 0 9.363 1.297 13.562 4.016 4.286 2.769 7.442 6.633 9.336 10.984 4.828-11.023 1.098-24.234-9.336-30.984-4.199-2.719-8.91-4.016-13.562-4.016-8.195-.004-16.219 4.024-21.004 11.414-15.766 24.348-42.465 38.891-71.418 38.891-46.871 0-85-38.137-85-85" fill="#6594b2"/><path d="m210 303.328c-13.809 0-25 11.195-25 25v73.344c0 74.441 60.563 135 135 135 45.984 0 88.375-23.078 113.391-61.723 7.504-11.59 4.187-27.066-7.407-34.566-11.597-7.5-27.062-4.192-34.566 7.398-15.766 24.348-42.465 38.891-71.418 38.891-46.871 0-85-38.137-85-85v-73.344c0-13.805-11.191-25-25-25" fill="#495672"/><path d="m320 320c-22.094 0-40-17.906-40-40 0-14.77 8.094-27.523 20-34.453v-25.547c0-11.047 8.953-20 20-20s20 8.953 20 20v25.547c11.906 6.93 20 19.683 20 34.453 0 22.094-17.906 40-40 40" fill="#495672"/><path d="m470 120h-300c-16.57 0-30 13.43-30 30v190c0 16.57 13.43 30 30 30h15v-61.672c0-13.808 11.191-25 25-25s25 11.192 25 25v20 41.672h235c16.57 0 30-13.43 30-30v-190c0-16.57-13.43-30-30-30m-170 100v-20c0-11.047 8.953-20 20-20s20 8.953 20 20v25.547c11.906 6.93 20 19.683 20 34.453 0 3.465-.441 6.828-1.27 10.035.829 3.18 1.27 6.516 1.27 9.965 0 22.094-17.906 40-40 40s-40-17.906-40-40c0-3.449.441-6.785 1.27-9.965-.829-3.207-1.27-6.57-1.27-10.035 0-14.77 8.094-27.523 20-34.453z" fill="#6594b2"/><path d="m210 283.328c-13.809 0-25 11.192-25 25v61.672-41.672c0-13.805 11.191-25 25-25s25 11.195 25 25v-20c0-13.808-11.191-25-25-25" fill="#567a95"/><path d="m210 303.328c-13.809 0-25 11.195-25 25v41.672h50v-41.672c0-13.805-11.191-25-25-25" fill="#404a5f"/><path d="m300 220v5.547zm-18.73 50.035c-.829 3.18-1.27 6.516-1.27 9.965 0 22.094 17.906 40 40 40s40-17.906 40-40c0-3.449-.441-6.785-1.27-9.965-4.453 17.235-20.105 29.965-38.73 29.965s-34.277-12.73-38.73-29.965" fill="#404a5f"/><path d="m340 245.547v-25.547c0-11.047-8.953-20-20-20s-20 8.953-20 20v25.547c-11.906 6.93-20 19.683-20 34.453 0 22.094 17.906 40 40 40s40-17.906 40-40c0-14.77-8.094-27.523-20-34.453zm130 144.453h-300c-16.57 0-30-13.43-30-30v-190c0-16.57 13.43-30 30-30h300c16.57 0 30 13.43 30 30v190c0 16.57-13.43 30-30 30" fill="#fff"/></g></svg>