<svg height="85.333328" viewBox="0 0 85.333328 85.333328" width="85.333328" xmlns="http://www.w3.org/2000/svg"><g transform="matrix(.13333333 0 0 -.13333333 0 85.333331)"><path d="m640 320c0-176.73-143.27-320-320-320s-320 143.27-320 320 143.27 320 320 320 320-143.27 320-320" fill="#77caa9"/><path d="m480 160h-100c-11.047 0-20 8.953-20 20v55c0 8.285 6.715 15 15 15h30.613c14.715 0 18.828 10.102 9.137 22.449l-77.133 98.289c-4.844 6.176-11.23 9.262-17.617 9.262s-12.773-3.086-17.617-9.262l-77.133-98.289c-9.691-12.347-5.578-22.449 9.137-22.449h30.613c8.285 0 15-6.715 15-15v-55c0-11.047-8.953-20-20-20h-80c-55.227 0-100 44.773-100 100 0 50.09 36.867 91.453 84.922 98.742 17.344 69.61 80.098 121.258 155.078 121.258 88.363 0 160-71.637 160-160 44.184 0 80-35.816 80-80s-35.816-80-80-80" fill="#62a48d"/><path d="m480 340c0 88.363-71.637 160-160 160-74.98 0-137.734-51.648-155.078-121.258-48.055-7.289-84.922-48.652-84.922-98.742 0-55.227 44.773-100 100-100h80c11.047 0 20 8.953 20 20v55c0 8.285-6.715 15-15 15h-30.613c-14.715 0-18.828 10.102-9.137 22.449l77.133 98.289c9.687 12.348 25.547 12.348 35.234 0l77.133-98.289c9.691-12.347 5.578-22.449-9.137-22.449h-30.613c-8.285 0-15-6.715-15-15v-55c0-11.047 8.953-20 20-20h100c44.184 0 80 35.816 80 80s-35.816 80-80 80" fill="#fff"/></g></svg>