<svg height="85.333328" viewBox="0 0 85.333328 85.333328" width="85.333328" xmlns="http://www.w3.org/2000/svg"><g transform="matrix(.13333333 0 0 -.13333333 0 85.333331)"><path d="m640 320c0-176.73-143.27-320-320-320s-320 143.27-320 320 143.27 320 320 320 320-143.27 320-320" fill="#77caa9"/><path d="m450 120h-300c-11.047 0-20 8.953-20 20v60h-20c-11.0469 0-20 8.953-20 20v60c0 11.047 8.9531 20 20 20h20v20c0 11.043 8.949 19.992 19.992 20-11.043-.008-19.992-8.957-19.992-20v-160c0-11.047 8.953-20 20-20h300c11.047 0 20 8.953 20 20v-20c0-11.047-8.953-20-20-20m100 40c-11.047 0-40 20-40 20h-40v100h40s28.953 20 40 20 20-8.953 20-20v-100c0-11.047-8.953-20-20-20" fill="#62a48d"/><g fill="#e1e3cc"><path d="m470 160c0-11.047-8.953-20-20-20h-300c-11.047 0-20 8.953-20 20v160c0 11.047 8.953 20 20 20h300c11.047 0 20-8.953 20-20z"/><path d="m530 220c0-11.047-8.953-20-20-20h-270c-11.047 0-20 8.953-20 20v60c0 11.047 8.953 20 20 20h270c11.047 0 20-8.953 20-20z"/><path d="m400 240c0-11.047-8.953-20-20-20h-270c-11.0469 0-20 8.953-20 20v60c0 11.047 8.9531 20 20 20h270c11.047 0 20-8.953 20-20z"/><path d="m570 200c0-11.047-8.953-20-20-20s-40 20-40 20v100s28.953 20 40 20 20-8.953 20-20z"/></g><path d="m149.992 340c-24.281 18.246-39.992 47.289-39.992 80 0 55.227 44.773 100 100 100s100-44.773 100-100c0-32.711-15.707-61.754-39.992-80h-120.008c-.004 0-.008 0-.008 0" fill="#62a48d"/><path d="m210 320c-22.516 0-43.293 7.441-60.008 20h.008 120.008c-16.715-12.559-37.492-20-60.008-20" fill="#b7b7a7"/><path d="m442.918 340h-105.836c-16.605 14.66-27.082 36.105-27.082 60 0 44.184 35.816 80 80 80s80-35.816 80-80c0-23.895-10.477-45.34-27.082-60" fill="#62a48d"/><path d="m390 320c-20.289 0-38.812 7.551-52.918 20h105.836c-14.105-12.449-32.629-20-52.918-20" fill="#b7b7a7"/><path d="m310 440c0-55.227-44.773-100-100-100s-100 44.773-100 100 44.773 100 100 100 100-44.773 100-100" fill="#fff"/><path d="m470 420c0-44.184-35.816-80-80-80s-80 35.816-80 80 35.816 80 80 80 80-35.816 80-80" fill="#fff"/></g></svg>