<svg height="85.333328" viewBox="0 0 85.333328 85.333328" width="85.333328" xmlns="http://www.w3.org/2000/svg"><g transform="matrix(.13333333 0 0 -.13333333 .222396 85.333331)"><path d="m638.332 320c0-176.73-143.266-320-320-320-176.73 0-319.99997 143.27-319.99997 320s143.26997 320 319.99997 320c176.734 0 320-143.27 320-320" fill="#c84755"/><g fill="#495672"><path d="m160 300h40v40h-40z"/><path d="m160 230h40v40h-40z"/><path d="m160 160h40v40h-40z"/><path d="m160 370h40v40h-40z"/><path d="m160 440h40v40h-40z"/><path d="m440 300h40v40h-40z"/><path d="m440 230h40v40h-40z"/><path d="m440 160h40v40h-40z"/><path d="m440 370h40v40h-40z"/><path d="m440 440h40v40h-40z"/><path d="m240 340h160v140h-160z"/><path d="m240 160h160v140h-160z"/></g><path d="m480 100h-320c-22.094 0-40 17.91-40 40v320c0 22.094 17.906 40 40 40h320c22.094 0 40-17.906 40-40v-320c0-22.09-17.906-40-40-40m-40 60v-20h40v40 20h-40zm-200 0v-20h160v140 20h-160zm-80 0v-20h40v40 20h-40zm280 70v-20h40v40 20h-40zm-280 0v-20h40v40 20h-40zm280 70v-20h40v40 20h-40zm-280 0v-20h40v40 20h-40zm80 40v-20h160v140 20h-160zm200 30v-20h40v40 20h-40zm-280 0v-20h40v40 20h-40zm280 70v-20h40v40 20h-40zm-280 0v-20h40v40 20h-40z" fill="#a43f4a"/><path d="m160 300v40h40v-20h-40z" fill="#404a5f"/><path d="m160 230v40h40v-20h-40z" fill="#404a5f"/><path d="m160 160v40h40v-20h-40z" fill="#404a5f"/><path d="m160 370v40h40v-20h-40z" fill="#404a5f"/><path d="m160 440v40h40v-20h-40z" fill="#404a5f"/><path d="m440 300v40h40v-20h-40z" fill="#404a5f"/><path d="m440 230v40h40v-20h-40z" fill="#404a5f"/><path d="m440 160v40h40v-20h-40z" fill="#404a5f"/><path d="m440 370v40h40v-20h-40z" fill="#404a5f"/><path d="m440 440v40h40v-20h-40z" fill="#404a5f"/><path d="m240 340v140h160v-20h-160z" fill="#404a5f"/><path d="m240 160v140h160v-20h-160z" fill="#404a5f"/><path d="m480 440h-40v40h40zm0-70h-40v40h40zm0-70h-40v40h40zm0-70h-40v40h40zm0-70h-40v40h40zm-80 180h-160v140h160zm0-180h-160v140h160zm-200 280h-40v40h40zm0-70h-40v40h40zm0-70h-40v40h40zm0-70h-40v40h40zm0-70h-40v40h40zm280 360h-320c-22.094 0-40-17.906-40-40v-320c0-22.09 17.906-40 40-40h320c22.094 0 40 17.91 40 40v320c0 22.094-17.906 40-40 40" fill="#e1e3cc"/></g></svg>