<svg height="85.333328" viewBox="0 0 85.333328 85.333328" width="85.333328" xmlns="http://www.w3.org/2000/svg"><g transform="matrix(.13333333 0 0 -.13333333 0 85.333331)"><path d="m640 320c0-176.73-143.27-320-320-320s-320 143.27-320 320 143.27 320 320 320 320-143.27 320-320" fill="#77caa9"/><path d="m310 260h110v80h-110z" fill="#495672"/><path d="m320 120h-160c-11.047 0-20 8.953-20 20v173.645-153.645c0-11.047 8.953-20 20-20h160c11.047 0 20 8.953 20 20v-20c0-11.047-8.953-20-20-20" fill="#62a48d"/><path d="m530 160h-140c-11.047 0-20 8.953-20 20v60h50v100h-50v40c0 11.047 8.953 20 20 20h140c11.047 0 20-8.953 20-20v-200c0-11.047-8.953-20-20-20" fill="#62a48d"/><path d="m340 240h30v20h-30z" fill="#62a48d"/><path d="m370 260h-30v53.645c5.414 8.14 9.859 16.98 13.172 26.355h16.828z" fill="#404a5f"/><path d="m420 240h-50v20h50v80z" fill="#538777"/><path d="m370 260h50v80h-50z" fill="#394051"/><g fill="#495672"><path d="m340 160c0-11.047-8.953-20-20-20h-160c-11.047 0-20 8.953-20 20v240c0 11.047 8.953 20 20 20h160c11.047 0 20-8.953 20-20z"/><path d="m550 200c0-11.047-8.953-20-20-20h-140c-11.047 0-20 8.953-20 20v200c0 11.047 8.953 20 20 20h140c11.047 0 20-8.953 20-20z"/><path d="m240 490c-49.625 0-90-40.375-90-90s40.375-90 90-90 90 40.375 90 90-40.375 90-90 90"/></g><path d="m185 190c-13.809 0-25 11.191-25 25s11.191 25 25 25 25-11.191 25-25-11.191-25-25-25" fill="#404a5f"/><path d="m210 235c0-13.809-11.191-25-25-25s-25 11.191-25 25 11.191 25 25 25 25-11.191 25-25" fill="#c84755"/><path d="m140 313.645c-12.637 19.003-20 41.824-20 66.355 0 66.273 53.727 120 120 120s120-53.727 120-120c0-14.023-2.406-27.488-6.828-40h-13.172v60c0 8.148-4.875 15.16-11.863 18.277-8.469 40.891-44.774 71.723-88.137 71.723s-79.664-30.832-88.137-71.723c-6.988-3.117-11.863-10.129-11.863-18.277v-20z" fill="#62a48d"/><path d="m340 313.645v26.355h13.172c-3.313-9.375-7.758-18.215-13.172-26.355" fill="#394051"/><path d="m240 260c-41.742 0-78.504 21.309-100 53.645v66.355 20c0 8.148 4.875 15.16 11.863 18.277-1.222-5.906-1.863-12.015-1.863-18.277 0-3.379.188-6.715.551-10-.363-3.285-.551-6.621-.551-10 0-49.625 40.375-90 90-90s90 40.375 90 90c0 3.379-.187 6.715-.551 10 .364 3.285.551 6.621.551 10 0 6.262-.641 12.371-1.863 18.277 6.988-3.117 11.863-10.129 11.863-18.277v-60-26.355c-21.496-32.336-58.258-53.645-100-53.645" fill="#404a5f"/><path d="m329.449 390c-4.992 44.938-43.203 80-89.449 80s-84.457-35.062-89.449-80c-.363 3.285-.551 6.621-.551 10 0 6.262.641 12.371 1.863 18.277 8.473 40.891 44.774 71.723 88.137 71.723s79.668-30.832 88.137-71.723c1.222-5.906 1.863-12.015 1.863-18.277 0-3.379-.187-6.715-.551-10" fill="#404a5f"/><path d="m240 310c-49.625 0-90 40.375-90 90s40.375 90 90 90 90-40.375 90-90-40.375-90-90-90zm0 210c-66.273 0-120-53.727-120-120s53.727-120 120-120 120 53.727 120 120-53.727 120-120 120" fill="#e1e3cc"/></g></svg>