<svg height="85.333328" viewBox="0 0 85.333328 85.333328" width="85.333328" xmlns="http://www.w3.org/2000/svg"><g transform="matrix(.13333333 0 0 -.13333333 0 85.333331)"><path d="m640 320c0-176.73-143.27-320-320-320s-320 143.27-320 320 143.27 320 320 320 320-143.27 320-320" fill="#495672"/><g fill="#404a5f"><path d="m260 140h120v40h-120z"/><path d="m400 140h120v40h-120z"/><path d="m120 140h120v40h-120z"/><path d="m260 190h120v40h-120z"/><path d="m400 190h120v40h-120z"/><path d="m120 190h120v40h-120z"/><path d="m260 240h120v40h-120z"/><path d="m400 240h120v40h-120z"/><path d="m120 240h120v40h-120z"/><path d="m260 290h120v40h-120z"/><path d="m400 290h120v40h-120z"/><path d="m260 340h120v40h-120z"/><path d="m260 390h120v40h-120z"/><path d="m260 440h120v40h-120z"/></g><path d="m380 160h-120v40h120z" fill="#c84755"/><path d="m520 160h-120v40h120z" fill="#c84755"/><path d="m240 160h-120v40h120z" fill="#c84755"/><path d="m380 210h-120v40h120z" fill="#e08e4c"/><path d="m520 210h-120v40h120z" fill="#e08e4c"/><path d="m240 210h-120v40h120z" fill="#e08e4c"/><path d="m380 260h-120v40h120z" fill="#e08e4c"/><path d="m520 260h-120v40h120z" fill="#e08e4c"/><path d="m240 260h-120v40h120z" fill="#e08e4c"/><path d="m380 310h-120v40h120z" fill="#f3cc70"/><path d="m520 310h-120v40h120z" fill="#f3cc70"/><path d="m380 360h-120v40h120z" fill="#f3cc70"/><path d="m380 410h-120v40h120z" fill="#77caa9"/><path d="m380 460h-120v40h120z" fill="#77caa9"/></g></svg>