<svg height="85.333328" viewBox="0 0 85.333328 85.333328" width="85.333328" xmlns="http://www.w3.org/2000/svg"><g transform="matrix(.13333333 0 0 -.13333333 0 85.333331)"><path d="m640 320c0-176.73-143.27-320-320-320s-320 143.27-320 320 143.27 320 320 320 320-143.27 320-320" fill="#7db6d8"/><path d="m320 100c-88.367 0-160 75.766-160 169.23 0 93.465 96 169.231 160 270.77 64-101.539 160-177.305 160-270.77 0-93.464-71.633-169.23-160-169.23" fill="#6594b2"/><path d="m480 289.23c0-93.464-71.633-169.23-160-169.23s-160 75.766-160 169.23c0 93.465 96 169.231 160 270.77 64-101.539 160-177.305 160-270.77" fill="#fff"/></g></svg>