<svg height="85.333328" viewBox="0 0 85.333328 85.333328" width="85.333328" xmlns="http://www.w3.org/2000/svg"><g transform="matrix(.13333333 0 0 -.13333333 0 85.333331)"><path d="m640 320c0-176.73-143.27-320-320-320s-320 143.27-320 320 143.27 320 320 320 320-143.27 320-320" fill="#f3cc70"/><path d="m320 60c-16.566 0-30 13.4336-30 30v10c0 2.156.078 4.258.227 6.301 1.82-14.8244 14.457-26.301 29.773-26.301 16.566 0 30 13.4336 30 30v10c.016 3 .414 4.777.922 6.281.894 2.52 2.437 5 6.422 8.93 2.937 2.883 7.101 6.254 12.109 10.242 7.434 6.043 17.012 13.399 25.625 25.012 4.262 5.793 8.145 12.719 10.817 20.586 1.605 4.691 2.761 9.679 3.429 14.855.446-2.961.676-6.051.676-9.285 0-38.715-24.828-58.586-41.254-71.734-14.953-11.961-18.746-15.969-18.746-24.887v-10c0-16.5664-13.434-30-30-30m23.031 141.785c-9.855 5.297-27.304 11.426-37.968 15.168-35.899 12.602-85.063 29.867-85.063 76.942 0 3.757.254 7.332.727 10.742.511-3.227 1.293-6.387 2.324-9.418 3.781-11.16 10.672-19.981 17.914-26.496 6.394-5.758 13.191-10.09 20.058-13.793 12.028-6.422 24.481-11.016 36.461-15.301 8.969-3.191 17.653-6.145 25.356-9.09 11.551-4.316 20.855-9.019 24.82-12.293 1-.793 1.684-1.449 2.082-1.891l.25-.312c-.058-2.652-.441-4.297-.914-5.703-.867-2.438-2.34-4.84-6.047-8.555m-53.945 106.192c-2.918 1.574-5.223 3.039-6.746 4.296-1 .79-1.684 1.45-2.082 1.891l-.246.305c.066 2.105.386 3.187.797 4.25.406.992.996 2.039 2.16 3.476 1.984 2.489 5.965 5.965 11.652 9.961 4.242 3.016 9.348 6.336 14.902 10.246 8.278 5.899 17.86 13.09 26.211 24.207 4.129 5.547 7.832 12.118 10.371 19.524 1.524 4.398 2.618 9.058 3.25 13.867h.645v-10c0-40.227-28.984-59.879-48.164-72.883-5.461-3.703-9.613-6.644-12.75-9.14" fill="#c7a85f"/><path d="m350 110v10c.016 3 .414 4.777.922 6.281.894 2.52 2.437 5 6.422 8.93 2.937 2.883 7.101 6.254 12.109 10.242 7.434 6.043 17.012 13.399 25.625 25.012 4.262 5.793 8.145 12.719 10.817 20.586 2.691 7.859 4.117 16.562 4.105 25.57.012 6.371-1.039 12.777-3.051 18.68-3.781 11.16-10.672 19.976-17.914 26.496-6.394 5.758-13.191 10.09-20.058 13.793-12.028 6.422-24.481 11.015-36.461 15.301-8.969 3.191-17.653 6.144-25.356 9.089-11.555 4.317-20.855 9.016-24.82 12.293-1 .79-1.684 1.45-2.082 1.891l-.5.621-.024.035-1.843-1.039 2.035.539-.192.5-1.843-1.039 2.035.539-2.461-.652 2.523.324-.062.328-2.461-.652 2.523.324-.742-.094h.754l-.012.094-.742-.094h.754c.023 2.489.363 3.668.809 4.821.406.992.996 2.039 2.16 3.476 1.984 2.489 5.965 5.965 11.652 9.961 4.242 3.016 9.348 6.336 14.902 10.246 8.278 5.899 17.86 13.09 26.211 24.207 4.129 5.547 7.832 12.118 10.371 19.524 2.559 7.394 3.907 15.539 3.895 23.867v50c0 16.57-13.434 30-30 30-16.57 0-30-13.43-30-30v-50c-.023-2.488-.363-3.668-.809-4.82-.406-.992-.996-2.039-2.16-3.477-1.984-2.488-5.965-5.965-11.652-9.961-4.242-3.015-9.348-6.34-14.902-10.25-8.278-5.894-17.86-13.086-26.211-24.207-4.129-5.543-7.832-12.113-10.371-19.519-2.559-7.395-3.907-15.539-3.895-23.868-.012-6.375 1.039-12.781 3.051-18.679 3.781-11.16 10.672-19.981 17.914-26.496 6.394-5.758 13.191-10.09 20.058-13.793 12.028-6.422 24.481-11.016 36.461-15.301 8.969-3.191 17.653-6.145 25.356-9.09 11.551-4.316 20.855-9.019 24.82-12.293 1-.793 1.684-1.449 2.082-1.891l.5-.621.024-.035 1.843 1.039-2.035-.539.192-.5 1.843 1.039-2.035-.539 2.461.653-2.523-.325.062-.328 2.461.653-2.523-.325.73.094h-.742l.012-.094.73.094h-.742c-.016-3-.414-4.777-.922-6.281-.894-2.516-2.437-5-6.422-8.926-2.937-2.883-7.101-6.254-12.109-10.246-7.434-6.039-17.012-13.395-25.625-25.012-4.262-5.793-8.145-12.718-10.817-20.586-2.691-7.859-4.117-16.558-4.105-25.57v-10c0-16.5664 13.43-30 30-30 16.566 0 30 13.4336 30 30" fill="#495672"/><path d="m405.613 400h-55.613v40 .098 19.902c0 16.57-13.434 30-30 30-16.57 0-30-13.43-30-30v-19.926c0-.023 0-.051 0-.074v-30c-.023-2.488-.363-3.668-.809-4.82-.406-.992-.996-2.039-2.16-3.477-.418-.523-.926-1.094-1.519-1.703h-51.125c-14.715 0-18.828 10.879-9.137 24.176l77.133 105.851c4.844 6.649 11.23 9.973 17.617 9.973s12.773-3.324 17.617-9.973l77.133-105.851c9.691-13.297 5.578-24.176-9.137-24.176" fill="#c7a85f"/><path d="m350 400h-.645c.43 3.277.649 6.625.645 10v30.098c0-.032 0-.067 0-.098zm-60 10v30 .074z" fill="#a48c53"/><path d="m349.355 400h-63.843c.593.609 1.101 1.18 1.519 1.703 1.164 1.438 1.754 2.485 2.16 3.477.446 1.152.786 2.332.809 4.82v30.074 19.926c0 16.57 13.43 30 30 30 16.566 0 30-13.43 30-30v-19.902-30.098c.004-3.375-.215-6.723-.645-10" fill="#404a5f"/><path d="m234.387 420c-14.715 0-18.828 10.879-9.137 24.176l77.133 105.851c9.687 13.297 25.547 13.297 35.234 0l77.133-105.851c9.691-13.297 5.578-24.176-9.137-24.176z" fill="#495672"/></g></svg>