<svg height="85.333328" viewBox="0 0 85.333328 85.333328" width="85.333328" xmlns="http://www.w3.org/2000/svg"><g transform="matrix(.13333333 0 0 -.13333333 0 85.333331)"><path d="m640 320c0-176.73-143.27-320-320-320s-320 143.27-320 320 143.27 320 320 320 320-143.27 320-320" fill="#495672"/><path d="m215 65c-8.285 0-15 6.7148-15 15v400c0 8.285 6.715 15 15 15s15-6.715 15-15v-400c0-8.2852-6.715-15-15-15" fill="#404a5f"/><path d="m260 183.406v273.188l35.883-7.176 60-12 21.867-4.375 38.133-7.625 24.117-4.82v-.004l55.883-11.176c14.023-2.805 24.117-15.117 24.117-29.418v-120c0-14.301-10.094-26.613-24.117-29.414l-55.883-11.18v-.004l-24.117-4.82-35.883-7.176-24.117-4.824-60-11.996z" fill="#404a5f"/><path d="m230 100v400c0 8.285-6.715 15-15 15s-15-6.715-15-15v-400c0-8.2852 6.715-15 15-15s15 6.7148 15 15" fill="#e1e3cc"/><g fill="#e08e4c"><path d="m275 458.297 90-18.004v-200.586l-90-18.004z"/><path d="m260 476.594v-273.188l35.883 7.176 60 12 24.117 4.824v24.594 176 24.594l-24.117 4.824-60 12zm30-36.594 60-12v-176l-60-12z"/><path d="m430 252.996c-3.437 0-6.809 1.184-9.512 3.399-3.476 2.851-5.488 7.113-5.488 11.601v144.008c0 4.488 2.012 8.75 5.488 11.601 2.703 2.215 6.075 3.399 9.512 3.399.977 0 1.965-.102 2.938-.293l60-12.004c7.011-1.402 12.062-7.559 12.062-14.707v-120c0-7.148-5.051-13.305-12.062-14.707l-60-12c-.973-.195-1.961-.297-2.938-.297"/><path d="m430 442c-6.875 0-13.609-2.363-19.02-6.801-6.949-5.695-10.98-14.211-10.98-23.199v-144c0-8.988 4.031-17.504 10.98-23.199 5.411-4.438 12.145-6.801 19.02-6.801 1.961 0 3.93.191 5.883.582l60 12c14.023 2.805 24.117 15.117 24.117 29.418v120c0 14.301-10.094 26.613-24.117 29.418l-60 12c-1.953.391-3.922.582-5.883.582zm0-30 60-12v-120l-60-12z"/></g><path d="m355 442.297 70-13.996v-176.602l-70-13.996z" fill="#fff"/><path d="m340 460.594v-241.188l35.883 7.176 40 8 24.117 4.82v24.598 152 24.598l-24.117 4.82-40 8zm30-36.594 40-8v-152l-40-8z" fill="#fff"/></g></svg>