<svg height="85.333328" viewBox="0 0 85.333328 85.333328" width="85.333328" xmlns="http://www.w3.org/2000/svg"><g transform="matrix(.13333333 0 0 -.13333333 0 85.333331)"><path d="m640 320c0-176.73-143.27-320-320-320s-320 143.27-320 320 143.27 320 320 320 320-143.27 320-320" fill="#e1e3cc"/><path d="m420 150h-200c-2.652 0-5.242.258-7.75.75 4.848 5.602 10.441 12.055 16.699 19.25h191.051c3.023 0 5.969.336 8.801.973 3.762-5.149 7.465-10.36 11.121-15.668-5.867-3.375-12.668-5.305-19.922-5.305m-237.867 27.078c-1.383 4.055-2.133 8.399-2.133 12.922v200-180c0-9.52 3.328-18.266 8.883-25.133-2.387-2.754-4.637-5.347-6.75-7.789" fill="#b7b7a7"/><path d="m220 190c-11.031 0-20 8.977-20 20v200c0 11.023 8.969 20 20 20h200c11.031 0 20-8.977 20-20v-200c0-11.023-8.969-20-20-20z" fill="#fff"/><path d="m420 450h-200c-22.09 0-40-17.906-40-40v-200c0-22.094 17.91-40 40-40h200c22.09 0 40 17.906 40 40v200c0 22.094-17.91 40-40 40m0-40v-200h-200v200z" fill="#495672"/><path d="m469.98 126.184c-6.613 0-13.078 3.269-16.882 9.246-4.297 6.742-8.7 13.375-13.176 19.875 3.254 1.875 6.219 4.191 8.816 6.871 1.465-2.238 2.914-4.481 4.36-6.746 3.812-5.977 10.277-9.246 16.882-9.246 3.676 0 7.399 1.011 10.727 3.132 2.809 1.789 5.02 4.164 6.578 6.864 5.328-9.219 2.496-21.086-6.57-26.864-3.332-2.121-7.063-3.132-10.735-3.132" fill="#b7b7a7"/><path d="m439.922 155.305c-3.656 5.308-7.359 10.519-11.121 15.668 3.961.886 7.699 2.367 11.121 4.332 2.973-4.317 5.922-8.707 8.816-13.129-2.597-2.68-5.562-4.996-8.816-6.871" fill="#97978c"/><path d="m414.398 210h-16.246c-22.652 26.918-46.316 51.207-69.714 72.855 3.214 3.594 6.46 7.219 9.73 10.864 25.871-24.696 51.855-52.61 76.23-83.719" fill="#d4d3d1"/><path d="m428.801 170.973c-9.914 13.566-20.18 26.586-30.649 39.027h16.246c8.747-11.16 17.27-22.711 25.524-34.695-3.422-1.965-7.16-3.446-11.121-4.332" fill="#404a5f"/><path d="m180 394.34c-23.379 14.047-38 21.207-38.523 21.461-9.946 4.797-14.122 16.75-9.336 26.687.218.457.453.903.699 1.332 1.937-3.367 4.875-6.207 8.64-8.019.524-.254 15.231-7.457 38.739-21.59-.145-1.383-.219-2.789-.219-4.211z" fill="#b7b7a7"/><path d="m298.473 309.344c-28.168 23.797-55.102 43.605-78.473 59.433v20c26.16-17.714 56.789-40.422 88.602-68.121-3.407-3.797-6.782-7.566-10.129-11.312" fill="#d4d3d1"/><path d="m220 368.777c-15.02 10.172-28.555 18.692-40 25.563v15.66c0 1.422.074 2.828.219 4.211 11.398-6.852 24.859-15.328 39.781-25.434z" fill="#404a5f"/><path d="m469.98 146.184c-6.605 0-13.07 3.269-16.882 9.246-118.317 185.664-309.7 279.441-311.618 280.371-9.949 4.797-14.125 16.75-9.335 26.687 4.789 9.946 16.707 14.133 26.679 9.36 8.242-3.965 203.367-99.336 328-294.914 5.942-9.317 3.199-21.68-6.117-27.618-3.328-2.121-7.051-3.132-10.727-3.132" fill="#c84755"/><path d="m176.172 119.531c-4.602 0-9.219 1.574-12.988 4.793-8.399 7.192-9.383 19.809-2.207 28.203.343.403 8.023 9.375 21.156 24.551 4.562-13.375 16.012-23.558 30.117-26.328-12.953-14.973-20.527-23.82-20.863-24.219-3.965-4.629-9.571-7-15.215-7" fill="#b7b7a7"/><path d="m212.25 150.75c-14.105 2.77-25.555 12.953-30.117 26.328 2.113 2.442 4.363 5.035 6.75 7.789 7.332-9.07 18.547-14.867 31.117-14.867h8.949c-6.258-7.195-11.851-13.648-16.699-19.25" fill="#97978c"/><path d="m263.898 210h-43.898v10.594c22.141 25.308 49.113 55.918 78.473 88.75 9.871-8.34 19.894-17.168 29.965-26.489-23.454-26.23-45.383-51.039-64.54-72.855" fill="#d4d3d1"/><path d="m228.949 170h-8.949c-12.57 0-23.785 5.797-31.117 14.867 8.719 10.055 19.219 22.125 31.117 35.727v-10.594h43.898c-13.082-14.902-24.871-28.41-34.949-40" fill="#404a5f"/><path d="m457.57 423.766c-4.859 13.257-16.539 23.226-30.789 25.66 7.61 8.054 15.149 15.98 22.606 23.75 3.926 4.09 9.179 6.152 14.437 6.152 4.985 0 9.969-1.848 13.844-5.566 7.969-7.649 8.23-20.317.586-28.282-6.824-7.109-13.731-14.363-20.684-21.714" fill="#b7b7a7"/><path d="m365.156 323.676c-9.894 9.449-19.765 18.445-29.527 26.976 17.801 19.664 36.059 39.645 54.297 59.348h30.074v-26.395c-18.41-19.878-36.867-40.074-54.844-59.929" fill="#d4d3d1"/><path d="m420 383.605v26.395h-30.074c12.34 13.328 24.679 26.535 36.855 39.426 14.25-2.434 25.93-12.403 30.789-25.66-12.41-13.121-24.976-26.567-37.57-40.161" fill="#404a5f"/><path d="m328.438 282.855c-10.071 9.321-20.094 18.149-29.965 26.489 3.347 3.746 6.722 7.515 10.129 11.312 9.773-8.504 19.664-17.492 29.566-26.937-3.27-3.645-6.516-7.27-9.73-10.864" fill="#aeabaa"/><path d="m338.168 293.719c-9.902 9.445-19.793 18.433-29.566 26.937 8.843 9.86 17.878 19.891 27.027 29.996 9.762-8.531 19.633-17.527 29.527-26.976-9.144-10.106-18.148-20.102-26.988-29.957" fill="#a43f4a"/><path d="m176.172 139.531c-4.602 0-9.219 1.574-12.988 4.793-8.395 7.192-9.379 19.809-2.204 28.203 1.579 1.848 159.309 186.118 288.411 320.649 7.636 7.969 20.297 8.242 28.277.586 7.969-7.649 8.23-20.317.578-28.282-128.289-133.695-285.293-317.113-286.863-318.949-3.957-4.629-9.567-7-15.211-7" fill="#c84755"/></g></svg>