<svg height="85.333328" viewBox="0 0 85.333328 85.333328" width="85.333328" xmlns="http://www.w3.org/2000/svg"><g transform="matrix(.13333333 0 0 -.13333333 0 85.333331)"><path d="m640 320c0-176.73-143.27-320-320-320s-320 143.27-320 320 143.27 320 320 320 320-143.27 320-320" fill="#e08e4c"/><path d="m480 113.496c-6.395 0-12.797 2.442-17.676 7.324l-53.129 53.133-1.668 2.039c-30.047-22.492-67.195-35.988-107.527-35.988-99.254 0-180 80.746-180 180 0 99.25 80.746 180 180 180s180-80.75 180-180c0-41.094-13.992-78.895-37.258-109.227l1.805-1.472 53.129-53.129c9.765-9.762 9.765-25.594 0-35.356-4.879-4.882-11.281-7.324-17.676-7.324m-180 346.508c-77.32 0-140-62.684-140-140 0-77.32 62.68-140 140-140s140 62.68 140 140c0 77.316-62.68 140-140 140" fill="#b77744"/><path d="m365 300.004h-130c-11.047 0-20 8.953-20 20 0 11.043 8.953 20 20 20h130c11.047 0 20-8.957 20-20 0-11.047-8.953-20-20-20" fill="#b77744"/><path d="m480 133.496c-6.395 0-12.797 2.442-17.676 7.324l-53.129 53.129c-9.765 9.762-9.765 25.594 0 35.352 9.754 9.765 25.594 9.765 35.352 0l53.129-53.129c9.765-9.762 9.765-25.59 0-35.352-4.879-4.882-11.281-7.324-17.676-7.324" fill="#495672"/><path d="m300 520c-99.254 0-180-80.746-180-180s80.746-180 180-180 180 80.746 180 180-80.746 180-180 180zm0-40c77.32 0 140-62.68 140-140s-62.68-140-140-140-140 62.68-140 140 62.68 140 140 140" fill="#495672"/><path d="m365 320h-130c-11.047 0-20 8.953-20 20s8.953 20 20 20h130c11.047 0 20-8.953 20-20s-8.953-20-20-20" fill="#fff"/></g></svg>