<?xml version="1.0" encoding="utf-8"?>
<!-- Generator: Adobe Illustrator 16.0.0, SVG Export Plug-In . SVG Version: 6.00 Build 0)  -->
<!DOCTYPE svg PUBLIC "-//W3C//DTD SVG 1.1//EN" "http://www.w3.org/Graphics/SVG/1.1/DTD/svg11.dtd">
<svg version="1.1" xmlns="http://www.w3.org/2000/svg" xmlns:xlink="http://www.w3.org/1999/xlink" x="0px" y="0px" width="512px"
	 height="512px" viewBox="0 0 512 512" enable-background="new 0 0 512 512" xml:space="preserve">
<g id="guides">
</g>
<g id="icon">
	<polygon fill="#231F20" points="424,112.733 396.845,72 115.155,72 88,112.733 88,424 424,424 	"/>
	<rect x="112" y="120" fill="#FF58A0" width="288" height="280"/>
	<rect x="136" y="144" fill="#320212" width="240" height="232"/>
	<polygon fill="#C1387A" points="384,96 128,96 112,120 400,120 	"/>
	<polygon fill="#FF8DC4" points="117.333,112 112,120 400,120 394.666,112 	"/>
	<g>
		<g>
			<path fill="#FF58A0" d="M198.081,312V205.278h22.721V312H198.081z"/>
			<path fill="#FF58A0" d="M294.561,312v-9.92c-6.08,7.68-14.4,11.84-23.841,11.84c-19.36,0-34.241-14.719-34.241-40.641
				c0-25.12,14.561-40.48,34.241-40.48c9.12,0,17.761,3.84,23.841,11.84v-39.361h20.48V312H294.561z M294.561,287.039V259.68
				c-3.36-5.121-10.721-8.801-17.44-8.801c-11.681,0-19.681,9.121-19.681,22.4c0,13.441,8,22.561,19.681,22.561
				C283.84,295.84,291.2,292.16,294.561,287.039z"/>
		</g>
	</g>
</g>
</svg>
