<?xml version="1.0" encoding="utf-8"?>
<!-- Generator: Adobe Illustrator 16.0.0, SVG Export Plug-In . SVG Version: 6.00 Build 0)  -->
<!DOCTYPE svg PUBLIC "-//W3C//DTD SVG 1.1//EN" "http://www.w3.org/Graphics/SVG/1.1/DTD/svg11.dtd">
<svg version="1.1" id="Layer_1" xmlns="http://www.w3.org/2000/svg" xmlns:xlink="http://www.w3.org/1999/xlink" x="0px" y="0px"
	 width="512px" height="512px" viewBox="0 0 512 512" enable-background="new 0 0 512 512" xml:space="preserve">
<g id="guides">
</g>
<g id="icon">
	<polygon fill="#231F20" points="424,112.733 396.845,72 115.155,72 88,112.733 88,424 424,424 	"/>
	<rect x="112" y="120" fill="#D757FF" width="288" height="280"/>
	<rect x="136" y="144" fill="#3A2641" width="240" height="232"/>
	<polygon fill="#BE4DE8" points="384,96 128,96 112,120 400,120 	"/>
	<polygon fill="#DD80FF" points="117.333,112 112,120 400,120 394.666,112 	"/>
	<g enable-background="new    ">
		<path fill="#D757FF" d="M188.081,312V205.277h49.921c23.201,0,35.841,15.681,35.841,34.401c0,18.56-12.801,34.24-35.841,34.24
			h-27.201V312H188.081z M250.643,239.679c0-8.961-6.88-14.4-15.84-14.4h-24v28.641h24
			C243.763,253.919,250.643,248.479,250.643,239.679z"/>
		<path fill="#D757FF" d="M287.602,312v-77.282h20.32v10.4c5.6-6.72,15.04-12.32,24.641-12.32v19.841
			c-1.44-0.32-3.2-0.48-5.601-0.48c-6.72,0-15.681,3.841-19.04,8.801V312H287.602z"/>
	</g>
</g>
</svg>
