<?xml version="1.0" encoding="utf-8"?>
<!-- Generator: Adobe Illustrator 16.0.0, SVG Export Plug-In . SVG Version: 6.00 Build 0)  -->
<!DOCTYPE svg PUBLIC "-//W3C//DTD SVG 1.1//EN" "http://www.w3.org/Graphics/SVG/1.1/DTD/svg11.dtd">
<svg version="1.1" xmlns="http://www.w3.org/2000/svg" xmlns:xlink="http://www.w3.org/1999/xlink" x="0px" y="0px" width="512px"
	 height="512px" viewBox="0 0 512 512" enable-background="new 0 0 512 512" xml:space="preserve">
<g id="guides">
</g>
<g id="icon">
	<polygon fill="#231F20" points="424,112.733 396.845,72 115.155,72 88,112.733 88,424 424,424 	"/>
	<rect x="112" y="120" fill="#1D74F2" width="288" height="280"/>
	<polygon fill="#1C62B7" points="384,96 128,96 112,120 400,120 	"/>
	<polygon fill="#3F8DEA" points="117.333,112 112,120 400,120 394.666,112 	"/>
	<path fill="#FFFFFF" d="M286,344h-22v-32h-16v32h-22c-5.5,0-10,3.6-10,8s4.5,8,10,8h60c5.5,0,10-3.6,10-8S291.5,344,286,344z"/>
	<path fill="#FFFFFF" d="M318,184H209.5v-19c0-1.93,1.57-3.5,3.5-3.5h11.184c0.885,3.689,4.958,6.5,9.816,6.5h12c5.5,0,10-3.6,10-8
		s-4.5-8-10-8h-12c-4.859,0-8.932,2.811-9.816,6.5H213c-3.584,0-6.5,2.916-6.5,6.5v19H194c-5.5,0-10,4.5-10,10v69.999h144V194
		C328,188.5,323.5,184,318,184z"/>
	<polygon fill="#FFFFFF" points="168,280 176,296 336,296 344,280 	"/>
</g>
</svg>
