<?xml version="1.0" encoding="utf-8"?>
<!-- Generator: Adobe Illustrator 16.0.0, SVG Export Plug-In . SVG Version: 6.00 Build 0)  -->
<!DOCTYPE svg PUBLIC "-//W3C//DTD SVG 1.1//EN" "http://www.w3.org/Graphics/SVG/1.1/DTD/svg11.dtd">
<svg version="1.1" xmlns="http://www.w3.org/2000/svg" xmlns:xlink="http://www.w3.org/1999/xlink" x="0px" y="0px" width="512px"
	 height="512px" viewBox="0 0 512 512" enable-background="new 0 0 512 512" xml:space="preserve">
<g id="guides">
</g>
<g id="icon">
	<polygon fill="#231F20" points="424,112.733 396.845,72 115.155,72 88,112.733 88,424 424,424 	"/>
	<rect x="112" y="120" fill="#24A4DD" width="288" height="280"/>
	<rect x="144" y="152" fill="#FFFFFF" width="224" height="216"/>
	<polygon fill="#115A91" points="384,96 128,96 112,120 400,120 	"/>
	<polygon fill="#54C7EF" points="117.333,112 112,120 400,120 394.666,112 	"/>
	<polygon fill="#231F20" points="200,312 200,208 240,208 240,176 168,176 168,344 240,344 240,312 	"/>
	<polygon fill="#231F20" points="272,176 272,208 312,208 312,312 272,312 272,344 344,344 344,176 	"/>
</g>
</svg>
