<?xml version="1.0" encoding="utf-8"?>
<!-- Generator: Adobe Illustrator 16.0.0, SVG Export Plug-In . SVG Version: 6.00 Build 0)  -->
<!DOCTYPE svg PUBLIC "-//W3C//DTD SVG 1.1//EN" "http://www.w3.org/Graphics/SVG/1.1/DTD/svg11.dtd">
<svg version="1.1" xmlns="http://www.w3.org/2000/svg" xmlns:xlink="http://www.w3.org/1999/xlink" x="0px" y="0px" width="512px"
	 height="512px" viewBox="0 0 512 512" enable-background="new 0 0 512 512" xml:space="preserve">
<g id="guides">
</g>
<g id="icon">
	<g>
		<polygon fill="#231F20" points="424,112.733 396.845,72 115.155,72 88,112.733 88,424 424,424 		"/>
		<g>
			<rect x="112" y="120" fill="#80397B" width="288" height="280"/>
			<polygon fill="#6D2C6B" points="384,96 128,96 112,120 400,120 			"/>
			<polygon fill="#A556A3" points="117.333,112 112,120 400,120 394.666,112 			"/>
		</g>
	</g>
	<polygon fill="#FFFFFF" points="264,352 160,320 160,200 264,168 	"/>
	<g>
		<polyline fill="#80397B" points="232.273,229.407 217.072,230.924 217.072,265.17 195.98,233.029 183.637,234.261 
			183.637,289.826 195.617,291.022 195.617,257.482 217.659,293.223 232.273,294.681 232.273,229.407 		"/>
	</g>
	<polygon fill="#FFFFFF" points="328,216 328,200 272,200 272,216 312,216 312,224 272,224 272,236 312,236 312,244 272,244 
		272,256 312,256 312,264 272,264 272,276 312,276 312,284 272,284 272,296 312,296 312,304 272,304 272,320 328,320 328,240 
		344,240 344,216 	"/>
	<rect x="336" y="248" fill="#FFFFFF" width="8" height="24"/>
	<rect x="336" y="280" fill="#FFFFFF" width="8" height="24"/>
</g>
</svg>
