<?xml version="1.0" encoding="utf-8"?>
<!-- Generator: Adobe Illustrator 18.1.0, SVG Export Plug-In . SVG Version: 6.00 Build 0)  -->
<svg version="1.1" id="Layer_1" xmlns="http://www.w3.org/2000/svg" xmlns:xlink="http://www.w3.org/1999/xlink" x="0px" y="0px"
	 viewBox="0 0 64 64" enable-background="new 0 0 64 64" xml:space="preserve">
<g>
	<path fill="#E8E8E8" d="M48.3,18H42l3.9-11.7C46,6.1,46,5.9,46,5.7l0,0c0-1-0.8-1.7-1.7-1.7H21.7c-1,0-1.7,0.8-1.7,1.7l0,0
		c0,0.2,0,0.4,0.1,0.5L24,18h-6.3c-1,0-1.7,0.8-1.7,1.7c0,0.2,0,0.4,0.1,0.5L19.7,31c0.2,0.6,0.6,1.2,1.1,1.7
		c0.8,0.8,1.9,1.3,3.1,1.3H26v30h14V34h2.2c1.2,0,2.3-0.5,3.1-1.3c0.5-0.5,0.8-1.1,1.1-1.7l3.6-10.8c0.1-0.2,0.1-0.4,0.1-0.5
		C50,18.8,49.2,18,48.3,18z"/>
	<path fill="#5997CF" d="M26,9.7c0,0.2,0,0.4,0.1,0.5l1.5,4.6c0.2,0.7,0.9,1.2,1.6,1.2H32V8h-4.3C26.8,8,26,8.8,26,9.7z M38.3,8H34
		v8h2.8c0.7,0,1.4-0.5,1.6-1.2l1.5-4.6C40,10.1,40,9.9,40,9.7C40,8.8,39.2,8,38.3,8z"/>
	<path fill="#5C5C5C" d="M35,0h-4c-0.6,0-1,0.4-1,1s0.4,1,1,1h1v2h2V2h1c0.6,0,1-0.4,1-1S35.6,0,35,0z"/>
	<path fill="#5997CF" d="M22,23.7c0,0.2,0,0.4,0.1,0.5l1.5,4.6c0.2,0.7,0.9,1.2,1.6,1.2H28v-8h-4.3C22.8,22,22,22.8,22,23.7z
		 M42.3,22H38v8h2.8c0.7,0,1.4-0.5,1.6-1.2l1.5-4.6c0.1-0.2,0.1-0.4,0.1-0.5C44,22.8,43.2,22,42.3,22z M30,30h6v-8h-6V30z"/>
	<rect x="32" y="34" fill="#5997CF" width="2" height="8"/>
	<rect x="32" y="44" fill="#5997CF" width="2" height="8"/>
	<rect x="32" y="54" fill="#5997CF" width="2" height="8"/>
	<g opacity="0.2">
		<path d="M38.4,14.8l0.3-0.8H34v2h2.8C37.5,16,38.2,15.5,38.4,14.8z"/>
		<path d="M27.3,14l0.3,0.8c0.2,0.7,0.9,1.2,1.6,1.2H32v-2H27.3z"/>
	</g>
	<g opacity="0.2">
		<path d="M42.4,28.8l0.3-0.8H38v2h2.8C41.5,30,42.2,29.5,42.4,28.8z"/>
		<path d="M23.3,28l0.3,0.8c0.2,0.7,0.9,1.2,1.6,1.2H28v-2H23.3z"/>
		<rect x="30" y="28" width="6" height="2"/>
	</g>
	<rect x="32" y="40" opacity="0.2" width="2" height="2"/>
	<rect x="32" y="50" opacity="0.2" width="2" height="2"/>
	<rect x="32" y="60" opacity="0.2" width="2" height="2"/>
</g>
</svg>
