<?xml version="1.0" encoding="utf-8"?>
<!-- Generator: Adobe Illustrator 18.1.0, SVG Export Plug-In . SVG Version: 6.00 Build 0)  -->
<svg version="1.1" id="Layer_1" xmlns="http://www.w3.org/2000/svg" xmlns:xlink="http://www.w3.org/1999/xlink" x="0px" y="0px"
	 viewBox="0 0 64 64" enable-background="new 0 0 64 64" xml:space="preserve">
<g>
	<g>
		<rect y="2" fill="#F2A500" width="64" height="14"/>
		<rect fill="#E8E8E8" width="64" height="2"/>
		<rect y="16" fill="#E0E0E0" width="64" height="48"/>
		<rect x="46" y="20" fill="#915D2D" width="16" height="44"/>
		<rect x="2" y="20" fill="#915D2D" width="46" height="38"/>
		<rect x="4" y="24" fill="#90CAF0" width="42" height="32"/>
		<rect x="48" y="24" fill="#90CAF0" width="12" height="38"/>
		<g>
			<g>
				<path fill="#BF4851" d="M4,24L4,24c-1.1,0-2-0.9-2-2v-4h4v4C6,23.1,5.1,24,4,24z"/>
				<path fill="#BF4851" d="M12,24L12,24c-1.1,0-2-0.9-2-2v-4h4v4C14,23.1,13.1,24,12,24z"/>
				<path fill="#BF4851" d="M20,24L20,24c-1.1,0-2-0.9-2-2v-4h4v4C22,23.1,21.1,24,20,24z"/>
				<path fill="#BF4851" d="M28,24L28,24c-1.1,0-2-0.9-2-2v-4h4v4C30,23.1,29.1,24,28,24z"/>
				<path fill="#BF4851" d="M36,24L36,24c-1.1,0-2-0.9-2-2v-4h4v4C38,23.1,37.1,24,36,24z"/>
			</g>
			<path fill="#BF4851" d="M44,24L44,24c-1.1,0-2-0.9-2-2v-4h4v4C46,23.1,45.1,24,44,24z"/>
			<path fill="#BF4851" d="M52,24L52,24c-1.1,0-2-0.9-2-2v-4h4v4C54,23.1,53.1,24,52,24z"/>
			<path fill="#BF4851" d="M60,24L60,24c-1.1,0-2-0.9-2-2v-4h4v4C62,23.1,61.1,24,60,24z"/>
		</g>
		<g>
			<path fill="#FAEC94" d="M8,24L8,24c-1.1,0-2-0.9-2-2v-4h4v4C10,23.1,9.1,24,8,24z"/>
			<path fill="#FAEC94" d="M16,24L16,24c-1.1,0-2-0.9-2-2v-4h4v4C18,23.1,17.1,24,16,24z"/>
			<path fill="#FAEC94" d="M24,24L24,24c-1.1,0-2-0.9-2-2v-4h4v4C26,23.1,25.1,24,24,24z"/>
			<path fill="#FAEC94" d="M32,24L32,24c-1.1,0-2-0.9-2-2v-4h4v4C34,23.1,33.1,24,32,24z"/>
			<path fill="#FAEC94" d="M40,24L40,24c-1.1,0-2-0.9-2-2v-4h4v4C42,23.1,41.1,24,40,24z"/>
			<path fill="#FAEC94" d="M48,24L48,24c-1.1,0-2-0.9-2-2v-4h4v4C50,23.1,49.1,24,48,24z"/>
			<path fill="#FAEC94" d="M56,24L56,24c-1.1,0-2-0.9-2-2v-4h4v4C58,23.1,57.1,24,56,24z"/>
		</g>
		<rect y="16" fill="#E8E8E8" width="64" height="2"/>
		<rect x="48" y="60" opacity="0.2" width="12" height="2"/>
		<path fill="#915D2D" d="M50,44h-2v-2h2c0.6,0,1,0.4,1,1l0,0C51,43.6,50.6,44,50,44z"/>
	</g>
	<g>
		<path fill="#FFFFFF" d="M31,4c-1.7,0-3,1.3-3,3v6c0,0.6,0.4,1,1,1s1-0.4,1-1v-3h2v3c0,0.6,0.4,1,1,1s1-0.4,1-1V7
			C34,5.3,32.7,4,31,4z M30,8V7c0-0.6,0.4-1,1-1s1,0.4,1,1v1H30z"/>
		<path fill="#FFFFFF" d="M23.3,4H21c-0.6,0-1,0.4-1,1v8c0,0.6,0.4,1,1,1h2.3c1.5,0,2.7-1.2,2.7-2.7v-0.8c0-0.6-0.2-1.1-0.5-1.6
			C25.8,8.6,26,8,26,7.4V6.7C26,5.2,24.8,4,23.3,4z M24,11.3c0,0.4-0.3,0.7-0.7,0.7H22v-2h1.4c0.3,0,0.6,0.3,0.6,0.6V11.3z M24,7.4
			C24,7.7,23.7,8,23.4,8H22V6h1.3C23.7,6,24,6.3,24,6.7V7.4z"/>
		<path fill="#FFFFFF" d="M42,7.9V6.1C42,4.9,41.1,4,39.9,4H37c-0.6,0-1,0.4-1,1v8c0,0.6,0.4,1,1,1s1-0.4,1-1v-3h0.4l1.7,3.4
			c0.2,0.4,0.5,0.6,0.9,0.6c0.1,0,0.3,0,0.4-0.1c0.5-0.2,0.7-0.8,0.4-1.3l-1.3-2.7C41.4,9.6,42,8.8,42,7.9z M38,6h1.9
			C40,6,40,6,40,6.1v1.8C40,8,40,8,39.9,8H38V6z"/>
	</g>
	<path fill="#E0E0E0" d="M39.1,36H36v-3c0-0.6-0.4-1-1-1H15c-0.6,0-1,0.4-1,1v19.5c0,1.9,1.6,3.5,3.5,3.5h14.9
		c1.9,0,3.6-1.6,3.6-3.5v-3.3l3.2-2.2c1.7-0.9,2.8-2.6,2.8-4.6v-3.5C42,37.3,40.7,36,39.1,36z M40,42.4c0,1.2-0.7,2.3-1.8,2.8
		c0,0-0.1,0-0.1,0.1L36,46.8V38h3.1c0.5,0,0.9,0.4,0.9,0.9V42.4z"/>
	<path fill="#F2A500" d="M31.7,52H18.3C17,52,16,50.9,16,49.6V33h18v16.6C34,50.9,33,52,31.7,52z"/>
	<path fill="#FFFFFF" d="M33.4,28.8c-0.3,0-0.5,0-0.8,0.1c-0.9-1.1-2.2-1.9-3.8-1.9c-0.9,0-1.7,0.3-2.4,0.7c-0.9-1-2.2-1.7-3.6-1.7
		c-1.9,0-3.5,1.1-4.3,2.7c-0.6-0.4-1.3-0.7-2.1-0.7c-2,0-3.6,1.6-3.6,3.6s1.6,3.6,3.6,3.6c0.6,0,1.2-0.2,1.7-0.4
		c0.5,1.3,1.8,2.2,3.3,2.2c1.3,0,2.4-0.7,3.1-1.7c0.3-0.1,0.5-0.2,0.7-0.4c0.9,1,2.2,1.7,3.6,1.7c1.1,0,2.1-0.4,2.9-1
		c0.5,0.3,1.1,0.4,1.7,0.4c2,0,3.6-1.6,3.6-3.6S35.4,28.8,33.4,28.8z"/>
	<rect x="4" y="54" opacity="0.2" width="42" height="2"/>
	<path fill="#FFFFFF" d="M24,42c0,1.1-0.9,2-2,2s-2-0.9-2-2s2-5,2-5S24,40.9,24,42z"/>
</g>
</svg>
