<?xml version="1.0" encoding="utf-8"?>
<!-- Generator: Adobe Illustrator 18.1.0, SVG Export Plug-In . SVG Version: 6.00 Build 0)  -->
<svg version="1.1" id="Layer_1" xmlns="http://www.w3.org/2000/svg" xmlns:xlink="http://www.w3.org/1999/xlink" x="0px" y="0px"
	 viewBox="0 0 64 64" enable-background="new 0 0 64 64" xml:space="preserve">
<g>
	<polygon fill="#BF4851" points="48,17 32,9 16,17 4,29 4,64 60,64 60,29 	"/>
	<g>
		<rect x="26" y="18" fill="#E8E8E8" width="12" height="12"/>
		<rect x="28" y="20" fill="#5997CF" width="8" height="8"/>
		<rect x="28" y="26" opacity="0.2" width="8" height="2"/>
	</g>
	<rect x="10" y="36" fill="#E8E8E8" width="44" height="28"/>
	<rect x="12" y="38" fill="#5C5C5C" width="40" height="26"/>
	<polygon fill="#4D4D4D" points="49,13 32,5 15,13 -0.1,28 2.7,30.8 17,17 32,10 47,17 61.2,31 64,28.2 	"/>
	<path fill="#E8E8E8" d="M53.8,37.6l-1.6-1.2l-9.7,12.9l-9.7-12.9c-0.4-0.5-1.2-0.5-1.6,0l-9.7,12.9l-9.7-12.9l-1.6,1.2L20.3,51
		l-9.8,13H13l8.5-11.3L30,64h1h2h1l8.5-11.3L51,64h2.5l-9.8-13L53.8,37.6z M22.7,51L31,40v22L22.7,51z M33,62V40l8.3,11L33,62z"/>
</g>
</svg>
