<?xml version="1.0" encoding="utf-8"?>
<!-- Generator: Adobe Illustrator 18.1.0, SVG Export Plug-In . SVG Version: 6.00 Build 0)  -->
<svg version="1.1" id="Layer_1" xmlns="http://www.w3.org/2000/svg" xmlns:xlink="http://www.w3.org/1999/xlink" x="0px" y="0px"
	 viewBox="0 0 64 64" enable-background="new 0 0 64 64" xml:space="preserve">
<g>
	<rect y="20" fill="#E0E0E0" width="64" height="42"/>
	<rect y="60" opacity="0.2" width="64" height="2"/>
	<rect x="4" y="32" fill="#4888C2" width="56" height="6"/>
	<rect x="4" y="24" fill="#4888C2" width="56" height="6"/>
	<rect x="4" y="40" fill="#4888C2" width="56" height="6"/>
	<rect x="4" y="48" fill="#4888C2" width="56" height="6"/>
	<path fill="#A3A4A6" d="M52,64H12V10c0-1.1,0.9-2,2-2h36c1.1,0,2,0.9,2,2V64z"/>
	<path fill="#E0E0E0" d="M46,64H18V47.1c0-1.7,1.4-3.1,3.1-3.1h21.9c1.7,0,3.1,1.4,3.1,3.1V64z"/>
	<path fill="#5997CF" d="M44,48H20v0c0-1.1,0.9-2,2-2h20C43.1,46,44,46.9,44,48L44,48z"/>
	<rect x="20" y="50" fill="#5997CF" width="6" height="14"/>
	<rect x="38" y="50" fill="#5997CF" width="6" height="14"/>
	<rect x="28" y="50" fill="#5997CF" width="8" height="14"/>
	<rect x="38" y="62" opacity="0.2" width="6" height="2"/>
	<rect x="28" y="62" opacity="0.2" width="8" height="2"/>
	<rect x="20" y="62" opacity="0.2" width="6" height="2"/>
	<path fill="#FFFFFF" d="M26,22v-2c0-0.8,0.6-2.4,0.6-3.7c0-2.4-1.2-4.3-2.5-4.3c-1.3,0-2.6,1.9-2.6,4.3c0,1.3,0.5,2.9,0.5,3.7v2
		c-1,1.6-2,4.8-2,9c0,4,0.7,7.3,2,9h4c1.3-1.7,2-5,2-9C28,26.8,27,23.6,26,22z"/>
	<path fill="#FFFFFF" d="M34,20v-2c0-0.8,0.6-2.4,0.6-3.7c0-2.4-1.2-4.3-2.5-4.3c-1.3,0-2.6,1.9-2.6,4.3c0,1.3,0.5,2.9,0.5,3.7v2
		c-1,1.6-2,4.8-2,9c0,4,0.8,7.3,2.1,9H34c1.3-1.7,2-5,2-9C36,24.8,35,21.6,34,20z"/>
	<rect x="30" y="18" fill="#BF4851" width="4" height="2"/>
	<path fill="#FFFFFF" d="M42,22v-2c0-0.8,0.6-2.4,0.6-3.7c0-2.4-1.2-4.3-2.5-4.3c-1.3,0-2.6,1.9-2.6,4.3c0,1.3,0.5,2.9,0.5,3.7v2
		c-1,1.6-2,4.8-2,9c0,4,0.7,7.3,2,9h4c1.3-1.7,2-5,2-9C44,26.8,43,23.6,42,22z"/>
	<rect x="38" y="20" fill="#BF4851" width="4" height="2"/>
	<g>
		<circle fill="#BF4851" cx="35" cy="33" r="7"/>
		<circle fill="#313538" cx="31" cy="30" r="1"/>
		<circle fill="#313538" cx="34" cy="32" r="1"/>
		<circle fill="#313538" cx="35" cy="29" r="1"/>
	</g>
	<rect x="22" y="20" fill="#BF4851" width="4" height="2"/>
</g>
</svg>
