<?xml version="1.0" encoding="utf-8"?>
<!-- Generator: Adobe Illustrator 18.1.0, SVG Export Plug-In . SVG Version: 6.00 Build 0)  -->
<svg version="1.1" id="Layer_1" xmlns="http://www.w3.org/2000/svg" xmlns:xlink="http://www.w3.org/1999/xlink" x="0px" y="0px"
	 viewBox="0 0 64 64" enable-background="new 0 0 64 64" xml:space="preserve">
<g>
	<g>
		<rect y="14" fill="#E0E0E0" width="42" height="50"/>
		<rect x="42" y="8" fill="#E8E8E8" width="22" height="56"/>
		<path fill="#915D2D" d="M60,64H46V37.4c0-0.8,0.6-1.4,1.4-1.4h11.3c0.8,0,1.4,0.6,1.4,1.4V64z"/>
		<path fill="#915D2D" d="M58.6,30H47.4c-0.8,0-1.4-0.6-1.4-1.4V13.4c0-0.8,0.6-1.4,1.4-1.4h11.3c0.8,0,1.4,0.6,1.4,1.4v15.3
			C60,29.4,59.4,30,58.6,30z"/>
		<path fill="#AFB0B3" d="M40,36c0-1.2-1.1-2.2-2.3-2c-1,0.2-1.7,1.1-1.7,2.1v6.4c0,1-0.4,1.9-1.1,2.6L30,50c-0.6,0.6-1.4,0.6-2,0
			l0,0l4.4-4.4c0.8-0.8,0.9-2.1,0.2-2.9c-0.8-1-2.3-1-3.1-0.2l-4.7,4.7C23,49,22,51.4,22,53.9V64h8v-2l8.9-13.4
			c0.7-1,1.1-2.2,1.1-3.5V36z"/>
		<path fill="#AFB0B3" d="M2,36c0-1.2,1.1-2.2,2.3-2c1,0.2,1.7,1.1,1.7,2.1l0,6.4c0,1,0.4,1.9,1.1,2.6L12,50c0.6,0.6,1.4,0.6,2,0
			l0,0l-4.4-4.4c-0.8-0.8-0.9-2.1-0.2-2.9c0.8-1,2.3-1,3.1-0.2l4.7,4.7C19,49,20,51.4,20,53.9V64h-8v-2L3.1,48.6
			c-0.7-1-1.1-2.2-1.1-3.5V36z"/>
		<rect x="48" y="14" fill="#90CAF0" width="4" height="6"/>
		<rect x="54" y="14" fill="#90CAF0" width="4" height="6"/>
		<rect x="48" y="22" fill="#90CAF0" width="4" height="6"/>
		<rect x="54" y="22" fill="#90CAF0" width="4" height="6"/>
		<path fill="#5C5C5C" d="M64,8H42v0c0-1.1,0.9-2,2-2h18C63.1,6,64,6.9,64,8L64,8z"/>
		<path fill="#5C5C5C" d="M42,14H0v0c0-1.1,0.9-2,2-2h40V14z"/>
		<path opacity="0.2" d="M49,52h-3v-2h3c0.6,0,1,0.4,1,1l0,0C50,51.6,49.6,52,49,52z"/>
	</g>
	<path fill="#BF4851" d="M26.9,20c-2.2,0-4.9,2.6-5.9,4.4c-1-1.8-3.7-4.4-5.9-4.4c-3.2,0-5.1,2.6-5.1,5.9C10,33,19,40,21,42
		c1.9-1.9,11-9,11-16.1C32,22.6,30.1,20,26.9,20z"/>
</g>
</svg>
