<?xml version="1.0" encoding="utf-8"?>
<!-- Generator: Adobe Illustrator 18.1.0, SVG Export Plug-In . SVG Version: 6.00 Build 0)  -->
<svg version="1.1" id="Layer_1" xmlns="http://www.w3.org/2000/svg" xmlns:xlink="http://www.w3.org/1999/xlink" x="0px" y="0px"
	 viewBox="0 0 64 64" enable-background="new 0 0 64 64" xml:space="preserve">
<g>
	<rect x="12" y="12" fill="#FFDF74" width="38" height="52"/>
	<path fill="#5C5C5C" d="M34,30h-6v-7c0-1.7,1.3-3,3-3h0c1.7,0,3,1.3,3,3V30z"/>
	<path fill="#5C5C5C" d="M34,46h-6v-7c0-1.7,1.3-3,3-3h0c1.7,0,3,1.3,3,3V46z"/>
	<path fill="#FAEC94" d="M51.4,58.8L50,56H12l-1.4,2.8c-0.4,0.8-0.6,1.7-0.6,2.5V64h42v-2.7C52,60.5,51.8,59.6,51.4,58.8z"/>
	<rect x="12" y="54" opacity="0.2" width="38" height="2"/>
	<rect x="28" y="44" opacity="0.2" width="6" height="2"/>
	<rect x="28" y="28" opacity="0.2" width="6" height="2"/>
	<path fill="#FAEC94" d="M48,1.5V4h-4V1.5C44,0.7,43.3,0,42.5,0h-3.1C38.7,0,38,0.7,38,1.5V4h-4V1.5C34,0.7,33.3,0,32.5,0h-3.1
		C28.7,0,28,0.7,28,1.5V4h-4V1.5C24,0.7,23.3,0,22.5,0h-3.1C18.7,0,18,0.7,18,1.5V4h-4V1.5C14,0.7,13.3,0,12.5,0H9.5
		C8.7,0,8,0.7,8,1.5v5c0,1,0.4,1.9,1.1,2.7L12,12h38l2.9-2.9C53.6,8.4,54,7.4,54,6.4v-5C54,0.7,53.3,0,52.5,0h-3.1
		C48.7,0,48,0.7,48,1.5z"/>
	<path opacity="0.2" d="M50,12H12v2h2v1c0,0.6,0.4,1,1,1s1-0.4,1-1v-1h2v1c0,0.6,0.4,1,1,1s1-0.4,1-1v-1h2v1c0,0.6,0.4,1,1,1
		s1-0.4,1-1v-1h2v1c0,0.6,0.4,1,1,1s1-0.4,1-1v-1h2v1c0,0.6,0.4,1,1,1s1-0.4,1-1v-1h2v1c0,0.6,0.4,1,1,1s1-0.4,1-1v-1h2v1
		c0,0.6,0.4,1,1,1s1-0.4,1-1v-1h2v1c0,0.6,0.4,1,1,1s1-0.4,1-1v-1h2v1c0,0.6,0.4,1,1,1s1-0.4,1-1v-1h2V12z"/>
</g>
</svg>
