<?xml version="1.0" encoding="utf-8"?>
<!-- Generator: Adobe Illustrator 18.1.0, SVG Export Plug-In . SVG Version: 6.00 Build 0)  -->
<svg version="1.1" id="Layer_1" xmlns="http://www.w3.org/2000/svg" xmlns:xlink="http://www.w3.org/1999/xlink" x="0px" y="0px"
	 viewBox="0 0 64 64" enable-background="new 0 0 64 64" xml:space="preserve">
<g>
	<polygon fill="#FFDF74" points="44,26 44,38 40,38 40,18 24,18 24,38 20,38 20,26 2,26 2,64 62,64 62,26 	"/>
	<rect x="44" y="60" fill="#FAEC94" width="18" height="4"/>
	<rect x="44" y="58" opacity="0.2" width="18" height="2"/>
	<path fill="#5C5C5C" d="M32,14c-0.6,0-1-0.5-1-1.1V1.1C31,0.5,31.4,0,32,0s1,0.5,1,1.1v11.8C33,13.5,32.6,14,32,14z"/>
	<path fill="#5C5C5C" d="M56,46h-6v-7c0-1.7,1.3-3,3-3h0c1.7,0,3,1.3,3,3V46z"/>
	<rect x="50" y="44" opacity="0.2" width="6" height="2"/>
	<path fill="#5C5C5C" d="M34,36h-4v-6c0-1.1,0.9-2,2-2h0c1.1,0,2,0.9,2,2V36z"/>
	<rect x="30" y="34" opacity="0.2" width="4" height="2"/>
	<path opacity="0.2" d="M62,28H44v2h2v1c0,0.6,0.4,1,1,1s1-0.4,1-1v-1h2v1c0,0.6,0.4,1,1,1s1-0.4,1-1v-1h2v1c0,0.6,0.4,1,1,1
		s1-0.4,1-1v-1h2v1c0,0.6,0.4,1,1,1s1-0.4,1-1v-1h2V28z"/>
	<path opacity="0.2" d="M40,20H24v2h2v1c0,0.6,0.4,1,1,1s1-0.4,1-1v-1h2v1c0,0.6,0.4,1,1,1s1-0.4,1-1v-1h2v1c0,0.6,0.4,1,1,1
		s1-0.4,1-1v-1h2v1c0,0.6,0.4,1,1,1s1-0.4,1-1v-1V20z"/>
	<path fill="#FAEC94" d="M60,21.1V22h-2v-0.9c0-0.6-0.5-1.1-1.1-1.1h-1.9c-0.6,0-1.1,0.5-1.1,1.1V22h-2v-0.9c0-0.6-0.5-1.1-1.1-1.1
		h-1.9c-0.6,0-1.1,0.5-1.1,1.1V22h-2v-0.9c0-0.6-0.5-1.1-1.1-1.1h-1.9c-0.6,0-1.1,0.5-1.1,1.1V26l2,2h18l2-2v-4.9
		c0-0.6-0.5-1.1-1.1-1.1h-1.9C60.5,20,60,20.5,60,21.1z"/>
	<rect x="2" y="60" fill="#FAEC94" width="18" height="4"/>
	<rect x="2" y="58" opacity="0.2" width="18" height="2"/>
	<path fill="#5C5C5C" d="M14,46H8v-7c0-1.7,1.3-3,3-3h0c1.7,0,3,1.3,3,3V46z"/>
	<rect x="8" y="44" opacity="0.2" width="6" height="2"/>
	<path opacity="0.2" d="M20,28H2v2h2v1c0,0.6,0.4,1,1,1s1-0.4,1-1v-1h2v1c0,0.6,0.4,1,1,1s1-0.4,1-1v-1h2v1c0,0.6,0.4,1,1,1
		s1-0.4,1-1v-1h2v1c0,0.6,0.4,1,1,1s1-0.4,1-1v-1h2V28z"/>
	<path fill="#FAEC94" d="M18,21.1V22h-2v-0.9c0-0.6-0.5-1.1-1.1-1.1h-1.9c-0.6,0-1.1,0.5-1.1,1.1V22h-2v-0.9c0-0.6-0.5-1.1-1.1-1.1
		H7.1C6.5,20,6,20.5,6,21.1V22H4v-0.9C4,20.5,3.5,20,2.9,20H1.1C0.5,20,0,20.5,0,21.1V26l2,2h18l2-2v-4.9c0-0.6-0.5-1.1-1.1-1.1
		h-1.9C18.5,20,18,20.5,18,21.1z"/>
	<polygon fill="#762C07" points="22,18 42,18 42,17 32,7 22,17 	"/>
	<polygon fill="#BF4851" points="33,1 33,5 39,3 	"/>
	<rect x="24" y="18" fill="#FAEC94" width="16" height="2"/>
	<path fill="#915D2D" d="M38,64H26V52c0-3.3,2.7-6,6-6h0c3.3,0,6,2.7,6,6V64z"/>
	<path fill="#762C07" d="M32,46c-0.3,0-0.7,0-1,0.1V64h2V46.1C32.7,46,32.3,46,32,46z"/>
	<path fill="#762C07" d="M34,56h-4c-0.6,0-1-0.4-1-1l0,0c0-0.6,0.4-1,1-1h4c0.6,0,1,0.4,1,1l0,0C35,55.6,34.6,56,34,56z"/>
	<rect x="26" y="62" opacity="0.2" width="12" height="2"/>
</g>
</svg>
