<?xml version="1.0" encoding="utf-8"?>
<!-- Generator: Adobe Illustrator 18.1.0, SVG Export Plug-In . SVG Version: 6.00 Build 0)  -->
<svg version="1.1" id="Layer_1" xmlns="http://www.w3.org/2000/svg" xmlns:xlink="http://www.w3.org/1999/xlink" x="0px" y="0px"
	 viewBox="0 0 64 64" enable-background="new 0 0 64 64" xml:space="preserve">
<g>
	<rect x="48" y="12" fill="#AFB0B3" width="14" height="48"/>
	<rect x="2" y="12" fill="#AFB0B3" width="14" height="48"/>
	<rect x="2" y="58" opacity="0.2" width="60" height="2"/>
	<rect x="16" y="8" fill="#E8E8E8" width="32" height="52"/>
	<circle fill="#3D4245" cx="32" cy="28" r="12"/>
	<polygon fill="#FFFFFF" points="28,20.8 28,35.2 40,28 	"/>
	<rect x="48" y="18" fill="#4888C2" width="10" height="4"/>
	<rect x="48" y="26" fill="#4888C2" width="10" height="4"/>
	<rect x="48" y="34" fill="#4888C2" width="10" height="4"/>
	<rect x="48" y="42" fill="#4888C2" width="10" height="4"/>
	<rect x="48" y="50" fill="#4888C2" width="10" height="4"/>
	<rect x="6" y="18" fill="#4888C2" width="10" height="4"/>
	<rect x="6" y="26" fill="#4888C2" width="10" height="4"/>
	<rect x="6" y="34" fill="#4888C2" width="10" height="4"/>
	<rect x="6" y="42" fill="#4888C2" width="10" height="4"/>
	<rect x="6" y="50" fill="#4888C2" width="10" height="4"/>
	<rect x="18" y="46" fill="#4888C2" width="4" height="14"/>
	<rect x="24" y="46" fill="#4888C2" width="4" height="14"/>
	<rect x="30" y="46" fill="#4888C2" width="4" height="14"/>
	<rect x="36" y="46" fill="#4888C2" width="4" height="14"/>
	<rect x="42" y="46" fill="#4888C2" width="4" height="14"/>
	<rect x="18" y="58" opacity="0.2" width="4" height="2"/>
	<rect x="24" y="58" opacity="0.2" width="4" height="2"/>
	<rect x="30" y="58" opacity="0.2" width="4" height="2"/>
	<rect x="36" y="58" opacity="0.2" width="4" height="2"/>
	<rect x="42" y="58" opacity="0.2" width="4" height="2"/>
	<rect y="60" fill="#3D4245" width="64" height="4"/>
</g>
</svg>
