<?xml version="1.0" encoding="utf-8"?>
<!-- Generator: Adobe Illustrator 18.1.0, SVG Export Plug-In . SVG Version: 6.00 Build 0)  -->
<svg version="1.1" id="Layer_1" xmlns="http://www.w3.org/2000/svg" xmlns:xlink="http://www.w3.org/1999/xlink" x="0px" y="0px"
	 viewBox="0 0 64 64" enable-background="new 0 0 64 64" xml:space="preserve">
<g>
	<rect y="14" fill="#E8E8E8" width="64" height="50"/>
	<rect y="62" opacity="0.2" width="64" height="2"/>
	<rect x="20" y="6" fill="#AFB0B3" width="24" height="58"/>
	<rect x="4" y="30" fill="#5997CF" width="2" height="6"/>
	<rect x="4" y="34" opacity="0.2" width="2" height="2"/>
	<rect x="8" y="30" fill="#5997CF" width="2" height="6"/>
	<rect x="8" y="34" opacity="0.2" width="2" height="2"/>
	<rect x="12" y="30" fill="#5997CF" width="2" height="6"/>
	<rect x="12" y="34" opacity="0.2" width="2" height="2"/>
	<rect x="4" y="40" fill="#5997CF" width="2" height="6"/>
	<rect x="4" y="44" opacity="0.2" width="2" height="2"/>
	<rect x="8" y="40" fill="#5997CF" width="2" height="6"/>
	<rect x="8" y="44" opacity="0.2" width="2" height="2"/>
	<rect x="12" y="40" fill="#5997CF" width="2" height="6"/>
	<rect x="12" y="44" opacity="0.2" width="2" height="2"/>
	<rect x="4" y="50" fill="#5997CF" width="2" height="6"/>
	<rect x="4" y="54" opacity="0.2" width="2" height="2"/>
	<rect x="16" y="30" fill="#5997CF" width="2" height="6"/>
	<rect x="16" y="34" opacity="0.2" width="2" height="2"/>
	<rect x="4" y="20" fill="#5997CF" width="2" height="6"/>
	<rect x="4" y="24" opacity="0.2" width="2" height="2"/>
	<rect x="8" y="20" fill="#5997CF" width="2" height="6"/>
	<rect x="8" y="24" opacity="0.2" width="2" height="2"/>
	<rect x="12" y="20" fill="#5997CF" width="2" height="6"/>
	<rect x="12" y="24" opacity="0.2" width="2" height="2"/>
	<rect x="16" y="20" fill="#5997CF" width="2" height="6"/>
	<rect x="16" y="24" opacity="0.2" width="2" height="2"/>
	<rect x="24" y="36" fill="#5997CF" width="4" height="6"/>
	<rect x="24" y="40" opacity="0.2" width="4" height="2"/>
	<rect x="30" y="36" fill="#5997CF" width="4" height="6"/>
	<rect x="30" y="40" opacity="0.2" width="4" height="2"/>
	<rect x="36" y="36" fill="#5997CF" width="4" height="6"/>
	<rect x="36" y="40" opacity="0.2" width="4" height="2"/>
	<rect x="24" y="26" fill="#5997CF" width="4" height="6"/>
	<rect x="24" y="30" opacity="0.2" width="4" height="2"/>
	<rect x="30" y="26" fill="#5997CF" width="4" height="6"/>
	<rect x="30" y="30" opacity="0.2" width="4" height="2"/>
	<rect x="36" y="26" fill="#5997CF" width="4" height="6"/>
	<rect x="36" y="30" opacity="0.2" width="4" height="2"/>
	<rect x="16" y="40" fill="#5997CF" width="2" height="6"/>
	<rect x="16" y="44" opacity="0.2" width="2" height="2"/>
	<rect x="16" y="50" fill="#5997CF" width="2" height="6"/>
	<rect x="16" y="54" opacity="0.2" width="2" height="2"/>
	<rect x="8" y="50" fill="#5997CF" width="2" height="6"/>
	<rect x="8" y="54" opacity="0.2" width="2" height="2"/>
	<rect x="12" y="50" fill="#5997CF" width="2" height="6"/>
	<rect x="12" y="54" opacity="0.2" width="2" height="2"/>
	<rect x="24" y="48" fill="#5997CF" width="4" height="16"/>
	<rect x="24" y="62" opacity="0.2" width="4" height="2"/>
	<rect x="30" y="48" fill="#5997CF" width="4" height="16"/>
	<rect x="30" y="62" opacity="0.2" width="4" height="2"/>
	<rect x="36" y="48" fill="#5997CF" width="4" height="16"/>
	<rect x="36" y="62" opacity="0.2" width="4" height="2"/>
	<rect y="14" fill="#5C5C5C" width="20" height="2"/>
	<rect x="46" y="30" fill="#5997CF" width="2" height="6"/>
	<rect x="46" y="34" opacity="0.2" width="2" height="2"/>
	<rect x="50" y="30" fill="#5997CF" width="2" height="6"/>
	<rect x="50" y="34" opacity="0.2" width="2" height="2"/>
	<rect x="54" y="30" fill="#5997CF" width="2" height="6"/>
	<rect x="54" y="34" opacity="0.2" width="2" height="2"/>
	<rect x="46" y="40" fill="#5997CF" width="2" height="6"/>
	<rect x="46" y="44" opacity="0.2" width="2" height="2"/>
	<rect x="50" y="40" fill="#5997CF" width="2" height="6"/>
	<rect x="50" y="44" opacity="0.2" width="2" height="2"/>
	<rect x="54" y="40" fill="#5997CF" width="2" height="6"/>
	<rect x="54" y="44" opacity="0.2" width="2" height="2"/>
	<rect x="46" y="50" fill="#5997CF" width="2" height="6"/>
	<rect x="46" y="54" opacity="0.2" width="2" height="2"/>
	<rect x="58" y="30" fill="#5997CF" width="2" height="6"/>
	<rect x="58" y="34" opacity="0.2" width="2" height="2"/>
	<rect x="46" y="20" fill="#5997CF" width="2" height="6"/>
	<rect x="46" y="24" opacity="0.2" width="2" height="2"/>
	<rect x="50" y="20" fill="#5997CF" width="2" height="6"/>
	<rect x="50" y="24" opacity="0.2" width="2" height="2"/>
	<rect x="54" y="20" fill="#5997CF" width="2" height="6"/>
	<rect x="54" y="24" opacity="0.2" width="2" height="2"/>
	<rect x="58" y="20" fill="#5997CF" width="2" height="6"/>
	<rect x="58" y="24" opacity="0.2" width="2" height="2"/>
	<rect x="58" y="40" fill="#5997CF" width="2" height="6"/>
	<rect x="58" y="44" opacity="0.2" width="2" height="2"/>
	<rect x="58" y="50" fill="#5997CF" width="2" height="6"/>
	<rect x="58" y="54" opacity="0.2" width="2" height="2"/>
	<rect x="50" y="50" fill="#5997CF" width="2" height="6"/>
	<rect x="50" y="54" opacity="0.2" width="2" height="2"/>
	<rect x="54" y="50" fill="#5997CF" width="2" height="6"/>
	<rect x="54" y="54" opacity="0.2" width="2" height="2"/>
	<rect x="44" y="14" fill="#5C5C5C" width="20" height="2"/>
	<rect x="20" y="4" fill="#5C5C5C" width="24" height="2"/>
	<circle fill="#FFFFFF" cx="32" cy="16" r="8"/>
	<polygon fill="#BF4851" points="38,14 34,14 34,10 30,10 30,14 26,14 26,18 30,18 30,22 34,22 34,18 38,18 	"/>
</g>
</svg>
