<?xml version="1.0" encoding="utf-8"?>
<!-- Generator: Adobe Illustrator 18.1.0, SVG Export Plug-In . SVG Version: 6.00 Build 0)  -->
<svg version="1.1" id="Layer_1" xmlns="http://www.w3.org/2000/svg" xmlns:xlink="http://www.w3.org/1999/xlink" x="0px" y="0px"
	 viewBox="0 0 64 64" enable-background="new 0 0 64 64" xml:space="preserve">
<rect y="6" fill="#5997CF" width="18" height="58"/>
<rect x="34" y="54" fill="#5997CF" width="30" height="10"/>
<g>
	<path fill="#81BDE3" d="M19.6,41.2c-0.5-0.3-1.1-0.2-1.4,0.2c-0.5,0.7-1.8,0.7-2.4,0C15.2,40.5,14.1,40,13,40s-2.2,0.5-2.8,1.4
		c-0.5,0.7-1.8,0.7-2.4,0C7.2,40.5,6.1,40,5,40s-2.2,0.5-2.8,1.4C1.9,41.8,1.5,42,1,42H0v2h1c1.1,0,2.2-0.5,2.8-1.4
		c0.5-0.7,1.8-0.7,2.4,0C6.8,43.5,7.9,44,9,44s2.2-0.5,2.8-1.4c0.5-0.7,1.8-0.7,2.4,0c0.6,0.9,1.7,1.4,2.8,1.4s2.2-0.5,2.8-1.4
		C20.1,42.1,20,41.5,19.6,41.2z"/>
	<path fill="#81BDE3" d="M19.6,47.2c-0.5-0.3-1.1-0.2-1.4,0.2c-0.5,0.7-1.8,0.7-2.4,0C15.2,46.5,14.1,46,13,46s-2.2,0.5-2.8,1.4
		c-0.5,0.7-1.8,0.7-2.4,0C7.2,46.5,6.1,46,5,46s-2.2,0.5-2.8,1.4C1.9,47.8,1.5,48,1,48H0v2h1c1.1,0,2.2-0.5,2.8-1.4
		c0.5-0.7,1.8-0.7,2.4,0C6.8,49.5,7.9,50,9,50s2.2-0.5,2.8-1.4c0.5-0.7,1.8-0.7,2.4,0c0.6,0.9,1.7,1.4,2.8,1.4s2.2-0.5,2.8-1.4
		C20.1,48.1,20,47.5,19.6,47.2z"/>
	<path fill="#81BDE3" d="M2.2,5.4C1.9,5.8,1.5,6,1,6H0v2h1c1.1,0,2.2-0.5,2.8-1.4c0.5-0.7,1.8-0.7,2.4,0C6.8,7.5,7.9,8,9,8
		s2.2-0.5,2.8-1.4c0.5-0.7,1.8-0.7,2.4,0C14.8,7.5,15.9,8,17,8s2.2-0.5,2.8-1.4c0.3-0.5,0.2-1.1-0.2-1.4c-0.5-0.3-1.1-0.2-1.4,0.2
		c-0.5,0.7-1.8,0.7-2.4,0C15.2,4.5,14.1,4,13,4s-2.2,0.5-2.8,1.4c-0.5,0.7-1.8,0.7-2.4,0C7.2,4.5,6.1,4,5,4S2.8,4.5,2.2,5.4z"/>
	<path fill="#81BDE3" d="M3.8,54.6c0.5-0.7,1.8-0.7,2.4,0C6.8,55.5,7.9,56,9,56s2.2-0.5,2.8-1.4c0.5-0.7,1.8-0.7,2.4,0
		c0.6,0.9,1.7,1.4,2.8,1.4s2.2-0.5,2.8-1.4c0.3-0.5,0.2-1.1-0.2-1.4c-0.5-0.3-1.1-0.2-1.4,0.2c-0.5,0.7-1.8,0.7-2.4,0
		C15.2,52.5,14.1,52,13,52s-2.2,0.5-2.8,1.4c-0.5,0.7-1.8,0.7-2.4,0C7.2,52.5,6.1,52,5,52s-2.2,0.5-2.8,1.4C1.9,53.8,1.5,54,1,54H0
		v2h1C2.1,56,3.2,55.5,3.8,54.6z"/>
	<path fill="#81BDE3" d="M19.6,35.2c-0.5-0.3-1.1-0.2-1.4,0.2c-0.5,0.7-1.8,0.7-2.4,0C15.2,34.5,14.1,34,13,34s-2.2,0.5-2.8,1.4
		c-0.5,0.7-1.8,0.7-2.4,0C7.2,34.5,6.1,34,5,34s-2.2,0.5-2.8,1.4C1.9,35.8,1.5,36,1,36H0v2h1c1.1,0,2.2-0.5,2.8-1.4
		c0.5-0.7,1.8-0.7,2.4,0C6.8,37.5,7.9,38,9,38s2.2-0.5,2.8-1.4c0.5-0.7,1.8-0.7,2.4,0c0.6,0.9,1.7,1.4,2.8,1.4s2.2-0.5,2.8-1.4
		C20.1,36.1,20,35.5,19.6,35.2z"/>
	<path fill="#81BDE3" d="M19.6,11.2c-0.5-0.3-1.1-0.2-1.4,0.2c-0.5,0.7-1.8,0.7-2.4,0C15.2,10.5,14.1,10,13,10s-2.2,0.5-2.8,1.4
		c-0.5,0.7-1.8,0.7-2.4,0C7.2,10.5,6.1,10,5,10s-2.2,0.5-2.8,1.4C1.9,11.8,1.5,12,1,12H0v2h1c1.1,0,2.2-0.5,2.8-1.4
		c0.5-0.7,1.8-0.7,2.4,0C6.8,13.5,7.9,14,9,14s2.2-0.5,2.8-1.4c0.5-0.7,1.8-0.7,2.4,0c0.6,0.9,1.7,1.4,2.8,1.4s2.2-0.5,2.8-1.4
		C20.1,12.1,20,11.5,19.6,11.2z"/>
	<path fill="#81BDE3" d="M3.8,60.6c0.5-0.7,1.8-0.7,2.4,0C6.8,61.5,7.9,62,9,62s2.2-0.5,2.8-1.4c0.5-0.7,1.8-0.7,2.4,0
		c0.6,0.9,1.7,1.4,2.8,1.4s2.2-0.5,2.8-1.4c0.3-0.5,0.2-1.1-0.2-1.4c-0.5-0.3-1.1-0.2-1.4,0.2c-0.5,0.7-1.8,0.7-2.4,0
		C15.2,58.5,14.1,58,13,58s-2.2,0.5-2.8,1.4c-0.5,0.7-1.8,0.7-2.4,0C7.2,58.5,6.1,58,5,58s-2.2,0.5-2.8,1.4C1.9,59.8,1.5,60,1,60H0
		v2h1C2.1,62,3.2,61.5,3.8,60.6z"/>
	<path fill="#81BDE3" d="M19.6,29.2c-0.5-0.3-1.1-0.2-1.4,0.2c-0.5,0.7-1.8,0.7-2.4,0C15.2,28.5,14.1,28,13,28s-2.2,0.5-2.8,1.4
		c-0.5,0.7-1.8,0.7-2.4,0C7.2,28.5,6.1,28,5,28s-2.2,0.5-2.8,1.4C1.9,29.8,1.5,30,1,30H0v2h1c1.1,0,2.2-0.5,2.8-1.4
		c0.5-0.7,1.8-0.7,2.4,0C6.8,31.5,7.9,32,9,32s2.2-0.5,2.8-1.4c0.5-0.7,1.8-0.7,2.4,0c0.6,0.9,1.7,1.4,2.8,1.4s2.2-0.5,2.8-1.4
		C20.1,30.1,20,29.5,19.6,29.2z"/>
	<path fill="#81BDE3" d="M19.6,17.2c-0.5-0.3-1.1-0.2-1.4,0.2c-0.5,0.7-1.8,0.7-2.4,0C15.2,16.5,14.1,16,13,16s-2.2,0.5-2.8,1.4
		c-0.5,0.7-1.8,0.7-2.4,0C7.2,16.5,6.1,16,5,16s-2.2,0.5-2.8,1.4C1.9,17.8,1.5,18,1,18H0v2h1c1.1,0,2.2-0.5,2.8-1.4
		c0.5-0.7,1.8-0.7,2.4,0C6.8,19.5,7.9,20,9,20s2.2-0.5,2.8-1.4c0.5-0.7,1.8-0.7,2.4,0c0.6,0.9,1.7,1.4,2.8,1.4s2.2-0.5,2.8-1.4
		C20.1,18.1,20,17.5,19.6,17.2z"/>
	<path fill="#81BDE3" d="M19.6,23.2c-0.5-0.3-1.1-0.2-1.4,0.2c-0.5,0.7-1.8,0.7-2.4,0C15.2,22.5,14.1,22,13,22s-2.2,0.5-2.8,1.4
		c-0.5,0.7-1.8,0.7-2.4,0C7.2,22.5,6.1,22,5,22s-2.2,0.5-2.8,1.4C1.9,23.8,1.5,24,1,24H0v2h1c1.1,0,2.2-0.5,2.8-1.4
		c0.5-0.7,1.8-0.7,2.4,0C6.8,25.5,7.9,26,9,26s2.2-0.5,2.8-1.4c0.5-0.7,1.8-0.7,2.4,0c0.6,0.9,1.7,1.4,2.8,1.4s2.2-0.5,2.8-1.4
		C20.1,24.1,20,23.5,19.6,23.2z"/>
</g>
<g>
	<path fill="#81BDE3" d="M64,60h-1c-0.5,0-0.9-0.2-1.2-0.6C61.2,58.5,60.1,58,59,58s-2.2,0.5-2.8,1.4c-0.5,0.7-1.8,0.7-2.4,0
		C53.2,58.5,52.1,58,51,58s-2.2,0.5-2.8,1.4c-0.5,0.7-1.8,0.7-2.4,0C45.2,58.5,44.1,58,43,58s-2.2,0.5-2.8,1.4
		c-0.5,0.7-1.8,0.7-2.4,0C37.2,58.5,36.1,58,35,58s-2.2,0.5-2.8,1.4C31.9,59.8,31.5,60,31,60c-0.6,0-1,0.4-1,1s0.4,1,1,1
		c1.1,0,2.2-0.5,2.8-1.4c0.5-0.7,1.8-0.7,2.4,0c0.6,0.9,1.7,1.4,2.8,1.4s2.2-0.5,2.8-1.4c0.5-0.7,1.8-0.7,2.4,0
		c0.6,0.9,1.7,1.4,2.8,1.4s2.2-0.5,2.8-1.4c0.5-0.7,1.8-0.7,2.4,0c0.6,0.9,1.7,1.4,2.8,1.4s2.2-0.5,2.8-1.4c0.5-0.7,1.8-0.7,2.4,0
		c0.6,0.9,1.7,1.4,2.8,1.4h1V60z"/>
	<path fill="#81BDE3" d="M63,54c-0.5,0-0.9-0.2-1.2-0.6C61.2,52.5,60.1,52,59,52s-2.2,0.5-2.8,1.4c-0.5,0.7-1.8,0.7-2.4,0
		C53.2,52.5,52.1,52,51,52s-2.2,0.5-2.8,1.4c-0.5,0.7-1.8,0.7-2.4,0C45.2,52.5,44.1,52,43,52s-2.2,0.5-2.8,1.4
		c-0.5,0.7-1.8,0.7-2.4,0C37.2,52.5,36.1,52,35,52s-2.2,0.5-2.8,1.4C31.9,53.8,31.5,54,31,54c-0.6,0-1,0.4-1,1s0.4,1,1,1
		c1.1,0,2.2-0.5,2.8-1.4c0.5-0.7,1.8-0.7,2.4,0c0.6,0.9,1.7,1.4,2.8,1.4s2.2-0.5,2.8-1.4c0.5-0.7,1.8-0.7,2.4,0
		c0.6,0.9,1.7,1.4,2.8,1.4s2.2-0.5,2.8-1.4c0.5-0.7,1.8-0.7,2.4,0c0.6,0.9,1.7,1.4,2.8,1.4s2.2-0.5,2.8-1.4c0.5-0.7,1.8-0.7,2.4,0
		c0.6,0.9,1.7,1.4,2.8,1.4h1v-2H63z"/>
</g>
<path fill="#AFB0B3" d="M36,64L26,0.8C25.9,0.4,25.5,0,25,0h-6c-0.6,0-1,0.4-1,1v63H36z"/>
</svg>
