<?xml version="1.0" encoding="utf-8"?>
<!-- Generator: Adobe Illustrator 18.1.0, SVG Export Plug-In . SVG Version: 6.00 Build 0)  -->
<svg version="1.1" id="Layer_1" xmlns="http://www.w3.org/2000/svg" xmlns:xlink="http://www.w3.org/1999/xlink" x="0px" y="0px"
	 viewBox="0 0 64 64" enable-background="new 0 0 64 64" xml:space="preserve">
<g>
	<path fill="#5C5C5C" d="M51,62h-4.3l-3.9-10c9-3.8,15.3-12.7,15.3-23C58,15.2,46.8,4,33,4S8,15.2,8,29c0,10.3,6.3,19.2,15.3,23
		l-3.9,10H15c-0.6,0-1,0.4-1,1c0,0.6,0.4,1,1,1h3.5h28.9H51c0.6,0,1-0.4,1-1C52,62.4,51.6,62,51,62z M42,50.2l-6.6-16.8
		c0.1-0.1,0.2-0.1,0.4-0.2l12.8,12.8C46.6,47.7,44.4,49.1,42,50.2z M34,35.3l6.1,15.6c-1.9,0.6-4,1-6.1,1.1V35.3z M49.9,44.5
		L37.2,31.8c0.3-0.5,0.7-1.1,0.8-1.8h18C55.8,35.6,53.5,40.7,49.9,44.5z M56,28H37.9c-0.1-0.6-0.4-1.2-0.7-1.8l12.8-12.8
		C53.5,17.3,55.7,22.4,56,28z M48.5,12.1L35.8,24.8c-0.5-0.3-1.1-0.6-1.8-0.7V6C39.6,6.3,44.7,8.5,48.5,12.1z M32,6v18.1
		c-0.6,0.1-1.2,0.4-1.8,0.7L17.5,12.1C21.3,8.5,26.4,6.3,32,6z M16.1,13.5l12.8,12.8c-0.3,0.5-0.6,1.1-0.7,1.8H10
		C10.3,22.4,12.5,17.3,16.1,13.5z M10,30h18.1c0.1,0.6,0.4,1.2,0.7,1.8L16.1,44.5C12.5,40.7,10.3,35.6,10,30z M17.5,45.9l12.8-12.8
		c0.1,0.1,0.2,0.1,0.4,0.2L24,50.2C21.6,49.1,19.4,47.7,17.5,45.9z M32,35.3V52c-2.1-0.1-4.2-0.5-6.1-1.1L32,35.3z M21.5,62l3.7-9.3
		c2.5,0.8,5.1,1.3,7.9,1.3s5.4-0.5,7.9-1.3l3.7,9.3H21.5z"/>
	<circle fill="#AFB0B3" cx="33" cy="29" r="3"/>
	<path fill="#BF4851" d="M36.3,58h-6.6c-0.9,0-1.7-0.8-1.7-1.7V53c0-2.8,2.2-5,5-5h0c2.8,0,5,2.2,5,5v3.3C38,57.2,37.2,58,36.3,58z"
		/>
	<path fill="#90CAF0" d="M35.1,54h-4.2c-0.5,0-0.9-0.4-0.9-0.9V53c0-1.7,1.3-3,3-3h0c1.7,0,3,1.3,3,3v0.1C36,53.6,35.6,54,35.1,54z"
		/>
	<path fill="#BF4851" d="M54.3,50h-6.6c-0.9,0-1.7-0.8-1.7-1.7V45c0-2.8,2.2-5,5-5h0c2.8,0,5,2.2,5,5v3.3C56,49.2,55.2,50,54.3,50z"
		/>
	<path fill="#90CAF0" d="M53.1,46h-4.2c-0.5,0-0.9-0.4-0.9-0.9V45c0-1.7,1.3-3,3-3h0c1.7,0,3,1.3,3,3v0.1C54,45.6,53.6,46,53.1,46z"
		/>
	<path fill="#BF4851" d="M18.3,50h-6.6c-0.9,0-1.7-0.8-1.7-1.7V45c0-2.8,2.2-5,5-5h0c2.8,0,5,2.2,5,5v3.3C20,49.2,19.2,50,18.3,50z"
		/>
	<path fill="#90CAF0" d="M17.1,46h-4.2c-0.5,0-0.9-0.4-0.9-0.9V45c0-1.7,1.3-3,3-3h0c1.7,0,3,1.3,3,3v0.1C18,45.6,17.6,46,17.1,46z"
		/>
	<path fill="#BF4851" d="M54.3,18h-6.6c-0.9,0-1.7-0.8-1.7-1.7V13c0-2.8,2.2-5,5-5h0c2.8,0,5,2.2,5,5v3.3C56,17.2,55.2,18,54.3,18z"
		/>
	<path fill="#90CAF0" d="M53.1,14h-4.2c-0.5,0-0.9-0.4-0.9-0.9V13c0-1.7,1.3-3,3-3h0c1.7,0,3,1.3,3,3v0.1C54,13.6,53.6,14,53.1,14z"
		/>
	<path fill="#BF4851" d="M18.3,18h-6.6c-0.9,0-1.7-0.8-1.7-1.7V13c0-2.8,2.2-5,5-5h0c2.8,0,5,2.2,5,5v3.3C20,17.2,19.2,18,18.3,18z"
		/>
	<path fill="#90CAF0" d="M17.1,14h-4.2c-0.5,0-0.9-0.4-0.9-0.9V13c0-1.7,1.3-3,3-3h0c1.7,0,3,1.3,3,3v0.1C18,13.6,17.6,14,17.1,14z"
		/>
	<path fill="#BF4851" d="M36.3,10h-6.6C28.8,10,28,9.2,28,8.3V5c0-2.8,2.2-5,5-5h0c2.8,0,5,2.2,5,5v3.3C38,9.2,37.2,10,36.3,10z"/>
	<path fill="#90CAF0" d="M35.1,6h-4.2C30.4,6,30,5.6,30,5.1V5c0-1.7,1.3-3,3-3h0c1.7,0,3,1.3,3,3v0.1C36,5.6,35.6,6,35.1,6z"/>
	<path fill="#BF4851" d="M60.3,34h-6.6c-0.9,0-1.7-0.8-1.7-1.7V29c0-2.8,2.2-5,5-5h0c2.8,0,5,2.2,5,5v3.3C62,33.2,61.2,34,60.3,34z"
		/>
	<path fill="#90CAF0" d="M59.1,30h-4.2c-0.5,0-0.9-0.4-0.9-0.9V29c0-1.7,1.3-3,3-3h0c1.7,0,3,1.3,3,3v0.1C60,29.6,59.6,30,59.1,30z"
		/>
	<path fill="#BF4851" d="M12.3,34H5.7C4.8,34,4,33.2,4,32.3V29c0-2.8,2.2-5,5-5h0c2.8,0,5,2.2,5,5v3.3C14,33.2,13.2,34,12.3,34z"/>
	<path fill="#90CAF0" d="M11.1,30H6.9C6.4,30,6,29.6,6,29.1V29c0-1.7,1.3-3,3-3h0c1.7,0,3,1.3,3,3v0.1C12,29.6,11.6,30,11.1,30z"/>
</g>
</svg>
