<?xml version="1.0" encoding="utf-8"?>
<!-- Generator: Adobe Illustrator 18.1.0, SVG Export Plug-In . SVG Version: 6.00 Build 0)  -->
<svg version="1.1" id="Layer_1" xmlns="http://www.w3.org/2000/svg" xmlns:xlink="http://www.w3.org/1999/xlink" x="0px" y="0px"
	 viewBox="0 0 64 64" enable-background="new 0 0 64 64" xml:space="preserve">
<g>
	<path fill="#F2A500" d="M35.2,3.4c0,0-0.7,3.8-2,5.8c0-4.5-1.1-8.1-2.2-9.2c-0.2,1.8-0.5,6.3-1.4,6.8c-0.6-3.1-2.1-5.2-2.8-5.1
		c1.1,4.9-0.7,4.8-0.7,8.5c0,3.6,3.2,6.8,4.9,6.8c0,0,4.4-0.6,4.9-5.1C36.3,8.1,35.2,3.4,35.2,3.4z"/>
	<path fill="#3D4245" d="M39.7,31.3L38,29.6V26c0-0.6-0.4-1-1-1h-1v-2c0-0.3-0.1-0.5-0.3-0.7L34,20.6V17c0-0.6-0.4-1-1-1h-4
		c-0.6,0-1,0.4-1,1v3.6l-1.7,1.7C26.1,22.5,26,22.7,26,23v2h-1c-0.6,0-1,0.4-1,1v3.6l-1.7,1.7C22.1,31.5,22,31.7,22,32v31
		c0,0.3,0.2,0.7,0.5,0.9c0.3,0.2,0.7,0.2,1,0l7.6-3.8l7.6,3.8C38.7,64,38.8,64,39,64c0.2,0,0.4,0,0.5-0.1c0.3-0.2,0.5-0.5,0.5-0.9
		V32C40,31.7,39.9,31.5,39.7,31.3z M36.6,31.1L31,33.9l-5.6-2.8l0.1-0.1L36.6,31.1L36.6,31.1z M25.2,39l5.8-2.9l5.8,2.9L31,41.9
		L25.2,39z M36.8,47L31,49.9L25.2,47l5.8-2.9L36.8,47z M30,18h2v2h-2V18z M28,23.4l1.4-1.4h3.2l1.4,1.4V25h-6V23.4z M26,27h10v2H26
		V27z M24,32.6l4.8,2.4L24,37.4V32.6z M24,40.6l4.8,2.4L24,45.4V40.6z M24,48.6l4.8,2.4L24,53.4V48.6z M24,61.4v-4.8l4.8,2.4
		L24,61.4z M25.2,55l5.8-2.9l5.8,2.9L31,57.9L25.2,55z M38,61.4L33.2,59l4.8-2.4V61.4z M38,53.4L33.2,51l4.8-2.4V53.4z M38,45.4
		L33.2,43l4.8-2.4V45.4z M38,37.4L33.2,35l4.8-2.4V37.4z"/>
</g>
</svg>
