<?xml version="1.0" encoding="utf-8"?>
<!-- Generator: Adobe Illustrator 18.1.0, SVG Export Plug-In . SVG Version: 6.00 Build 0)  -->
<svg version="1.1" id="Layer_1" xmlns="http://www.w3.org/2000/svg" xmlns:xlink="http://www.w3.org/1999/xlink" x="0px" y="0px"
	 viewBox="0 0 64 64" enable-background="new 0 0 64 64" xml:space="preserve">
<g>
	<path fill="#4888C2" d="M32,22L32,22c17.7,0,32,13.6,32,30.5V62H0v-9.5C0,35.6,14.3,22,32,22z"/>
	<path fill="#90CAF0" d="M32,40L32,40c8.8,0,16,7.2,16,16v8H16v-8C16,47.2,23.2,40,32,40z"/>
	<path fill="#4888C2" d="M38,64H26v-8c0-3.3,2.7-6,6-6h0c3.3,0,6,2.7,6,6V64z"/>
	<g>
		<path fill="#81BDE3" d="M20.7,42H10v8h5C16.2,46.8,18.1,44.1,20.7,42z"/>
		<path fill="#81BDE3" d="M23.8,40c2.2-1.1,4.6-1.8,7.2-1.9V32H18v8H23.8z"/>
		<path fill="#81BDE3" d="M8,50v-8H1.9c-1,2.5-1.6,5.2-1.8,8H8z"/>
		<path fill="#81BDE3" d="M16,32H8.3c-2.2,2.4-4.1,5.1-5.5,8H16V32z"/>
		<path fill="#81BDE3" d="M10.4,30H24v-7C18.8,24.2,14.2,26.7,10.4,30z"/>
		<path fill="#81BDE3" d="M33,38.1c2.6,0.1,5,0.8,7.2,1.9H46v-8H33V38.1z"/>
		<path fill="#81BDE3" d="M40,23v7h13.6C49.8,26.7,45.2,24.2,40,23z"/>
		<path fill="#81BDE3" d="M54,42H43.3c2.6,2.1,4.5,4.8,5.7,8h5V42z"/>
		<path fill="#81BDE3" d="M26,30h12v-7.5c-1.9-0.4-3.9-0.5-6-0.5h0c-2.1,0-4.1,0.2-6,0.5V30z"/>
		<path fill="#81BDE3" d="M49.5,52c0.3,1.3,0.5,2.6,0.5,4v6h14v-9.5c0-0.2,0-0.3,0-0.5H49.5z"/>
		<path fill="#81BDE3" d="M14,56c0-1.4,0.2-2.7,0.5-4H0c0,0.2,0,0.3,0,0.5V62h14V56z"/>
		<path fill="#81BDE3" d="M55.7,32H48v8h13.2C59.8,37.1,57.9,34.4,55.7,32z"/>
		<path fill="#81BDE3" d="M62.1,42H56v8h7.9C63.7,47.2,63,44.5,62.1,42z"/>
	</g>
	<rect y="60" opacity="0.2" width="16" height="2"/>
	<rect x="48" y="60" opacity="0.2" width="16" height="2"/>
</g>
</svg>
