<?xml version="1.0" encoding="utf-8"?>
<!-- Generator: Adobe Illustrator 18.1.0, SVG Export Plug-In . SVG Version: 6.00 Build 0)  -->
<svg version="1.1" id="Layer_1" xmlns="http://www.w3.org/2000/svg" xmlns:xlink="http://www.w3.org/1999/xlink" x="0px" y="0px"
	 viewBox="0 0 64 64" enable-background="new 0 0 64 64" xml:space="preserve">
<g>
	<path fill="#5C5C5C" d="M13,15c-0.6,0-1-0.5-1-1.1V2.1C12,1.5,12.4,1,13,1s1,0.5,1,1.1v11.8C14,14.5,13.6,15,13,15z"/>
	<rect x="6" y="2" fill="#51A13D" width="6" height="4"/>
	<polygon fill="#E0E0E0" points="12,11.5 12,38 38,38 38,5 	"/>
	<path fill="#915D2D" d="M55,60h-1.4l-1-2H53c0.6,0,1-0.4,1-1s-0.4-1-1-1h-1.4l-1-2H51c0.6,0,1-0.4,1-1s-0.4-1-1-1h-1.4l-1-2H49
		c0.6,0,1-0.4,1-1s-0.4-1-1-1h-1.4l-1-2H47c0.6,0,1-0.4,1-1s-0.4-1-1-1h-1.4l-1-2H45c0.6,0,1-0.4,1-1s-0.4-1-1-1h-1.4l-1-2H43
		c0.6,0,1-0.4,1-1s-0.4-1-1-1h-1V25c0-0.6-0.4-1-1-1H13c-0.6,0-1,0.4-1,1v12v26c0,0.4,0.2,0.8,0.6,0.9c0.4,0.2,0.8,0.1,1.1-0.2
		L25,52.4l11.3,11.3c0.2,0.2,0.4,0.3,0.7,0.3c0.1,0,0.3,0,0.4-0.1c0.4-0.2,0.6-0.5,0.6-0.9V38h2.4l12.7,25.4
		c0.2,0.4,0.5,0.6,0.9,0.6c0.1,0,0.3,0,0.4-0.1c0.5-0.2,0.7-0.8,0.4-1.3L54.6,62H55c0.6,0,1-0.4,1-1S55.6,60,55,60z M34,26h2v10h-2
		V26z M30,26h2v10h-2V26z M26,26h2v10h-2V26z M22,26h2v10h-2V26z M18,26h2v10h-2V26z M14,26h2v10h-2V26z M14,60.6V41.4l9.6,9.6
		L14,60.6z M36,60.6L26.4,51l9.6-9.6V60.6z M36,38.6l-11,11l-11-11V38h22V38.6z M38,26h2v10h-2V26z"/>
	<polygon fill="#915D2D" points="42,6 10,14 10,10 42,2 	"/>
	<g>
		<polygon fill="#5997CF" points="28,11.5 22,13 22,22 28,22 		"/>
		<polygon fill="#5997CF" points="30,11 30,22 36,22 36,9.5 		"/>
	</g>
	<rect x="22" y="20" opacity="0.2" width="6" height="2"/>
	<rect x="30" y="20" opacity="0.2" width="6" height="2"/>
</g>
</svg>
