<?xml version="1.0" encoding="utf-8"?>
<!-- Generator: Adobe Illustrator 18.1.0, SVG Export Plug-In . SVG Version: 6.00 Build 0)  -->
<svg version="1.1" id="Layer_1" xmlns="http://www.w3.org/2000/svg" xmlns:xlink="http://www.w3.org/1999/xlink" x="0px" y="0px"
	 viewBox="0 0 64 64" enable-background="new 0 0 64 64" xml:space="preserve">
<g>
	<rect x="8" fill="#BF4851" width="50" height="18"/>
	<rect x="2" y="14" fill="#BF4851" width="62" height="4"/>
	<rect x="2" y="18" fill="#E8E8E8" width="62" height="46"/>
	<rect x="20" y="46" fill="#5997CF" width="4" height="10"/>
	<rect x="20" y="54" opacity="0.2" width="4" height="2"/>
	<rect x="8" y="46" fill="#BF4851" width="8" height="18"/>
	<rect x="26" y="46" fill="#5997CF" width="4" height="10"/>
	<rect x="26" y="54" opacity="0.2" width="4" height="2"/>
	<rect x="48" y="46" fill="#5997CF" width="4" height="10"/>
	<rect x="48" y="54" opacity="0.2" width="4" height="2"/>
	<rect x="36" y="46" fill="#BF4851" width="8" height="18"/>
	<rect x="54" y="46" fill="#5997CF" width="4" height="10"/>
	<rect x="54" y="54" opacity="0.2" width="4" height="2"/>
	<rect x="20" y="22" fill="#5997CF" width="4" height="10"/>
	<rect x="20" y="30" opacity="0.2" width="4" height="2"/>
	<rect x="8" y="22" fill="#BF4851" width="8" height="18"/>
	<rect x="26" y="22" fill="#5997CF" width="4" height="10"/>
	<rect x="26" y="30" opacity="0.2" width="4" height="2"/>
	<rect x="48" y="22" fill="#5997CF" width="4" height="10"/>
	<rect x="48" y="30" opacity="0.2" width="4" height="2"/>
	<rect x="36" y="22" fill="#BF4851" width="8" height="18"/>
	<rect x="54" y="22" fill="#5997CF" width="4" height="10"/>
	<rect x="54" y="30" opacity="0.2" width="4" height="2"/>
	<g>
		<path fill="#FFFFFF" d="M27.8,4h-1.7C25,4,24,5,24,6.2v5.7c0,1.2,1,2.2,2.2,2.2h1.7c1.2,0,2.2-1,2.2-2.2V6.2C30,5,29,4,27.8,4z
			 M28,11.8c0,0.1-0.1,0.2-0.2,0.2h-1.7c-0.1,0-0.2-0.1-0.2-0.2V6.2C26,6.1,26.1,6,26.2,6h1.7C27.9,6,28,6.1,28,6.2V11.8z"/>
		<path fill="#FFFFFF" d="M21.3,4.1c-0.4-0.1-0.9,0-1.1,0.3L18,7.3l-2.2-2.9c-0.3-0.3-0.7-0.5-1.1-0.3C14.3,4.2,14,4.6,14,5v8
			c0,0.6,0.4,1,1,1s1-0.4,1-1V8l1.2,1.6c0.4,0.5,1.2,0.5,1.6,0L20,8v5c0,0.6,0.4,1,1,1s1-0.4,1-1V5C22,4.6,21.7,4.2,21.3,4.1z"/>
		<path fill="#FFFFFF" d="M37,4h-4c-0.6,0-1,0.4-1,1s0.4,1,1,1h1v7c0,0.6,0.4,1,1,1s1-0.4,1-1V6h1c0.6,0,1-0.4,1-1S37.6,4,37,4z"/>
		<path fill="#FFFFFF" d="M45,6c0.6,0,1-0.4,1-1s-0.4-1-1-1h-4c-0.6,0-1,0.4-1,1v8c0,0.6,0.4,1,1,1h4c0.6,0,1-0.4,1-1s-0.4-1-1-1h-3
			v-2h2c0.6,0,1-0.4,1-1s-0.4-1-1-1h-2V6H45z"/>
		<path fill="#FFFFFF" d="M53,12h-3V5c0-0.6-0.4-1-1-1s-1,0.4-1,1v8c0,0.6,0.4,1,1,1h4c0.6,0,1-0.4,1-1S53.6,12,53,12z"/>
	</g>
	<path fill="#A3A4A6" d="M0,34v8h58v-8H0z M4,40H2v-4h2V40z M8,40H6v-4h2V40z M12,40h-2v-4h2V40z M16,40h-2v-4h2V40z M20,40h-2v-4h2
		V40z M24,40h-2v-4h2V40z M28,40h-2v-4h2V40z M32,40h-2v-4h2V40z M36,40h-2v-4h2V40z M40,40h-2v-4h2V40z M44,40h-2v-4h2V40z M48,40
		h-2v-4h2V40z M52,40h-2v-4h2V40z M56,40h-2v-4h2V40z"/>
	<path opacity="0.2" d="M16,56h-3c-0.6,0-1-0.4-1-1l0,0c0-0.6,0.4-1,1-1h3V56z"/>
	<path opacity="0.2" d="M44,56h-3c-0.6,0-1-0.4-1-1l0,0c0-0.6,0.4-1,1-1h3V56z"/>
	<path opacity="0.2" d="M16,32h-3c-0.6,0-1-0.4-1-1v0c0-0.6,0.4-1,1-1h3V32z"/>
	<path opacity="0.2" d="M44,32h-3c-0.6,0-1-0.4-1-1v0c0-0.6,0.4-1,1-1h3V32z"/>
</g>
</svg>
