<?xml version="1.0" encoding="utf-8"?>
<!-- Generator: Adobe Illustrator 18.1.0, SVG Export Plug-In . SVG Version: 6.00 Build 0)  -->
<svg version="1.1" id="Layer_1" xmlns="http://www.w3.org/2000/svg" xmlns:xlink="http://www.w3.org/1999/xlink" x="0px" y="0px"
	 viewBox="0 0 64 64" enable-background="new 0 0 64 64" xml:space="preserve">
<g>
	<g>
		<rect x="6" y="22" fill="#5C5C5C" width="52" height="38"/>
		<rect x="6" y="58" opacity="0.2" width="52" height="2"/>
		<path fill="#E0E0E0" d="M50,25V27c0,0.6,0.5,1,1,1h1v28h-1c-0.6,0-1,0.5-1,1V59c0,0.6,0.5,1,1,1H61c0.6,0,1-0.5,1-1V57
			c0-0.6-0.5-1-1-1h-1V28h1c0.6,0,1-0.5,1-1V25c0-0.6-0.5-1-1-1H51C50.5,24,50,24.5,50,25z"/>
		<path fill="#E0E0E0" d="M2,25V27c0,0.6,0.5,1,1,1h1v28H3c-0.6,0-1,0.5-1,1V59c0,0.6,0.5,1,1,1H13c0.6,0,1-0.5,1-1V57
			c0-0.6-0.5-1-1-1h-1V28h1c0.6,0,1-0.5,1-1V25c0-0.6-0.5-1-1-1H3C2.5,24,2,24.5,2,25z"/>
		<path fill="#E0E0E0" d="M32,2l31.2,15.6c0.5,0.2,0.8,0.7,0.8,1.3V20H0v-1.1c0-0.5,0.3-1,0.8-1.3L32,2z"/>
		<polygon fill="#AFB0B3" points="6,18 32,5 57,18 		"/>
		<polygon opacity="0.2" points="10,16 6,18 57,18 53.2,16 		"/>
		<path fill="#E0E0E0" d="M62.6,24H1.4C0.6,24,0,23.4,0,22.6V20h64v2.6C64,23.4,63.4,24,62.6,24z"/>
		<path fill="#AFB0B3" d="M0.9,60h62.2c0.5,0,0.9,0.4,0.9,0.9v2.2c0,0.5-0.4,0.9-0.9,0.9H0.9C0.4,64,0,63.6,0,63.1v-2.2
			C0,60.4,0.4,60,0.9,60z"/>
		<rect x="2" y="20" fill="#E8E8E8" width="60" height="2"/>
	</g>
	<path fill="#E0E0E0" d="M45.9,46.6l-2-5c0,0,0,0,0,0c-0.1-0.1-0.1-0.2-0.2-0.3c0,0-0.1,0-0.1-0.1c-0.1-0.1-0.2-0.1-0.3-0.1
		c0,0,0,0-0.1,0c0,0-0.1,0-0.1,0c-0.1,0-0.1,0-0.2,0c0,0-0.1,0-0.1,0c-0.1,0-0.1,0-0.2,0c-0.1,0-0.2,0.1-0.2,0.1c0,0-0.1,0-0.1,0
		l-4,3c-0.4,0.3-0.5,1-0.2,1.4c0.3,0.4,1,0.5,1.4,0.2l2.2-1.6c-0.9,4.1-4.8,7.3-8.8,7.8V38h2c0.6,0,1-0.4,1-1s-0.4-1-1-1h-2v-0.1
		c2-0.4,3-2,3-3.9c0-2.2-1.8-4-4-4s-4,1.8-4,4c0,1.9,1,3.4,3,3.9V36h-2c-0.6,0-1,0.4-1,1s0.4,1,1,1h2v13.9c-4-0.4-7.8-3.6-8.8-7.8
		l2.2,1.6c0.4,0.3,1.1,0.2,1.4-0.2c0.3-0.4,0.2-1.1-0.2-1.4l-4-3c0,0-0.1,0-0.1,0c-0.1,0-0.2-0.1-0.2-0.1c-0.1,0-0.1,0-0.2,0
		c0,0-0.1,0-0.1,0c-0.1,0-0.1,0-0.2,0c0,0-0.1,0-0.1,0c0,0,0,0-0.1,0c-0.1,0-0.2,0.1-0.3,0.1c0,0-0.1,0-0.1,0.1
		c-0.1,0.1-0.2,0.2-0.2,0.3c0,0,0,0,0,0l-2,5c-0.2,0.5,0,1.1,0.6,1.3c0.1,0,0.2,0.1,0.4,0.1c0.4,0,0.8-0.2,0.9-0.6l0.7-1.7
		c1.5,4.6,5.7,8,10.7,8.3l0.7,2l0.7-2c5-0.3,9.2-3.7,10.7-8.3l0.7,1.7c0.2,0.4,0.5,0.6,0.9,0.6c0.1,0,0.2,0,0.4-0.1
		C45.9,47.7,46.1,47.1,45.9,46.6z M30,32c0-1.1,0.9-2,2-2s2,0.9,2,2s-0.9,2-2,2S30,33.1,30,32z"/>
</g>
</svg>
