<?xml version="1.0" encoding="utf-8"?>
<!-- Generator: Adobe Illustrator 18.1.0, SVG Export Plug-In . SVG Version: 6.00 Build 0)  -->
<svg version="1.1" id="Layer_1" xmlns="http://www.w3.org/2000/svg" xmlns:xlink="http://www.w3.org/1999/xlink" x="0px" y="0px"
	 viewBox="0 0 64 64" enable-background="new 0 0 64 64" xml:space="preserve">
<g>
	<rect x="42" y="32" fill="#FFDF74" width="8" height="30"/>
	<rect x="22" y="30" fill="#FAEC94" width="20" height="34"/>
	<rect x="50" y="30" fill="#FAEC94" width="14" height="34"/>
	<polygon fill="#9E2F30" points="22,28 32,23 42,28 42,30 22,30 	"/>
	<path fill="#4888C2" d="M48,46h-4v-6c0-1.1,0.9-2,2-2h0c1.1,0,2,0.9,2,2V46z"/>
	<path fill="#5997CF" d="M40,44h-4v-6c0-1.1,0.9-2,2-2h0c1.1,0,2,0.9,2,2V44z"/>
	<path fill="#5997CF" d="M34,44h-4v-6c0-1.1,0.9-2,2-2h0c1.1,0,2,0.9,2,2V44z"/>
	<path fill="#5997CF" d="M28,44h-4v-6c0-1.1,0.9-2,2-2h0c1.1,0,2,0.9,2,2V44z"/>
	<path fill="#5997CF" d="M40,64h-4V50c0-1.1,0.9-2,2-2h0c1.1,0,2,0.9,2,2V64z"/>
	<path fill="#5997CF" d="M34,64h-4V50c0-1.1,0.9-2,2-2h0c1.1,0,2,0.9,2,2V64z"/>
	<path fill="#5997CF" d="M28,64h-4V50c0-1.1,0.9-2,2-2h0c1.1,0,2,0.9,2,2V64z"/>
	<path fill="#5997CF" d="M56,44h-4v-6c0-1.1,0.9-2,2-2h0c1.1,0,2,0.9,2,2V44z"/>
	<path fill="#4888C2" d="M48,58h-4v-6c0-1.1,0.9-2,2-2h0c1.1,0,2,0.9,2,2V58z"/>
	<path fill="#5997CF" d="M56,56h-4v-6c0-1.1,0.9-2,2-2h0c1.1,0,2,0.9,2,2V56z"/>
	<rect x="52" y="42" opacity="0.2" width="4" height="2"/>
	<rect x="44" y="44" opacity="0.2" width="4" height="2"/>
	<rect x="36" y="42" opacity="0.2" width="4" height="2"/>
	<rect x="30" y="42" opacity="0.2" width="4" height="2"/>
	<rect x="24" y="42" opacity="0.2" width="4" height="2"/>
	<rect x="36" y="62" opacity="0.2" width="4" height="2"/>
	<rect x="30" y="62" opacity="0.2" width="4" height="2"/>
	<rect x="24" y="62" opacity="0.2" width="4" height="2"/>
	<rect x="52" y="54" opacity="0.2" width="4" height="2"/>
	<path fill="#5997CF" d="M62,44h-4v-6c0-1.1,0.9-2,2-2h0c1.1,0,2,0.9,2,2V44z"/>
	<path fill="#5997CF" d="M62,56h-4v-6c0-1.1,0.9-2,2-2h0c1.1,0,2,0.9,2,2V56z"/>
	<rect x="58" y="42" opacity="0.2" width="4" height="2"/>
	<rect x="58" y="54" opacity="0.2" width="4" height="2"/>
	<rect y="30" fill="#FAEC94" width="14" height="34"/>
	<path fill="#5997CF" d="M6,44H2v-6c0-1.1,0.9-2,2-2h0c1.1,0,2,0.9,2,2V44z"/>
	<path fill="#5997CF" d="M6,56H2v-6c0-1.1,0.9-2,2-2h0c1.1,0,2,0.9,2,2V56z"/>
	<rect x="2" y="42" opacity="0.2" width="4" height="2"/>
	<rect x="2" y="54" opacity="0.2" width="4" height="2"/>
	<path fill="#5997CF" d="M12,44H8v-6c0-1.1,0.9-2,2-2h0c1.1,0,2,0.9,2,2V44z"/>
	<path fill="#5997CF" d="M12,56H8v-6c0-1.1,0.9-2,2-2h0c1.1,0,2,0.9,2,2V56z"/>
	<rect x="8" y="42" opacity="0.2" width="4" height="2"/>
	<rect x="8" y="54" opacity="0.2" width="4" height="2"/>
	<rect x="44" y="56" opacity="0.2" width="4" height="2"/>
	<rect x="14" y="32" fill="#FFDF74" width="8" height="30"/>
	<path fill="#4888C2" d="M20,46h-4v-6c0-1.1,0.9-2,2-2h0c1.1,0,2,0.9,2,2V46z"/>
	<path fill="#4888C2" d="M20,58h-4v-6c0-1.1,0.9-2,2-2h0c1.1,0,2,0.9,2,2V58z"/>
	<rect x="16" y="44" opacity="0.2" width="4" height="2"/>
	<rect x="16" y="56" opacity="0.2" width="4" height="2"/>
	<polygon fill="#BF4851" points="38.5,28 32,25 25.5,28 	"/>
	<polygon fill="#9E2F30" points="50,28 57,25 64,28 64,30 50,30 	"/>
	<path fill="#FFAE00" d="M42,30H22v2v1c0,0.6,0.4,1,1,1s1-0.4,1-1v-1h2v1c0,0.6,0.4,1,1,1s1-0.4,1-1v-1h2v1c0,0.6,0.4,1,1,1
		s1-0.4,1-1v-1h2v1c0,0.6,0.4,1,1,1s1-0.4,1-1v-1h2v1c0,0.6,0.4,1,1,1s1-0.4,1-1v-1h2V30z"/>
	<path fill="#FFAE00" d="M64,32v-2H50v2v1c0,0.6,0.4,1,1,1s1-0.4,1-1v-1h2v1c0,0.6,0.4,1,1,1s1-0.4,1-1v-1h2v1c0,0.6,0.4,1,1,1
		s1-0.4,1-1v-1h2v1c0,0.6,0.4,1,1,1s1-0.4,1-1V32z"/>
	<polygon fill="#BF4851" points="57,27 55,28 59,28 	"/>
	<polygon fill="#9E2F30" points="0,28 7,25 14,28 14,30 0,30 	"/>
	<path fill="#FFAE00" d="M14,32v-2H0v2v1c0,0.6,0.4,1,1,1s1-0.4,1-1v-1h2v1c0,0.6,0.4,1,1,1s1-0.4,1-1v-1h2v1c0,0.6,0.4,1,1,1
		s1-0.4,1-1v-1h2v1c0,0.6,0.4,1,1,1s1-0.4,1-1V32z"/>
	<polygon fill="#BF4851" points="7,27 5,28 9,28 	"/>
	<rect x="14" y="32" fill="#9E2F30" width="8" height="2"/>
	<rect x="42" y="32" fill="#9E2F30" width="8" height="2"/>
	<rect x="14" y="34" fill="#FFAE00" width="8" height="2"/>
	<rect x="42" y="34" fill="#FFAE00" width="8" height="2"/>
</g>
</svg>
