<?xml version="1.0" encoding="utf-8"?>
<!-- Generator: Adobe Illustrator 18.1.0, SVG Export Plug-In . SVG Version: 6.00 Build 0)  -->
<svg version="1.1" id="Layer_1" xmlns="http://www.w3.org/2000/svg" xmlns:xlink="http://www.w3.org/1999/xlink" x="0px" y="0px"
	 viewBox="0 0 64 64" enable-background="new 0 0 64 64" xml:space="preserve">
<path fill="#4D4D4D" d="M55.7,36.3l-6-6c-0.1-0.1-0.2-0.2-0.3-0.2C49.3,30,49.1,30,49,30h-7.7l-2.4-9.6C39,20.3,39,20.2,39,20h12
	c0.4,0,0.8-0.2,0.9-0.6c0.2-0.4,0.1-0.8-0.2-1.1l-6-6c-0.1-0.1-0.2-0.2-0.3-0.2C45.3,12,45.1,12,45,12h-8.2L34,0.8
	C33.9,0.3,33.5,0,33,0s-0.9,0.3-1,0.8L29.2,12H21c-0.1,0-0.3,0-0.4,0.1c-0.1,0-0.2,0.1-0.3,0.2l-6,6c-0.3,0.3-0.4,0.7-0.2,1.1
	c0.2,0.4,0.5,0.6,0.9,0.6h12c0,0.2,0,0.3,0.1,0.4L24.7,30H17c-0.1,0-0.3,0-0.4,0.1c-0.1,0-0.2,0.1-0.3,0.2l-6,6
	c-0.3,0.3-0.4,0.7-0.2,1.1c0.2,0.4,0.5,0.6,0.9,0.6h11.7l-6.2,24.8c-0.1,0.4,0.1,0.9,0.5,1.1c0.2,0.1,0.3,0.1,0.5,0.1
	c0.3,0,0.5-0.1,0.7-0.3l14.9-14.9l14.6,14.9c0.3,0.3,0.8,0.4,1.2,0.2c0.4-0.2,0.6-0.7,0.5-1.1L43.3,38H55c0.4,0,0.8-0.2,0.9-0.6
	C56.1,37,56,36.6,55.7,36.3z M46.6,32l-3.8,3.8l-1-3.8H46.6z M29.4,30l3.6-3.6l3.6,3.6H29.4z M36.6,32c-1.5,1.5-2.8,2.9-3.6,3.6
	L29.4,32H36.6z M34.4,25l2.8-2.8l1.9,7.6L34.4,25z M33,23.6L29.4,20h7.2L33,23.6z M29.8,18l1-4h4.4l1,4H29.8z M31.6,25l-4.7,4.7
	l1.9-7.6L31.6,25z M26.6,32l4,4h-5.3l1-4H26.6z M39.4,32h0.3l1,4h-5.2C36.4,35.1,37.7,33.8,39.4,32z M41.4,18l3.6-3.6l3.6,3.6H41.4z
	 M42.6,14l-4,4h-0.3l-1-4H42.6z M33,5.1l1.7,6.9h-3.4L33,5.1z M27.7,18h-0.3l-4-4h5.3L27.7,18z M21,14.4l3.6,3.6h-7.2L21,14.4z
	 M23.3,35.8L19.4,32h4.8L23.3,35.8z M17,32.4l3.6,3.6h-7.2L17,32.4z M19.3,59.7l5-20l7.4,7.6L19.3,59.7z M25.4,38h15.7l-7.9,7.9
	L25.4,38z M34.6,47.4l7.2-7.2l4.9,19.5L34.6,47.4z M45.4,36l3.6-3.6l3.6,3.6H45.4z"/>
</svg>
