<?xml version="1.0" encoding="utf-8"?>
<!-- Generator: Adobe Illustrator 18.1.0, SVG Export Plug-In . SVG Version: 6.00 Build 0)  -->
<svg version="1.1" id="Layer_1" xmlns="http://www.w3.org/2000/svg" xmlns:xlink="http://www.w3.org/1999/xlink" x="0px" y="0px"
	 viewBox="0 0 64 64" enable-background="new 0 0 64 64" xml:space="preserve">
<g>
	<path fill="#81BDE3" d="M47.1,31.6c-0.3,0-0.5-0.1-0.7-0.3c-0.4-0.4-0.4-1,0-1.4C50,26.2,52,21.2,52,16S50,5.8,46.3,2.1
		c-0.4-0.4-0.4-1,0-1.4c0.4-0.4,1-0.4,1.4,0c4,4.1,6.2,9.6,6.2,15.3s-2.2,11.2-6.2,15.3C47.6,31.5,47.3,31.6,47.1,31.6z"/>
	<path fill="#81BDE3" d="M42.8,27.4c-0.3,0-0.5-0.1-0.7-0.3c-0.4-0.4-0.4-1,0-1.4c2.6-2.6,4-6.1,4-9.7s-1.4-7.1-4-9.7
		c-0.4-0.4-0.4-1,0-1.4c0.4-0.4,1-0.4,1.4,0c2.9,3,4.5,7,4.5,11.1s-1.6,8.1-4.5,11.1C43.3,27.3,43,27.4,42.8,27.4z"/>
	<path fill="#81BDE3" d="M38.5,23.3c-0.3,0-0.5-0.1-0.7-0.3c-0.4-0.4-0.4-1,0-1.4c1.5-1.5,2.3-3.5,2.3-5.6s-0.8-4.1-2.3-5.6
		c-0.4-0.4-0.4-1,0-1.4s1-0.4,1.4,0c1.8,1.9,2.8,4.4,2.8,7s-1,5.1-2.8,7C39,23.2,38.7,23.3,38.5,23.3z"/>
	<path fill="#81BDE3" d="M16.9,31.6c-0.3,0-0.5-0.1-0.7-0.3c-4-4.1-6.2-9.6-6.2-15.3s2.2-11.2,6.2-15.3c0.4-0.4,1-0.4,1.4,0
		s0.4,1,0,1.4C14,5.8,12,10.8,12,16s2,10.2,5.7,13.9c0.4,0.4,0.4,1,0,1.4C17.4,31.5,17.2,31.6,16.9,31.6z"/>
	<path fill="#81BDE3" d="M21.2,27.4c-0.3,0-0.5-0.1-0.7-0.3c-2.9-3-4.5-7-4.5-11.1s1.6-8.1,4.5-11.1c0.4-0.4,1-0.4,1.4,0
		s0.4,1,0,1.4c-2.6,2.6-4,6.1-4,9.7s1.4,7.1,4,9.7c0.4,0.4,0.4,1,0,1.4C21.7,27.3,21.5,27.4,21.2,27.4z"/>
	<path fill="#81BDE3" d="M25.5,23.3c-0.3,0-0.5-0.1-0.7-0.3C23,21.1,22,18.6,22,16s1-5.1,2.8-7c0.4-0.4,1-0.4,1.4,0
		c0.4,0.4,0.4,1,0,1.4C24.8,11.9,24,13.9,24,16s0.8,4.1,2.3,5.6c0.4,0.4,0.4,1,0,1.4C26,23.2,25.8,23.3,25.5,23.3z"/>
	<path fill="#5C5C5C" d="M44,62.8l-11-44c-0.1-0.4-0.5-0.8-1-0.8s-0.9,0.3-1,0.8l-11,44c-0.1,0.5,0.2,1.1,0.7,1.2
		c0.5,0.1,1.1-0.2,1.2-0.7l0.3-1.1l15.6-15.6L42,63.2c0.1,0.5,0.5,0.8,1,0.8c0.1,0,0.2,0,0.2,0C43.8,63.8,44.1,63.3,44,62.8z
		 M32,23.1l1.3,5.2l-3.4,3.4L32,23.1z M23.2,58.4L28.5,37l8,8L23.2,58.4z M29.4,35l4.4-4.4l3,11.9L29.4,35z"/>
	<circle fill="#BF4851" cx="32" cy="16" r="4"/>
</g>
</svg>
