<?xml version="1.0" encoding="utf-8"?>
<!-- Generator: Adobe Illustrator 18.1.0, SVG Export Plug-In . SVG Version: 6.00 Build 0)  -->
<svg version="1.1" id="Layer_1" xmlns="http://www.w3.org/2000/svg" xmlns:xlink="http://www.w3.org/1999/xlink" x="0px" y="0px"
	 viewBox="0 0 64 64" enable-background="new 0 0 64 64" xml:space="preserve">
<path fill="#915D2D" stroke="#915D2D" stroke-width="2" stroke-linecap="round" stroke-linejoin="round" stroke-miterlimit="10" d="
	M59,41"/>
<path fill="#915D2D" d="M64,24.9c0-0.1,0-0.2-0.1-0.3c0,0,0-0.1,0-0.1c0-0.1-0.1-0.2-0.2-0.3c0,0,0,0,0,0l-10-10
	c-0.4-0.4-1-0.4-1.4,0l-10,10c0,0,0,0,0,0c-0.1,0.1-0.1,0.2-0.2,0.3c0,0,0,0.1,0,0.1c0,0.1,0,0.2-0.1,0.3c0,0,0,0,0,0.1v7
	c0,1-3.9,3-11,3s-11-2-11-3v-0.9c0-0.6-0.5-1.1-1.1-1.1h-1.8c-0.6,0-1.1,0.5-1.1,1.1V40H4v-8.9C4,30.5,3.5,30,2.9,30H1.1
	C0.5,30,0,30.5,0,31.1V64h4v-2h12v2h4V43.8c0.7,0.4,1.6,0.8,2.5,1.1c0.1,0,0.2,0.1,0.3,0.1c2.3,0.7,5.3,1,8.2,1c2.9,0,5.8-0.4,8.2-1
	c0.1,0,0.2,0,0.3-0.1c1-0.3,1.8-0.7,2.5-1.1V64h4V44h14v20h4L64,24.9C64,25,64,25,64,24.9z M16,60H4v-2h12V60z M16,56H4v-2h12V56z
	 M16,52H4v-2h12V52z M16,48H4v-2h12V48z M16,44H4v-2h12V44z M22,36v6.6c-1.3-0.5-2-1.1-2-1.6v-6.2c0.6,0.4,1.3,0.7,2.1,0.9
	C22,35.8,22,35.9,22,36z M26,43.6c-0.7-0.1-1.4-0.3-2-0.4v-7c0.6,0.1,1.3,0.3,2,0.4V43.6z M30,44c-0.7,0-1.4-0.1-2-0.1v-7
	c0.7,0.1,1.3,0.1,2,0.1V44z M34,43.9c-0.6,0.1-1.3,0.1-2,0.1v-7c0.7,0,1.3-0.1,2-0.1V43.9z M38,43.2c-0.6,0.2-1.3,0.3-2,0.4v-7
	c0.7-0.1,1.4-0.2,2-0.4V43.2z M42,41c0,0.4-0.7,1-2,1.6V36c0-0.1,0-0.2-0.1-0.3c0.8-0.3,1.5-0.6,2.1-0.9V41z M53,38
	c-2.8,0-5-2.2-5-5s2.2-5,5-5s5,2.2,5,5S55.8,38,53,38z"/>
</svg>
