<?xml version="1.0" encoding="utf-8"?>
<!-- Generator: Adobe Illustrator 18.1.0, SVG Export Plug-In . SVG Version: 6.00 Build 0)  -->
<svg version="1.1" id="Layer_1" xmlns="http://www.w3.org/2000/svg" xmlns:xlink="http://www.w3.org/1999/xlink" x="0px" y="0px"
	 viewBox="0 0 64 64" enable-background="new 0 0 64 64" xml:space="preserve">
<g>
	<rect x="20" y="42" fill="#A3A4A6" width="4" height="12"/>
	<polygon fill="#A3A4A6" points="43,23 37,32 34,29 	"/>
	<path fill="#81BDE3" d="M63,25c-0.6,0-1-0.4-1-1c0-11-9-20-20-20c-0.6,0-1-0.4-1-1s0.4-1,1-1c12.1,0,22,9.9,22,22
		C64,24.6,63.6,25,63,25z"/>
	<path fill="#81BDE3" d="M57,25c-0.6,0-1-0.4-1-1c0-7.7-6.3-14-14-14c-0.6,0-1-0.4-1-1s0.4-1,1-1c8.8,0,16,7.2,16,16
		C58,24.6,57.6,25,57,25z"/>
	<path fill="#81BDE3" d="M51,25c-0.6,0-1-0.4-1-1c0-4.4-3.6-8-8-8c-0.6,0-1-0.4-1-1s0.4-1,1-1c5.5,0,10,4.5,10,10
		C52,24.6,51.6,25,51,25z"/>
	<g>
		<g>
			<circle fill="#E0E0E0" cx="24" cy="42" r="4"/>
		</g>
	</g>
	<path fill="#BF4851" d="M26,64h-8V52c0-1.1,0.9-2,2-2h4c1.1,0,2,0.9,2,2V64z"/>
	<path fill="#4D4D4D" d="M30,64H14v0c0-2.2,1.8-4,4-4h8C28.2,60,30,61.8,30,64L30,64z"/>
	<circle fill="#A3A4A6" cx="18" cy="54" r="2"/>
	<circle fill="#BF4851" cx="43" cy="23" r="3"/>
	<path fill="#E0E0E0" d="M24.6,18.2c-6.4,6.4-6.4,16.8,0,23.2c6.2,6.2,16.8,6.4,23.2,0L24.6,18.2z"/>
</g>
</svg>
