<?xml version="1.0" encoding="utf-8"?>
<!-- Generator: Adobe Illustrator 18.1.0, SVG Export Plug-In . SVG Version: 6.00 Build 0)  -->
<svg version="1.1" id="Layer_1" xmlns="http://www.w3.org/2000/svg" xmlns:xlink="http://www.w3.org/1999/xlink" x="0px" y="0px"
	 viewBox="0 0 64 64" enable-background="new 0 0 64 64" xml:space="preserve">
<polygon fill="#5C5C5C" points="41,64 22,64 27,35 32,31 37,35 "/>
<path fill="#C2D417" d="M57.7,55.3l-23-23C34.5,32.1,34,32,34,32c0,0,0,0,0,0c0-0.5-0.5-1-1-1h-2c-0.5,0-1,0.4-1,1c0,0,0,0,0,0
	c0,0-0.5,0.1-0.7,0.3l-25,25C4.1,57.5,4,57.7,4,58v6h21c1.8,0,4.2-1.9,5.8-16.4c0.7-6.1,1-12.3,1.1-14.6H32
	c0.1,2.3,0.4,8.5,1.1,14.6C34.8,62.1,37.2,64,39,64h21v-3.2C60,59,59,56.6,57.7,55.3z"/>
<path fill="#5C5C5C" d="M63,56c-0.6,0-1,0.4-1,1v1.6L32.7,29.3c-0.4-0.4-1-0.4-1.4,0L2,58.6V57c0-0.6-0.4-1-1-1s-1,0.4-1,1v7h2v-2.6
	l30-30l30,30V64h2v-7C64,56.4,63.6,56,63,56z"/>
<g opacity="0.2">
	<path d="M27.6,62H4v2h21C25.8,64,26.7,63.6,27.6,62z"/>
	<path d="M60,64v-2H36.4c0.9,1.6,1.8,2,2.6,2H60z"/>
</g>
</svg>
