<?xml version="1.0" encoding="utf-8"?>
<!-- Generator: Adobe Illustrator 18.1.0, SVG Export Plug-In . SVG Version: 6.00 Build 0)  -->
<svg version="1.1" id="Layer_1" xmlns="http://www.w3.org/2000/svg" xmlns:xlink="http://www.w3.org/1999/xlink" x="0px" y="0px"
	 viewBox="0 0 64 64" enable-background="new 0 0 64 64" xml:space="preserve">
<g>
	<g>
		<g>
			<path fill="#E8E8E8" d="M64,17l-3-4l-3,4l1.6,2.1l-26.3-8.8L35,8l-3-4l-3,4l1.8,2.4L4.4,19.1L6,17l-3-4l-3,4l2.3,3.1
				C2.1,20.3,2,20.5,2,20.8l0,2C2,23.4,2.5,24,3.2,24h57.6c0.7,0,1.2-0.6,1.2-1.3v-1.9c0-0.3-0.1-0.5-0.3-0.8L64,17z"/>
			<rect x="4" y="24" fill="#5C5C5C" width="56" height="36"/>
			<rect x="4" y="24" opacity="0.2" width="57" height="2"/>
			<rect x="4" y="58" opacity="0.2" width="56" height="2"/>
			<path fill="#AFB0B3" d="M0.9,60h62.2c0.5,0,0.9,0.4,0.9,0.9v2.2c0,0.5-0.4,0.9-0.9,0.9H0.9C0.4,64,0,63.6,0,63.1v-2.2
				C0,60.4,0.4,60,0.9,60z"/>
			<polygon fill="#AFB0B3" points="32,14 12,20 52,20 			"/>
			<polygon fill="#9E2F30" points="56,60 50,60 54,44 48,24 56,24 			"/>
			<polygon fill="#9E2F30" points="8,60 14,60 10,44 16,24 8,24 			"/>
			<g>
				<path fill="#BF4851" d="M29,28L29,28c-1.7,0-3-1.3-3-3v-1h6v1C32,26.7,30.7,28,29,28z"/>
				<path fill="#BF4851" d="M35,28L35,28c-1.7,0-3-1.3-3-3v-1h6v1C38,26.7,36.7,28,35,28z"/>
				<path fill="#BF4851" d="M41,28L41,28c-1.7,0-3-1.3-3-3v-1h6v1C44,26.7,42.7,28,41,28z"/>
				<path fill="#BF4851" d="M47,28L47,28c-1.7,0-3-1.3-3-3v-1h6v1C50,26.7,48.7,28,47,28z"/>
				<path fill="#BF4851" d="M53,28L53,28c-1.7,0-3-1.3-3-3v-1h6v1C56,26.7,54.7,28,53,28z"/>
				<path fill="#BF4851" d="M11,28L11,28c-1.7,0-3-1.3-3-3v-1h6v1C14,26.7,12.7,28,11,28z"/>
				<path fill="#BF4851" d="M17,28L17,28c-1.7,0-3-1.3-3-3v-1h6v1C20,26.7,18.7,28,17,28z"/>
				<path fill="#BF4851" d="M23,28L23,28c-1.7,0-3-1.3-3-3v-1h6v1C26,26.7,24.7,28,23,28z"/>
			</g>
			<path fill="#E0E0E0" d="M9,58H8V26h1c0.6,0,1-0.4,1-1s-0.4-1-1-1H3c-0.6,0-1,0.4-1,1s0.4,1,1,1h1v32H3c-0.6,0-1,0.4-1,1
				s0.4,1,1,1h6c0.6,0,1-0.4,1-1S9.6,58,9,58z"/>
			<path fill="#E0E0E0" d="M61,58h-1V26h1c0.6,0,1-0.4,1-1s-0.4-1-1-1h-6c-0.6,0-1,0.4-1,1s0.4,1,1,1h1v32h-1c-0.6,0-1,0.4-1,1
				s0.4,1,1,1h6c0.6,0,1-0.4,1-1S61.6,58,61,58z"/>
		</g>
	</g>
	<g>
		<path fill="#FFAE00" d="M16,33.4V39c0,5.5,2.6,10.7,6.9,13.8l0,0c1.9,1.4,4.4,1.4,6.2,0l0,0C33.4,49.6,36,44.5,36,39v-5.6
			c0-1.4-0.9-2.6-2.2-2.8l0,0c-5.1-1.1-10.4-1.1-15.6,0l0,0C16.9,30.9,16,32,16,33.4z"/>
		<path fill="#4D4D4D" d="M26,45c3.2,0,5,1.2,5,2c0-2.7-1.8-5-5-5s-5,2.3-5,5C21,46.2,22.8,45,26,45z"/>
		<path fill="#FAEC94" d="M28,37.4V43c0,5.5,2.6,10.7,6.9,13.8l0,0c1.9,1.4,4.4,1.4,6.2,0l0,0C45.4,53.6,48,48.5,48,43v-5.6
			c0-1.4-0.9-2.6-2.2-2.8l0,0c-5.1-1.1-10.4-1.1-15.6,0l0,0C28.9,34.9,28,36,28,37.4z"/>
		<path fill="#4D4D4D" d="M38,49c-3.8,0-6-2.1-6-3c0,3.2,3,6,6,6c3,0,6-2.8,6-6C44,46.9,41.8,49,38,49z"/>
		<path fill="#4D4D4D" d="M34,40c-1.1,0-2,0.9-2,2h4C36,40.9,35.1,40,34,40z"/>
		<path fill="#4D4D4D" d="M22,36c-1.1,0-2,0.9-2,2h4C24,36.9,23.1,36,22,36z"/>
		<path fill="#4D4D4D" d="M42,40c-1.1,0-2,0.9-2,2h4C44,40.9,43.1,40,42,40z"/>
	</g>
</g>
</svg>
