<?xml version="1.0" encoding="utf-8"?>
<!-- Generator: Adobe Illustrator 18.1.0, SVG Export Plug-In . SVG Version: 6.00 Build 0)  -->
<svg version="1.1" id="Layer_1" xmlns="http://www.w3.org/2000/svg" xmlns:xlink="http://www.w3.org/1999/xlink" x="0px" y="0px"
	 viewBox="0 0 64 64" enable-background="new 0 0 64 64" xml:space="preserve">
<rect x="7" y="47" fill="#A3A4A6" width="50" height="17"/>
<rect x="20" y="24" fill="#FFDF74" width="24" height="26"/>
<path fill="#5C5C5C" d="M8,63V36c0-13.8,10.2-24,24-24s24,10.2,24,24v27L42,50V35c0-5.5-4.5-10-10-10h0c-5.5,0-10,4.5-10,10v15L8,63
	z"/>
<path fill="#AFB0B3" d="M32,4C14.4,4,0,18.4,0,36v27c0,0.6,0.4,1,1,1h6c0.6,0,1-0.4,1-1V36c0-13.2,10.8-24,24-24s24,10.8,24,24v27
	c0,0.6,0.4,1,1,1h6c0.6,0,1-0.4,1-1V36C64,18.4,49.6,4,32,4z"/>
</svg>
