<?xml version="1.0" encoding="utf-8"?>
<!-- Generator: Adobe Illustrator 18.1.0, SVG Export Plug-In . SVG Version: 6.00 Build 0)  -->
<svg version="1.1" id="Layer_1" xmlns="http://www.w3.org/2000/svg" xmlns:xlink="http://www.w3.org/1999/xlink" x="0px" y="0px"
	 viewBox="0 0 64 64" enable-background="new 0 0 64 64" xml:space="preserve">
<g>
	<path fill="#E0E0E0" d="M33,38L33,38c-6.1,0-11-4.9-11-11V8h22v19C44,33.1,39.1,38,33,38z"/>
	<rect x="22" y="28" opacity="0.2" width="22" height="2"/>
	<rect x="22" y="8" opacity="0.2" width="22" height="2"/>
	<polygon fill="#5C5C5C" points="19,8 21,8 45,8 47,8 33,0 	"/>
	<path fill="#5C5C5C" d="M50,62.9C50,62.9,50,62.9,50,62.9L44.2,28H45c0.6,0,1-0.4,1-1s-0.4-1-1-1H21c-0.6,0-1,0.4-1,1s0.4,1,1,1
		h0.8L16,62.8c0,0,0,0.1,0,0.1c0,0.3,0.1,0.5,0.3,0.8c0.2,0.2,0.5,0.3,0.7,0.3s0.5-0.1,0.7-0.3L33,48.4l15.1,15.1
		c0.2,0.3,0.5,0.6,0.9,0.6c0.1,0,0.1,0,0.2,0c0.5-0.1,0.8-0.5,0.8-1C50,63,50,63,50,62.9z M42.2,28l1.2,7.2c0,0,0,0-0.1,0L33,45.6
		L22.7,35.3c0,0-0.1,0-0.1-0.1l1.2-7.2H42.2z M18.5,60.1l3.7-22.4l9.4,9.4L18.5,60.1z M43.8,37.7l3.7,22.4L34.4,47L43.8,37.7z"/>
</g>
</svg>
