<?xml version="1.0" encoding="utf-8"?>
<!-- Generator: Adobe Illustrator 16.0.0, SVG Export Plug-In . SVG Version: 6.00 Build 0)  -->
<!DOCTYPE svg PUBLIC "-//W3C//DTD SVG 1.1//EN" "http://www.w3.org/Graphics/SVG/1.1/DTD/svg11.dtd">
<svg version="1.1" id="BALL" xmlns="http://www.w3.org/2000/svg" xmlns:xlink="http://www.w3.org/1999/xlink" x="0px" y="0px"
	 width="64px" height="64px" viewBox="0 0 64 64" enable-background="new 0 0 64 64" xml:space="preserve">
<path fill="#1A171B" d="M49.19,29.058c-0.013-0.054-0.034-0.102-0.056-0.153c-2.305-5.663-7.327-9.938-13.447-11.182v-3.443
	c0-0.441-0.29-0.804-0.688-0.937v-0.694c0-1.654-1.346-3-3-3s-3,1.346-3,3v0.694c-0.396,0.133-0.688,0.496-0.688,0.937v3.443
	c-8.44,1.714-14.813,9.19-14.813,18.129c0,2.399,0.474,4.688,1.309,6.793c0.013,0.055,0.035,0.104,0.057,0.155
	C17.62,49.565,24.257,54.352,32,54.352c10.201,0,18.5-8.299,18.5-18.5C50.5,33.451,50.026,31.164,49.19,29.058z M15.5,35.852
	c0-0.847,0.084-1.672,0.208-2.485c1.883,0.681,3.848,1.037,5.813,1.037c3.563,0,7.105-1.102,10.064-3.241
	c4.615-3.337,10.779-3.777,15.818-1.174c0.697,1.825,1.096,3.796,1.096,5.863c0,0.841-0.083,1.661-0.205,2.468
	c-5.299-1.918-11.276-1.11-15.881,2.222c-4.615,3.338-10.779,3.777-15.818,1.174C15.899,39.89,15.5,37.919,15.5,35.852z M32,11.648
	c0.552,0,1,0.449,1,1v0.631h-2v-0.631C31,12.097,31.448,11.648,32,11.648z M30.313,17.352v-2.072h3.375v2.072H30.313z M32,19.352
	c5.94,0,11.142,3.166,14.048,7.89c-5.21-1.791-11.088-0.988-15.634,2.3c-4.131,2.987-9.548,3.676-14.288,1.862
	C18.075,24.463,24.445,19.352,32,19.352z M32,52.352c-5.938,0-11.14-3.165-14.046-7.886c1.807,0.62,3.69,0.935,5.574,0.935
	c3.549,0,7.088-1.091,10.058-3.238c4.144-2.997,9.545-3.682,14.288-1.864C45.926,47.24,39.556,52.352,32,52.352z"/>
</svg>
