<?xml version="1.0" encoding="utf-8"?>
<!-- Generator: Adobe Illustrator 16.0.0, SVG Export Plug-In . SVG Version: 6.00 Build 0)  -->
<!DOCTYPE svg PUBLIC "-//W3C//DTD SVG 1.1//EN" "http://www.w3.org/Graphics/SVG/1.1/DTD/svg11.dtd">
<svg version="1.1" id="SUGAR" xmlns="http://www.w3.org/2000/svg" xmlns:xlink="http://www.w3.org/1999/xlink" x="0px" y="0px"
	 width="64px" height="64px" viewBox="0 0 64 64" enable-background="new 0 0 64 64" xml:space="preserve">
<path fill="#1A171B" d="M42.426,15.799c-0.422-0.73-0.917-1.401-1.468-2.015c-0.001,0-0.001-0.001-0.002-0.002
	c-0.01-0.011-0.021-0.021-0.031-0.032c-1.516-1.674-3.477-2.886-5.71-3.484c-1.009-0.271-2.045-0.407-3.08-0.407
	c-5.36,0-10.075,3.621-11.464,8.805l-0.518,1.932c-0.346,1.29-0.168,2.638,0.5,3.794s1.746,1.983,3.036,2.329
	c0.425,0.114,0.86,0.172,1.297,0.172c2.258,0,4.242-1.524,4.826-3.707l0.518-1.932c0.052-0.193,0.142-0.367,0.248-0.527
	c0.016-0.023,0.029-0.048,0.045-0.07c0.11-0.149,0.242-0.28,0.389-0.392c0.021-0.017,0.044-0.031,0.066-0.047
	c0.156-0.108,0.327-0.198,0.51-0.257c0.008-0.002,0.016-0.004,0.024-0.006c0.194-0.06,0.398-0.091,0.605-0.084l0,0
	c0.136,0.004,0.272,0.021,0.409,0.057c0.237,0.063,0.449,0.173,0.635,0.313c0.137,0.102,0.254,0.223,0.355,0.355
	c0.014,0.018,0.025,0.036,0.038,0.054c0.095,0.132,0.176,0.273,0.233,0.425c0.001,0.002,0.001,0.003,0.002,0.004
	c0.061,0.162,0.098,0.332,0.112,0.508c0.001,0.01,0.001,0.02,0.001,0.028c0.012,0.174,0.001,0.353-0.038,0.53l0,0
	c-0.006,0.026-0.006,0.054-0.013,0.08l-7.279,27.166c-0.714,2.662,0.872,5.41,3.535,6.124c0.424,0.113,0.86,0.171,1.296,0.171h0.001
	c2.257,0,4.242-1.523,4.827-3.706l7.278-27.167C44.433,21.747,44.012,18.546,42.426,15.799z M27.881,22.666
	c-0.419,1.562-2.092,2.543-3.674,2.121c-0.774-0.207-1.421-0.704-1.822-1.397c-0.4-0.694-0.507-1.503-0.3-2.276l0.518-1.932
	c0.157-0.586,0.369-1.146,0.623-1.68l5.291,2.904c-0.04,0.108-0.088,0.214-0.118,0.328L27.881,22.666z M32.14,17.861
	c-0.19,0-0.378,0.02-0.563,0.047l-1.876-5.743c0.783-0.2,1.599-0.306,2.434-0.306c0.86,0,1.723,0.114,2.563,0.339
	c1.566,0.42,2.972,1.202,4.131,2.271l-4.18,4.331c-0.426-0.364-0.928-0.651-1.504-0.806C32.815,17.906,32.478,17.861,32.14,17.861z
	 M41.981,22.523c-0.049,0.592-0.145,1.184-0.302,1.77l-1.426,5.321l-5.795-1.552l1.426-5.323c0.045-0.167,0.06-0.334,0.081-0.502
	L41.981,22.523z M38.701,35.41l-1.855,6.927l-5.796-1.553l1.855-6.927L38.701,35.41z M34.401,51.46
	c-0.419,1.562-2.095,2.547-3.675,2.121c-1.598-0.429-2.55-2.077-2.121-3.675l0.892-3.326l5.796,1.553L34.401,51.46z"/>
</svg>
