<?xml version="1.0" encoding="utf-8"?>
<!-- Generator: Adobe Illustrator 16.0.0, SVG Export Plug-In . SVG Version: 6.00 Build 0)  -->
<!DOCTYPE svg PUBLIC "-//W3C//DTD SVG 1.1//EN" "http://www.w3.org/Graphics/SVG/1.1/DTD/svg11.dtd">
<svg version="1.1" id="SANTA_CLAUS" xmlns="http://www.w3.org/2000/svg" xmlns:xlink="http://www.w3.org/1999/xlink" x="0px"
	 y="0px" width="64px" height="64px" viewBox="0 0 64 64" enable-background="new 0 0 64 64" xml:space="preserve">
<path fill="#1A171B" d="M52.703,29.424c0-1.225-0.605-2.304-1.525-2.976c0.003-0.007,0.008-0.013,0.011-0.02
	C51.727,24.967,52,23.211,52,21.211c0-6.786-9.579-10.336-19.042-10.336c-0.014,0-0.024,0.007-0.037,0.007
	c-0.376-0.021-0.749-0.049-1.131-0.049c-9.258,0-16.79,6.448-16.79,14.375c0,1.779,1.133,3.287,2.711,3.874
	c-1.925,1.213-3.211,3.353-3.211,5.792c0,0.946,0.198,1.885,0.576,2.743c-0.377,0.869-0.576,1.811-0.576,2.752
	c0,2.461,1.335,4.728,3.452,5.942c0.23,3.568,3.206,6.401,6.829,6.401c0.875,0,1.739-0.167,2.538-0.487
	c0.022,0.021,0.043,0.038,0.063,0.055c0.052,0.054,0.105,0.099,0.143,0.124c0.035,0.038,0.152,0.134,0.193,0.166
	c0.146,0.114,0.289,0.225,0.481,0.355c0.023,0.018,0.117,0.085,0.142,0.1c0.253,0.156,0.501,0.299,0.787,0.43
	c0.015,0.006,0.041,0.017,0.069,0.028c0.209,0.099,0.438,0.179,0.699,0.268c0.022,0.007,0.105,0.032,0.128,0.038
	c0.067,0.021,0.132,0.04,0.14,0.04c0.221,0.063,0.43,0.104,0.585,0.13c0.102,0.023,0.201,0.04,0.328,0.06
	c0.3,0.042,0.605,0.064,0.922,0.064s0.622-0.022,0.961-0.07c0.088-0.014,0.188-0.03,0.23-0.042c0.216-0.038,0.426-0.078,0.577-0.126
	c0.065-0.014,0.136-0.034,0.267-0.074c0.022-0.006,0.083-0.025,0.105-0.032c0.227-0.077,0.456-0.157,0.666-0.258
	c0.035-0.014,0.069-0.028,0.087-0.036c0.264-0.12,0.512-0.263,0.822-0.457c0.005-0.004,0.123-0.092,0.128-0.096
	c0.15-0.099,0.296-0.211,0.517-0.383c0.041-0.031,0.063-0.048,0.098-0.086c0.05-0.041,0.1-0.083,0.097-0.083c0,0-0.001,0-0.002,0
	c0.044-0.037,0.087-0.075,0.129-0.113c0.798,0.319,1.662,0.486,2.537,0.486c3.627,0,6.604-2.834,6.834-6.404
	c2.114-1.216,3.447-3.48,3.447-5.939c0-0.95-0.199-1.892-0.579-2.752c0.38-0.851,0.579-1.788,0.579-2.743
	c0-0.618-0.104-1.209-0.259-1.778C51.169,32.973,52.703,31.382,52.703,29.424z M50,21.211c0,1.764-0.231,3.286-0.688,4.526
	c-0.003,0.008-0.001,0.015-0.004,0.022c-0.101-0.008-0.197-0.03-0.3-0.03c-0.165,0-0.325,0.021-0.484,0.042
	c0.025-0.186,0.057-0.37,0.057-0.563c0-4.31-2.237-8.173-5.758-10.81C46.994,15.808,50,18.143,50,21.211z M32,25.333
	c-2.038,0-3.695,1.657-3.695,3.694c0,0.255,0.026,0.504,0.075,0.744c-0.382,0.071-0.758,0.152-1.134,0.253
	c-0.054,0.015-0.105,0.033-0.155,0.056c0.048-0.022,0.071-0.03,0.046-0.024c-0.246,0.066-0.489,0.14-0.729,0.218
	c-1.111-1.227-2.639-2.01-4.281-2.2c0.717-0.745,1.163-1.752,1.163-2.865c0-3.884,3.813-7.043,8.5-7.043s8.5,3.159,8.5,7.043
	c0,1.141,0.464,2.175,1.212,2.925c-1.499,0.259-2.883,1.007-3.91,2.141c-0.229-0.074-0.455-0.143-0.667-0.198
	c-0.038-0.013-0.073-0.023-0.109-0.032c-0.021-0.007-0.041-0.013-0.062-0.019c-0.376-0.101-0.752-0.182-1.134-0.253
	c0.049-0.24,0.075-0.489,0.075-0.744C35.695,26.99,34.038,25.333,32,25.333z M33.695,29.027c0,0.935-0.761,1.695-1.695,1.695
	s-1.695-0.761-1.695-1.695s0.761-1.694,1.695-1.694S33.695,28.093,33.695,29.027z M17,25.208c0-6.823,6.635-12.375,14.79-12.375
	s14.79,5.552,14.79,12.375c0,1.183-0.963,2.145-2.146,2.145s-2.145-0.962-2.145-2.145c0-4.986-4.71-9.043-10.5-9.043
	s-10.5,4.057-10.5,9.043c0,1.183-0.963,2.145-2.146,2.145S17,26.391,17,25.208z M46.927,38.091c0.381,0.701,0.573,1.468,0.573,2.278
	c0,1.896-1.122,3.63-2.858,4.419c-0.369,0.167-0.601,0.54-0.586,0.945c0.001,0.049,0.006,0.098,0.012,0.131
	c0,2.674-2.175,4.849-4.849,4.849c-0.805,0-1.593-0.197-2.279-0.571c-0.317-0.174-0.702-0.161-1.009,0.03
	c-0.099,0.062-0.177,0.133-0.234,0.196c-0.028,0.028-0.072,0.075-0.09,0.096c-0.107,0.126-0.226,0.247-0.413,0.41
	c-0.061,0.05-0.119,0.101-0.138,0.115c-0.104,0.082-0.205,0.162-0.336,0.249l-0.112,0.086c-0.181,0.111-0.356,0.215-0.515,0.291
	c-0.046,0.015-0.09,0.032-0.133,0.053c-0.144,0.071-0.305,0.122-0.433,0.169l-0.14,0.04l-0.11,0.03
	c-0.15,0.044-0.292,0.068-0.496,0.106c-0.045,0.012-0.089,0.018-0.131,0.024c-0.424,0.057-0.874,0.058-1.304-0.001
	c-0.039-0.006-0.083-0.012-0.187-0.035c-0.147-0.026-0.29-0.051-0.442-0.095L30.62,51.88l-0.118-0.036
	c-0.157-0.054-0.318-0.104-0.462-0.176c-0.043-0.021-0.057-0.027-0.102-0.042c-0.189-0.087-0.365-0.19-0.543-0.304l-0.142-0.103
	c-0.104-0.068-0.202-0.146-0.303-0.225l-0.042-0.033c-0.04-0.037-0.091-0.08-0.163-0.142c-0.127-0.109-0.245-0.23-0.368-0.374
	l-0.097-0.101c-0.066-0.067-0.144-0.132-0.212-0.174c-0.305-0.191-0.69-0.204-1.009-0.03c-0.687,0.374-1.475,0.571-2.279,0.571
	c-2.671,0-4.844-2.175-4.844-4.847l-1-0.022l1.007-0.11c0.015-0.405-0.217-0.778-0.586-0.945c-1.736-0.789-2.858-2.523-2.858-4.419
	c0-0.801,0.192-1.571,0.57-2.288c0.155-0.295,0.154-0.646-0.003-0.94c-0.372-0.69-0.567-1.474-0.567-2.267
	c0-2.674,2.175-4.849,4.848-4.849c1.546,0,3.01,0.75,3.915,2.008c0.263,0.362,0.736,0.51,1.159,0.353
	c0.401-0.146,0.813-0.284,1.257-0.405c0.025-0.006,0.062-0.017,0.099-0.028c0.38-0.102,0.756-0.187,1.144-0.252
	c0.042-0.007,0.116-0.022,0.157-0.035c0.06-0.011,0.133-0.028,0.086-0.02c0.068-0.012,0.138-0.018,0.206-0.027
	c0.671,0.681,1.601,1.104,2.63,1.104c1.033,0,1.965-0.428,2.636-1.112c0.035,0.005,0.076,0.01,0.108,0.015
	c0.056,0.016,0.117,0.028,0.21,0.046c0.041,0.013,0.083,0.022,0.125,0.029c0.379,0.063,0.747,0.146,1.117,0.245
	c0.043,0.015,0.09,0.027,0.146,0.042c0.424,0.114,0.835,0.252,1.236,0.398c0.425,0.157,0.896,0.01,1.159-0.353
	c0.905-1.258,2.369-2.008,3.914-2.008c1.205,0,2.294,0.457,3.143,1.188c0.247,0.44,0.575,0.823,0.974,1.13
	c0.456,0.738,0.732,1.601,0.732,2.531c0,0.802-0.197,1.582-0.569,2.258C46.767,37.43,46.766,37.791,46.927,38.091z M49.008,31.119
	c-0.935,0-1.695-0.761-1.695-1.695s0.761-1.694,1.695-1.694s1.695,0.76,1.695,1.694S49.942,31.119,49.008,31.119z M37.048,34.193
	c-1.607,0.168-3.451-0.088-4.594-0.669c-0.285-0.146-0.623-0.146-0.908,0c-1.143,0.581-2.986,0.835-4.594,0.669
	c-0.551-0.04-1.041,0.343-1.098,0.893c-0.056,0.55,0.344,1.041,0.893,1.098c0.404,0.041,0.823,0.063,1.253,0.063
	c0.15,0,0.295-0.014,0.443-0.02c0.315,1.1,1.713,1.856,3.557,1.856s3.241-0.757,3.557-1.856c0.148,0.006,0.293,0.02,0.443,0.02
	c0.43,0,0.849-0.022,1.253-0.063c0.549-0.057,0.948-0.548,0.893-1.098C38.089,34.536,37.602,34.146,37.048,34.193z M32,36.084
	c-0.51,0-0.895-0.087-1.172-0.188c0.412-0.106,0.81-0.227,1.172-0.379c0.362,0.152,0.76,0.272,1.172,0.379
	C32.895,35.997,32.51,36.084,32,36.084z M29,23.833c0,0.829-0.671,1.5-1.5,1.5s-1.5-0.671-1.5-1.5c0-0.828,0.671-1.497,1.5-1.497
	S29,23.005,29,23.833z M38,23.833c0,0.829-0.671,1.5-1.5,1.5s-1.5-0.671-1.5-1.5c0-0.828,0.671-1.497,1.5-1.497S38,23.005,38,23.833
	z"/>
</svg>
