<?xml version="1.0" encoding="utf-8"?>
<!-- Generator: Adobe Illustrator 16.0.0, SVG Export Plug-In . SVG Version: 6.00 Build 0)  -->
<!DOCTYPE svg PUBLIC "-//W3C//DTD SVG 1.1//EN" "http://www.w3.org/Graphics/SVG/1.1/DTD/svg11.dtd">
<svg version="1.1" id="SNOWMAN" xmlns="http://www.w3.org/2000/svg" xmlns:xlink="http://www.w3.org/1999/xlink" x="0px" y="0px"
	 width="64px" height="64px" viewBox="0 0 64 64" enable-background="new 0 0 64 64" xml:space="preserve">
<path fill="#1A171B" d="M51.5,16.833h-9c-0.553,0-1,0.447-1,1v7.629c0,2.69,1.944,4.933,4.5,5.404v21.596c0,0.553,0.447,1,1,1
	s1-0.447,1-1V30.866c2.556-0.472,4.5-2.714,4.5-5.404v-7.629C52.5,17.28,52.053,16.833,51.5,16.833z M50.5,25.462
	c0,1.93-1.57,3.5-3.5,3.5s-3.5-1.57-3.5-3.5v-6.629h1.039v5.064c0,0.553,0.447,1,1,1s1-0.447,1-1v-5.064h1v5.064
	c0,0.553,0.447,1,1,1s1-0.447,1-1v-5.064H50.5V25.462z M36.791,29.462c1.608-1.371,2.57-3.394,2.57-5.601
	c0-1.652-0.557-3.172-1.48-4.4h1.203c0.553,0,1-0.447,1-1s-0.447-1-1-1h-1.5v-6.294c0-0.552-0.447-1-1-1h-9c-0.553,0-1,0.448-1,1
	v6.294h-1.5c-0.553,0-1,0.447-1,1s0.447,1,1,1h1.041c-0.926,1.229-1.486,2.746-1.486,4.4c0,2.217,0.97,4.246,2.561,5.604
	C22.336,31.399,19,36.162,19,41.551c0,7.17,5.832,13.003,13,13.003s13-5.833,13-13.003C45,36.158,41.66,31.393,36.791,29.462z
	 M28.584,12.167h7v5.294h-7V12.167z M32,52.554c-6.065,0-11-4.936-11-11.003c0-5.215,3.69-9.736,8.784-10.777
	c0.349-0.046,0.662-0.274,0.802-0.625c0.203-0.513-0.05-1.095-0.563-1.299c-2.056-0.815-3.384-2.773-3.384-4.988
	c0-1.822,0.918-3.432,2.313-4.4h6.098c1.395,0.969,2.313,2.578,2.313,4.4c0,2.215-1.328,4.173-3.385,4.988
	c-0.071,0.028-0.14,0.064-0.203,0.109c-0.33,0.229-0.489,0.632-0.407,1.025c0.082,0.393,0.392,0.698,0.785,0.776
	C39.278,31.775,43,36.313,43,41.551C43,47.618,38.065,52.554,32,52.554z M28.333,21.5c0-0.553,0.447-1,1-1s1,0.447,1,1s-0.447,1-1,1
	S28.333,22.053,28.333,21.5z M33.667,21.5c0-0.553,0.447-1,1-1s1,0.447,1,1s-0.447,1-1,1S33.667,22.053,33.667,21.5z M32,27.499
	c-2.242-0.044-3.209-1.251-3.524-1.775c-0.284-0.474-0.131-1.088,0.343-1.372c0.475-0.284,1.089-0.131,1.372,0.343
	c0.143,0.238,0.609,0.787,1.873,0.806c1.263-0.019,1.729-0.567,1.872-0.806c0.284-0.474,0.897-0.627,1.372-0.343
	c0.474,0.284,0.627,0.898,0.343,1.372c-0.315,0.524-1.282,1.731-3.524,1.775V27.5L32,27.499z M33.5,40c0,0.829-0.671,1.5-1.5,1.5
	s-1.5-0.671-1.5-1.5s0.671-1.5,1.5-1.5S33.5,39.171,33.5,40z M33.5,34c0,0.829-0.671,1.5-1.5,1.5s-1.5-0.671-1.5-1.5
	s0.671-1.5,1.5-1.5S33.5,33.171,33.5,34z"/>
</svg>
