<?xml version="1.0" encoding="utf-8"?>
<!-- Generator: Adobe Illustrator 16.0.0, SVG Export Plug-In . SVG Version: 6.00 Build 0)  -->
<!DOCTYPE svg PUBLIC "-//W3C//DTD SVG 1.1//EN" "http://www.w3.org/Graphics/SVG/1.1/DTD/svg11.dtd">
<svg version="1.1" id="WREATH" xmlns="http://www.w3.org/2000/svg" xmlns:xlink="http://www.w3.org/1999/xlink" x="0px" y="0px"
	 width="64px" height="64px" viewBox="0 0 64 64" enable-background="new 0 0 64 64" xml:space="preserve">
<path fill="#1A171B" d="M33.472,13.956c0,0.772-0.626,1.398-1.397,1.398c-0.772,0-1.397-0.626-1.397-1.398
	c0-0.771,0.625-1.395,1.397-1.395C32.846,12.562,33.472,13.185,33.472,13.956z M22.28,15.674c-0.771,0-1.397,0.624-1.397,1.395
	c0,0.771,0.626,1.397,1.397,1.397c0.772,0,1.398-0.626,1.398-1.397C23.679,16.298,23.053,15.674,22.28,15.674z M22.28,15.674
	c-0.771,0-1.397,0.624-1.397,1.395c0,0.771,0.626,1.397,1.397,1.397c0.772,0,1.398-0.626,1.398-1.397
	C23.679,16.298,23.053,15.674,22.28,15.674z M16.28,23.927c-0.773,0-1.398,0.624-1.398,1.395c0,0.772,0.625,1.398,1.398,1.398
	c0.771,0,1.396-0.626,1.396-1.398C17.677,24.551,17.052,23.927,16.28,23.927z M16.277,34.173c-0.773,0-1.398,0.623-1.398,1.395
	s0.625,1.397,1.398,1.397c0.772,0,1.397-0.626,1.397-1.397S17.049,34.173,16.277,34.173z M16.28,23.927
	c-0.773,0-1.398,0.624-1.398,1.395c0,0.772,0.625,1.398,1.398,1.398c0.771,0,1.396-0.626,1.396-1.398
	C17.677,24.551,17.052,23.927,16.28,23.927z M22.28,15.674c-0.771,0-1.397,0.624-1.397,1.395c0,0.771,0.626,1.397,1.397,1.397
	c0.772,0,1.398-0.626,1.398-1.397C23.679,16.298,23.053,15.674,22.28,15.674z M41.748,15.693c-0.771,0-1.397,0.624-1.397,1.396
	c0,0.771,0.626,1.397,1.397,1.397c0.773,0,1.398-0.626,1.398-1.397C43.146,16.317,42.521,15.693,41.748,15.693z M47.725,23.962
	c-0.773,0-1.398,0.624-1.398,1.395c0,0.772,0.625,1.398,1.398,1.398c0.771,0,1.397-0.626,1.397-1.398
	C49.122,24.586,48.496,23.962,47.725,23.962z M47.723,34.208c-0.772,0-1.398,0.623-1.398,1.395S46.95,37,47.723,37
	c0.771,0,1.397-0.626,1.397-1.397S48.494,34.208,47.723,34.208z M46.501,45.547c0.004,0.125,0.025,0.234,0.025,0.363
	c0,4.328-2.287,6.615-6.613,6.615c-1.988,0-3.83-0.498-5.485-1.478c-0.611,0.647-1.473,1.058-2.432,1.058
	c-0.96,0-1.821-0.411-2.433-1.059c-1.649,0.976-3.487,1.471-5.475,1.471c-4.328,0-6.615-2.287-6.615-6.615
	c0-0.127,0.021-0.234,0.025-0.357c-3.961-3.809-6.437-9.151-6.437-15.081c0-11.565,9.374-20.938,20.938-20.938
	s20.939,9.373,20.939,20.938C52.939,36.395,50.463,41.737,46.501,45.547L46.501,45.547z M28.645,48.757v-5.693
	c0-0.16,0.025-0.314,0.048-0.469c-1.385-0.854-2.926-1.309-4.604-1.309c-3.191,0-4.615,1.424-4.615,4.616
	c0,3.191,1.424,4.615,4.615,4.615c1.683,0,3.223-0.453,4.602-1.305C28.67,49.063,28.645,48.913,28.645,48.757z M33.348,43.063
	c0-0.743-0.606-1.349-1.352-1.349s-1.352,0.605-1.352,1.349v5.693c0,0.743,0.606,1.349,1.352,1.349s1.352-0.605,1.352-1.349V43.063z
	 M34.428,40.773c1.653-0.981,3.495-1.479,5.485-1.479c0.048,0,0.088,0.009,0.136,0.01c2.404-2.192,3.925-5.338,3.925-8.84
	c0-6.604-5.371-11.976-11.974-11.976S20.026,23.86,20.026,30.464c0,3.498,1.517,6.641,3.917,8.832c-0.021,0-0.04,0.004-0.061,0.005
	c0.071-0.002,0.133-0.015,0.206-0.015c1.985,0,3.825,0.498,5.482,1.479c0.611-0.644,1.469-1.05,2.425-1.05
	C32.955,39.715,33.816,40.125,34.428,40.773z M44.526,45.91c0-3.192-1.423-4.616-4.613-4.616c-1.686,0-3.229,0.455-4.612,1.312
	c0.021,0.151,0.047,0.301,0.047,0.458v5.693c0,0.157-0.025,0.307-0.047,0.458c1.386,0.856,2.93,1.311,4.612,1.311
	C43.104,50.525,44.526,49.102,44.526,45.91z M46.104,43.06c2.996-3.352,4.836-7.757,4.836-12.596
	c0-10.442-8.496-18.938-18.939-18.938c-10.442,0-18.938,8.496-18.938,18.938c0,4.837,1.838,9.242,4.833,12.593
	c0.591-1.736,1.813-2.874,3.602-3.409c-0.003,0.001-0.007,0.001-0.01,0.002c-2.149-2.457-3.461-5.665-3.461-9.186
	c0-7.716,6.256-13.976,13.974-13.976c7.719,0,13.974,6.26,13.974,13.976c0,3.523-1.314,6.733-3.466,9.192
	C44.292,40.191,45.513,41.327,46.104,43.06z"/>
</svg>
