<?xml version="1.0" encoding="utf-8"?>
<!-- Generator: Adobe Illustrator 13.0.2, SVG Export Plug-In . SVG Version: 6.00 Build 14948)  -->
<!DOCTYPE svg PUBLIC "-//W3C//DTD SVG 1.0//EN" "http://www.w3.org/TR/2001/REC-SVG-20010904/DTD/svg10.dtd">
<svg version="1.0" id="Christmas_ball_1_" xmlns="http://www.w3.org/2000/svg" xmlns:xlink="http://www.w3.org/1999/xlink" x="0px"
	 y="0px" width="512px" height="512px" viewBox="0 0 512 512" enable-background="new 0 0 512 512" xml:space="preserve">
<g id="Shape_29">
	<g>
		<path fill="#984F3E" d="M245.879,163.132c-6.292,0-11.379,5.174-11.379,11.6c0,6.388,5.088,11.572,11.379,11.572
			c6.275,0,11.351-5.185,11.351-11.572C257.229,168.306,252.154,163.132,245.879,163.132z M245.879,124.43
			c-6.292,0-11.379,5.185-11.379,11.6c0,6.399,5.088,11.573,11.379,11.573c6.275,0,11.351-5.174,11.351-11.573
			C257.229,129.614,252.154,124.43,245.879,124.43z M245.879,85.725c-6.292,0-11.379,5.201-11.379,11.601
			c0,6.415,5.088,11.586,11.379,11.586c6.275,0,11.351-5.171,11.351-11.586C257.229,90.926,252.154,85.725,245.879,85.725z
			 M245.879,47.051c-6.292,0-11.379,5.174-11.379,11.6c0,6.385,5.088,11.559,11.379,11.559c6.275,0,11.351-5.174,11.351-11.559
			C257.229,52.225,252.154,47.051,245.879,47.051z M245.879,31.521c6.275,0,11.351-5.188,11.351-11.573
			c0-6.429-5.076-11.6-11.351-11.6c-6.292,0-11.379,5.171-11.379,11.6C234.5,26.334,239.587,31.521,245.879,31.521z"/>
	</g>
</g>
<g id="Shape_31">
	<g>
		<ellipse fill-rule="evenodd" clip-rule="evenodd" fill="#FFFFFF" cx="250.326" cy="333.955" rx="167.797" ry="166.861"/>
	</g>
</g>
<g id="Shape_30">
	<g>
		<path fill-rule="evenodd" clip-rule="evenodd" fill="#08AFA6" d="M247.473,364.486c-0.055,6.124,1.156,11.199,2.838,14.068
			c1.835,2.843,3.229,3.752,6.364,3.889c2.712,0,7.102-1.242,12.842-4.938c8.587-5.71,11.432-11.832,11.513-19.089
			c0.181-10.841-8.148-24.938-20.716-36.578C252.11,335.299,247.308,351.851,247.473,364.486z M354.258,376.485
			c3.585,6.539,6.742,7.808,9.367,7.862c3.02,0.11,7.487-2.428,11.104-7.67c3.585-5.103,6.123-12.496,6.123-20.331l-0.165-3.338
			c-1.244-14.924-9.574-28.247-21.49-38.287c-8.122,9.682-12.857,20.854-12.857,33.103
			C346.339,356.514,348.711,366.06,354.258,376.485z M159.25,305.561c14.359-10.924,31.864-18.04,47.863-18.867l1.683-0.055
			c16.579,0.082,34.347,7.779,49.408,18.922c6.095-7.063,13.405-12.883,22.011-16.521c8.512-3.423,17.603-4.938,26.789-4.938
			c17.654,0.027,35.905,5.682,50.977,15.585c14.003-13.074,29.365-21.877,49.271-27.394
			c-22.289-56.667-74.18-98.295-136.605-105.936v-42.911h-53.103v44.689c-62.979,12.222-113.488,59.387-130.538,120.572
			c5.809-2.014,11.859-3.146,17.986-3.091C123.724,285.644,143.032,293.81,159.25,305.561z M140.188,356.982
			c0.027,7.559,2.599,14.87,9.301,22.233c5.968,6.511,12.216,9.602,17.762,9.572c4.692,0,9.575-2.04,14.799-7.833
			c3.781-4.333,5.408-9.048,5.437-14.649c0.18-13.352-10.66-31.394-26.938-45.351l-0.899-0.799
			C147.889,331.105,139.761,344.541,140.188,356.982z M411.309,283.383c-11.148,3.311-21.853,7.862-31.093,13.601
			c-4.803,2.951-9.143,6.206-13.105,9.654c13.439,11.531,22.898,27.061,24.79,45.24c0.181,1.463,0.191,2.981,0.191,4.469
			c-0.317,20.057-11.794,38.429-28.467,39.256c-7.684,0.055-14.831-5.075-19.341-13.819c-6.221-11.809-9.17-23.2-9.17-33.959
			c0.248-15.229,5.877-28.523,15.007-39.696c-12.886-8.111-28.265-12.854-43.117-12.801c-7.919,0-15.587,1.324-22.624,4.193
			c-6.495,2.428-12.381,7.172-17.461,13.132c14.484,13.102,25.216,29.267,25.354,45.764c0.137,10.813-5.421,21.407-16.651,28.497
			c-6.905,4.47-13.061,6.784-18.946,6.784c-6.993,0.141-13.04-3.942-16.086-9.489c-3.156-5.544-4.373-12.301-4.373-19.722
			c0.182-15.338,5.327-34.318,15.296-49.904c-13.586-10.097-29.749-16.771-42.716-16.717l-1.002,0.055
			c-12.595,0.192-27.036,6.125-39.297,14.979c17.378,15.393,30.067,34.73,30.275,53.406c0.054,7.917-2.637,15.778-8.348,22.125
			c-6.676,7.641-14.841,11.642-23.172,11.614c-9.738-0.027-18.705-5.188-26.065-13.187c-8.446-9.131-12.306-19.588-12.267-29.876
			c0.373-16.277,9.012-31.643,21.534-43.861c-14.277-9.877-30.812-16.333-45.463-16.251c-6.895,0.113-15.794,5.684-21.764,8.72
			c-1.572,9.323-2.58,18.813-2.58,28.58c0,93.459,75.764,169.211,169.254,169.211c93.391,0,169.184-75.752,169.184-169.211
			C419.085,316.432,416.354,299.384,411.309,283.383z"/>
	</g>
</g>
</svg>
