<?xml version="1.0" encoding="UTF-8" standalone="no"?>
<!-- Generator: Adobe Illustrator 13.0.2, SVG Export Plug-In . SVG Version: 6.00 Build 14948)  -->

<svg
   xmlns:dc="http://purl.org/dc/elements/1.1/"
   xmlns:cc="http://creativecommons.org/ns#"
   xmlns:rdf="http://www.w3.org/1999/02/22-rdf-syntax-ns#"
   xmlns:svg="http://www.w3.org/2000/svg"
   xmlns="http://www.w3.org/2000/svg"
   xmlns:sodipodi="http://sodipodi.sourceforge.net/DTD/sodipodi-0.dtd"
   xmlns:inkscape="http://www.inkscape.org/namespaces/inkscape"
   version="1.0"
   id="Cookie_1_"
   x="0px"
   y="0px"
   width="512px"
   height="512px"
   viewBox="0 0 512 512"
   enable-background="new 0 0 512 512"
   xml:space="preserve"
   inkscape:version="0.48.4 r9939"
   sodipodi:docname="gingerbread-man-cookie-gray.svg"><metadata
   id="metadata52"><rdf:RDF><cc:Work
       rdf:about=""><dc:format>image/svg+xml</dc:format><dc:type
         rdf:resource="http://purl.org/dc/dcmitype/StillImage" /><dc:title></dc:title></cc:Work></rdf:RDF></metadata><defs
   id="defs50" /><sodipodi:namedview
   pagecolor="#000000"
   bordercolor="#666666"
   borderopacity="1"
   objecttolerance="10"
   gridtolerance="10"
   guidetolerance="10"
   inkscape:pageopacity="0"
   inkscape:pageshadow="2"
   inkscape:window-width="1278"
   inkscape:window-height="1002"
   id="namedview48"
   showgrid="false"
   inkscape:zoom="1.5449219"
   inkscape:cx="256"
   inkscape:cy="256"
   inkscape:window-x="261"
   inkscape:window-y="5"
   inkscape:window-maximized="0"
   inkscape:current-layer="Cookie_1_" />
<g
   id="Shape_174">
	<g
   id="g4">
		<path
   clip-rule="evenodd"
   d="m 409.095,399.344 c -22.627,-2.192 -28.65079,-9.49518 -28.65079,-9.49518 C 363.69621,382.68482 343.29,310.803 343.29,310.803 c -8.957,-25.982 4.07,-41.016 11.146,-46.921 l 7.813,-2.954 72.565,-27.353 c 15.345,-5.783 25.915,-36.332 18.661,-55.568 0,0 -8.381,-43.088 -55.041,-38.292 l -78.161,23.572 c 14.979,-16.479 24.114,-38.356 24.114,-62.369 0,-51.205 -41.52,-92.721 -92.729,-92.721 -51.216,0 -92.721,41.516 -92.721,92.721 0,23.026 8.412,44.066 22.292,60.277 L 110,139.715 c -46.674,-4.796 -55.063,38.292 -55.063,38.292 -7.246,19.236 3.324,49.785 18.676,55.568 l 72.566,27.353 c 0,0 27.207,15.194 15.262,49.875 0,0 -20.43691,72.03873 -37.18591,79.20273 0,0 -5.98509,7.14627 -28.61909,9.33827 -17.533,1.691 -55.042,10.761 -40.699,57.427 0,0 20.334,44.262 56.244,46.663 0,0 33.497,7.176 59.814,-16.767 l 64.618,-45.445 c 0,0 2.391,-0.729 6.005,-1.416 l -0.022,0.206 c 1.016,-0.295 2.077,-0.53 3.145,-0.721 2.331,-0.321 4.916,-0.545 7.62,-0.587 2.712,0.042 5.312,0.266 7.627,0.587 1.068,0.19 2.106,0.426 3.13,0.721 l -0.015,-0.206 c 3.631,0.688 6.014,1.416 6.014,1.416 l 64.596,45.445 c 26.332,23.942 59.829,16.767 59.829,16.767 35.895,-2.401 56.221,-46.663 56.221,-46.663 14.365,-46.667 -23.151,-55.736 -40.668,-57.427 z"
   id="path6"
   inkscape:connector-curvature="0"
   style="fill:#cc904f;fill-rule:evenodd"
   sodipodi:nodetypes="cccccccccssscccccccccccccccccccccccc" />
	</g>
</g>
<g
   id="Shape_175">
	<g
   id="g9">
		<path
   fill="#7B522E"
   d="M254.415,136.684c-18.31,0-33.811-7.776-39.197-18.529c-1.337,2.633-2.076,5.449-2.076,8.382    c0,14.861,18.488,26.903,41.273,26.903c22.806,0,41.28-12.042,41.28-26.903c0-2.933-0.717-5.749-2.046-8.382    C288.239,128.907,272.724,136.684,254.415,136.684z M227.096,85.846c7.604,0,13.782-6.156,13.782-13.746    c0-7.611-6.178-13.782-13.782-13.782c-7.598,0-13.753,6.171-13.753,13.782C213.343,79.689,219.498,85.846,227.096,85.846z     M285.737,85.846c7.604,0,13.775-6.156,13.775-13.746c0-7.611-6.171-13.782-13.775-13.782c-7.598,0-13.753,6.171-13.753,13.782    C271.984,79.689,278.14,85.846,285.737,85.846z"
   id="path11" />
	</g>
</g>
<g
   id="Shape_176">
	<g
   id="g14">
		<path
   clip-rule="evenodd"
   d="m 390.388,404.952 c -0.262,-2.179 -0.11136,-5.67191 -0.49236,-9.75791 -7.84952,-3.16224 -9.45118,-5.33469 -9.45118,-5.33469 -1.359,-0.578 -3.34173,-1.84985 -6.9114,-6.07607 1.173,4.662 1.65294,10.73567 1.65294,10.73567 5.027,18.563 -19.213,18.082 -27.527,19.59 -15.628,2.862 -11.086,13.754 -11.086,13.754 7.903,17.264 -14.844,20.715 -14.844,20.715 -18.443,4.374 -16.688,15.501 -15.052,20.105 l 15.343,10.792 c -1.636,-4.349 -4.049,-15.979 14.934,-20.477 0,0 22.747,-3.478 14.844,-20.703 0,0 -3.967,-8.637 11.071,-13.783 -0.001,10e-4 29.872,-0.492 27.519,-19.56 z"
   id="path16"
   inkscape:connector-curvature="0"
   style="fill:#ffffff;fill-rule:evenodd"
   sodipodi:nodetypes="cccccccccccccc" />
	</g>
</g>
<g
   id="Shape_176_copy">
	<g
   id="g19">
		<path
   clip-rule="evenodd"
   d="m 185.826,446.028 c 0,0 -22.748,-3.452 -14.844,-20.715 0,0 4.542,-10.892 -11.086,-13.753 -8.314,-1.509 -32.555,-1.027 -27.527,-19.591 0,0 1.54818,-7.56495 1.75026,-12.22795 -1.12427,1.41791 -2.82991,4.48367 -4.35173,5.62804 0,0 -3.174,3.96482 -12.34108,8.78776 -0.381,4.086 0.002,6.06715 -0.26045,8.24515 -2.353,19.066 27.52,19.561 27.52,19.561 15.038,5.146 11.071,13.782 11.071,13.782 -7.903,17.227 14.843,20.704 14.843,20.704 18.982,4.497 16.569,16.128 14.933,20.477 l 15.344,-10.792 c 1.637,-4.605 3.392,-15.732 -15.051,-20.106 z"
   id="path21"
   inkscape:connector-curvature="0"
   style="fill:#ffffff;fill-rule:evenodd"
   sodipodi:nodetypes="cccccccccccccc" />
	</g>
</g>
<g
   id="Shape_177">
	<g
   id="g24">
		<path
   clip-rule="evenodd"
   d="m 398.293,238.549 c -18.504,-3.097 -6.17,-32.391 -6.17,-32.391 1.553,-15.415 -7.703,-15.415 -7.703,-15.415 -18.511,0 -12.34,-21.586 -12.34,-21.586 2.3,-11.477 -1.73533,-17.21427 -5.73933,-19.75427 l -23.16016,6.94157 c 3.525,0.022 17.51449,1.8477 13.47949,22.0587 0,0 -6.17,21.593 12.319,21.593 0,0 9.263,0 7.725,15.404 0,0 -12.349,29.313 6.17,32.395 0,0 3.152,1.509 7.247,2.905 l 18.638,-7.019 c -1.681,-7.56 -10.466,-5.132 -10.466,-5.132 z"
   id="path26"
   inkscape:connector-curvature="0"
   style="fill:#ffffff;fill-rule:evenodd"
   sodipodi:nodetypes="ccccccccccccc" />
	</g>
</g>
<g
   id="Shape_177_copy">
	<g
   id="g29">
		<path
   clip-rule="evenodd"
   d="m 168.72973,157.37412 -23.8467,-7.17042 c -4.003,2.54 -6.60903,7.4773 -4.30903,18.9533 0,0 6.171,21.586 -12.34,21.586 0,0 -9.256,0 -7.702,15.415 0,0 12.333,29.294 -6.17,32.391 0,0 -8.90272,-0.77989 -10.58372,6.78011 l 18.10825,6.43039 c 4.094,-1.396 7.89347,-3.9645 7.89347,-3.9645 18.519,-3.082 6.17,-32.395 6.17,-32.395 -1.539,-15.404 7.725,-15.404 7.725,-15.404 18.489,0 12.318,-21.593 12.318,-21.593 -4.035,-20.212 9.21073,-21.00688 12.73673,-21.02888 z"
   id="path31"
   inkscape:connector-curvature="0"
   style="fill:#ffffff;fill-rule:evenodd"
   sodipodi:nodetypes="ccccccccccccc" />
	</g>
</g>
<g
   id="Shape_178">
	<g
   id="g34">
		<path
   fill-rule="evenodd"
   clip-rule="evenodd"
   fill="#E13D34"
   d="M309.777,186.123c0-8.326-46.528,13.273-46.528,13.273h-18.943    c0,0-46.54-21.6-46.54-13.273c0,0-11.599,41.534,3.331,48.174c0,0,9.969,9.99,41.528-11.63h22.285    c31.569,21.62,41.528,11.63,41.528,11.63C321.418,227.657,309.777,186.123,309.777,186.123z"
   id="path36" />
	</g>
</g>
<g
   id="Shape_179">
	<g
   id="g39">
		<path
   fill-rule="evenodd"
   clip-rule="evenodd"
   fill="#FFD131"
   d="M256.346,249.332c-10.915,0-19.759,8.842-19.759,19.747    c0,10.899,8.844,19.727,19.759,19.727c10.906,0,19.721-8.827,19.721-19.727C276.066,258.174,267.252,249.332,256.346,249.332z"
   id="path41" />
	</g>
</g>
<g
   id="Shape_179_copy">
	<g
   id="g44">
		<path
   fill-rule="evenodd"
   clip-rule="evenodd"
   fill="#FFD131"
   d="M256.346,310.528c-10.915,0-19.759,8.842-19.759,19.747    c0,10.899,8.844,19.727,19.759,19.727c10.906,0,19.721-8.827,19.721-19.727C276.066,319.37,267.252,310.528,256.346,310.528z"
   id="path46" />
	</g>
</g>
</svg>