<?xml version="1.0" encoding="utf-8"?>
<!-- Generator: Adobe Illustrator 13.0.2, SVG Export Plug-In . SVG Version: 6.00 Build 14948)  -->
<!DOCTYPE svg PUBLIC "-//W3C//DTD SVG 1.0//EN" "http://www.w3.org/TR/2001/REC-SVG-20010904/DTD/svg10.dtd">
<svg version="1.0" id="holly_leaf_1_" xmlns="http://www.w3.org/2000/svg" xmlns:xlink="http://www.w3.org/1999/xlink" x="0px"
	 y="0px" width="512px" height="512px" viewBox="0 0 512 512" enable-background="new 0 0 512 512" xml:space="preserve">
<g id="Shape_18">
	<g>
		<path fill-rule="evenodd" clip-rule="evenodd" fill="#97C461" d="M478.739,320.994c-21.582,9.209-80.44,19.454-72.747-41.786
			c-7.011,13.372-30.041,36.401-46.104,36.492c-15.144,0.063-22.843-17.472-27.2-29.435c-6.075,10.663-25.979,32.547-41.113,42.297
			c25.272,5.092,77.522,20.042,109.799,41.229c-37.679-14.438-77.439-23.261-119.38-29.297c3.709,25.598-7.103,58.656-18.842,73.839
			c13.858-15.833,41.826-28.136,61.277-15.693c17.862,11.421,17.551,36.787,12.616,56.117c12.566-30.21,71.763-27.967,84.313,0.464
			c11.245-51.66,69.722-46.243,82.676-38.799C477.386,394.368,462.55,347.676,478.739,320.994z"/>
	</g>
</g>
<g id="Shape_19">
	<g>
		<path fill-rule="evenodd" clip-rule="evenodd" fill="#97C461" d="M275.513,221.145c-14.246,6.949-36.421,15.91-49.935,2.586
			c-14.267-14.054-14.848-54.68-9.409-72.709c-46.451,61.441-90.15,0.99-101.471-26.035c-8.72,37.952-62.631,66.8-105.696,63.317
			c18.062,4.658,75.062,50.701,40.147,106.68c35.99-14.486,90.885,35.039,75.809,73.019c12.444-21.56,34.22-44.511,60.104-39.188
			c28.26,5.819,42.577,41.151,41.169,67.354c2.714-23.818,21.858-62.772,47.45-82.396c-42.801-31.154-86.033-57.851-132.247-77.737
			c47.281,9.1,106.991,41.229,134.059,58.671C270.461,272.883,271.715,235.986,275.513,221.145z"/>
	</g>
</g>
<g id="Shape_20">
	<g>
		<path fill-rule="evenodd" clip-rule="evenodd" fill="#97C461" d="M339.648,155.05c1.78-11.22,20.358-24.854,30.472-28.337
			c-43.659-1.176-30.161-41.279-21.373-55.387c-20.435,8.443-51.487-6.894-64.063-27.942c3.815,9.858,1.307,51.366-36.067,53.673
			c18.571,11.824,13.75,53.49-8.699,59.016c14.021-1.347,31.805,1.146,37.857,14.873c6.63,14.965-4.984,33.228-17.535,41.167
			c11.908-6.594,36.175-10.556,53.67-5.217c0.305-30.009-1.639-58.748-7.675-86.64c11.358,24.827,16.211,62.945,17.078,81.208
			c8.434-9.518,25.861-21.125,33.979-24.22C349.398,172.94,337.938,165.637,339.648,155.05z"/>
	</g>
</g>
<g id="Shape_21">
	<g>
		<path fill="#FF675F" d="M363.838,251.455c-10.903-1.424-20.909,6.222-22.378,17.118c-1.455,10.926,6.188,20.924,17.086,22.394
			c10.949,1.454,20.945-6.191,22.424-17.133C382.425,262.955,374.734,252.94,363.838,251.455z M355.698,230.284
			c1.206-9.194-5.229-17.613-14.423-18.819c-9.179-1.285-17.675,5.184-18.904,14.362c-1.202,9.207,5.267,17.658,14.424,18.896
			C346.01,245.961,354.444,239.476,355.698,230.284z M307.611,246.937c-10.939-1.471-20.938,6.189-22.43,17.07
			c-1.402,10.926,6.235,20.97,17.154,22.379c10.894,1.471,20.908-6.206,22.362-17.086
			C326.138,258.389,318.509,248.407,307.611,246.937z"/>
	</g>
</g>
</svg>
