<?xml version="1.0" encoding="utf-8"?>
<!-- Generator: Adobe Illustrator 13.0.2, SVG Export Plug-In . SVG Version: 6.00 Build 14948)  -->
<!DOCTYPE svg PUBLIC "-//W3C//DTD SVG 1.0//EN" "http://www.w3.org/TR/2001/REC-SVG-20010904/DTD/svg10.dtd">
<svg version="1.0" id="Santa_1_" xmlns="http://www.w3.org/2000/svg" xmlns:xlink="http://www.w3.org/1999/xlink" x="0px" y="0px"
	 width="512px" height="512px" viewBox="0 0 512 512" enable-background="new 0 0 512 512" xml:space="preserve">
<g id="Shape_1">
	<g>
		<path fill-rule="evenodd" clip-rule="evenodd" fill="#FF675F" d="M354.012,25.14C247.469-3.93,133.65,73.114,99.788,197.22
			c0,0-7.174,27.785-20.015,61.544c26.956,0.242,46.18-27.906,74.55-32.269c11.026,0,22.045-1.845,31.487,2.338
			c29.92-48.152,71.439-81.96,132.789-81.96c84.581,0,155.03,60.405,170.64,140.422C514.525,168.406,456.201,53.021,354.012,25.14z"
			/>
	</g>
</g>
<g id="Shape_4">
	<g>
		<path fill-rule="evenodd" clip-rule="evenodd" fill="#FCD9D0" d="M311.586,142.856c-96.045,0-173.896,77.855-173.896,173.893
			c0,96.038,77.85,173.896,173.896,173.896c96.032,0,173.893-77.857,173.893-173.896
			C485.479,220.712,407.618,142.856,311.586,142.856z"/>
	</g>
</g>
<g id="Shape_8">
	<g>
		<path fill-rule="evenodd" clip-rule="evenodd" fill="#F8B0BA" d="M389.368,254.353c-16.694,0-30.222,13.525-30.222,30.216
			c0,16.688,13.527,30.212,30.222,30.212c16.681,0,30.208-13.524,30.208-30.212C419.576,267.878,406.049,254.353,389.368,254.353z"
			/>
	</g>
</g>
<g id="Shape_8_copy">
	<g>
		<path fill-rule="evenodd" clip-rule="evenodd" fill="#F8B0BA" d="M233.814,254.353c-16.694,0-30.222,13.525-30.222,30.216
			c0,16.688,13.528,30.212,30.222,30.212c16.681,0,30.209-13.524,30.209-30.212C264.023,267.878,250.495,254.353,233.814,254.353z"
			/>
	</g>
</g>
<g id="Shape_2">
	<g>
		<path fill-rule="evenodd" clip-rule="evenodd" fill="#FFFFFF" d="M487.361,283.15c-1.6-10.969-4.644-23.316-9.793-36.296
			c-5.148-12.969-12.61-26.4-22.398-39.427c-4.924-6.482-10.479-12.814-16.629-18.851c-6.042-6.167-12.936-11.737-20.19-17.092
			c-14.536-10.695-31.432-19.422-49.624-25.398c-9.096-3.013-18.535-5.201-28.108-6.789l-7.215-1.003
			c-2.366-0.365-5.084-0.478-7.611-0.701l-3.866-0.287c-1.338-0.105-2.208-0.085-3.337-0.133l-6.396-0.184l-7.923,0.196
			c-2.431,0.035-4.855,0.238-7.281,0.435c-4.855,0.287-9.675,1.021-14.476,1.696c-4.774,0.845-9.557,1.636-14.222,2.882
			c-2.339,0.596-4.688,1.138-7.001,1.802c-2.294,0.709-4.586,1.416-6.875,2.129c-18.185,5.985-35.083,14.698-49.601,25.41
			c-7.263,5.336-14.133,10.931-20.178,17.092c-6.145,6.036-11.713,12.348-16.613,18.845c-9.795,13.019-17.254,26.45-22.399,39.408
			c-5.154,12.971-8.203,25.312-9.811,36.282c-1.65,10.971-1.802,20.575-1.424,28.366c0.107,1.942,0.212,3.777,0.309,5.511
			c0.157,1.734,0.388,3.371,0.561,4.87c0.33,3.013,0.705,5.511,1.14,7.514c0.833,4.021,1.272,6.165,1.272,6.165
			s0.555-2.117,1.583-6.099c0.447-2.005,1.163-4.427,1.974-7.193c0.765-2.777,1.769-5.934,2.952-9.448
			c2.37-6.996,5.445-15.309,9.85-24.261c4.343-8.957,9.835-18.603,16.734-28.242c6.841-9.664,15.264-19.212,24.907-28.174
			c4.94-4.372,9.961-8.84,15.571-12.764c2.716-2.068,5.66-3.875,8.486-5.863c1.446-0.952,2.952-1.825,4.429-2.747
			c1.469-0.935,2.973-1.823,4.531-2.638c12.252-6.832,25.586-12.345,39.569-16.095c6.98-1.92,14.164-3.173,21.385-4.229
			c3.631-0.416,7.264-0.841,10.928-1.022c1.825-0.135,3.647-0.291,5.489-0.278l2.753-0.057l1.38-0.03l0.687-0.014l0.343-0.011
			l0.173-0.003c-0.07-0.002-0.023-0.002,0.035-0.003l5.91,0.131c1.003,0.034,2.273,0.015,3.059,0.094l2.513,0.201
			c1.718,0.159,3.266,0.169,5.125,0.403l5.448,0.61c7.213,1.069,14.396,2.316,21.374,4.253c13.973,3.76,27.313,9.253,39.546,16.107
			c1.559,0.812,3.062,1.7,4.528,2.635c1.478,0.922,2.991,1.789,4.432,2.744c2.829,1.979,5.751,3.816,8.479,5.865
			c5.604,3.929,10.636,8.374,15.557,12.76c4.877,4.435,9.338,9.104,13.494,13.818c2.158,2.304,4.005,4.782,6.003,7.116
			c1.839,2.456,3.644,4.866,5.411,7.224c6.904,9.628,12.398,19.271,16.746,28.225c4.411,8.941,7.491,17.254,9.869,24.246
			c1.191,3.503,2.192,6.684,2.962,9.481c0.817,2.796,1.532,5.204,1.982,7.175c1.038,3.967,1.593,6.082,1.593,6.082
			s0.442-2.149,1.278-6.18c0.445-2.034,0.814-4.553,1.149-7.539c0.173-1.492,0.409-3.11,0.571-4.835
			c0.097-1.729,0.201-3.563,0.314-5.508C489.158,303.735,489.009,294.123,487.361,283.15z"/>
	</g>
</g>
<g id="Shape_5">
	<g>
		<path fill="#FFFFFF" d="M500.824,323.641c-22.896-28.21-57.833-46.25-96.994-46.25c-35.647,0-67.794,14.956-90.545,38.922h-8.767
			c-22.75-23.966-54.897-38.922-90.552-38.922c-39.156,0-74.095,18.04-96.986,46.25c7.212,8.887,15.622,16.762,24.98,23.384
			c14.503,81.391,85.626,143.184,171.191,143.184c88.191,0,161.05-65.667,172.359-150.774
			C491.063,334.626,496.193,329.346,500.824,323.641z"/>
	</g>
</g>
<g id="Shape_3">
	<g>
		<path fill-rule="evenodd" clip-rule="evenodd" fill="#FAEFF1" d="M56.804,210.826c-28.879,0-52.292,23.408-52.292,52.287
			s23.412,52.282,52.292,52.282c28.875,0,52.28-23.403,52.28-52.282S85.679,210.826,56.804,210.826z"/>
	</g>
</g>
<g id="Shape_7">
	<g>
		<path fill-rule="evenodd" clip-rule="evenodd" fill="#F27EA0" d="M311.588,282.422c-13.033,0-23.604,10.563-23.604,23.602
			s10.571,23.599,23.604,23.599c13.036,0,23.598-10.561,23.598-23.599S324.624,282.422,311.588,282.422z"/>
	</g>
</g>
<g id="Shape_9">
	<g>
		<path fill-rule="evenodd" clip-rule="evenodd" fill="#F27EA0" d="M326.811,353.44c-0.442,0.442-1.087,0.838-1.705,1.248
			c-0.6,0.433-1.31,0.845-2.132,1.273c-0.744,0.486-1.642,0.842-2.52,1.241c-0.864,0.414-1.857,0.665-2.789,0.995
			c-0.995,0.211-1.957,0.514-2.989,0.601c-0.997,0.226-2.048,0.147-3.074,0.253c-0.605-0.068-2.722-0.077-3.234-0.273
			c-0.443-0.11-0.852-0.058-1.35-0.206c-0.489-0.132-0.974-0.266-1.475-0.357c-0.939-0.312-1.922-0.581-2.797-0.978
			c-0.875-0.398-1.778-0.744-2.522-1.228c-0.814-0.411-1.556-0.845-2.174-1.304c-0.639-0.441-1.27-0.816-1.691-1.212
			c-0.917-0.742-1.562-1.187-1.562-1.187s-0.01,0.713,0.179,1.993c0.068,0.658,0.259,1.414,0.604,2.245
			c0.165,0.429,0.341,0.888,0.527,1.371c0.235,0.453,0.528,0.9,0.821,1.393c0.568,1.012,1.399,1.927,2.34,2.887
			c0.938,0.944,2.113,1.771,3.376,2.539c1.307,0.676,2.676,1.382,4.418,1.737l1.26,0.307c0.422,0.104,0.679,0.092,1.026,0.134
			l0.982,0.091l0.492,0.044l0.247,0.023l0.123,0.011l0.06,0.007l0.33,0.011l0.039-0.003c1.593-0.153,3.211-0.164,4.717-0.684
			c1.543-0.337,2.937-1.044,4.246-1.728c1.252-0.787,2.434-1.601,3.36-2.562c0.938-0.958,1.757-1.883,2.323-2.894
			c0.293-0.495,0.587-0.937,0.817-1.4c0.193-0.498,0.377-0.971,0.55-1.416c0.364-0.863,0.531-1.607,0.576-2.218
			c0.154-1.228,0.16-1.973,0.16-1.973S327.751,352.638,326.811,353.44z"/>
	</g>
</g>
<g id="Shape_6">
	<g>
		<path fill-rule="evenodd" clip-rule="evenodd" fill="#424055" d="M349.136,240.081c-3.834,0-6.94,3.106-6.94,6.94
			c0,3.828,3.106,6.936,6.94,6.936c3.829,0,6.933-3.107,6.933-6.936C356.068,243.188,352.965,240.081,349.136,240.081z"/>
	</g>
</g>
<g id="Shape_10">
	<g>
		<path fill-rule="evenodd" clip-rule="evenodd" fill="#FFFFFF" d="M370.606,224.376c-0.401-0.511-0.889-1.159-1.517-1.83
			c-0.584-0.755-1.44-1.284-2.342-1.986c-0.948-0.62-1.878-1.463-3.156-1.966c-1.254-0.534-2.632-1.067-4.094-1.545
			c-1.388-0.389-2.611-0.526-3.978-0.727l-1.006-0.137l-0.255-0.034l-0.063-0.009l-0.031-0.004l-0.358-0.018l-0.145,0.005
			l-0.576,0.018l-2.323,0.091c-1.537,0.166-3.077,0.439-4.544,0.842c-1.454,0.471-2.889,0.909-4.159,1.623
			c-1.313,0.605-2.483,1.365-3.528,2.164c-1.084,0.729-1.945,1.65-2.747,2.44c-0.81,0.754-1.414,1.722-1.957,2.445
			c-0.578,0.728-0.893,1.432-1.165,2.009c-0.548,1.157-0.796,1.884-0.796,1.884s0.733-0.227,1.906-0.74
			c0.573-0.273,1.31-0.577,2.072-0.846c0.801-0.269,1.561-0.625,2.535-0.903c0.945-0.29,1.883-0.698,2.949-0.943
			c1.029-0.324,2.103-0.616,3.224-0.849c1.092-0.322,2.266-0.428,3.405-0.688c1.165-0.148,2.339-0.337,3.52-0.426l1.778-0.127
			l0.443-0.035l0.109-0.011c-0.162-0.007-0.254-0.011-0.303-0.013h0.007l0.034,0.001l0.063,0.001l0.254,0.008l1.017,0.03
			c1.313,0.077,2.764-0.028,3.893,0.047c1.031,0.146,2.061,0.214,3.09,0.252c1.035-0.016,2.043,0.339,3.015,0.431
			c0.945,0.188,1.954,0.146,2.716,0.408c0.781,0.221,1.524,0.35,2.138,0.479c1.233,0.246,2.029,0.335,2.029,0.335
			S371.399,225.409,370.606,224.376z M353.498,224.061h0.003C353.525,224.062,353.542,224.063,353.498,224.061z"/>
	</g>
</g>
<g id="Shape_6_copy">
	<g>
		<path fill-rule="evenodd" clip-rule="evenodd" fill="#424055" d="M276.715,240.081c-3.829,0-6.933,3.106-6.933,6.94
			c0,3.828,3.104,6.936,6.933,6.936c3.834,0,6.94-3.107,6.94-6.936C283.655,243.188,280.549,240.081,276.715,240.081z"/>
	</g>
</g>
<g id="Shape_10_copy">
	<g>
		<path fill-rule="evenodd" clip-rule="evenodd" fill="#FFFFFF" d="M293.188,227.758c-0.272-0.577-0.587-1.281-1.165-2.009
			c-0.542-0.724-1.147-1.691-1.957-2.445c-0.801-0.79-1.663-1.711-2.747-2.44c-1.045-0.799-2.216-1.559-3.528-2.164
			c-1.27-0.714-2.705-1.152-4.158-1.623c-1.468-0.402-3.007-0.676-4.545-0.842l-2.322-0.091l-0.577-0.018l-0.144-0.005l-0.359,0.018
			l-0.031,0.004l-0.063,0.009l-0.254,0.034l-1.006,0.137c-1.367,0.2-2.591,0.338-3.979,0.727c-1.462,0.478-2.839,1.011-4.094,1.545
			c-1.278,0.503-2.208,1.346-3.156,1.966c-0.9,0.702-1.757,1.231-2.341,1.986c-0.629,0.671-1.116,1.319-1.517,1.83
			c-0.793,1.033-1.155,1.676-1.155,1.676s0.796-0.089,2.03-0.335c0.613-0.129,1.357-0.258,2.137-0.479
			c0.762-0.263,1.771-0.22,2.716-0.408c0.972-0.092,1.98-0.446,3.015-0.431c1.029-0.038,2.059-0.106,3.091-0.252
			c1.129-0.075,2.579,0.03,3.892-0.047l1.017-0.03l0.254-0.008l0.063-0.001l0.034-0.001h0.007c-0.049,0.002-0.141,0.006-0.303,0.013
			l0.11,0.011l0.442,0.035l1.778,0.127c1.182,0.089,2.354,0.277,3.521,0.426c1.139,0.261,2.313,0.366,3.404,0.688
			c1.121,0.232,2.195,0.524,3.225,0.849c1.065,0.245,2.003,0.653,2.949,0.943c0.974,0.278,1.733,0.635,2.535,0.903
			c0.762,0.269,1.498,0.572,2.071,0.846c1.173,0.514,1.907,0.74,1.907,0.74S293.735,228.915,293.188,227.758z M272.35,224.061h0.003
			C272.309,224.063,272.325,224.062,272.35,224.061z"/>
	</g>
</g>
</svg>
