<?xml version="1.0" encoding="utf-8"?>
<!-- Generator: Adobe Illustrator 13.0.2, SVG Export Plug-In . SVG Version: 6.00 Build 14948)  -->
<!DOCTYPE svg PUBLIC "-//W3C//DTD SVG 1.0//EN" "http://www.w3.org/TR/2001/REC-SVG-20010904/DTD/svg10.dtd">
<svg version="1.0" id="Snowflake_1_" xmlns="http://www.w3.org/2000/svg" xmlns:xlink="http://www.w3.org/1999/xlink" x="0px"
	 y="0px" width="512px" height="512px" viewBox="0 0 512 512" enable-background="new 0 0 512 512" xml:space="preserve">
<g id="Shape_17">
	<g>
		<path fill="#70D8E4" d="M504.021,212.76c-2.205-12.74-14.273-21.292-26.989-19.084c-10.769,1.852-18.55,10.714-19.397,21.112
			l-28.753,4.964c-9.092,1.547-12.229-3.329-7.017-10.938c0,0,6.706-9.71,14.948-21.671c8.215-11.975,9.403-18.156,6.438-20.337
			c-2.88-2.144-10.543,3.083-20.824,18.046l-18.651,27.112c-5.255,7.557-16.825,14.978-25.913,16.513l-24.961,4.311
			c-9.088,1.55-12.256-3.365-7.026-10.949l30.883-45.382c11.518,2.125,23.244-4.248,27.446-15.591
			c4.661-12.714-1.814-26.856-14.53-31.517c-12.699-4.729-26.829,1.763-31.49,14.506c-1.069,2.881-1.556,5.834-1.529,8.735
			l-50.271,22.12c-8.435,3.703-12.689-0.294-9.483-8.942l8.766-23.773c3.195-8.592,12.582-18.68,21.028-22.451
			c0,0,13.416-5.993,30.023-13.387c16.563-7.396,23.659-13.578,22.209-16.931c-1.429-3.339-8.247-3.69-21.658,2.291l-24.244,10.8
			c-8.418,3.76-12.619-0.215-9.456-8.863l10.35-27.999c9.833,0.323,19.21-5.611,22.8-15.302c4.458-12.108-1.756-25.55-13.852-30.008
			c-12.133-4.498-25.603,1.67-30.087,13.778c-3.744,10.238,0.066,21.424,8.605,27.374l-10.072,27.361
			c-3.179,8.689-8.958,8.973-12.93,0.648c0,0-5.063-10.666-11.33-23.8c-6.208-13.104-11.014-17.212-14.343-15.759
			c-3.366,1.456-2.627,10.695,5.148,27.085l14.166,29.7c3.934,8.309,4.538,22.033,1.387,30.683L284.603,161
			c-3.205,8.661-8.97,8.959-12.983,0.621l-22.993-47.679c2.298-2.375,4.152-5.249,5.364-8.54c4.688-12.716-1.831-26.842-14.53-31.53
			c-12.678-4.661-26.792,1.86-31.506,14.533c-3.972,10.758,0.081,22.527,9.167,28.735l-6.068,55.12
			c-0.995,9.16-6.599,10.816-12.486,3.73l-16.2-19.488c-5.876-7.057-9.848-20.217-8.921-29.4c0,0,1.552-14.629,3.452-32.703
			c1.857-18.048,0.081-27.288-3.559-27.679c-3.596-0.444-7.354,5.279-8.874,19.853l-2.777,26.414
			c-0.926,9.13-6.502,10.826-12.347,3.77l-19.114-23.015c5.206-8.341,4.756-19.388-1.816-27.345
			c-8.295-9.925-23.034-11.271-32.956-3.016c-9.981,8.269-11.314,23.019-3.045,32.93c6.958,8.405,18.567,10.636,27.981,6.174
			l18.66,22.487c5.897,7.087,3.232,12.246-5.952,11.518c0,0-11.746-0.972-26.224-2.101c-14.465-1.132-20.486,0.956-20.85,4.565
			c-0.391,3.623,7.932,7.61,26.037,9.036l32.807,2.602c9.157,0.738,21.39,7.109,27.272,14.169l16.216,19.488
			c5.85,7.109,3.195,12.296-5.988,11.584l-52.802-3.943c-0.907-3.177-2.468-6.224-4.714-8.934
			c-8.643-10.411-24.104-11.827-34.529-3.165c-10.441,8.673-11.828,24.123-3.179,34.532c7.328,8.812,19.52,11.176,29.405,6.462
			l44.723,32.812c7.439,5.416,6.134,11.073-2.949,12.663l-24.998,4.268c-9.061,1.603-22.478-1.536-29.954-6.949
			c0,0-11.865-8.646-26.572-19.328c-14.706-10.653-23.612-13.711-25.752-10.773c-2.194,2.949,0.878,9.037,12.78,17.589
			l21.429,15.624c7.503,5.414,6.144,11.071-2.906,12.634l-29.439,5.028c-4.622-8.67-14.438-13.855-24.667-12.128
			c-12.684,2.21-21.236,14.306-19.031,27.045c2.146,12.729,14.278,21.296,26.994,19.088c10.72-1.843,18.515-10.739,19.372-21.122
			l28.763-4.955c9.065-1.495,12.229,3.326,7.005,10.896c0,0-6.695,9.765-14.938,21.699c-8.214,11.985-9.403,18.236-6.464,20.35
			c2.949,2.141,10.575-3.099,20.877-18.062l18.651-27.086c5.229-7.567,16.799-14.964,25.886-16.526l24.961-4.269
			c9.077-1.575,12.202,3.327,7.028,10.91l-29.791,43.777c-3.215-0.806-6.646-0.977-10.128-0.382
			c-13.321,2.276-22.274,14.977-19.963,28.351c2.265,13.334,14.938,22.264,28.311,19.989c11.3-1.94,19.474-11.326,20.298-22.274
			l50.779-22.336c8.419-3.703,12.647,0.297,9.483,8.93l-8.808,23.8c-3.169,8.621-12.566,18.67-20.985,22.44
			c0,0-13.454,5.993-30.034,13.4c-16.569,7.381-23.666,13.548-22.253,16.904c1.456,3.353,8.285,3.716,21.669-2.225l24.26-10.829
			c8.392-3.797,12.631,0.203,9.467,8.81l-10.358,28.033c-9.835-0.345-19.213,5.574-22.812,15.281
			c-4.475,12.162,1.76,25.565,13.881,30.077c12.123,4.458,25.567-1.739,30.051-13.831c3.762-10.24-0.072-21.45-8.637-27.389
			l10.104-27.377c3.222-8.633,8.996-8.916,12.956-0.632c0,0,5.063,10.666,11.288,23.783c6.251,13.134,11.057,17.268,14.385,15.786
			c3.356-1.453,2.628-10.707-5.159-27.087l-14.155-29.709c-3.934-8.285-4.565-22.037-1.402-30.669l8.825-23.76
			c3.152-8.659,8.981-8.97,12.967-0.645l22.997,47.689c-2.308,2.376-4.171,5.254-5.389,8.555
			c-4.661,12.714,1.857,26.802,14.546,31.49c12.711,4.673,26.813-1.819,31.501-14.52c3.972-10.771-0.083-22.517-9.146-28.722
			l6.02-55.106c1.065-9.146,6.626-10.829,12.513-3.759l16.189,19.476c5.887,7.059,9.885,20.271,8.943,29.401
			c0,0-1.537,14.641-3.437,32.703c-1.867,18.075-0.08,27.286,3.543,27.719c3.586,0.432,7.38-5.295,8.879-19.882l2.745-26.397
			c0.958-9.16,6.546-10.843,12.379-3.743l19.124,22.963c-5.205,8.347-4.771,19.395,1.845,27.341
			c8.284,9.941,23.034,11.313,32.919,3.072c9.98-8.258,11.303-23.031,3.072-32.985c-6.99-8.363-18.602-10.621-28-6.179
			l-18.685-22.483c-5.86-7.07-3.217-12.202,5.957-11.527c0,0,11.741,0.969,26.245,2.141c14.439,1.118,20.449-0.955,20.84-4.579
			c0.374-3.623-7.937-7.623-26.01-9.039l-32.796-2.599c-9.184-0.768-21.402-7.096-27.315-14.183l-16.2-19.475
			c-5.877-7.112-3.195-12.255,5.967-11.57l52.794,3.935c0.905,3.177,2.466,6.223,4.717,8.928
			c8.713,10.413,24.148,11.799,34.546,3.166c10.426-8.675,11.854-24.109,3.206-34.535c-7.354-8.847-19.563-11.188-29.455-6.458
			l-44.704-32.789c-7.418-5.4-6.086-11.097,2.976-12.713l24.96-4.244c9.087-1.574,22.531,1.563,29.98,6.965
			c0,0,11.876,8.633,26.571,19.313c14.708,10.642,23.569,13.711,25.77,10.776c2.178-2.869-0.921-8.983-12.77-17.617l-21.509-15.597
			c-7.477-5.373-6.117-11.057,2.976-12.593l29.41-5.042c4.61,8.677,14.41,13.825,24.627,12.085
			C497.637,237.598,506.231,225.502,504.021,212.76z M300.043,191.871l60.336-26.532c1.21,1.94,2.693,3.715,4.421,5.265
			l-36.987,54.304c-4.262,6.279-12.866,12.404-20.836,15.252c-3.954-13.037-12.833-24.433-25.305-31.29
			C285.988,201.776,293.317,194.803,300.043,191.871z M242.773,291.081c-19.614-7.273-29.633-28.959-22.43-48.608
			c7.29-19.598,29.029-29.576,48.653-22.412c19.621,7.272,29.602,29.012,22.382,48.663
			C284.095,288.279,262.408,298.313,242.773,291.081z M268.212,203.688c-14.078-3.364-28.488-0.755-40.237,6.44
			c-3.777-7.217-6-16.698-5.208-23.805l7.104-64.907c2.502,0.114,4.978-0.165,7.35-0.792l28.056,58.155
			C268.458,185.431,269.522,195.496,268.212,203.688z M126.649,211.857c1.351-2.112,2.348-4.394,2.992-6.759l64.415,4.833
			c7.165,0.494,16.146,4.449,22.554,9.519c-4.592,4.978-8.313,10.909-10.807,17.649c-2.526,6.853-3.555,13.89-3.26,20.756
			c-8.136-0.333-17.456-3.174-23.237-7.368L126.649,211.857z M213.193,320.173l-59.809,26.3c-1.152-2.225-2.629-4.23-4.357-5.971
			l36.353-53.382c4.098-5.995,12.137-11.875,19.803-14.864c4.292,13.04,13.545,24.313,26.396,30.861
			C227.288,310.212,219.922,317.202,213.193,320.173z M245.072,307.875c13.9,2.892,28.007,0.036,39.465-7.239
			c4.189,7.353,6.737,17.563,5.889,25.074l-7.106,64.932c-2.494-0.107-4.963,0.172-7.329,0.798l-28.084-58.176
			C244.687,326.478,243.639,316.148,245.072,307.875z M386.556,300.163c-1.351,2.112-2.35,4.397-2.995,6.768l-64.422-4.833
			c-7.61-0.547-17.358-4.987-23.81-10.521c4.513-4.943,8.175-10.814,10.638-17.48c2.429-6.584,3.463-13.338,3.279-19.948
			c8.445,0.027,18.543,2.945,24.651,7.409L386.556,300.163z"/>
	</g>
</g>
</svg>
