<?xml version="1.0" encoding="utf-8"?>
<!-- Generator: Adobe Illustrator 13.0.2, SVG Export Plug-In . SVG Version: 6.00 Build 14948)  -->
<!DOCTYPE svg PUBLIC "-//W3C//DTD SVG 1.0//EN" "http://www.w3.org/TR/2001/REC-SVG-20010904/DTD/svg10.dtd">
<svg version="1.0" id="toffee_1_" xmlns="http://www.w3.org/2000/svg" xmlns:xlink="http://www.w3.org/1999/xlink" x="0px" y="0px"
	 width="512px" height="512px" viewBox="0 0 512 512" enable-background="new 0 0 512 512" xml:space="preserve">
<g id="Shape_165">
	<g>
		<path fill-rule="evenodd" clip-rule="evenodd" fill="#FFAD65" d="M396.695,189.759l-47.585-66.462
			c-10.372-14.486-22.344-18.828-36.33-7.479L107.913,282.054c-13.449,10.913-15.362,30.728-4.371,44.2l50.451,61.834
			c10.584,12.972,23.799,17.936,36.986,7.45L396.241,229.93C409.94,219.038,406.674,203.696,396.695,189.759z"/>
	</g>
</g>
<g id="Shape_160">
	<g>
		<path fill="#FA4A73" d="M103.217,285.718c-10.639,8.627-12.279,24.213-3.688,34.853l57.918,71.639
			c5.693,7.016,14.388,10.023,22.701,8.86c0.99-25.381,1.209-94.35-19.967-161.394L103.217,285.718z M188.618,216.674
			c21.557,60.369,26.062,122.727,26.334,160.909l33.38-27c1.025-20.44,2.878-94.491-19.781-166.228L188.618,216.674z
			 M349.357,118.55c-5.658-7.053-14.391-10.044-22.722-8.897c20.443,59.304,24.767,119.887,25.056,157.34l51.912-41.99
			c10.639-8.626,12.297-24.212,3.689-34.834L349.357,118.55z M257.006,161.351c21.54,60.426,26.046,122.764,26.297,160.908
			l33.384-26.962c1.06-20.461,2.895-94.491-19.765-166.212L257.006,161.351z M112.807,344.644
			c-4.052-5.019-10.96-6.137-15.407-2.551c-4.461,3.64-4.8,10.604-0.768,15.586l25.897,32.041c4.07,4.996,10.926,6.139,15.406,2.497
			c4.464-3.587,4.801-10.567,0.751-15.528L112.807,344.644z M93.613,364.155l-80.532,0.925l0.02,0.034c0,0-8.577,6.527-1.042,16.373
			c7.591,9.863,16.706,3.76,16.706,3.76s0.181-0.077,0.449-0.209c1.785-0.675,8.647-2.515,15.779,6.303
			c8.271,10.212,3,16.739,3,16.739s-0.052,0.073-0.07,0.11c-0.426,0.426-5.147,5.545-0.401,14.069
			c0.323,0.629,0.828,1.236,1.242,1.882c0.537,0.514,1.059,1.155,1.56,1.601c7.372,6.45,13.362,2.888,13.863,2.567
			c0.053-0.039,0.125-0.075,0.125-0.075s7.476-3.761,15.729,6.449c7.151,8.818,3.91,15.138,2.874,16.761
			c-0.177,0.241-0.301,0.369-0.301,0.369s-7.844,7.675,0.192,17.127c8.036,9.453,16.24,2.443,16.24,2.443l0-0.034l17.759-78.524
			L93.613,364.155z M390.965,122.108c-4.051-4.962-10.925-6.101-15.388-2.499c-4.464,3.586-4.801,10.569-0.786,15.569l25.915,32.042
			c4.052,5.018,10.926,6.102,15.406,2.517c4.463-3.604,4.801-10.587,0.749-15.586L390.965,122.108z M501.416,130.342
			c-7.554-9.828-16.668-3.725-16.668-3.725s-0.197,0.06-0.469,0.175c-1.783,0.693-8.628,2.513-15.76-6.269
			c-8.27-10.21-2.999-16.739-2.999-16.739s0.033-0.108,0.07-0.108c0.426-0.43,5.128-5.564,0.399-14.125
			c-0.34-0.575-0.826-1.22-1.24-1.865c-0.538-0.514-1.06-1.157-1.56-1.563c-7.372-6.452-13.363-2.906-13.882-2.566
			c-0.034,0.018-0.106,0.056-0.106,0.056s-7.476,3.778-15.729-6.47c-7.152-8.834-3.928-15.1-2.873-16.721
			c0.177-0.241,0.281-0.425,0.281-0.425s7.863-7.655-0.174-17.11c-8.035-9.416-16.238-2.424-16.238-2.424v0.035l-17.759,78.542
			l23.171,28.669l80.549-0.961l-0.019-0.034C500.412,146.714,508.989,140.223,501.416,130.342z"/>
	</g>
</g>
</svg>
