<?xml version="1.0" encoding="utf-8"?>
<!-- Generator: Adobe Illustrator 13.0.2, SVG Export Plug-In . SVG Version: 6.00 Build 14948)  -->
<!DOCTYPE svg PUBLIC "-//W3C//DTD SVG 1.0//EN" "http://www.w3.org/TR/2001/REC-SVG-20010904/DTD/svg10.dtd">
<svg version="1.0" id="x-mas_1_" xmlns="http://www.w3.org/2000/svg" xmlns:xlink="http://www.w3.org/1999/xlink" x="0px" y="0px"
	 width="512px" height="512px" viewBox="0 0 512 512" enable-background="new 0 0 512 512" xml:space="preserve">
<g id="Shape_164">
	<g>
		<circle fill-rule="evenodd" clip-rule="evenodd" fill="#D4463E" cx="256.317" cy="260.201" r="165.336"/>
	</g>
</g>
<g id="Shape_159_copy">
	<g>
		<path fill="#14A891" d="M487.07,279.107l16.938-14.935l-15.902-16.015l14.803-17.068l-17.909-13.766l12.36-18.879l-19.558-11.257
			l9.754-20.369l-20.885-8.526l6.925-21.467l-21.841-5.711l4.044-22.229l-22.421-2.718l1.035-22.55l-22.584,0.308l-1.989-22.503
			l-22.341,3.299l-4.949-22.033l-21.711,6.244l-7.846-21.177l-20.659,9.108l-10.629-19.93l-19.282,11.745l-13.153-18.33
			l-17.52,14.205L256.236,8.135l-15.498,16.421l-17.537-14.205l-13.152,18.362l-19.284-11.745l-10.612,19.932l-20.659-9.077
			l-7.845,21.208l-21.695-6.242l-4.933,22.032l-22.357-3.268l-1.974,22.503l-22.584-0.31l1.052,22.553l-22.405,2.751l4.027,22.212
			l-21.822,5.678l6.956,21.482l-20.886,8.576l9.755,20.333l-19.559,11.276l12.392,18.88L9.725,231.253l14.803,17.068L8.625,264.337
			l16.954,14.932l-13.621,18.021l18.766,12.522l-11.083,19.654l20.303,9.949l-8.364,20.95l21.403,7.134l-5.516,21.904l22.196,4.224
			l-2.542,22.404l22.569,1.229l0.452,22.565l22.503-1.795l3.479,22.311l22.065-4.773l6.439,21.63l21.224-7.685l9.27,20.61
			l20.011-10.451l11.906,19.186l18.459-13.021l14.349,17.407l16.566-15.336l16.534,15.336l14.364-17.407l18.459,12.958
			l11.905-19.152l20.028,10.417l9.238-20.61l21.225,7.685l6.406-21.661l22.066,4.787l3.494-22.339l22.486,1.778l0.469-22.552
			l22.536-1.229l-2.525-22.437l22.148-4.239l-5.501-21.902l21.419-7.138l-8.381-20.948l20.255-9.935l-11.097-19.654l18.749-12.57
			L487.07,279.107z M256.236,95.38c72.716,0,134.094,48.354,153.878,114.663H102.356C122.126,143.733,183.501,95.38,256.236,95.38z
			 M256.236,416.68c-67.768,0-125.633-42.063-149.236-101.434h298.473C381.854,374.617,324.003,416.68,256.236,416.68z"/>
	</g>
</g>
<g id="X-MAS">
	<text transform="matrix(1 0 0 1 118.0361 296.2754)" fill="#FFFFFF" font-family="'Arial-BoldMT'" font-size="90.1836">X-MAS</text>
</g>
<g id="bubble_1_">
	<g id="Shape_160">
		<g>
			<circle fill-rule="evenodd" clip-rule="evenodd" fill="#D4463E" cx="210.474" cy="66.306" r="21.043"/>
		</g>
	</g>
	<g id="Shape_160_copy">
		<g>
			<circle fill-rule="evenodd" clip-rule="evenodd" fill="#D4463E" cx="402.865" cy="123.422" r="21.043"/>
		</g>
	</g>
	<g id="Shape_160_copy_2">
		<g>
			<circle fill-rule="evenodd" clip-rule="evenodd" fill="#D4463E" cx="54.155" cy="258.697" r="21.043"/>
		</g>
	</g>
	<g id="Shape_160_copy_3">
		<g>
			<circle fill-rule="evenodd" clip-rule="evenodd" fill="#D4463E" cx="114.278" cy="381.948" r="21.043"/>
		</g>
	</g>
	<g id="Shape_161">
		<g>
			<circle fill-rule="evenodd" clip-rule="evenodd" fill="#D4463E" cx="257.819" cy="460.859" r="15.031"/>
		</g>
	</g>
	<g id="Shape_161_copy">
		<g>
			<circle fill-rule="evenodd" clip-rule="evenodd" fill="#D4463E" cx="399.107" cy="391.718" r="15.031"/>
		</g>
	</g>
	<g id="Shape_162">
		<g>
			<circle fill-rule="evenodd" clip-rule="evenodd" fill="#D4463E" cx="453.97" cy="237.654" r="12.024"/>
		</g>
	</g>
	<g id="Shape_162_copy">
		<g>
			<circle fill-rule="evenodd" clip-rule="evenodd" fill="#D4463E" cx="93.235" cy="117.41" r="12.024"/>
		</g>
	</g>
	<g id="Shape_163">
		<g>
			<circle fill-rule="evenodd" clip-rule="evenodd" fill="#D4463E" cx="434.43" cy="141.458" r="4.509"/>
		</g>
	</g>
	<g id="Shape_163_copy">
		<g>
			<circle fill-rule="evenodd" clip-rule="evenodd" fill="#D4463E" cx="242.038" cy="60.293" r="4.509"/>
		</g>
	</g>
	<g id="Shape_163_copy_2">
		<g>
			<circle fill-rule="evenodd" clip-rule="evenodd" fill="#D4463E" cx="142.836" cy="396.979" r="4.509"/>
		</g>
	</g>
	<g id="Shape_163_copy_3">
		<g>
			<circle fill-rule="evenodd" clip-rule="evenodd" fill="#D4463E" cx="362.282" cy="433.052" r="4.509"/>
		</g>
	</g>
	<g id="Shape_163_copy_4">
		<g>
			<circle fill-rule="evenodd" clip-rule="evenodd" fill="#D4463E" cx="43.634" cy="288.759" r="7.14"/>
		</g>
	</g>
</g>
</svg>
