<?xml version="1.0" ?><!DOCTYPE svg  PUBLIC '-//W3C//DTD SVG 1.1//EN'  'http://www.w3.org/Graphics/SVG/1.1/DTD/svg11.dtd'><svg enable-background="new 0 0 512 512" height="512px" id="Alien" version="1.1" viewBox="0 0 512 512" width="512px" xml:space="preserve" xmlns="http://www.w3.org/2000/svg" xmlns:xlink="http://www.w3.org/1999/xlink"><rect fill="#B8D2FF" height="5.416" width="5.416" x="324.44" y="445.693"/><path d="M178.377,417.209h1.755c0.032,0,0.063-0.002,0.096-0.002H334.53c0.033,0,0.064,0.002,0.097,0.002h1.755  c2.388,0,4.331-1.941,4.331-4.33s-1.943-4.332-4.331-4.332H320.79H193.969h-15.592c-2.388,0-4.331,1.943-4.331,4.332  S175.989,417.209,178.377,417.209z" fill="#B8D2FF"/><rect fill="#B8D2FF" height="5.416" width="5.414" x="289.8" y="445.693"/><path d="M226.225,375.48c3.797,3.582,8.899,5.795,14.519,5.795h33.272c5.619,0,10.721-2.213,14.519-5.795  c-9.168-3.408-19.996-5.256-31.157-5.256C246.212,370.225,235.387,372.072,226.225,375.48z" fill="#B8D2FF"/><path d="M257.379,322.525c9.401,0,17.048-7.648,17.048-17.049s-7.646-17.047-17.048-17.047  c-9.4,0-17.048,7.646-17.048,17.047S247.979,322.525,257.379,322.525z M257.379,293.871c6.399,0,11.606,5.207,11.606,11.605  c0,6.4-5.207,11.605-11.606,11.605s-11.605-5.205-11.605-11.605C245.773,299.078,250.979,293.871,257.379,293.871z" fill="#B8D2FF"/><path d="M249.784,92.436c8.167,4.414,12.499,14.106,9.853,23.362c-2.463,8.613-10.145,14.387-18.765,14.665  c-10.902,25.667-31.118,46.581-56.423,58.463c0.007,2.106-0.273,4.205-0.86,6.26c-1.658,5.803-5.478,10.611-10.754,13.542  c-3.403,1.89-7.15,2.852-10.938,2.852c-2.085,0-4.182-0.291-6.242-0.88c-5.973-1.707-10.886-5.726-13.751-11.157  c-1.89,0.095-3.779,0.147-5.667,0.147c-10.527,0-21.006-1.477-31.269-4.414c-4.171-1.188-8.269-2.616-12.174-4.241  c-1.11-0.454-2.213-0.934-3.31-1.425V469.6h33.586c2.109-24.332,19.456-44.363,42.43-50.469c-0.923-1.893-1.455-4.008-1.455-6.252  c0-6.689,4.614-12.309,10.823-13.879c-14.864-18.604-22.947-41.551-22.947-65.676c0-41.842,24.498-78.069,59.905-95.096  c-0.854-1.265-1.743-2.503-2.68-3.704c-1.166,0.306-2.383,0.485-3.643,0.485c-7.949,0-14.416-6.467-14.416-14.416  s6.467-14.416,14.416-14.416s14.416,6.467,14.416,14.416c0,3.046-0.956,5.87-2.575,8.201c1.359,1.768,2.655,3.586,3.858,5.471  c11.289-4.136,23.476-6.394,36.181-6.394c12.933,0,25.327,2.345,36.786,6.624c1.246-1.967,2.598-3.861,4.014-5.702  c-1.619-2.331-2.575-5.154-2.575-8.201c0-7.949,6.467-14.416,14.416-14.416c7.948,0,14.415,6.467,14.415,14.416  s-6.467,14.416-14.415,14.416c-1.261,0-2.478-0.179-3.643-0.485c-1.007,1.29-1.959,2.622-2.869,3.986  c35.093,17.143,59.325,53.201,59.325,94.814c0,24.123-8.084,47.072-22.948,65.676c6.208,1.572,10.822,7.189,10.822,13.879  c0,2.244-0.533,4.359-1.456,6.252c22.975,6.105,40.321,26.137,42.431,50.469h30.827V173.176  c-14.897-0.139-38.828-6.775-63.646-17.828c-0.296-0.129-0.59-0.25-0.885-0.382c-0.15-0.067-0.294-0.138-0.443-0.206  c-26.784-12.076-69.521-36.725-61.967-53.566c5.033-11.198,27.482-8.047,49.843-1.157c8.729-14.8,27.409-21.002,43.425-13.814  c16.027,7.195,23.807,25.294,18.535,41.643c5.631,3.436,10.73,6.894,15.139,10.271V42.4H241.27  C247.841,58.205,250.77,75.377,249.784,92.436z M122.91,237.136h-9.046v-9.047h9.046V237.136z M134.312,297.441h-9.047v-9.047h9.047  V297.441z M163.961,392.781l-8.417,5.398c-12.493-19.479-19.097-42.061-19.097-65.305h10  C146.447,354.201,152.504,374.916,163.961,392.781z M173.909,255.635h-9.047v-9.047h9.047V255.635z M362.153,394.104l-8.624-5.063  c7.124-12.135,11.813-25.338,13.938-39.238l9.885,1.512C375.036,366.473,369.922,380.869,362.153,394.104z M377.956,175.001  l9.982,0.585l-5.162,88.066l-9.982-0.584L377.956,175.001z M353.292,192.592h9.047v9.046h-9.047V192.592z M345.511,249.522  c15.265,16.093,25.807,35.998,30.484,57.558c1.826,8.422,2.753,17.102,2.753,25.795h-10c0-7.982-0.851-15.947-2.526-23.674  c-4.289-19.773-13.961-38.031-27.967-52.798L345.511,249.522z M325.263,166.871h9.047v9.047h-9.047V166.871z M290.319,205.098  h-9.047v-9.046h9.047V205.098z M315.306,138.282l6.18,7.862l-74.246,58.362l-6.18-7.862L315.306,138.282z" fill="#B8D2FF"/><path d="M189.48,117.244c1.056,0.303,2.167,0.175,3.129-0.359c0.96-0.534,1.656-1.41,1.958-2.466v0  c0.302-1.057,0.175-2.167-0.359-3.129c-0.533-0.96-1.409-1.656-2.466-1.958c-0.376-0.108-0.756-0.159-1.13-0.159  c-1.79,0-3.442,1.179-3.958,2.984C186.031,114.337,187.299,116.62,189.48,117.244z" fill="#B8D2FF"/><path d="M229.93,42.4h-22.087c1.595,2.87,4.277,5.084,7.564,6.022C221.182,50.077,227.148,47.469,229.93,42.4z" fill="#B8D2FF"/><path d="M89.485,178.546c1.288,0.65,2.604,1.269,3.932,1.867c0.438-0.699,0.79-1.455,1.022-2.264  c1.227-4.292-0.968-8.768-4.954-10.524V178.546z" fill="#B8D2FF"/><path d="M236.614,32.4H79.485v152.142V479.6h353.029V32.4H236.614z M257.379,255.215  c29.451,0,53.411,23.96,53.411,53.412v89.92H203.969v-89.92C203.969,279.176,227.929,255.215,257.379,255.215z M226.09,243.145  c9.809-3.413,20.338-5.273,31.295-5.273c11.2,0,21.953,1.945,31.946,5.505c-1.305,2.821-2.425,5.719-3.375,8.671  c-8.594-4.358-18.299-6.832-28.577-6.832c-10.012,0-19.484,2.342-27.913,6.491C228.513,248.792,227.389,245.932,226.09,243.145z   M294.767,257.453c0.987-3.503,2.257-6.923,3.808-10.228c32.07,15.404,54.265,48.208,54.265,86.099  c0,24.412-9.164,47.482-25.809,65.223h-6.24v-89.92C320.79,287.633,310.528,269,294.767,257.453z M193.969,308.627v89.92h-6.24  c-16.643-17.74-25.807-40.809-25.807-65.223c0-38.135,22.485-71.113,54.893-86.39c1.545,3.252,2.823,6.613,3.821,10.06  C204.512,268.502,193.969,287.35,193.969,308.627z M178.377,408.547h15.592H320.79h15.592c2.388,0,4.331,1.943,4.331,4.332  s-1.943,4.33-4.331,4.33h-1.755c-0.032,0-0.063-0.002-0.097-0.002H180.228c-0.032,0-0.063,0.002-0.096,0.002h-1.755  c-2.388,0-4.331-1.941-4.331-4.33S175.989,408.547,178.377,408.547z M180.125,427.209h154.509  c24.395,0.053,44.52,18.633,47.023,42.387H133.102C135.604,445.842,155.73,427.262,180.125,427.209z M387.417,141.951  c-4.614-3.926-11.206-7.906-18.562-11.207c-5.098-2.288-30.79-13.121-35.966-1.593c-0.176,0.39-0.305,0.786-0.413,1.185  c-5.097-3.131-9.735-6.285-13.766-9.382c-12.359-9.495-14.187-14.805-14.035-15.628c0.549-0.739,5.726-2.901,21.034,0.023  c13.555,2.59,30.398,8.224,47.426,15.862c20.692,9.298,38.922,20.36,49.379,29.904v12.08c-6.738-0.066-16.766-1.784-29.184-5.525  c0.229-0.35,0.44-0.716,0.617-1.111C395.899,152.212,393.702,147.296,387.417,141.951z M383.267,151.764  c-3.704-0.063-10.936-1.455-20.207-5.493c-0.327-0.146-0.65-0.286-0.979-0.433c-0.389-0.175-0.772-0.353-1.16-0.529  c-9.074-4.219-14.857-8.656-17.348-11.363c3.833,0.065,11.439,1.546,21.188,5.921C374.507,144.242,380.67,148.942,383.267,151.764z   M355.216,103.284c6.564-9.131,18.881-12.718,29.529-7.938c10.645,4.779,16.15,16.357,13.695,27.331  c-6.64-3.672-13.779-7.25-21.209-10.588C370.802,109.204,363.183,106.101,355.216,103.284z M422.515,138.137  c-4.408-3.377-9.508-6.835-15.139-10.271c5.271-16.349-2.508-34.448-18.535-41.643c-16.016-7.188-34.695-0.986-43.425,13.814  c-22.36-6.891-44.81-10.041-49.843,1.157c-7.554,16.841,35.183,41.491,61.967,53.566c0.149,0.068,0.293,0.139,0.443,0.206  c0.295,0.133,0.589,0.253,0.885,0.382c24.818,11.053,48.749,17.689,63.646,17.828V469.6h-30.827  c-2.109-24.332-19.456-44.363-42.431-50.469c0.923-1.893,1.456-4.008,1.456-6.252c0-6.689-4.614-12.307-10.822-13.879  c14.864-18.604,22.948-41.553,22.948-65.676c0-41.613-24.232-77.671-59.325-94.814c0.91-1.364,1.862-2.696,2.869-3.986  c1.165,0.306,2.382,0.485,3.643,0.485c7.948,0,14.415-6.467,14.415-14.416s-6.467-14.416-14.415-14.416  c-7.949,0-14.416,6.467-14.416,14.416c0,3.046,0.956,5.87,2.575,8.201c-1.416,1.841-2.768,3.734-4.014,5.702  c-11.459-4.279-23.854-6.624-36.786-6.624c-12.705,0-24.892,2.258-36.181,6.394c-1.203-1.885-2.499-3.704-3.858-5.471  c1.619-2.331,2.575-5.154,2.575-8.201c0-7.949-6.467-14.416-14.416-14.416s-14.416,6.467-14.416,14.416s6.467,14.416,14.416,14.416  c1.26,0,2.477-0.179,3.643-0.485c0.937,1.201,1.826,2.438,2.68,3.704c-35.407,17.027-59.905,53.254-59.905,95.096  c0,24.125,8.083,47.072,22.947,65.676c-6.209,1.57-10.823,7.189-10.823,13.879c0,2.244,0.532,4.359,1.455,6.252  c-22.974,6.105-40.32,26.137-42.43,50.469H89.485V189.611c1.097,0.492,2.199,0.972,3.31,1.425c3.905,1.625,8.003,3.052,12.174,4.241  c10.263,2.938,20.741,4.414,31.269,4.414c1.888,0,3.777-0.052,5.667-0.147c2.865,5.431,7.778,9.45,13.751,11.157  c2.061,0.589,4.157,0.88,6.242,0.88c3.787,0,7.534-0.962,10.938-2.852c5.276-2.931,9.096-7.739,10.754-13.542  c0.587-2.055,0.867-4.154,0.86-6.26c25.305-11.882,45.521-32.796,56.423-58.463c8.62-0.278,16.302-6.052,18.765-14.665  c2.646-9.256-1.686-18.949-9.853-23.362c0.985-17.059-1.943-34.231-8.515-50.036h181.245V138.137z M305.609,220.593  c0-2.435,1.981-4.416,4.416-4.416s4.415,1.981,4.415,4.416c0,2.435-1.98,4.416-4.415,4.416S305.609,223.028,305.609,220.593z   M209.921,220.593c0,2.435-1.981,4.416-4.416,4.416s-4.416-1.981-4.416-4.416c0-2.435,1.981-4.416,4.416-4.416  S209.921,218.158,209.921,220.593z M89.485,142.658V42.4h35.302c-3.804,3.463-9.014,5.301-14.37,4.701l-1.115,9.938  c1.044,0.117,2.083,0.174,3.116,0.174c10.368,0,19.979-5.783,24.891-14.813h45.642c1.63,13.181,10.942,24.201,23.897,27.907  l2.751-9.614c-8.658-2.477-14.98-9.624-16.528-18.293h4.038c2.099,7.443,7.919,13.46,15.551,15.637  c2.096,0.6,4.205,0.886,6.28,0.886c5.839,0,11.39-2.277,15.536-6.222c4.624,13.632,6.38,28.146,5.08,42.487  c-0.591,6.499-1.802,12.977-3.6,19.262c-0.857,3.01-1.874,6.039-3.024,9.006c-10.301,26.649-31.488,48.071-58.128,58.772  c-9.377,3.761-19.188,6.126-29.164,7.032c-12.746,1.167-25.502-0.043-37.925-3.6c-1.659-0.472-3.3-0.993-4.923-1.545  c0.51-1.024,0.939-2.094,1.261-3.212c2.854-9.986-2.951-20.442-12.951-23.313c-0.536-0.152-1.075-0.273-1.616-0.378v-4.512  c10.094,0.872,18.301,9.021,18.917,19.418l9.982-0.591C117.455,155.823,104.814,143.545,89.485,142.658z M207.843,42.4h22.087  c-2.781,5.069-8.748,7.677-14.522,6.022C212.12,47.484,209.438,45.27,207.843,42.4z M173.677,193.314  c-1.038,2.839-3.027,5.189-5.697,6.672c-2.941,1.634-6.342,2.023-9.575,1.099c-1.866-0.533-3.545-1.473-4.943-2.726  C160.322,197.305,167.085,195.619,173.677,193.314z M94.439,178.149c-0.232,0.809-0.584,1.564-1.022,2.264  c-1.328-0.598-2.644-1.217-3.932-1.867v-10.921C93.472,169.382,95.666,173.857,94.439,178.149z M244.942,119.311  c0.217-0.706,0.429-1.411,0.63-2.116c1.213-4.24,2.181-8.564,2.897-12.926c1.764,2.458,2.442,5.666,1.552,8.779  C249.223,115.845,247.339,118.049,244.942,119.311z" fill="#1F4499"/><rect fill="#1F4499" height="10" transform="matrix(-0.7862 0.618 -0.618 -0.7862 608.3246 132.318)" width="94.438" x="234.053" y="166.394"/><rect fill="#1F4499" height="88.218" transform="matrix(0.9983 0.0585 -0.0585 0.9983 13.4818 -21.8754)" width="10" x="375.366" y="175.218"/><rect fill="#1F4499" height="9.047" width="9.047" x="325.263" y="166.871"/><rect fill="#1F4499" height="9.046" width="9.047" x="353.292" y="192.592"/><rect fill="#1F4499" height="9.047" width="9.047" x="125.265" y="288.395"/><rect fill="#1F4499" height="9.047" width="9.047" x="164.862" y="246.588"/><rect fill="#1F4499" height="9.047" width="9.046" x="113.864" y="228.089"/><rect fill="#1F4499" height="9.046" width="9.047" x="281.272" y="196.052"/><path d="M257.379,332.525c14.915,0,27.048-12.135,27.048-27.049c0-7.072-2.732-13.518-7.192-18.342l5.544-5.543  l-7.072-7.072l-6.591,6.592c-1.993-0.965-4.123-1.689-6.351-2.143v-7.539h-10v7.4c-2.396,0.414-4.685,1.143-6.821,2.145  l-6.454-6.455l-7.071,7.072l5.319,5.318c-4.585,4.85-7.406,11.383-7.406,18.566C230.331,320.391,242.465,332.525,257.379,332.525z   M257.379,288.43c9.401,0,17.048,7.646,17.048,17.047s-7.646,17.049-17.048,17.049c-9.4,0-17.048-7.648-17.048-17.049  S247.979,288.43,257.379,288.43z" fill="#1F4499"/><path d="M257.379,317.082c6.399,0,11.606-5.205,11.606-11.605c0-6.398-5.207-11.605-11.606-11.605  s-11.605,5.207-11.605,11.605C245.773,311.877,250.979,317.082,257.379,317.082z M257.379,303.871c0.886,0,1.605,0.721,1.605,1.605  c0,0.887-0.72,1.605-1.605,1.605c-0.885,0-1.605-0.719-1.605-1.605C255.773,304.592,256.494,303.871,257.379,303.871z" fill="#1F4499"/><path d="M230.445,339.176c-11.525,0-20.901,9.375-20.901,20.9c0,17.203,13.996,31.199,31.199,31.199h33.272  c17.203,0,31.198-13.996,31.198-31.199c0-11.525-9.375-20.9-20.9-20.9H230.445z M274.016,381.275h-33.272  c-5.619,0-10.722-2.213-14.519-5.795c9.162-3.408,19.987-5.256,31.152-5.256c11.161,0,21.989,1.848,31.157,5.256  C284.736,379.063,279.635,381.275,274.016,381.275z M295.214,360.076c0,2.391-0.416,4.682-1.148,6.826  c-10.721-4.324-23.543-6.678-36.688-6.678c-13.15,0-25.97,2.354-36.684,6.678c-0.733-2.145-1.149-4.436-1.149-6.826  c0-6.012,4.891-10.9,10.901-10.9h8.704v7.766h10v-7.766h3.448v7.766h10v-7.766h3.886v7.766h10v-7.766h7.83  C290.324,349.176,295.214,354.064,295.214,360.076z" fill="#1F4499"/><path d="M353.529,389.041l8.624,5.063c7.769-13.234,12.883-27.631,15.199-42.789l-9.885-1.512  C365.343,363.703,360.653,376.906,353.529,389.041z" fill="#1F4499"/><path d="M368.748,332.875h10c0-8.693-0.927-17.373-2.753-25.795c-4.678-21.561-15.22-41.465-30.484-57.558  l-7.256,6.881c14.006,14.767,23.678,33.025,27.967,52.798C367.897,316.928,368.748,324.893,368.748,332.875z" fill="#1F4499"/><path d="M136.447,332.875c0,23.244,6.604,45.826,19.097,65.305l8.417-5.398  c-11.457-17.865-17.514-38.58-17.514-59.906H136.447z" fill="#1F4499"/><path d="M339.856,435.693H314.44v25.416h25.416V435.693z M329.856,451.109h-5.416v-5.416h5.416V451.109z" fill="#1F4499"/><path d="M305.214,435.693H279.8v25.416h25.414V435.693z M295.214,451.109H289.8v-5.416h5.414V451.109z" fill="#1F4499"/><rect fill="#1F4499" height="10" width="50.136" x="164.785" y="443.4"/><path d="M159.483,79.866c1.133,0.344,2.289,0.515,3.439,0.515c1.907,0,3.798-0.469,5.527-1.392  c2.774-1.481,4.806-3.953,5.72-6.961l-9.567-2.908c-0.186,0.61-0.619,0.918-0.86,1.047c-0.243,0.129-0.74,0.318-1.35,0.132  c-0.61-0.186-0.918-0.619-1.047-0.861s-0.317-0.738-0.132-1.349c0.186-0.61,0.618-0.918,0.86-1.047  c0.241-0.129,0.737-0.318,1.349-0.132l2.909-9.567c-3.009-0.915-6.192-0.604-8.967,0.877c-2.773,1.48-4.805,3.953-5.719,6.961  C149.758,71.389,153.273,77.978,159.483,79.866z" fill="#1F4499"/><path d="M164.769,150.514c-5.894,2.718-8.477,9.725-5.76,15.618c1.316,2.855,3.667,5.027,6.616,6.115  c1.328,0.489,2.705,0.733,4.079,0.733c1.68,0,3.354-0.364,4.924-1.089l-4.188-9.08c-0.58,0.267-1.098,0.147-1.354,0.053  c-0.257-0.095-0.728-0.34-0.995-0.92c-0.409-0.887-0.02-1.941,0.866-2.35c0.886-0.408,1.942-0.021,2.351,0.867l9.081-4.188  C177.67,150.38,170.664,147.797,164.769,150.514z" fill="#1F4499"/><path d="M120.83,106.634c-1.869-3.274-4.9-5.624-8.536-6.616c-7.505-2.053-15.281,2.388-17.332,9.894  c-2.05,7.506,2.389,15.281,9.895,17.332l2.636-9.646c-2.188-0.598-3.481-2.863-2.884-5.05c0.598-2.187,2.861-3.481,5.05-2.883  c2.188,0.597,3.48,2.863,2.884,5.05l9.646,2.635C123.182,113.712,122.699,109.907,120.83,106.634z" fill="#1F4499"/><path d="M186.731,126.859c1.287,0.368,2.598,0.55,3.9,0.55c2.366,0,4.707-0.601,6.832-1.782  c3.296-1.831,5.683-4.834,6.719-8.459s0.599-7.438-1.232-10.733c-1.83-3.296-4.835-5.682-8.459-6.718  c-7.486-2.139-15.313,2.208-17.452,9.692C174.9,116.891,179.249,124.719,186.731,126.859z M186.654,112.156  c0.516-1.805,2.168-2.984,3.958-2.984c0.374,0,0.754,0.051,1.13,0.159c1.057,0.302,1.933,0.998,2.466,1.958  c0.534,0.961,0.661,2.072,0.359,3.129v0c-0.302,1.057-0.998,1.933-1.958,2.466c-0.962,0.534-2.073,0.662-3.129,0.359  C187.299,116.62,186.031,114.337,186.654,112.156z" fill="#1F4499"/><path d="M198.983,128.362c-4.026,2.237-8.683,2.772-13.111,1.505c-9.143-2.614-14.454-12.178-11.841-21.32  l-9.615-2.748c-4.129,14.443,4.263,29.554,18.707,33.683c2.484,0.71,5.014,1.062,7.527,1.062c4.567,0,9.085-1.161,13.188-3.439  c6.361-3.533,10.967-9.333,12.967-16.33l-9.615-2.748C205.925,122.456,203.01,126.126,198.983,128.362z" fill="#1F4499"/></svg>