<?xml version="1.0" ?><!DOCTYPE svg  PUBLIC '-//W3C//DTD SVG 1.1//EN'  'http://www.w3.org/Graphics/SVG/1.1/DTD/svg11.dtd'><svg enable-background="new 0 0 512 512" height="512px" id="Asteroid" version="1.1" viewBox="0 0 512 512" width="512px" xml:space="preserve" xmlns="http://www.w3.org/2000/svg" xmlns:xlink="http://www.w3.org/1999/xlink"><path d="M294.09,474.601H84.48v-198.17c3.51-0.191,7.04-0.281,10.59-0.281  C204.8,276.149,293.78,364.94,294.09,474.601z" fill="#B8D2FF"/><path d="M427.524,285.298c-0.141-0.039-7.891-6.529-12.41-6.529c-4.529,0-8.07,4.75-12.01,6.38  c-4.08,1.69-9.92,0.91-13,3.979c-3.07,3.07-2.29,8.92-3.98,13c-1.63,3.931-6.369,7.48-6.369,12c0,4.531,4.739,8.07,6.369,12.011  c1.69,4.069,0.91,9.92,3.98,13c3.07,3.069,8.92,2.28,13,3.97c3.939,1.63,7.48,6.38,12.01,6.38c4.52,0,12.27-6.489,12.41-6.53  V285.298z" fill="#B8D2FF"/><path d="M418.8,89.63l-37.91,46.6c-1.47,1.8-3.609,2.74-5.77,2.74c-1.641,0-3.29-0.54-4.67-1.66  c-3.18-2.59-3.66-7.26-1.08-10.439l4.68-5.761c1.42-1.739,2.11-3.84,2.11-5.93c0-2.729-1.181-5.439-3.47-7.3  c-4.03-3.28-9.95-2.67-13.23,1.36l-6.141,7.55c-2.479,3.04-6.09,4.62-9.729,4.62c-2.78,0-5.569-0.92-7.899-2.811  c-5.371-4.37-13.26-3.56-17.631,1.811l-28,34.42l-24.13,29.67c-8.15,10.02-12.27,25.14-11.979,38.979  c0.08,3.9,2.42,12.48,2.42,12.48c0.96,2.7,2.22,5.25,3.78,7.561c1.56,2.319,3.43,4.399,5.629,6.189  c14.61,11.891,39.151,6.88,55.23-5.25c0,0,6.72-5.88,8.58-8.17l10.89-13.391l8.561-10.52l78.48-96.47V85.34  C424.25,85.43,421.03,86.89,418.8,89.63z M314.649,222.56c-0.939,3.05,0.98,7.83-1.18,10.44c-2.16,2.609-7.21,1.63-10.029,3.12  c-2.92,1.54-4.971,6.239-8.211,6.54c-3.239,0.31-6.14-3.91-9.299-4.881c-3.051-0.939-7.83,0.98-10.431-1.18  c-2.61-2.16-1.63-7.21-3.12-10.03c-1.55-2.92-6.239-4.97-6.55-8.21c-0.311-3.239,3.92-6.14,4.89-9.3  c0.93-3.04-0.979-7.82,1.17-10.43c2.16-2.61,7.211-1.63,10.03-3.12c2.92-1.55,4.979-6.24,8.21-6.55c3.24-0.3,6.141,3.92,9.301,4.89  c3.049,0.93,7.829-0.979,10.439,1.18c2.609,2.15,1.62,7.21,3.109,10.021c1.551,2.92,6.24,4.979,6.551,8.22  C319.84,216.51,315.61,219.41,314.649,222.56z" fill="#B8D2FF"/><path d="M186.17,101.09c-4.04-4.04-10.58-4.04-14.62,0l-37.6,37.62c-1.46,1.45-3.43,2.08-5.33,1.89  c-1.44-0.149-2.85-0.77-3.96-1.88c-2.57-2.57-2.57-6.729-0.01-9.3l4.64-4.65c1.41-1.399,2.21-3.189,2.4-5.029  c0.24-2.41-0.55-4.9-2.4-6.75c-3.25-3.25-8.52-3.25-11.78,0.01l-6.09,6.09c-2.46,2.46-5.78,3.52-8.98,3.189  c-2.45-0.25-4.83-1.31-6.71-3.189c-3.04-3.04-7.42-3.95-11.25-2.71v101.07l14.54-14.54l87.15-87.2c1.75-1.75,2.74-3.97,2.98-6.25  C189.45,106.47,188.46,103.37,186.17,101.09z" fill="#B8D2FF"/><path d="M119.357,354.827c-4.076-2.402-6.972-6.246-8.156-10.826c-1.184-4.579-0.514-9.346,1.888-13.421  c2.401-4.075,6.245-6.972,10.825-8.155c4.579-1.187,9.346-0.514,13.422,1.887c8.413,4.957,11.225,15.834,6.268,24.246l-8.615-5.076  c2.157-3.662,0.934-8.396-2.729-10.555c-1.775-1.045-3.85-1.337-5.842-0.82c-1.994,0.515-3.667,1.775-4.712,3.55  c-1.045,1.774-1.337,3.849-0.822,5.843c0.515,1.992,1.776,3.666,3.55,4.711L119.357,354.827z" fill="#1F4499"/><path d="M228.147,428.567c-4.148,0-8.312-1.444-11.668-4.389c-7.34-6.439-8.073-17.65-1.633-24.99  c6.439-7.34,17.65-8.072,24.99-1.633l-6.595,7.518c-3.196-2.805-8.076-2.484-10.879,0.71c-2.803,3.195-2.484,8.075,0.711,10.879  c3.195,2.804,8.076,2.483,10.879-0.711l7.517,6.595C237.974,426.53,233.071,428.567,228.147,428.567z" fill="#1F4499"/><path d="M126.972,456.642l-1.043-9.945c4.228-0.443,7.307-4.243,6.863-8.471c-0.215-2.048-1.214-3.889-2.813-5.186  c-1.6-1.295-3.608-1.894-5.657-1.678c-2.048,0.215-3.889,1.215-5.186,2.814s-1.892,3.607-1.677,5.656l-9.945,1.043  c-0.493-4.705,0.875-9.32,3.853-12.995s7.208-5.971,11.913-6.464c4.702-0.49,9.319,0.876,12.994,3.854  c3.675,2.979,5.971,7.209,6.463,11.913C143.756,446.895,136.684,455.624,126.972,456.642z" fill="#1F4499"/><path d="M406.438,334.21c-4.871,0.001-9.542-2.768-11.727-7.468c-3-6.455-0.188-14.147,6.267-17.147l4.215,9.068  c-1.455,0.676-2.089,2.41-1.413,3.865c0.677,1.455,2.41,2.088,3.865,1.412s2.089-2.41,1.412-3.865l9.068-4.215  c3,6.455,0.189,14.148-6.266,17.148C410.105,333.824,408.258,334.21,406.438,334.21z" fill="#1F4499"/><path d="M79.48,32.399v447.201h353.041V32.399H79.48z M422.521,339.923c-1.009,0.641-1.953,1.334-2.826,1.986  c-1.619,1.209-3.454,2.58-4.58,2.58c-1.131,0-2.963-1.369-4.58-2.576c-1.607-1.2-3.428-2.56-5.516-3.424  c-2.16-0.895-4.462-1.242-6.492-1.549c-1.863-0.281-4.18-0.631-4.881-1.332c-0.715-0.717-1.053-2.941-1.352-4.904  c-0.308-2.029-0.657-4.329-1.549-6.477c-0.864-2.088-2.221-3.907-3.417-5.512c-1.206-1.619-2.573-3.453-2.573-4.588  c0-1.129,1.369-2.965,2.576-4.585c1.195-1.603,2.549-3.419,3.413-5.501c0.893-2.155,1.241-4.455,1.55-6.482  c0.299-1.962,0.637-4.186,1.34-4.891c0.718-0.714,2.941-1.053,4.904-1.351c2.027-0.309,4.324-0.657,6.478-1.55  c2.091-0.865,3.912-2.225,5.519-3.424c1.617-1.207,3.449-2.576,4.58-2.576c1.126,0,2.961,1.37,4.579,2.579  c0.874,0.652,1.817,1.345,2.827,1.987V339.923z M120.809,142.694c2.192,2.191,5.106,3.399,8.206,3.399  c3.1,0,6.014-1.208,8.206-3.399l37.79-37.79c1.016-1.017,2.371-1.576,3.814-1.576c1.438,0,2.789,0.56,3.8,1.571  c2.101,2.105,2.103,5.525,0.003,7.625L89.48,205.766v-20.693l26.296-26.458l-7.093-7.05L89.48,170.886v-49.342  c0.846,0.303,1.625,0.785,2.279,1.44c6.294,6.293,16.536,6.294,22.831,0l6.12-6.12c1.271-1.271,3.491-1.277,4.774,0.005  c0.633,0.631,0.981,1.472,0.982,2.368c0,0.9-0.35,1.748-0.988,2.386l-4.67,4.67c-2.195,2.195-3.404,5.109-3.404,8.205  C117.404,137.56,118.65,140.552,120.809,142.694z M298.087,469.601c-0.88-41.19-13.982-80.508-38.013-113.945l-8.12,5.836  c22.801,31.727,35.25,69.026,36.129,108.109H89.48V281.047c1.864-0.055,3.726-0.089,5.574-0.089  c24.103,0,47.605,4.382,69.855,13.021l3.62-9.321c-23.409-9.091-48.129-13.7-73.476-13.7c-1.849,0-3.71,0.033-5.574,0.086v-52.263  l0.567,0.566l99.652-99.754c5.993-5.992,5.995-15.752,0.001-21.761c-2.904-2.904-6.767-4.505-10.876-4.505  c-4.115,0-7.981,1.6-10.886,4.505l-37.79,37.79c-0.409,0.409-0.886,0.471-1.134,0.471c-0.248,0-0.725-0.062-1.148-0.484  c-0.293-0.291-0.462-0.696-0.462-1.111c0-0.301,0.083-0.741,0.476-1.134l4.67-4.67c2.529-2.529,3.919-5.891,3.917-9.465  c-0.003-3.57-1.396-6.924-3.917-9.437c-2.524-2.524-5.882-3.915-9.456-3.915s-6.931,1.391-9.456,3.915l-6.12,6.12  c-2.396,2.396-6.294,2.396-8.689,0c-2.557-2.558-5.823-4.137-9.35-4.587V42.399h286.39l-25.148,30.412l7.705,6.373l30.42-36.785  h33.674v2.273l-27.866,33.705l7.707,6.372l20.159-24.383v21.101c-2.23,1.043-4.228,2.574-5.829,4.504l-38.615,46.696  c-0.868,1.054-2.438,1.198-3.495,0.327c-0.57-0.472-0.896-1.17-0.896-1.917c0-0.409,0.1-1.019,0.561-1.581l4.771-5.763  c2.468-2.983,3.625-6.748,3.258-10.603c-0.367-3.852-2.211-7.331-5.198-9.801c-2.598-2.143-5.872-3.322-9.222-3.322  c-4.331,0-8.402,1.917-11.174,5.264l-6.25,7.56c-2.681,3.242-7.506,3.7-10.752,1.021c-3.157-2.608-7.146-4.045-11.234-4.045  c-5.288,0-10.244,2.332-13.594,6.394l-53.088,64.218c-9.111,11.007-14.3,27.352-13.542,42.655l9.987-0.494  c-0.629-12.716,3.79-26.762,11.26-35.788l53.094-64.224c1.447-1.755,3.592-2.761,5.883-2.761c1.793,0,3.477,0.606,4.867,1.756  c7.497,6.188,18.635,5.128,24.826-2.36l6.248-7.557c0.861-1.042,2.127-1.639,3.469-1.639c0.73,0,1.819,0.18,2.854,1.033  c0.926,0.765,1.498,1.844,1.611,3.037s-0.244,2.359-1.006,3.28l-4.781,5.774c-1.837,2.234-2.848,5.056-2.848,7.944  c0,3.739,1.648,7.246,4.529,9.628c2.571,2.119,5.813,3.117,9.131,2.803c3.324-0.313,6.324-1.904,8.442-4.474l36.733-44.42v21.249  l-77.17,93.338l7.707,6.372l69.463-84.016v144.568c-2.098-1.298-4.53-2.358-7.406-2.358c-4.452,0-7.84,2.53-10.563,4.563  c-1.248,0.932-2.425,1.811-3.361,2.197c-1.032,0.429-2.549,0.659-4.156,0.904c-3.307,0.502-7.424,1.129-10.465,4.16  c-3.032,3.032-3.658,7.152-4.162,10.465c-0.244,1.607-0.475,3.125-0.9,4.154c-0.387,0.932-1.264,2.108-2.192,3.354  c-2.032,2.725-4.56,6.115-4.56,10.563c0,4.452,2.525,7.842,4.557,10.564c0.929,1.246,1.807,2.424,2.195,3.363  c0.427,1.027,0.657,2.545,0.901,4.15c0.503,3.309,1.129,7.427,4.161,10.469c3.032,3.032,7.152,3.654,10.464,4.154  c1.608,0.242,3.126,0.472,4.159,0.899c0.934,0.386,2.111,1.266,3.358,2.196c2.723,2.033,6.111,4.564,10.563,4.564  c2.877,0,5.309-1.061,7.406-2.359v117.471H298.087z" fill="#1F4499"/><path d="M384.884,363.935c-8.307-3.964-19.695-11.49-26.779-24.834c-6.397-12.049-7.865-26.729-4.133-41.334  l9.688,2.476c-2.203,8.622-3.423,21.55,3.276,34.169c5.806,10.936,15.307,17.183,22.254,20.498L384.884,363.935z" fill="#1F4499"/><path d="M286.299,261.367c-8.982,0-17.626-2.419-24.548-8.142c-4.934-4.08-8.605-9.515-10.911-16.155l9.446-3.281  c1.697,4.887,4.334,8.833,7.837,11.729c12.681,10.482,35.165,5.685,49.578-5.012l5.96,8.03  C313.394,256.157,299.481,261.367,286.299,261.367z" fill="#1F4499"/><rect fill="#1F4499" height="17.398" transform="matrix(0.7707 0.6372 -0.6372 0.7707 223.1318 -160.7697)" width="10" x="329.944" y="220.942"/><rect fill="#1F4499" height="19.529" transform="matrix(0.7707 0.6372 -0.6372 0.7707 201.3518 -166.9227)" width="10" x="327.603" y="186.539"/><rect fill="#1F4499" height="41.918" transform="matrix(0.7707 0.6372 -0.6372 0.7707 187.2593 -190.7263)" width="10" x="353.631" y="143.862"/><rect fill="#1F4499" height="30.923" transform="matrix(0.7707 0.6372 -0.6372 0.7707 177.7934 -167.7062)" width="10" x="316.913" y="147.717"/><rect fill="#1F4499" height="15.47" transform="matrix(0.7707 0.6372 -0.6372 0.7707 166.0754 -187.499)" width="10" x="338.555" y="129.266"/><path d="M293.72,229.642c-2.748,0-5.377-0.968-7.488-2.773l5.814-6.799c0.529,0.452,1.201,0.677,1.895,0.617  c0.693-0.055,1.324-0.375,1.775-0.903c0.934-1.091,0.805-2.737-0.285-3.67c-1.091-0.934-2.737-0.805-3.671,0.286l-6.799-5.815  c2.005-2.344,4.804-3.768,7.878-4.007c3.076-0.24,6.062,0.731,8.406,2.737c4.84,4.139,5.409,11.443,1.27,16.283  c-2.004,2.345-4.803,3.768-7.879,4.008C294.33,229.63,294.024,229.642,293.72,229.642z" fill="#1F4499"/><path d="M295.33,247.681c-3.436,0-6.112-2.047-8.106-3.572c-0.733-0.561-1.842-1.408-2.307-1.551  c-0.416-0.113-1.717-0.032-2.58,0.021c-2.747,0.173-6.512,0.408-9.574-2.124c-3.063-2.531-3.539-6.273-3.887-9.005  c-0.109-0.856-0.273-2.15-0.466-2.541c-0.226-0.426-1.267-1.355-1.955-1.97c-2.02-1.803-4.786-4.272-5.149-8.106  c-0.364-3.834,1.889-6.779,3.534-8.93c0.561-0.732,1.407-1.841,1.55-2.306c0.115-0.416,0.033-1.718-0.02-2.579  c-0.173-2.749-0.409-6.513,2.123-9.576c2.532-3.063,6.273-3.538,9.006-3.886c0.855-0.109,2.149-0.274,2.541-0.467  c0.426-0.226,1.355-1.267,1.97-1.955c1.804-2.02,4.272-4.785,8.106-5.148c3.83-0.361,6.778,1.889,8.929,3.533  c0.733,0.561,1.841,1.408,2.307,1.551c0.417,0.115,1.718,0.033,2.579-0.021c2.746-0.173,6.512-0.408,9.575,2.124  c3.063,2.532,3.538,6.273,3.886,9.005c0.109,0.856,0.274,2.15,0.467,2.541c0.227,0.427,1.267,1.355,1.955,1.97  c2.02,1.804,4.786,4.272,5.149,8.106c0.364,3.834-1.889,6.779-3.534,8.929c-0.561,0.733-1.408,1.842-1.551,2.307  c-0.114,0.416-0.033,1.718,0.021,2.58c0.172,2.748,0.408,6.513-2.125,9.575c-2.531,3.063-6.272,3.538-9.004,3.886  c-0.856,0.109-2.15,0.274-2.541,0.467c-0.428,0.226-1.355,1.267-1.971,1.955c-1.803,2.02-4.272,4.785-8.105,5.148  C295.874,247.669,295.6,247.681,295.33,247.681z M284.1,232.5c1.218,0,2.486,0.109,3.751,0.498c2.182,0.669,3.916,1.996,5.447,3.167  c0.567,0.434,1.358,1.039,1.895,1.353c0.468-0.409,1.131-1.151,1.606-1.685c1.284-1.438,2.739-3.067,4.755-4.135  c1.962-1.038,4.082-1.309,5.953-1.547c0.728-0.093,1.857-0.236,2.467-0.416c0.063-0.633-0.01-1.769-0.055-2.5  c-0.118-1.883-0.252-4.017,0.399-6.139c0.669-2.181,1.997-3.917,3.168-5.448c0.434-0.566,1.038-1.357,1.353-1.894  c-0.409-0.468-1.152-1.131-1.685-1.605c-1.438-1.284-3.068-2.739-4.136-4.756c-1.038-1.961-1.309-4.082-1.547-5.953  c-0.092-0.727-0.236-1.856-0.416-2.466c-0.632-0.063-1.769,0.009-2.5,0.055c-1.883,0.117-4.016,0.251-6.138-0.4  c-2.181-0.669-3.917-1.996-5.448-3.167c-0.566-0.434-1.357-1.039-1.894-1.353c-0.468,0.409-1.132,1.151-1.606,1.685  c-1.284,1.438-2.739,3.067-4.756,4.135c-1.961,1.038-4.082,1.309-5.953,1.547c-0.727,0.093-1.855,0.236-2.465,0.416  c-0.063,0.633,0.008,1.77,0.054,2.5c0.118,1.883,0.252,4.017-0.399,6.139c-0.669,2.181-1.996,3.917-3.168,5.448  c-0.434,0.566-1.039,1.357-1.352,1.894c0.408,0.468,1.151,1.131,1.684,1.606c1.438,1.283,3.068,2.738,4.136,4.755  c1.038,1.961,1.308,4.082,1.546,5.953c0.093,0.728,0.236,1.856,0.416,2.466c0.633,0.063,1.77-0.008,2.501-0.055  C282.474,232.551,283.274,232.5,284.1,232.5z M279.335,232.966L279.335,232.966L279.335,232.966z M278.882,232.592 M309.913,230.065  L309.913,230.065L309.913,230.065z M310.286,229.613L310.286,229.613L310.286,229.613z M271.171,217.521 M275.982,202.014  L275.982,202.014L275.982,202.014z M276.356,201.562 M307.386,199.035L307.386,199.035L307.386,199.035z M306.935,198.661  L306.935,198.661L306.935,198.661z" fill="#1F4499"/><path d="M283.553,286.532c-9.204-0.021-22.719-1.939-34.838-10.957c-10.945-8.145-18.563-20.778-21.451-35.574  l9.814-1.916c1.705,8.735,6.144,20.938,17.606,29.467c9.931,7.391,21.193,8.963,28.892,8.98L283.553,286.532z" fill="#1F4499"/><path d="M205.089,267.59c-5.688-10.069-9.758-21.258-12.1-33.256l9.814-1.916  c2.136,10.942,5.834,21.121,10.993,30.254L205.089,267.59z" fill="#1F4499"/><path d="M291.442,315.725c-16.136-0.036-39.814-3.386-60.98-19.137c-6.689-4.978-12.688-10.892-17.827-17.579  l7.929-6.094c4.579,5.957,9.917,11.223,15.868,15.65c18.979,14.122,40.403,17.126,55.034,17.159L291.442,315.725z" fill="#1F4499"/><path d="M312.348,356.546c-25.738-0.059-63.492-5.393-97.184-30.463c-41.02-30.523-54.986-75.255-59.661-99.202  l9.814-1.916c4.398,22.529,17.497,64.581,55.816,93.095c31.504,23.443,67.004,28.432,91.238,28.486L312.348,356.546z" fill="#1F4499"/><rect fill="#1F4499" height="17.952" transform="matrix(0.7707 0.6372 -0.6372 0.7707 135.6695 -198.4805)" width="10" x="338.61" y="80.287"/><rect fill="#1F4499" height="17.951" transform="matrix(0.6874 0.7263 -0.7263 0.6874 115.5183 -76.3074)" width="10" x="141.405" y="87.067"/><rect fill="#1F4499" height="50.088" transform="matrix(0.6873 0.7264 -0.7264 0.6873 104.0409 -107.685)" width="10" x="172.093" y="41.954"/><rect fill="#1F4499" height="36.679" transform="matrix(0.7707 0.6372 -0.6372 0.7707 133.9109 -227.0302)" width="10" x="377.398" y="54.206"/><path d="M105.97,103.584l-6.085-7.936c8.288-6.356,48.085-42.826,48.486-43.193l6.758,7.371  C153.478,61.339,114.604,96.963,105.97,103.584z" fill="#1F4499"/><rect fill="#1F4697" height="9.047" width="9.046" x="184.679" y="199.276"/><rect fill="#1F4697" height="9.047" width="9.047" x="111.113" y="226.467"/><rect fill="#1F4697" height="9.047" width="9.047" x="216.652" y="188.968"/><rect fill="#1F4697" height="9.047" width="9.047" x="197.122" y="152.548"/><rect fill="#1F4697" height="9.047" width="9.047" x="334.302" y="375.296"/><rect fill="#1F4697" height="9.047" width="9.047" x="340.753" y="418.172"/><rect fill="#1F4697" height="9.047" width="9.047" x="303.909" y="390.231"/></svg>