<?xml version="1.0" ?><!DOCTYPE svg  PUBLIC '-//W3C//DTD SVG 1.1//EN'  'http://www.w3.org/Graphics/SVG/1.1/DTD/svg11.dtd'><svg enable-background="new 0 0 512 512" height="512px" id="Black_x5F_Hole" version="1.1" viewBox="0 0 512 512" width="512px" xml:space="preserve" xmlns="http://www.w3.org/2000/svg" xmlns:xlink="http://www.w3.org/1999/xlink"><path d="M326.928,206.399c18.673,19.044,45.532,29.727,74.063,26.748c7.397-0.775,14.621-2.438,21.52-4.943v-26.692  c-16.064,9.824-34.173,14.735-52.271,14.735C355.41,216.247,340.602,212.943,326.928,206.399z" fill="#B8D2FF"/><path d="M89.49,42.4v292.204c16.227-16.177,37.304-26.245,60.394-28.659c24.757-2.584,49.067,3.912,69.096,18.344  c-18.232-26.242-49.834-42.059-83.801-38.509c-11.169,1.167-21.855,4.324-31.762,9.384l-4.549-8.904  c11.006-5.623,22.873-9.131,35.271-10.426c50.65-5.294,96.583,28.199,108.161,76.441c1.775-28.26-9.641-56.945-33.261-76.097  c-8.723-7.073-18.512-12.397-29.095-15.823l3.08-9.514c11.758,3.807,22.63,9.719,32.313,17.569  c39.076,31.685,48.136,86.864,23.367,128.974c22.334-18.69,35.302-47.795,32.056-78.875l9.945-1.039  c5.077,48.603-25.551,92.85-70.653,106.583c26.189-0.151,52.116-11.576,69.859-33.458c7.072-8.723,12.396-18.512,15.823-29.096  l9.514,3.082c-3.808,11.758-9.719,22.629-17.569,32.312c-19.834,24.461-48.885,37.163-78.163,37.163  c-14.755,0-29.559-3.244-43.283-9.811c2.44,2.491,5.019,4.873,7.769,7.103c18.777,15.226,42.361,22.231,66.406,19.716  c11.168-1.166,21.854-4.322,31.762-9.383l4.549,8.904c-11.007,5.623-22.875,9.131-35.271,10.426  c-3.556,0.371-7.105,0.555-10.631,0.555c-22.953,0-45.036-7.794-63.111-22.451c-15.462-12.537-26.612-28.984-32.484-47.535  c-1.878,28.456,9.847,56.99,33.43,76.117c0.75,0.609,1.56,1.239,2.442,1.902H422.51V238.772c-6.62,2.135-13.479,3.587-20.479,4.32  c-3.529,0.368-7.045,0.55-10.518,0.55c-43.808,0-82.343-28.658-95.561-69.654c-1.675,28.161,9.745,56.709,33.28,75.793  c8.723,7.073,18.512,12.396,29.094,15.823l-3.08,9.514c-11.758-3.808-22.63-9.718-32.313-17.569  c-38.771-31.438-47.989-86.003-23.937-127.985c0.182-0.37,0.371-0.736,0.56-1.103c-22.422,18.686-35.453,47.848-32.2,78.995  c0.199,1.903,0.461,3.825,0.778,5.711l-9.861,1.66c-0.353-2.092-0.643-4.223-0.862-6.332c-5.224-50.009,27.35-95.411,74.599-107.703  c2.051-0.669,4.151-1.229,6.302-1.66c-8.713-1.695-17.726-2.107-26.804-1.158c-24.045,2.512-45.672,14.236-60.897,33.014  c-7.073,8.724-12.397,18.513-15.823,29.095l-9.514-3.08c3.807-11.758,9.718-22.63,17.569-32.313  c16.908-20.853,40.925-33.873,67.626-36.662c24.754-2.585,49.068,3.917,69.1,18.353c-18.234-26.25-49.843-42.071-83.806-38.518  c-11.168,1.166-21.854,4.324-31.762,9.385l-4.549-8.905c11.008-5.623,22.875-9.131,35.271-10.426  c50.65-5.289,96.581,28.198,108.16,76.44c1.774-28.26-9.642-56.944-33.261-76.096c-8.722-7.072-18.511-12.396-29.094-15.823  l0.012-0.037H89.49z M124.264,71.498h9.046v9.046h-9.046V71.498z M140.626,152.81c-7.796,0-14.226,6.752-14.984,15.369  c0.033,0.565,0.055,1.135,0.055,1.709h-0.131h-9.869h-0.131c0-0.574,0.022-1.144,0.055-1.709  c-0.758-8.617-7.188-15.369-14.984-15.369v-0.266c-0.021,0-0.043,0.002-0.065,0.002v-10c7.797,0,14.227-6.755,14.984-15.374  c-0.033-0.564-0.055-1.131-0.055-1.704h0.131h9.869h0.131c0,0.573-0.022,1.14-0.055,1.704c0.756,8.619,7.187,15.374,14.984,15.374  v0.266c0.022,0,0.043-0.002,0.066-0.002V152.81z M150.82,222.194h-9.046v-9.047h9.046V222.194z M181.413,192.853h-9.047v-9.047  h9.047V192.853z M191.375,222.194h-9.046v-9.047h9.046V222.194z M212.927,103.495c-7.797,0-14.228,6.754-14.984,15.373  c0.033,0.564,0.055,1.132,0.055,1.704h-0.131h-9.869h-0.131c0-0.572,0.022-1.14,0.055-1.704  c-0.757-8.619-7.187-15.373-14.984-15.373v-0.267c-0.022,0-0.044,0.002-0.066,0.002v-10c7.795,0,14.226-6.752,14.984-15.369  c-0.033-0.565-0.055-1.134-0.055-1.708h0.131h9.869h0.131c0,0.574-0.022,1.143-0.055,1.708c0.758,8.617,7.188,15.369,14.984,15.369  v0.267c0.022,0,0.043-0.002,0.065-0.002V103.495z M383.731,396.462h-9.047v-9.047h9.047V396.462z M346.355,322.962  c7.795,0,14.224-6.75,14.983-15.365c-0.032-0.567-0.055-1.137-0.055-1.712h0.132h9.868h0.132c0,0.575-0.022,1.145-0.056,1.712  c0.761,8.615,7.189,15.365,14.984,15.365v0.266c0.021,0,0.043-0.001,0.065-0.001v10c-7.795,0-14.224,6.749-14.984,15.364  c0.033,0.567,0.056,1.137,0.056,1.713h-0.132h-9.868h-0.132c0-0.576,0.022-1.146,0.056-1.713  c-0.761-8.615-7.189-15.364-14.984-15.364v-0.267c-0.022,0-0.044,0.002-0.065,0.002V322.962z M338.429,375.599h9.047v9.046h-9.047  V375.599z M333.905,420.418h9.047v9.047h-9.047V420.418z M269.343,309.4c-1.637-7.885-4.317-15.506-7.968-22.652l8.904-4.549  c4.058,7.941,7.037,16.41,8.854,25.168L269.343,309.4z M270.651,224.008c1.559,5.232,3.608,10.35,6.092,15.21l-8.906,4.549  c-2.759-5.401-5.037-11.089-6.77-16.903L270.651,224.008z M235.29,240.251h9.046v9.046h-9.046V240.251z" fill="#B8D2FF"/><path d="M422.51,169.254c-12.843,17.621-31.09,30.649-52.189,36.971c18.26-0.017,36.521-5.562,52.189-16.687V169.254  z" fill="#B8D2FF"/><path d="M375.923,50.493c39.118,31.72,48.154,86.984,23.284,129.111c9.633-8.018,17.603-18.058,23.303-29.604V42.4  h-58.118C368.396,44.813,372.246,47.512,375.923,50.493z" fill="#B8D2FF"/><path d="M89.49,469.6h66.251c-15.02-14.544-25.202-33.481-28.967-54.164c-4.248-23.336-0.122-47.458,11.619-67.924  c0.007-0.013,0.016-0.025,0.023-0.039c0.202-0.414,0.415-0.82,0.627-1.229c-4.543,3.778-8.749,8.031-12.555,12.726  c-15.226,18.777-22.228,42.361-19.716,66.405c0.199,1.903,0.46,3.825,0.778,5.711l-9.861,1.66c-0.352-2.093-0.642-4.223-0.863-6.332  c-2.789-26.701,4.987-52.89,21.896-73.743c13.737-16.941,32.167-28.713,52.915-34.029c1.985-0.639,4.017-1.176,6.094-1.592  c-8.714-1.695-17.728-2.107-26.808-1.157c-24.046,2.514-45.674,14.239-60.899,33.018c-0.177,0.22-0.354,0.456-0.534,0.683V469.6z   M110.066,441.926c1.559,5.233,3.608,10.351,6.091,15.21l-8.905,4.549c-2.759-5.399-5.037-11.087-6.77-16.903L110.066,441.926z" fill="#B8D2FF"/><path d="M79.49,32.4V479.6h353.02V32.4H79.49z M369.624,58.261c23.619,19.151,35.035,47.836,33.261,76.096  c-11.579-48.242-57.51-81.729-108.16-76.44c-12.396,1.295-24.264,4.803-35.271,10.426l4.549,8.905  c9.907-5.061,20.594-8.219,31.762-9.385c33.963-3.554,65.571,12.268,83.806,38.518c-20.031-14.436-44.346-20.938-69.1-18.353  c-26.701,2.789-50.718,15.81-67.626,36.662c-7.851,9.683-13.763,20.555-17.569,32.313l9.514,3.08  c3.426-10.582,8.75-20.371,15.823-29.095c15.226-18.777,36.853-30.502,60.897-33.014c9.078-0.949,18.091-0.537,26.804,1.158  c-2.15,0.431-4.251,0.991-6.302,1.66c-47.249,12.292-79.822,57.694-74.599,107.703c0.22,2.109,0.51,4.24,0.862,6.332l9.861-1.66  c-0.317-1.886-0.579-3.808-0.778-5.711c-3.253-31.147,9.778-60.31,32.2-78.995c-0.188,0.366-0.378,0.732-0.56,1.103  c-24.053,41.982-14.834,96.548,23.937,127.985c9.683,7.852,20.555,13.762,32.313,17.569l3.08-9.514  c-10.582-3.427-20.371-8.75-29.094-15.823c-23.535-19.084-34.955-47.632-33.28-75.793c13.218,40.996,51.753,69.654,95.561,69.654  c3.473,0,6.988-0.182,10.518-0.55c6.999-0.733,13.858-2.186,20.479-4.32V469.6H171.091c-0.882-0.663-1.692-1.293-2.442-1.902  c-23.583-19.127-35.308-47.661-33.43-76.117c5.872,18.551,17.021,34.998,32.484,47.535c18.075,14.657,40.159,22.451,63.111,22.451  c3.526,0,7.075-0.184,10.631-0.555c12.397-1.295,24.265-4.803,35.271-10.426l-4.549-8.904c-9.907,5.061-20.593,8.217-31.762,9.383  c-24.045,2.516-47.628-4.49-66.406-19.716c-2.75-2.229-5.329-4.611-7.769-7.103c13.725,6.566,28.528,9.811,43.283,9.811  c29.278,0,58.329-12.702,78.163-37.163c7.851-9.683,13.762-20.554,17.569-32.312l-9.514-3.082  c-3.428,10.584-8.751,20.373-15.823,29.096c-17.743,21.882-43.669,33.307-69.859,33.458c45.102-13.733,75.73-57.98,70.653-106.583  l-9.945,1.039c3.246,31.08-9.722,60.185-32.056,78.875c24.769-42.109,15.709-97.289-23.367-128.974  c-9.683-7.851-20.554-13.763-32.313-17.569l-3.08,9.514c10.583,3.426,20.372,8.75,29.095,15.823  c23.62,19.151,35.036,47.837,33.261,76.097c-11.578-48.242-57.51-81.735-108.161-76.441c-12.398,1.295-24.265,4.803-35.271,10.426  l4.549,8.904c9.906-5.06,20.592-8.217,31.762-9.384c33.967-3.55,65.569,12.267,83.801,38.509  c-20.029-14.432-44.338-20.928-69.096-18.344c-23.09,2.414-44.167,12.482-60.394,28.659V42.4h251.052l-0.012,0.037  C351.113,45.864,360.902,51.188,369.624,58.261z M370.32,206.225c21.1-6.321,39.347-19.35,52.189-36.971v20.284  C406.841,200.663,388.58,206.208,370.32,206.225z M422.51,201.512v26.692c-6.898,2.506-14.122,4.168-21.52,4.943  c-28.53,2.979-55.39-7.704-74.063-26.748c13.674,6.544,28.482,9.848,43.311,9.848C388.337,216.247,406.445,211.336,422.51,201.512z   M390.101,175.312c-1.934,3.199-4.084,6.311-6.458,9.316c-5.218,5.844-11.905,10.361-19.511,12.946  c-4.27,1.118-8.729,1.933-13.266,2.416c-25.228,0.823-46.538-18.976-47.479-44.254c-0.285-7.669,1.343-14.97,4.441-21.457  c2.354-4.079,5.049-8.029,8.107-11.802l-0.01-0.008c5.122-5.427,11.554-9.614,18.81-12.05c4.231-1.091,8.592-1.888,13.063-2.363  c0.527-0.018,1.051-0.029,1.575-0.029c24.577,0,45.021,19.521,45.943,44.284C395.625,160.595,393.7,168.448,390.101,175.312z   M155.339,340.389c5.158-5.465,11.645-9.673,18.964-12.102c4.212-1.07,8.529-1.846,12.927-2.313  c0.527-0.018,1.053-0.029,1.578-0.029c11.635,0,22.673,4.326,31.248,12.284c9.005,8.358,14.216,19.723,14.673,32  c0.298,7.998-1.457,15.755-5.019,22.683c-2.033,3.396-4.312,6.695-6.84,9.875c-0.133,0.147-0.258,0.3-0.393,0.445  c-5.248,5.653-11.681,9.81-18.78,12.234c-4.326,1.132-8.79,1.953-13.368,2.44c-25.248,0.853-46.585-18.958-47.528-44.253  c-0.286-7.674,1.345-14.98,4.448-21.472c2.361-4.095,5.083-8.059,8.104-11.782L155.339,340.389z M90.024,348.909  c15.226-18.778,36.854-30.504,60.899-33.018c9.08-0.95,18.093-0.538,26.808,1.157c-2.078,0.416-4.109,0.953-6.094,1.592  c-20.749,5.316-39.178,17.088-52.915,34.029c-16.909,20.854-24.685,47.042-21.896,73.743c0.221,2.109,0.511,4.239,0.863,6.332  l9.861-1.66c-0.317-1.886-0.579-3.808-0.778-5.711c-2.512-24.044,4.49-47.628,19.716-66.405c3.806-4.694,8.011-8.947,12.555-12.726  c-0.212,0.409-0.425,0.815-0.627,1.229c-0.008,0.014-0.016,0.026-0.023,0.039c-11.741,20.466-15.866,44.588-11.619,67.924  c3.765,20.683,13.947,39.62,28.967,54.164H89.49V349.592C89.669,349.365,89.847,349.129,90.024,348.909z M422.51,150  c-5.7,11.547-13.67,21.587-23.303,29.604c24.87-42.127,15.834-97.392-23.284-129.111c-3.677-2.981-7.527-5.68-11.531-8.093h58.118  V150z" fill="#1F4499"/><path d="M140.56,142.546c-7.797,0-14.228-6.755-14.984-15.374c0.032-0.564,0.055-1.131,0.055-1.704H125.5h-9.869  H115.5c0,0.573,0.022,1.14,0.055,1.704c-0.757,8.619-7.187,15.374-14.984,15.374v10c0.022,0,0.043-0.002,0.065-0.002v0.266  c7.796,0,14.226,6.752,14.984,15.369c-0.033,0.565-0.055,1.135-0.055,1.709h0.131h9.869h0.131c0-0.574-0.022-1.144-0.055-1.709  c0.758-8.617,7.188-15.369,14.984-15.369v-10c-0.022,0-0.044,0.002-0.066,0.002V142.546z M120.631,153.586  c-1.603-2.289-3.535-4.292-5.717-5.934c2.156-1.632,4.065-3.617,5.652-5.883c1.603,2.289,3.534,4.292,5.717,5.934  C124.127,149.335,122.217,151.32,120.631,153.586z" fill="#1F4499"/><path d="M212.861,93.23c-7.796,0-14.226-6.752-14.984-15.369c0.033-0.565,0.055-1.134,0.055-1.708h-0.131h-9.869  h-0.131c0,0.574,0.022,1.143,0.055,1.708c-0.758,8.617-7.188,15.369-14.984,15.369v10c0.022,0,0.043-0.002,0.066-0.002v0.267  c7.797,0,14.227,6.754,14.984,15.373c-0.033,0.564-0.055,1.132-0.055,1.704h0.131h9.869h0.131c0-0.572-0.022-1.14-0.055-1.704  c0.757-8.619,7.188-15.373,14.984-15.373v-10c-0.022,0-0.043,0.002-0.065,0.002V93.23z M192.932,104.271  c-1.602-2.289-3.534-4.293-5.717-5.934c2.156-1.632,4.065-3.617,5.652-5.884c1.603,2.289,3.535,4.293,5.718,5.934  C196.428,100.021,194.519,102.006,192.932,104.271z" fill="#1F4499"/><path d="M346.421,333.227c7.795,0,14.224,6.749,14.984,15.364c-0.033,0.567-0.056,1.137-0.056,1.713h0.132h9.868  h0.132c0-0.576-0.022-1.146-0.056-1.713c0.761-8.615,7.189-15.364,14.984-15.364v-10c-0.022,0-0.044,0.001-0.065,0.001v-0.266  c-7.795,0-14.224-6.75-14.984-15.365c0.033-0.567,0.056-1.137,0.056-1.712h-0.132h-9.868h-0.132c0,0.575,0.022,1.145,0.055,1.712  c-0.76,8.615-7.188,15.365-14.983,15.365v10c0.021,0,0.043-0.002,0.065-0.002V333.227z M366.35,322.186  c1.603,2.289,3.534,4.292,5.718,5.934c-2.156,1.632-4.065,3.617-5.652,5.883c-1.603-2.289-3.534-4.292-5.717-5.934  C362.854,326.437,364.764,324.451,366.35,322.186z" fill="#1F4499"/><path d="M116.157,457.136c-2.482-4.859-4.532-9.977-6.091-15.21l-9.584,2.855c1.733,5.816,4.011,11.504,6.77,16.903  L116.157,457.136z" fill="#1F4499"/><path d="M261.375,286.748c3.65,7.146,6.331,14.768,7.968,22.652l9.791-2.033c-1.817-8.758-4.797-17.227-8.854-25.168  L261.375,286.748z" fill="#1F4499"/><path d="M173.973,407.709l3.833-9.235c-10.306-4.278-17.234-14.246-17.649-25.393  c-0.28-7.515,2.347-14.721,7.396-20.292l-7.409-6.715c-6.813,7.517-10.357,17.24-9.979,27.379  C150.725,388.491,160.07,401.938,173.973,407.709z" fill="#1F4499"/><path d="M189.834,400.626l0.372,9.993c6.768-0.252,13.361-2.278,19.069-5.859l-5.314-8.471  C199.737,398.939,194.852,400.439,189.834,400.626z" fill="#1F4499"/><path d="M187.703,343.404c2.419-0.094,4.833,0.121,7.173,0.631c12.763,2.775,22.016,13.842,22.503,26.914  c0.287,7.697-2.457,15.03-7.725,20.649l7.295,6.84c7.108-7.582,10.811-17.477,10.423-27.861  c-0.657-17.636-13.146-32.569-30.371-36.313c-3.159-0.688-6.414-0.975-9.671-0.854c-6.012,0.225-11.724,1.785-16.977,4.637  l4.771,8.788C179.012,344.725,183.244,343.57,187.703,343.404z" fill="#1F4499"/><path d="M276.743,239.218c-2.483-4.86-4.533-9.978-6.092-15.21l-9.584,2.855c1.732,5.814,4.011,11.502,6.77,16.903  L276.743,239.218z" fill="#1F4499"/><path d="M320.742,155.163c-0.279-7.515,2.348-14.721,7.396-20.291l-7.41-6.716  c-6.813,7.516-10.356,17.239-9.979,27.379c0.561,15.038,9.906,28.484,23.809,34.256l3.834-9.235  C328.087,176.277,321.158,166.31,320.742,155.163z" fill="#1F4499"/><path d="M350.42,182.708l0.373,9.993c6.768-0.252,13.361-2.278,19.068-5.859l-5.314-8.471  C360.322,181.021,355.438,182.521,350.42,182.708z" fill="#1F4499"/><path d="M357.587,116.346c-3.16-0.688-6.42-0.975-9.67-0.853c-6.012,0.224-11.724,1.783-16.978,4.636l4.771,8.788  c3.888-2.11,8.119-3.265,12.578-3.431c2.424-0.09,4.834,0.122,7.173,0.631c12.763,2.774,22.017,13.843,22.504,26.914  c0.286,7.697-2.457,15.031-7.726,20.649l7.295,6.84c7.108-7.581,10.81-17.476,10.423-27.861  C387.301,135.023,374.812,120.091,357.587,116.346z" fill="#1F4499"/><rect fill="#1F4499" height="9.047" width="9.046" x="141.774" y="213.147"/><rect fill="#1F4499" height="9.047" width="9.047" x="172.366" y="183.806"/><rect fill="#1F4499" height="9.046" width="9.046" x="124.264" y="71.498"/><rect fill="#1F4499" height="9.047" width="9.046" x="182.329" y="213.147"/><rect fill="#1F4499" height="9.046" width="9.046" x="235.29" y="240.251"/><rect fill="#1F4499" height="9.047" width="9.047" x="374.685" y="387.415"/><rect fill="#1F4499" height="9.046" width="9.047" x="338.429" y="375.599"/><rect fill="#1F4499" height="9.047" width="9.047" x="333.905" y="420.418"/></svg>