<?xml version="1.0" ?><!DOCTYPE svg  PUBLIC '-//W3C//DTD SVG 1.1//EN'  'http://www.w3.org/Graphics/SVG/1.1/DTD/svg11.dtd'><svg enable-background="new 0 0 512 512" height="512px" id="Planet" version="1.1" viewBox="0 0 512 512" width="512px" xml:space="preserve" xmlns="http://www.w3.org/2000/svg" xmlns:xlink="http://www.w3.org/1999/xlink"><path d="M143.534,129.871c-6.652,1.796-7.342,9.435-7.355,12.37c0.791,1.219,1.631,2.407,2.526,3.551  c0.787-2.071,1.956-4.152,3.717-5.999c4.172-4.374,10.302-6.176,18.227-5.349c15.674,1.632,33.402-3.704,35.298-19.268l9.927,1.209  c-2.324,19.081-21.342,30.601-46.26,28.005c-4.661-0.485-8.001,0.28-9.927,2.275c-1.974,2.045-2.447,5.36-2.461,7.604  c3.305,2.565,6.968,4.715,10.921,6.375c0.179-6.849,5.793-12.368,12.685-12.368c7.004,0,12.701,5.698,12.701,12.702  c0,1.075-0.148,2.113-0.401,3.11c7.847-0.986,15.377-3.896,22.011-8.599c0.683-0.483,1.349-0.983,2.001-1.497  c-0.438-1.498-4.645-16.814,2.862-27.249c3.485-4.843,8.728-7.766,15.605-8.733c0.518-10.807-2.55-21.411-8.904-30.377  c-0.911-1.286-1.879-2.516-2.895-3.695c-0.069,2.772-0.396,5.501-0.981,7.891c-2.543,10.38-9.466,16.821-19.494,18.135  c-16.049,2.104-14.992,11.87-14.939,12.285l-9.92,1.264c-0.883-6.932,2.905-20.755,23.56-23.463  c4.646-0.609,7.847-2.871,9.788-6.917c3.238-6.75,1.89-16.191,0.751-18.786c-2.791-1.723-5.761-3.156-8.871-4.285  c0.494,2.917,0.53,6.137-0.539,9.121c-1.287,3.593-3.952,6.299-7.707,7.824c-7.3,2.965-7.075,9.435-7.072,9.5l-9.988,0.479  c-0.027-0.555-0.493-13.642,13.297-19.245c1.403-0.57,1.825-1.292,2.054-1.922c0.801-2.215-0.135-5.802-1.145-8.384  c-1.89-0.22-3.771-0.336-5.633-0.336c-6.391,0-12.578,1.273-18.281,3.6c0.815,0.53,1.593,1.131,2.3,1.837  c6.541,6.541,5.484,18.24-2.354,26.079c-4.383,4.383-9.973,6.646-15.192,6.646c-4.116,0-8.003-1.408-10.887-4.292  c-0.51-0.509-0.956-1.059-1.374-1.626c-0.945,2.641-1.68,5.397-2.167,8.256c-1.212,7.107-0.796,14.119,0.954,20.667  c2.271-3.592,5.756-6.648,10.959-8.053c12.787-3.452,12.019-9.344,11.69-11.86l9.916-1.293  C163.366,113.44,162.004,124.883,143.534,129.871z" fill="#B8D2FF"/><path d="M114.39,165.559c2.526,0,4.581-2.055,4.581-4.581s-2.055-4.581-4.581-4.581c-2.525,0-4.58,2.055-4.58,4.581  S111.864,165.559,114.39,165.559z" fill="#B8D2FF"/><path d="M277.188,217.565c4.464,0,8.096-3.631,8.096-8.096c0-4.464-3.632-8.095-8.096-8.095  s-8.096,3.631-8.096,8.095C269.092,213.934,272.724,217.565,277.188,217.565z" fill="#B8D2FF"/><path d="M326.387,378.219c6.145,2.438,13.127-0.574,15.566-6.717c1.182-2.977,1.134-6.234-0.135-9.174  c-1.27-2.941-3.606-5.211-6.582-6.393c-1.447-0.574-2.941-0.848-4.41-0.848c-4.771,0-9.29,2.867-11.155,7.564  C317.231,368.795,320.244,375.777,326.387,378.219z" fill="#B8D2FF"/><path d="M89.49,469.6h78.026c-3.229-2.07-6.021-4.805-8.195-8.104c-8.446-12.809-4.897-30.104,7.912-38.549  l5.505,8.348c-8.206,5.41-10.479,16.49-5.068,24.697c5.411,8.205,16.489,10.479,24.696,5.068l5.505,8.348  c-0.103,0.068-0.211,0.125-0.314,0.191h37.576c0.934-0.848,1.841-1.703,2.711-2.555c11.487-11.152,20.477-24.701,26.362-39.594  c-0.646,0.053-1.294,0.088-1.939,0.088c-7.874,0-15.558-3.854-20.213-10.914c-3.562-5.4-4.808-11.865-3.508-18.203  c1.3-6.34,4.992-11.795,10.396-15.357c7.109-4.688,15.831-5.186,23.15-1.941c-0.79-20.627-7.158-40.494-18.676-57.961  c-16.695-25.32-42.253-42.623-71.964-48.723c-29.712-6.098-60.019-0.262-85.34,16.436c-2.234,1.473-4.454,3.051-6.622,4.711v2.27  c8.617,1.422,16.406,5.99,21.861,12.982l-7.884,6.15c-3.547-4.545-8.478-7.658-13.978-8.945v4.131  c4.25,1.203,8.05,3.725,10.82,7.277c3.453,4.43,4.975,9.938,4.285,15.51c-0.688,5.57-3.506,10.539-7.931,13.988  c-2.161,1.686-4.59,2.918-7.175,3.654v4.127c3.475-0.818,6.747-2.365,9.636-4.623l6.155,7.881  c-4.672,3.65-10.063,5.992-15.791,6.934V469.6z M191.511,457.248L191.511,457.248c-2.302,1.516-4.939,2.301-7.634,2.301  c-0.939,0-1.885-0.094-2.826-0.287c-3.643-0.748-6.774-2.869-8.821-5.973c-4.225-6.406-2.449-15.057,3.957-19.279  c3.104-2.049,6.817-2.764,10.46-2.016c3.642,0.748,6.774,2.867,8.821,5.971C199.692,444.373,197.917,453.021,191.511,457.248z   M190.999,391.557c0.461,0.725,1.133,0.967,1.493,1.047c0.36,0.082,1.072,0.146,1.796-0.314l5.365,8.439  c-2.055,1.307-4.353,1.93-6.623,1.93c-4.099,0-8.113-2.027-10.471-5.736c-3.663-5.762-1.955-13.43,3.807-17.094  c5.764-3.662,13.431-1.955,17.094,3.807L195.021,389c-0.704-1.109-2.18-1.438-3.289-0.732  C190.623,388.973,190.294,390.447,190.999,391.557z M239.534,373.354l5.505,8.35c-11.905,7.85-15.204,23.922-7.354,35.828  l-8.349,5.504C218.451,406.527,223.025,384.24,239.534,373.354z M174.96,306.238c7.816-5.152,18.367-2.988,23.521,4.826  c5.153,7.816,2.988,18.367-4.827,23.521c-2.872,1.893-6.113,2.799-9.32,2.799c-5.521,0-10.94-2.684-14.2-7.627  C164.979,321.943,167.145,311.391,174.96,306.238z M167.517,331.531c5.669,9.719,18.188,13.018,27.909,7.348  c4.709-2.746,8.066-7.16,9.454-12.432c1.389-5.271,0.641-10.77-2.106-15.477l8.639-5.039c4.092,7.016,5.206,15.207,3.139,23.061  c-2.068,7.855-7.07,14.434-14.087,18.525c-4.805,2.801-10.069,4.133-15.268,4.135c-10.471,0-20.673-5.404-26.318-15.084  L167.517,331.531z M129.584,292.303c1.423-2.984,3.925-5.236,7.042-6.342c3.119-1.104,6.479-0.928,9.465,0.496  c6.162,2.939,8.785,10.344,5.847,16.508l-9.026-4.305c0.565-1.186,0.061-2.611-1.125-3.178c-0.775-0.369-1.474-0.219-1.821-0.094  c-0.348,0.121-0.985,0.443-1.355,1.219c-0.37,0.777-0.219,1.475-0.096,1.822s0.445,0.984,1.221,1.355l-4.305,9.025  c-2.985-1.424-5.238-3.926-6.342-7.043C127.983,298.65,128.159,295.289,129.584,292.303z M101.667,378.135  c6.822-4.615,16.126-2.818,20.739,4.002c2.236,3.305,3.051,7.281,2.295,11.199c-0.756,3.916-2.992,7.305-6.297,9.541l-5.603-8.283  c1.092-0.74,1.831-1.859,2.08-3.154c0.25-1.293-0.02-2.607-0.758-3.699c-1.525-2.256-4.6-2.848-6.854-1.322  s-2.848,4.598-1.322,6.852l-8.282,5.604C93.051,392.053,94.846,382.748,101.667,378.135z" fill="#B8D2FF"/><path d="M265.634,321.439c1.003-1.697,1.284-3.684,0.792-5.596c-0.49-1.91-1.696-3.516-3.396-4.518  c-1.908-1.129-4.177-1.322-6.195-0.611c1.711,2.248,3.358,4.561,4.93,6.943c1.063,1.611,2.072,3.246,3.054,4.895  C265.119,322.209,265.396,321.842,265.634,321.439z" fill="#B8D2FF"/><path d="M133.945,259.73c-2.16,1.424-3.726,3.49-4.542,5.828c6.59-1.607,13.304-2.656,20.083-3.148  C145.854,257.604,139.048,256.367,133.945,259.73z" fill="#B8D2FF"/><path d="M339.853,187.838c-0.306,0.992-0.593,1.993-0.858,3.003c1.039,3.09,6.47,14.821,15.639,14.136  c4.138-0.312,7.711,1.077,10.342,4.017c4.926,5.503,5.292,15.565,4.76,22.917c5.04-1.828,10.267-3.854,15.625-6.046  c0.028-10.819-1.783-17.871-5.408-20.961c-2.67-2.275-6.899-2.754-13.31-1.505c-8.486,1.648-17.069-2.791-24.817-12.846  C341.111,189.628,340.458,188.719,339.853,187.838z" fill="#B8D2FF"/><path d="M405.929,137.72c-5.478,0.151-10.932,0.939-16.239,2.341c3.583,2.208,7.405,5.716,10.867,11.487  c2.375,3.968,10.873,9.257,21.953,12.472v-9.572C414.441,151.41,408.793,145.711,405.929,137.72z" fill="#B8D2FF"/><path d="M343.535,178.334l0.013,0.006c0.026-0.054,0.04-0.106,0.063-0.16  C343.587,178.232,343.561,178.283,343.535,178.334z" fill="#B8D2FF"/><path d="M354.91,161.274c-0.978,1.084-1.93,2.189-2.836,3.328c0.984,4.016,4.086,12.93,12.293,13.477  c1.98,0.133,4.057,0.229,6.184,0.327c14.305,0.664,32.108,1.49,38.962,14.643c0.618,1.185,1.319,2.654,2.13,4.356  c1.749,3.667,4.025,8.422,6.943,13.419c1.115-0.553,2.224-1.107,3.321-1.662c-1.743-3.082-3.3-6.42-4.624-9.981l-4.42-11.887  l9.646,4.824v-4.122c-3.676-1.106-7.33-2.345-10.893-3.554c-10.338-3.507-20.104-6.822-27.891-6.105  c-9.693,0.89-17.33-1.337-22.694-6.624C357.825,168.555,355.975,164.772,354.91,161.274z" fill="#B8D2FF"/><path d="M290.784,257.301c1.396,2.934,14.304,7.777,56.731-4.824c13.068-3.875,27.135-8.917,41.813-14.988  c8.756-3.608,17.674-7.569,26.514-11.774c2.043-0.972,4.064-1.943,6.067-2.925c0.2-0.099,0.399-0.198,0.601-0.296v-2.45  c-2.503,1.239-5.042,2.472-7.6,3.69c-7.676,3.647-15.307,7.055-22.687,10.131c-9.394,3.918-18.435,7.344-26.868,10.184  c-8.438,2.842-16.191,5.081-23.048,6.654c-7.804,1.795-14.202,2.698-19.291,2.699c-7.764,0-12.479-2.102-14.501-6.342  c-3.24-6.841,2.293-15.661,17.369-27.602C297.123,239.814,288.887,253.315,290.784,257.301z" fill="#B8D2FF"/><path d="M408.422,277.689c-9.367-6.426-16.885-16.686-20.614-28.785c-3.501,1.403-6.964,2.743-10.388,4.027  C383.995,262.17,394.48,273.469,408.422,277.689z" fill="#B8D2FF"/><path d="M79.49,32.4v258.344v20.416v42.477V479.6h159.433H432.51V32.4H79.49z M99.126,352.107  c-2.889,2.258-6.161,3.805-9.636,4.623v-4.127c2.585-0.736,5.014-1.969,7.175-3.654c4.425-3.449,7.242-8.418,7.931-13.988  c0.689-5.572-0.832-11.08-4.285-15.51c-2.771-3.553-6.57-6.074-10.82-7.277v-4.131c5.5,1.287,10.431,4.4,13.978,8.945l7.884-6.15  c-5.455-6.992-13.244-11.561-21.861-12.982v-2.27c2.168-1.66,4.388-3.238,6.622-4.711c25.321-16.697,55.628-22.533,85.34-16.436  c29.711,6.1,55.269,23.402,71.964,48.723c11.518,17.467,17.886,37.334,18.676,57.961c-7.319-3.244-16.041-2.746-23.15,1.941  c-5.403,3.563-9.096,9.018-10.396,15.357c-1.3,6.338-0.054,12.803,3.508,18.203c4.655,7.061,12.339,10.914,20.213,10.914  c0.646,0,1.293-0.035,1.939-0.088c-5.886,14.893-14.875,28.441-26.362,39.594c-0.87,0.852-1.777,1.707-2.711,2.555h-37.576  c0.104-0.066,0.212-0.123,0.314-0.191l-5.505-8.348c-8.207,5.41-19.285,3.137-24.696-5.068c-5.411-8.207-3.138-19.287,5.068-24.697  l-5.505-8.348c-12.81,8.445-16.358,25.74-7.912,38.549c2.175,3.299,4.967,6.033,8.195,8.104H89.49V366.922  c5.729-0.941,11.119-3.283,15.791-6.934L99.126,352.107z M89.49,341.775V322.98c1.114,0.682,2.11,1.564,2.934,2.621  c1.812,2.322,2.609,5.209,2.248,8.131c-0.361,2.92-1.837,5.523-4.154,7.33l-0.004,0.002  C90.184,341.322,89.842,341.561,89.49,341.775z M129.403,265.559c0.816-2.338,2.382-4.404,4.542-5.828  c5.103-3.364,11.908-2.127,15.541,2.68C142.707,262.902,135.993,263.951,129.403,265.559z M256.835,310.715  c2.019-0.711,4.287-0.518,6.195,0.611c1.699,1.002,2.905,2.607,3.396,4.518c0.492,1.912,0.211,3.898-0.792,5.596  c-0.237,0.402-0.515,0.77-0.815,1.113c-0.981-1.648-1.991-3.283-3.054-4.895C260.193,315.275,258.546,312.963,256.835,310.715z   M271.938,392.865c-0.504,7.92-1.843,15.789-3.989,23.459c-6.26,2.742-13.68,0.66-17.547-5.203  c-2.092-3.172-2.823-6.969-2.061-10.691c0.764-3.723,2.932-6.924,6.104-9.016C259.995,387.754,267.205,388.451,271.938,392.865z   M308.516,247.061c2.021,4.24,6.737,6.342,14.501,6.342c5.089-0.001,11.487-0.904,19.291-2.699  c6.856-1.573,14.61-3.813,23.048-6.654c8.434-2.84,17.475-6.266,26.868-10.184c7.38-3.076,15.011-6.484,22.687-10.131  c2.558-1.218,5.097-2.451,7.6-3.69v2.45c-0.201,0.099-0.4,0.198-0.601,0.296c-2.003,0.982-4.024,1.953-6.067,2.925  c-8.84,4.205-17.758,8.166-26.514,11.774c-14.678,6.071-28.744,11.113-41.813,14.988c-42.428,12.601-55.336,7.757-56.731,4.824  c-1.897-3.986,6.339-17.486,35.101-37.841C310.809,231.4,305.275,240.22,308.516,247.061z M329.311,229.574  c1.141,4.324,2.649,8.556,4.504,12.663c-10.105,1.797-14.736,1.119-16.123,0.46C318.076,241.113,320.703,236.808,329.311,229.574z   M366.642,203.399c6.41-1.249,10.64-0.771,13.31,1.505c3.625,3.09,5.437,10.143,5.408,20.961  c-5.358,2.191-10.585,4.218-15.625,6.046c0.532-7.353,0.166-17.415-4.76-22.917c-2.631-2.939-6.204-4.328-10.342-4.017  c-9.169,0.686-14.6-11.045-15.639-14.136c0.266-1.01,0.553-2.011,0.858-3.003c0.605,0.88,1.259,1.79,1.972,2.714  C349.572,200.608,358.155,205.047,366.642,203.399z M343.535,178.334c0.025-0.052,0.052-0.103,0.076-0.154  c-0.023,0.054-0.037,0.106-0.063,0.16L343.535,178.334z M422.51,154.448v9.572c-11.08-3.215-19.578-8.504-21.953-12.472  c-3.462-5.771-7.284-9.278-10.867-11.487c5.308-1.402,10.762-2.19,16.239-2.341C408.793,145.711,414.441,151.41,422.51,154.448z   M417.32,138.353c1.739,0.236,3.473,0.521,5.189,0.882v4.146C420.386,142.07,418.663,140.395,417.32,138.353z M391.979,156.688  c4.938,8.251,18.257,14.575,30.53,17.697v3.137c-2.573-0.821-5.15-1.689-7.68-2.548c-11.373-3.858-22.12-7.505-32.018-6.593  c-6.6,0.605-11.549-0.654-14.719-3.747c-3.566-3.479-4.376-8.672-4.542-11.489c3.688-2.925,7.675-5.482,11.896-7.638  c0.539,0.142,1.092,0.273,1.681,0.404C381.212,146.819,386.805,148.063,391.979,156.688z M383.727,178.339  c7.787-0.717,17.553,2.598,27.891,6.105c3.563,1.209,7.217,2.448,10.893,3.554v4.122l-9.646-4.824l4.42,11.887  c1.324,3.561,2.881,6.899,4.624,9.981c-1.098,0.555-2.206,1.108-3.321,1.662c-2.918-4.997-5.194-9.752-6.943-13.419  c-0.811-1.702-1.512-3.172-2.13-4.356c-6.854-13.153-24.657-13.979-38.962-14.643c-2.127-0.099-4.203-0.194-6.184-0.327  c-8.207-0.546-11.309-9.46-12.293-13.477c0.906-1.139,1.858-2.244,2.836-3.328c1.064,3.498,2.915,7.281,6.122,10.441  C366.396,177.002,374.033,179.229,383.727,178.339z M363.701,188.057c2.043,0.137,4.188,0.237,6.386,0.339  c12.356,0.574,26.362,1.224,30.56,9.278c0.536,1.028,1.201,2.421,1.971,4.036c1.756,3.683,4.011,8.407,6.939,13.489  c-4.801,2.269-9.575,4.436-14.279,6.486c-0.502-11.872-3.363-19.724-8.84-24.392c-6.797-5.792-15.643-4.891-21.707-3.71  c-8.506,1.657-17.4-11.741-20.197-17.282c0.244-0.475,0.502-0.94,0.756-1.409C348.338,180.943,353.873,187.402,363.701,188.057z   M355.384,214.949c1.292-0.099,1.767,0.299,2.138,0.712c2.752,3.07,2.717,12.742,1.777,19.86c-5.531,1.806-10.709,3.316-15.48,4.525  c-0.092-0.188-0.182-0.372-0.275-0.567c-2.977-6.247-5.016-12.842-6.064-19.622c-0.535-3.37-0.82-6.878-0.849-10.418  c-0.007-0.993,0.017-1.984,0.052-2.975C341.974,212.535,348.426,215.469,355.384,214.949z M367.693,256.45  c4.255,6.31,10.314,13.857,18.135,20.142c-10.387-3.387-19.979-9.131-27.88-16.881C361.148,258.686,364.397,257.598,367.693,256.45z   M377.42,252.932c3.424-1.284,6.887-2.624,10.388-4.027c3.729,12.099,11.247,22.359,20.614,28.785  C394.48,273.469,383.995,262.17,377.42,252.932z M397.098,245.071c7.639-3.22,15.366-6.675,23.04-10.326  c0.798-0.379,1.58-0.763,2.372-1.144v15.161c-2.017,0.047-3.771,0.66-5.112,1.855c-4.792,4.254-0.489,9.589,1.349,11.869  c1.129,1.4,2.676,3.318,2.836,4.494c0.109,0.807,0.38,1.764,0.928,2.742v3.914C410.973,270.049,401.076,259.018,397.098,245.071z   M422.51,71.052c-48.529-1.264-107.781,10.409-167.603,33.093l3.546,9.351c57.871-21.945,117.304-33.667,164.057-32.44v22.466  c-54.318,5.617-124.594,36.952-189.195,84.533c-23.207,17.096-44.728,35.534-63.965,54.804l7.077,7.064  c18.882-18.913,40.017-37.02,62.818-53.816c62.828-46.276,130.813-76.821,183.265-82.533v15.487  c-3.156-0.581-6.344-1.001-9.541-1.21c-13.693-0.876-27.515,1.793-39.977,7.714c-6.385,3.037-12.336,6.875-17.686,11.412  c-13.061,11.069-22.152,25.755-26.289,42.469c-1.408,5.666-2.195,11.48-2.355,17.329c-25.064,16.834-52.209,39.483-44.908,54.824  c3.146,6.615,11.458,9.082,22.107,9.08c12.738,0,28.816-3.529,43.387-7.705c15.418,17.289,37.738,27.156,60.73,27.156  c3.635,0,7.287-0.246,10.93-0.748l0.354-0.049c1.079-0.152,2.163-0.336,3.247-0.535V469.6H249.304  c12.734-13.744,22.249-30.346,27.655-48.395c2.924-9.752,4.639-19.836,5.096-29.971c0.956-20.818-3.303-41.162-12.357-59.662  c1.816-1.369,3.387-3.084,4.547-5.047c2.36-3.998,3.023-8.674,1.867-13.172s-3.996-8.277-7.996-10.639  c-5.547-3.275-12.385-3.197-17.822,0.094c-2.114-2.35-4.313-4.607-6.587-6.773c10.382-10.936,16.557-17.172,27.009-26.641  l-6.713-7.41c-10.712,9.703-17.288,16.355-27.818,27.449c-15.146-12.234-33.099-20.762-52.721-24.789  c-7.622-1.564-15.28-2.398-22.895-2.533c-0.581-1.617-1.349-3.172-2.294-4.605c-6.537-9.914-19.921-12.661-29.834-6.125  c-5.923,3.906-9.447,10.392-9.66,17.294c-9.818,3.361-19.279,7.986-28.172,13.85c-0.374,0.246-0.745,0.504-1.118,0.756v-57.745  c13.399-18.764,34.69-38.411,61.792-57.029c4.902,2.394,10.213,4.15,15.856,5.112c3.333,0.568,6.668,0.85,9.982,0.85  c12.045,0,23.775-3.712,33.803-10.819c12.786-9.063,21.278-22.562,23.911-38.012c4.04-23.703-6.82-46.556-25.754-58.965  c-0.064-0.05-0.128-0.106-0.195-0.153l-0.01,0.014c-6.491-4.215-13.92-7.212-22.022-8.593c-19.448-3.314-38.32,3.41-51.328,16.387  c-0.204,0.191-0.416,0.367-0.616,0.566c-0.538,0.539-1.037,1.098-1.511,1.669c-7.199,7.977-12.306,18.005-14.241,29.359  c-3.824,22.437,5.707,44.107,22.793,56.885c-21.479,15.118-39.315,30.923-52.46,46.466V42.4h333.02V71.052z M162.534,107.063  l-9.916,1.293c0.328,2.516,1.097,8.408-11.69,11.86c-5.203,1.405-8.688,4.461-10.959,8.053c-1.75-6.548-2.166-13.56-0.954-20.667  c0.487-2.859,1.222-5.615,2.167-8.256c0.418,0.567,0.864,1.117,1.374,1.626c2.884,2.884,6.771,4.292,10.887,4.292  c5.22,0,10.81-2.263,15.192-6.646c7.839-7.839,8.896-19.538,2.354-26.079c-0.707-0.707-1.484-1.307-2.3-1.837  c5.703-2.327,11.891-3.6,18.281-3.6c1.862,0,3.743,0.116,5.633,0.336c1.01,2.582,1.945,6.168,1.145,8.384  c-0.229,0.631-0.65,1.353-2.054,1.922c-13.79,5.603-13.324,18.69-13.297,19.245l9.988-0.479c-0.003-0.065-0.228-6.535,7.072-9.5  c3.755-1.525,6.42-4.231,7.707-7.824c1.069-2.984,1.033-6.204,0.539-9.121c3.11,1.129,6.08,2.562,8.871,4.285  c1.139,2.595,2.487,12.035-0.751,18.786c-1.941,4.045-5.143,6.307-9.788,6.917c-20.654,2.708-24.442,16.531-23.56,23.463l9.92-1.264  c-0.053-0.415-1.109-10.18,14.939-12.285c10.028-1.314,16.951-7.755,19.494-18.135c0.585-2.39,0.912-5.119,0.981-7.891  c1.016,1.179,1.983,2.409,2.895,3.695c6.354,8.966,9.422,19.57,8.904,30.377c-6.878,0.967-12.12,3.89-15.605,8.733  c-7.507,10.434-3.3,25.75-2.862,27.249c-0.652,0.514-1.318,1.014-2.001,1.497c-6.634,4.703-14.164,7.613-22.011,8.599  c0.253-0.997,0.401-2.035,0.401-3.11c0-7.004-5.697-12.702-12.701-12.702c-6.892,0-12.506,5.52-12.685,12.368  c-3.953-1.661-7.616-3.811-10.921-6.375c0.014-2.245,0.487-5.559,2.461-7.604c1.926-1.995,5.266-2.76,9.927-2.275  c24.918,2.596,43.936-8.924,46.26-28.005l-9.927-1.209c-1.896,15.564-19.624,20.9-35.298,19.268  c-7.925-0.827-14.055,0.975-18.227,5.349c-1.761,1.847-2.93,3.928-3.717,5.999c-0.896-1.144-1.735-2.332-2.526-3.551  c0.014-2.935,0.703-10.574,7.355-12.37C162.004,124.883,163.366,113.44,162.534,107.063z M141.167,82.858  c0.387-0.42,0.785-0.828,1.186-1.234c2.378-2.216,5.271-3.431,7.733-3.431c1.52,0,2.872,0.458,3.832,1.418  c2.597,2.597,1.52,8.063-2.354,11.937c-3.875,3.873-9.342,4.952-11.938,2.354C137.223,91.498,137.973,86.639,141.167,82.858z   M203.116,74.684c0.013,0.008,0.024,0.016,0.036,0.024l-0.002,0.003C203.138,74.702,203.129,74.693,203.116,74.684z M223.956,128.59  c-1.658,6.12-4.466,11.781-8.262,16.74c-0.372-4.159-0.075-9.284,2.443-12.766C219.486,130.701,221.42,129.391,223.956,128.59z   M173.532,160.979c0,1.49-1.212,2.702-2.701,2.702c-1.49,0-2.702-1.212-2.702-2.702s1.212-2.702,2.702-2.702  C172.32,158.277,173.532,159.489,173.532,160.979z" fill="#1F4499"/><path d="M191.731,388.268c1.109-0.705,2.585-0.377,3.289,0.732l8.439-5.365c-3.663-5.762-11.33-7.469-17.094-3.807  c-5.762,3.664-7.47,11.332-3.807,17.094c2.357,3.709,6.372,5.736,10.471,5.736c2.271,0,4.568-0.623,6.623-1.93l-5.365-8.439  c-0.724,0.461-1.436,0.396-1.796,0.314c-0.36-0.08-1.032-0.322-1.493-1.047C190.294,390.447,190.623,388.973,191.731,388.268z" fill="#1F4499"/><path d="M105.948,393.27c-1.525-2.254-0.932-5.326,1.322-6.852s5.328-0.934,6.854,1.322  c0.738,1.092,1.008,2.406,0.758,3.699c-0.249,1.295-0.988,2.414-2.08,3.154l5.603,8.283c3.305-2.236,5.541-5.625,6.297-9.541  c0.756-3.918-0.059-7.895-2.295-11.199c-4.613-6.82-13.917-8.617-20.739-4.002c-6.821,4.613-8.616,13.918-4.001,20.738  L105.948,393.27z" fill="#1F4499"/><path d="M135.43,308.811l4.305-9.025c-0.775-0.371-1.098-1.008-1.221-1.355s-0.274-1.045,0.096-1.822  c0.37-0.775,1.008-1.098,1.355-1.219c0.348-0.125,1.046-0.275,1.821,0.094c1.186,0.566,1.69,1.992,1.125,3.178l9.026,4.305  c2.938-6.164,0.315-13.568-5.847-16.508c-2.985-1.424-6.346-1.6-9.465-0.496c-3.117,1.105-5.619,3.357-7.042,6.342  c-1.425,2.986-1.601,6.348-0.496,9.465C130.191,304.885,132.444,307.387,135.43,308.811z" fill="#1F4499"/><rect fill="#1F4499" height="9.047" width="9.047" x="344.846" y="322.539"/><rect fill="#1F4499" height="9.047" width="9.047" x="394.889" y="347.002"/><rect fill="#1F4499" height="9.047" width="9.047" x="360.355" y="398.768"/><rect fill="#1F4499" height="9.047" width="9.047" x="390.365" y="435.684"/><rect fill="#1F4499" height="9.047" width="9.047" x="318.713" y="425.488"/><path d="M184.333,337.385c3.207,0,6.448-0.906,9.32-2.799c7.815-5.154,9.98-15.705,4.827-23.521  c-5.153-7.814-15.704-9.979-23.521-4.826c-7.815,5.152-9.98,15.705-4.827,23.52C173.393,334.701,178.813,337.385,184.333,337.385z   M180.465,314.586c1.181-0.777,2.513-1.15,3.831-1.15c2.269,0,4.496,1.104,5.836,3.135c2.118,3.213,1.229,7.549-1.983,9.666  c-3.213,2.119-7.549,1.229-9.667-1.982C176.363,321.041,177.253,316.705,180.465,314.586z" fill="#1F4499"/><path d="M185.196,351.652c5.198-0.002,10.463-1.334,15.268-4.135c7.017-4.092,12.019-10.67,14.087-18.525  c2.067-7.854,0.953-16.045-3.139-23.061l-8.639,5.039c2.747,4.707,3.495,10.205,2.106,15.477c-1.388,5.271-4.745,9.686-9.454,12.432  c-9.721,5.67-22.24,2.371-27.909-7.348l-8.639,5.037C164.523,346.248,174.726,351.652,185.196,351.652z" fill="#1F4499"/><path d="M237.686,417.531c-7.851-11.906-4.552-27.979,7.354-35.828l-5.505-8.35  c-16.509,10.887-21.083,33.174-10.197,49.682L237.686,417.531z" fill="#1F4499"/><path d="M186.646,431.994c-3.643-0.748-7.356-0.033-10.46,2.016c-6.406,4.223-8.182,12.873-3.957,19.279  c2.047,3.104,5.179,5.225,8.821,5.973c0.941,0.193,1.887,0.287,2.826,0.287c2.694,0,5.332-0.785,7.633-2.301h0.001  c6.406-4.227,8.182-12.875,3.957-19.283C193.421,434.861,190.288,432.742,186.646,431.994z M187.687,446.416  c-0.21,1.023-0.808,1.906-1.681,2.482c-1.804,1.189-4.238,0.689-5.428-1.113c-0.576-0.875-0.777-1.92-0.567-2.945  s0.808-1.906,1.681-2.482c0.648-0.428,1.391-0.648,2.149-0.648c0.265,0,0.53,0.027,0.796,0.08c1.024,0.211,1.906,0.809,2.482,1.682  S187.896,445.391,187.687,446.416z" fill="#1F4499"/><path d="M277.188,227.565c9.978,0,18.096-8.118,18.096-18.096c0-9.977-8.118-18.095-18.096-18.095  c-9.979,0-18.096,8.118-18.096,18.095C259.092,219.448,267.209,227.565,277.188,227.565z M277.188,201.375  c4.464,0,8.096,3.631,8.096,8.095c0,4.464-3.632,8.096-8.096,8.096s-8.096-3.631-8.096-8.096  C269.092,205.006,272.724,201.375,277.188,201.375z" fill="#1F4499"/><path d="M114.39,175.559c8.04,0,14.581-6.541,14.581-14.581s-6.541-14.581-14.581-14.581  c-8.039,0-14.58,6.541-14.58,14.581S106.351,175.559,114.39,175.559z M114.39,156.398c2.526,0,4.581,2.055,4.581,4.581  s-2.055,4.581-4.581,4.581c-2.525,0-4.58-2.055-4.58-4.581S111.864,156.398,114.39,156.398z" fill="#1F4499"/><path d="M322.696,387.512c2.653,1.053,5.393,1.553,8.089,1.553c8.749,0,17.041-5.26,20.461-13.871  c2.168-5.459,2.08-11.436-0.246-16.828c-2.327-5.393-6.615-9.555-12.073-11.725c-5.458-2.166-11.434-2.078-16.826,0.248  s-9.556,6.613-11.724,12.072C305.902,370.229,311.428,383.037,322.696,387.512z M319.671,362.652  c1.865-4.697,6.385-7.564,11.155-7.564c1.469,0,2.963,0.273,4.41,0.848c2.976,1.182,5.313,3.451,6.582,6.393  c1.269,2.939,1.316,6.197,0.135,9.174c-2.439,6.143-9.422,9.154-15.566,6.717C320.244,375.777,317.231,368.795,319.671,362.652z" fill="#1F4499"/></svg>