<?xml version="1.0" ?><!DOCTYPE svg  PUBLIC '-//W3C//DTD SVG 1.1//EN'  'http://www.w3.org/Graphics/SVG/1.1/DTD/svg11.dtd'><svg enable-background="new 0 0 512 512" height="512px" id="Satellite" version="1.1" viewBox="0 0 512 512" width="512px" xml:space="preserve" xmlns="http://www.w3.org/2000/svg" xmlns:xlink="http://www.w3.org/1999/xlink"><path d="M177.005,173.72l-63.51,84.2l63.55,47.931l63.51-84.201L177.005,173.72z M180.805,263.31l-8.96-6.779  l25.24-33.341l8.96,6.78L180.805,263.31z M165.815,264.5l8.949,6.78l-4.47,5.91l-8.96-6.771L165.815,264.5z M154.925,243.72  l25.24-33.35l8.95,6.779l-25.24,33.34L154.925,243.72z M148.885,251.69l8.95,6.779l-4.47,5.91l-8.96-6.779L148.885,251.69z" fill="#B8D2FF"/><path d="M253.138,363.815c3.797,2.481,7.723,5.047,12.823,5.473c1.551,0.129,4.287,0.156,5.217-1.112  c1.179-1.608,0.747-5.476-0.152-8.646l-23.506-17.795c-3.449,5.541-6.576,11.245-9.372,17.09  C243.418,358.032,248.196,360.587,253.138,363.815z" fill="#B8D2FF"/><path d="M250.636,454.323c-12.229-6.017-12.921-12.604-13.794-20.944c-0.481-4.593-1.08-10.31-3.866-18.073  c-1.758-4.896-3.532-6.352-4.304-6.438c-1.522-0.162-4.206,1.986-6.454,4.619c-0.871,7.145-1.318,14.372-1.318,21.65  c0,11.601,1.136,23.172,3.362,34.461h56.928c-1.443-11.148-5.313-11.344-13.518-11.744  C262.795,457.616,256.726,457.319,250.636,454.323z" fill="#B8D2FF"/><path d="M412.684,321.192c2.729,3.578,6.637,5.665,9.836,6.856v-68.307c-8.056-1.121-16.287-1.694-24.53-1.694  c-5.692,0-11.337,0.273-16.927,0.797c-3.684,10.825,0.631,13.713,10.696,19.165c8.512,4.609,20.168,10.922,17.747,27.237  C408.534,311.789,409.604,317.153,412.684,321.192z" fill="#B8D2FF"/><path d="M422.52,469.599v-55.593c-2.404-15.418-2.715-15.57-14.075-20.841c-5.047-2.343-11.96-5.55-21.421-11.117  c-17.939-10.551-17.748-25.307-17.594-37.163c0.162-12.439,0.279-21.427-15.705-28.092c-9.088-3.79-15.689-2.987-21.316,2.762  l24.971,18.904l-41.6,54.951l-12.373-9.367c-2.16,5.692-2.195,11.153-0.077,16.288c4.548,11.021,19.164,20.723,39.099,25.951  c9.551,2.504,15.43,7.358,17.475,14.43c2.863,9.893-3.084,21.279-8.374,28.887H422.52z" fill="#B8D2FF"/><path d="M358.148,164.703l-8.139-5.811c23.797-33.328,11.147-83.3-28.196-111.396  c-2.558-1.827-5.208-3.533-7.888-5.099h-92.125c-5.62,4.063-10.504,8.95-14.512,14.565l-8.139-5.811  c2.226-3.119,4.694-6.034,7.365-8.755H89.489v93.236l70.023,52.39l12.194-16.108l2.212-12.881l14.2-18.757  c6.035-7.972,15.601-11.728,24.886-10.744l-6.331-10.42l8.265-15.053l8.766,4.813l-5.483,9.987l6.181,10.173  c1.821-0.91,3.789-1.544,5.865-1.831c4.992-0.69,9.956,0.604,13.974,3.646l6.815,5.159l4.898-6.59  c-1.891-2.476-3.027-5.557-3.027-8.904c0-8.112,6.6-14.712,14.712-14.712c8.111,0,14.711,6.6,14.711,14.712  s-6.6,14.712-14.711,14.712c-1.123,0-2.211-0.138-3.262-0.377l-5.348,7.195l5.011,3.794c4.019,3.042,6.612,7.467,7.302,12.46  c0.26,1.872,0.238,3.74-0.049,5.556l10.053,2.794l8.123-7.987l7.012,7.131l-12.245,12.039l-9.874-2.745  c4.132,8.938,3.336,19.816-3.012,28.201l-14.199,18.758l-11.804,5.626l-12.5,16.513l53.714,40.663  c32.387-24.088,70.828-36.799,111.429-36.799c8.235,0,16.459,0.547,24.53,1.607V42.398h-90.832  C372.279,74.192,384.296,128.083,358.148,164.703z M118.578,83.566h-9.047V74.52h9.047V83.566z M154.332,142.661h-9.047v-9.046  h9.047V142.661z M158.855,97.479h-9.047v-9.047h9.047V97.479z M194.802,83.566h-9.047V74.52h9.047V83.566z M310.547,197.585H301.5  v-9.047h9.047V197.585z M304.682,146.614l-8.137-5.812c8.994-12.595,4.021-31.617-11.086-42.406  c-7.437-5.311-16.15-7.83-24.536-7.097c-8.094,0.708-14.902,4.391-19.172,10.37l-8.138-5.812  c5.996-8.396,15.385-13.554,26.438-14.521c10.754-0.944,21.846,2.227,31.22,8.921C310.864,104.252,316.881,129.533,304.682,146.614z   M328.965,151.512l-8.137-5.812c7.271-10.182,9.453-23.134,6.145-36.473c-3.379-13.624-12.042-25.984-24.393-34.805  c-12.35-8.82-26.849-13-40.837-11.78c-13.69,1.199-25.233,7.466-32.505,17.647l-8.138-5.812  c8.997-12.599,23.122-20.34,39.771-21.798c16.357-1.429,33.231,3.4,47.521,13.604c14.287,10.204,24.334,24.6,28.285,40.535  C340.703,123.042,337.963,138.913,328.965,151.512z M369.488,191.42h-9.047v-9.047h9.047V191.42z M405.684,207.127h-9.047v-9.047  h9.047V207.127z M392.113,158.307h9.047v9.047h-9.047V158.307z" fill="#B8D2FF"/><polygon fill="#B8D2FF" points="89.489,280.522 104.832,260.255 101.711,257.892 107.747,249.919 110.868,252.282 117.495,243.528   89.489,222.571 "/><path d="M89.489,469.599h124.593c-2.105-11.312-3.183-22.873-3.183-34.461c0-7.982,0.505-15.908,1.497-23.738  l0.256-1.905c3.596-26.214,12.696-51.309,26.863-73.819l-48.269-36.541l-6.736,8.898l3.124,2.365l-6.037,7.973l-3.122-2.365  l-17.526,23.15l5.25,3.975l-14.859,19.367l-61.851-46.814V469.599z M194.908,379.39h9.047v9.047h-9.047V379.39z M176.093,358.394  h9.047v9.047h-9.047V358.394z M168.977,391.113c12.408,0,22.504,10.095,22.504,22.503s-10.096,22.504-22.504,22.504  s-22.504-10.096-22.504-22.504S156.568,391.113,168.977,391.113z M109.531,396.442h9.047v9.047h-9.047V396.442z" fill="#B8D2FF"/><path d="M79.485,32.399v447.201h353.029V32.399H79.485z M89.485,148.12l8.3,6.21l-8.3,10.899V148.12z   M233.205,139.89l-3.17-2.4c2.68-0.899,5.75-0.5,8.17,1.33l19.8,14.99c1.89,1.43,3.11,3.51,3.431,5.86  c0.079,0.55,0.1,1.1,0.079,1.649L233.205,139.89z M263.375,197.25l-10.06,13.29l-17.761-13.45l20.641-27.26l3.79,2.869  C267.686,178.54,269.205,189.55,263.375,197.25z M231.245,150.949l16.97,12.851l-20.63,27.25l-16.97-12.84L231.245,150.949z   M202.645,172.17l-16.609-12.57l10.06-13.29c5.83-7.7,16.841-9.22,24.54-3.39l2.641,2L202.645,172.17z M244.985,216.77l-2.29,1.09  l-60.82-46.04l0.43-2.5L244.985,216.77z M237.855,297.47l24.42,18.49l-11.75,15.51l-24.42-18.49L237.855,297.47z M218.135,306.95  l-24.58-18.61l11.75-15.521l24.58,18.61L218.135,306.95z M271.025,359.53c0.899,3.17,1.33,7.039,0.149,8.649  c-0.931,1.261-3.66,1.24-5.21,1.11c-5.1-0.43-9.029-2.99-12.83-5.471c-4.939-3.229-9.72-5.789-14.99-5  c2.801-5.84,5.931-11.539,9.37-17.09L271.025,359.53z M258.505,337.51l11.739-15.521l24.32,18.41l-11.74,15.521L258.505,337.51z   M302.545,346.44l23.04,17.449l-11.74,15.51l-23.05-17.449L302.545,346.44z M308.574,338.47l11.75-15.52l23.051,17.449l-11.75,15.51  L308.574,338.47z M300.605,332.43l-24.32-18.409l11.75-15.521l24.32,18.409L300.605,332.43z M268.314,307.979l-24.42-18.49  l11.74-15.51l24.42,18.49L268.314,307.979z M235.915,283.46l-24.58-18.609l11.75-15.511l24.58,18.601L235.915,283.46z   M158.825,325.399l-5.851,7.721l-18.739-14.19l-38.96-29.489l5.85-7.721L158.825,325.399z M107.165,273.75l5.64-7.46l8.58,6.49  l-5.649,7.459L107.165,273.75z M123.715,286.28l5.641-7.461l8.31,6.291l-5.64,7.459L123.715,286.28z M139.995,298.601l5.649-7.451  l8.74,6.621l-5.649,7.449L139.995,298.601z M156.715,311.26l5.641-7.46l8.149,6.17l-5.649,7.46L156.715,311.26z M172.225,291.2  l13.29-17.551l4.21,3.19l-10.18,13.44l3.73,2.82l-6.74,8.899l-57.69-43.681l6.66-8.799l3.47,2.6l10.311-13.461l4.4,3.33  l-13.28,17.551L172.225,291.2z M167.515,194.02l9.88-13.05l57.7,43.68l-10.22,13.5l-3.73-2.819l-7.1,9.38l-4.21-3.181l10.22-13.5  l-41.83-31.659l-10.22,13.489l-4.21-3.189l7.521-9.82L167.515,194.02z M171.845,256.53l25.24-33.341l8.96,6.78l-25.24,33.34  L171.845,256.53z M174.765,271.28l-4.47,5.91l-8.96-6.771l4.48-5.92L174.765,271.28z M203.795,249.5l4.21,3.18l-12.25,16.19  l-4.21-3.19L203.795,249.5z M180.165,210.37l8.95,6.779l-25.24,33.34l-8.95-6.77L180.165,210.37z M149.725,234.02l-4.359-3.3  l12.34-16.11l4.27,3.23L149.725,234.02z M148.885,251.69l8.95,6.779l-4.47,5.91l-8.96-6.779L148.885,251.69z M127.045,238.189  l-23.96-17.939l11.94-15.771l23.949,18.13L127.045,238.189z M145.055,214.68l-24-18.17l11.971-15.811l24.199,18.101L145.055,214.68z   M113.085,190.47l-19.18-14.521l11.89-15.63l19.22,14.391L113.085,190.47z M89.485,185.149l17.569,13.29l-11.979,15.82l-5.59-4.18  V185.149z M89.485,222.569l28.01,20.961l-6.63,8.75l-3.12-2.36l-6.03,7.97l3.12,2.37l-15.35,20.261V222.569z M89.485,297.601  l37.43,28.329l25.22,19.101l-2.68,3.5l-59.97-45.391V297.601z M89.485,469.601V315.68l61.85,46.82l14.86-19.37l-5.25-3.971  l17.529-23.149l3.12,2.36l6.04-7.971l-3.12-2.369l6.73-8.9l48.27,36.55c-14.17,22.511-23.27,47.601-26.859,73.81  c-0.175,0.851-0.261,1.91-0.261,1.91c-0.989,7.83-1.5,15.75-1.5,23.74c0,11.59,1.08,23.15,3.19,34.461H89.485z M224.265,469.601  c-2.229-11.291-3.37-22.861-3.37-34.461c0-7.279,0.45-14.51,1.32-21.65c2.25-2.639,4.93-4.779,6.46-4.619  c0.771,0.08,2.54,1.539,4.3,6.439c2.79,7.76,3.391,13.48,3.87,18.07c0.87,8.34,1.561,14.93,13.79,20.939  c6.09,3,12.16,3.301,17.04,3.531c8.2,0.409,12.069,0.6,13.511,11.75H224.265z M338.904,469.601h-47.66  c-1.01-8.58-3.52-14.23-7.779-17.601c-4.551-3.61-10.02-3.88-15.301-4.13c-4.369-0.221-8.879-0.44-13.119-2.52  c-7.27-3.58-7.479-5.58-8.26-13.011c-0.51-4.86-1.2-11.51-4.4-20.41c-2.88-8.021-7.12-12.39-12.62-13  c-1.85-0.21-3.62,0.06-5.29,0.63c1.631-7.99,3.82-15.85,6.53-23.529c3.64-4.67,6.76-7.221,9.04-7.371  c2.021-0.119,4.62,1.561,7.62,3.531c4.39,2.859,9.84,6.43,17.47,7.06c0.75,0.069,1.471,0.101,2.15,0.101  c6.65,0,10.17-2.801,11.979-5.291c1.41-1.939,2.14-4.18,2.44-6.439l13.48,10.199c-4.15,8.961-4.541,17.99-1.101,26.33  c5.819,14.101,22.521,25.701,45.81,31.801c5.9,1.55,9.4,4.09,10.4,7.529C352.564,451.31,343.695,463.95,338.904,469.601z   M422.515,469.601h-70.989c5.289-7.611,11.239-19,8.379-28.891c-2.049-7.07-7.93-11.92-17.479-14.43  c-19.931-5.23-34.55-14.93-39.101-25.95c-2.109-5.13-2.08-10.591,0.08-16.29l12.371,9.369l41.6-54.949l-24.971-18.91  c5.631-5.74,12.23-6.55,21.32-2.76c15.98,6.67,15.87,15.66,15.71,28.09c-0.159,11.859-0.35,26.62,17.591,37.17  c9.459,5.57,16.369,8.77,21.42,11.109c11.359,5.281,11.67,5.431,14.069,20.851V469.601z M422.515,389.43  c-2.47-1.79-5.649-3.38-9.86-5.34c-4.859-2.25-11.52-5.34-20.56-10.66c-12.94-7.61-12.819-16.79-12.67-28.409  c0.17-12.561,0.37-28.19-21.851-37.461c-13.399-5.59-24.539-3.58-33.18,5.93l-29.51-22.34c22.63-16.26,48.26-26.75,75.471-30.97  c-3.221,15.851,8.139,22.021,16.639,26.62c8.951,4.85,13.951,8.03,12.621,16.98c-1.391,9.359,0.35,17.289,5.18,23.56  c5.26,6.84,12.92,9.89,17.72,11.2V389.43z M422.515,328.05c-3.19-1.189-7.101-3.279-9.83-6.859c-3.079-4.041-4.149-9.4-3.18-15.94  c2.42-16.32-9.229-22.63-17.75-27.24c-10.06-5.45-14.38-8.34-10.69-19.17c5.59-0.521,11.23-0.79,16.92-0.79  c8.25,0,16.48,0.57,24.53,1.689V328.05z M422.515,249.659c-8.069-1.069-16.29-1.609-24.53-1.609c-40.6,0-79.039,12.71-111.42,36.801  l-53.72-40.671l12.5-16.51l11.8-5.62l14.2-18.76c6.351-8.391,7.149-19.261,3.021-28.2l9.869,2.74l12.25-12.04l-7.02-7.131  l-8.12,7.99l-10.05-2.8c0.29-1.81,0.311-3.68,0.05-5.55c-0.69-4.99-3.29-9.42-7.3-12.46l-5.02-3.79l5.35-7.2  c1.05,0.24,2.14,0.38,3.26,0.38c8.12,0,14.721-6.6,14.721-14.72c0-8.11-6.601-14.71-14.721-14.71c-8.109,0-14.71,6.6-14.71,14.71  c0,3.35,1.141,6.43,3.03,8.91l-4.9,6.59l-6.81-5.16c-4.021-3.04-8.99-4.34-13.98-3.65c-2.069,0.29-4.04,0.921-5.859,1.83  l-6.181-10.17l5.48-9.989l-8.77-4.811l-8.261,15.05l6.33,10.42c-9.29-0.979-18.85,2.78-24.89,10.75l-14.2,18.761l-2.21,12.88  l-12.19,16.109L89.485,135.63v-93.23h117.029c-2.67,2.721-5.14,5.63-7.37,8.75l8.141,5.811c4.01-5.61,8.9-10.5,14.52-14.561h92.12  c2.681,1.561,5.33,3.271,7.89,5.101c39.34,28.09,51.99,78.069,28.2,111.39l8.13,5.81c26.15-36.619,14.131-90.51-26.459-122.3h90.829  V249.659z M262.925,120.51c0-2.59,2.12-4.71,4.71-4.71c2.6,0,4.721,2.12,4.721,4.71c0,2.6-2.121,4.72-4.721,4.72  C265.045,125.229,262.925,123.109,262.925,120.51z" fill="#1F4499"/><rect fill="#1F4499" height="7.619" transform="matrix(-0.6036 0.7973 -0.7973 -0.6036 501.3557 106.54)" width="7.619" x="220.384" y="174.094"/><rect fill="#1F4499" height="7.619" transform="matrix(-0.7973 -0.6036 0.6036 -0.7973 329.5181 504.8369)" width="7.619" x="245.722" y="193.276"/><rect fill="#1F4499" height="7.619" transform="matrix(-0.7973 -0.6036 0.6036 -0.7973 262.3664 406.429)" width="7.619" x="195.622" y="155.348"/><path d="M291.271,90.259c-9.374-6.694-20.466-9.865-31.22-8.921c-11.053,0.967-20.441,6.124-26.438,14.521  l8.138,5.812c4.27-5.979,11.078-9.662,19.172-10.37c8.386-0.733,17.1,1.786,24.536,7.097c15.106,10.789,20.08,29.812,11.086,42.406  l8.137,5.812C316.881,129.533,310.864,104.252,291.271,90.259z" fill="#1F4499"/><path d="M308.393,66.285c-14.289-10.204-31.163-15.033-47.521-13.604c-16.649,1.458-30.774,9.199-39.771,21.798  l8.138,5.812c7.271-10.182,18.814-16.448,32.505-17.647c13.988-1.22,28.487,2.96,40.837,11.78  c12.351,8.82,21.014,21.181,24.393,34.805c3.309,13.339,1.126,26.291-6.145,36.473l8.137,5.812  c8.998-12.599,11.738-28.47,7.713-44.691C332.727,90.885,322.68,76.489,308.393,66.285z" fill="#1F4499"/><path d="M168.977,436.12c12.408,0,22.504-10.096,22.504-22.504s-10.096-22.503-22.504-22.503  s-22.504,10.095-22.504,22.503S156.568,436.12,168.977,436.12z M168.977,401.113c6.895,0,12.504,5.608,12.504,12.503  s-5.609,12.504-12.504,12.504s-12.504-5.609-12.504-12.504S162.082,401.113,168.977,401.113z" fill="#1F4499"/><rect fill="#1F4499" height="9.047" width="9.047" x="396.637" y="198.08"/><rect fill="#1F4499" height="9.047" width="9.047" x="301.5" y="188.538"/><rect fill="#1F4499" height="9.047" width="9.047" x="109.531" y="396.442"/><rect fill="#1F4499" height="9.047" width="9.047" x="194.908" y="379.39"/><rect fill="#1F4499" height="9.047" width="9.047" x="176.093" y="358.394"/><rect fill="#1F4499" height="9.047" width="9.047" x="360.441" y="182.373"/><rect fill="#1F4499" height="9.047" width="9.047" x="392.113" y="158.307"/><rect fill="#1F4499" height="9.046" width="9.047" x="145.285" y="133.615"/><rect fill="#1F4499" height="9.047" width="9.047" x="185.755" y="74.52"/><rect fill="#1F4499" height="9.047" width="9.047" x="109.531" y="74.52"/><rect fill="#1F4499" height="9.047" width="9.047" x="149.809" y="88.432"/></svg>