<?xml version="1.0" ?><!DOCTYPE svg  PUBLIC '-//W3C//DTD SVG 1.1//EN'  'http://www.w3.org/Graphics/SVG/1.1/DTD/svg11.dtd'><svg enable-background="new 0 0 512 512" height="512px" id="Solar_x5F_System" version="1.1" viewBox="0 0 512 512" width="512px" xml:space="preserve" xmlns="http://www.w3.org/2000/svg" xmlns:xlink="http://www.w3.org/1999/xlink"><path d="M242.942,214.838c32.688-51.651,88.649-82.488,149.697-82.488c10.013,0,20.032,0.855,29.87,2.521V42.4  H289.215c2.441,4.573,3.745,9.726,3.745,15.08c0,17.678-14.382,32.06-32.06,32.06h-24.012c3.439,4.481,5.312,9.966,5.312,15.75  c0,14.193-11.408,25.74-25.431,25.74H89.49v91.532l17.998,16.154l47.41-52.047l36.582,33.323l-47.385,52.018l17.489,15.932  l6.927-7.605l22.503,20.498l-54.155,59.451l-22.502-20.496l5.861-6.436l-17.491-15.932L89.49,331.945V469.6h227.889  c-16.527-7.805-31.85-18.18-45.284-30.645h-85.978c-9.534,0-17.291-7.92-17.291-17.656c0-2.699,0.607-5.301,1.724-7.664h-10.982  c-11.733,0-21.279-9.65-21.279-21.512c0-5.738,2.204-11.133,6.208-15.193c4.022-4.08,9.375-6.328,15.071-6.328h66.878  c-7.146-19.383-10.835-40.004-10.835-61.232c0-6.744,0.388-13.5,1.144-20.15c-11.477-1.852-20.271-11.824-20.271-23.816  c0-13.302,10.824-24.126,24.128-24.126c4.778,0,9.232,1.402,12.984,3.809c3.823-9.577,8.479-18.732,13.868-27.386L242.942,214.838z   M367.963,69.179h9.047v9.047h-9.047V69.179z M335.187,112.404h9.047v9.047h-9.047V112.404z M314.666,70.961h9.047v9.047h-9.047  V70.961z M279.353,130.806h9.046v9.047h-9.046V130.806z M182.439,181.733h-9.047v-9.047h9.047V181.733z M218.56,218.491h-9.046  v-9.047h9.046V218.491z" fill="#B8D2FF"/><path d="M336.221,351.721c1.406,1.936,5.482,2.846,9.425,3.725c4.248,0.947,8.64,1.928,12.155,4.482  c3.48,2.533,5.748,6.389,7.941,10.117c2.061,3.504,4.191,7.127,6.511,7.883c2.117,0.684,5.869-0.934,9.497-2.498  c4.074-1.758,8.288-3.574,12.779-3.574c4.484,0,8.695,1.816,12.768,3.574c3.628,1.564,7.377,3.184,9.508,2.494  c2.045-0.666,3.97-3.611,5.705-6.529v-11.184c-8.504,4.715-18.021,7.172-27.98,7.172c-31.989,0-58.014-26.023-58.014-58.014  c0-31.988,26.024-58.013,58.014-58.013c9.953,0,19.47,2.46,27.98,7.177v-11.189c-1.734-2.914-3.656-5.856-5.703-6.519  c-2.135-0.696-5.889,0.924-9.518,2.489c-4.069,1.756-8.277,3.57-12.76,3.57c-4.488,0-8.699-1.815-12.771-3.571  c-3.036-1.309-6.158-2.655-8.343-2.655c-0.427,0-0.817,0.051-1.165,0.165c-2.318,0.752-4.449,4.375-6.51,7.876  c-2.193,3.727-4.461,7.581-7.938,10.111c-3.517,2.563-7.916,3.545-12.171,4.494c-3.938,0.879-8.008,1.789-9.41,3.713  c-1.366,1.877-0.982,6-0.61,9.988c0.407,4.361,0.827,8.871-0.528,13.051c-1.31,4.021-4.238,7.322-7.07,10.516  c-2.729,3.076-5.549,6.256-5.549,8.797s2.818,5.721,5.545,8.797c2.834,3.197,5.765,6.502,7.072,10.521  c1.357,4.186,0.938,8.693,0.53,13.053C335.238,345.725,334.854,349.846,336.221,351.721z" fill="#B8D2FF"/><path d="M89.49,42.4v37.14h20.668c-5.683-5.986-8.809-13.782-8.809-22.06c0-5.307,1.336-10.48,3.791-15.08H89.49z" fill="#B8D2FF"/><path d="M393.167,197.85c0-0.429-0.028-0.852-0.077-1.268c-0.003-0.021-0.008-0.041-0.01-0.062  c-0.051-0.403-0.121-0.8-0.212-1.189c-0.28-1.202-0.757-2.329-1.392-3.347c-0.021-0.033-0.039-0.066-0.061-0.098  c-0.137-0.214-0.282-0.421-0.433-0.625c-0.045-0.062-0.091-0.123-0.137-0.183c-0.144-0.186-0.292-0.368-0.447-0.544  c-0.062-0.07-0.126-0.14-0.19-0.209c-0.152-0.165-0.307-0.328-0.469-0.484c-0.074-0.071-0.151-0.137-0.227-0.206  c-0.163-0.148-0.326-0.297-0.498-0.436c-0.072-0.058-0.148-0.11-0.223-0.167c-0.295-0.228-0.604-0.438-0.923-0.636  c-0.144-0.089-0.286-0.181-0.434-0.264c-0.136-0.075-0.276-0.142-0.415-0.212c-0.164-0.083-0.328-0.166-0.498-0.24  c-0.137-0.061-0.277-0.115-0.416-0.17c-0.18-0.071-0.361-0.139-0.546-0.2c-0.138-0.046-0.276-0.09-0.416-0.13  c-0.197-0.058-0.397-0.108-0.599-0.154c-0.133-0.031-0.267-0.063-0.402-0.089c-0.226-0.043-0.455-0.076-0.686-0.105  c-0.116-0.015-0.23-0.034-0.348-0.045c-0.35-0.033-0.703-0.054-1.062-0.054c-6.13,0-11.117,4.987-11.117,11.118  c0,0.156,0.017,0.308,0.023,0.462c0.077,1.849,0.604,3.582,1.478,5.092l0,0c0.174,0.299,0.36,0.589,0.56,0.871  c0.009,0.011,0.017,0.021,0.024,0.032c0.192,0.269,0.396,0.529,0.609,0.779c0.021,0.025,0.045,0.048,0.067,0.073  c0.204,0.234,0.417,0.46,0.64,0.676c0.039,0.039,0.082,0.074,0.122,0.112c0.21,0.198,0.426,0.39,0.651,0.571  c0.062,0.05,0.127,0.095,0.19,0.143c0.211,0.162,0.425,0.322,0.647,0.469c0.086,0.057,0.179,0.108,0.268,0.163  c0.207,0.128,0.413,0.256,0.628,0.371c0.116,0.063,0.239,0.115,0.357,0.173c0.196,0.096,0.392,0.194,0.595,0.279  c0.146,0.061,0.301,0.11,0.45,0.165c0.184,0.067,0.364,0.14,0.552,0.197c0.182,0.056,0.37,0.097,0.557,0.143  c0.164,0.042,0.324,0.09,0.49,0.124c0.227,0.046,0.458,0.073,0.688,0.105c0.135,0.019,0.266,0.046,0.4,0.06  c0.369,0.037,0.742,0.057,1.12,0.057C388.18,208.967,393.167,203.98,393.167,197.85z" fill="#B8D2FF"/><path d="M234.737,265.402c0-7.789-6.338-14.126-14.127-14.126c-7.79,0-14.128,6.337-14.128,14.126  c0,7.791,6.338,14.129,14.128,14.129C228.399,279.531,234.737,273.193,234.737,265.402z" fill="#B8D2FF"/><path d="M295.619,420.002c0,5.461,4.307,9.922,9.701,10.197c2.877-0.135,5.445-1.455,7.223-3.494  c1.566-1.797,2.523-4.137,2.523-6.703c0-5.467-4.32-9.934-9.725-10.197C299.938,410.068,295.619,414.535,295.619,420.002z" fill="#B8D2FF"/><path d="M304.842,399.779c11.152,0,20.225,9.072,20.225,20.223c0,2.879-0.613,5.611-1.701,8.092  c21.873,13.447,46.938,20.535,72.805,20.535c8.854,0,17.694-0.836,26.34-2.486v-23.457c-5.424,1.209-10.99,2.037-16.67,2.449  c-4.363,0.498-8.767,0.766-13.2,0.766c-64.255,0-116.53-52.275-116.53-116.531c0-22.422,6.387-44.197,18.467-62.969  c11.763-18.278,28.326-32.879,47.898-42.225l1.924,4.029c5.369-2.8,10.986-5.189,16.808-7.125c-0.163-1.056-0.273-2.129-0.273-3.229  c0-11.645,9.474-21.118,21.117-21.118c10.075,0,18.511,7.097,20.606,16.55c6.72,0.57,13.361,1.729,19.854,3.45v-24.134  c-8.646-1.65-17.488-2.488-26.34-2.488c-76.789,0-139.26,62.472-139.26,139.259c0,23.711,6.066,47.127,17.543,67.719l-3.626,2.021  c5.347,9.805,11.805,18.916,19.194,27.18C293.718,402.297,298.985,399.779,304.842,399.779z" fill="#B8D2FF"/><path d="M79.49,32.4v447.2h353.02v-5v-24.48v-30.146v-1.027v-44.826v-20.848v-87.805v-20.845v-43.919v-0.897v-29.248  v-33.756V32.4H79.49z M335.08,328.688c-1.308-4.02-4.238-7.324-7.072-10.521c-2.727-3.076-5.545-6.256-5.545-8.797  s2.82-5.721,5.549-8.797c2.832-3.193,5.761-6.494,7.07-10.516c1.355-4.18,0.936-8.689,0.528-13.051  c-0.372-3.988-0.756-8.111,0.61-9.988c1.402-1.924,5.473-2.834,9.41-3.713c4.255-0.949,8.654-1.932,12.171-4.494  c3.478-2.53,5.745-6.384,7.938-10.111c2.061-3.502,4.191-7.124,6.51-7.876c0.348-0.113,0.738-0.165,1.165-0.165  c2.185,0,5.307,1.346,8.343,2.655c4.072,1.756,8.283,3.571,12.771,3.571c4.482,0,8.69-1.814,12.76-3.57  c3.629-1.565,7.383-3.185,9.518-2.489c2.047,0.662,3.969,3.604,5.703,6.519v11.189c-8.511-4.717-18.027-7.177-27.98-7.177  c-31.989,0-58.014,26.025-58.014,58.013c0,31.99,26.024,58.014,58.014,58.014c9.959,0,19.477-2.457,27.98-7.172v11.184  c-1.735,2.918-3.66,5.863-5.705,6.529c-2.131,0.689-5.88-0.93-9.508-2.494c-4.072-1.758-8.283-3.574-12.768-3.574  c-4.491,0-8.705,1.816-12.779,3.574c-3.628,1.564-7.38,3.182-9.497,2.498c-2.319-0.756-4.45-4.379-6.511-7.883  c-2.193-3.729-4.461-7.584-7.941-10.117c-3.516-2.555-7.907-3.535-12.155-4.482c-3.942-0.879-8.019-1.789-9.425-3.725  c-1.366-1.875-0.982-5.996-0.61-9.98C336.018,337.381,336.438,332.873,335.08,328.688z M422.51,270.359v78.023  c-8.172,5.896-17.795,9-27.98,9c-26.475,0-48.014-21.539-48.014-48.014s21.539-48.014,48.014-48.014  C404.704,261.355,414.328,264.461,422.51,270.359z M422.51,134.872c-9.838-1.666-19.857-2.521-29.87-2.521  c-61.048,0-117.01,30.837-149.697,82.488l8.45,5.348c30.844-48.738,83.646-77.836,141.247-77.836c10.021,0,20.05,0.894,29.87,2.659  v17.432c-8.666-1.539-17.497-2.331-26.34-2.331c-82.303,0-149.26,66.958-149.26,149.259c0,25.41,6.504,50.51,18.808,72.588  l5.109-2.848l3.626-2.021c-11.477-20.592-17.543-44.008-17.543-67.719c0-76.788,62.471-139.259,139.26-139.259  c8.852,0,17.693,0.838,26.34,2.488v24.134c-6.492-1.721-13.134-2.88-19.854-3.45c-2.096-9.454-10.531-16.55-20.606-16.55  c-11.644,0-21.117,9.473-21.117,21.118c0,1.101,0.11,2.174,0.273,3.229c1.563,10.112,10.301,17.888,20.844,17.888  c9.755,0,17.962-6.657,20.376-15.66c6.816,0.618,13.544,1.881,20.084,3.793v25.393c-0.814-0.471-1.681-0.876-2.618-1.18  c-5.716-1.859-11.478,0.626-16.563,2.819c-3.138,1.353-6.382,2.752-8.8,2.752c-2.424,0-5.672-1.4-8.813-2.754  c-5.084-2.191-10.849-4.678-16.558-2.818c-5.923,1.923-9.172,7.444-12.038,12.316c-1.674,2.846-3.405,5.788-5.205,7.097  c-1.839,1.34-5.207,2.092-8.465,2.819c-5.479,1.224-11.689,2.61-15.313,7.583c-3.592,4.932-3.004,11.24-2.484,16.805  c0.312,3.354,0.635,6.818-0.082,9.031c-0.663,2.035-2.889,4.545-5.042,6.971c-3.782,4.264-8.067,9.096-8.067,15.434  c0,6.336,4.283,11.168,8.063,15.43c2.154,2.432,4.383,4.943,5.044,6.979c0.72,2.219,0.396,5.684,0.085,9.033  c-0.52,5.564-1.107,11.869,2.482,16.797c3.625,4.984,9.844,6.373,15.33,7.598c3.253,0.727,6.617,1.477,8.452,2.811  c1.798,1.309,3.528,4.252,5.204,7.1c2.865,4.869,6.111,10.391,12.039,12.322c1.402,0.455,2.809,0.648,4.205,0.648  c4.293,0,8.512-1.82,12.344-3.475c3.143-1.355,6.393-2.756,8.818-2.756c2.42,0,5.666,1.4,8.805,2.756  c5.08,2.191,10.839,4.676,16.559,2.824c0.938-0.305,1.803-0.711,2.617-1.184v25.398c-9.648,2.82-19.68,4.25-29.87,4.25  c-58.741,0-106.53-47.789-106.53-106.531c0-40.822,23.816-78.571,60.674-96.17l-2.385-4.995l-1.924-4.029  c-19.572,9.346-36.136,23.947-47.898,42.225c-12.08,18.772-18.467,40.547-18.467,62.969c0,64.256,52.275,116.531,116.53,116.531  c4.434,0,8.837-0.268,13.2-0.766c5.637-0.643,11.205-1.68,16.67-3.129v0.68v23.457c-8.646,1.65-17.486,2.486-26.34,2.486  c-25.866,0-50.932-7.088-72.805-20.535c1.088-2.48,1.701-5.213,1.701-8.092c0-11.15-9.072-20.223-20.225-20.223  c-5.856,0-11.124,2.518-14.82,6.51c-3.342,3.609-5.402,8.42-5.402,13.713c0,11.152,9.072,20.225,20.223,20.225  c4.641,0,8.908-1.588,12.324-4.227c23.678,14.807,50.898,22.629,79.004,22.629c8.844,0,17.675-0.791,26.34-2.33V469.6h-77.144  c-70.544-20.777-119.756-86.563-119.756-160.23c0-6.932,0.453-13.867,1.298-20.678c10.259-2.777,17.829-12.164,17.829-23.289  c0-13.302-10.823-24.126-24.127-24.126s-24.128,10.824-24.128,24.126c0,11.992,8.795,21.965,20.271,23.816  c-0.756,6.65-1.144,13.406-1.144,20.15c0,21.229,3.688,41.85,10.835,61.232h-66.878c-5.696,0-11.049,2.248-15.071,6.328  c-4.004,4.061-6.208,9.455-6.208,15.193c0,11.861,9.546,21.512,21.279,21.512h10.982c-1.116,2.363-1.724,4.965-1.724,7.664  c0,9.736,7.757,17.656,17.291,17.656h85.978c13.435,12.465,28.757,22.84,45.284,30.645H89.49V331.945l13.237-14.523l17.491,15.932  l-5.861,6.436l22.502,20.496l54.155-59.451l-22.503-20.498l-6.927,7.605l-17.489-15.932l47.385-52.018l-36.582-33.323l-47.41,52.047  L89.49,222.562V131.03H216.77c14.022,0,25.431-11.547,25.431-25.74c0-5.784-1.872-11.269-5.312-15.75H260.9  c17.678,0,32.06-14.382,32.06-32.06c0-5.354-1.304-10.507-3.745-15.08H422.51V134.872z M380.529,208.851  c-0.23-0.032-0.461-0.06-0.688-0.105c-0.166-0.034-0.326-0.082-0.49-0.124c-0.187-0.046-0.375-0.087-0.557-0.143  c-0.188-0.058-0.368-0.13-0.552-0.197c-0.149-0.055-0.304-0.104-0.45-0.165c-0.203-0.085-0.398-0.184-0.595-0.279  c-0.118-0.058-0.241-0.11-0.357-0.173c-0.215-0.114-0.421-0.243-0.628-0.371c-0.089-0.055-0.182-0.105-0.268-0.163  c-0.223-0.147-0.437-0.307-0.647-0.469c-0.063-0.049-0.129-0.093-0.19-0.143c-0.226-0.181-0.441-0.374-0.651-0.571  c-0.04-0.038-0.083-0.073-0.122-0.112c-0.223-0.216-0.436-0.442-0.64-0.676c-0.022-0.025-0.046-0.048-0.067-0.073  c-0.214-0.25-0.417-0.51-0.609-0.779c-0.008-0.011-0.017-0.021-0.024-0.032c-0.199-0.281-0.386-0.571-0.56-0.871l0,0  c-0.873-1.51-1.4-3.244-1.478-5.092l0,0c-0.007-0.154-0.023-0.306-0.023-0.462c0-6.13,4.987-11.118,11.117-11.118  c0.358,0,0.712,0.021,1.062,0.054c0.117,0.011,0.231,0.031,0.348,0.045c0.23,0.03,0.46,0.062,0.686,0.105  c0.136,0.026,0.27,0.058,0.402,0.089c0.201,0.046,0.401,0.097,0.599,0.154c0.14,0.04,0.278,0.084,0.416,0.13  c0.185,0.062,0.365,0.129,0.546,0.2c0.139,0.055,0.279,0.109,0.416,0.17c0.17,0.075,0.334,0.157,0.498,0.24  c0.139,0.07,0.279,0.137,0.415,0.212c0.147,0.083,0.29,0.175,0.434,0.264c0.319,0.197,0.628,0.408,0.923,0.636  c0.074,0.057,0.15,0.108,0.223,0.167c0.172,0.139,0.335,0.288,0.498,0.436c0.075,0.069,0.152,0.135,0.227,0.206  c0.162,0.156,0.316,0.319,0.469,0.484c0.064,0.069,0.129,0.138,0.19,0.209c0.155,0.177,0.304,0.358,0.447,0.544  c0.046,0.061,0.092,0.122,0.137,0.183c0.15,0.204,0.296,0.411,0.433,0.625c0.021,0.032,0.04,0.065,0.061,0.098  c0.635,1.018,1.111,2.145,1.392,3.347c0.091,0.389,0.161,0.786,0.212,1.189c0.002,0.021,0.007,0.042,0.01,0.062  c0.049,0.416,0.077,0.838,0.077,1.268c0,6.13-4.987,11.117-11.117,11.117c-0.378,0-0.751-0.02-1.12-0.057  C380.795,208.897,380.664,208.87,380.529,208.851z M315.066,420.002c0,2.566-0.957,4.906-2.523,6.703  c-1.777,2.039-4.346,3.359-7.223,3.494c-0.16,0.008-0.316,0.027-0.479,0.027c-5.637,0-10.223-4.586-10.223-10.225  c0-2.459,0.875-4.719,2.328-6.486c1.876-2.279,4.719-3.736,7.895-3.736c0.17,0,0.334,0.018,0.5,0.025  C310.746,410.068,315.066,414.535,315.066,420.002z M190.572,403.635h-4.455h-26.55c-6.22,0-11.279-5.164-11.279-11.512  c0-3.094,1.183-5.996,3.329-8.174c2.128-2.158,4.951-3.348,7.95-3.348h70.921c3.496,7.932,7.593,15.625,12.276,23.033h-18.843v10  h25.637c0.729,0.996,1.467,1.986,2.217,2.971c3.264,4.279,6.728,8.396,10.363,12.35h-76.021c-4.021,0-7.291-3.434-7.291-7.656  c0-2.076,0.777-4.02,2.193-5.479c1.364-1.408,3.175-2.186,5.098-2.186h4.455h14.168v-10H190.572z M220.61,279.531  c-7.79,0-14.128-6.338-14.128-14.129c0-7.789,6.338-14.126,14.128-14.126c7.789,0,14.127,6.337,14.127,14.126  C234.737,273.193,228.399,279.531,220.61,279.531z M129.017,288.564l8.346-9.162l17.487,15.93l-27.898,30.627l-17.487-15.93  l8.35-9.16L89.49,275.07v-39.071l11.264,10.11l-8.318,9.132L129.017,288.564z M149.022,237.289l21.131-23.197l7.2,6.559  l-21.131,23.197L149.022,237.289z M149.489,251.24l-21.131,23.198l-7.2-6.559l21.13-23.198L149.489,251.24z M141.63,230.554  l-7.203-6.561l21.13-23.197l7.203,6.561L141.63,230.554z M134.896,237.947l-21.13,23.197l-7.203-6.562l21.13-23.197L134.896,237.947  z M169.17,294.463l7.718,7.029l-40.687,44.666l-7.717-7.029L169.17,294.463z M103.687,301.531L89.49,317.104v-28.506  L103.687,301.531z M110.158,79.54H89.49V42.4h15.65c-2.455,4.6-3.791,9.773-3.791,15.08C101.35,65.758,104.476,73.554,110.158,79.54  z M133.41,89.54h1.97h24.38v-10h-24.38h-1.97c-5.885,0-11.424-2.294-15.595-6.456c-4.169-4.169-6.466-9.711-6.466-15.604  c0-5.61,2.164-11.007,5.979-15.08h159.633c3.861,4.098,5.998,9.417,5.998,15.08c0,12.164-9.896,22.06-22.06,22.06H216.77h-7.399  h-5.84v10h5.84h7.399c4.109,0,7.976,1.629,10.892,4.592c2.927,2.967,4.539,6.929,4.539,11.158c0,8.679-6.922,15.74-15.431,15.74  H89.49V89.54H133.41z" fill="#1F4499"/><rect fill="#1F4499" height="9.047" width="9.047" x="367.963" y="69.179"/><rect fill="#1F4499" height="9.047" width="9.047" x="335.187" y="112.404"/><rect fill="#1F4499" height="9.047" width="9.047" x="173.393" y="172.686"/><rect fill="#1F4499" height="9.047" width="9.046" x="209.514" y="209.444"/><rect fill="#1F4499" height="9.047" width="9.047" x="314.666" y="70.961"/><rect fill="#1F4499" height="9.047" width="9.046" x="279.353" y="130.806"/></svg>