<?xml version="1.0" ?><!DOCTYPE svg  PUBLIC '-//W3C//DTD SVG 1.1//EN'  'http://www.w3.org/Graphics/SVG/1.1/DTD/svg11.dtd'><svg enable-background="new 0 0 512 512" height="512px" id="Space_x5F_Rover" version="1.1" viewBox="0 0 512 512" width="512px" xml:space="preserve" xmlns="http://www.w3.org/2000/svg" xmlns:xlink="http://www.w3.org/1999/xlink"><path d="M237.038,136.777c-27.18,26.349-63.004,40.86-100.872,40.86c-16.031,0-31.697-2.585-46.676-7.685v193.344  c3.939-0.202,7.994,0.192,11.977,0.584c4.786,0.471,9.351,0.902,13.279,0.301c-3.021-5.403-4.751-11.623-4.751-18.24  c0-20.684,16.826-37.51,37.509-37.51c8.026,0,15.465,2.543,21.572,6.852v-81.926h20.985l4.795,61.619h39.986v13.455h32.673v-25.499  l-7.271-5.178l-5.051,8.659l-8.638-5.039l15.63-26.792l8.637,5.039l-5.519,9.46l12.211,8.695v34.068  c1.426-0.655,2.895-1.231,4.409-1.706v-60.431l8.021-17.551c-9.962-5.171-18.578-11.556-24.376-18.095  c-7.121-8.029-9.396-15.744-6.406-21.723c2.989-5.979,10.528-8.785,21.222-7.909c7.846,0.645,16.963,3.194,26.087,7.25l2.87-5.738  c-4.551-5.632-3.733-13.919,1.861-18.542c5.638-4.656,14.008-3.857,18.661,1.775c4.654,5.634,3.858,14.005-1.775,18.659  c-2.397,1.981-5.348,3.038-8.419,3.038c-0.424,0-0.851-0.021-1.279-0.061c-0.096-0.01-0.188-0.03-0.284-0.041l-2.691,5.383  c18.895,10.558,33.819,26.319,27.859,38.241h-0.001c-2.63,5.26-8.78,8.066-17.504,8.066c-1.192,0-2.432-0.052-3.718-0.158  c-6.969-0.572-14.941-2.648-23.031-5.946l-7.097,15.528v56.575c0.398-0.013,0.796-0.03,1.197-0.03  c20.683,0,37.509,16.826,37.509,37.51c0,0.397-0.018,0.791-0.03,1.188c3.55-0.332,7.415-1.422,11.446-2.572  c7.029-2.007,14.296-4.081,21.354-2.388c7.438,1.778,13.117,7.097,18.609,12.241c4.246,3.978,8.256,7.734,12.379,9.121  c4.478,1.508,10.147,0.95,16.15,0.359c3.98-0.392,8.034-0.785,11.971-0.584V42.4H280.768  C278.404,78.258,262.994,111.615,237.038,136.777z M162.322,306.866c-4.692-1.977-9.678-2.979-14.818-2.979  c-9.098,0-17.91,3.252-24.813,9.155l-6.499-7.6c2.016-1.724,4.164-3.26,6.412-4.616V249.48h7.594v-36.121h10v36.121h5.118V234.17h10  v15.311h6.893v46.701c1.348,0.432,2.683,0.915,3.996,1.469L162.322,306.866z M244.806,154.755  c-7.958,7.052-16.638,13.337-25.799,18.68l-5.038-8.639c8.595-5.012,16.738-10.908,24.205-17.525  c3.079-2.729,6.085-5.619,8.933-8.59l7.218,6.921C251.291,148.767,248.088,151.846,244.806,154.755z M397.112,73.692h9.047v9.047  h-9.047V73.692z M383.662,158.317h9.047v9.047h-9.047V158.317z M366.432,107.374h9.047v9.047h-9.047V107.374z M361.908,180.362  h9.047v9.047h-9.047V180.362z M344.799,91.877h9.046v9.047h-9.046V91.877z M335.058,135.459h9.047v9.047h-9.047V135.459z   M296.786,62.039c-4.074,23.136-12.973,44.676-26.449,64.021l-8.205-5.716c12.64-18.145,20.985-38.345,24.807-60.039L296.786,62.039  z" fill="#B8D2FF"/><path d="M147.504,355.615c5.334,0,9.674-4.34,9.674-9.674s-4.34-9.674-9.674-9.674s-9.674,4.34-9.674,9.674  S142.17,355.615,147.504,355.615z" fill="#B8D2FF"/><path d="M89.49,469.6h36.433c4.94-12.665,10.068-14.299,18.475-16.002c5.081-1.03,12.039-2.439,22.724-8.473  c3.287-1.856,6.82-5.152,10.562-8.643c6.838-6.381,15.349-14.32,27.307-18.1c7.185-2.27,15.119-1.624,23.52-0.941  c7.441,0.605,15.137,1.23,22.604-0.19c2.917-0.556,5.954-1.72,9.096-3.164c-3.596-1.521-7.081-3.258-10.509-4.972  c-6.937-3.469-13.489-6.744-19.825-7.521c-7.847-0.96-16.097,0.94-24.073,2.779c-7.273,1.679-14.796,3.41-22.063,2.969  c-8.759-0.533-16.783-3.364-24.544-6.104c-7.345-2.591-14.281-5.028-20.535-4.919c-8.583,0.169-16.796,3.595-24.737,6.907  c-6.676,2.784-12.98,5.414-19.541,6.271c-1.578,0.209-3.202,0.354-4.891,0.439V469.6z M136.655,416.227h9.047v9.047h-9.047V416.227z   M106.785,439.721h9.047v9.046h-9.047V439.721z" fill="#B8D2FF"/><path d="M293.122,355.615c5.334,0,9.674-4.34,9.674-9.674s-4.34-9.674-9.674-9.674s-9.674,4.34-9.674,9.674  S287.788,355.615,293.122,355.615z" fill="#B8D2FF"/><path d="M225.523,112.553c2.231,0.877,4.761-0.225,5.638-2.456s-0.225-4.761-2.456-5.638  c-2.233-0.878-4.762,0.225-5.638,2.456C222.19,109.146,223.292,111.676,225.523,112.553z" fill="#B8D2FF"/><path d="M93.675,134.37c1.796-1.186,2.292-3.605,1.109-5.396c-1.162-1.761-3.513-2.263-5.294-1.158v6.608  C90.746,135.195,92.386,135.222,93.675,134.37z" fill="#B8D2FF"/><path d="M123.438,74.345c2.967-1.957,3.789-5.963,1.833-8.931c-1.237-1.877-3.296-2.896-5.392-2.896  c-1.218,0-2.448,0.344-3.539,1.063c-1.438,0.947-2.42,2.398-2.766,4.086c-0.347,1.687-0.015,3.407,0.933,4.844  C116.464,75.479,120.469,76.301,123.438,74.345z" fill="#B8D2FF"/><path d="M79.49,32.4V479.6h353.02V32.4H79.49z M120.805,373.001c0.184-0.062,0.368-0.136,0.552-0.204  c6.762,6.586,15.986,10.653,26.147,10.653c16.511,0,30.554-10.728,35.552-25.575h29.231v-10h-27.323  c0.033-0.641,0.05-1.285,0.05-1.934c0-3.345-0.446-6.586-1.271-9.674h14.327l0,0h36.773h22.041  c-0.825,3.088-1.271,6.328-1.271,9.674c0,0.648,0.017,1.293,0.05,1.934h-15.927v10h17.835c4.998,14.848,19.041,25.575,35.552,25.575  c16.747,0,30.962-11.034,35.768-26.212c5.364-0.064,10.703-1.582,15.902-3.066c6.053-1.728,11.771-3.359,16.279-2.278  c4.865,1.163,9.352,5.366,14.103,9.815c4.839,4.532,9.842,9.219,16.024,11.301c6.514,2.191,13.532,1.5,20.32,0.832  c3.91-0.384,7.687-0.754,10.991-0.522v32.355c-5.214-0.923-10.473-2.742-15.604-4.526c-7.459-2.593-15.169-5.273-22.936-5.273  c-0.101,0-0.201,0.001-0.301,0.002c-9.272,0.082-17.718,3.234-25.884,6.282c-6.543,2.442-12.724,4.748-18.44,5.05  c-7.2,0.388-14.666-1.485-21.884-3.291c-7.761-1.941-15.786-3.951-23.498-3.1c-7.755,0.854-14.798,3.813-21.196,6.971  c-6.335-1.51-12.562-4.601-18.595-7.617c-7.391-3.695-15.032-7.516-23.081-8.504c-9.595-1.177-18.717,0.928-27.537,2.961  c-6.883,1.588-13.378,3.086-19.207,2.73c-7.361-0.447-14.714-3.041-21.824-5.551c-7.862-2.773-15.996-5.632-24.058-5.487  c-10.485,0.206-19.999,4.175-28.393,7.676c-6.043,2.521-11.75,4.901-16.995,5.587c-1.155,0.152-2.351,0.26-3.587,0.334v-26.609  c3.306-0.232,7.084,0.139,10.998,0.523C107.276,374.5,114.295,375.19,120.805,373.001z M119.995,345.941  c0-15.169,12.341-27.51,27.509-27.51c15.169,0,27.51,12.341,27.51,27.51c0,15.168-12.341,27.509-27.51,27.509  C132.336,373.45,119.995,361.109,119.995,345.941z M179.076,325.728v-82.37h1.733l4.017,51.619l0.026,0.344l2.408,30.947h-7.839  C179.31,326.085,179.191,325.907,179.076,325.728z M195.635,304.977h29.208v3.455v17.836h-27.552l-0.949-12.205L195.635,304.977z   M261.204,326.268h-26.361v-7.836h32.815C265.171,320.735,262.996,323.37,261.204,326.268z M293.122,318.432  c15.168,0,27.509,12.341,27.509,27.51c0,15.168-12.341,27.509-27.509,27.509c-15.169,0-27.51-12.341-27.51-27.509  C265.612,330.772,277.953,318.432,293.122,318.432z M422.51,415.811V469.6H136.769c2.286-4.697,4.308-5.127,9.615-6.201  c5.412-1.098,13.59-2.754,25.654-9.566c4.322-2.44,8.277-6.131,12.466-10.038c6.42-5.989,13.695-12.777,23.499-15.876  c5.313-1.679,12.299-1.11,19.695-0.51c7.728,0.629,16.487,1.342,25.285-0.334c6.579-1.253,12.719-4.424,19.219-7.781  c7.278-3.76,14.806-7.647,22.856-8.535c5.931-0.65,12.753,1.055,19.976,2.861c7.933,1.984,16.138,4.031,24.838,3.576  c7.249-0.383,14.448-3.069,21.409-5.668c7.356-2.745,14.964-5.584,22.478-5.65c0.071-0.002,0.143-0.002,0.214-0.002  c6.075,0,12.671,2.293,19.648,4.719C409.698,412.707,415.94,414.871,422.51,415.811z M94.381,409.498  c6.561-0.857,12.865-3.487,19.541-6.271c7.941-3.313,16.154-6.738,24.737-6.907c6.254-0.109,13.19,2.328,20.535,4.919  c7.761,2.739,15.785,5.57,24.544,6.104c7.267,0.441,14.789-1.29,22.063-2.969c7.977-1.839,16.227-3.739,24.073-2.779  c6.336,0.777,12.889,4.053,19.825,7.521c3.428,1.714,6.913,3.45,10.509,4.972c-3.142,1.444-6.179,2.608-9.096,3.164  c-7.467,1.421-15.162,0.796-22.604,0.19c-8.4-0.683-16.335-1.328-23.52,0.941c-11.958,3.779-20.469,11.719-27.307,18.1  c-3.741,3.49-7.274,6.786-10.562,8.643c-10.685,6.033-17.643,7.442-22.724,8.473c-8.406,1.703-13.534,3.337-18.475,16.002H89.49  v-59.662C91.179,409.852,92.803,409.707,94.381,409.498z M422.51,363.307c-3.937-0.201-7.99,0.192-11.971,0.584  c-6.003,0.591-11.673,1.148-16.15-0.359c-4.123-1.387-8.133-5.144-12.379-9.121c-5.492-5.145-11.171-10.463-18.609-12.241  c-7.058-1.693-14.324,0.381-21.354,2.388c-4.031,1.15-7.896,2.24-11.446,2.572c0.013-0.396,0.03-0.79,0.03-1.188  c0-20.684-16.826-37.51-37.509-37.51c-0.401,0-0.799,0.018-1.197,0.03v-56.575l7.097-15.528c8.09,3.298,16.063,5.374,23.031,5.946  c1.286,0.106,2.525,0.158,3.718,0.158c8.724,0,14.874-2.807,17.504-8.066h0.001c5.96-11.922-8.965-27.684-27.859-38.241l2.691-5.383  c0.096,0.011,0.188,0.031,0.284,0.041c0.429,0.04,0.855,0.061,1.279,0.061c3.071,0,6.021-1.057,8.419-3.038  c5.634-4.654,6.43-13.025,1.775-18.659c-4.653-5.633-13.023-6.432-18.661-1.775c-5.595,4.623-6.412,12.91-1.861,18.542l-2.87,5.738  c-9.124-4.056-18.241-6.605-26.087-7.25c-10.693-0.876-18.232,1.93-21.222,7.909c-2.99,5.979-0.715,13.693,6.406,21.723  c5.798,6.539,14.414,12.924,24.376,18.095l-8.021,17.551v60.431c-1.515,0.475-2.983,1.051-4.409,1.706v-34.068l-12.211-8.695  l5.519-9.46l-8.637-5.039l-15.63,26.792l8.638,5.039l5.051-8.659l7.271,5.178v25.499h-32.673v-13.455h-39.986l-4.795-61.619h-20.985  v81.926c-6.107-4.309-13.546-6.852-21.572-6.852c-20.683,0-37.509,16.826-37.509,37.51c0,6.617,1.729,12.837,4.751,18.24  c-3.929,0.602-8.493,0.17-13.279-0.301c-3.982-0.392-8.037-0.786-11.977-0.584V169.953c14.979,5.1,30.645,7.685,46.676,7.685  c37.868,0,73.692-14.512,100.872-40.86c25.956-25.162,41.366-58.52,43.729-94.377H422.51V363.307z M304.622,217.742l6.32-12.64  c18.126,10.172,25.059,21.479,23.389,24.822c-1.802,3.601-16.993,4.768-38.417-5.945c-9.482-4.74-17.602-10.618-22.862-16.551  c-4.528-5.106-5.746-9.011-4.943-10.616c0.677-1.354,3.53-2.541,8.497-2.541c0.915,0,1.903,0.04,2.961,0.127  c6.643,0.546,14.469,2.748,22.425,6.246l-6.313,12.626L304.622,217.742z M317.574,175.11c0.605-0.501,1.34-0.745,2.07-0.745  c0.938,0,1.869,0.402,2.512,1.181c1.143,1.383,0.947,3.438-0.436,4.581c-0.671,0.554-1.515,0.812-2.382,0.731  c-0.865-0.083-1.646-0.497-2.2-1.167C315.996,178.308,316.191,176.253,317.574,175.11z M91.567,144.997  c2.635,0,5.288-0.742,7.619-2.283c6.395-4.22,8.164-12.854,3.944-19.248c-3.068-4.649-8.469-6.838-13.641-6.077V42.4h181.256  c-1.939,27.647-12.021,52.841-27.869,73.262l-0.004-0.002l-0.28,0.36h0.001c-2.201,2.817-4.517,5.538-6.932,8.166v-0.001  c-4.98,2.861-11.062,3.146-16.264,0.761c-8.905-4.086-12.83-14.651-8.75-23.552l-9.09-4.168  c-6.378,13.911-0.246,30.424,13.671,36.81c2.493,1.143,5.114,1.884,7.774,2.248c-23.437,19.621-53.706,31.354-86.838,31.354  c-16.083,0-31.768-2.789-46.676-8.292v-14.522C90.178,144.926,90.871,144.997,91.567,144.997z M89.49,134.424v-6.608  c1.781-1.104,4.132-0.603,5.294,1.158c1.183,1.791,0.687,4.211-1.109,5.396C92.386,135.222,90.746,135.195,89.49,134.424z" fill="#1F4499"/><rect fill="#1F4499" height="9.046" width="9.047" x="375.479" y="439.721"/><rect fill="#1F4499" height="9.047" width="9.047" x="210.981" y="372.313"/><rect fill="#1F4499" height="9.047" width="9.047" x="294.43" y="426.544"/><rect fill="#1F4499" height="9.047" width="9.047" x="136.655" y="416.227"/><rect fill="#1F4499" height="9.046" width="9.047" x="106.785" y="439.721"/><rect fill="#1F4499" height="9.047" width="9.047" x="261.88" y="446.081"/><rect fill="#1F4499" height="9.046" width="9.047" x="339.415" y="375.919"/><rect fill="#1F4499" height="9.047" width="9.046" x="344.799" y="91.877"/><rect fill="#1F4499" height="9.047" width="9.047" x="383.662" y="158.317"/><rect fill="#1F4499" height="9.047" width="9.047" x="366.432" y="107.374"/><rect fill="#1F4499" height="9.047" width="9.047" x="335.058" y="135.459"/><rect fill="#1F4499" height="9.047" width="9.047" x="361.908" y="180.362"/><rect fill="#1F4499" height="9.047" width="9.047" x="397.112" y="73.692"/><path d="M147.504,365.615c10.849,0,19.674-8.826,19.674-19.674c0-10.849-8.825-19.674-19.674-19.674  c-10.848,0-19.674,8.825-19.674,19.674C127.83,356.789,136.656,365.615,147.504,365.615z M147.504,336.268  c5.334,0,9.674,4.34,9.674,9.674s-4.34,9.674-9.674,9.674s-9.674-4.34-9.674-9.674S142.17,336.268,147.504,336.268z" fill="#1F4499"/><path d="M293.122,365.615c10.849,0,19.674-8.826,19.674-19.674c0-10.849-8.825-19.674-19.674-19.674  s-19.674,8.825-19.674,19.674C273.448,356.789,282.273,365.615,293.122,365.615z M293.122,336.268c5.334,0,9.674,4.34,9.674,9.674  s-4.34,9.674-9.674,9.674s-9.674-4.34-9.674-9.674S287.788,336.268,293.122,336.268z" fill="#1F4499"/><path d="M162.208,249.48h-6.893V234.17h-10v15.311h-5.118v-36.121h-10v36.121h-7.594v51.346  c-2.248,1.356-4.396,2.893-6.412,4.616l6.499,7.6c6.903-5.903,15.716-9.155,24.813-9.155c5.141,0,10.126,1.003,14.818,2.979  l3.882-9.216c-1.313-0.554-2.648-1.037-3.996-1.469V249.48z M152.208,294.115c-1.555-0.15-3.123-0.229-4.704-0.229  c-5.098,0-10.123,0.814-14.9,2.366V259.48h19.604V294.115z" fill="#1F4499"/><path d="M270.337,126.06c13.477-19.345,22.375-40.885,26.449-64.021l-9.848-1.734  c-3.821,21.694-12.167,41.895-24.807,60.039L270.337,126.06z" fill="#1F4499"/><path d="M238.174,147.271c-7.467,6.617-15.61,12.514-24.205,17.525l5.038,8.639  c9.161-5.343,17.841-11.628,25.799-18.68c3.282-2.909,6.485-5.988,9.519-9.153l-7.218-6.921  C244.259,141.651,241.253,144.541,238.174,147.271z" fill="#1F4499"/><path d="M116.582,85.074c1.113,0.229,2.23,0.341,3.341,0.341c3.184,0,6.301-0.929,9.02-2.722h0.001  c7.569-4.992,9.667-15.213,4.676-22.784c-4.992-7.57-15.213-9.668-22.784-4.676c-3.667,2.419-6.174,6.12-7.057,10.424  c-0.884,4.304-0.038,8.693,2.381,12.36C108.577,81.685,112.279,84.19,116.582,85.074z M113.574,67.668  c0.346-1.688,1.328-3.139,2.766-4.086c1.091-0.72,2.321-1.063,3.539-1.063c2.096,0,4.154,1.019,5.392,2.896  c1.956,2.968,1.134,6.974-1.833,8.931c-2.969,1.956-6.974,1.135-8.931-1.833C113.56,71.075,113.228,69.354,113.574,67.668z" fill="#1F4499"/><path d="M119.942,101.015c5.598,0,11.122-1.48,16.086-4.376c15.26-8.899,20.436-28.555,11.536-43.815l-8.639,5.038  c6.121,10.497,2.562,24.018-7.936,30.139c-5.084,2.966-11.019,3.774-16.712,2.274c-5.692-1.498-10.461-5.124-13.426-10.209  l-8.639,5.038c4.311,7.392,11.242,12.663,19.519,14.842C114.45,100.661,117.204,101.015,119.942,101.015z" fill="#1F4499"/><path d="M213.761,103.257c-2.895,7.363,0.741,15.709,8.104,18.603c1.718,0.676,3.488,0.995,5.231,0.995  c5.729,0,11.152-3.454,13.371-9.1c1.402-3.566,1.331-7.466-0.199-10.979c-1.531-3.514-4.339-6.221-7.905-7.623  C224.999,92.258,216.654,95.895,213.761,103.257z M223.067,106.915c0.876-2.231,3.404-3.334,5.638-2.456  c2.231,0.877,3.333,3.406,2.456,5.638s-3.406,3.333-5.638,2.456S222.19,109.146,223.067,106.915z" fill="#1F4499"/><path d="M205.278,79.405c0.761,0.109,1.521,0.164,2.275,0.164c3.357,0,6.613-1.076,9.351-3.123  c3.354-2.506,5.53-6.169,6.129-10.313s-0.452-8.272-2.958-11.626l-8.01,5.987c0.907,1.214,1.287,2.709,1.07,4.209  s-1.004,2.825-2.219,3.732c-1.213,0.908-2.706,1.288-4.208,1.071c-1.5-0.217-2.826-1.005-3.733-2.219  c-1.873-2.506-1.358-6.068,1.147-7.941l-5.987-8.01c-3.354,2.507-5.529,6.169-6.128,10.313c-0.6,4.145,0.451,8.273,2.958,11.626  C197.473,76.63,201.135,78.807,205.278,79.405z" fill="#1F4499"/><path d="M139.438,138.331c-1.4,3.968-1.173,8.243,0.642,12.038c1.815,3.796,4.999,6.658,8.966,8.059  c1.716,0.606,3.489,0.907,5.256,0.907c2.319,0,4.629-0.519,6.782-1.549l-4.313-9.021c-1.387,0.663-2.948,0.745-4.395,0.233  c-1.448-0.511-2.61-1.556-3.273-2.942c-0.662-1.386-0.746-2.946-0.234-4.395s1.557-2.61,2.942-3.273s2.946-0.746,4.396-0.234  c1.448,0.512,2.61,1.557,3.272,2.942l9.022-4.313c-1.814-3.796-4.998-6.658-8.966-8.06c-3.965-1.399-8.241-1.173-12.038,0.642  C143.702,131.181,140.84,134.364,139.438,138.331z" fill="#1F4499"/></svg>