<?xml version="1.0" ?><!DOCTYPE svg  PUBLIC '-//W3C//DTD SVG 1.1//EN'  'http://www.w3.org/Graphics/SVG/1.1/DTD/svg11.dtd'><svg enable-background="new 0 0 512 512" height="512px" id="Spaceship" version="1.1" viewBox="0 0 512 512" width="512px" xml:space="preserve" xmlns="http://www.w3.org/2000/svg" xmlns:xlink="http://www.w3.org/1999/xlink"><path d="M314.546,356.15c5.214,5.215,12.145,8.086,19.518,8.086s14.305-2.871,19.518-8.086  c5.213-5.213,8.084-12.145,8.084-19.516c0-7.373-2.871-14.305-8.084-19.518c-4.34-4.34-9.872-7.049-15.856-7.838  c2.728,6.734-0.021,16.195-7.44,23.615c-4.045,4.045-8.92,6.881-13.723,7.982c-1.465,0.336-2.898,0.502-4.275,0.502  c-2.002,0-3.88-0.357-5.572-1.037C307.511,346.309,310.218,351.822,314.546,356.15z" fill="#B8D2FF"/><path d="M337.022,227.627c-19.06,0.093-38.164,4.949-55.344,14.783l4.301,4.301  c15.539-8.598,32.891-13.121,50.394-13.38L337.022,227.627z" fill="#B8D2FF"/><path d="M244.092,288.502l-4.294-4.295c-9.926,17.244-14.825,36.432-14.916,55.576l5.681-0.648  C230.797,321.512,235.38,304.123,244.092,288.502z" fill="#B8D2FF"/><path d="M222.685,252.95l22.226,22.224l-0.001,0.002l52.603,52.602c5.774-5.846,10.47-10.549,13.646-13.723  c0,0,3.411-3.406,14.05-13.973l-74.83-74.827L222.685,252.95z" fill="#B8D2FF"/><path d="M208.541,252.95L208.541,252.95l-30.914-30.916l-18.792,18.791l56.03,104.056  c-0.823-23.869,5.312-47.613,17.631-67.977L208.541,252.95z M204.393,294.039c-4.088,0-7.93-1.592-10.82-4.48  c-5.966-5.967-5.966-15.674,0-21.641c2.891-2.891,6.732-4.48,10.82-4.48c4.087,0,7.93,1.592,10.819,4.48  c5.966,5.967,5.966,15.674,0,21.641C212.322,292.447,208.479,294.039,204.393,294.039z" fill="#B8D2FF"/><path d="M269.092,409.492c8.284,8.285,17.803,14.887,28.137,19.646l21.369-58.221  c-4.089-1.846-7.855-4.428-11.122-7.695c-5.904-5.904-9.594-13.428-10.674-21.568l-55.969,6.375  c0.543,7.068,1.86,14.125,3.969,21.057l-9.567,2.912c-2.287-7.518-3.726-15.172-4.341-22.836l-5.618,0.641  c2.161,26.01,13.188,51.268,32.594,70.672c9.916,9.918,21.324,17.756,33.964,23.365l1.938-5.281  c-11.675-5.271-22.421-12.666-31.75-21.994c-8.723-8.723-15.809-18.744-21.061-29.787l9.03-4.295  C254.752,392.492,261.178,401.58,269.092,409.492z" fill="#B8D2FF"/><path d="M345.269,243.592l-6.352,55.759c8.204,1.051,15.791,4.75,21.734,10.693c3.36,3.361,5.996,7.248,7.852,11.473  l54.008-19.826v-9.227c-4.27-7.502-9.555-14.445-15.749-20.641c-6.174-6.174-13.142-11.496-20.71-15.819l4.959-8.684  c8.342,4.765,16.02,10.629,22.822,17.432c3.105,3.105,5.993,6.391,8.678,9.818v-8.898c-1.512-1.709-3.109-3.41-4.773-5.074  c-19.397-19.397-44.67-30.421-70.695-32.58l-0.642,5.637c10.3,0.808,20.54,3.094,30.38,6.908l-3.615,9.325  C364.132,246.387,354.726,244.301,345.269,243.592z" fill="#B8D2FF"/><path d="M250.38,211.111l23.992,23.993c20.463-12.32,44.319-18.409,68.275-17.486l-104.394-56.212l-18.791,18.792  l30.915,30.915L250.38,211.111z M265.74,195.75c5.966-5.966,15.675-5.966,21.64,0c5.967,5.966,5.967,15.673,0,21.64  c-2.982,2.982-6.9,4.474-10.819,4.474s-7.837-1.491-10.819-4.474C259.774,211.424,259.774,201.717,265.74,195.75z" fill="#B8D2FF"/><path d="M147.192,42.4H136.72H89.49v23.65v48.729c7.126-3.947,14.314-8.137,21.458-12.513  c20.52-12.577,39.769-26.124,55.845-39.283C161.717,54.939,155.008,47.911,147.192,42.4z" fill="#B8D2FF"/><path d="M89.49,172.019c9.521,2.186,19.262,2.399,29.014,0.623c39.231-7.135,65.342-44.865,58.207-84.106  c-0.084-0.459-0.18-0.914-0.271-1.37c-15.543,12.382-33.65,24.98-52.816,36.729c-11.382,6.969-22.849,13.462-34.133,19.343V172.019z  " fill="#B8D2FF"/><path d="M406.759,409.492c4.227-4.225,12.068-13.998,15.752-19.297v-32.963l-51.778-12.266  c-1.545,6.859-4.986,13.162-10.081,18.256c-5.248,5.248-11.774,8.746-18.877,10.219l14.866,62.771  C375.512,432.559,392.866,423.387,406.759,409.492z M367.944,369.297c8.92-8.922,23.436-8.922,32.357,0  c8.92,8.922,8.92,23.436,0,32.357c-4.461,4.461-10.32,6.691-16.18,6.691c-5.858,0-11.718-2.23-16.178-6.691  C359.023,392.732,359.023,378.219,367.944,369.297z" fill="#B8D2FF"/><path d="M136.72,32.4H79.49v33.65v74.15v8.189V479.6h353.021V32.4H136.72z M262.021,416.564  c9.329,9.328,20.075,16.723,31.75,21.994l-1.938,5.281c-12.64-5.609-24.048-13.447-33.964-23.365  c-19.406-19.404-30.433-44.662-32.594-70.672l5.618-0.641c0.615,7.664,2.054,15.318,4.341,22.836l9.567-2.912  c-2.108-6.932-3.426-13.988-3.969-21.057l55.969-6.375c1.08,8.141,4.77,15.664,10.674,21.568c3.267,3.268,7.033,5.85,11.122,7.695  l-21.369,58.221c-10.334-4.76-19.853-11.361-28.137-19.646c-7.914-7.912-14.34-17-19.102-27.01l-9.03,4.295  C246.212,397.82,253.298,407.842,262.021,416.564z M214.865,344.881l-47.167-87.596l22.59-22.589l18.254,18.254h-0.001  l23.955,23.955C220.177,297.268,214.042,321.012,214.865,344.881z M162.749,248.093l-3.914-7.268l18.792-18.791l5.59,5.59  L162.749,248.093z M254.715,170.27l87.933,47.348c-23.956-0.923-47.813,5.166-68.275,17.486l-23.992-23.993l-0.002,0.001  l-18.253-18.253L254.715,170.27z M225.054,185.789l-5.591-5.591l18.791-18.792l7.269,3.914L225.054,185.789z M346.4,233.657  l0.642-5.637c26.025,2.158,51.298,13.183,70.695,32.58c1.664,1.664,3.262,3.365,4.773,5.074v8.898  c-2.685-3.428-5.572-6.713-8.678-9.818c-6.803-6.803-14.48-12.667-22.822-17.432l-4.959,8.684  c7.568,4.323,14.536,9.645,20.71,15.819c6.194,6.195,11.479,13.139,15.749,20.641v9.227l-54.008,19.826  c-1.855-4.225-4.491-8.111-7.852-11.473c-5.943-5.943-13.53-9.643-21.734-10.693l6.352-55.759  c9.457,0.709,18.863,2.795,27.896,6.297l3.615-9.325C366.94,236.75,356.7,234.464,346.4,233.657z M422.511,312.344v34.611  L371.622,334.9c-0.057-1.262-0.174-2.512-0.354-3.746L422.511,312.344z M335.229,243.366l-5.378,47.216L293.368,254.1  C306.408,247.387,320.744,243.77,335.229,243.366z M285.979,246.711l-4.301-4.301c17.18-9.834,36.284-14.69,55.344-14.783  l-0.649,5.704C318.87,233.59,301.519,238.114,285.979,246.711z M327.95,312.246c1.803,1.801,0.854,7.986-4.736,13.576  c-2.695,2.695-5.936,4.631-8.889,5.309c-2.1,0.482-3.852,0.268-4.689-0.572c-0.839-0.838-1.053-2.592-0.57-4.689  c0.232-1.016,0.623-2.066,1.135-3.115c1.186-2.033,2.638-3.928,4.346-5.637c1.696-1.695,3.576-3.139,5.592-4.32  c1.945-0.945,3.748-1.381,5.174-1.381C326.491,311.416,327.414,311.709,327.95,312.246z M312.286,341.379  c1.377,0,2.811-0.166,4.275-0.502c4.803-1.102,9.678-3.938,13.723-7.982c7.419-7.42,10.168-16.881,7.44-23.615  c5.984,0.789,11.517,3.498,15.856,7.838c5.213,5.213,8.084,12.145,8.084,19.518c0,7.371-2.871,14.303-8.084,19.516  c-5.213,5.215-12.145,8.086-19.518,8.086s-14.304-2.871-19.518-8.086c-4.328-4.328-7.035-9.842-7.832-15.809  C308.406,341.021,310.284,341.379,312.286,341.379z M250.378,225.255l22.227,22.226l0.001-0.002l52.603,52.603  c-3.58,0.861-7.002,2.242-10.172,4.109c-1.076,0.561-2.141,1.209-3.189,1.938l-71.171-71.171L250.378,225.255z M304.573,312.998  c-1.275,1.637-2.363,3.357-3.24,5.117c-1.72,3.027-3.006,6.271-3.821,9.662l-52.603-52.602l0.001-0.002l-22.226-22.224l10.92-10.92  L304.573,312.998z M288.165,332.574l-47.579,5.42c0.387-14.604,4.068-28.994,10.887-42.111L288.165,332.574z M239.798,284.207  l4.294,4.295c-8.712,15.621-13.295,33.01-13.529,50.633l-5.681,0.648C224.973,320.639,229.872,301.451,239.798,284.207z   M328.2,373.777c1.144,0.18,2.301,0.301,3.467,0.375l15.029,63.457c-2.9,0.258-5.824,0.395-8.771,0.395  c-10.849,0-21.424-1.77-31.404-5.158L328.2,373.777z M341.774,373.441c7.103-1.473,13.629-4.971,18.877-10.219  c5.095-5.094,8.536-11.396,10.081-18.256l51.778,12.266v32.963c-3.684,5.299-11.525,15.072-15.752,19.297  c-13.893,13.895-31.247,23.066-50.118,26.721L341.774,373.441z M413.831,416.564c2.316-2.316,5.536-6.045,8.68-9.91v8.715  c-1.559,1.76-3.15,3.482-4.773,5.105c-15.889,15.889-35.693,26.502-57.513,30.871l-1.276-5.389  C379.609,441.877,398.604,431.789,413.831,416.564z M422.511,151.071c-11.078-6.416-30.371-17.551-31.48-18.192l-4.998,8.661  c8.719,5.032,29.371,16.96,36.479,21.09v21.248l-64.879-35.991l-4.85,8.744l69.729,38.682v19.047l-28.992-15.589l-4.736,8.808  l33.729,18.135v25.582c-14.17-13.444-31.348-23.29-49.928-28.778l0.059-0.107l-136.197-73.337l-31.124,31.124l37.986,37.986  l-9.702,9.703l-7.071,7.071l-10.92,10.919l-37.986-37.986l-31.124,31.124l73.148,135.848c5.758,19.771,16.438,37.977,31.146,52.684  c10.949,10.949,23.577,19.572,37.583,25.697l-0.094,0.256l9.388,3.445l5.397-14.707c11.07,3.787,22.809,5.766,34.853,5.766  c3.733,0,7.436-0.193,11.1-0.568l3.635,15.328l4.576-0.725c24.667-3.908,47.16-15.061,65.275-32.281V469.6H246.768l-18.095-32.012  l-8.705,4.922l15.313,27.09h-23.285l-41.066-73.357l-8.726,4.885l38.332,68.473h-21.67l-30.706-54.35l-8.706,4.92l27.928,49.43  H89.49V182.241c5.265,1.056,10.583,1.595,15.93,1.595c4.942,0,9.909-0.452,14.875-1.356c44.654-8.121,74.376-51.067,66.254-95.737  c-0.41-2.25-0.917-4.471-1.499-6.644c16.664-14.085,28.938-27.018,35.778-37.699h201.683V151.071z M166.793,62.983  c-16.076,13.159-35.325,26.706-55.845,39.283c-7.144,4.376-14.332,8.566-21.458,12.513V66.05V42.4h47.229h10.473  C155.008,47.911,161.717,54.939,166.793,62.983z M162.858,42.4h26.719c-4.411,4.49-9.438,9.191-15.079,14.087  C171.158,51.388,167.248,46.653,162.858,42.4z M116.173,110.793c21.736-13.323,42.11-27.737,58.911-41.678  c0.49-0.405,0.98-0.81,1.399-1.174c10.815-9.07,19.793-17.646,26.773-25.541h5.327c-7.139,9.294-18.32,20.399-32.427,32.112  c-16.453,13.652-36.427,27.779-57.759,40.854c-9.632,5.898-19.325,11.455-28.908,16.571v-5.773  C98.323,121.388,107.281,116.24,116.173,110.793z M123.623,123.893c19.166-11.748,37.273-24.347,52.816-36.729  c0.092,0.457,0.188,0.911,0.271,1.37c7.135,39.242-18.976,76.972-58.207,84.106c-9.752,1.776-19.493,1.563-29.014-0.623v-28.783  C100.774,137.355,112.241,130.862,123.623,123.893z" fill="#1F4499"/><rect fill="#1F4499" height="9.047" width="9.046" x="234.736" y="96.381"/><rect fill="#1F4499" height="9.047" width="9.047" x="229.081" y="55.046"/><rect fill="#1F4499" height="9.046" width="9.047" x="255.745" y="118.14"/><rect fill="#1F4499" height="9.047" width="9.047" x="132.196" y="259.699"/><rect fill="#1F4499" height="9.047" width="9.046" x="107.134" y="217.971"/><rect fill="#1F4499" height="9.046" width="9.047" x="203.94" y="125.097"/><rect fill="#1F4499" height="9.047" width="9.047" x="301.509" y="71.438"/><path d="M215.212,267.918c-2.89-2.889-6.732-4.48-10.819-4.48c-4.088,0-7.93,1.59-10.82,4.48  c-5.966,5.967-5.966,15.674,0,21.641c2.891,2.889,6.732,4.48,10.82,4.48c4.087,0,7.93-1.592,10.819-4.48  C221.178,283.592,221.178,273.885,215.212,267.918z M208.141,282.486c-1.001,1.002-2.332,1.553-3.748,1.553  s-2.748-0.551-3.749-1.553c-2.066-2.066-2.066-5.43,0-7.496c1.001-1.002,2.333-1.553,3.749-1.553s2.747,0.551,3.748,1.551v0.002  C210.207,277.057,210.207,280.42,208.141,282.486z" fill="#1F4499"/><path d="M276.561,221.864c3.919,0,7.837-1.492,10.819-4.474c5.967-5.966,5.967-15.673,0-21.64  c-5.965-5.966-15.674-5.966-21.64,0c-5.966,5.966-5.966,15.673,0.001,21.64C268.724,220.373,272.642,221.864,276.561,221.864z   M272.812,202.822c1.033-1.034,2.392-1.55,3.749-1.55s2.716,0.517,3.749,1.55c2.066,2.067,2.066,5.43,0,7.497s-5.431,2.067-7.498,0  C270.745,208.252,270.745,204.889,272.812,202.822z" fill="#1F4499"/><path d="M384.122,408.346c5.859,0,11.719-2.23,16.18-6.691c8.92-8.922,8.92-23.436,0-32.357  c-8.922-8.922-23.438-8.922-32.357,0c-8.921,8.922-8.921,23.436,0,32.357C372.404,406.115,378.264,408.346,384.122,408.346z   M375.015,376.367c2.512-2.51,5.81-3.766,9.107-3.766c3.299,0,6.598,1.256,9.107,3.766c5.022,5.023,5.022,13.193,0,18.217  c-5.021,5.021-13.192,5.021-18.215,0C369.993,389.561,369.993,381.391,375.015,376.367z" fill="#1F4499"/><rect fill="#1F4499" height="10" transform="matrix(-0.8807 -0.4736 0.4736 -0.8807 547.043 482.9989)" width="73.417" x="297.624" y="167.624"/><rect fill="#1F4499" height="9.999" transform="matrix(0.8745 0.4851 -0.4851 0.8745 102.3488 -136.2415)" width="44.981" x="291.906" y="124.62"/><rect fill="#1F4499" height="10" transform="matrix(0.4921 0.8705 -0.8705 0.4921 433.5595 27.3571)" width="77.444" x="154.613" y="380.234"/><rect fill="#1F4499" height="10" transform="matrix(-0.4885 -0.8726 0.8726 -0.4885 -98.1466 648.2471)" width="37.464" x="122.198" y="347.891"/></svg>