<?xml version="1.0" ?><!DOCTYPE svg  PUBLIC '-//W3C//DTD SVG 1.1//EN'  'http://www.w3.org/Graphics/SVG/1.1/DTD/svg11.dtd'><svg enable-background="new 0 0 512 512" height="512px" id="Telescope" version="1.1" viewBox="0 0 512 512" width="512px" xml:space="preserve" xmlns="http://www.w3.org/2000/svg" xmlns:xlink="http://www.w3.org/1999/xlink"><polygon fill="#B8D2FF" points="164.345,390.016 164.327,390.016 130.067,469.6 137.13,469.6 164.345,406.404 "/><rect fill="#B8D2FF" height="78.16" width="6.49" x="174.345" y="391.4"/><path d="M169.521,357.289l1.929,2.41h16.974c-2.041-3.5-4.189-7.176-6.041-10.331  C179.262,353.411,174.731,356.303,169.521,357.289z" fill="#B8D2FF"/><polygon fill="#B8D2FF" points="224.802,469.6 190.835,390.691 190.835,407.125 217.74,469.6 "/><polygon fill="#B8D2FF" points="378.902,434.332 378.902,403.359 275.237,403.359 275.237,434.332 309.045,434.332 309.045,420.021   347.668,420.021 347.668,434.332 356.924,434.332 356.924,444.332 347.668,444.332 347.668,458.645 309.045,458.645   309.045,444.332 275.237,444.332 275.237,469.408 378.902,469.408 378.902,444.332 367.424,444.332 367.424,434.332 "/><path d="M315.332,53.472l-7.707-6.372l3.885-4.699H89.485v56.886l22.932-27.737l7.707,6.372l-30.639,37.06v258.592  c17.655-11.922,36.463-21.976,56.095-29.98c-0.81-2.248-1.274-4.658-1.274-7.18c0-0.979,0.089-1.935,0.218-2.879l-11.03,5.262  l-1.479-3.1l-20.13,9.604l-16.058-33.663l20.13-9.603l-1.479-3.102l35.995-17.17l-2.453-5.141l77.543-36.989l-1.883-3.948  l49.888-23.799l3.864,8.1l13.974-6.665l19.959,41.843l-13.973,6.664l3.864,8.102l-49.89,23.797l-1.884-3.948l-68.096,32.483  c2.051,2.291,3.623,5.014,4.531,8.03c24.905-6.331,50.626-9.541,76.544-9.541c56.709,0,111.867,15.388,160.053,44.556V170.679  l-28.531,34.511l-7.707-6.372l36.238-43.833V42.4h-98.031L315.332,53.472z M398.566,252.281h9.047v9.047h-9.047V252.281z   M173.736,92.992l7.707,6.372l-35.502,42.941l-7.707-6.372L173.736,92.992z M118.69,63.602l10.071-12.181l7.707,6.372  l-10.071,12.181L118.69,63.602z M140.71,235.53h-9.046v-9.047h9.046V235.53z M150.392,175.946c-7.796,0-14.226,6.752-14.984,15.369  c0.033,0.565,0.055,1.134,0.055,1.708h-0.131h-9.869h-0.131c0-0.574,0.022-1.143,0.055-1.708  c-0.758-8.617-7.188-15.369-14.984-15.369v-0.267c-0.022,0-0.043,0.002-0.065,0.002v-10c7.795,0,14.226-6.752,14.984-15.369  c-0.033-0.565-0.055-1.134-0.055-1.708h0.131h9.869h0.131c0,0.574-0.022,1.143-0.055,1.708c0.758,8.617,7.188,15.369,14.984,15.369  v0.267c0.021,0,0.043-0.002,0.065-0.002V175.946z M165.883,164.239l-7.707-6.372l16.965-20.521l7.708,6.372L165.883,164.239z   M205.909,54.076l7.707,6.372l-22.819,27.601l-7.707-6.372L205.909,54.076z M194.259,167.248h-9.047v-9.047h9.047V167.248z   M221.892,189.025h-9.047v-9.046h9.047V189.025z M191.644,133.08l-7.708-6.372l36.417-44.049l7.707,6.372L191.644,133.08z   M244.153,71.35h-9.047v-9.047h9.047V71.35z M289.655,123.585c-7.797,0-14.228,6.754-14.983,15.374  c0.031,0.563,0.055,1.131,0.055,1.704h-0.132h-9.868h-0.132c0-0.573,0.022-1.141,0.056-1.704  c-0.758-8.62-7.188-15.374-14.985-15.374v-0.266c-0.021,0-0.043,0.002-0.065,0.002v-10c7.797,0,14.228-6.755,14.983-15.374  c-0.032-0.564-0.055-1.131-0.055-1.704h0.131h9.869h0.131c0,0.573-0.021,1.14-0.055,1.704c0.757,8.619,7.188,15.374,14.984,15.374  v0.266c0.021,0,0.043-0.002,0.065-0.002V123.585z M288.768,85.604l-7.707-6.372l19.703-23.833l7.707,6.372L288.768,85.604z   M303.086,114.337l-7.706-6.372l12.442-15.051l7.707,6.372L303.086,114.337z M331.593,184.502h-9.047v-9.046h9.047V184.502z   M357.737,288.935h-9.046v-9.047h9.046V288.935z M383.967,311.842h-9.046v-9.047h9.046V311.842z M412.465,63.641l7.707,6.372  l-35.502,42.941l-7.707-6.372L412.465,63.641z M375.046,120.909l0.864,9.005l-9.006,0.864l-0.864-9.006L375.046,120.909z   M362.456,203.402h9.869h0.131c0,0.572-0.022,1.14-0.056,1.703c0.758,8.62,7.188,15.374,14.984,15.374v0.266  c0.022,0,0.044-0.001,0.066-0.001v10c-7.796,0-14.227,6.751-14.984,15.368c0.033,0.565,0.055,1.134,0.055,1.708h-0.131h-9.869  h-0.131c0-0.574,0.021-1.143,0.055-1.708c-0.758-8.617-7.188-15.368-14.984-15.368v-0.267c-0.021,0-0.043,0.002-0.064,0.002v-10  c7.797,0,14.227-6.754,14.983-15.374c-0.032-0.563-0.055-1.131-0.055-1.703H362.456z M360.705,145.881l-16.965,20.521l-7.708-6.372  l16.966-20.521L360.705,145.881z M348.691,59.176l-26.71,32.308l-7.708-6.372l26.711-32.308L348.691,59.176z" fill="#B8D2FF"/><path d="M79.485,32.4V479.6h353.031V32.4H79.485z M287.926,265.207l-31.838,15.187l-2.962-6.21l-16.114-33.78  l31.837-15.188L287.926,265.207z M281.738,229.01l4.947-2.359l11.35,23.791l-4.947,2.359L281.738,229.01z M245.178,280.751  l-68.517,32.685l-1.08-2.266l-14.229-29.829l68.517-32.684L245.178,280.751z M357.136,393.359v-16.809h-60.132v16.809h-31.767v76.24  H235.69l-34.259-79.584h10.587v-30.316h-12.02c-2.909-4.996-8.325-14.284-11.546-19.734c24.078-6.115,48.948-9.216,74.011-9.216  c56.92,0,112.223,16.016,160.053,46.314V469.6h-33.613v-76.24H357.136z M378.902,444.332v25.076H275.237v-25.076h33.808v14.313  h38.623v-14.313h9.256v-10h-9.256v-14.312h-38.623v14.312h-33.808v-30.973h103.665v30.973h-11.479v10H378.902z M337.668,444.332  v4.313h-18.623v-4.313H337.668z M319.045,434.332v-4.312h18.623v4.312H319.045z M307.004,392.91v-6.359h40.132v6.359H307.004z   M190.835,407.125v-16.434l33.967,78.908h-7.063L190.835,407.125z M206.852,469.6h-16.017v-37.193L206.852,469.6z M202.019,369.699  v10.316h-48.857v-10.316H202.019z M180.835,391.4v78.16h-6.49V391.4H180.835z M137.13,469.6h-7.063l34.259-79.584h0.018v16.389  L137.13,469.6z M164.345,431.687V469.6h-16.327L164.345,431.687z M171.451,359.699l-1.929-2.41c5.209-0.986,9.74-3.878,12.862-7.921  c1.852,3.155,4,6.831,6.041,10.331H171.451z M165.565,347.672c-6.208,0-11.26-5.051-11.26-11.26s5.051-11.261,11.26-11.261  c6.209,0,11.261,5.052,11.261,11.261S171.775,347.672,165.565,347.672z M165.184,312.6l-26.969,12.864l-10.405-21.812l26.969-12.865  L165.184,312.6z M154.509,354.535l4.133,5.164h-15.481v10.604h-19.333v19.351h-7.706v10h25.192v-10h-7.487v-9.351h9.333v9.713  h10.278L119.18,469.6H89.485v-83.865c19.247-13.641,39.995-24.942,61.77-33.646C152.257,353.004,153.345,353.822,154.509,354.535z   M422.516,154.984l-36.238,43.833l7.707,6.372l28.531-34.511v194.626c-48.186-29.168-103.344-44.556-160.053-44.556  c-25.918,0-51.64,3.21-76.544,9.541c-0.909-3.017-2.48-5.739-4.531-8.03l68.096-32.483l1.884,3.948l49.89-23.797l-3.864-8.102  l13.973-6.664l-19.959-41.843l-13.974,6.665l-3.864-8.1l-49.888,23.799l1.883,3.948l-77.543,36.989l2.453,5.141l-35.995,17.17  l1.479,3.102l-20.13,9.603l16.058,33.663l20.13-9.604l1.479,3.1l11.03-5.262c-0.128,0.944-0.218,1.9-0.218,2.879  c0,2.521,0.464,4.932,1.274,7.18c-19.632,8.005-38.439,18.059-56.095,29.98V114.98l30.639-37.06l-7.707-6.372L89.485,99.286V42.4  H311.51l-3.885,4.699l7.707,6.372l9.152-11.071h98.031V154.984z M127.709,326.67l-11.104,5.297l-7.448-15.611l11.105-5.297  l0.461,0.967L127.709,326.67z" fill="#1F4499"/><path d="M289.59,113.321c-7.797,0-14.228-6.755-14.984-15.374c0.033-0.564,0.055-1.131,0.055-1.704h-0.131h-9.869  h-0.131c0,0.573,0.022,1.14,0.055,1.704c-0.756,8.619-7.187,15.374-14.983,15.374v10c0.022,0,0.043-0.002,0.065-0.002v0.266  c7.797,0,14.227,6.754,14.985,15.374c-0.033,0.563-0.056,1.131-0.056,1.704h0.132h9.868h0.132c0-0.573-0.023-1.141-0.055-1.704  c0.756-8.62,7.187-15.374,14.983-15.374v-10c-0.022,0-0.044,0.002-0.065,0.002V113.321z M269.66,124.361  c-1.602-2.289-3.534-4.292-5.717-5.934c2.155-1.632,4.065-3.617,5.651-5.883c1.603,2.289,3.534,4.292,5.718,5.934  C273.156,120.11,271.246,122.096,269.66,124.361z" fill="#1F4499"/><path d="M347.396,220.479v10c0.021,0,0.043-0.002,0.064-0.002v0.267c7.796,0,14.227,6.751,14.984,15.368  c-0.033,0.565-0.055,1.134-0.055,1.708h0.131h9.869h0.131c0-0.574-0.021-1.143-0.055-1.708c0.758-8.617,7.188-15.368,14.984-15.368  v-10c-0.022,0-0.044,0.001-0.066,0.001v-0.266c-7.797,0-14.227-6.754-14.984-15.374c0.033-0.563,0.056-1.131,0.056-1.703h-0.131  h-9.869h-0.131c0,0.572,0.022,1.14,0.055,1.703C361.623,213.726,355.193,220.479,347.396,220.479z M367.391,219.703  c1.603,2.289,3.535,4.292,5.717,5.934c-2.155,1.632-4.064,3.617-5.651,5.883c-1.603-2.289-3.534-4.292-5.718-5.934  C363.895,223.954,365.805,221.969,367.391,219.703z" fill="#1F4499"/><path d="M150.326,165.682c-7.796,0-14.226-6.752-14.984-15.369c0.033-0.565,0.055-1.134,0.055-1.708h-0.131h-9.869  h-0.131c0,0.574,0.022,1.143,0.055,1.708c-0.758,8.617-7.188,15.369-14.984,15.369v10c0.022,0,0.043-0.002,0.065-0.002v0.267  c7.795,0,14.226,6.752,14.984,15.369c-0.033,0.565-0.055,1.134-0.055,1.708h0.131h9.869h0.131c0-0.574-0.022-1.143-0.055-1.708  c0.758-8.617,7.188-15.369,14.984-15.369v-10c-0.022,0-0.044,0.002-0.065,0.002V165.682z M130.396,176.723  c-1.603-2.289-3.535-4.292-5.717-5.934c2.156-1.632,4.065-3.617,5.652-5.884c1.603,2.289,3.535,4.293,5.718,5.934  C133.893,172.472,131.983,174.457,130.396,176.723z" fill="#1F4499"/><rect fill="#1F4499" height="9.047" width="9.046" x="131.664" y="226.483"/><rect fill="#1F4499" height="9.046" width="9.047" x="212.845" y="179.979"/><rect fill="#1F4499" height="9.047" width="9.047" x="185.212" y="158.201"/><rect fill="#1F4499" height="9.047" width="9.047" x="235.106" y="62.303"/><rect fill="#1F4499" height="9.047" transform="matrix(0.0955 0.9954 -0.9954 0.0955 460.8007 -255.4577)" width="9.046" x="366.452" y="121.32"/><rect fill="#1F4499" height="9.046" width="9.047" x="322.546" y="175.456"/><rect fill="#1F4499" height="9.047" width="9.046" x="374.921" y="302.795"/><rect fill="#1F4499" height="9.047" width="9.047" x="398.566" y="252.281"/><rect fill="#1F4499" height="9.047" width="9.046" x="348.691" y="279.888"/><rect fill="#1F4499" height="19.529" transform="matrix(-0.7707 -0.6372 0.6372 -0.7707 474.8201 378.1361)" width="9.999" x="300.455" y="93.861"/><rect fill="#1F4499" height="10" transform="matrix(-0.6372 0.7707 -0.7707 -0.6372 598.2993 -137.3669)" width="41.919" x="310.523" y="67.144"/><rect fill="#1F4499" height="10" transform="matrix(0.6372 -0.7707 0.7707 0.6372 52.6132 252.7628)" width="30.923" x="279.304" y="65.501"/><rect fill="#1F4499" height="26.625" transform="matrix(-0.7707 -0.6372 0.6372 -0.7707 205.8395 375.6592)" width="10" x="165.512" y="137.48"/><rect fill="#1F4499" height="57.153" transform="matrix(-0.7707 -0.6372 0.6372 -0.7707 296.0329 322.2643)" width="10" x="200.998" y="79.293"/><rect fill="#1F4499" height="55.717" transform="matrix(0.7707 0.6372 -0.6372 0.7707 111.6175 -74.8721)" width="10" x="154.838" y="89.791"/><rect fill="#1F4499" height="35.812" transform="matrix(0.7707 0.6372 -0.6372 0.7707 90.7642 -110.0962)" width="10" x="193.353" y="53.157"/><rect fill="#1F4499" height="15.805" transform="matrix(0.7707 0.6372 -0.6372 0.7707 67.9307 -67.3757)" width="10" x="122.579" y="52.795"/><rect fill="#1F4499" height="10" transform="matrix(-0.6372 0.7707 -0.7707 -0.6372 688.2265 -18.0809)" width="26.625" x="335.057" y="147.955"/><rect fill="#1F4499" height="55.717" transform="matrix(0.7707 0.6372 -0.6372 0.7707 147.656 -233.721)" width="10" x="393.567" y="60.439"/></svg>