<svg height="298.66666" viewBox="0 0 298.66666 298.66666" width="298.66666" xmlns="http://www.w3.org/2000/svg"><g transform="matrix(.13333333 0 0 -.13333333 0 298.66667)"><g fill-rule="evenodd"><path d="m1120 2240c618.55 0 1120-501.44 1120-1120 0-618.559-501.45-1120-1120-1120-618.559 0-1120 501.441-1120 1120 0 618.56 501.441 1120 1120 1120" fill="#fbd4a7"/><path d="m1120 771c255 0 461 208 461 464s-206 464-461 464-461-207-461-464 206-464 461-464zm0-201c-365 0-660 298-660 665s295 665 660 665 660-298 660-665-295-665-660-665" fill="#e86936"/><path d="m486 1055c-17 58-26 120-26 184 0 230 119 433 300 551-87.004-180-115-330-86-449-6.996-33-11.004-67-11.004-102 0-71 16.004-138 45-198-55-3-128.996 2-221.996 14" fill="#e65d29"/><path d="m490 1041c-19 62-30 128-30 196 0 190 81 362 210 483-135-245-155-428-61-549 73.004-93 33.004-137-119-130" fill="#e35220"/><path d="m915 960c154 0 257 123 231 275-24 152-127 275-231 275s-207.004-123-231-275c-26.004-152 77-275 231-275" fill="#6ebfb8"/><path d="m887.004 1507c-56.004-50-101.004-133-116.004-226-25-152 78-276 231-276 25 0 49 3 72 10-40-35-95-55-156.996-55-155 0-259.008 123-233.004 275 22 138 108.996 252 203.004 272" fill="#63b8b1"/><path d="m1325 960c154 0 257 123 231 275-24 152-127 275-231 275s-207-123-231-275c-26-152 77-275 231-275" fill="#7c62b7"/><path d="m1297 1507c-56-50-101-133-116-226-25-152 78-276 231-276 25 0 49 3 72 10-40-35-95-55-157-55-155 0-259 123-233 275 22 138 109 252 203 272" fill="#7057b1"/><path d="m1125 960c154 0 257 123 231 275-24 152-127 275-231 275s-207.004-123-231-275c-26.004-152 77-275 231-275" fill="#f1c73e"/><path d="m1097 1507c-56-50-101-133-116-226-25-152 78-276 231-276 25 0 49 3 72 10-40-35-95-55-157-55-154.996 0-259.004 123-233 275 22 138 109 252 203 272" fill="#f1ba24"/><path d="m410 1070h1424v-142c0-326-264-590-590-590h-244c-326 0-590 264-590 590z" fill="#d35f2d"/><path d="m724 1070v-131c0-326 263.996-590 590-590h42c-36-7-74-11-112-11h-244c-326 0-590 264-590 590v142z" fill="#d05222"/><path d="m515 1070v-131c0-326 264-590 590-590h244 7c-36-7-74-11-112-11h-244c-326 0-590 264-590 590v142z" fill="#c94324"/><path d="m1721.87 582c51.5 71.039 87.5 153.988 103.17 243.988h-1406.087c15.68-90 51.676-172.949 103.188-243.988z" fill="#f69b21"/><path d="m522.141 582h599.859v243.988h-703.047c15.68-90 51.676-172.949 103.188-243.988" fill="#f68c21"/><path d="m735 826c17.996-90 56-173 109-244h-321.996c-52.004 71-88.004 154-103.004 244z" fill="#f58023"/><path d="m526 826c18-90 56.004-173 109-244h-112.996c-52.004 71-88.004 154-103.004 244z" fill="#f47423"/><path d="m370 1230h1510c50 0 90-40 90-90v-30c0-50-40-90-90-90h-1510c-50 0-90 40-90 90v30c0 50 40 90 90 90" fill="#e86936"/><path d="m517.996 1230c0-2 0-3 0-5l3.004-60c3-65 43-120 99-145h-250c-50 0-90 40-90 90v30c0 50 40 90 90 90z" fill="#e65d29"/><path d="m397.996 1230c0-2 0-3 0-5l3.004-60c3-65 43-120 99-145h-130c-50 0-90 40-90 90v30c0 50 40 90 90 90z" fill="#e35220"/></g><path d="m370 1200v-142" fill="none" stroke="#d15423" stroke-linecap="round" stroke-linejoin="round" stroke-width="20"/><path d="m510 1200v-142" fill="none" stroke="#dc5a27" stroke-linecap="round" stroke-linejoin="round" stroke-width="20"/><path d="m680 1200v-142" fill="none" stroke="#de6330" stroke-linecap="round" stroke-linejoin="round" stroke-width="20"/><path d="m850 1200v-142" fill="none" stroke="#de6330" stroke-linecap="round" stroke-linejoin="round" stroke-width="20"/><path d="m1010 1200v-142" fill="none" stroke="#de6330" stroke-linecap="round" stroke-linejoin="round" stroke-width="20"/><path d="m1180 1200v-142" fill="none" stroke="#de6330" stroke-linecap="round" stroke-linejoin="round" stroke-width="20"/><path d="m1350 1200v-142" fill="none" stroke="#de6330" stroke-linecap="round" stroke-linejoin="round" stroke-width="20"/><path d="m1520 1200v-142" fill="none" stroke="#de6330" stroke-linecap="round" stroke-linejoin="round" stroke-width="20"/><path d="m1690 1200v-142" fill="none" stroke="#de6330" stroke-linecap="round" stroke-linejoin="round" stroke-width="20"/><path d="m1850 1200v-142" fill="none" stroke="#de6330" stroke-linecap="round" stroke-linejoin="round" stroke-width="20"/><path d="m1628 865-42 31" fill="none" stroke="#d35f2d" stroke-linecap="round" stroke-linejoin="round" stroke-width="20"/><path d="m1120 1880v-142" fill="none" stroke="#de6330" stroke-linecap="round" stroke-linejoin="round" stroke-width="20"/><path d="m1317 1850-43-133" fill="none" stroke="#de6330" stroke-linecap="round" stroke-linejoin="round" stroke-width="20"/><path d="m1495 1759-82-113" fill="none" stroke="#de6330" stroke-linecap="round" stroke-linejoin="round" stroke-width="20"/><path d="m1636 1617-112-82" fill="none" stroke="#de6330" stroke-linecap="round" stroke-linejoin="round" stroke-width="20"/><path d="m1726 1439-132-43" fill="none" stroke="#de6330" stroke-linecap="round" stroke-linejoin="round" stroke-width="20"/><path d="m1755 1240h-140" fill="none" stroke="#de6330" stroke-linecap="round" stroke-linejoin="round" stroke-width="20"/><path d="m485 1240h140" fill="none" stroke="#d15423" stroke-linecap="round" stroke-linejoin="round" stroke-width="20"/><path d="m512.996 1439 132.004-43" fill="none" stroke="#dc5a27" stroke-linecap="round" stroke-linejoin="round" stroke-width="20"/><path d="m601 1611 113-82c5-3 11-2 15 2 3.996 4 2 11-1.996 15l-113.004 82c-5 3-11.004 2-15-2-4-5-3-12 2-15" fill="#de6330"/><path d="m680 1582c-2.004-7-4-15-5-22l-70 51c-5 3-6 10-2.004 15 3.004 5 10 6 15 2-.992 0 62.004-46 62.004-46" fill="#dc5a27" fill-rule="evenodd"/><path d="m745 1759 82.004-113" fill="none" stroke="#de6330" stroke-linecap="round" stroke-linejoin="round" stroke-width="20"/><path d="m922.996 1850 43.004-133" fill="none" stroke="#de6330" stroke-linecap="round" stroke-linejoin="round" stroke-width="20"/></g></svg>