<svg height="298.66666" viewBox="0 0 298.66666 298.66666" width="298.66666" xmlns="http://www.w3.org/2000/svg"><g transform="matrix(.13333333 0 0 -.13333333 0 298.66666)"><path d="m1120 2240c618.55 0 1120-501.44 1120-1120 0-618.559-501.45-1120-1120-1120-618.559 0-1120 501.441-1120 1120 0 618.56 501.441 1120 1120 1120" fill="#fbd4a7" fill-rule="evenodd"/><path d="m1110 781c255 0 462 208 462 464s-207 465-462 465-462.004-208-462.004-465 207.004-464 462.004-464zm0-200c-365 0-661 298-661 665s296 664 661 664 661-298 661-665-296-664-661-664" fill="#e86936" fill-rule="evenodd"/><path d="m474 1061c-16.996 59-26.004 121-26.004 185 0 231 117.004 435 295 554-85-181-112.996-332-83.996-452-6.996-33-11.004-67-11.004-102 0-71 16.004-139 45-199-53.996-3-126.996 2-218.996 14" fill="#e65d29" fill-rule="evenodd"/><path d="m477.996 1049c-18.996 62-28.996 128-28.996 196 0 190 80 362 207 483-133.004-245-153.004-428-60-549 71.996-92 31.996-136-118.004-130" fill="#e35220" fill-rule="evenodd"/><path d="m395.961 1076.7h1427.999v-138.009c0-326-264-590-590-590h-247.999c-326 0-590 264-590 590z" fill="#d35f2d" fill-rule="evenodd"/><path d="m710.961 1076.7v-127.001c0-326.008 264-590 590.009-590h43.99c-36-7.008-73-11.008-112-11.008h-246.999c-326 0-590 264-590 590v138.009z" fill="#d05222" fill-rule="evenodd"/><path d="m500.961 1076.7v-127.001c0-326.008 264-590 589.999-590h248 7.01c-36.01-7.008-74.01-11.008-112.01-11.008h-247.999c-326 0-590 264-590 590v138.009z" fill="#c94324" fill-rule="evenodd"/><path d="m1710.4 590.691c51.71 70.688 87.97 153.309 104.07 243h-1409.017c16.102-89.691 52.367-172.312 104.074-243z" fill="#f69b21" fill-rule="evenodd"/><path d="m509.527 590.691h600.433v243h-704.507c16.102-89.691 52.367-172.312 104.074-243" fill="#f68c21" fill-rule="evenodd"/><path d="m721.965 833.691c17.996-90 56-171.992 110-243h-323c-52 71.008-88.004 153-104.004 243z" fill="#f58023" fill-rule="evenodd"/><path d="m511.965 833.691c17.996-90 56-171.992 110-243h-113c-52 71.008-88.004 153-104.004 243z" fill="#f47423" fill-rule="evenodd"/><path d="m360 1245h1510c50 0 90-40 90-90v-31c0-50-40-90-90-90h-1510c-50 0-90 40-90 90v31c0 50 40 90 90 90" fill="#e86936" fill-rule="evenodd"/><path d="m506 1245c0-2 0-3 0-5l3-61c3.004-65 43.004-120 100-145h-249c-50 0-90 40-90 90v31c0 50 40 90 90 90z" fill="#e65d29" fill-rule="evenodd"/><path d="m391 1245c0-2 0-3 0-5l3-61c3.004-65 43.996-120 100-145h-134c-50 0-90 40-90 90v31c0 50 40 90 90 90z" fill="#e35220" fill-rule="evenodd"/><g fill="none" stroke-linecap="round" stroke-linejoin="round" stroke-width="20"><path d="m364 1207v-140" stroke="#d15423"/><path d="m501 1207v-140" stroke="#dc5a27"/><path d="m669 1207v-140" stroke="#de6330"/><path d="m837.004 1207v-140" stroke="#de6330"/><path d="m1005 1207v-140" stroke="#de6330"/><path d="m1173 1207v-140" stroke="#de6330"/><path d="m1341 1207v-140" stroke="#de6330"/><path d="m1509 1207v-140" stroke="#de6330"/><path d="m1677 1207v-140" stroke="#de6330"/><path d="m1845 1207v-140" stroke="#de6330"/><path d="m1618 875-42 31" stroke="#d35f2d"/><path d="m1110 1891v-140" stroke="#de6330"/><path d="m1307 1860-43-133" stroke="#de6330"/><path d="m1485 1769-82-113" stroke="#de6330"/><path d="m1626 1627-112-82" stroke="#de6330"/><path d="m1716 1449-132-43" stroke="#de6330"/><path d="m1747 1251h-139" stroke="#de6330"/><path d="m472.004 1251h138.996" stroke="#d15423"/><path d="m502.996 1449 132.004-43" stroke="#dc5a27"/></g><path d="m591 1621 113-82c5-3 11-2 15 2 3.996 4 2 11-1.996 15l-113.004 82c-5 3-11.004 2-15-2-4-5-3-12 2-15" fill="#de6330"/><path d="m667.004 1591c-2.004-7-4.008-15-5-22l-72.004 52c-5 3-6 10-2.004 15 4.008 5 10 6 15 2 0-1 64.008-47 64.008-47" fill="#dc5a27" fill-rule="evenodd"/><path d="m735 1769 82.004-113" fill="none" stroke="#de6330" stroke-linecap="round" stroke-linejoin="round" stroke-width="20"/><path d="m912.996 1860 43.004-133" fill="none" stroke="#de6330" stroke-linecap="round" stroke-linejoin="round" stroke-width="20"/></g></svg>