<svg height="298.66666" viewBox="0 0 298.66666 298.66666" width="298.66666" xmlns="http://www.w3.org/2000/svg"><g fill-rule="evenodd" transform="matrix(.13333333 0 0 -.13333333 0 298.66666)"><path d="m1120 2240c618.55 0 1120-501.44 1120-1120 0-618.559-501.45-1120-1120-1120-618.559 0-1120 501.441-1120 1120 0 618.56 501.441 1120 1120 1120" fill="#e4daf0"/><path d="m801.121 929c239.009 0 399.009 193 359.009 430-38.01 238-198.005 430-359.009 430-160.992 0-320.992-192-358.996-429-40-238 121-431 358.996-431" fill="#6ebfb8"/><path d="m762.125 1784c-90-79-161.004-209-185-357-41.004-241 123.996-436 370-436 42 0 82.005 6 118.995 17-65-57-152.995-90-254.999-90-245 0-410 195-370 436 36.004 217 173.004 397 321.004 430" fill="#63b8b1"/><path d="m1448.81 929c239 0 399 193 359 430-38 238-198 430-359 430s-322-192-360-429c-39-238 121-431 360-431" fill="#7c62b7"/><path d="m1398.81 1784c-90-79-161-209-185-357-41-241 124-436 370-436 42 0 82 6 119 17-65-57-153-90-255-90-245 0-410 195-370 436 36 217 173 397 321 430" fill="#7057b1"/><path d="m1135.13 929c238.99 0 398.99 193 358.99 430-38 238-198 430-358.99 430-161.005 0-321.005-192-359.009-429-40-238 121.004-431 359.009-431" fill="#f1c73e"/><path d="m1096.12 1784c-90-79-160.991-209-184.999-357-40.992-241 124.009-436 369.999-436 42.01 0 82.01 6 119.01 17-65-57-153-90-255-90-245.001 0-410.001 195-370.001 436 35.992 217 172.996 397 320.991 430" fill="#f1ba24"/><path d="m1960 1210v-63c0-381-309-690-690-690h-290c-381 0-690 309-690 690v73z" fill="#6594d5"/><path d="m1516 502c-76-29-159-45-246-45h-290c-381 0-690 309-690 690v73l324-2v-26c0-381 308.996-690 690-690z" fill="#5789cf"/><path d="m1335 460c-21-2-43-3-65-3h-290c-381 0-690 309-690 690v73l125-1v-70c0-381 309-690 690-690 0 1 230 1 230 1" fill="#4c7dc8"/><path d="m1924 928c-6-17-12-33-19-49l-10 5-122 61c-15 7-32 7-47 0l-115-58c-44-22-96-22-141 0l-113 57c-15 7-32 8-47 0l-117-58c-44-22-96-22-140 1l-113 57c-15 8-32.004 8-47.004 0l-112.996-57c-44-22-96-22-141 0l-115 58c-15 7-31.996 7-46.004 0l-125-62-10-6c-6.996 16-12.996 33-18.996 50l8.004 4 122.996 60c29 14 64 14 92.996 0l115-58c29.008-15 64.008-15 94.008 0l112.996 57c30 15 64 15 94 0l113-57c29-15 64-15 93 0l117 58c29 15 64 15 93 0l113-57c29-15 64-15 94 0l115 58c29 15 64 15 93 0l118-59z" fill="#f1be2c"/><path d="m345 877c-7.004 16-12.996 33-19 50l8 4 123.004 60c28.996 14 63.996 14 92.996 0l114-57c8.996-22 18.004-43 28.996-63-17.996 2-35 7-50.992 16l-115 58c-15 7-32.004 7-46.004 0l-125-62z" fill="#f1b825"/><path d="m345 877c-7.004 16-12.996 33-19 50l8 4 102 50c4-17 9-34 15-51l-96-47z" fill="#f2b023"/><path d="m390 1381h1470c55 0 100-45 100-100v-110h-1670v110c0 55 45 100 100 100" fill="#ef3366"/><path d="m1125 1381v-210h-835v110c0 55 45 100 100 100z" fill="#ee2451"/><path d="m1250 1381h-610c-55 0-100-45-100-100v-110h-250v110c0 55 45 100 100 100z" fill="#ee2149"/><path d="m1177 1381h-683c-55 0-100-45-100-100v-110h-104v110c0 55 45 100 100 100z" fill="#ed1f3a"/><g fill="#f3a926"><path d="m1755.07 911.262c17.13 0 31-13.883 31-31 0-17.121-13.87-30.992-31-30.992-17.12 0-31 13.871-31 30.992 0 17.117 13.88 31 31 31"/><path d="m1335.07 911.262c17.13 0 31-13.883 31-31 0-17.121-13.87-30.992-31-30.992-17.12 0-31 13.871-31 30.992 0 17.117 13.88 31 31 31"/><path d="m915.074 911.262c17.117 0 31-13.883 31-31 0-17.121-13.883-30.992-31-30.992-17.121 0-31.004 13.871-31.004 30.992 0 17.117 13.883 31 31.004 31"/></g><path d="m495.074 911.262c17.117 0 31-13.883 31-31 0-17.121-13.883-30.992-31-30.992-17.121 0-31.004 13.871-31.004 30.992 0 17.117 13.883 31 31.004 31" fill="#f5a021"/><path d="m1545.07 1014.27c17.13 0 31-13.89 31-31.008 0-17.121-13.87-31-31-31-17.12 0-31 13.879-31 31 0 17.118 13.88 31.008 31 31.008" fill="#f3a926"/><path d="m1125.07 1014.27c17.13 0 31-13.89 31-31.008 0-17.121-13.87-31-31-31-17.12 0-31 13.879-31 31 0 17.118 13.88 31.008 31 31.008" fill="#f3a926"/><path d="m705.074 1014.27c17.117 0 31-13.89 31-31.008 0-17.121-13.883-31-31-31-17.121 0-31.004 13.879-31.004 31 0 17.118 13.883 31.008 31.004 31.008" fill="#f3a926"/></g></svg>