<svg height="298.66666" viewBox="0 0 298.66666 298.66666" width="298.66666" xmlns="http://www.w3.org/2000/svg"><g transform="matrix(.13333333 0 0 -.13333333 0 298.66667)"><g fill-rule="evenodd"><path d="m1120 2240c618.55 0 1120-501.44 1120-1120 0-618.559-501.45-1120-1120-1120-618.559 0-1120 501.441-1120 1120 0 618.56 501.441 1120 1120 1120" fill="#f58051"/><path d="m1491 587c57.44 0 104-46.559 104-104 0-57.43-46.56-104-104-104s-104 46.57-104 104c0 57.441 46.56 104 104 104" fill="#fff"/><path d="m1410 548c-2-8-3-17-3-26 0-58 46-104 104-104 33 0 62 15 81 39-11-45-52-79-101-79-57 0-104 47-104 104 0 25 9 48 23 66" fill="#fde2d4"/><path d="m1194.38 1353c57.01-19 175 106 247.01 293 72 187 75.99 359 10.99 385-65 25-175-106-247-293-71.99-187-68-365-11-385" fill="#fcd6c1"/><path d="m1194.38 1353c57.01-19 175 106 247.01 293 72 187 75.99 359 10.99 385-65 25-175-106-247-293-71.99-187-68-365-11-385" fill="#fff"/><path d="m1485.38 1995c-61-38-135-145-186.99-282-53.01-141-65-276-43.01-343-23.99-16-45-22-61-16-57 19-60 197 11 385 71.01 188 182 319 247 293 14.01-6 25-19 33-37" fill="#fde2d4"/><path d="m1218.39 1416c40-14 130 89 186.99 240 57 151 66.01 286 20 304-46 18-130-89-186.99-240-57-151-60-290-20-304" fill="#f7938e"/><path d="m1436.39 1953c-48-53-99.01-138-138-240-42-111-58.01-219-53.01-292-11-5-20-7-26.99-4-40 14-37 154 20 304 56.99 150 140.99 257 186.99 239 4-1 8.01-4 11.01-7" fill="#f6847e"/><path d="m1025.62 1353c-57.007-19-175.007 106-247.007 293-71.996 187-75.996 359-10.996 385 65 25 175-106 246.993-293 72.01-187 68.01-365 11.01-385" fill="#fff"/><path d="m1054.61 1386c-61.993 47-132.993 145-179.997 270-56 148-69 289-37.996 359-25 18-49 24-68.004 17-65-25-60-197 11-385s189-313 246.007-294c12 4 22 16 28.99 33" fill="#fde2d4"/><path d="m1001.62 1416c-40.003-14-130.003 89-187.007 240-56.996 151-66 286-20 304s130-89 187.004-240c56.993-151 60.003-290 20.003-304" fill="#f7938e"/><path d="m1012.62 1424c-50.003 53-101.003 134-138.007 231-44 116-61 227-51.996 303-10 4-19.004 5-27.004 2-46-18-37-154 20-304 57.004-150 145-253 186.007-240 4 2 7.99 4 11 8" fill="#f6847e"/><path d="m1114 193c220 0 398 49 398 213s-178 574-398 574-398-411-398-575 178-212 398-212" fill="#fff"/><path d="m1031 961c-153.996-114-265-396-265-525 0-164 178-213 398-213 111 0 211 12 283 46-71-56-194-76-333-76-220 0-398 49-398 213 0 142 135 472 315 555" fill="#fbceb6"/><path d="m1104 795c220 0 398 132 398 295s-178 410-398 411-398-249-398-412 178-294 398-294" fill="#fff"/><path d="m1086 1501c-143.996-77-246-250-246-373 0-163 178-295 398-295 26 0 51 2 76 5-61-28-133-44-210-44-220 0-398 132-398 295 0 159 169 400 380 412" fill="#fde2d4"/><path d="m1029 1492c-156.996-70-269-254-269-383 0-163 177.996-295 398-295 50 0 98 7 142 19-58-24-125-38-196-38-220 0-398 132-398 295 0 143 139 355 323 402" fill="#fbceb6"/><path d="m1105 254c199 0 333 154 300 343-32 189-165 343-300 343s-267.996-154-300-343c-32.996-190 101-343 300-343" fill="#ef3366"/><path d="m1073 936c-75.004-61-135.004-166-154-284-33-190 101-343 300-343 31 0 61 4 88 11-52-42-122-67-202-67-199 0-332.996 154-300 343 29 174 144 318 268 340" fill="#ee224e"/><path d="m1040 928c-110-39-207.996-173-235-331-32.996-190 101-343 300-343 39 0 75 6 108 17-20-4-41-5-63-5-199 0-332.996 156-300 349 22.996 137 99 256 190 313" fill="#ed1f35"/><path d="m1115.85 583c21.01 0 54 61 54 95s-24 62-54 62-53.99-28-53.99-62 32.99-95 53.99-95" fill="#f3a926"/><path d="m1115.85 740v-157c-21 0-53.99 61-53.99 95s25 62 53.99 62" fill="#f69b21"/><path d="m1135.85 564c0-21 59-54 93.01-54 33 0 60.99 24 60.99 54s-27 54-60.99 54c-34.01-1-93.01-33-93.01-54" fill="#f0c833"/><path d="m1115.85 545c-21 0-53.99-61-53.99-95s23.99-62 53.99-62 54 28 54 62-32.99 95-54 95" fill="#70c8c0"/><path d="m1115.85 545v-157c-30 0-53.99 28-53.99 62s32.99 95 53.99 95" fill="#5cbfb9"/><path d="m1096.86 564c0 21-59.01 54-93.01 54-33.995 0-60.998-24-60.998-54s27.003-54 60.998-54c34 0 93.01 33 93.01 54" fill="#7c62b7"/><path d="m1211 192c-19 10-32 31-32 54 0 34 26 61 58 61 4 0 7 0 10-1 11 16 28 26 48 26s37-10 48-25c31-2 55-28 55-61 0-14-5-28-13-38-11-22-49-38-94-38-33 0-62 9-80 22" fill="#fff"/><path d="m1312 330c-14-4-25-13-33-24-3 1-7 1-10 1-32 0-58-27-58-61 0-24 13-44 32-54 15-11 38-19 65-21-5 0-10-1-15-1-33 0-62 9-80 22-19 10-32 31-32 54 0 34 26 61 58 61 4 0 7 0 10-1 11 16 28 26 48 26 5 0 10-1 15-2" fill="#fde2d4"/><path d="m842.004 192c-19.008 10-32.004 31-32.004 54 0 34 26 61 57.996 61 4.008 0 7.004 0 10-1 11.004 16 28.004 26 48.004 26s36.996-10 48-25c31-2 55-28 55-61 0-14-5-28-13-38-11-22-48.996-38-93.996-38-33.004 0-62.004 9-80 22" fill="#fff"/><path d="m942.004 330c-14.008-4-25-13-33.004-24-3 1-6.996 1-10 1-31.996 0-58-27-58-61 0-24 13-44 31.996-54 15-11 38.004-19 65-21-5 0-10-1-15-1-32.996 0-61.996 9-80 22-18.996 10-31.996 31-31.996 54 0 34 26.004 61 58 61 3.996 0 7 0 10-1 11 16 28.004 26 48.004 26 5 0 10-1 15-2" fill="#fde2d4"/><path d="m1110.39 1089.94c21.99 0 49.99 25 49.99 45s-21.99 35-49.99 35c-28.01 0-50-16-50-35s27.99-45 50-45" fill="#ca6864"/><path d="m1120.39 1168.94c-23.01-3-40-18-40-35s20-37 40-43c-3.01-1-7.01-2-10-2-22.01 0-50 25-50 45s21.99 35 50 35c2.99 1 6 1 10 0" fill="#c7625e"/><path d="m1130.38 1149.94c5.53 0 10-6.72 10-15 0-8.29-4.47-15-10-15-5.52 0-9.99 6.71-9.99 15 0 8.28 4.47 15 9.99 15" fill="#d68683"/></g><path d="m1006 1050c0-26 23-46 52-46s52 21 52 46" fill="none" stroke="#ca6864" stroke-linecap="round" stroke-linejoin="round" stroke-width="30"/><path d="m1110 1050c0-26 23-46 52-46s52 21 52 46" fill="none" stroke="#ca6864" stroke-linecap="round" stroke-linejoin="round" stroke-width="30"/><path d="m980 1212c22.09 0 40-17.91 40-40s-17.91-40-40-40-40 17.91-40 40 17.91 40 40 40" fill="#0e0f0e" fill-rule="evenodd"/><path d="m1242 1212c22.09 0 40-17.91 40-40s-17.91-40-40-40-40 17.91-40 40 17.91 40 40 40" fill="#0e0f0e" fill-rule="evenodd"/><path d="m850 1082-184 58" fill="none" stroke="#ca6864" stroke-linecap="round" stroke-linejoin="round" stroke-width="30"/><path d="m850 1009-184-59" fill="none" stroke="#ca6864" stroke-linecap="round" stroke-linejoin="round" stroke-width="30"/><path d="m1360 1082 184 58" fill="none" stroke="#ca6864" stroke-linecap="round" stroke-linejoin="round" stroke-width="30"/><path d="m1360 1009 184-59" fill="none" stroke="#ca6864" stroke-linecap="round" stroke-linejoin="round" stroke-width="30"/><path d="m805.484 717.262c11.141 36.449 57.422 54.597 103.368 40.547 45.953-14.047 74.168-54.977 63.023-91.418-11.145-36.442-57.422-54.59-103.367-40.551-45.953 14.051-74.172 54.98-63.024 91.422" fill="#fff" fill-rule="evenodd"/><path d="m892.996 762c-27.996-4-50-20-56.996-45-11-37 16.996-78 63-92 5-2 11-3 16-4-14-2-30-1-46 4-46.004 14-74 55-63 92 10 33 46.996 51 86.996 45" fill="#fbceb6" fill-rule="evenodd"/><path d="m1319.78 758.02c45.94 14.05 92.23-4.11 103.37-40.551 11.15-36.449-17.08-77.367-63.02-91.43-45.95-14.039-92.23 4.121-103.37 40.551-11.14 36.449 17.07 77.371 63.02 91.43" fill="#fff" fill-rule="evenodd"/><path d="m1350 623c-42-8-82 10-92 44-11 37 17 78 63 92 17 5 35 6 51 3-4-1-7-2-11-3-46-14-74-55-63-92 6-23 26-39 52-44" fill="#fbceb6" fill-rule="evenodd"/></g></svg>