<svg height="298.66666" viewBox="0 0 298.66666 298.66666" width="298.66666" xmlns="http://www.w3.org/2000/svg"><g transform="matrix(.13333333 0 0 -.13333333 0 298.66666)"><path d="m1120 2240c618.55 0 1120-501.44 1120-1120 0-618.559-501.45-1120-1120-1120-618.559 0-1120 501.441-1120 1120 0 618.56 501.441 1120 1120 1120" fill="#7e60b6" fill-rule="evenodd"/><path d="m1114 1541c89 0 175 93 175 265 0 101-106 233-191 274 0-146-123-227-145.004-352-21.996-125 72.004-187 161.004-187" fill="#e72957" fill-rule="evenodd"/><path d="m1098 2078c20-140-58-234-102-327-47-100 47-210 148-200 11 1 23 3 33 6-20-11-42-16-63-16-89 0-181.996 62-161.004 187 21.004 125 143.004 205 145.004 350" fill="#e4234c" fill-rule="evenodd"/><path d="m1116 1551c47 0 93 52 93 148 0 56-57 130-102 152 0-81-65-126-77-196s39-104 86-104" fill="#f35b63" fill-rule="evenodd"/><path d="m1121 1615v-105" fill="none" stroke="#c94324" stroke-linecap="round" stroke-linejoin="round" stroke-width="20"/><g fill-rule="evenodd"><path d="m960 1481h340c61 0 110-49 110-110v-680c0-61-49-110-110-110h-340c-61 0-110 49-110 110v680c0 61 49 110 110 110" fill="#fff"/><path d="m1014 1481c-38-17-64-56-64-100v-680c0-61 49-110 110-110h286c-14-6-30-10-46-10h-340c-61 0-110 49-110 110v680c0 61 49 110 110 110z" fill="#feeee7"/><path d="m964 1481c-38-17-64-56-64-100v-680c0-61 49-110 110-110h336c-14-6-30-10-46-10h-340c-61 0-110 49-110 110v680c0 61 49 110 110 110z" fill="#fde1d9"/><path d="m1222 1123v242c0 25-20 45-45 45h-4c-25 0-45-20-45-45v-155h-3v-158c0-29-23-52-52-52-21 0-40 13-48 31v242c0 26-21 47-47.004 47-25.992 0-46.996-21-46.996-47v-63c-2 0-3.996 0-5 0v-8c0-29-23.004-52-52-52-29 0-54 23-54 52v166 32c0 61 49 110 110 110h370c61 0 110-49 110-110v-61c-9 13-25 21-42 21-29 0-52-23-52-52v-97c-1 0-1 0-2 0v-73c0-26-21-48-48-48-20 0-38 14-44 33" fill="#fde8e0"/><path d="m1412 318c230 97 388 303 388 542h-1360c0-239 157.996-446 387.996-542 88.004-37 496.004-37 584.004 0" fill="#6ebfb8"/><path d="m477.004 665c-24.008 61-37.004 127-37.004 195h1360c0-68-13-134-37-195z" fill="#f1be2c"/><path d="m440 860h683s-3-195-1-195c-143 0-358 0-644.996 0-24.008 61-37.004 127-37.004 195" fill="#f2b123"/><path d="m1260 294c-155-10-370-2-432.004 24-230 96-387.996 303-387.996 542h242.004c20-239 182.996-442 410.996-540 30-12 92-21 167-26" fill="#5ab2ac"/><path d="m1361 305c-141-24-457-19-533.004 13-230 96-387.996 303-387.996 542h90c4-235 162.004-437 387.996-532 63.004-26 287.004-34 443.004-23" fill="#4aa3a0"/><path d="m732.996 665h-255.992c-24.008 61-37.004 127-37.004 195h242.004c5.992-68 22.996-134 50.992-195" fill="#f4a321"/><path d="m530 860c1-68 16-134 41-195h-93.996c-24.008 61-37.004 127-37.004 195z" fill="#f79122"/></g></g></svg>