<svg height="298.66666" viewBox="0 0 298.66666 298.66666" width="298.66666" xmlns="http://www.w3.org/2000/svg"><g fill-rule="evenodd" transform="matrix(.13333333 0 0 -.13333333 0 298.66667)"><path d="m1120 2240c618.55 0 1120-501.44 1120-1120 0-618.559-501.45-1120-1120-1120-618.559 0-1120 501.441-1120 1120 0 618.56 501.441 1120 1120 1120" fill="#e34057"/><path d="m439 1383c81 53 228.996-6 330-132 101-126 95-284-14-355s-257.004-12-330 132-67.004 303 14 355" fill="#f4a221"/><path d="m1805 1383c-81 53-229-6-330-132-101-125-95-284 14-355s257-12 330 132 67 303-14 355" fill="#f4a221"/><path d="m1125 1880c306.51 0 555-257.44 555-575 0-317.559-248.49-575-555-575-306.52 0-555 257.441-555 575 0 317.56 248.48 575 555 575" fill="#f1c73e"/><path d="m987.996 1862c-131.996-105-217.996-271-217.996-457 0-318 248-575 555-575 47 0 93 6 137 18-93-74-210-118-337-118-307.004 0-555 257-555 575 0 269 177.996 494 417.996 557" fill="#f1bb24"/><path d="m1210 1895c29-9 57-29 79-58 43-58 41-132-3-164-24-17-55-19-85-8-18-28-46-45-76-45-31 0-59 19-78 48-33-14-67-13-92 6-45 32-46 105-2.996 164 8.996 12 18.996 22 28.996 31 5 4 10 8 15 11 9 5 18 10 27 13 27 11 60 17 97 17 33 0 64-5 90-15" fill="#f69b21"/><path d="m1120 1620c-30 2-56 20-73 48-33-14-67-13-92 6-45 32-46 105-2.996 164 8.996 12 18.996 22 28.996 31 5 4 10 8 15 11 9 5 18 10 27 13 27 11 60 17 97 17z" fill="#f28c29"/><path d="m900 1560c22.09 0 40-17.91 40-40s-17.91-40-40-40-40 17.91-40 40 17.91 40 40 40" fill="#0e0f0e"/><path d="m1350 1560c22.09 0 40-17.91 40-40s-17.91-40-40-40-40 17.91-40 40 17.91 40 40 40" fill="#0e0f0e"/><path d="m1143 1516 61-71c11-13 9-32-3-42-1 0-1-1-2-1l-61-45c-11-8-25-8-36 0l-61 45c-13 10-16 29-6 42 0 1 1 1 1 2l61 71c11 13 30 14 42 3 2-1 3-2 4-4" fill="#d35f2d"/><path d="m1120 1351c-6 0-12 2-18 6l-61 45c-13 10-16 29-6 42 0 1 1 1 1 2l61 71c6 7 14 10 23 11z" fill="#ce4b22"/><path d="m325 1180 7.996 18c28.004 60 100 86 160 57 13.004-6 24.008-14 34.008-24l117.996-118c42.996-43 112.004-47 160-9l239 190c43 35 105 35 149 0l255-200c43-34 103-34 147-1l140 107c53 40 128 30 168-23 11-14 19-31 22-49l6-28c5-441-329-778-805-778-505 1-850 379-801 858" fill="#feebe4"/><path d="m325 1180 7.996 18c28.004 60 100 86 160 57 13.004-6 24.008-14 34.008-24l117.996-118c42.996-43 112.004-47 160-9l239 190c43 35 105 35 149 0l255-200c43-34 103-34 147-1l140 107c53 40 128 30 168-23 11-14 19-31 22-49l6-28c5-441-329-778-805-778-505 1-850 379-801 858" fill="#feebe4"/><path d="m627.996 1130c53.004-377 368.004-652 797.004-652 82 0 160 10 233 29-138-112-321-179-533-179-471 0-804 331-805 765 0 29 2.004 58 5 87l7.996 18c28.004 60 100 86 160 57 13.004-6 24.008-14 34.008-24z" fill="#fde2d9"/><path d="m449 1267c-71.004-504 278.996-909 796-909 57 0 113 5 166 15-87-29-183-45-286-45-471 0-804 331-805 765 0 29 2.004 58 5 87l7.996 18c22.004 46 69.008 72 116.004 69" fill="#fcd7c9"/><g fill="#fbcfbe"><path d="m565 920c13.809 0 25-11.191 25-25s-11.191-25-25-25-25 11.191-25 25 11.191 25 25 25"/><path d="m725 640c13.809 0 25-11.191 25-25s-11.191-25-25-25-25 11.191-25 25 11.191 25 25 25"/><path d="m545 760c13.809 0 25-11.191 25-25s-11.191-25-25-25-25 11.191-25 25 11.191 25 25 25"/></g><path d="m534 757c8.004-15 16-29 25-43-4-2-9-4-14-4-14 0-25 11-25 25 0 10 6 18 14 22" fill="#f8bea4"/></g></svg>