<svg height="298.66666" viewBox="0 0 298.66666 298.66666" width="298.66666" xmlns="http://www.w3.org/2000/svg"><g fill-rule="evenodd" transform="matrix(.13333333 0 0 -.13333333 0 298.66666)"><path d="m1120 2240c618.55 0 1120-501.44 1120-1120 0-618.559-501.45-1120-1120-1120-618.559 0-1120 501.441-1120 1120 0 618.56 501.441 1120 1120 1120" fill="#56b4a6"/><path d="m465 985.949 352.996 112.001v-571.009h-457.996v316.008c0 65 42.004 123 105 143" fill="#fff"/><path d="m611 1031.94-103.004-33.991c-60.992-20-102.996-78.008-102.996-142v-329.008h-45v316.008c0 65 42.004 123 105 143z" fill="#feebdf"/><path d="m360 574.941h430v-46h-430z" fill="#f08c58"/><path d="m580 904.941c46 0 82.004-36.992 82.004-81.992v-176.008h-165v175c0 46.008 36.996 83 82.996 83" fill="#f36058"/><path d="m1775 985.949-353 112.001v-571.009h458v316.008c0 65-42 123-105 143" fill="#fff"/><path d="m1495 1074.94-73 23.01v-571.009h73z" fill="#feebdf"/><path d="m1880 528.941h-430z" fill="#f08c58"/><path d="m1660 904.941c-46 0-82-36.992-82-81.992v-176.008h165v175c0 46.008-37 83-83 83" fill="#f36058"/><path d="m1097 2009v63c0 16 13 28 28 28s28-13 28-28v-63h69c15 0 28-12 28-28 0-15-12-28-28-28h-69v-125c0-16-13-28-28-28s-28 13-28 28v125h-69c-15 0-28 12-28 28 0 15 12 28 28 28z" fill="#f1c73e"/><path d="m1130 2100v-300c-1 0-1 0-2 0-16 0-29 13-29 29v124h-71c-15 0-28 12-28 28 0 15 12 28 28 28h71v63c0 16 13 29 29 29 0-1 1-1 2-1" fill="#f1be2c"/><path d="m790 1309 330 401 330-401v-789h-660z" fill="#fff"/><path d="m1147 1678-303-369v-789h-54v789l330 401z" fill="#feebdf"/><path d="m1120 1124c106 0 192-86 192-192v-412h-384.004v412c0 106 86.004 192 192.004 192" fill="#a86f4f"/><path d="m1120 520h-192.004v412c0 106 86.004 192 192.004 192z" fill="#a16441"/><path d="m1120 1435c45.28 0 82-36.71 82-82s-36.72-82-82-82c-45.29 0-82 36.71-82 82s36.71 82 82 82" fill="#ef3366"/><path d="m1120 1436v-165c-46 0-82 37-82 82s36 83 82 83" fill="#ef2a5b"/><path d="m1461 1214-319 431c-2 2-4 4-6 6-12 9-29 6-38-6l-319-431c-14-19-40-23-59-9-2.004 1-2.996 3-5 4-20 20-22.004 52-6 75l388 525c9 12 26 15 38 6l6-6 389-525c17-23 14-54-6-75-17-17-43-17-60 0-1 1-2 3-3 5" fill="#ef3366"/><path d="m1120 1656c-8 0-17-4-22-11l-319-431c-14-19-40-23-59-9-2.004 1-2.996 3-5 4-20 20-22.004 52-6 75l388 525c5 7 14 11 22 11v-164z" fill="#ef2a5b"/></g></svg>