<svg height="298.66666" viewBox="0 0 298.66666 298.66666" width="298.66666" xmlns="http://www.w3.org/2000/svg"><g fill-rule="evenodd" transform="matrix(.13333333 0 0 -.13333333 0 298.66666)"><path d="m1120 2240c618.55 0 1120-501.44 1120-1120 0-618.559-501.45-1120-1120-1120-618.559 0-1120 501.441-1120 1120 0 618.56 501.441 1120 1120 1120" fill="#fdddcd"/><path d="m1116 339c455 0 760 356 685 796-72 439-377 795-685 795-308.004 0-613.004-356-685-796-75-439 230-795 685-795" fill="#f1c73e"/><path d="m1042 1921c-169.996-143-306-385-351-659-75-439 230-796 685-796 71 0 138 9 201 25-119-97-278-155-461-155-455 0-760 356-685 796 66.996 405 330 738 611 789z" fill="#f1ba24"/><path d="m967.996 1901c-251.996-91-475.992-400-536.996-769-75-439 230-796 685-796 89 0 171 14 247 39-46-8-94-13-143-13-455 0-760 362-685 809 52.004 322 225 600 432.996 730" fill="#f3aa22"/><path d="m1121 781-190-86c-25-11-55 0-66 25-4 8-5 17-4 26l23 207-140 154c-19 20-16.996 52 3.004 71 6.996 6 15 10 22.996 12l204 42 103 181c14 24 44 32 68 19 8-4 14-11 19-19l103-181 204-42c27-6 44-32 39-59-2-9-6-17-12-23l-140-154 23-207c3-27-17-52-44-55-9-1-18 0-26 4z" fill="#f03569"/><path d="m1112 777-181-82c-25-11-55 0-66 25-4 8-5 17-4 26l23 207-140 154c-6.004 7-11.004 16-11.996 24v19c1.996 10 6.996 20 15.992 28 7.004 6 15 10 23.004 12l204 42 103 181c8 13 21 22 35 24v-660z" fill="#ee2450"/><path d="m1400 1832 40-202c5-27-12-53-39-58-14-3-29 1-40 10l-67 53c-21 17-52 14-70-7l-68-82c-18-21-49-24-70-6-3 2-6 5-8 8l-58 76c-17 22-47.996 26-70 10-1-1-1-1-2.004-2l-57.996-50c-21-18-51-15-69 5-8.996 11-13.004 25-11 39l30 211c87.996 60 182 94 277 94 97-1 194-37 283-99" fill="#d35f2d"/><path d="m1112 1528c-10 1-19 5-27 11-3 2-6 5-8 8l-58 76c-17 22-48 26-70 10-1.004-1-1.004-1-1.996-2l-58.004-50c-21.004-18-51.004-15-69 5-9 11-12.996 25-11 39l30 211c86 59 180 93 273 94z" fill="#ce4b22"/></g></svg>