<svg height="298.66666" viewBox="0 0 298.66666 298.66666" width="298.66666" xmlns="http://www.w3.org/2000/svg"><g fill-rule="evenodd" transform="matrix(.13333333 0 0 -.13333333 0 298.66666)"><path d="m1120 2240c618.55 0 1120-501.44 1120-1120 0-618.559-501.45-1120-1120-1120-618.559 0-1120 501.441-1120 1120 0 618.56 501.441 1120 1120 1120" fill="#c4ebed"/><path d="m1115 339c454 0 759 356 684 796-72 439-377 795-684 795-307.004 0-612.004-356-684-796-75-439 230-795 684-795" fill="#74c8be"/><path d="m1041 1923c-170-143-306-385-351-659-75-439 230-796 684-796 71 0 138 9 201 25-119-97-278-155-460-155-454 0-759 356-684 796 66.996 404 330 738 610 789z" fill="#61bdb5"/><path d="m967.004 1903c-251.004-91-475-401-535-769-75-439 230-796 683.996-796 88 0 171 14 247 39-46-8-93-13-143-13-454 0-759 362-684 809 51.004 322 223 600 431.004 730" fill="#52b2ac"/><path d="m1291 1892v-1534c-56-12-115-19-176-19-60 0-117.004 6-171 18v1537c56 23 113 36 171 36 59 0 119-13 176-38" fill="#f3a732"/><path d="m1111 339c-58 0-113.996 6-167 18v1537c55 23 111 35 167 36z" fill="#f59c21"/><path d="m1291.73 472.23v-115c-56.01-12.011-115-19.011-176-19.011-60 0-117.003 6.011-171.003 18v244c95.003-69 212.993-115 347.003-127.989z" fill="#f59c21"/><g fill="#f68d20"><path d="m1291.73 368.219v-10c-56.01-12-115-18.989-176-18.989-60 0-117.003 5.989-171.003 18v57c83.003-32 175.003-49.011 275.003-49.011 24-.989 47.99 0 72 3"/><path d="m943.727 1826.22v68c32 13.01 65.003 23.01 97.003 29-34-29-66.003-60.99-97.003-97z"/><path d="m1110.73 338.219c-58 0-114 6.011-167.003 18v244c50-35.989 106.003-65.989 167.003-87.989z"/></g><path d="m943.727 414.23c52-20 108.003-34.011 167.003-42v-33c-58 0-114 5.989-167.003 18z" fill="#f57c22"/><path d="m1057.63 1242.7c7-23 9.01-45 2-64-6-19-20-36-40-50 24 0 45-6 62.01-17 15.99-11.99 27.99-30 35.99-53 7 23 19 41.01 36 53 16.01 12 38 17 62 17-19 14-32.99 31-40 50-5.99 19-5 41 2.01 64-19.01-14-40-22-60.01-22-20 0-40.99 8-60 22zm-75.993 103c-8.004 19-14.004 40-18.004 61-17.996 103 49.997 186 153.997 186s172.01-83 153-186c-4-21-10-42-17.99-61 15.99 13 33.99 25 52.99 36 92.01 50 193 11 225-88 32.01-98-25.99-188.99-130-203-22-3-42.99-3-64-2 18.01-11 35-23.99 50-38.99 76.01-72.011 70-179.011-13.99-239.999-84.01-61.012-188-33.012-234.01 60.988-9 20-16.99 40-21.99 60-5-20-12.01-40-22.01-60-45-94-149.997-120.988-233.993-60.988-84 60.988-90 167.988-14 239.999 15.996 15 32.996 27.99 50 38.99-21-1-42.004-1-64.004 2-104 14.01-161.996 104-130 203 32 98 133.004 137 225 88 21-11 39.004-23 54.004-36" fill="#8668ba"/><path d="m1113.63 1592.7v-372c-19 1-38 9-56 22 7-23 9.01-45 2-64-6-19-20-36-40-50 24 0 45-6 62.01-17 13.99-10 25-25 31.99-43v-152.001c-5-15-11-31-18-46-45-94-149.993-120.988-233.993-60.988-84.004 60.988-90 167.988-14.004 239.999 16 15 33.004 27.99 50 38.99-20.996-1-41.996-1-64 2-104 14.01-161.996 104-130 203 32.004 98 133.004 137 225 88 19-10 37.004-22 53.004-36-8.004 19-14.004 40-18.004 61-17.996 101 48.997 184 149.997 186" fill="#6954af"/><path d="m1117.63 1264.7c71.8 0 130.01-58.2 130.01-130 0-71.79-58.21-129.99-130.01-129.99s-129.997 58.2-129.997 129.99c0 71.8 58.197 130 129.997 130" fill="#efcb25"/><path d="m1113.63 1004.71c-70 1.99-126.993 58.99-126.993 129.99s55.993 128 126.993 130z" fill="#f1bd24"/><path d="m1117 624c-34 0-61 27-61 61 0 33 27 61 61 61s61-27 61-61-27-61-61-61zm0 1038c-34 0-61 27-61 61 0 33 27 61 61 61s61-27 61-61-27-61-61-61" fill="#eecd25"/><path d="m1111 745v-120c-30 3-54 29-54 60s23 56 54 60zm0 1038v-120c-30 3-54 29-54 60s23 56 54 60" fill="#f0bd24"/><path d="m1117 521c33.69 0 61-27.309 61-61s-27.31-61-61-61-61 27.309-61 61 27.31 61 61 61" fill="#efc724"/><path d="m1111 520v-120c-30 3-54 29-54 60s23 57 54 60" fill="#f1bd24"/></g></svg>