<svg height="298.66666" viewBox="0 0 298.66666 298.66666" width="298.66666" xmlns="http://www.w3.org/2000/svg"><g fill-rule="evenodd" transform="matrix(.13333333 0 0 -.13333333 0 298.66666)"><path d="m1120 2240c618.55 0 1120-501.44 1120-1120 0-618.559-501.45-1120-1120-1120-618.559 0-1120 501.441-1120 1120 0 618.56 501.441 1120 1120 1120" fill="#f9a8c2"/><path d="m1115 329c454 0 759 356 684 796-72 439-377 795-684 795-307.004 0-612.004-356-684-796-75-439 230-795 684-795" fill="#ef3366"/><path d="m1041 1911c-170-143-306-385-351-659-75-439 230-796 684-796 71 0 138 9 201 25-119-97-278-155-460-155-454 0-759 356-684 796 66.996 405 330 738 610 789z" fill="#ee224e"/><path d="m967.004 1891c-252.004-91-475-400-536.004-769-75-439 230-796 684-796 88 0 171 14 247 39-46-8-93-13-143-13-454 0-759 362-684 809 52.004 322 224 600 432.004 730" fill="#ed1f35"/><path d="m1111.17 988.191c47 0 121.01 136.999 121.01 213.999s-54.01 140-121.01 140-120.994-63-120.994-140 72.994-213.999 120.994-213.999" fill="#f3a926"/><path d="m1111.17 1343.19v-354.999c-47 0-120.994 136.999-120.994 213.999s53.994 141 120.994 141" fill="#f69b21"/><path d="m1154.17 945.18c0-46.989 133.01-120.989 209-120.989 76 0 137.01 54 137.01 120.989 0 67.01-61.01 121.01-137.01 121.01-75.99 0-209-73.999-209-121.01" fill="#f0c833"/><path d="m1111.17 902.191c-47 0-120.994-137.011-120.994-214 0-77 53.994-140 120.994-140s121.01 63 121.01 140c0 76.989-74.01 214-121.01 214" fill="#70c8c0"/><path d="m1111.17 902.191v-355c-67 0-120.994 63-120.994 140s72.994 215 120.994 215" fill="#5cbfb9"/><path d="m1067.17 945.18c0 47.011-132.994 121.01-208.994 121.01-76.004 0-136.004-54-136.004-121.01 0-66.989 61.004-120.989 137.004-120.989s207.994 73 207.994 120.989" fill="#7c62b7"/><path d="m824 1816h582c110-80 209-200 281-346h-1144.004c72.004 146 171.004 267 281.004 346" fill="#6695d5"/><path d="m1111 1816v-346h-568.004c73.004 145 171.004 266 281.004 346z" fill="#5b8ed1"/><path d="m827.004 1816h118.996c-82-95-150-213-198.004-346h-203.996c73.004 146 172 267 283.004 346" fill="#487ac6"/><path d="m869 1816c-96.996-87-181.004-207-243-346h-83.004c73.004 146 172.004 267 283.004 346z" fill="#3c68bb"/><path d="m1111 1721c43.08 0 78-34.92 78-78s-34.92-78-78-78-78 34.92-78 78 34.92 78 78 78" fill="#f0376b"/><path d="m1111 1721v-156c-43 0-78 35-78 78s35 78 78 78" fill="#ee224c"/><path d="m882.004 1704c35.894 0 65-29.11 65-65 0-35.9-29.106-65-65-65-35.899 0-65 29.1-65 65 0 35.89 29.101 65 65 65" fill="#f0c833"/><path d="m1348 1704c35.9 0 65-29.11 65-65 0-35.9-29.1-65-65-65s-65 29.1-65 65c0 35.89 29.1 65 65 65" fill="#f59c21"/></g></svg>