<svg height="298.66666" viewBox="0 0 298.66666 298.66666" width="298.66666" xmlns="http://www.w3.org/2000/svg"><g transform="matrix(.13333333 0 0 -.13333333 0 298.66666)"><g fill-rule="evenodd"><path d="m1120 2240c618.55 0 1120-501.44 1120-1120 0-618.559-501.45-1120-1120-1120-618.559 0-1120 501.441-1120 1120 0 618.56 501.441 1120 1120 1120" fill="#cfe2f6"/><path d="m1116 349c455 0 760 356 685 796-72 439-377 795-685 795-308.004 0-613.004-356-685-796-75-439 230-795 685-795" fill="#6594d5"/><path d="m832.996 400c4.008 23 13.004 45 28.004 65 1.996 3 4 6 6.996 9-3.996 1-6.996 2-10.992 3-82.004 27-127.004 114-100 196 26.996 82 113.996 127 195.992 100 4.008-1 7.004-2 10-4v11c0 86 70.004 156 156.004 156s156-70 156-156c0-4 0-7 0-11 3 1 7 3 10 4 82 27 170-18 196-100 27-82-18-170-100-196-4-1-7-2-11-3 2-3 5-6 7-9 14-20 23-41 27-64-86-34-183-53-287-53-104 1-199.004 19-284.004 52" fill="#6594d5"/><path d="m1042 1931c-169.996-143-306-385-351-659-75-439 230-796 685-796 71 0 138 9 201 25-119-97-278-155-461-155-455 0-760 356-685 796 66.996 405 330 738 611 789" fill="#5182cb"/><path d="m967.996 1911c-251.996-91-475.992-400-536.996-769-75-439 230-796 685-796 89 0 171 14 247 39-46-8-94-13-143-13-455 0-760 362-685 809 52.004 322 225 600 432.996 730" fill="#4171c1"/><path d="m832.645 400.762c4.003 23 13.003 45 28.003 65 1.997 3 4 6 6.997 8.988-3.997 1.012-6.997 2.012-10.997 3-82 27-127 114.012-100 196.012s114 127 195.997 100c4.003-1.012 7.003-2 10-4.012v11.012c0 86 70.005 156 156.005 156s156-70 156-156c0-4 0-7 0-11.012 3 1.012 7 3 10 4.012 82 27 170-18 195.99-100 26.01-82-17.99-170-100-196.012-3.99-.988-6.99-1.988-10.99-3 2-2.988 5-5.988 7-8.988 13.99-20 23-41.012 27-64-86-34.012-183.01-53-287-53-104 0-199.005 18-284.005 52" fill="#f69b21"/><path d="m1116.65 668.762c64.62 0 117-52.383 117-117 0-64.621-52.38-117.012-117-117.012s-117.002 52.391-117.002 117.012c0 64.617 52.382 117 117.002 117" fill="#eecd25"/><path d="m1376.65 476.762c-2-1-5-1-7-2.012 2-2.988 5-5.988 7-8.988 15-20 23.99-43.012 28-66.012-87-33.988-184.01-52.988-288-52.988-103 0-199.005 17.988-284.005 52 4.003 23.988 13.003 47 28.003 67 1.997 3 4 6 6.997 8.988-3.997 1.012-6.997 2.012-10.997 3-82 27-127 114.012-100 196.012 10 28.988 27 53.988 49 72 122-165 324.002-269 571.002-269-1.01 0 0 0 0 0" fill="#f68c21"/><path d="m1001.65 571.762c64-37.012 137-64.012 215-80-20-34.012-58-57.012-100-57.012-64 0-117.002 52.012-117.002 117.012 0 7 0 14 2.002 20" fill="#efc724"/></g><path d="m1115.89 346.41c-103 0-197.999 17.988-283.999 52 7.597 40.262 19.812 58.02 25.246 62.469-12.907-18.68-20.809-38.981-24.492-60.117.109-.043.214-.09.324-.133-.11-.617-.219-1.25-.324-1.867 85-34.012 181.005-52 284.005-52 49.07 0 96.58 4.226 142.22 12.269-45.58-8.242-93.19-12.621-142.98-12.621" fill="#7e7c71"/><path d="m832.969 400.629c-.11.043-.215.09-.324.133 3.683 21.136 11.585 41.437 24.492 60.117.008.012.019.019.031.031-12.559-18.301-20.387-38.879-24.199-60.281" fill="#f68b21"/><path d="m1116.65 346.762c-103 0-199.005 17.988-284.005 52 .105.617.214 1.25.324 1.867 3.812 21.402 11.64 41.98 24.199 60.281.953.77 1.695 1.141 2.16 1.141.367 0 .567-.231.567-.641 102.996-57.012 224.995-89.012 359.995-89.012 50 0 97 4 143 13.012-33.48-11.012-68.12-19.89-104.02-26.379-45.64-8.043-93.15-12.269-142.22-12.269" fill="#f68422"/><path d="m479.895 1339.4c90 264.01 261.996 476 455 561 1 0 1 0 1.996-1 79.999-30.99 119.999-120.99 89.999-200.99-1-3.01-3-7-4-10h11c86-4.01 152-78.01 147-164.01-4-85.99-78-151.99-164-146.99-4 0-7 1-11 1 1-3.01 2-7 3-11 22-83.01-26.999-168.01-109.999-191-82.996-22.01-167.996 27-191 110-1 3.99-1.996 7-2.996 11-3.004-2.01-6.004-4-9-6-72.004-47.01-169.004-26.01-215 46 0 0 0 1-1 1.99" fill="#eecd25" fill-rule="evenodd"/><path d="m980.895 1874.4c-138.004-142.99-245-351.99-287.004-585-72-44-166-24-212 47.01 0 1-.996 1-.996 2 90 265 264 476.99 456.996 560.99 16-5.99 30-15 43.004-25" fill="#f0c524" fill-rule="evenodd"/><path d="m944.895 1896.41c-177.004-122.01-325-350-390-619-29 11.99-55 31.99-73.004 60 0 1-.996 1-.996 1.99 90 265 264 477.01 456.996 561 2.004-1.99 5-2.99 7.004-3.99" fill="#f1ba24" fill-rule="evenodd"/><path d="m839.59 1650.18c60.328-23.16 90.453-90.84 67.301-151.16-23.161-60.33-90.836-90.46-151.161-67.3-60.324 23.16-90.457 90.83-67.296 151.16 23.152 60.32 90.828 90.46 151.156 67.3" fill="#f78d21" fill-rule="evenodd"/><path d="m821.891 1655.4c-35.996-65-65.996-136-90-211-44 30-63 87.01-44 139.01 21 54 79 83 134 71.99" fill="#f57b23" fill-rule="evenodd"/><path d="m1663.9 1538.41c65-116 112.99-251 136.99-394.01 10-55.99 13.01-110 11-162.002-29-5.988-59-3.988-89 7-3 1.012-7 3-10 4.012 0-4.012 0-7 0-11.012-3.99-85.988-78-151.988-163.99-146.988-86.01 3.988-152.01 78-147.01 163.988 0 4.012 1 7.012 1 11.012-3-1.01-7-2-11-3.01-82.99-21.99-167.99 27-191 110.01-23 82.99 27 167.99 110 191 4 .99 7 1.99 11 3-2 2.99-4 6-6 8.99-46.99 72.01-26 169 46 215 72.01 46.01 169 26.01 215-46 2.01-2.99 4-5.99 6-10 2 3.01 4 6 7 9.01 20 24 46 40.99 74.01 50" fill="#ef3264" fill-rule="evenodd"/><path d="m1506.14 1307.95c54.2 35.19 126.66 19.79 161.85-34.4s19.79-126.65-34.4-161.85c-54.2-35.19-126.66-19.79-161.85 34.41-35.19 54.19-19.79 126.65 34.4 161.84" fill="#f25380" fill-rule="evenodd"/></g></svg>