<svg height="298.66666" viewBox="0 0 298.66666 298.66666" width="298.66666" xmlns="http://www.w3.org/2000/svg"><g fill-rule="evenodd" transform="matrix(.13333333 0 0 -.13333333 0 298.66666)"><path d="m1120 2240c618.55 0 1120-501.44 1120-1120 0-618.559-501.45-1120-1120-1120-618.559 0-1120 501.441-1120 1120 0 618.56 501.441 1120 1120 1120" fill="#f9a8c2"/><path d="m1116 329c455 0 760 356 685 796-72 439-377 795-685 795-308.004 0-613.004-356-685-796-75-439 230-795 685-795" fill="#ef3366"/><path d="m1042 1911c-169.996-143-306-385-351-659-75-439 230-796 685-796 71 0 138 9 201 25-119-97-278-155-461-155-455 0-760 356-685 796 66.996 405 330 738 611 789z" fill="#ee2451"/><path d="m967.996 1891c-251.996-91-475.992-400-536.996-769-75-439 230-796 685-796 89 0 171 14 247 39-46-8-94-13-143-13-455 0-760 362-685 809 52.004 322 225 600 432.996 730" fill="#ed1f35"/><path d="m688.16 457.949c-77 55-140 125.992-185.996 208h1228.006c-46.01-82.008-109.01-152.008-186.01-208z" fill="#f3a926"/><path d="m1108.16 665.949v-208h-420c-77 55-140 125.992-185.996 208z" fill="#f59c21"/><path d="m856.16 665.949c113-118 273-195 463-208h-631c-77 55-140 125.992-185.996 208z" fill="#f68c21"/><path d="m831.16 457.949h-143c-77 55-140 125.992-185.996 208h120.996c52-84.008 123-155 208-208" fill="#f57a23"/><path d="m1116.08 833.211-145.998-65.992c-25-11-55 0-66 25-4 7.992-5 17-4 25.992l18 160-109 118.009c-19 19.99-17.004 52 2.996 71 7.004 6 15 10 23.004 12l156.996 33 80.002 138.99c14 24.01 44 32.01 68 19.01 8.01-4.01 14-11 19-19.01l80-138.99 157-33c27-6 44-32 39-59-1.99-9.01-6-17.01-11.99-23l-108.01-120.001 18.01-160c2.99-27.008-17.01-52.008-44.01-55-9-1-18 0-25.99 4z" fill="#f1c73e"/><path d="m1112.08 827.219-132.998-60c-25-11-55 0-66 25-4 7.992-5 17-4 25.992l17.996 160-108.996 118.009c-19 19.99-17.004 52 2.996 71 7.004 6 15 10 23.004 12l156.998 33 80 138.99c7 12.01 18 20 30 23.01v-547.001z" fill="#f1bb24"/><g fill="#f1c73e"><path d="m835.082 977.219c19.328 0 35-15.68 35-35 0-19.328-15.672-35-35-35s-35 15.672-35 35c0 19.32 15.672 35 35 35"/><path d="m930.082 1315.22c19.328 0 35-15.67 35-35s-15.672-35-35-35-35 15.67-35 35 15.672 35 35 35"/><path d="m1311.08 1315.22c19.33 0 35-15.67 35-35s-15.67-35-35-35-35 15.67-35 35 15.67 35 35 35"/><path d="m1397.08 977.219c19.33 0 35-15.68 35-35 0-19.328-15.67-35-35-35s-35 15.672-35 35c0 19.32 15.67 35 35 35"/><path d="m1112.08 787.219c19.33 0 35-15.68 35-35 0-19.328-15.67-35-35-35s-35 15.672-35 35c0 19.32 15.67 35 35 35"/></g><path d="m823.082 1816.21h582.998c110-80 209-200 282-345.99h-1147.002c73.004 145.99 171 265.99 282.004 345.99" fill="#7c62b7"/><path d="m1112.08 1816.21v-345.99h-571.002c73.004 145.99 171 265.99 282.004 345.99z" fill="#6954af"/><path d="m827.078 1816.21h119c-81.996-95-150.996-212.99-199-345.99h-202.996c72.996 145.99 171.996 266.99 282.996 345.99" fill="#5b4aa8"/><path d="m827.078 1816.21h42.004c-96-86.99-181-206.99-243.004-345.99h-82.996c73.996 145.99 172.996 266.99 283.996 345.99" fill="#5147a6"/><path d="m1110.08 1721.21c43.08 0 78.01-34.92 78.01-77.99 0-43.08-34.93-78-78.01-78s-78 34.92-78 78c0 43.07 34.92 77.99 78 77.99" fill="#f1c73e"/><path d="m1112.08 1721.21v-155.99c-1 0-1 0-2 0-43 0-78 35-78 78 0 42.99 35 77.99 78 77.99z" fill="#f1bb24"/><path d="m881.078 1704.22c35.899 0 65-29.1 65-65s-29.101-65-65-65c-35.898 0-65 29.1-65 65s29.102 65 65 65" fill="#70c8c0"/><path d="m1348.08 1704.22c35.9 0 65-29.1 65-65s-29.1-65-65-65-65 29.1-65 65 29.1 65 65 65" fill="#70c8c0"/></g></svg>