<svg height="298.66666" viewBox="0 0 298.66666 298.66666" width="298.66666" xmlns="http://www.w3.org/2000/svg"><g fill-rule="evenodd" transform="matrix(.13333333 0 0 -.13333333 0 298.66666)"><path d="m1120 2240c618.55 0 1120-501.44 1120-1120 0-618.559-501.45-1120-1120-1120-618.559 0-1120 501.441-1120 1120 0 618.56 501.441 1120 1120 1120" fill="#f58051"/><path d="m1009.7 459.27c369.77-172.43 750.74-1.411 855.26 381.281 105.91 380.919-7.54 783.599-257.68 900.239s-631.112-54.38-855.268-381.27c-226.871-325.63-112.09-727.821 257.688-900.25" fill="#fcdbcf"/><path d="m954 390c408 0 682 316 614 705-64 389-338 705-614 705-276.004 0-549-316-614-705-67.004-389 207.004-705 614-705" fill="#fff"/><path d="m891 1791c-153.996-126-277-341-318.004-585-67.996-388 206.004-703 614.004-703 63 0 122 7 178 21-107-85-248-134-410-134-407.996 0-682.004 315-614 703 59 359 296.996 655 550 698z" fill="#fde9e2"/><path d="m824 1782c-226.996-78-430-355-484-685-67.004-390 205-707 611-707 75 0 145 11 209 31-37-6-76-9-116-9-405 0-678 322-611.004 719 46.004 288 204.008 537 391.004 651" fill="#fcd0c0"/><g fill="#fbcfbe"><path d="m523.578 842.262c9.942 0 18-8.5 18-19 0-10.492-8.058-18.992-18-18.992-9.941 0-18.004 8.5-18.004 18.992 0 10.5 8.063 19 18.004 19"/><path d="m641.578 623.262c9.942 0 18-8.512 18-18.992 0-10.5-8.058-19.008-18-19.008-9.941 0-18 8.508-18 19.008 0 10.48 8.059 18.992 18 18.992"/><path d="m508.578 717.262c9.942 0 18-8.5 18-19 0-10.492-8.058-18.992-18-18.992-9.941 0-18.004 8.5-18.004 18.992 0 10.5 8.063 19 18.004 19"/></g><path d="m500.574 715.262c6.004-10.992 12.004-23 19.004-33.992-3-2-6-3.008-10-3.008-10 0-18 9-18 19-1.004 8 3 15 8.996 18" fill="#f8bea4"/></g></svg>