<svg height="298.66666" viewBox="0 0 298.66666 298.66666" width="298.66666" xmlns="http://www.w3.org/2000/svg"><g fill-rule="evenodd" transform="matrix(.13333333 0 0 -.13333333 0 298.66666)"><path d="m1120 2240c618.55 0 1120-501.44 1120-1120 0-618.559-501.45-1120-1120-1120-618.559 0-1120 501.441-1120 1120 0 618.56 501.441 1120 1120 1120" fill="#e4cfeb"/><path d="m1115 329c454 0 759 356 684 796-72 439-377 795-684 795-307.004 0-612.004-356-684-796-75-439 230-795 684-795" fill="#7c62b7"/><path d="m1041 1911c-170-143-306-385-351-659-75-439 230-796 684-796 71 0 138 9 201 25-119-97-278-155-460-155-454 0-759 356-684 796 66.996 405 330 738 610 789z" fill="#664caa"/><path d="m967.004 1891c-252.004-91-475-400-536.004-769-75-439 230-796 684-796 88 0 171 14 247 39-46-8-93-13-143-13-454 0-759 362-684 809 52.004 322 224 600 432.004 730" fill="#5c45a5"/><path d="m765 718c-37.996 0-69 31-69 69s31.004 69 69 69 69-31 69-69-31.004-69-69-69" fill="#70c8c0"/><path d="m1111 1107c-38 0-69 31-69 69s31 69 69 69 69-31 69-69-31-69-69-69" fill="#f69b21"/><path d="m1456 718c-38 0-69 31-69 69s31 69 69 69 69-31 69-69-31-69-69-69" fill="#f69b21"/><path d="m1672 1107c-38 0-69 31-69 69s31 69 69 69 69-31 69-69-31-69-69-69" fill="#70c8c0"/><path d="m557.996 1107c-37.996 0-68.996 31-68.996 69s31 69 68.996 69c38.004 0 69.008-31 69.008-69s-31.004-69-69.008-69" fill="#5ebeb8"/><path d="m557.996 1107c-37.996 0-68.996 31-68.996 69s31 69 68.996 69c38.004 0 69.008-31 69.008-69s-31.004-69-69.008-69" fill="#5ebeb8"/><path d="m551 1245c-6-28-12-55-16-84-2.996-16-5-32-7.004-48-22.996 11-38.996 35-38.996 62 0 37 27 67 62 70" fill="#4fb2af"/><path d="m1809 1025c4-83-7-162-29-235-41-7-85 1-121 22l-136 82c-54 32-124 33-178 2l-153-86c-55-31-125-30-179 3l-138 84c-51 31-117.996 34-172.004 7-106.996-49-180.992-84-221.996-105 0 0-12-9-28.004-18-20 63-31.996 131-32.996 202 12.004 4 25 9 40 14l244 115c53.004 29 120 28 172-2l140-80c52-30 118-31 171-2l161 86c53 28 119 27 170-2l135-76c49-29 107-31 156-11" fill="#f0c833"/><path d="m1111 787c-34-1-69 7-98 25l-138 84c-51 31-117.996 34-172.004 7-106.996-49-180.992-84-221.996-105 0 0-12-9-28.004-18-20 63-31.996 131-32.996 202 12.004 4 25 9 40 14l244 115c53.004 29 120 28 172-2l140-80c29-16 61-24 94-23v-219z" fill="#f1bb24"/><path d="m712.004 907c-3.004-1-6.004-3-9.008-4-106.996-49-180.992-84-221.996-105 0 0-12-9-28.004-18-20 63-31.996 131-32.996 202 12.004 4 25 9 40 14l219 104c2-68 13.004-132 33.004-193" fill="#f0c833"/><path d="m712.004 907c-3.004-1-6.004-3-9.008-4-106.996-49-180.992-84-221.996-105 0 0-12-9-28.004-18-20 63-31.996 131-32.996 202 12.004 4 25 9 40 14l219 104c2-68 13.004-132 33.004-193" fill="#f2b223"/><path d="m550 832c-29-14-52.004-25-69-34 0 0-12-9-28.004-18-20 63-31.996 131-32.996 202 12.004 4 25 9 40 14l62.996 30c1.004-68 10-133 27.004-194" fill="#f4a621"/><path d="m920 1873 100-57c52-30 119-31 172-2l115 61c95-44 184-119 261-216l-38 22c-54 32-125 33-180 2l-154-87c-55-31-126-30-181 3l-139 84c-51 31-118.996 34-173.004 7-8.996-4-17.996-8-25.992-12 72.996 86 155 154 242.996 195" fill="#f0c833"/><path d="m1111 1794v-219c-33 0-66 8-95 25l-138.996 84c-51.004 31-119.008 34-173.004 7-9-4-18-8-26.004-12 72.004 85 154.008 153 242.004 194l100-57c28-15 59-23 91-22" fill="#f1bd24"/><path d="m921 1872 49-28c-42.004-44-80-95-115-150-47.996 20-105 19-152.004-4-7.996-4-15.992-7-23.996-11 73.004 86 156 152 242 193" fill="#f2b323"/><path d="m931 1867c-58.004-42-113.004-96-163.004-159-21.996-2-43.996-8-63.996-18-8-4-16.004-7-24-11 72.004 85 155 152 241 193z" fill="#f4a721"/></g></svg>