<svg height="298.66666" viewBox="0 0 298.66666 298.66666" width="298.66666" xmlns="http://www.w3.org/2000/svg"><g transform="matrix(.13333333 0 0 -.13333333 0 298.66666)"><g fill-rule="evenodd"><path d="m1120 2240c618.55 0 1120-501.44 1120-1120 0-618.559-501.45-1120-1120-1120-618.559 0-1120 501.441-1120 1120 0 618.56 501.441 1120 1120 1120" fill="#c4ebed"/><path d="m1115 329c454 0 759 356 684 796-72 439-377 795-684 795-307.004 0-612.004-356-684-796-75-439 230-795 684-795" fill="#72c8bf"/><path d="m1041 1911c-170-143-306-385-351-659-75-439 230-796 684-796 71 0 138 9 201 25-119-97-278-155-460-155-454 0-759 356-684 796 66.996 405 330 738 610 789" fill="#5fbeb7"/><path d="m967.004 1891c-252.004-91-475-400-536.004-769-75-439 230-796 684-796 88 0 171 14 247 39-46-8-93-13-143-13-454 0-759 362-684 809 52.004 322 224 600 432.004 730" fill="#50b2ae"/><path d="m1674 1496c59-111 103-238 125-372h-515v-778c-53-11-110-17-168-17-62 0-121 7-177 19v776h-508c21.996 134 66.004 261 125 372h381.996v386c58.004 25 117.004 38 177.004 38 57 0 113-12 168-35v-389z" fill="#f3a926"/><path d="m1283 461v-115c-53-11-110-17-168-17-62 0-121 7-177.004 19v245c95.004-71 212.004-117 345.004-132" fill="#f59d21"/><path d="m679 1124h-246.996c21.996 134 65.992 261 125 372h200c-30-77-52.004-159-66.004-244-8.004-43-12-86-12-128" fill="#f59d21"/><path d="m937.996 1808v72c34.008 15 68.004 25 103.004 32-36-31-71-66-103.004-104" fill="#f59d21"/><path d="m637.996 1496c-47.996-102-83.996-215-102.996-335-2.004-12-4-25-5-37h-97.996c21.996 134 65.992 261 125 372z" fill="#f78e21"/><path d="m1119 1920v-1591c-1 0-3 0-4 0-62 0-121 7-177.004 19v1534c58.004 25 117.004 38 177.004 38z" fill="#f59d21"/><path d="m937.996 1808v72c34.008 15 68.004 25 103.004 32-36-31-71-66-103.004-104" fill="#f78e21"/><path d="m937.996 593c54.008-40 115.004-72 181.004-95v-169c-1 0-3 0-4 0-62 0-121 7-177.004 19z" fill="#f78e21"/><path d="m937.996 593c54.008-40 115.004-72 181.004-95v-169c-1 0-3 0-4 0-62 0-121 7-177.004 19z" fill="#f78e21"/><path d="m937.996 404c84.004-33 179.004-52 281.004-52 22 0 44 1 65 3v-9c-53-11-110-17-168-17-62 0-121 7-177 19z" fill="#f78e21"/><path d="m937.996 404c56.004-22 117.004-38 181.004-46v-30c-1 0-3 0-4 0-62 0-121 7-177.004 19z" fill="#f57c23"/><path d="m1076.07 1311.54c-1 87-105 196-233.004 243-128 47-230.996-61-230-240 1-179 106-288 233.004-243 126.996 45 231 153 230 240" fill="#ee224c"/><path d="m1164.07 1311.54c1 87 105 196 233 243s231-61 230-240c-1.01-179-106.01-288-233-243-127 45-230 153-230 240" fill="#f0376b"/></g><path d="m998.066 1243.54h-74c-3.949 0-7.812 1.6-10.605 4.39-2.793 2.8-4.395 6.66-4.395 10.61 0 3.95 1.602 7.81 4.395 10.6 2.793 2.8 6.656 4.4 10.605 4.4h74c3.954 0 7.814-1.6 10.604-4.4 2.8-2.79 4.4-6.65 4.4-10.6 0-3.95-1.6-7.81-4.4-10.61-2.79-2.79-6.65-4.39-10.604-4.39m0 60h-74c-3.949 0-7.812 1.6-10.605 4.39-2.793 2.8-4.395 6.66-4.395 10.61 0 3.95 1.602 7.81 4.395 10.6 2.793 2.8 6.656 4.4 10.605 4.4h74c3.954 0 7.814-1.6 10.604-4.4 2.8-2.79 4.4-6.65 4.4-10.6 0-3.95-1.6-7.81-4.4-10.61-2.79-2.79-6.65-4.39-10.604-4.39" fill="#e6244e"/><path d="m1292.07 1243.54h-74c-3.95 0-7.82 1.6-10.61 4.39-2.79 2.8-4.39 6.66-4.39 10.61 0 3.95 1.6 7.81 4.39 10.6 2.79 2.8 6.66 4.4 10.61 4.4h74c3.95 0 7.81-1.6 10.61-4.4 2.79-2.79 4.39-6.65 4.39-10.6 0-3.95-1.6-7.81-4.39-10.61-2.8-2.79-6.66-4.39-10.61-4.39m0 60h-74c-3.95 0-7.82 1.6-10.61 4.39-2.79 2.8-4.39 6.66-4.39 10.61 0 3.95 1.6 7.81 4.39 10.6 2.79 2.8 6.66 4.4 10.61 4.4h74c3.95 0 7.81-1.6 10.61-4.4 2.79-2.79 4.39-6.65 4.39-10.6 0-3.95-1.6-7.81-4.39-10.61-2.8-2.79-6.66-4.39-10.61-4.39" fill="#e62959"/><path d="m1111.07 1424.54c76.22 0 138-61.78 138-138 0-76.21-61.78-138-138-138s-138.004 61.79-138.004 138c0 76.22 61.784 138 138.004 138" fill="#f36494" fill-rule="evenodd"/><path d="m1111.07 1424.54v-277c-76 0-138.004 62-138.004 138s61.004 139 138.004 139" fill="#f25481" fill-rule="evenodd"/></g></svg>