<svg height="298.66666" viewBox="0 0 298.66666 298.66666" width="298.66666" xmlns="http://www.w3.org/2000/svg"><g fill-rule="evenodd" transform="matrix(.13333333 0 0 -.13333333 0 298.66666)"><path d="m1120 2240c618.55 0 1120-501.44 1120-1120 0-618.559-501.45-1120-1120-1120-618.559 0-1120 501.441-1120 1120 0 618.56 501.441 1120 1120 1120" fill="#f59e21"/><path d="m630 1769h1000c138 0 250-112 250-250v-800c0-166-134-300-300-300h-900c-166 0-300 134-300 300v800c0 138 112.004 250 250 250" fill="#fff"/><path d="m1834 560c-53-85-147-141-254-141h-900c-166 0-300 134-300 300v800c0 123 89 225 206 246-18.004-34-28.004-73-28.004-115v-700c0-221 179.008-400 400-400h800.004c27 1 52 4 76 10" fill="#feeee9"/><path d="m1796 511c-55-56-131-91-216-91h-900c-166 0-300 134-300 300v800c0 105 65 195 157.004 232-40-44-64.008-103-64.008-167v-750c0-193 157.004-350 350-350h850.004c44 0 85 9 123 26" fill="#fddcd1"/><path d="m1880 1357h-1500v162c0 138 112.004 250 250 250h1000c138 0 250-112 250-250z" fill="#ef3366"/><path d="m557.996 1357h-177.996v178c0 129 105 234 234 234h605-426.996c-129.008 0-234.008-105-234.008-234z" fill="#ee2451"/><path d="m455 1357h-75v178c0 129 105 234 234 234h553-478c-129 0-234-105-234-234z" fill="#ed1f3b"/><path d="m1132.63 637.75c155 0 258 121 233 270-24.01 149-128 270-233 270s-209.009-120-233.005-269c-26.004-150 78.004-271 233.005-271" fill="#ef3366"/><path d="m986.824 681.57c-25.996 19-47.996 43-62.996 71h417.002c-15-28-37-52-63-71z" fill="#f3a926"/><g fill="#f1c73e"><path d="m1131.78 809.48-53.01-24c-7-3-16 0-18.99 7-1.01 2-1.01 5-1.01 8l6.01 58-39.01 43c-5 6-5 15 1 21 2 2 4 3 7 4l57 12 29.01 51c3.99 7 12.99 9 20 5 2-1 3.99-3 5-5l28.99-51 57-12c8-2 13-9 11.01-17-1.01-3-2-5-4.01-7l-39-43 6.01-58c.99-8-5-15-13-16-3.01 0-5 0-8.01 1z"/><path d="m1036.77 858.48c6.63 0 12-5.378 12-12 0-6.628-5.37-12-12-12-6.62 0-11.99 5.372-11.99 12 0 6.622 5.37 12 11.99 12"/><path d="m1068.77 973.48c6.63 0 12-5.378 12-12 0-6.628-5.37-12-12-12-6.62 0-12 5.372-12 12 0 6.622 5.38 12 12 12"/><path d="m1198.77 973.48c6.63 0 12-5.378 12-12 0-6.628-5.37-12-12-12-6.62 0-11.99 5.372-11.99 12 0 6.622 5.37 12 11.99 12"/><path d="m1227.77 858.48c6.63 0 12.01-5.378 12.01-12 0-6.628-5.38-12-12.01-12s-12 5.372-12 12c0 6.622 5.37 12 12 12"/><path d="m1130.77 793.48c6.63 0 12-5.378 12-12 0-6.628-5.37-12-12-12-6.62 0-12 5.372-12 12 0 6.622 5.38 12 12 12"/></g><path d="m1032.77 1143.48h198c38-27 71.01-68 96.01-118h-390.007c25 50 58 91 95.997 118" fill="#7c62b7"/><path d="m1129.78 1110.48c14.35 0 25.99-11.64 25.99-26s-11.64-26-25.99-26c-14.36 0-26.01 11.64-26.01 26s11.65 26 26.01 26" fill="#f1c73e"/><path d="m1051.77 1105.48c12.16 0 22-9.85 22-22s-9.84-22-22-22c-12.15 0-21.99 9.85-21.99 22s9.84 22 21.99 22" fill="#70c8c0"/><path d="m1210.77 1105.48c12.15 0 22-9.85 22-22s-9.85-22-22-22-22 9.85-22 22 9.85 22 22 22" fill="#70c8c0"/><path d="m849 1910c52 0 93.996-42 93.996-94v-234c0-52-41.996-94-93.996-94-51.996 0-94 42-94 94v234c0 52 42.004 94 94 94" fill="#fff"/><path d="m877.996 1905c-37.996-12-65-48-65-89v-234c0-42 27.004-77 65-89-8.996-3-18.996-5-28.996-5-51.996 0-94 42-94 94v234c0 52 42.004 94 94 94 10 0 20-2 28.996-5" fill="#feeee9"/><path d="m1411 1910c52 0 94-42 94-94v-234c0-52-42-94-94-94-52 0-94 42-94 94v234c1 52 42 94 94 94" fill="#fff"/><path d="m1440 1905c-38-12-65-48-65-89v-234c0-42 27-77 65-89-9-3-19-5-29-5-52 0-94 42-94 94v234c0 52 42 94 94 94 10 0 20-2 29-5" fill="#feeee9"/></g></svg>