<svg height="298.66666" viewBox="0 0 298.66666 298.66666" width="298.66666" xmlns="http://www.w3.org/2000/svg"><g fill-rule="evenodd" transform="matrix(.13333333 0 0 -.13333333 0 298.66666)"><path d="m1120 2240c618.55 0 1120-501.44 1120-1120 0-618.559-501.45-1120-1120-1120-618.559 0-1120 501.441-1120 1120 0 618.56 501.441 1120 1120 1120" fill="#fcd9bc"/><path d="m1120.6 337c452 0 756 354 681 791-70.99 438-375 792-681 792-305.995 0-608.998-354-680.995-791-75-437 229-792 680.995-792" fill="#f69921"/><path d="m1047.6 1911c-169.998-142-304.998-383-348.995-656-75-437 228.997-791 680.995-791 71.01 0 138 9 200 25-118.99-97-277-154-458-154-452.995 0-756.995 355-681.995 792 65.997 402 327.997 734 607.995 784z" fill="#f68c21"/><path d="m973.605 1891c-250-90-473.003-398-533.003-765-75.997-436 228.003-791 679.998-791 88 0 171 13 246 38-45.99-8-93-12-142-12-451.998 0-755.995 360-680.995 804 51 320 222.997 597 430 726" fill="#f57a23"/><path d="m1117 1387c142.49 0 258-115.51 258-258 0-142.488-115.51-258-258-258-142.488 0-258 115.512-258 258 0 142.49 115.512 258 258 258" fill="#6896d6"/><path d="m1117 1387v-516c-143 0-258 116-258 258s115 258 258 258" fill="#5e8fd2"/><path d="m1401.75 1823.01c121.99-85 230.99-221 305.99-385-29-11-60-17-92-17-143 0-258 116-258 258 0 54 16 103 44.01 144" fill="#7e66ba"/><path d="m518.746 1403.01c70 167 175 308 293.996 400 34-44 54-99 54-158 0-143-116-258-257.996-258-31.004 0-62.004 5-90 16" fill="#ee3c73"/><path d="m813.605 1802.04c23.997-31 41-67 48.997-107-52-82-93.997-175-126-275-37.997-21-81-34-127.997-34-32.003 0-62.003 6-90 16 71 168 176 308 295 400" fill="#ef285b"/><path d="m428.605 1014.03c13.997 2 27.997 3.01 42.997 3.01 162.003 0 292.003-131.009 292.003-292.001 0-92-42.003-174.008-108.003-227-145.997 122-230.997 305-226.997 515.991" fill="#5b47a6"/><path d="m813.605 1802.04c6.997-9 12.997-18 17.997-27-96-101-177.997-235-231.997-388-28.003 1-55 7-80 16 70 167 175 307 294 399" fill="#ed1c43"/><path d="m532.602 1010.04c132.003-28.001 232.003-145.001 232.003-286.001 0-59-18.003-115-48.003-161-111.997 115-179 270.992-184 447.001zm-103.997 3.99c0-5.99 0-10.99 0-16.991z" fill="#6951ad"/><path d="m1799.6 1144.04c1.01-5 2-10 3-15 26-151.001 7-292.001-48-412.001-7-1.008-15-1.008-22-1.008-121 0-219 98.008-219 219.008 0 120.991 98 219.001 219 219.001 23.01 0 46-3 67-10" fill="#ee3c73"/><path d="m1001.6 346.031c-3.998 17.008-5.998 34.008-5.998 52.008 0 132.992 107.998 240.992 240.998 240.992 124.01 0 227-93.992 240-215.992-102-55-222-86-356-86-41 0-80 3-119 8.992z" fill="#ee3c73"/><path d="m1042.6 540.039c97-48 211-75 336-75 30 0 59 2 88 5 5-15 8-30 9.01-46.008-102.01-55-222.01-85.992-356.01-85.992-41 0-81 2.992-119 9-3.998 16.992-5.995 33.992-5.995 51.992 1.997 52 18.995 101.008 47.995 141.008" fill="#ef285b"/><path d="m996.602 394.031c69.998-21.992 146.998-33 227.998-33 45 0 88 4.008 130 10-72-22-150-33.992-233-33.992-41 0-81 3-119 8.992-3.995 15-5.998 32.008-5.998 48" fill="#ed1c43"/></g></svg>