<svg height="298.66666" viewBox="0 0 298.66666 298.66666" width="298.66666" xmlns="http://www.w3.org/2000/svg"><g transform="matrix(.13333333 0 0 -.13333333 0 298.66666)"><g fill-rule="evenodd"><path d="m1120 2240c618.55 0 1120-501.44 1120-1120 0-618.559-501.45-1120-1120-1120-618.559 0-1120 501.441-1120 1120 0 618.56 501.441 1120 1120 1120" fill="#e34057"/><path d="m1114 370c429 0 716 336 646 750-68 414-356 750-646 750s-576.996-336-645-750c-71.004-414 217-750 645-750" fill="#fff"/><path d="m1047 1864c-162-134-291-364-334.004-623-70.992-414 217.004-750 646.004-750 66 0 128 8 187 23-112-90-261-143-431-143-429 0-716 336-646 750 63.004 381 312 697 578 743z" fill="#fef0ea"/><path d="m981 1847c-240-83-455-377-512-727-71.004-414 217-750 646-750 79 0 153 11 221 32-40-6-81-10-123-10-429 0-715.996 341-645.996 762 48.996 308 215 572 413.996 693" fill="#fcd4c6"/><path d="m658.191 859.129c11.051 0 20-8.957 20-20 0-11.051-8.949-20-20-20-11.043 0-20 8.949-20 20 0 11.043 8.957 20 20 20" fill="#fbcfbe"/><path d="m788.191 630.129c11.051 0 20-8.949 20-20 0-11.047-8.949-20-20-20-11.043 0-20 8.953-20 20 0 11.051 8.957 20 20 20" fill="#fbcfbe"/><path d="m641.195 728.129c11.047 0 20-8.949 20-20 0-11.039-8.953-20-20-20-11.043 0-20 8.961-20 20 0 11.051 8.957 20 20 20" fill="#fbcfbe"/><path d="m632.195 726.129c5.996-12 13-24 20.996-35-2.996-2-6.996-3-10.996-3-11 0-20 9-20 20-1 8 4 15 10 18" fill="#f8bea4"/></g><path d="m1743.22 989.949-223.16 162.391c-13.6 9.9-31.93 10.22-45.88.84l-216.35-145.72-225.83 199.52c-15.12 13.37-37.84 13.37-52.969 0l-216.801-191.56-222.921 291.86c-4.895 6.4-11.36 10.87-18.426 13.37-9.965-27.99-19.051-56.56-26.953-85.76l230.8-302.171c6.739-8.821 16.848-14.449 27.899-15.528 11.043-1.089 22.055 2.481 30.375 9.829l222.516 196.61 222.52-196.61c13.65-12.051 33.71-13.379 48.83-3.192l218.76 147.342 201.35-146.51c.56-.398 1.13-.789 1.69-1.172l61.98-40.41c5.01 29.094 8.26 58.891 9.33 89.434z" fill="#e3a791"/></g></svg>