<svg height="298.66666" viewBox="0 0 298.66666 298.66666" width="298.66666" xmlns="http://www.w3.org/2000/svg"><g fill-rule="evenodd" transform="matrix(.13333333 0 0 -.13333333 0 298.66666)"><path d="m1120 2240c618.55 0 1120-501.44 1120-1120 0-618.559-501.45-1120-1120-1120-618.559 0-1120 501.441-1120 1120 0 618.56 501.441 1120 1120 1120" fill="#cfe2f6"/><path d="m1112 320c458 0 765 358 689 800-73 442-380 800-689 800-309.004 0-617-358-689.004-800-75.992-442 231.004-800 689.004-800" fill="#6594d5"/><path d="m1037 1911c-172-143-309.004-386-354.004-662-75.992-441 232.004-799 690.004-799 72 0 140 9 203 25-120-98-280-155-464-155-458 0-766 358-689.996 799 65.992 406 331.996 741 614.996 792z" fill="#5182cb"/><path d="m961 1894c-253.004-91-478.996-403-538.996-773-76.004-443 230.992-801 687.996-801 89 0 172 14 248 39-46-8-94-13-144-13-456.996 0-764 364-688 814 51.996 323 226.004 603 435 734" fill="#4171c1"/><path d="m446 1228 985 568c88-70 168-165 231-278l-1228-708c-25 95-30 200-11.004 310 6.004 37 13.004 73 23.004 108" fill="#866bbc"/><path d="m1106 1609v-412l-672-387c-25 95-30 200-11.004 310 6.004 37 14.008 73 23.004 108z" fill="#7e61b7"/><path d="m496 655 1237 713c31-78 54-162 68-248 7-40 11-79 11-117l-1046-604c-115 59-208.004 147-270 256" fill="#f3aa22"/><path d="m1106 1007v-412l-340-196c-116 59-208.004 147-270 256z" fill="#f59d21"/><path d="m712.996 1382c-11.996-43-21.996-88-30-133-17.996-103-15-202 7.004-292l-256-147c-25 95-30 200-11.004 310 6.004 37 14.008 73 23.004 108z" fill="#694baa"/><path d="m554 1291c-11.996-43-21.004-87-28-131-17-103-15-202 6.004-294l-98.004-56c-25 95-30 200-11.004 310 6.004 37 14.008 73 23.004 108z" fill="#5e45a5"/><path d="m747.996 800c58.004-110 148.004-200 260.004-262l-242-140c-116 59-208.004 147-270 256z" fill="#f78f21"/><path d="m587.996 708c56.004-111 143.004-203 253.004-266l-75-43c-116 59-208.004 147-270 256z" fill="#f57e23"/></g></svg>