<svg height="298.66666" viewBox="0 0 298.66666 298.66666" width="298.66666" xmlns="http://www.w3.org/2000/svg"><g transform="matrix(.13333333 0 0 -.13333333 0 298.66666)"><path d="m1120 2240c618.55 0 1120-501.44 1120-1120 0-618.559-501.45-1120-1120-1120-618.559 0-1120 501.441-1120 1120 0 618.56 501.441 1120 1120 1120" fill="#e34057" fill-rule="evenodd"/><path d="m1331.38 1376.24c33.23-33.23 87.68-33.94 120.91-.7 33.24 33.23 33.24 86.97-.7 120.91s-86.98 34.65-120.21 1.41c-33.24-33.23-33.94-87.68 0-121.62zm-258.8 318.2 201.52 67.18c71.42 23.33 150.62 4.95 203.65-48.08l190.21-190.22c53.74-53.73 72.13-132.93 48.79-204.35l-66.47-200.82c-9.9-29.69-26.86-56.57-48.79-78.48l-550.83-550.842c-77.785-77.789-205.062-77.789-282.844 0l-324.562 324.563c-77.781 77.781-77.781 205.059 0 282.839l550.832 550.84c21.924 21.92 49.504 38.18 78.494 47.37" fill="#f1c73e" fill-rule="evenodd"/><path d="m1450.88 1738.99c-24.75 3.54-49.49 1.41-74.25-6.36l-217.08-68.59c-26.16-7.78-49.5-22.63-68.59-41.72l-601.038-601.04c-40.305-40.3-40.305-105.358 0-145.671l413.656-413.66c16.266-16.258 35.36-28.277 55.156-36.769-57.98-16.969-124.453-2.821-170.414 43.14l-364.867 364.86c-67.176 67.179-67.176 176.08-.703 242.54l576.289 576.3c19.091 19.09 41.721 33.23 66.471 41.01l224.86 73.54c55.15 18.38 115.26 7.77 160.51-27.58z" fill="#f1c131" fill-rule="evenodd"/><path d="m1407.74 1763.74c-19.09.71-38.18-2.83-56.56-8.49l-224.86-74.95c-25.46-8.48-48.08-22.62-66.47-41.01l-576.291-576.29c-66.469-66.469-66.469-175.359.711-242.539l364.863-364.871c16.972-16.969 36.769-29.692 57.98-38.18-43.133.699-85.558 17.68-118.086 50.211l-365.574 365.559c-67.176 67.179-67.176 176.08-.703 242.54l576.289 576.3c19.091 19.09 41.721 33.23 66.471 41.01l224.86 73.54c38.89 13.43 80.61 11.31 117.37-2.83z" fill="#f1ba27" fill-rule="evenodd"/><path d="m1311.58 1407.36c2.82-4.25 6.36-9.2 10.61-13.43 33.23-33.24 87.67-33.95 120.92-.71 24.04 24.03 31.11 59.39 19.79 90.5 21.92-33.23 19.09-78.48-10.61-108.18-33.23-33.24-86.97-33.24-120.91.7-9.19 9.2-15.56 19.8-19.8 31.12" fill="#f3d56e" fill-rule="evenodd"/><path d="m1452.9 1375.54c-33.19-33.19-87.33-32.88-120.92.71-33.58 33.58-33.89 87.72-.7 120.91 33.19 33.2 87.32 32.88 120.92-.7 33.58-33.59 33.89-87.73.7-120.92z" fill="none" stroke="#e4b025" stroke-width="20"/><g fill-rule="evenodd"><path d="m1109.35 1478.07 324.56-324.57c31.11-31.11 31.11-82.02 0-113.13l-473.055-473.061c-31.113-31.11-82.023-31.11-113.136 0l-324.567 324.562c-31.105 31.117-31.105 82.039 0 113.149l473.059 473.05c31.109 31.11 81.319 31.82 113.139 0" fill="#f8e7a5"/><path d="m1109.35 1478.07 324.56-324.57c31.11-31.11 31.11-82.02 0-113.13l-473.055-473.061c-31.113-31.11-82.023-31.11-113.136 0l-171.824 171.832 153.437-153.442c31.113-31.109 82.023-31.109 113.141 0l473.057 473.061c31.11 31.1 31.11 82.02 0 113.13z" fill="#f5dd8a"/><path d="m796.656 838.93c100.407-100.41 245.364-89.801 325.264 24.05 80.61 111.719 91.21 256.68 23.33 324.56s-212.832 57.27-325.262-24.05c-113.136-79.18-123.742-224.15-23.332-324.56" fill="#7c62b7"/><path d="m804.434 1000.86c-8.489 8.48-8.489 22.63-.707 30.41 8.484 8.48 21.918 7.77 30.406-.7 8.484-8.49 8.484-22.64.707-30.41-7.777-7.781-21.926-7.781-30.406.7" fill="#70c8c0"/><path d="m966.355 1010.06c-8.48 8.48-8.48 22.62-.703 30.4 7.778 7.78 21.922 7.78 30.407-.71 8.481-8.48 8.481-22.62.703-30.41-7.778-7.77-21.918-7.77-30.407.72" fill="#f69b21"/><path d="m957.168 848.121c-8.484 8.488-8.484 22.629-.707 30.41 8.484 8.489 21.918 7.778 30.402-.711 8.489-8.48 8.489-22.629.711-30.398-8.488-7.07-22.629-7.07-30.406.699" fill="#f69b21"/><path d="m1090.1 886.309c-8.48 8.48-8.48 22.621-.71 30.41 7.78 7.769 21.93 7.769 30.41-.719 8.49-8.469 8.49-22.621.71-30.398-7.78-7.782-21.92-7.782-30.41.707" fill="#70c8c0"/><path d="m844.027 1132.38c-8.484 8.49-8.484 22.63-.707 30.41 7.778 7.78 21.922 7.78 30.41-.71 8.481-8.48 8.481-22.62.704-30.4-7.778-7.78-21.918-7.78-30.407.7" fill="#5ebeb8"/><path d="m844.027 1132.38c-8.484 8.49-8.484 22.63-.707 30.41 7.778 7.78 21.922 7.78 30.41-.71 8.481-8.48 8.481-22.62.704-30.4-7.778-7.78-21.918-7.78-30.407.7" fill="#5ebeb8"/><path d="m873.023 1164.2c-7.781-4.95-14.847-9.19-21.925-14.85-4.239-2.82-8.481-5.65-12.016-9.19-2.832 7.08-.707 16.26 4.945 21.92 8.489 8.49 20.508 9.19 28.996 2.12" fill="#4fb2af"/><path d="m1102.12 837.52c-17.67-19.09-36.76-33.938-57.98-45.258-10.6 7.789-18.38 18.386-21.92 31.82l-12.02 48.797c-4.95 19.09-20.509 34.652-38.891 40.301l-53.032 14.851c-19.093 4.949-33.941 21.219-38.89 40.309l-12.024 48.79c-4.242 18.38-19.093 33.23-36.765 39.6-33.942 12.72-58.696 21.91-72.125 25.45 0 0-4.953.71-10.614 2.13 9.907 18.37 21.926 36.05 37.485 51.61 3.535-2.12 7.777-3.54 12.015-6.37l79.2-28.28c18.382-5.66 32.523-19.8 37.472-38.89l13.442-48.79c4.945-17.668 19.793-32.531 36.765-38.18l54.452-16.269c17.67-4.95 31.81-20.5 36.76-38.18l12.73-46.672c6.37-16.258 18.39-29.699 33.94-36.769z" fill="#f0c833"/><path d="m834.133 1054.6c-.711.71-2.125.71-2.828 1.41-33.946 12.74-58.692 21.93-72.129 25.46 0 0-4.946.71-10.606 2.12 9.903 18.39 21.918 36.07 37.477 51.62 3.531-2.12 7.777-3.53 12.019-6.36l70.711-25.45c-13.433-14.86-25.457-31.12-34.644-48.8" fill="#f0c833"/><path d="m1092.22 1220.77 9.2-34.65c4.95-17.67 19.8-32.52 37.48-38.88l38.88-12.03c11.32-31.11 14.14-66.46 9.91-104.64l-3.54 13.42c-4.95 19.09-20.51 34.65-38.9 40.32l-52.32 14.14c-19.09 4.95-33.94 21.21-38.89 40.3l-12.02 48.79c-4.24 18.38-19.09 33.23-36.77 39.6-2.83 1.41-6.363 2.12-8.488 2.82 33.948 4.25 67.178.71 95.458-9.19" fill="#f0c833"/></g><path d="m1453 1429c-5 4-8 8-9 14-12 44 119 118 291 165s322 49 333 5c12-44-119-118-291-165-14-4-28-7-42-11" fill="none" stroke="#e8eff6" stroke-linecap="round" stroke-linejoin="round" stroke-width="50"/></g></svg>