<svg height="298.66666" viewBox="0 0 298.66666 298.66666" width="298.66666" xmlns="http://www.w3.org/2000/svg"><g fill-rule="evenodd" transform="matrix(.13333333 0 0 -.13333333 0 298.66666)"><path d="m1120 2240c618.55 0 1120-501.44 1120-1120 0-618.559-501.45-1120-1120-1120-618.559 0-1120 501.441-1120 1120 0 618.56 501.441 1120 1120 1120" fill="#e4cfeb"/><path d="m1125 319c454 0 759 356 684 796-72 439-377 795-684 795-307.004 0-612.004-356-684-796-75-439 230-795 684-795" fill="#7e66ba"/><path d="m1051 1901c-170-143-306-385-351-659-75-439 230-796 684-796 71 0 138 9 201 25-119-97-278-155-460-155-454 0-759 356-684 796 66.996 405 330 738 610 789z" fill="#6951ad"/><path d="m977.004 1881c-252.004-91-475-400-536.004-769-75-439 230-796 684-796 88 0 171 14 247 39-46-8-93-13-143-13-454 0-759 362-684 809 52.004 322 224 600 432.004 730" fill="#5b47a6"/><path d="m552.996 1460h1145.004c52-105 91-222 111-346 22-127 12-248-25-355h-1318c-36 107-47 227-25 355 21.004 124 60 242 111.996 346z" fill="#72c8bf"/><path d="m1121 1460v-700h-655c-36 107-47 227-25 355 20 124 59 241 111.004 346h568.996z" fill="#59bfba"/><path d="m554 1460h203.004c-25-69-44.008-142-57.004-218-31-181 2.996-349 85-482h-319c-23.996 69-36 144-36 222 0 43 4 86 11 131 21.004 124 60 242 113 347" fill="#49b5b2"/><path d="m636 1460c-42-95-73.996-199-91-309-24-142-9-276 36-392h-115c-23.996 69-36 144-36 222 0 43 4 86 11 131 20 125 60 243 111.996 348z" fill="#43a7a9"/><path d="m1121 1287c95.54 0 173-77.46 173-173s-77.46-173-173-173c-95.55 0-173.004 77.46-173.004 173s77.454 173 173.004 173" fill="#f3a926"/><path d="m1121 1287v-346c-95 0-172 78-172 173s76 173 172 173" fill="#f59c21"/><path d="m430 964c-1 49 2.004 99 11 150 10 58 23 115 40 169 11.004 2 23 3 35 3 95 0 173-77 173-173s-76.996-173-173-173c-31 1-60 10-86 24" fill="#5284cc"/><path d="m430 973v9c0 43 4 86 11 131 10 59 23 116 41.004 171 10.992 2 21.996 3 33.996 3 20 0 38-3 56.004-9-11.004-41-20-84-27.004-127-12.004-72-14-142-7.996-209-7.004-1-14.008-1-21.004-1-31 0-61 8-86 23z" fill="#4272c1"/><path d="m1769 1282c17-54 30-110 40-167 8-49 12-98 11-145-27-18-60-28-95-28-95 0-173 77-173 173s77 173 173 173c15-1 30-3 44-6" fill="#f0396e"/></g></svg>