<svg height="298.66666" viewBox="0 0 298.66666 298.66666" width="298.66666" xmlns="http://www.w3.org/2000/svg"><g fill-rule="evenodd" transform="matrix(.13333333 0 0 -.13333333 0 298.66666)"><path d="m1120 2240c618.55 0 1120-501.44 1120-1120 0-618.559-501.45-1120-1120-1120-618.559 0-1120 501.441-1120 1120 0 618.56 501.441 1120 1120 1120" fill="#628dd0"/><path d="m1116 370c429 0 716 336 646 750-68 414-356 750-646 750s-577-336-645-750c-71-414 216.996-750 645-750" fill="#fff"/><path d="m1049 1864c-161.996-134-291.004-364-334-623-71-414 217.004-750 646-750 66 0 128 8 187 23-112-90-261-143-431-143-429.004 0-716 336-646 750 61.996 381 311.996 697 578 743z" fill="#fef0ea"/><path d="m982.996 1847c-240-83-455-377-511.996-727-71-414 216.996-750 646-750 79 0 153 11 221 32-40-6-81-10-123-10-429 0-716 341-646 762 48.996 308 215 572 413.996 693" fill="#fcd4c6"/><g fill="#fbcfbe"><path d="m660.043 859.129c11.047 0 20-8.957 20-20 0-11.051-8.953-20-20-20-11.043 0-20 8.949-20 20 0 11.043 8.957 20 20 20"/><path d="m790.043 630.129c11.047 0 20-8.949 20-20 0-11.047-8.953-20-20-20-11.043 0-20 8.953-20 20 0 11.051 8.957 20 20 20"/><path d="m643.043 728.129c11.043 0 20-8.949 20-20 0-11.039-8.957-20-20-20-11.047 0-20 8.961-20 20 0 11.051 8.953 20 20 20"/></g><path d="m634.043 726.129c6-12 13.004-24 21-35-2.996-2-7-3-11-3-11 0-20 9-20 20-1 8 4 15 10 18" fill="#f8bea4"/></g></svg>