<svg height="298.66666" viewBox="0 0 298.66666 298.66666" width="298.66666" xmlns="http://www.w3.org/2000/svg"><g transform="matrix(.13333333 0 0 -.13333333 0 298.66667)"><g fill-rule="evenodd"><path d="m1120 2240c618.55 0 1120-501.44 1120-1120 0-618.559-501.45-1120-1120-1120-618.559 0-1120 501.441-1120 1120 0 618.56 501.441 1120 1120 1120" fill="#628dd0"/><path d="m1120 1214c82 0 148 460 148 548s-67 158-148 158-147.996-71-147.996-159 65.996-547 147.996-547" fill="#fff"/><path d="m1085 1240c-65 99-112.996 446-112.996 521 0 88 65.996 159 147.996 159v-680z" fill="#d9e9f8"/><path d="m1181 1191c63-52 409 257 465 324s51 164-11 217-159 41-215-27-301-461-239-514" fill="#fff"/><path d="m1582 1760c-45-1-90-21-122-59-56-67-297-455-240-513-17-4-30-4-38 3-63 52 182 447 239 515 41 50 105 69 161 54" fill="#d9e9f8"/><path d="m1214 1134c14-80 478-66 565-51 86 15 145 93 131 173s-96 133-182 118c-87-14-528-159-514-240" fill="#fff"/><path d="m1406 1268c-65-37-109-74-103-104 13-74 315-85 480-79-1 0-2 0-3-1-86-15-551-30-565 51-7 36 83 87 191 133" fill="#d9e9f8"/><path d="m1203 1070c-41-71 324-358 400-402s171-22 211 49c41 71 12 164-64 207-75 44-506 217-547 146" fill="#fff"/><path d="m1254 1087c-1-1-2-2-2-3-41-71 324-358 400-402 32-18 67-25 100-22-45-21-101-20-149 8-76 44-441 331-400 402 7 12 25 17 51 17" fill="#d9e9f8"/><path d="m1153 1028c-77-28 18-483 48-565s116-127 193-99 115 117 85 200c-30 82-250 492-326 464" fill="#fff"/><path d="m1180 1023c-17-130 51-443 75-510 30-82 116-127 193-99 6 2 12 5 17 7-16-26-41-47-71-59-77-28-163 16-193 99-30 82-125 537-48 565 7 5 17 3 27-3" fill="#d9e9f8"/><path d="m1087 1028c-77 28-296-382-326-464s8-172 85-200c76.996-28 163 16 193 99 30 82 125 537 48 565" fill="#fff"/><path d="m1093 1024c-95.996-98-237-365-260.996-430-30-82 7.996-172 85-200 21.996-8 45.992-10 67.996-7-39-31-91-42-139-24-77 28-115 117-85 200s249 492 326 464c2 0 4-1 6-3" fill="#d9e9f8"/><path d="m1037 1070c-41 71-472-102-548-146-76.004-44-104-137-64-207s135-92 211-49c76.996 44 442 331 401 402" fill="#fff"/><path d="m1005 987c-87.004-113-311-286-367.996-319-76.004-44-171.004-22-211.004 49-38.996 68-15 156 55 202-22-44-23.004-95 1.996-138 41.004-71 135-92 211.004-49 47 27 207 149 311 255" fill="#d9e9f8"/><path d="m1025 1134c14 80-427.004 225-512.996 241-86.004 16-168.004-38-182.004-118s44-158 131-173c86.996-15 550-30 564 50" fill="#fff"/><path d="m407.996 1360c-13.996-18-22.996-38-26.996-62-13.996-80 44-158 131.004-173 70-12 390-24 514.996 15 0-2 0-4 0-5-14-80-478-66-564.996-51-86.004 15-145 93-131.004 173 6.996 46 36.996 82 76.996 103" fill="#d9e9f8"/><path d="m1058 1191c63 52-182 447-239 515-56.996 68-153 79-215 27-61.996-52-68-150-11.004-217 57.004-67 403.004-377 465.004-325" fill="#fff"/><path d="m680 1764c-2.996-2-6-4-9-7-63.004-52-68.004-150-11-217 46-55 289-275 409-322 0-13-3-22-10-28-63-52-409 257-465 324-56.004 67-51.996 166 10 218 22 19 48.004 29 76 32" fill="#d9e9f8"/></g><path d="m1120.25 1317v145" fill="none" stroke="#c9e0f5" stroke-linecap="round" stroke-linejoin="round" stroke-width="20"/><path d="m1253.25 1269 93 111" fill="none" stroke="#c9e0f5" stroke-linecap="round" stroke-linejoin="round" stroke-width="20"/><path d="m1324.26 1146 141.99 25" fill="none" stroke="#c9e0f5" stroke-linecap="round" stroke-linejoin="round" stroke-width="20"/><path d="m1299.26 1007 125-73" fill="none" stroke="#c9e0f5" stroke-linecap="round" stroke-linejoin="round" stroke-width="20"/><path d="m1191.25 915 49-135" fill="none" stroke="#c9e0f5" stroke-linecap="round" stroke-linejoin="round" stroke-width="20"/><path d="m1049.25 915-49-136" fill="none" stroke="#c9e0f5" stroke-linecap="round" stroke-linejoin="round" stroke-width="20"/><path d="m940.254 1006-125-72" fill="none" stroke="#c9e0f5" stroke-linecap="round" stroke-linejoin="round" stroke-width="20"/><path d="m916.254 1146-142 25" fill="none" stroke="#c9e0f5" stroke-linecap="round" stroke-linejoin="round" stroke-width="20"/><path d="m986.254 1269-93 111" fill="none" stroke="#c9e0f5" stroke-linecap="round" stroke-linejoin="round" stroke-width="20"/><path d="m1123 1374c143.04 0 259-115.96 259-259 0-143.039-115.96-259-259-259-143.043 0-259 115.961-259 259 0 143.04 115.957 259 259 259" fill="#f3deb0" fill-rule="evenodd"/><path d="m1123 1339c123.71 0 224-100.29 224-224 0-123.711-100.29-224-224-224-123.715 0-224 100.289-224 224 0 123.71 100.285 224 224 224" fill="#f69b21" fill-rule="evenodd"/><path d="m1027 1317c-46-41-74.004-100-74.004-166 0-123 100.004-224 224.004-224 34 0 67 8 96 21-40-36-92-57-149-57-123 0-224 100-224 224-1 89 52.004 166 127 202" fill="#f79021" fill-rule="evenodd"/></g></svg>