<svg height="298.66666" viewBox="0 0 298.66666 298.66666" width="298.66666" xmlns="http://www.w3.org/2000/svg"><g fill-rule="evenodd" transform="matrix(.13333333 0 0 -.13333333 0 298.66666)"><path d="m1120 2240c618.55 0 1120-501.44 1120-1120 0-618.559-501.45-1120-1120-1120-618.559 0-1120 501.441-1120 1120 0 618.56 501.441 1120 1120 1120" fill="#c4ebed"/><path d="m482.004 1348h1274.996v-668c0-149-121-270-270-270h-734.996c-149.008 0-270 121-270 270z" fill="#6ebfb8"/><path d="m726.5 1347.5v-338c0-331 268.996-600 600-600h161-735c-149 0-270 121-270 270v668z" fill="#62b7b1"/><path d="m585.496 1347.5v-558c0-210 170-380 380-380h522.004-735c-149 0-270 121-270 270v668z" fill="#52aaa7"/><path d="m932.004 1535h374.996v-1125h-374.996z" fill="#e72957"/><path d="m932.004 1535h196.996v-1125h-196.996z" fill="#e41e40"/><path d="m867.004 1379c139.996 52 252.996 168 252.996 259s-113 207-252.996 259c-140 52-253.004-64-253.004-259s113.004-312 253.004-259" fill="#e72957"/><path d="m797.996 1910c-15.992-40-25-85-25-136 0-178 109.008-295 257.004-295-44-41-101-77-162.996-100-140-52-253.004 64-253.004 259 0 162 78.004 270 183.996 272" fill="#e41e40"/><path d="m782.996 1909c-63.996-43-103.996-118-103.996-215 0-182 143.004-290 318.996-241 1.004 0 2.004 0 2.004 1-39-30-85-56-134-75-140-52-253.004 64-253.004 259 1.004 155 71.004 259 170 271" fill="#e12127"/><path d="m1382 1379c-140 52-253 168-253 259s113 207 253 259 253-64 253-259-113-312-253-259" fill="#ef3366"/><path d="m1116 1723h18c44 0 80-36 80-80v-140c0-44-36-80-80-80h-18c-44 0-80 36-80 80v140c0 44 35 80 80 80" fill="#f69b21"/><path d="m1129 1723v-244h-90c-2 8-4 15-4 24v140c0 44 36 80 80 80z" fill="#f68c21"/><path d="m520 1535h1200c83 0 150-67 150-150v-84c0-83-67-150-150-150h-1200c-82.996 0-150 67-150 150v84c0 83 67.004 150 150 150" fill="#72c8bf"/><path d="m557.996 1535v-84c0-166 134.008-300 300-300h862.004-1200c-82.996 0-150 67-150 150v84c0 83 67.004 150 150 150z" fill="#62bdb6"/><path d="m566 1151h-46c-82.996 0-150 67-150 150v84c0 66 42.996 123 102.996 143v-128c0-96 35-183 93.004-249" fill="#52b2ad"/><path d="m932.004 1535h374.996v-384h-374.996z" fill="#ef3366"/><path d="m932.004 1535h196.996v-384h-196.996z" fill="#ee2451"/></g></svg>