<svg height="298.66666" viewBox="0 0 298.66666 298.66666" width="298.66666" xmlns="http://www.w3.org/2000/svg"><g fill-rule="evenodd" transform="matrix(.13333333 0 0 -.13333333 0 298.66667)"><path d="m1120 2240c618.55 0 1120-501.44 1120-1120 0-618.559-501.45-1120-1120-1120-618.559 0-1120 501.441-1120 1120 0 618.56 501.441 1120 1120 1120" fill="#fcdcdc"/><path d="m482.004 1308h1274.996v-668c0-149-121-270-270-270h-734.996c-149.008 0-270 121-270 270z" fill="#e72957"/><path d="m726.5 1307.5v-338c0-331 268.996-600 600-600h161-735c-149 0-270 121-270 270v668z" fill="#e52047"/><path d="m585.496 1307.5v-558c0-210 170-380 380-380h522.004-735c-149 0-270 121-270 270v668z" fill="#e11f2e"/><path d="m932.004 1495h374.996v-1125h-374.996z" fill="#f1bb24"/><path d="m932.004 1495h196.996v-1125h-196.996z" fill="#f2b123"/><path d="m867.004 1339c139.996 52 252.996 168 252.996 259s-113 207-252.996 259c-140 52-253.004-64-253.004-259s113.004-312 253.004-259" fill="#f1be2c"/><path d="m796 1870c-16-40-25-85-25-136 0-178 108-295 255-295-43.996-41-100-77-162-100-138-52-251.004 64-251.004 259 1.004 162 78.004 270 183.004 272" fill="#f1b523"/><path d="m782.004 1870c-63.004-43-103.004-118-103.004-215 0-182 142-291 317-242 1.004 0 1.996 0 1.996 1-38.996-30-83.996-57-132.996-75-139-52-252.004 64-252.004 260 1.004 154 71.004 259 169.008 271" fill="#f3a922"/><path d="m1382 1339c-140 52-253 168-253 259s113 207 253 259 253-64 253-259-113-312-253-259" fill="#f1c73e"/><path d="m1116 1683h18c44 0 80-36 80-80v-140c0-44-36-80-80-80h-18c-44 0-80 36-80 80v140c0 44 35 80 80 80" fill="#f69b21"/><path d="m1129 1683v-244h-90c-2 8-4 15-4 24v140c0 44 36 80 80 80z" fill="#f78f21"/><path d="m520 1495h1200c83 0 150-67 150-150v-84c0-83-67-150-150-150h-1200c-82.996 0-150 67-150 150v84c0 83 67.004 150 150 150" fill="#ef3366"/><path d="m557.996 1495v-84c0-166 134.008-300 300-300h862.004-1200c-82.996 0-150 67-150 150v84c0 83 67.004 150 150 150z" fill="#ee2451"/><path d="m565 1111h-45c-82.996 0-150 67-150 150v80c0 67 44 123 104 143v-127c0-95 33.996-181 91-246" fill="#ed1f3b"/><path d="m932.004 1495h374.996v-384h-374.996z" fill="#f1c73e"/><path d="m932.004 1495h196.996v-384h-196.996z" fill="#f1be2c"/></g></svg>