<svg height="298.66666" viewBox="0 0 298.66666 298.66666" width="298.66666" xmlns="http://www.w3.org/2000/svg"><g transform="matrix(.13333333 0 0 -.13333333 0 298.66666)"><g fill-rule="evenodd"><path d="m1120 2240c618.55 0 1120-501.44 1120-1120 0-618.559-501.45-1120-1120-1120-618.559 0-1120 501.441-1120 1120 0 618.56 501.441 1120 1120 1120" fill="#fbc1a7"/><path d="m490 1740 1270-160v-1030c0-116-94-210-210-210h-730c-182.004 0-330 148-330 330z" fill="#d35f2d"/><path d="m709 1712 21-12v-1348c-139 39-240 167-240 318v1070z" fill="#c94324"/><path d="m1239 1646-619 14v-1070c0-91 37.004-174 97.004-234-132.004 44-227.004 168-227.004 314v1070z" fill="#c43427"/><path d="m890 1690-330 10v-1070c0-108 52.004-204 132.996-265-118.996 50-202.996 168-202.996 305v1070z" fill="#bd2829"/><path d="m1760 1899c-64-24-110-86-110-159s46-135 110-159v-1h-1110c-87.996 0-160 72-160 160s72.004 160 160 160z" fill="#fef0e7"/></g><path d="m1165 1785h303" fill="none" stroke="#dbaf96" stroke-linecap="round" stroke-width="50"/><path d="m1165 1670h303" fill="none" stroke="#dbaf96" stroke-linecap="round" stroke-width="50"/><path d="m762.004 1875 117.996-90 107.004 88c8.996 7 20.996 6 27.996-3 3-4 5-8 5-13v-157h-290v159c0 11 9 20 20 20 4 0 9-1 12.004-4" fill="#ef3366" fill-rule="evenodd"/><path d="m880 1785v-85h-150v159c0 11 9 20 20 20 4 0 9-1 12.004-4z" fill="#ef2859" fill-rule="evenodd"/><path d="m1095 1165v185c0 44 36 80 80 80s80-36 80-80v-185h195c44 0 80-36 80-80s-36-80-80-80h-195v-365c0-44-36-80-80-80s-80 36-80 80v365h-195c-44 0-80 36-80 80s36 80 80 80z" fill="#f1c73e" fill-rule="evenodd"/><path d="m1180 1430v-870c-2 0-3 0-5 0-44 0-80 36-80 80v365h-195c-44 0-80 36-80 80s36 80 80 80h195v185c0 44 36 80 80 80z" fill="#f1be2c" fill-rule="evenodd"/></g></svg>