<svg height="298.66666" viewBox="0 0 298.66666 298.66666" width="298.66666" xmlns="http://www.w3.org/2000/svg"><g transform="matrix(.13333333 0 0 -.13333333 0 298.66667)"><path d="m1120 2240c618.55 0 1120-501.44 1120-1120 0-618.559-501.45-1120-1120-1120-618.559 0-1120 501.441-1120 1120 0 618.56 501.441 1120 1120 1120" fill="#feeede" fill-rule="evenodd"/><path d="m389 1545-70-362c-1.004-5 2-11 8.004-12 2.996-1 5.992 0 7.996 2l295 235z" fill="#ef3366" fill-rule="evenodd"/><path d="m486 1490c-40-55-66-138-66-230 0-6 0-13 0-19l-85-68c-2.004-2-5-3-7.996-2-5 1-9.008 6-8.004 12l70 362z" fill="#ee2655" fill-rule="evenodd"/><path d="m1773 1545 70-362c1-5-2-11-8-12-3-1-6 0-8 2l-295 235z" fill="#7c62b7" fill-rule="evenodd"/><path d="m1839 1203 4-21c1-5-2-11-8-12-3-1-6 0-8 2l-295 235 82 47c14-38 34-77 61-113 48-65 107-113 164-138" fill="#7258b1" fill-rule="evenodd"/><path d="m740 1365 59-365c1-5 6-9 11-8 2.996 0 5 2 7.004 5l195.996 321z" fill="#6ebfb8" fill-rule="evenodd"/><path d="m832.004 1349c-1.004-13-2.004-26-2.004-39 0-81 20-154 51-208l-63.996-106c-2.004-2-4.008-4-7.004-5-5-1-11 3-11 8l-59 366z" fill="#5ab7af" fill-rule="evenodd"/><path d="m1422 1365-58-365c-1-5-6-9-11-8-3 0-5 2-7 5l-196 321z" fill="#6594d5" fill-rule="evenodd"/><path d="m1378 1091-14-90c-1-5-6-9-11-8-3 0-5 2-7 5l-196 321 93 16c1-3 1-6 2-9 19-107 71-193 133-235" fill="#5a8cd0" fill-rule="evenodd"/><path d="m282.996 1678c132.004-208 440-355 799.004-355 366 0 678 152 806 367" fill="none" stroke="#e3a791" stroke-linecap="round" stroke-linejoin="round" stroke-width="50"/><path d="m564.34 724.738 83.293-359.168c1.117-4.98 6.305-9.23 12.187-7.711 3.149.313 5.485 2.442 6.496 5.09l172.59 335.172z" fill="#f69b21" fill-rule="evenodd"/><path d="m702.539 711.84c-19.559-56.871-6.008-134.031 35.371-209.738l-71.09-137.832c-1.007-2.641-3.343-4.782-6.492-5.079-4.976-1.121-10.66 1.809-12.187 7.7l-83.293 359.179z" fill="#f68b21" fill-rule="evenodd"/><path d="m1825.04 1286.04 211.18-302.22c2.95-4.172 2.65-10.871-2.43-14.218-2.33-2.141-5.48-2.442-8.12-1.43l-364.57 96.018z" fill="#ef3366" fill-rule="evenodd"/><path d="m1901.78 1000.57-240.68 63.62 86.73 117.42c16.78-35.21 39.86-69.82 67.49-102.4 27.23-31.66 56.09-57.12 86.46-78.64" fill="#ee2655" fill-rule="evenodd"/><path d="m957.297 702.66 201.033-308.93c2.95-4.16 9.14-5.781 13.31-2.832 2.74 1.223 3.75 3.852 4.36 7.411l48.49 372.972z" fill="#7c62b7" fill-rule="evenodd"/><path d="m1101.75 739.621c-23.91-74.133 6.12-183.371 83.35-278.152l-8.19-62.75c-.61-3.559-2.03-5.278-4.36-7.418-4.16-2.942-11.27-1.731-13.3 2.84l-201.953 308.519z" fill="#7258b1" fill-rule="evenodd"/><path d="m1578.51 979.25 95.06-356.129c1.13-4.973-1.82-10.652-6.79-11.769-2.75-1.223-5.38-.211-8.43 1.718l-309.62 213.52z" fill="#6594d5" fill-rule="evenodd"/><path d="m1663.19 661.199 10.38-38.078c1.13-4.973-1.82-10.652-6.79-11.769-2.75-1.223-5.38-.211-8.43 1.718l-309.62 213.52 99.67 66.269c17.38-41.507 43.2-84.757 77.24-124.328 41.25-48.402 89.31-85.031 137.55-107.332" fill="#5a8cd0" fill-rule="evenodd"/><g fill="none" stroke-linecap="round" stroke-linejoin="round"><path d="m413.004 804.051c205.594-137.242 545.437-145.75 871.576-.551 333.44 148.461 555.73 413.82 585.21 662.29" stroke="#e3a791" stroke-width="50"/><path d="m1075 912v-46" stroke="#f69b21" stroke-width="30"/><path d="m1052 890h47" stroke="#f69b21" stroke-width="30"/><path d="m1055 1172v-46" stroke="#e86936" stroke-width="30"/><path d="m1032 1150h47" stroke="#e86936" stroke-width="30"/><path d="m1525 1132v-46" stroke="#e86936" stroke-width="30"/><path d="m1502 1110h47" stroke="#e86936" stroke-width="30"/><path d="m605 912v-46" stroke="#e86936" stroke-width="30"/><path d="m582.004 890h46.996" stroke="#e86936" stroke-width="30"/><path d="m575 1202v-46" stroke="#f69b21" stroke-width="30"/><path d="m552.004 1180h46.996" stroke="#f69b21" stroke-width="30"/></g><path d="m465 1060c8.285 0 15-6.72 15-15s-6.715-15-15-15-15 6.72-15 15 6.715 15 15 15" fill="#e86936" fill-rule="evenodd"/><path d="m715 970c8.285 0 15-6.719 15-15s-6.715-15-15-15-15 6.719-15 15 6.715 15 15 15" fill="#6594d5" fill-rule="evenodd"/><path d="m1015 970c8.29 0 15-6.719 15-15s-6.71-15-15-15-15 6.719-15 15 6.71 15 15 15" fill="#e86936" fill-rule="evenodd"/><path d="m1295 1040c8.28 0 15-6.72 15-15s-6.72-15-15-15-15 6.72-15 15 6.72 15 15 15" fill="#6ebfb8" fill-rule="evenodd"/><path d="m1565 1240c8.28 0 15-6.72 15-15s-6.72-15-15-15-15 6.72-15 15 6.72 15 15 15" fill="#e86936" fill-rule="evenodd"/></g></svg>