<svg height="298.66666" viewBox="0 0 298.66666 298.66666" width="298.66666" xmlns="http://www.w3.org/2000/svg"><g transform="matrix(.13333333 0 0 -.13333333 0 298.66667)"><g fill-rule="evenodd"><path d="m1120 2240c618.55 0 1120-501.44 1120-1120 0-618.559-501.45-1120-1120-1120-618.559 0-1120 501.441-1120 1120 0 618.56 501.441 1120 1120 1120" fill="#5f7ac5"/><path d="m1074 261c21 56 6 215-27 299-39 99-46 74-129.996 40-84.008-34-120-142-81.004-241 38-94 131.004-146 213-121 12 5 21 13 25 23" fill="#f3bea0"/><path d="m837.996 518c-8.996-40-6.996-85 11.004-128 38.004-95 132-147 215-121 8 3 15 8 20 14-2-10-4-19-6-26-4-10-13-18-25-23-82-26-177 26-215.004 121-22.996 56-20.992 115 0 163" fill="#f2b896"/><path d="m1154 261c-21 56-6 215 27 299 39 99 46 74 130 40s120-142 81-241c-38-94-131-146-213-121-12 5-21 13-25 23" fill="#f3bea0"/><path d="m1233 630c-6-10-12-24-19-41-34-83-49-241-27-296 4-10 13-18 25-22 42-13 86-6 125 16-45-43-106-61-162-43-12 4-21 12-25 22-21 55-6 213 27 296 23 54 34 70 56 68" fill="#f2b896"/><path d="m712.004 470c-145 14-258.004 137-258.004 286 0 40 8.004 79 23.004 113-53.004 52-87.004 125-87.004 206 0 118 71 220 172.004 264-15 29-24.008 63-24.008 98 0 118 95 213 212.004 213s212.004-95 212.004-213c0-67-30-126-78.004-165 41-44 68.004-100 76-163 43 19 90 29 140 29 66 0 128-18 180-50 3 66 29 127 69 174-55 39-90 102-90 175 0 118 95 213 212 213s212-95 212-213c0-33-7-64-20-91 111-40 190-146 190-271 0-85-36-161-94-214 13-33 20-69 20-106 0-146-108-266-247-285-13-57-64-99-124-99-43 0-81 21-104 54-38-58-110-96-193-96-76 0-143.004 33-183.004 83-22.996-25-55.992-40-91.996-40-61 1-111 42-123.996 98" fill="#fff"/><path d="m827.004 1637c-41.004-39-67.004-94-67.004-156 0-35 9-69 24-98-101.004-44-171.996-146-171.996-264 0-81 32.996-154 86.996-206-15-35-23-73-23-113 0-149 113-272 258-286 13.996-56 63.996-97 123-97 36 0 69 15 92 40 27-34 67-60 113-73-40-32-93-52-152-52-76 0-142.996 33-182.996 83-23.004-25-56.004-40-92.004-40-60 0-110 41-122.996 97-145 14-258.004 137-258.004 286 0 40 8.004 79 23.004 113-53.004 52-87.004 125-87.004 206 0 118 71 220 172.004 264-15 29-24.008 63-24.008 98 0 118 95 213 212.004 213 27.004 0 52.996-5 77.004-15z" fill="#eef5fc"/><path d="m1215 351c-31-14-65-21-102-21-66 0-125.996 25-165.996 64 35 1 66.996 16 88.996 40 39-49 105-82 179-83zm-451 1300c-70-35-119-107-119-192 0-35 9-69 24-98-101.996-44-173-146-173-264 0-81 33-154 86.996-206-15-35-22.996-73-22.996-113 0-149 112.996-272 259-286 11-46 47-82 93.004-94-21.004-16-47.004-25-76.004-25-60 0-110 41-123.996 97-145 14-259.008 137-259.008 286 0 40 8.004 79 23.004 113-53.996 52-87 125-87 206 0 118 71 220 173.004 264-15 29-24.008 63-24.008 98 0 118 95 213 213.004 213 5 2 9 2 13 1z" fill="#d0e4f6"/><path d="m564 1478c37-40 140-36 211 30s91 161 45 211-140 36-211-30c-71.004-66-81.996-172-45-211" fill="#f3bea0"/><path d="m737.004 1746c-18.004-10-36.004-23-52.004-39-67.996-67-79-173-42.996-213 16.996-19 48.996-29 85-25-61.004-32-129.008-28-157.004 4-36 40-25 146 42.996 213 38.004 36 83.004 57 124.008 60" fill="#f1b795"/><path d="m712.004 1746c-24.008-10-49.008-25-71.004-45-73.996-66-85-170-47-209 23.004-24 72-32 123.004-20-62.004-26-128.004-20-157.004 9-37.996 40-27.004 143 47.004 209 32.996 29 70 48 105 56" fill="#f0af8b"/><path d="m1657 1478c-37-40-140-36-211 30-71 67-91 161-45 211s140 36 211-30 82-172 45-211" fill="#f3bea0"/><path d="m1646 1467c-41-36-141-30-211 35-72 67-92 163-46 213 21 22 51 32 85 30-3-3-6-5-9-8-47-50-26-146 46-213 41-38 92-55 135-57" fill="#f2b896"/><path d="m1107 893c236 0 427 97 427 406s-191 560-427 560-427-251-427-560 192.004-406 427-406" fill="#fcd6c1"/><path d="m1196 1845c-217-24-388.004-265-388.004-557 0-252 126.004-363 300.004-395-1 0-2 0-2 0-235 0-425 97-425 406s190 560 425 560c31-1 61-5 90-14" fill="#fbceb4"/><path d="m1005 902c-186 28-324 137-324 398 0 309 193 559 432 559 32 0 63-4 93-13-13 1-26 2-39 2-239.004 0-432-250-432-559 0-235 112.004-347 270-387" fill="#fbc5a6"/></g><path d="m1107 1087v-181" fill="none" stroke="#d35f2d" stroke-linecap="round" stroke-linejoin="round" stroke-width="30"/><path d="m1102.88 1061.75c29 0 66 35 66 63s-29.01 50-66 50c-37.01 0-66-23-66-51s37-62 66-62" fill="#d35f2d" fill-rule="evenodd"/><path d="m1116.88 1172.75c-29-5-52.01-25-52.01-49 0-23 26-52 52.01-60-5-2-10-2-14-2-29 0-66 35-66 63s28.99 50 66 50c4-1 9-1 14-2" fill="#d15828" fill-rule="evenodd"/><path d="m1134.87 1145.75c7.74 0 14.01-8.51 14.01-19s-6.27-19-14.01-19c-7.73 0-14 8.51-14 19s6.27 19 14 19" fill="#dc7c54" fill-rule="evenodd"/><path d="m932.996 1867c22.004 65 92.004 113 174.004 113s152-48 174-113c27 17 58 27 92 27 94 0 170-77 170-172s-76-172-170-172c-34 0-65 10-92 27-21-65-91-113-174-113s-152 48-174.004 113c-25.992-17-57.996-27-91.996-27-93.996 0-170 77-170 172s76.004 172 170 172c34 0 66.004-10 91.996-27" fill="#fff" fill-rule="evenodd"/><path d="m1224 1498c-31-21-71-33-114-33-83 0-154 47-175 111-27.004-17-59-27-92.996-27-95 0-171.004 76-171.004 169 0 88 69 161 156.004 168-43.004-31-71.004-81-71.004-137 0-93 76.996-169 171.004-169 33.996 0 65.992 10 92.996 27 22-64 92-111 175-111 11 0 20 1 29 2z" fill="#eef5fc" fill-rule="evenodd"/><path d="m862.004 1552c-7.004-1-14.008-1-21.004-1-93.996 0-170 77-170 172s76.004 172 170 172c6.996 0 14 0 21.004-1-84.008-11-149.008-83-149.008-171s66.004-161 149.008-171zm265.996-87c-7-1-14-1-21-1-75 0-139.004 39-167 96 12.996 4 24 10 35 18 20-60 80-105 153-113zm-188 419c27.004 56 92 96 167 96 7 0 14 0 21-1-73-7-133-52-152-112-12 7-23.996 13-36 17z" fill="#d0e4f6" fill-rule="evenodd"/><path d="m929 1314c23.195 0 42-18.8 42-42s-18.805-42-42-42-41.996 18.8-41.996 42 18.801 42 41.996 42" fill="#0e0f0e" fill-rule="evenodd"/><path d="m1304 1314c23.2 0 42-18.8 42-42s-18.8-42-42-42-42 18.8-42 42 18.8 42 42 42" fill="#0e0f0e" fill-rule="evenodd"/></g></svg>